<svg xmlns="http://www.w3.org/2000/svg" width="85" height="85" viewBox="0 0 85 85">
  <g id="Grupo_1100042" data-name="Grupo 1100042" transform="translate(-284.73 -6151)">
    <circle id="Elipse_11499" data-name="Elipse 11499" cx="42.5" cy="42.5" r="42.5" transform="translate(284.73 6151)" fill="#f35923"/>
    <g id="Grupo_1102487" data-name="Grupo 1102487" transform="translate(295 6158.746)">
      <g id="Grupo_1102485" data-name="Grupo 1102485">
        <g id="Grupo_1102472" data-name="Grupo 1102472">
          <path id="Trazado_886528" data-name="Trazado 886528" d="M6,52h6V62H6Z" fill="#b27946"/>
        </g>
        <g id="Grupo_1102473" data-name="Grupo 1102473">
          <path id="Trazado_886529" data-name="Trazado 886529" d="M52,52h6V62H52Z" fill="#b27946"/>
        </g>
        <g id="Grupo_1102474" data-name="Grupo 1102474">
          <path id="Trazado_886530" data-name="Trazado 886530" d="M62,48v2a2.006,2.006,0,0,1-2,2H4a2.006,2.006,0,0,1-2-2V48Z" fill="#d3a06c"/>
        </g>
        <g id="Grupo_1102475" data-name="Grupo 1102475">
          <path id="Trazado_886531" data-name="Trazado 886531" d="M62,48H2V20a2,2,0,0,1,2-2H60a2,2,0,0,1,2,2Z" fill="#dfb28b"/>
        </g>
        <g id="Grupo_1102476" data-name="Grupo 1102476">
          <path id="Trazado_886532" data-name="Trazado 886532" d="M42.67,18l-.34-2.03A23.988,23.988,0,0,1,42,12H56a23.988,23.988,0,0,1-.33,3.97L55.33,18l-.05.33A2.006,2.006,0,0,1,53.31,20H44.69a2.006,2.006,0,0,1-1.97-1.67Z" fill="#ccd1d9"/>
        </g>
        <g id="Grupo_1102477" data-name="Grupo 1102477">
          <path id="Trazado_886533" data-name="Trazado 886533" d="M54,6.85a4.909,4.909,0,0,1-.51,2.17L52,12H46L44.51,9.02A4.909,4.909,0,0,1,44,6.85,4.848,4.848,0,0,1,48.85,2h.3A4.848,4.848,0,0,1,54,6.85Z" fill="#5cd6b3"/>
        </g>
        <g id="Grupo_1102478" data-name="Grupo 1102478">
          <path id="Trazado_886534" data-name="Trazado 886534" d="M58,37v2a1,1,0,0,1-1,1H41a1,1,0,0,1-1-1V37a1,1,0,0,1,1-1H57A1,1,0,0,1,58,37Z" fill="#969faa"/>
        </g>
        <g id="Grupo_1102479" data-name="Grupo 1102479">
          <path id="Trazado_886535" data-name="Trazado 886535" d="M42,36V25a1,1,0,0,1,1-1H55a1,1,0,0,1,1,1V36Z" fill="#69d6f4"/>
        </g>
        <g id="Grupo_1102480" data-name="Grupo 1102480">
          <path id="Trazado_886536" data-name="Trazado 886536" d="M24,39v2a3,3,0,0,1-3,3H17a3,3,0,0,1-3-3V39a3,3,0,0,1,3-3h4A3,3,0,0,1,24,39Z" fill="#ccd1d9"/>
        </g>
        <g id="Grupo_1102481" data-name="Grupo 1102481">
          <path id="Trazado_886537" data-name="Trazado 886537" d="M10,28H34a4,4,0,0,1-4,4H14A4,4,0,0,1,10,28Z" fill="#aab2bd"/>
        </g>
        <g id="Grupo_1102482" data-name="Grupo 1102482">
          <path id="Trazado_886538" data-name="Trazado 886538" d="M34,20v8H10V20Z" fill="#ccd1d9"/>
        </g>
        <g id="Grupo_1102483" data-name="Grupo 1102483">
          <path id="Trazado_886539" data-name="Trazado 886539" d="M34,18v2H10V4a2.006,2.006,0,0,1,2-2H32a2.006,2.006,0,0,1,2,2Z" fill="#e6e9ed"/>
        </g>
        <g id="Grupo_1102484" data-name="Grupo 1102484">
          <path id="Trazado_886540" data-name="Trazado 886540" d="M30,7v8a1,1,0,0,1-1,1H15a1,1,0,0,1-1-1V7a1,1,0,0,1,1-1H29A1,1,0,0,1,30,7Z" fill="#69d6f4"/>
        </g>
      </g>
      <g id="Grupo_1102486" data-name="Grupo 1102486">
        <path id="Trazado_886541" data-name="Trazado 886541" d="M15,17H29a2,2,0,0,0,2-2V7a2,2,0,0,0-2-2H15a2,2,0,0,0-2,2v8A2,2,0,0,0,15,17ZM15,7H29v8H15Z"/>
        <path id="Trazado_886542" data-name="Trazado 886542" d="M13,23h2v2H13Z"/>
        <path id="Trazado_886543" data-name="Trazado 886543" d="M17,23h2v2H17Z"/>
        <path id="Trazado_886544" data-name="Trazado 886544" d="M21,23h2v2H21Z"/>
        <path id="Trazado_886545" data-name="Trazado 886545" d="M25,23h2v2H25Z"/>
        <path id="Trazado_886546" data-name="Trazado 886546" d="M29,23h2v2H29Z"/>
        <path id="Trazado_886547" data-name="Trazado 886547" d="M60,17H56.514l.144-.863A25.249,25.249,0,0,0,57,12V11H53.618l.764-1.527A5.855,5.855,0,0,0,49.146,1h-.292a5.854,5.854,0,0,0-5.236,8.472L44.382,11H41v1a25.249,25.249,0,0,0,.342,4.137l.144.863H35V4a3,3,0,0,0-3-3H12A3,3,0,0,0,9,4V17H4a3,3,0,0,0-3,3V50a3,3,0,0,0,3,3H5V63H59V53h1a3,3,0,0,0,3-3V20A3,3,0,0,0,60,17ZM45.407,8.578A3.854,3.854,0,0,1,48.854,3h.292a3.854,3.854,0,0,1,3.447,5.578L51.382,11H46.618ZM54.979,13a23.376,23.376,0,0,1-.293,2.809l-.393,2.356a1,1,0,0,1-.987.835H44.695a1,1,0,0,1-.986-.835l-.393-2.356A23.355,23.355,0,0,1,43.023,13ZM30,31H14a3,3,0,0,1-2.816-2H32.815A2.994,2.994,0,0,1,30,31Zm3-4H11V21H33ZM12,3H32a1,1,0,0,1,1,1V19H11V4A1,1,0,0,1,12,3ZM4,19H9v6H8a3,3,0,0,0-3,3V38a3,3,0,0,0,3,3h5a4,4,0,0,0,4,4h4a4,4,0,0,0,4-4V39a4,4,0,0,0-4-4H17a4,4,0,0,0-4,4H8a1,1,0,0,1-1-1V28a1,1,0,0,1,1-1H9v1a5.006,5.006,0,0,0,5,5H29v9a3,3,0,0,0,3,3H42a3,3,0,0,0,3-3V41H57a2,2,0,0,0,2-2V37a2,2,0,0,0-2-2V25a2,2,0,0,0-2-2H43a2,2,0,0,0-2,2V35a2,2,0,0,0-2,2v2a2,2,0,0,0,2,2h2v1a1,1,0,0,1-1,1H32a1,1,0,0,1-1-1V32.9A5.009,5.009,0,0,0,35,28V19h6.867a2.986,2.986,0,0,0,2.827,2H53.3a2.985,2.985,0,0,0,2.827-2H60a1,1,0,0,1,1,1V47H3V20A1,1,0,0,1,4,19ZM15,41V39a2,2,0,0,1,2-2h4a2,2,0,0,1,2,2v2a2,2,0,0,1-2,2H17A2,2,0,0,1,15,41Zm40-6H43V25H55Zm2,2v2H41V37ZM7,53h4v8H7Zm44,0v8H13V53Zm6,8H53V53h4Zm3-10H4a1,1,0,0,1-1-1V49H61v1A1,1,0,0,1,60,51Z"/>
        <path id="Trazado_886548" data-name="Trazado 886548" d="M45,27h8v2H45Z"/>
        <path id="Trazado_886549" data-name="Trazado 886549" d="M45,31h8v2H45Z"/>
      </g>
    </g>
  </g>
</svg>
