<svg xmlns="http://www.w3.org/2000/svg" xmlns:xlink="http://www.w3.org/1999/xlink" width="420.033" height="318.233" viewBox="0 0 420.033 318.233">
  <defs>
    <clipPath id="clip-path">
      <rect id="Rectángulo_403439" data-name="Rectángulo 403439" width="298" height="298" transform="translate(-0.104 -0.104)" fill="none"/>
    </clipPath>
    <clipPath id="clip-path-2">
      <path id="Trazado_886079" data-name="Trazado 886079" d="M546.732,829.884a7.614,7.614,0,0,0-3.87,2.722,6.577,6.577,0,0,0,8.565-2.142,8.142,8.142,0,0,0-3.288-.747,5.8,5.8,0,0,0-1.407.167" transform="translate(-542.862 -829.717)" fill="none"/>
    </clipPath>
  </defs>
  <g id="Grupo_1103085" data-name="Grupo 1103085" transform="translate(-179.983 -5846.027)">
    <g id="Grupo_1099963" data-name="Grupo 1099963" transform="translate(0.017 3491.615)">
      <rect id="Rectángulo_35205" data-name="Rectángulo 35205" width="420.033" height="318.233" transform="translate(179.967 2354.412)" fill="#e0f4ff"/>
      <g id="Grupo_1102186" data-name="Grupo 1102186" transform="translate(237.087 2374.438)">
        <g id="Grupo_1102181" data-name="Grupo 1102181" transform="translate(0.051 0.051)">
          <g id="Grupo_1102180" data-name="Grupo 1102180" clip-path="url(#clip-path)">
            <path id="Trazado_885997" data-name="Trazado 885997" d="M297.87,148.935A148.935,148.935,0,1,1,148.935,0,148.935,148.935,0,0,1,297.87,148.935" transform="translate(-0.039 -0.039)" fill="#effaff"/>
            <path id="Trazado_885998" data-name="Trazado 885998" d="M72.834,769.9h-.005l-11.439-.163a.359.359,0,0,1-.354-.364l.074-5.166a21.875,21.875,0,0,1-4.533-1.953l-3.7,3.6a.359.359,0,0,1-.508-.007l-7.973-8.2a.359.359,0,0,1,.007-.507l3.7-3.6a21.863,21.863,0,0,1-1.823-4.587l-5.166-.074a.359.359,0,0,1-.354-.364l.163-11.439a.364.364,0,0,1,.364-.354l5.166.074a21.875,21.875,0,0,1,1.953-4.533l-3.6-3.7a.359.359,0,0,1,.007-.508l8.2-7.973a.368.368,0,0,1,.255-.1.36.36,0,0,1,.252.109l3.6,3.7a21.866,21.866,0,0,1,4.587-1.823l.074-5.166a.354.354,0,0,1,.364-.354l11.439.164a.359.359,0,0,1,.354.364l-.074,5.166A21.867,21.867,0,0,1,78.4,724.09l3.7-3.6a.4.4,0,0,1,.255-.1.36.36,0,0,1,.252.109l7.973,8.2a.359.359,0,0,1-.007.508l-3.7,3.6A21.877,21.877,0,0,1,88.7,737.4l5.166.074a.359.359,0,0,1,.354.364l-.164,11.439a.354.354,0,0,1-.364.354l-5.166-.074a21.89,21.89,0,0,1-1.953,4.533l3.6,3.7a.359.359,0,0,1-.007.508l-8.2,7.973a.359.359,0,0,1-.508-.007l-3.6-3.7a21.892,21.892,0,0,1-4.587,1.823l-.074,5.166a.359.359,0,0,1-.359.354m-11.075-.876,10.721.153.073-5.079a.359.359,0,0,1,.269-.342,21.152,21.152,0,0,0,4.926-1.958.359.359,0,0,1,.431.064l3.54,3.643,7.689-7.473-3.54-3.643a.359.359,0,0,1-.052-.432,21.16,21.16,0,0,0,2.1-4.868.364.364,0,0,1,.35-.259l5.079.073.153-10.721-5.079-.073a.359.359,0,0,1-.342-.269,21.159,21.159,0,0,0-1.958-4.926.359.359,0,0,1,.064-.431l3.642-3.54-7.473-7.689-3.642,3.54a.359.359,0,0,1-.432.052,21.151,21.151,0,0,0-4.868-2.1.359.359,0,0,1-.259-.35l.073-5.079L62.5,717.166l-.072,5.079a.359.359,0,0,1-.269.342,21.16,21.16,0,0,0-4.926,1.958.359.359,0,0,1-.431-.064l-3.54-3.642-7.689,7.473,3.54,3.642a.359.359,0,0,1,.052.432,21.15,21.15,0,0,0-2.1,4.868.351.351,0,0,1-.35.259l-5.079-.073-.153,10.721,5.079.073a.359.359,0,0,1,.342.269,21.144,21.144,0,0,0,1.957,4.926.359.359,0,0,1-.064.431l-3.642,3.54,7.473,7.689,3.642-3.54a.359.359,0,0,1,.432-.052,21.144,21.144,0,0,0,4.868,2.1.359.359,0,0,1,.259.35Zm5.733-13.593a12.26,12.26,0,1,1,8.547-3.464,12.231,12.231,0,0,1-8.547,3.464m0-23.8a11.543,11.543,0,1,0,8.283,3.494,11.508,11.508,0,0,0-8.283-3.494" transform="translate(-34.165 -599.866)" fill="#d3bba3"/>
            <path id="Trazado_885999" data-name="Trazado 885999" d="M382.453,182.961A90.271,90.271,0,1,1,292.7,92.171a90.271,90.271,0,0,1,89.75,90.789" transform="translate(-169.086 -77.206)" fill="#b1e5ff"/>
            <path id="Trazado_886000" data-name="Trazado 886000" d="M370.682,271.224l-.536,0a90.63,90.63,0,0,1,.507-181.259l.537,0a90.63,90.63,0,0,1,90.107,91.15l-.359,0,.359,0a90.63,90.63,0,0,1-90.614,90.108m-.023-180.542a89.908,89.908,0,1,0,.526,0h-.526" transform="translate(-234.495 -75.359)" fill="#fff"/>
            <path id="Trazado_886001" data-name="Trazado 886001" d="M470.054,313.58c-25.07,0-49.712-4.221-71.262-12.207a.359.359,0,0,1,.25-.673c21.471,7.957,46.027,12.162,71.013,12.162,24.794,0,49.186-4.145,70.539-11.987a.359.359,0,1,1,.247.674c-21.431,7.871-45.909,12.031-70.786,12.031" transform="translate(-333.723 -251.775)" fill="#fff"/>
            <path id="Trazado_886002" data-name="Trazado 886002" d="M393.84,917.21a.359.359,0,0,1-.126-.695C415.469,908.327,440.4,904,465.8,904c25.269,0,50.08,4.284,71.752,12.389a.359.359,0,1,1-.251.672c-21.592-8.075-46.317-12.344-71.5-12.344-25.321,0-50.161,4.312-71.838,12.47a.363.363,0,0,1-.126.023" transform="translate(-329.473 -756.893)" fill="#fff"/>
            <path id="Trazado_886003" data-name="Trazado 886003" d="M593.919,271.225c-12.659,0-24.542-9.458-33.459-26.633-8.878-17.1-13.767-39.828-13.767-64s4.889-46.9,13.767-64c8.917-17.175,20.8-26.633,33.459-26.633s24.542,9.459,33.459,26.633c8.878,17.1,13.768,39.828,13.768,64s-4.889,46.9-13.768,64c-8.917,17.175-20.8,26.633-33.459,26.633m0-180.542c-25.645,0-46.509,40.334-46.509,89.912s20.864,89.912,46.509,89.912,46.508-40.335,46.508-89.912-20.864-89.912-46.508-89.912" transform="translate(-457.746 -75.36)" fill="#fff"/>
            <path id="Trazado_886004" data-name="Trazado 886004" d="M834.987,272.094a.359.359,0,0,1-.359-.359V91.5a.359.359,0,0,1,.718,0v180.23a.359.359,0,0,1-.359.359" transform="translate(-698.814 -76.349)" fill="#fff"/>
            <path id="Trazado_886005" data-name="Trazado 886005" d="M460.682,638.987h0l-180.616-1.408a.359.359,0,0,1,0-.718h0l180.616,1.408a.359.359,0,0,1,0,.718" transform="translate(-234.219 -533.238)" fill="#fff"/>
            <path id="Trazado_886006" data-name="Trazado 886006" d="M697.2,641.752h-213.6a.359.359,0,0,1-.359-.359v-161.9a.359.359,0,0,1,.359-.359h45.729a.359.359,0,1,1,0,.718h-45.37V641.034H696.839V479.85H597.687a.359.359,0,1,1,0-.718H697.2a.359.359,0,0,1,.359.359v161.9a.359.359,0,0,1-.359.359" transform="translate(-404.618 -401.182)" fill="#363e44"/>
            <rect id="Rectángulo_403427" data-name="Rectángulo 403427" width="200.2" height="135.516" transform="translate(85.678 85.01)" fill="#fff"/>
            <path id="Trazado_886007" data-name="Trazado 886007" d="M1124.928,1389.965a4.021,4.021,0,1,1-4.021-4.021,4.021,4.021,0,0,1,4.021,4.021" transform="translate(-935.129 -1160.392)" fill="#fff"/>
            <path id="Trazado_886010" data-name="Trazado 886010" d="M686.284,693.637H675.592a.359.359,0,0,1,0-.718h10.456l7.292-5.359h32.8l7.657-6.62h33.909l12.478-10.788a.359.359,0,1,1,.47.543l-12.681,10.963H734.064l-7.657,6.62H693.576Z" transform="translate(-565.364 -561.036)" fill="#d87355"/>
            <path id="Trazado_886011" data-name="Trazado 886011" d="M634.6,774.08H604.586a.359.359,0,1,1,0-.718H634.33l17.4-15.043h6.854l5.888-5.09h26.366l8.656,7.483h11.949a.359.359,0,0,1,0,.718H699.225l-8.656-7.484H664.738l-5.888,5.09H652Z" transform="translate(-505.916 -630.664)" fill="#efbc73"/>
            <path id="Trazado_886012" data-name="Trazado 886012" d="M1181.406,794.791a1.459,1.459,0,1,1,1.444,1.249,1.357,1.357,0,0,1-1.444-1.249" transform="translate(-989.147 -664.416)" fill="#efbc73"/>
            <path id="Trazado_886013" data-name="Trazado 886013" d="M1125.945,748.237a1.459,1.459,0,1,1,1.444,1.249,1.357,1.357,0,0,1-1.444-1.249" transform="translate(-942.713 -625.439)" fill="#efbc73"/>
            <path id="Trazado_886014" data-name="Trazado 886014" d="M965.65,748.237a1.459,1.459,0,1,1,1.444,1.249,1.357,1.357,0,0,1-1.444-1.249" transform="translate(-808.509 -625.439)" fill="#efbc73"/>
            <path id="Trazado_886015" data-name="Trazado 886015" d="M932.168,779.845a1.459,1.459,0,1,1,1.444,1.249,1.357,1.357,0,0,1-1.444-1.249" transform="translate(-780.477 -651.902)" fill="#efbc73"/>
            <path id="Trazado_886016" data-name="Trazado 886016" d="M889.232,780.386a1.459,1.459,0,1,1,1.444,1.249,1.357,1.357,0,0,1-1.444-1.249" transform="translate(-744.53 -652.355)" fill="#efbc73"/>
            <path id="Trazado_886017" data-name="Trazado 886017" d="M781.857,871.532a1.459,1.459,0,1,1,1.444,1.249,1.357,1.357,0,0,1-1.444-1.249" transform="translate(-654.633 -728.665)" fill="#efbc73"/>
            <path id="Trazado_886018" data-name="Trazado 886018" d="M794.31,656.526l-.469-.543,15.219-13.158h45.194l6.727-5.816.47.543-6.929,5.991H809.327Z" transform="translate(-664.666 -533.361)" fill="#d3bba3"/>
            <path id="Trazado_886019" data-name="Trazado 886019" d="M623.19,765.606H605.317v-.718h17.606L636,753.58l.469.543Z" transform="translate(-506.828 -630.958)" fill="#d3bba3"/>
            <path id="Trazado_886020" data-name="Trazado 886020" d="M703.513,818.389a1.459,1.459,0,1,1,1.444,1.249,1.357,1.357,0,0,1-1.444-1.249" transform="translate(-589.041 -684.173)" fill="#d3bba3"/>
            <path id="Trazado_886021" data-name="Trazado 886021" d="M1157.444,669.018a1.459,1.459,0,1,1,1.444,1.249,1.357,1.357,0,0,1-1.444-1.249" transform="translate(-969.085 -559.115)" fill="#d3bba3"/>
            <rect id="Rectángulo_403428" data-name="Rectángulo 403428" width="84.987" height="60.363" transform="translate(174.011 151.53)" fill="#feefe9"/>
            <path id="Trazado_886094" data-name="Trazado 886094" d="M0,0H84.987V5.357H0Z" transform="translate(174.011 151.53)" fill="#fabca7"/>
            <path id="Trazado_886022" data-name="Trazado 886022" d="M1152.436,990.054h-84.988a.359.359,0,0,1-.359-.359V929.332a.359.359,0,0,1,.359-.359h84.988a.359.359,0,0,1,.359.359V989.7a.359.359,0,0,1-.359.359m-84.629-.718h84.27V929.691h-84.27Z" transform="translate(-893.437 -777.802)" fill="#e6d0be"/>
            <path id="Trazado_886023" data-name="Trazado 886023" d="M1086.13,941.6a1.218,1.218,0,1,1-1.218-1.218,1.218,1.218,0,0,1,1.218,1.218" transform="translate(-907.339 -787.351)" fill="#fff"/>
            <path id="Trazado_886024" data-name="Trazado 886024" d="M1110.315,941.6a1.218,1.218,0,1,1-1.218-1.218,1.218,1.218,0,0,1,1.218,1.218" transform="translate(-927.587 -787.351)" fill="#fff"/>
            <path id="Trazado_886025" data-name="Trazado 886025" d="M1134.5,941.6a1.218,1.218,0,1,1-1.218-1.218,1.218,1.218,0,0,1,1.218,1.218" transform="translate(-947.835 -787.351)" fill="#fff"/>
            <path id="Trazado_886026" data-name="Trazado 886026" d="M1171.532,1228.308h-76.62a.359.359,0,0,1,0-.718h76.62a.359.359,0,1,1,0,.718" transform="translate(-916.431 -1027.813)" fill="#e6d0be"/>
            <path id="Trazado_886027" data-name="Trazado 886027" d="M1171.532,1178.159h-76.62a.359.359,0,0,1,0-.718h76.62a.359.359,0,0,1,0,.718" transform="translate(-916.431 -985.827)" fill="#e6d0be"/>
            <path id="Trazado_886028" data-name="Trazado 886028" d="M1171.532,1128.01h-76.62a.359.359,0,0,1,0-.718h76.62a.359.359,0,0,1,0,.718" transform="translate(-916.431 -943.841)" fill="#e6d0be"/>
            <path id="Trazado_886029" data-name="Trazado 886029" d="M1171.532,1077.862h-76.62a.359.359,0,0,1,0-.718h76.62a.359.359,0,1,1,0,.718" transform="translate(-916.431 -901.855)" fill="#e6d0be"/>
            <path id="Trazado_886030" data-name="Trazado 886030" d="M1171.532,1027.713h-76.62a.359.359,0,0,1,0-.718h76.62a.359.359,0,0,1,0,.718" transform="translate(-916.431 -859.869)" fill="#e6d0be"/>
            <path id="Trazado_886031" data-name="Trazado 886031" d="M1487.18,1026.54a.359.359,0,0,1-.359-.359V977.205a.359.359,0,1,1,.718,0v48.976a.359.359,0,0,1-.359.359" transform="translate(-1244.849 -817.883)" fill="#e6d0be"/>
            <path id="Trazado_886032" data-name="Trazado 886032" d="M1408.726,1026.54a.359.359,0,0,1-.359-.359V977.205a.359.359,0,1,1,.718,0v48.976a.359.359,0,0,1-.359.359" transform="translate(-1179.165 -817.883)" fill="#e6d0be"/>
            <path id="Trazado_886033" data-name="Trazado 886033" d="M1330.272,1026.54a.359.359,0,0,1-.359-.359V977.205a.359.359,0,1,1,.718,0v48.976a.359.359,0,0,1-.359.359" transform="translate(-1113.481 -817.883)" fill="#e6d0be"/>
            <path id="Trazado_886034" data-name="Trazado 886034" d="M1251.82,1026.54a.359.359,0,0,1-.359-.359V977.205a.359.359,0,1,1,.718,0v48.976a.359.359,0,0,1-.359.359" transform="translate(-1047.799 -817.883)" fill="#e6d0be"/>
            <path id="Trazado_886035" data-name="Trazado 886035" d="M1173.366,1026.54a.359.359,0,0,1-.359-.359V977.205a.359.359,0,1,1,.718,0v48.976a.359.359,0,0,1-.359.359" transform="translate(-982.115 -817.883)" fill="#e6d0be"/>
            <path id="Trazado_886036" data-name="Trazado 886036" d="M1162.732,882.607l-20.93,2.141,4.632,5.077-23.359,19.768-8.369-10.344-28.922,29.584,26.142-17.948,8.294,10.831,33.894-23.475,4.574,5.013Z" transform="translate(-909.089 -738.984)" fill="#c3471c"/>
            <rect id="Rectángulo_403430" data-name="Rectángulo 403430" width="28.517" height="24.421" transform="translate(100.058 169.666)" fill="#d3bba3"/>
            <rect id="Rectángulo_403431" data-name="Rectángulo 403431" width="28.517" height="24.421" transform="translate(140.435 140.419)" fill="#fff"/>
            <path id="Trazado_886037" data-name="Trazado 886037" d="M890.045,885.856H860.811V860.717h29.234Zm-28.517-.718h27.8v-23.7h-27.8Z" transform="translate(-720.735 -720.656)" fill="#8b865c"/>
            <rect id="Rectángulo_403432" data-name="Rectángulo 403432" width="25.52" height="0.718" transform="translate(131.788 169.25)" fill="#d3bba3"/>
            <rect id="Rectángulo_403433" data-name="Rectángulo 403433" width="20.1" height="0.718" transform="translate(131.788 174.481)" fill="#d3bba3"/>
            <rect id="Rectángulo_403434" data-name="Rectángulo 403434" width="23.487" height="0.718" transform="translate(131.788 179.219)" fill="#d3bba3"/>
            <rect id="Rectángulo_403435" data-name="Rectángulo 403435" width="16.158" height="0.718" transform="translate(131.788 184.203)" fill="#d3bba3"/>
            <path id="Trazado_886038" data-name="Trazado 886038" d="M904.365,892.73a5.394,5.394,0,0,1,1.381-.471l-.178-2.539a7.932,7.932,0,0,0-6.183,4.976l2.441.719a5.385,5.385,0,0,1,2.54-2.684" transform="translate(-753.03 -744.939)" fill="#efbc73"/>
            <path id="Trazado_886039" data-name="Trazado 886039" d="M898.9,931.532a5.377,5.377,0,0,1-.236-2.683l-2.441-.719a7.9,7.9,0,0,0,.4,4.54Z" transform="translate(-750.249 -777.097)" fill="#efbc73"/>
            <path id="Trazado_886040" data-name="Trazado 886040" d="M917.348,919.844l-2.277,1.138a5.409,5.409,0,0,1-9.6,4.8l-2.277,1.139a7.941,7.941,0,0,0,14.155-7.079" transform="translate(-756.219 -770.159)" fill="#923615"/>
            <path id="Trazado_886041" data-name="Trazado 886041" d="M945.708,891.7a5.419,5.419,0,0,1,4.215,2.4l2.276-1.139a7.956,7.956,0,0,0-6.669-3.8Z" transform="translate(-791.664 -744.468)" fill="#38b449"/>
            <rect id="Rectángulo_403436" data-name="Rectángulo 403436" width="57.062" height="8.161" transform="translate(219.235 104.465)" fill="#fabca7"/>
            <rect id="Rectángulo_403437" data-name="Rectángulo 403437" width="57.062" height="8.161" transform="translate(219.713 115.662)" fill="#fabca7"/>
            <rect id="Rectángulo_403438" data-name="Rectángulo 403438" width="57.062" height="8.162" transform="translate(219.713 126.857)" fill="#fabca7"/>
            <path id="Trazado_886042" data-name="Trazado 886042" d="M989.422,343.459a28.145,28.145,0,0,0-28.139-27.7c-.45,0-.9.013-1.34.034v27.67Z" transform="translate(-803.731 -264.398)" fill="#38b449"/>
            <path id="Trazado_886043" data-name="Trazado 886043" d="M857.175,414.563v-17.2A17.495,17.495,0,1,0,875.5,414.84c0-.093-.005-.185-.007-.278Z" transform="translate(-703.74 -332.725)" fill="#12263f"/>
            <path id="Trazado_886044" data-name="Trazado 886044" d="M1393.438,1439.617H1327.2a.359.359,0,0,1-.359-.359v-17.046a.359.359,0,0,1,.359-.359h66.243a.359.359,0,0,1,.359.359v17.046a.359.359,0,0,1-.359.359m-65.884-.718h65.525v-16.328h-65.525Z" transform="translate(-1110.905 -1190.456)" fill="#226c2c"/>
            <path id="Trazado_886045" data-name="Trazado 886045" d="M1402.137,1364.021c-2.825-.856-3.16-5.031-5.516-4.972-5.835.147-8.484,18.359-12.909,18.119-3.653-.2-4.251-12.74-8.481-13.147-4.515-.434-7.7,13.481-12.576,13.147-4.282-.294-4.111-11.181-11.7-14.825a11.7,11.7,0,0,0-3.95-1.075v21.884H1407.4v-20.6c-2.279,1.566-3.976,1.864-5.264,1.473" transform="translate(-1127.793 -1137.874)" fill="#38b449"/>
            <path id="Trazado_886046" data-name="Trazado 886046" d="M642.932,596.137a9.449,9.449,0,0,1-8.352-13.867l8.169-15.442,8.452,15.289a9.449,9.449,0,0,1-8.269,14.02" transform="translate(-530.398 -474.603)" fill="#8eb7cc"/>
            <path id="Trazado_886047" data-name="Trazado 886047" d="M653.251,594.651a9.807,9.807,0,0,1-8.669-14.394l8.169-15.442a.358.358,0,0,1,.314-.191.385.385,0,0,1,.317.185l8.452,15.29a9.808,9.808,0,0,1-8.583,14.553m-.176-28.914-7.859,14.855a9.09,9.09,0,1,0,15.99-.147Z" transform="translate(-538.739 -472.759)" fill="#363e44"/>
            <path id="Trazado_886048" data-name="Trazado 886048" d="M1485.931,588.528a10.368,10.368,0,0,1-10.368-10.368v-8.242H1496.3v8.242a10.368,10.368,0,0,1-10.368,10.368" transform="translate(-1235.424 -477.191)" fill="#12263f"/>
            <path id="Trazado_886049" data-name="Trazado 886049" d="M1423.013,175.738a28.055,28.055,0,1,0-42.345,24.14l.5,8.783a13.811,13.811,0,0,0,27.576,0l.5-8.783a28.036,28.036,0,0,0,13.763-24.14" transform="translate(-1144.451 -123.684)" fill="#f35923"/>
            <path id="Trazado_886050" data-name="Trazado 886050" d="M1482.977,605.111a20.869,20.869,0,0,1-10.607-2.947.359.359,0,0,1,.4-.6c.1.067,10.068,6.6,20.712-.436a.359.359,0,0,1,.4.6,19.483,19.483,0,0,1-10.9,3.379" transform="translate(-1232.618 -503.275)" fill="#f2e6dc"/>
            <path id="Trazado_886051" data-name="Trazado 886051" d="M1482.977,631.769a20.868,20.868,0,0,1-10.607-2.947.359.359,0,0,1,.4-.6c.1.067,10.068,6.6,20.712-.436a.359.359,0,0,1,.4.6,19.483,19.483,0,0,1-10.9,3.379" transform="translate(-1232.618 -525.594)" fill="#f2e6dc"/>
            <path id="Trazado_886052" data-name="Trazado 886052" d="M1492.069,242.4l8.52-21.6h12.353l-10.983,17.04h10.983l-20.873,21.6,6.723-17.04Z" transform="translate(-1250.097 -181.794)" fill="#fff"/>
            <path id="Trazado_886053" data-name="Trazado 886053" d="M641.681,1048.368s8.727,23.882,26.8,23.882c12.951,0,19.538-8.7,20.921-21.145,1.5-13.53-19.107-35.279-44.237-55.574,0,0-8.775,33.092-3.484,52.837" transform="translate(-535.853 -833.527)" fill="#fabca7"/>
            <path id="Trazado_886054" data-name="Trazado 886054" d="M46.768,1018.421s-12.624,32.217-31.141,20.03c-33.085-21.776,1.831-54.429,27.087-67.243,32.868-16.675,56.646-7.678,68.4-4.212l-2.1,69.482a12.1,12.1,0,0,1-12.119,11.729H53.874a12.1,12.1,0,0,1-11.558-15.757Z" transform="translate(-1.802 -804.992)" fill="#fabca7"/>
            <path id="Trazado_886055" data-name="Trazado 886055" d="M243.1,1136.753a.369.369,0,0,1-.091-.012.359.359,0,0,1-.257-.438l2.164-8.335a.359.359,0,1,1,.695.18l-2.164,8.335a.359.359,0,0,1-.347.269" transform="translate(-203.268 -944.182)" fill="#363e44"/>
            <path id="Trazado_886056" data-name="Trazado 886056" d="M658.3,1328.539h-.011a.359.359,0,0,1-.348-.37l.3-9.887a.359.359,0,1,1,.717.022l-.3,9.887a.359.359,0,0,1-.359.348" transform="translate(-550.885 -1103.452)" fill="#363e44"/>
            <path id="Trazado_886057" data-name="Trazado 886057" d="M74.264,1131.123s22.589-9.451,34.685-14.149c20.96-8.14,33.029-5.888,33.044-2.874.016,3.27-6.271,1.406-9.269,2.356a3.538,3.538,0,0,1,1.832,2.841,3.418,3.418,0,0,1-1.787,3.273,3.62,3.62,0,0,1,.843,6.433,3.782,3.782,0,0,1,2.166,2.553,3.551,3.551,0,0,1-2.006,3.94c-2.73.914-10.89,3.461-14.721,5.222-7.539,3.465-32.777,19.639-44.9,21.547-9.091.363-13.317-12.327-9.524-22.334,2.387-6.3,9.641-8.81,9.641-8.81" transform="translate(-52.979 -930.495)" fill="#84524d"/>
            <path id="Trazado_886058" data-name="Trazado 886058" d="M471.437,1241.41a.359.359,0,0,1-.354-.3l-.421-2.561a.359.359,0,0,1,.709-.116l.421,2.561a.359.359,0,0,1-.3.412.354.354,0,0,1-.058,0" transform="translate(-394.087 -1036.638)" fill="#363e44"/>
            <path id="Trazado_886059" data-name="Trazado 886059" d="M464.711,1201.784a.359.359,0,0,1-.355-.311l-.391-2.911a.359.359,0,1,1,.711-.1l.391,2.911a.359.359,0,0,1-.356.407" transform="translate(-388.482 -1003.17)" fill="#363e44"/>
            <path id="Trazado_886060" data-name="Trazado 886060" d="M459.809,1162.687a.359.359,0,0,1-.354-.3c-.079-.478-.147-.911-.215-1.343s-.136-.862-.215-1.339a.359.359,0,0,1,.708-.117c.079.479.147.912.216,1.344s.136.862.215,1.338a.359.359,0,0,1-.354.417" transform="translate(-384.344 -970.627)" fill="#363e44"/>
            <path id="Trazado_886061" data-name="Trazado 886061" d="M452.162,1130.921a.359.359,0,0,1-.349-.276l-.591-2.5a.359.359,0,0,1,.7-.165l.591,2.5a.359.359,0,0,1-.267.432.352.352,0,0,1-.083.01" transform="translate(-377.807 -944.182)" fill="#363e44"/>
            <path id="Trazado_886062" data-name="Trazado 886062" d="M680.806,1153.22l10.516,26.563a13.768,13.768,0,1,0,24.574-12.208l-14.6-24.079Z" transform="translate(-570.03 -957.407)" fill="#84524d"/>
            <path id="Trazado_886063" data-name="Trazado 886063" d="M529.123,1060.248a.359.359,0,0,1-.338-.479l14.363-40.326a.359.359,0,0,1,.338-.238h0l31.487.275a.359.359,0,0,1,.356.362.364.364,0,0,1-.362.356l-31.232-.273-14.277,40.085a.359.359,0,0,1-.338.239" transform="translate(-442.736 -853.346)" fill="#f7f1eb"/>
            <path id="Trazado_886064" data-name="Trazado 886064" d="M576.995,1078.256H545.508l14.363-40.195h31.488Z" transform="translate(-456.754 -869.135)" fill="#12263f"/>
            <path id="Trazado_886065" data-name="Trazado 886065" d="M723.371,1190.371c2.777,1.581,3.113,3.431,2.233,4.977s-2.643,2.2-5.42.621-5.517-4.8-4.637-6.345,5.046-.834,7.823.747" transform="translate(-598.976 -995.306)" fill="#84524d"/>
            <path id="Trazado_886066" data-name="Trazado 886066" d="M731.789,1154.086c3.219,1.832,3.608,3.977,2.589,5.768s-3.063,2.552-6.281.72-6.394-5.562-5.375-7.354,5.849-.966,9.067.866" transform="translate(-604.96 -964.713)" fill="#84524d"/>
            <path id="Trazado_886067" data-name="Trazado 886067" d="M771.112,1106.493c2.777,1.581,4.54.925,5.42-.621s.544-3.4-2.233-4.977-6.943-2.293-7.823-.747,1.86,4.765,4.637,6.345" transform="translate(-641.614 -920.394)" fill="#84524d"/>
            <path id="Trazado_886068" data-name="Trazado 886068" d="M744.751,1131.313c3.219,1.832,5.262,1.072,6.281-.72s.63-3.937-2.589-5.768-8.048-2.657-9.067-.866,2.156,5.522,5.375,7.354" transform="translate(-618.904 -940.215)" fill="#84524d"/>
            <path id="Trazado_886069" data-name="Trazado 886069" d="M758.942,1179.554q-.175,0-.356-.016a.359.359,0,1,1,.065-.715,2.662,2.662,0,0,0,2.468-4.092.359.359,0,0,1,.291-.558,3.163,3.163,0,0,0,2.781-4.29.359.359,0,0,1,.284-.5,2.9,2.9,0,0,0,2.218-1.56.359.359,0,0,1,.624.355,3.952,3.952,0,0,0-2.711,4.763,3.623,3.623,0,0,1-2.605,1.9,3.154,3.154,0,0,1-.184,3,3.193,3.193,0,0,1-2.874,1.711" transform="translate(-634.876 -977.624)" fill="#363e44"/>
            <path id="Trazado_886070" data-name="Trazado 886070" d="M68.918,1213.678c.644-.292-10.965,23.753,5.76,32.12,0,0-5.707,4.084-12.576,2.146s-14.033-24.822,6.816-34.266" transform="translate(-46.183 -1016.164)" fill="#f2e6dc"/>
            <path id="Trazado_886071" data-name="Trazado 886071" d="M730.029,1284.112s22.279,8.588,26.791-14.956l3.862,9.192s3.038,11.112-7.723,16.046-19.421-2.213-22.929-10.282" transform="translate(-611.241 -1062.614)" fill="#f2e6dc"/>
            <path id="Trazado_886072" data-name="Trazado 886072" d="M424.4,733.765A15.206,15.206,0,1,1,409.2,718.559,15.206,15.206,0,0,1,424.4,733.765" transform="translate(-329.901 -601.638)" fill="#363e44"/>
            <path id="Trazado_886073" data-name="Trazado 886073" d="M454.841,845.009c-1.924-1.063-5.221-3.9-6.284-1.978L436.083,862.98c-1.063,1.924,5.318,1.255,7.242,2.318a3.981,3.981,0,0,0,5.409-1.559l7.666-13.321a3.98,3.98,0,0,0-1.559-5.409" transform="translate(-365.041 -705.302)" fill="#84524d"/>
            <path id="Trazado_886074" data-name="Trazado 886074" d="M432.435,961.758c1.724,6.314-3.238,15.867-3.238,15.867s-18.275-8.869-18.275-15.867c0-1.789,4.816-3.238,10.757-3.238s10.286,1.513,10.757,3.238" transform="translate(-344.075 -802.539)" fill="#84524d"/>
            <path id="Trazado_886075" data-name="Trazado 886075" d="M502.448,796.94c-1.726,3.23-11.843,1.841-11.843,1.841l-8.823-6.88a9.328,9.328,0,0,1,16.7-8.325s5.727,10.074,3.969,13.364" transform="translate(-402.579 -651.745)" fill="#84524d"/>
            <path id="Trazado_886076" data-name="Trazado 886076" d="M590.242,826.583s3.565,1.286,3.763,2c.237.847-2.136,2.619-2.136,2.619s-1.562-4.64-1.627-4.615" transform="translate(-494.207 -692.079)" fill="#84524d"/>
            <path id="Trazado_886077" data-name="Trazado 886077" d="M542.862,835.658a8.1,8.1,0,0,1,2.708-2.289c.358-.178,1.112,3.027.691,3.034a8.117,8.117,0,0,1-3.4-.746" transform="translate(-454.539 -697.754)" fill="#fff"/>
          </g>
        </g>
        <g id="Grupo_1102183" data-name="Grupo 1102183" transform="translate(88.374 135.065)">
          <g id="Grupo_1102182" data-name="Grupo 1102182" clip-path="url(#clip-path-2)">
            <path id="Trazado_886078" data-name="Trazado 886078" d="M558.857,821.535a3.188,3.188,0,1,1,2.012,4.035,3.188,3.188,0,0,1-2.012-4.035" transform="translate(-556.115 -821.044)" fill="#363e44"/>
          </g>
        </g>
        <g id="Grupo_1102185" data-name="Grupo 1102185" transform="translate(0.051 0.051)">
          <g id="Grupo_1102184" data-name="Grupo 1102184" clip-path="url(#clip-path)">
            <path id="Trazado_886080" data-name="Trazado 886080" d="M580.213,865.027a1.641,1.641,0,0,1-.187-.011,1.68,1.68,0,0,1-1.381-1.1.359.359,0,0,1,.676-.242.948.948,0,0,0,1.711.165.359.359,0,1,1,.617.367,1.675,1.675,0,0,1-1.436.818" transform="translate(-484.48 -722.935)" fill="#363e44"/>
            <path id="Trazado_886081" data-name="Trazado 886081" d="M421.971,751.648s13.109.578,21.4-12.53-14.458-12.338-23.9-7.9c-6.05,2.84,2.506,20.434,2.506,20.434" transform="translate(-349.415 -609.796)" fill="#363e44"/>
            <path id="Trazado_886082" data-name="Trazado 886082" d="M460.692,803.218a4.848,4.848,0,0,1-.728-.048.359.359,0,0,1,.115-.709,5.1,5.1,0,0,0,3.627-.946,5.773,5.773,0,0,0,1.856-4.374c.176-2.989-1.934-4.645-3.474-5.854-.947-.744-1.632-1.281-1.494-1.955.129-.63.959-1.084,2.959-1.619,7.116-1.9,11.257-10.286,11.3-10.37a.359.359,0,0,1,.646.313c-.173.357-4.322,8.76-11.759,10.75-2.121.568-2.414.937-2.441,1.07-.049.239.663.8,1.234,1.246,1.571,1.233,3.946,3.1,3.747,6.461a6.441,6.441,0,0,1-2.13,4.9,5.55,5.55,0,0,1-3.456,1.138" transform="translate(-384.882 -650.683)" fill="#40484c"/>
            <path id="Trazado_886083" data-name="Trazado 886083" d="M430.2,643.6s-5.528-26.541-13.785-23.859S424.2,646.207,430.2,643.6" transform="translate(-346.736 -518.741)" fill="#363e44"/>
            <path id="Trazado_886084" data-name="Trazado 886084" d="M354.981,643.872s-11.846-31.249-21.889-26.391,14.707,30.727,21.889,26.391" transform="translate(-276.933 -516.583)" fill="#363e44"/>
            <path id="Trazado_886085" data-name="Trazado 886085" d="M280.837,674.6s-26.626-28.411-34.746-18.947,29.338,26.638,34.746,18.947" transform="translate(-205.114 -547.353)" fill="#363e44"/>
            <path id="Trazado_886086" data-name="Trazado 886086" d="M282.321,742.116S258.5,723.6,253.047,732.066s25.777,16.769,29.274,10.051" transform="translate(-211.363 -611.091)" fill="#363e44"/>
            <path id="Trazado_886087" data-name="Trazado 886087" d="M269.265,754.3c-5.528,0-10.8-1.039-13.113-3.273a3.911,3.911,0,0,1-1.132-4.126,5.083,5.083,0,0,1,2.767-3.218c7.7-3.867,27.788,3.71,28.64,4.035l.28.106-.055.294c-.346,1.866-2.416,3.456-5.988,4.6a39.147,39.147,0,0,1-11.4,1.583m-5.6-10.992a12.672,12.672,0,0,0-5.559,1.016,4.336,4.336,0,0,0-2.4,2.772,3.238,3.238,0,0,0,.94,3.414c3.821,3.695,16.277,3.925,23.795,1.522,3.055-.976,4.963-2.3,5.427-3.755-2.028-.745-13.907-4.97-22.2-4.97" transform="translate(-213.398 -621.758)" fill="#363e44"/>
            <path id="Trazado_886088" data-name="Trazado 886088" d="M360.495,628.936c-1.6,0-3.584-.966-5.822-2.853-6.183-5.211-12.757-16.225-11.614-21.653a3.911,3.911,0,0,1,2.891-3.153,5.083,5.083,0,0,1,4.2.63c7.373,4.463,11.646,25.5,11.824,26.395l.059.293-.278.11a3.374,3.374,0,0,1-1.256.23m-13.136-27.149a4.272,4.272,0,0,0-1.208.179,3.237,3.237,0,0,0-2.39,2.612c-1.1,5.2,5.339,15.87,11.374,20.956,2.452,2.066,4.59,2.977,6.067,2.6-.567-2.669-4.795-21.6-11.427-25.61a4.617,4.617,0,0,0-2.416-.734" transform="translate(-287.148 -503.274)" fill="#363e44"/>
            <path id="Trazado_886089" data-name="Trazado 886089" d="M488.419,685.578s-4.23-12.423,1.958-11.983-1.958,11.983-1.958,11.983" transform="translate(-407.776 -563.983)" fill="#363e44"/>
            <path id="Trazado_886090" data-name="Trazado 886090" d="M332.839,800.637s-16.867-3.757-14.972,4.992,14.972-4.992,14.972-4.992" transform="translate(-266.042 -669.684)" fill="#363e44"/>
            <path id="Trazado_886091" data-name="Trazado 886091" d="M248.46,1444.126l10.07,22.063h38.645L272.226,1396.4l-50.878.057c-12.763,19.669-17.02,43.538-15.794,69.737h42.212Z" transform="translate(-171.966 -1169.142)" fill="#12263f"/>
            <path id="Trazado_886092" data-name="Trazado 886092" d="M468.34,1629.092h-.005a.359.359,0,0,1-.354-.364l.126-8.721a.359.359,0,0,1,.2-.319l5.814-2.781a.359.359,0,1,1,.31.647l-5.613,2.685-.123,8.5a.359.359,0,0,1-.359.354" transform="translate(-391.846 -1353.732)" fill="#363e44"/>
            <rect id="Rectángulo_403440" data-name="Rectángulo 403440" width="51.32" height="8.613" transform="translate(49.072 219.888)" fill="#12263f"/>
            <path id="Trazado_886093" data-name="Trazado 886093" d="M351.656,1395.961h-31.94a.359.359,0,1,1,0-.718h31.94a.359.359,0,0,1,0,.718" transform="translate(-267.414 -1168.177)" fill="#363e44"/>
          </g>
        </g>
      </g>
    </g>
  </g>
</svg>
