<svg xmlns="http://www.w3.org/2000/svg" width="85" height="85" viewBox="0 0 85 85">
  <g id="Grupo_1099631" data-name="Grupo 1099631" transform="translate(-284.73 -6151)">
    <circle id="Elipse_11499" data-name="Elipse 11499" cx="42.5" cy="42.5" r="42.5" transform="translate(284.73 6151)" fill="#016835"/>
    <g id="Grupo_1099644" data-name="Grupo 1099644" transform="translate(298.799 6133.074)">
      <path id="Trazado_881828" data-name="Trazado 881828" d="M238.891,196.93h-2.783a.833.833,0,1,0,0,1.666h2.783a.833.833,0,0,0,0-1.666Z" transform="translate(-209.146 -145.837)" fill="#ebf8ed"/>
      <path id="Trazado_881829" data-name="Trazado 881829" d="M238.891,234.454h-2.783a.833.833,0,1,0,0,1.666h2.783a.833.833,0,0,0,0-1.666Z" transform="translate(-209.146 -179.194)" fill="#ebf8ed"/>
      <path id="Trazado_881830" data-name="Trazado 881830" d="M238.891,271.978h-2.783a.833.833,0,1,0,0,1.666h2.783a.833.833,0,0,0,0-1.666Z" transform="translate(-209.146 -212.55)" fill="#ebf8ed"/>
      <path id="Trazado_881831" data-name="Trazado 881831" d="M388.846,251.51h-1.58a.833.833,0,1,0,0,1.666h1.58a.833.833,0,1,0,0-1.666Z" transform="translate(-343.516 -194.355)" fill="#ebf8ed"/>
      <path id="Trazado_881832" data-name="Trazado 881832" d="M388.846,284.77h-1.58a.833.833,0,1,0,0,1.666h1.58a.833.833,0,1,0,0-1.666Z" transform="translate(-343.516 -223.922)" fill="#ebf8ed"/>
      <path id="Trazado_881833" data-name="Trazado 881833" d="M388.846,318.029h-1.58a.833.833,0,0,0,0,1.666h1.58a.833.833,0,1,0,0-1.666Z" transform="translate(-343.516 -253.487)" fill="#ebf8ed"/>
      <path id="Trazado_881834" data-name="Trazado 881834" d="M388.846,351.29h-1.58a.833.833,0,0,0,0,1.666h1.58a.833.833,0,0,0,0-1.666Z" transform="translate(-343.516 -283.054)" fill="#ebf8ed"/>
      <path id="Trazado_881835" data-name="Trazado 881835" d="M388.846,384.55h-1.58a.833.833,0,0,0,0,1.666h1.58a.833.833,0,1,0,0-1.666Z" transform="translate(-343.516 -312.62)" fill="#ebf8ed"/>
      <path id="Trazado_881836" data-name="Trazado 881836" d="M52.039,310.154H50.51V306.1a1.277,1.277,0,0,0-2.444-.519l-2.69,6.051a2.121,2.121,0,0,0,1.938,2.982h1.53v4.051a1.267,1.267,0,0,0,1.012,1.249,1.306,1.306,0,0,0,.271.029,1.266,1.266,0,0,0,1.161-.759l2.69-6.051a2.121,2.121,0,0,0-1.938-2.982Zm.416,2.306-1.945,4.376v-3.052a.833.833,0,0,0-.833-.833H47.314a.455.455,0,0,1-.416-.64l1.945-4.376v3.052a.833.833,0,0,0,.833.833h2.362a.455.455,0,0,1,.416.64Z" transform="translate(-40.173 -241.75)" fill="#ebf8ed"/>
      <path id="Trazado_881837" data-name="Trazado 881837" d="M158.289,351.29h-9.332a.833.833,0,1,0,0,1.666h9.332a.833.833,0,0,0,0-1.666Z" transform="translate(-131.673 -283.054)" fill="#ebf8ed"/>
      <path id="Trazado_881838" data-name="Trazado 881838" d="M158.289,384.55h-9.332a.833.833,0,0,0,0,1.666h9.332a.833.833,0,0,0,0-1.666Z" transform="translate(-131.673 -312.62)" fill="#ebf8ed"/>
      <path id="Trazado_881839" data-name="Trazado 881839" d="M52.545,48.552a4.338,4.338,0,0,0-.021-8.676,4.243,4.243,0,0,0-4.153,3.4h-2.3A4.075,4.075,0,0,0,42,47.348V50.77H39.946a2.366,2.366,0,0,0-.894,4.557l-1.4,7.779L35.024,48.528a2.412,2.412,0,0,0-.548-4.76h-3.9V41.6l11.365-.054a4.338,4.338,0,0,0-.021-8.676H37.581a4.243,4.243,0,0,0-4.153,3.4H29.384a4.075,4.075,0,0,0-4.071,4.071v3.422H22.232a2.412,2.412,0,0,0-.547,4.76L19.424,61.077a6.024,6.024,0,0,0-4.674-2.238H3.4a3.4,3.4,0,0,0-3.4,3.4V78.985a3.452,3.452,0,0,0,3.448,3.448H50.785a3.449,3.449,0,0,0,3.394-4.06L50.028,55.328a2.366,2.366,0,0,0-.894-4.557H47.267V48.6ZM26.979,40.346a2.408,2.408,0,0,1,2.4-2.4h4.795a.833.833,0,0,0,.833-.833,2.572,2.572,0,0,1,2.569-2.569h4.343a2.672,2.672,0,0,1,.013,5.345l-12.194.058a.833.833,0,0,0-.829.833v2.993H26.979Zm-4.748,5.088H34.477a.746.746,0,0,1,0,1.492H22.232a.746.746,0,0,1,0-1.492ZM1.666,78.985V62.238A1.735,1.735,0,0,1,3.4,60.505H14.75A4.32,4.32,0,0,1,18,61.984l2.614,2.992a.833.833,0,0,0,.627.285H26.91a2.865,2.865,0,0,1,2.811,2.326l2.509,13.18H3.448a1.784,1.784,0,0,1-1.782-1.782Zm32.261,1.783L31.358,67.276A4.532,4.532,0,0,0,26.91,63.6H21.623l-.8-.911,2.539-14.092h9.978l5.795,32.176H33.927Zm18.226-.639a1.778,1.778,0,0,1-1.367.639H40.831L38.5,67.806l2.216-12.3h7.656L52.54,78.669a1.779,1.779,0,0,1-.387,1.46Zm-2.318-26.99a.7.7,0,0,1-.7.7H39.946a.7.7,0,0,1,0-1.4h9.188A.7.7,0,0,1,49.834,53.138ZM43.667,50.77V47.348a2.408,2.408,0,0,1,2.4-2.4h3.05a.833.833,0,0,0,.833-.833,2.572,2.572,0,0,1,2.569-2.569,2.672,2.672,0,0,1,.009,5.345l-6.107.058a.833.833,0,0,0-.825.833V50.77H43.667Z" fill="#ebf8ed"/>
    </g>
  </g>
</svg>
