<svg xmlns="http://www.w3.org/2000/svg" width="85" height="85" viewBox="0 0 85 85">
  <g id="Grupo_1099767" data-name="Grupo 1099767" transform="translate(-284.73 -6151)">
    <circle id="Elipse_11499" data-name="Elipse 11499" cx="42.5" cy="42.5" r="42.5" transform="translate(284.73 6151)" fill="#016835"/>
    <g id="Grupo_1102074" data-name="Grupo 1102074" transform="translate(290.117 6162)">
      <path id="Trazado_885511" data-name="Trazado 885511" d="M200.465,22.874a8.145,8.145,0,0,1,7.13-.636V1.75a1.75,1.75,0,0,0-3.37-.66l-6.532,16.029a1.749,1.749,0,0,0,.141,1.595Z" transform="translate(-167.267 0)" fill="#fff"/>
      <circle id="Elipse_11637" data-name="Elipse 11637" cx="4.665" cy="4.665" r="4.665" transform="translate(31.887 26.252) rotate(-12.007)" fill="#fff"/>
      <path id="Trazado_885512" data-name="Trazado 885512" d="M39.763,78.606a1.748,1.748,0,0,0,2.135-1.25A22.877,22.877,0,0,1,52.1,63.591a1.75,1.75,0,1,0-1.831-2.982A26.36,26.36,0,0,0,38.513,76.47,1.75,1.75,0,0,0,39.763,78.606Z" transform="translate(-26.716 -53.311)" fill="#fff"/>
      <path id="Trazado_885513" data-name="Trazado 885513" d="M351.6,61.327a22.9,22.9,0,0,1,10.424,13.315,1.75,1.75,0,1,0,3.356-.992,26.387,26.387,0,0,0-12.011-15.343,1.75,1.75,0,0,0-1.769,3.019Z" transform="translate(-302.575 -51.295)" fill="#fff"/>
      <path id="Trazado_885514" data-name="Trazado 885514" d="M364.254,369.038a1.75,1.75,0,0,0-2.45.343,22.888,22.888,0,0,1-6.31,5.739,1.75,1.75,0,1,0,1.833,2.98,26.376,26.376,0,0,0,7.271-6.613A1.749,1.749,0,0,0,364.254,369.038Z" transform="translate(-306.039 -325.683)" fill="#fff"/>
      <path id="Trazado_885515" data-name="Trazado 885515" d="M83.448,374.723a22.888,22.888,0,0,1-6.363-5.8,1.75,1.75,0,0,0-2.8,2.1,26.374,26.374,0,0,0,7.332,6.682,1.75,1.75,0,0,0,1.831-2.982Z" transform="translate(-58.058 -325.275)" fill="#fff"/>
      <path id="Trazado_885516" data-name="Trazado 885516" d="M336.555,234.169l-13.792-10.458a1.749,1.749,0,0,0-1.577-.276l-4.7,1.462a8.135,8.135,0,0,1-1.231,7.054l19.787,5.3a1.75,1.75,0,0,0,1.51-3.084Z" transform="translate(-271.233 -197.304)" fill="#fff"/>
      <path id="Trazado_885517" data-name="Trazado 885517" d="M29.25,249.639a8.208,8.208,0,0,1,.044-.844L9.51,254.1a1.75,1.75,0,0,0,.234,3.426l17.173,2.16a1.749,1.749,0,0,0,1.5-.549l3.337-3.615a8.14,8.14,0,0,1-2.508-5.879Z" transform="translate(0 -219.776)" fill="#fff"/>
      <path id="Trazado_885518" data-name="Trazado 885518" d="M202.6,317.05a8.138,8.138,0,0,1-7.984,0l-3.893,20.665a1.75,1.75,0,0,0,1.719,2.073h0l12.309-.005a1.749,1.749,0,0,0,1.719-2.072Z" transform="translate(-161.195 -280.068)" fill="#fff"/>
    </g>
  </g>
</svg>
