<svg xmlns="http://www.w3.org/2000/svg" width="85" height="85" viewBox="0 0 85 85">
  <g id="Grupo_1099591" data-name="Grupo 1099591" transform="translate(-284.73 -6151)">
    <circle id="Elipse_11499" data-name="Elipse 11499" cx="42.5" cy="42.5" r="42.5" transform="translate(284.73 6151)" fill="#f35923"/>
    <g id="Grupo_1102091" data-name="Grupo 1102091" transform="translate(296.742 6135.914)">
      <path id="Trazado_885519" data-name="Trazado 885519" d="M206.928,64.023a26.008,26.008,0,0,0-36.115-23.716l3.01,7.117a18.28,18.28,0,0,1,25.376,16.6h-2.832l6.7,9.535,6.7-9.535h-2.838Z" transform="translate(-150.505 -6.615)" fill="#ff6a47"/>
      <path id="Trazado_885520" data-name="Trazado 885520" d="M17.274,187.261a26.008,26.008,0,0,0,36.115,23.716l-3.01-7.117A18.28,18.28,0,0,1,25,187.262h2.832l-6.7-9.535-6.7,9.535h2.838Z" transform="translate(-12.72 -129.497)" fill="#e1fda0"/>
      <circle id="Elipse_11638" data-name="Elipse 11638" cx="11.57" cy="11.57" r="11.57" transform="matrix(0.987, -0.16, 0.16, 0.987, 17.27, 48.08)" fill="#fee95d"/>
      <g id="Grupo_1102079" data-name="Grupo 1102079" transform="translate(20.308 31.649)">
        <g id="Grupo_1102078" data-name="Grupo 1102078">
          <g id="Grupo_1102075" data-name="Grupo 1102075">
            <path id="Trazado_885521" data-name="Trazado 885521" d="M173.191,40.312a25.788,25.788,0,0,1,8.933-2.017,25.887,25.887,0,0,0-11.311,2.017l3.01,7.117a18.15,18.15,0,0,1,2.069-.731Z" transform="translate(-170.813 -38.268)" fill="#d03582"/>
          </g>
          <g id="Grupo_1102076" data-name="Grupo 1102076" transform="translate(11.304 7.728)">
            <path id="Trazado_885522" data-name="Trazado 885522" d="M285.352,121.3a18.286,18.286,0,0,0-19.46-17.993A18.292,18.292,0,0,1,282.974,121.3Z" transform="translate(-265.892 -103.272)" fill="#d03582"/>
          </g>
          <g id="Grupo_1102077" data-name="Grupo 1102077" transform="translate(25.554 25.76)">
            <path id="Trazado_885523" data-name="Trazado 885523" d="M388.129,254.934h-2.378l6.7,9.535,1.189-1.692Z" transform="translate(-385.751 -254.934)" fill="#d03582"/>
          </g>
        </g>
      </g>
      <g id="Grupo_1102084" data-name="Grupo 1102084" transform="translate(1.716 48.229)">
        <g id="Grupo_1102083" data-name="Grupo 1102083">
          <g id="Grupo_1102080" data-name="Grupo 1102080" transform="translate(30.026 26.133)">
            <path id="Trazado_885524" data-name="Trazado 885524" d="M273.214,398.261l-.309-.731a18.091,18.091,0,0,1-5.916,1.395A18.275,18.275,0,0,0,273.214,398.261Z" transform="translate(-266.989 -397.53)" fill="#8ae897"/>
          </g>
          <g id="Grupo_1102081" data-name="Grupo 1102081">
            <path id="Trazado_885525" data-name="Trazado 885525" d="M21.135,177.725l-6.7,9.535h2.378l5.51-7.842Z" transform="translate(-14.436 -177.725)" fill="#8ae897"/>
          </g>
          <g id="Grupo_1102082" data-name="Grupo 1102082" transform="translate(2.838 9.535)">
            <path id="Trazado_885526" data-name="Trazado 885526" d="M40.685,257.921H38.307a25.981,25.981,0,0,0,27.182,25.733A25.982,25.982,0,0,1,40.685,257.921Z" transform="translate(-38.307 -257.921)" fill="#8ae897"/>
          </g>
        </g>
      </g>
      <path id="Trazado_885527" data-name="Trazado 885527" d="M162.007,171.173a11.586,11.586,0,0,1,10.381-11.509,11.571,11.571,0,1,0,0,23.019A11.586,11.586,0,0,1,162.007,171.173Z" transform="translate(-140.65 -113.528)" fill="#ffc277"/>
      <g id="Grupo_1102085" data-name="Grupo 1102085" transform="translate(0 30.756)">
        <path id="Trazado_885528" data-name="Trazado 885528" d="M199.134,56.517a26.728,26.728,0,0,0-7.666-17.7l-1.273,1.249a24.963,24.963,0,0,1,7.178,17.349l.008.884h2.006L194.4,65.392,189.421,58.3h2.019l-.012-.9a19.178,19.178,0,0,0-25.786-17.737l-2.318-5.48a25.121,25.121,0,0,1,25.623,4.7l1.187-1.331A26.9,26.9,0,0,0,161.8,32.871l-.821.347,3.705,8.761.821-.348a17.39,17.39,0,0,1,24.1,14.885h-3.622L194.4,68.494l8.414-11.977Z" transform="translate(-141.842 -30.756)"/>
        <path id="Trazado_885529" data-name="Trazado 885529" d="M37.311,191.543a17.4,17.4,0,0,1-24.1-14.885h3.622L8.416,164.68,0,176.657H3.685A26.893,26.893,0,0,0,41.017,200.3l.821-.347-3.705-8.76Zm-6.763,9.092a25.09,25.09,0,0,1-25.1-24.877l-.008-.884H3.433l4.983-7.092,4.983,7.092H11.379l.012.9a19.175,19.175,0,0,0,25.786,17.736l2.318,5.48a24.961,24.961,0,0,1-8.946,1.641Z" transform="translate(0 -148.758)"/>
        <path id="Trazado_885530" data-name="Trazado 885530" d="M164.591,152.107a12.476,12.476,0,0,0-12.461,12.462,12.351,12.351,0,0,0,3.85,9l1.233-1.289a10.583,10.583,0,0,1-3.3-7.711,10.687,10.687,0,1,1,4.579,8.76l-1.022,1.462a12.46,12.46,0,1,0,7.12-22.684Z" transform="translate(-134.043 -137.679)"/>
        <path id="Trazado_885531" data-name="Trazado 885531" d="M229.767,205.126v1.783h2.34v1.93h1.783v-1.93h2.34v-6.463H231.55v-2.9h4.679v-1.783h-2.34v-1.93h-1.783v1.93h-2.34v6.463h4.679v2.9Z" transform="translate(-202.45 -174.449)"/>
      </g>
      <g id="Grupo_1102086" data-name="Grupo 1102086" transform="translate(30.412 34.324)">
        <path id="Trazado_885532" data-name="Trazado 885532" d="M267.211,65.792c-.477-.3-.978-.576-1.489-.835l.806-1.591c.556.282,1.1.587,1.621.909Zm-4.655-2.132c-.54-.173-1.1-.329-1.653-.463l.416-1.734c.6.144,1.2.312,1.782.5Zm-5.042-1.018c-.569-.051-1.146-.083-1.717-.093l.033-1.783c.613.011,1.233.045,1.844.1Z" transform="translate(-255.797 -60.765)" fill="#fff"/>
      </g>
      <g id="Grupo_1102089" data-name="Grupo 1102089" transform="translate(22.888 56.754)">
        <g id="Grupo_1102087" data-name="Grupo 1102087">
          <path id="Trazado_885533" data-name="Trazado 885533" d="M192.513,249.426H194.3v1.783h-1.783Z" transform="translate(-192.513 -249.426)"/>
        </g>
        <g id="Grupo_1102088" data-name="Grupo 1102088" transform="translate(13.554)">
          <path id="Trazado_885534" data-name="Trazado 885534" d="M306.513,249.426H308.3v1.783h-1.783Z" transform="translate(-306.513 -249.426)"/>
        </g>
      </g>
      <g id="Grupo_1102090" data-name="Grupo 1102090" transform="translate(32.009 78.571)">
        <path id="Trazado_885535" data-name="Trazado 885535" d="M269.226,432.928h1.783v1.783h-1.783Z" transform="translate(-269.226 -432.928)"/>
      </g>
    </g>
  </g>
</svg>
