<svg xmlns="http://www.w3.org/2000/svg" xmlns:xlink="http://www.w3.org/1999/xlink" width="553.235" height="271.312" viewBox="0 0 553.235 271.312">
  <defs>
    <clipPath id="clip-path">
      <rect id="Rectángulo_403426" data-name="Rectángulo 403426" width="444.047" height="261.801" fill="none"/>
    </clipPath>
    <clipPath id="clip-path-3">
      <rect id="Rectángulo_403417" data-name="Rectángulo 403417" width="204.694" height="186.532" fill="none"/>
    </clipPath>
    <clipPath id="clip-path-4">
      <rect id="Rectángulo_403418" data-name="Rectángulo 403418" width="155.029" height="141.274" fill="none"/>
    </clipPath>
    <clipPath id="clip-path-5">
      <rect id="Rectángulo_403419" data-name="Rectángulo 403419" width="57.108" height="56.959" fill="none"/>
    </clipPath>
    <clipPath id="clip-path-6">
      <rect id="Rectángulo_403420" data-name="Rectángulo 403420" width="128.322" height="139.27" fill="#f35923"/>
    </clipPath>
  </defs>
  <g id="Grupo_1103082" data-name="Grupo 1103082" transform="translate(-236.765 -1172.018)">
    <g id="Grupo_1099828" data-name="Grupo 1099828" transform="translate(236.765 1172.018)">
      <rect id="Rectángulo_35205" data-name="Rectángulo 35205" width="553.235" height="271.312" rx="20" transform="translate(0 0)" fill="#feefe9"/>
    </g>
    <g id="Grupo_1102170" data-name="Grupo 1102170" transform="translate(285 1180.182)">
      <g id="Grupo_1102169" data-name="Grupo 1102169" transform="translate(0 0)" clip-path="url(#clip-path)">
        <g id="Grupo_1102168" data-name="Grupo 1102168">
          <g id="Grupo_1102167" data-name="Grupo 1102167" clip-path="url(#clip-path)">
            <g id="Grupo_1102157" data-name="Grupo 1102157" transform="translate(116.136)" opacity="0.2" style="mix-blend-mode: overlay;isolation: isolate">
              <g id="Grupo_1102156" data-name="Grupo 1102156">
                <g id="Grupo_1102155" data-name="Grupo 1102155" clip-path="url(#clip-path-3)">
                  <path id="Trazado_885819" data-name="Trazado 885819" d="M388.346,93.266c0,51.51-45.823,93.266-102.347,93.266S183.652,144.775,183.652,93.266,229.475,0,286,0,388.346,41.756,388.346,93.266" transform="translate(-183.653)" fill="#fff9f2"/>
                </g>
              </g>
            </g>
            <g id="Grupo_1102160" data-name="Grupo 1102160" transform="translate(140.968 22.629)" opacity="0.2" style="mix-blend-mode: overlay;isolation: isolate">
              <g id="Grupo_1102159" data-name="Grupo 1102159">
                <g id="Grupo_1102158" data-name="Grupo 1102158" clip-path="url(#clip-path-4)">
                  <path id="Trazado_885820" data-name="Trazado 885820" d="M377.95,109.906c0,39.012-34.7,70.637-77.514,70.637s-77.515-31.626-77.515-70.637,34.7-70.637,77.515-70.637,77.514,31.625,77.514,70.637" transform="translate(-222.921 -39.269)" fill="#fff9f2"/>
                </g>
              </g>
            </g>
            <path id="Trazado_885821" data-name="Trazado 885821" d="M443.472,406.119H358.158c-5.056,0-9.169-3.749-9.169-8.356V359.336a1.588,1.588,0,0,1,3.162,0v38.428a5.766,5.766,0,0,0,6.007,5.474h85.313a1.447,1.447,0,1,1,0,2.881" transform="translate(-128.3 -151.654)" fill="#013f20"/>
            <path id="Trazado_885822" data-name="Trazado 885822" d="M447.883,394.677h-78.99c-4.359,0-7.9-3.231-7.9-7.2V359.335a1.588,1.588,0,0,1,3.162,0v28.139a4.552,4.552,0,0,0,4.743,4.322h78.99a1.447,1.447,0,1,1,0,2.881" transform="translate(-132.711 -151.654)" fill="#013f20"/>
            <path id="Trazado_885823" data-name="Trazado 885823" d="M276.972,406.119H191.659a1.447,1.447,0,1,1,0-2.881h85.313a5.766,5.766,0,0,0,6.008-5.474V359.336a1.588,1.588,0,0,1,3.162,0v38.428c0,4.607-4.114,8.356-9.169,8.356" transform="translate(-69.879 -151.654)" fill="#013f20"/>
            <path id="Trazado_885824" data-name="Trazado 885824" d="M283.461,394.677h-56.95a1.447,1.447,0,1,1,0-2.881h56.95a4.552,4.552,0,0,0,4.743-4.322V359.335a1.588,1.588,0,0,1,3.162,0v28.139c0,3.972-3.546,7.2-7.9,7.2" transform="translate(-82.692 -151.654)" fill="#013f20"/>
            <path id="Trazado_885825" data-name="Trazado 885825" d="M213.7,403.5a1.515,1.515,0,0,1-1.581-1.441V385.928a4.552,4.552,0,0,0-4.743-4.322H191.66a1.447,1.447,0,1,1,0-2.881h15.716c4.359,0,7.9,3.231,7.9,7.2v16.135A1.515,1.515,0,0,1,213.7,403.5" transform="translate(-69.879 -160.481)" fill="#013f20"/>
            <path id="Trazado_885826" data-name="Trazado 885826" d="M354.421,305.336H302.433a3.088,3.088,0,1,1,0-6.149h51.988a3.088,3.088,0,1,1,0,6.149" transform="translate(-109.944 -126.778)" fill="#013f20"/>
            <path id="Trazado_885827" data-name="Trazado 885827" d="M354.982,309.857h-45.3v19.69c0,5.209,4.635,9.433,10.351,9.433h24.6c5.717,0,10.351-4.223,10.351-9.433Z" transform="translate(-113.85 -131.299)" fill="#013f20"/>
            <path id="Trazado_885828" data-name="Trazado 885828" d="M354.569,317.359H307.2a1.331,1.331,0,1,1,0-2.651h47.364a1.331,1.331,0,1,1,0,2.651" transform="translate(-112.404 -133.354)" fill="#e6f0eb"/>
            <path id="Trazado_885829" data-name="Trazado 885829" d="M354.569,329.643H307.2a1.331,1.331,0,1,1,0-2.651h47.364a1.331,1.331,0,1,1,0,2.651" transform="translate(-112.404 -138.56)" fill="#e6f0eb"/>
            <path id="Trazado_885830" data-name="Trazado 885830" d="M354.569,341.927H307.2a1.331,1.331,0,1,1,0-2.651h47.364a1.331,1.331,0,1,1,0,2.651" transform="translate(-112.404 -143.765)" fill="#e6f0eb"/>
            <path id="Trazado_885831" data-name="Trazado 885831" d="M372.359,115.975c0-32.568-29.222-58.917-65.076-58.461-34.726.441-62.993,26.385-63.242,58.032-.178,22.724,13.871,42.47,34.511,52.288a11.747,11.747,0,0,1,7,10.479v18.465h45.3V178.314a11.787,11.787,0,0,1,7.038-10.5c20.488-9.762,34.472-29.312,34.472-51.84" transform="translate(-89.717 -24.368)" fill="#fabca7"/>
            <path id="Trazado_885832" data-name="Trazado 885832" d="M330.181,223.613h-3.794a266.878,266.878,0,0,1,3.527-45.181c-4.2-1.756-7.986-5.141-11.2-9.416-3.214,4.275-7,7.66-11.2,9.417a266.87,266.87,0,0,1,3.526,45.18h-3.794a261.971,261.971,0,0,0-3.4-44.1l-.315.052c-6.555,1.01-13.1-1.645-18.914-7.682a45.969,45.969,0,0,1-10.647-18.875c-2.885-10.221-.936-17.76,5.088-19.676a10.806,10.806,0,0,1,9.357,1.518c6.249,4.043,11.9,14.373,15.913,29.086q1.41,5.169,2.532,10.935c3.563-1.764,6.833-5.039,9.627-9.11-6.215-9.9-9.668-23.013-8.816-32.25.744-8.056,4.772-12.676,11.052-12.676s10.3,4.618,11.047,12.669c.854,9.252-2.612,22.389-8.846,32.3,2.963,4.279,6.27,7.386,9.65,9.062.747-3.834,1.592-7.485,2.531-10.928,4.012-14.713,9.664-25.043,15.912-29.086a10.806,10.806,0,0,1,9.357-1.518c6.024,1.917,7.974,9.456,5.088,19.677a45.973,45.973,0,0,1-10.646,18.875c-5.819,6.037-12.362,8.695-18.914,7.682-.106-.017-.211-.034-.316-.052a261.987,261.987,0,0,0-3.4,44.1m-48.047-87.3a6,6,0,0,0-1.829.29c-4.471,1.422-4.56,8.835-2.664,15.55,3.631,12.861,14.314,25.7,25.252,24.009.109-.017.218-.036.328-.055-4.087-21.285-10.7-34.349-17.006-38.432a7.492,7.492,0,0,0-4.081-1.362M334.2,176.1c.109.02.218.038.327.055,10.932,1.685,21.621-11.148,25.252-24.009,1.9-6.716,1.807-14.129-2.664-15.551a6.71,6.71,0,0,0-5.909,1.072c-6.31,4.083-12.919,17.147-17.006,38.432M318.72,124.3c-5.284,0-6.871,5.171-7.27,9.508-.678,7.342,1.686,17.614,6.022,26.169q.591,1.165,1.212,2.258c5.1-9.016,8.038-20.479,7.3-28.434-.4-4.335-1.986-9.5-7.267-9.5" transform="translate(-100.237 -51.204)" fill="#feefe9"/>
            <g id="Grupo_1102163" data-name="Grupo 1102163" transform="translate(162.639 40.716)" opacity="0.2" style="mix-blend-mode: overlay;isolation: isolate">
              <g id="Grupo_1102162" data-name="Grupo 1102162">
                <g id="Grupo_1102161" data-name="Grupo 1102161" clip-path="url(#clip-path-5)">
                  <path id="Trazado_885833" data-name="Trazado 885833" d="M259.8,113.9a1.345,1.345,0,0,1-.224-.018,1.166,1.166,0,0,1-1.023-1.337c4.757-24.269,27.875-41.883,54.972-41.883a1.157,1.157,0,1,1,0,2.305c-25.869,0-47.941,16.815-52.482,39.983a1.239,1.239,0,0,1-1.243.95" transform="translate(-257.686 -70.656)" fill="#fff9f2"/>
                  <path id="Trazado_885834" data-name="Trazado 885834" d="M258.717,161.782a1.226,1.226,0,0,1-1.257-1.04,47.107,47.107,0,0,1-.269-5.028c0-1.112.04-2.238.119-3.346a1.227,1.227,0,0,1,1.344-1.075,1.194,1.194,0,0,1,1.18,1.225c-.075,1.059-.113,2.134-.113,3.2a45.047,45.047,0,0,0,.257,4.8,1.186,1.186,0,0,1-1.135,1.259c-.042,0-.084.006-.125.006" transform="translate(-257.19 -104.824)" fill="#fff9f2"/>
                </g>
              </g>
            </g>
            <g id="Grupo_1102166" data-name="Grupo 1102166" transform="translate(154.321 33.138)" opacity="0.2" style="mix-blend-mode: multiply;isolation: isolate">
              <g id="Grupo_1102165" data-name="Grupo 1102165">
                <g id="Grupo_1102164" data-name="Grupo 1102164" clip-path="url(#clip-path-6)">
                  <path id="Trazado_885835" data-name="Trazado 885835" d="M372.359,115.973c0,22.526-13.982,42.078-34.47,51.84a11.784,11.784,0,0,0-7.038,10.5v18.463h-45.3V178.313a11.754,11.754,0,0,0-6.994-10.482c-20.64-9.814-34.692-29.562-34.515-52.284.006-.622.019-1.245.051-1.861,1.252,28.813,27.28,51.823,59.209,51.823,32.725,0,59.253-24.18,59.253-54,0-29.1-25.257-52.826-56.888-53.955.538-.023,1.081-.035,1.619-.04,35.855-.455,65.077,25.891,65.077,58.462" transform="translate(-244.037 -57.506)" fill="#f35923"/>
                </g>
              </g>
            </g>
            <path id="Trazado_885836" data-name="Trazado 885836" d="M449.156,75.326l21.5-13.751,3.792,7.29Z" transform="translate(-165.124 -26.092)" fill="#fabca7"/>
            <path id="Trazado_885837" data-name="Trazado 885837" d="M441.084,63.9l5.9-14.527,7.217,4.673Z" transform="translate(-162.157 -20.921)" fill="#fabca7"/>
            <path id="Trazado_885838" data-name="Trazado 885838" d="M452.218,95.833,470.525,91.8v8.068Z" transform="translate(-166.25 -38.899)" fill="#fabca7"/>
            <path id="Trazado_885839" data-name="Trazado 885839" d="M599.49,404.409h44.9V337.326h-20.9l-24,23.307Z" transform="translate(-220.392 -142.939)" fill="#b1e5ff"/>
            <rect id="Rectángulo_403421" data-name="Rectángulo 403421" width="65.441" height="43.776" transform="translate(313.657 217.694)" fill="#b1e5ff"/>
            <path id="Trazado_885840" data-name="Trazado 885840" d="M520.006,337.326h65.441l-24,23.307H496Z" transform="translate(-182.347 -142.939)" fill="#b1e5ff"/>
            <path id="Trazado_885841" data-name="Trazado 885841" d="M644.184,404.5h-44.9a.347.347,0,0,1-.362-.33V360.39a.314.314,0,0,1,.1-.225l24-23.306a.376.376,0,0,1,.264-.1h20.9a.347.347,0,0,1,.362.33v67.083a.347.347,0,0,1-.362.33m-44.543-.66h44.18V337.413H623.438l-23.8,23.107Z" transform="translate(-220.181 -142.696)" fill="#a4ace3"/>
            <path id="Trazado_885842" data-name="Trazado 885842" d="M561.235,421.635H495.794a.347.347,0,0,1-.362-.33V377.529a.347.347,0,0,1,.362-.33h65.441a.347.347,0,0,1,.362.33v43.777a.347.347,0,0,1-.362.33m-65.079-.66h64.717V377.858H496.156Z" transform="translate(-182.137 -159.834)" fill="#a4ace3"/>
            <path id="Trazado_885843" data-name="Trazado 885843" d="M561.235,360.721H495.794a.365.365,0,0,1-.333-.2.308.308,0,0,1,.069-.357l24-23.307a.378.378,0,0,1,.264-.1h65.44a.365.365,0,0,1,.333.2.31.31,0,0,1-.069.357l-24,23.306a.378.378,0,0,1-.264.1m-64.605-.66h64.448L584.4,337.414H519.953Z" transform="translate(-182.137 -142.697)" fill="#a4ace3"/>
            <path id="Trazado_885844" data-name="Trazado 885844" d="M561.622,431.436H520.595V400.8h41.027Zm-40.394-.576h39.762V401.375H521.227Z" transform="translate(-191.388 -169.835)" fill="#a4ace3"/>
            <path id="Trazado_885845" data-name="Trazado 885845" d="M581.247,350.139h-51.6l3.72-3.323h51.6Zm-49.829-.66h49.533l2.243-2H533.661Z" transform="translate(-194.715 -146.96)" fill="#a4ace3"/>
            <path id="Trazado_885846" data-name="Trazado 885846" d="M565.669,365.408h-51.6l3.72-3.323h51.6Zm-49.829-.66h49.533l2.243-2H518.083Z" transform="translate(-188.988 -153.43)" fill="#a4ace3"/>
            <path id="Trazado_885847" data-name="Trazado 885847" d="M509.379,393.634a2.819,2.819,0,1,1,3.08-2.807,2.957,2.957,0,0,1-3.08,2.807m0-4.955a2.157,2.157,0,1,0,2.357,2.148,2.262,2.262,0,0,0-2.357-2.148" transform="translate(-186.132 -164.42)" fill="#a4ace3"/>
            <path id="Trazado_885848" data-name="Trazado 885848" d="M654.435,429.717h-3.162V404.44a4.552,4.552,0,0,0-4.743-4.322h-2.586v-2.881h2.586c4.359,0,7.9,3.231,7.9,7.2Z" transform="translate(-236.735 -168.325)" fill="#013f20"/>
            <path id="Trazado_885849" data-name="Trazado 885849" d="M641.845,398.678a1.588,1.588,0,1,0,1.581-1.441,1.515,1.515,0,0,0-1.581,1.441" transform="translate(-235.963 -168.325)" fill="#a4ace3"/>
            <path id="Trazado_885850" data-name="Trazado 885850" d="M629.846,429.717h-3.162V404.44a4.552,4.552,0,0,0-4.743-4.322h-2.585v-2.881h2.585c4.359,0,7.9,3.231,7.9,7.2Z" transform="translate(-227.695 -168.325)" fill="#013f20"/>
            <path id="Trazado_885851" data-name="Trazado 885851" d="M616.856,398.678a1.588,1.588,0,1,0,1.581-1.441,1.515,1.515,0,0,0-1.581,1.441" transform="translate(-226.776 -168.325)" fill="#a4ace3"/>
            <rect id="Rectángulo_403422" data-name="Rectángulo 403422" width="87.516" height="79.751" transform="translate(43.466 181.641)" fill="#b1e5ff"/>
            <path id="Trazado_885852" data-name="Trazado 885852" d="M47.326,285.935,24.415,246.127H10.5V365.686H47.326Z" transform="translate(-3.86 -104.294)" fill="#b1e5ff"/>
            <path id="Trazado_885853" data-name="Trazado 885853" d="M32.5,246.127l22.911,39.807h87.5l-22.912-39.807Z" transform="translate(-11.95 -104.294)" fill="#b1e5ff"/>
            <path id="Trazado_885854" data-name="Trazado 885854" d="M156.068,395.034H68.552a.3.3,0,0,1-.316-.288V314.994a.3.3,0,0,1,.316-.288h87.516a.3.3,0,0,1,.316.288v79.751a.3.3,0,0,1-.316.288m-87.2-.576h86.884V315.282H68.868Z" transform="translate(-25.086 -133.354)" fill="#a4ace3"/>
            <path id="Trazado_885855" data-name="Trazado 885855" d="M47.143,365.762H10.316a.3.3,0,0,1-.316-.288V245.915a.3.3,0,0,1,.316-.288H24.231a.321.321,0,0,1,.28.154l22.912,39.807a.271.271,0,0,1,.036.134v79.751a.3.3,0,0,1-.316.288m-36.51-.576H46.827V285.794L24.04,246.2H10.632Z" transform="translate(-3.676 -104.082)" fill="#a4ace3"/>
            <path id="Trazado_885856" data-name="Trazado 885856" d="M142.735,286.011h-87.5a.322.322,0,0,1-.28-.154L32.04,246.049a.266.266,0,0,1,.01-.283.324.324,0,0,1,.27-.138h87.5a.321.321,0,0,1,.28.154l22.911,39.808a.265.265,0,0,1-.009.282.323.323,0,0,1-.271.139m-87.312-.576h86.789L119.632,246.2H32.843Z" transform="translate(-11.766 -104.082)" fill="#a4ace3"/>
            <path id="Trazado_885857" data-name="Trazado 885857" d="M138.357,284.485H65.135a.322.322,0,0,1-.28-.154L48.578,256.048a.266.266,0,0,1,.009-.283.327.327,0,0,1,.271-.139H122.08a.321.321,0,0,1,.28.154l16.278,28.284a.265.265,0,0,1-.01.282.322.322,0,0,1-.27.139m-73.031-.576h72.508L121.888,256.2H49.381Z" transform="translate(-17.846 -108.319)" fill="#a4ace3"/>
            <path id="Trazado_885858" data-name="Trazado 885858" d="M20.5,429.717H17.335V404.44c0-3.972,3.546-7.2,7.9-7.2h2.585v2.881H25.24A4.552,4.552,0,0,0,20.5,404.44Z" transform="translate(-6.373 -168.325)" fill="#013f20"/>
            <path id="Trazado_885859" data-name="Trazado 885859" d="M34.185,398.678a1.588,1.588,0,1,1-1.581-1.441,1.515,1.515,0,0,1,1.581,1.441" transform="translate(-11.405 -168.325)" fill="#a4ace3"/>
            <path id="Trazado_885860" data-name="Trazado 885860" d="M45.086,429.717H41.924V404.44c0-3.972,3.546-7.2,7.9-7.2h2.585v2.881H49.829a4.552,4.552,0,0,0-4.743,4.322Z" transform="translate(-15.413 -168.325)" fill="#013f20"/>
            <path id="Trazado_885861" data-name="Trazado 885861" d="M59.175,398.678a1.588,1.588,0,1,1-1.581-1.441,1.515,1.515,0,0,1,1.581,1.441" transform="translate(-20.592 -168.325)" fill="#a4ace3"/>
            <path id="Trazado_885862" data-name="Trazado 885862" d="M41.949,328.645H23.778a2.318,2.318,0,1,1,0-4.616H41.949a2.318,2.318,0,1,1,0,4.616m-18.172-4.04a1.739,1.739,0,1,0,0,3.463H41.949a1.739,1.739,0,1,0,0-3.463Z" transform="translate(-7.81 -137.304)" fill="#a4ace3"/>
            <path id="Trazado_885863" data-name="Trazado 885863" d="M41.949,345.182H23.778a2.318,2.318,0,1,1,0-4.616H41.949a2.318,2.318,0,1,1,0,4.616m-18.172-4.04a1.739,1.739,0,1,0,0,3.463H41.949a1.739,1.739,0,1,0,0-3.463Z" transform="translate(-7.81 -144.311)" fill="#a4ace3"/>
            <path id="Trazado_885864" data-name="Trazado 885864" d="M41.949,361.719H23.778a2.318,2.318,0,1,1,0-4.616H41.949a2.318,2.318,0,1,1,0,4.616m-18.172-4.04a1.739,1.739,0,1,0,0,3.463H41.949a1.739,1.739,0,1,0,0-3.463Z" transform="translate(-7.81 -151.319)" fill="#a4ace3"/>
            <path id="Trazado_885865" data-name="Trazado 885865" d="M41.949,378.256H23.778a2.318,2.318,0,1,1,0-4.616H41.949a2.318,2.318,0,1,1,0,4.616m-18.172-4.04a1.739,1.739,0,1,0,0,3.463H41.949a1.739,1.739,0,1,0,0-3.463Z" transform="translate(-7.81 -158.326)" fill="#a4ace3"/>
            <path id="Trazado_885866" data-name="Trazado 885866" d="M189.4,344.69h-7.3a.3.3,0,0,1-.316-.288V337.75a.3.3,0,0,1,.316-.288h7.3a.3.3,0,0,1,.316.288V344.4a.3.3,0,0,1-.316.288m-6.983-.576h6.667v-6.076h-6.667Z" transform="translate(-66.828 -142.996)" fill="#a4ace3"/>
            <path id="Trazado_885867" data-name="Trazado 885867" d="M189.4,371.931h-7.3a.3.3,0,0,1-.316-.288v-6.652a.3.3,0,0,1,.316-.288h7.3a.3.3,0,0,1,.316.288v6.652a.3.3,0,0,1-.316.288m-6.983-.576h6.667v-6.076h-6.667Z" transform="translate(-66.828 -154.539)" fill="#a4ace3"/>
            <path id="Trazado_885868" data-name="Trazado 885868" d="M189.4,399.172h-7.3a.3.3,0,0,1-.316-.288v-6.651a.3.3,0,0,1,.316-.288h7.3a.3.3,0,0,1,.316.288v6.651a.3.3,0,0,1-.316.288m-6.983-.576h6.667v-6.075h-6.667Z" transform="translate(-66.828 -166.083)" fill="#a4ace3"/>
            <path id="Trazado_885869" data-name="Trazado 885869" d="M189.4,426.413h-7.3a.3.3,0,0,1-.316-.288v-6.652a.3.3,0,0,1,.316-.288h7.3a.3.3,0,0,1,.316.288v6.652a.3.3,0,0,1-.316.288m-6.983-.576h6.667v-6.076h-6.667Z" transform="translate(-66.828 -177.626)" fill="#a4ace3"/>
            <path id="Trazado_885870" data-name="Trazado 885870" d="M138.511,396.308H79.88a.3.3,0,0,1-.316-.288V337.75a.3.3,0,0,1,.316-.288h58.631a.3.3,0,0,1,.316.288v58.27a.3.3,0,0,1-.316.288M80.2,395.732h58V338.038h-58Z" transform="translate(-29.25 -142.996)" fill="#a4ace3"/>
            <path id="Trazado_885871" data-name="Trazado 885871" d="M436.65,453.677H.316a.289.289,0,1,1,0-.576H436.65a.289.289,0,1,1,0,.576" transform="translate(0 -191.997)" fill="#a4ace3"/>
            <path id="Trazado_885872" data-name="Trazado 885872" d="M549.373,425.541l-1.292,10.869h-6.9l-.887-10.426Z" transform="translate(-198.629 -180.319)" fill="#9c4825"/>
            <path id="Trazado_885873" data-name="Trazado 885873" d="M514.73,445.333h28.026a7.385,7.385,0,0,0-1.132-3.617c-.032-1.133-.292-3.859-2.139-3.859s-2.644,2.435-4.461,2.435-2.073-2.789-4.081-2.789a4.253,4.253,0,0,0-3.22,2.034l-8.95,2.328a5.846,5.846,0,0,0-4.043,3.469" transform="translate(-189.232 -185.388)" fill="#fff"/>
            <path id="Trazado_885874" data-name="Trazado 885874" d="M542.646,452.537H514.307a.288.288,0,0,1-.3-.273v-.9a.288.288,0,0,1,.3-.273h28.339a.287.287,0,0,1,.3.273v.9a.287.287,0,0,1-.3.273" transform="translate(-188.966 -191.145)" fill="#2c2f37"/>
            <path id="Trazado_885875" data-name="Trazado 885875" d="M654.713,289.879l9.937-6.124,4.46,4.8-8.159,7.355Z" transform="translate(-240.694 -120.238)" fill="#9c4825"/>
            <path id="Trazado_885876" data-name="Trazado 885876" d="M686.863,294.008l-18.11-19.491a7.905,7.905,0,0,0-2.3,3.125c-.928.754-3.043,2.7-1.85,3.981s3.748.265,4.922,1.529-1,3.244.3,4.641,3.784.925,3.784.925l7.733,4.721A6.549,6.549,0,0,0,686.863,294.008Z" transform="translate(-244.2 -116.324)" fill="#fff"/>
            <path id="Trazado_885877" data-name="Trazado 885877" d="M672.381,272.635l18.313,19.709a.257.257,0,0,1-.035.385l-.754.581a.32.32,0,0,1-.423-.032L671.17,273.569a.257.257,0,0,1,.035-.385l.753-.582a.321.321,0,0,1,.423.032" transform="translate(-246.718 -115.485)" fill="#2c2f37"/>
            <path id="Trazado_885878" data-name="Trazado 885878" d="M545.337,257.418c-2.01,11.439-7.8,75.755-7.237,97.874h12.136c1.867-6.3,8.216-38.113,7.469-47.3,3.36-8.167,8.4-26.543,8.4-32.838V257.418Z" transform="translate(-197.809 -109.078)" fill="#2c2f37"/>
            <path id="Trazado_885879" data-name="Trazado 885879" d="M598.57,326.2c9.245-.313,43.071-27.887,43.071-27.887l-8.687-9.261c-6.131,2.654-31.714,13.388-35.893,16.388s1.509,20.76,1.509,20.76" transform="translate(-218.936 -122.484)" fill="#2c2f37"/>
            <path id="Trazado_885880" data-name="Trazado 885880" d="M572.913,257.056V278.31c2.536,11.75,5.6,27.446,8.311,31.485s18.668,5.309,18.542-8.425,2.261-33.983-2.036-44.806Z" transform="translate(-210.622 -108.716)" fill="#2c2f37"/>
            <path id="Trazado_885881" data-name="Trazado 885881" d="M575.685,292.257a.232.232,0,0,1-.232-.173c-.653-2.929-1.294-5.945-1.914-8.862-.34-1.6-.672-3.165-1-4.667l0-21.294a.238.238,0,0,1,.474,0v21.252c.32,1.461.653,3.028.993,4.627.619,2.916,1.26,5.932,1.912,8.859a.217.217,0,0,1-.185.254.213.213,0,0,1-.047,0" transform="translate(-210.484 -108.92)" fill="#5b5d63"/>
            <path id="Trazado_885882" data-name="Trazado 885882" d="M615.171,318.348l-.03,0a.221.221,0,0,1-.206-.241,85.589,85.589,0,0,0,.418-10.4v-.44a.238.238,0,0,1,.474,0v.44a85.855,85.855,0,0,1-.422,10.456.231.231,0,0,1-.235.189" transform="translate(-226.07 -130.108)" fill="#5b5d63"/>
            <path id="Trazado_885883" data-name="Trazado 885883" d="M574.792,271.542h-4.607a4.24,4.24,0,0,1-4.418-4.025V257.26a.238.238,0,0,1,.474,0v10.257a3.785,3.785,0,0,0,3.943,3.593h4.607a.217.217,0,1,1,0,.432" transform="translate(-207.994 -108.92)" fill="#5b5d63"/>
            <path id="Trazado_885884" data-name="Trazado 885884" d="M607.511,271.629a.254.254,0,0,1-.134-.037,15.826,15.826,0,0,1-7.6-14.7.227.227,0,0,1,.257-.2.223.223,0,0,1,.215.234,15.4,15.4,0,0,0,7.4,14.307.2.2,0,0,1,.062.3.246.246,0,0,1-.2.094" transform="translate(-220.472 -108.77)" fill="#5b5d63"/>
            <path id="Trazado_885885" data-name="Trazado 885885" d="M547.687,269.646a.247.247,0,0,1-.192-.088.2.2,0,0,1,.051-.3,13.6,13.6,0,0,0,6.179-11.454.225.225,0,0,1,.231-.221c.149.016.24.092.243.211a14.025,14.025,0,0,1-6.372,11.813.253.253,0,0,1-.14.041" transform="translate(-201.26 -109.147)" fill="#5b5d63"/>
            <path id="Trazado_885886" data-name="Trazado 885886" d="M547.576,344.3a25.834,25.834,0,0,1-6.212-.756.216.216,0,0,1-.167-.266.238.238,0,0,1,.292-.152,25.374,25.374,0,0,0,8.155.658.221.221,0,0,1,.257.2.223.223,0,0,1-.215.235c-.7.057-1.408.085-2.11.085" transform="translate(-198.959 -145.393)" fill="#5b5d63"/>
            <path id="Trazado_885887" data-name="Trazado 885887" d="M554.515,378.325a.281.281,0,0,1-.048,0,.217.217,0,0,1-.184-.255c3.136-13.842,6.378-28.153,7.236-42.972l-2.146-1.34a.207.207,0,0,1-.1-.2.22.22,0,0,1,.149-.177c.444-.16.887-.338,1.33-.515.311-.125.621-.248.931-.367L560,331.512a.206.206,0,0,1,0-.362c.346-.21.727-.432,1.107-.654.355-.207.71-.414,1.036-.611a109.765,109.765,0,0,0,4.736-15.039.236.236,0,0,1,.281-.165.216.216,0,0,1,.181.256,109.943,109.943,0,0,1-4.779,15.162.223.223,0,0,1-.092.107c-.346.21-.727.432-1.107.654-.269.157-.539.315-.8.467l1.764,1.027a.21.21,0,0,1,.108.2.221.221,0,0,1-.149.18c-.448.161-.895.34-1.341.519-.312.125-.623.25-.937.369L561.9,334.8a.211.211,0,0,1,.1.19c-.849,14.893-4.1,29.262-7.252,43.158a.233.233,0,0,1-.232.172" transform="translate(-203.771 -133.34)" fill="#5b5d63"/>
            <path id="Trazado_885888" data-name="Trazado 885888" d="M611.276,302.725a.258.258,0,0,1-.085-.014.217.217,0,0,1-.152-.2A101.079,101.079,0,0,0,609.952,284a.22.22,0,0,1,.2-.244.232.232,0,0,1,.267.183,99.884,99.884,0,0,1,1.1,18.032c.274-.235.563-.447.847-.655a9.281,9.281,0,0,0,1.21-1,.246.246,0,0,1,.173-.073.254.254,0,0,1,.176.067c.285.271.551.578.807.875.152.177.309.357.468.529.08-.343.171-.693.26-1.034.126-.484.253-.968.348-1.431a.216.216,0,0,1,.1-.138c5.9-3.705,13.149-6.789,18.972-9.268,1.154-.491,2.253-.958,3.274-1.4a.25.25,0,0,1,.316.1.208.208,0,0,1-.113.288c-1.021.444-2.121.912-3.277,1.4-5.78,2.461-12.968,5.519-18.823,9.182-.095.443-.214.9-.334,1.363-.128.488-.255.974-.35,1.441a.225.225,0,0,1-.166.167.255.255,0,0,1-.239-.058c-.285-.271-.551-.579-.807-.876-.2-.228-.4-.461-.606-.675a11.516,11.516,0,0,1-1.09.872,9.25,9.25,0,0,0-1.211,1,.248.248,0,0,1-.178.073" transform="translate(-224.237 -120.238)" fill="#5b5d63"/>
            <path id="Trazado_885889" data-name="Trazado 885889" d="M659.452,300.447a.248.248,0,0,1-.185-.08l-8.015-8.971a.2.2,0,0,1,.035-.3.253.253,0,0,1,.333.031l8.015,8.972a.2.2,0,0,1-.035.3.248.248,0,0,1-.149.048" transform="translate(-239.402 -123.327)" fill="#5b5d63"/>
            <path id="Trazado_885890" data-name="Trazado 885890" d="M550.727,422.735h-11.5a.217.217,0,1,1,0-.432h11.5a.217.217,0,1,1,0,.432" transform="translate(-198.15 -178.947)" fill="#5b5d63"/>
            <path id="Trazado_885891" data-name="Trazado 885891" d="M474.948,187.318l-2.769,5.708a91.361,91.361,0,0,1-14.019-6.173c-.744-.559-.166-1.207.594-.924l4.955,1.843s-5.105-2.957-5.78-3.421-.621-1.384.571-.987,5.889,2.74,5.889,2.74-5.747-3.44-6.2-3.831-.332-1.246.727-.887,6.558,3.129,6.558,3.129-4.663-3.221-5.146-3.614-.268-1.181.918-.693,11.956,5.9,13.7,7.11" transform="translate(-168.19 -76.296)" fill="#9c4825"/>
            <path id="Trazado_885892" data-name="Trazado 885892" d="M480.6,187.047a21.184,21.184,0,0,0-2.892-5.507c-.736-.682-4.268-2.607-4.742-2.015s.825,2.039,2.178,2.567a5.664,5.664,0,0,0,.4,4.14c.77,1.268,5.057.815,5.057.815" transform="translate(-173.841 -76.024)" fill="#9c4825"/>
            <path id="Trazado_885893" data-name="Trazado 885893" d="M466.888,191.573h-.013a.225.225,0,0,1-.223-.228,8.53,8.53,0,0,1,2.878-5.391.254.254,0,0,1,.335,0,.2.2,0,0,1,0,.306,8.1,8.1,0,0,0-2.738,5.106.229.229,0,0,1-.237.2" transform="translate(-171.556 -78.77)" fill="#782e10"/>
            <path id="Trazado_885894" data-name="Trazado 885894" d="M472.969,193.059a.242.242,0,0,1-.208-.112.207.207,0,0,1,.094-.293,7.392,7.392,0,0,1,3.221-.747,6.912,6.912,0,0,1-1.419-4.947.219.219,0,0,1,.26-.193.223.223,0,0,1,.212.237,6.531,6.531,0,0,0,1.621,5,.2.2,0,0,1,.024.236.239.239,0,0,1-.229.114,6.835,6.835,0,0,0-3.462.677.261.261,0,0,1-.114.026" transform="translate(-173.792 -79.14)" fill="#782e10"/>
            <path id="Trazado_885895" data-name="Trazado 885895" d="M523.374,169.845c-4.379,2.839-16.189,15.549-19.345,19.816-4.48-3.34-20.769-8.721-20.769-8.721l-4.466,8.721c5.688,3.9,18.415,11.968,27.374,12.8s23.62-17.908,23.62-17.908V173.333Z" transform="translate(-176.02 -71.97)" fill="#c3471c"/>
            <path id="Trazado_885896" data-name="Trazado 885896" d="M521.49,207.168a.24.24,0,0,1-.209-.114,9.12,9.12,0,0,0-2.839-2.949.208.208,0,0,1-.093-.221.227.227,0,0,1,.185-.166,7.975,7.975,0,0,1,3.254.055.215.215,0,0,1,.167.265.238.238,0,0,1-.291.153,7.232,7.232,0,0,0-2.5-.129,9.5,9.5,0,0,1,2.538,2.787.206.206,0,0,1-.1.293.253.253,0,0,1-.113.026" transform="translate(-190.56 -86.264)" fill="#a30d18"/>
            <path id="Trazado_885897" data-name="Trazado 885897" d="M517.785,223.126a.25.25,0,0,1-.16-.056.2.2,0,0,1-.015-.305,7.23,7.23,0,0,1,4.156-1.981,7.537,7.537,0,0,1,4.583.907.205.205,0,0,1,.074.3.253.253,0,0,1-.328.068,7.012,7.012,0,0,0-4.267-.845,6.733,6.733,0,0,0-3.87,1.844.245.245,0,0,1-.175.07" transform="translate(-190.268 -93.532)" fill="#a30d18"/>
            <path id="Trazado_885898" data-name="Trazado 885898" d="M482.718,199.729a.256.256,0,0,1-.108-.024.207.207,0,0,1-.1-.29l4.175-7.446a.248.248,0,0,1,.319-.094.207.207,0,0,1,.1.29l-4.175,7.445a.241.241,0,0,1-.211.118" transform="translate(-177.376 -81.295)" fill="#a30d18"/>
            <path id="Trazado_885899" data-name="Trazado 885899" d="M551.532,173.843c-3.713-.735-5.435-5.933-3.82-6.913s12.891-3.727,15.1-3.964H574.15c1.9.188,14.143,2.4,15.165,3.866s3,8.433-1.3,9.463c-3.627,23.21,6.051,33.441-.545,40.608-2.97,3.227-37.26,2.541-39.58.492-7.556-6.671,1.89-26.348,3.646-43.551" transform="translate(-200.358 -69.055)" fill="#c3471c"/>
            <path id="Trazado_885900" data-name="Trazado 885900" d="M550.8,196.746a.294.294,0,0,1-.05,0,.217.217,0,0,1-.181-.258,117.3,117.3,0,0,0,2.774-14.82.238.238,0,0,1,.472.04,117.246,117.246,0,0,1-2.782,14.872.233.233,0,0,1-.231.17" transform="translate(-202.405 -76.895)" fill="#a30d18"/>
            <path id="Trazado_885901" data-name="Trazado 885901" d="M608.194,226.125a.263.263,0,0,1-.113-.026.207.207,0,0,1-.1-.293,13.414,13.414,0,0,0,1.635-7.43,43.36,43.36,0,0,0-.854-6.311c-.084-.457-.169-.914-.25-1.371a99.593,99.593,0,0,1-1.3-24.427.238.238,0,0,1,.473.028,99.244,99.244,0,0,0,1.3,24.33c.082.456.166.912.251,1.368a43.881,43.881,0,0,1,.859,6.368,13.818,13.818,0,0,1-1.692,7.65.242.242,0,0,1-.209.113" transform="translate(-223.142 -78.843)" fill="#a30d18"/>
            <path id="Trazado_885902" data-name="Trazado 885902" d="M576.933,169.827a9.309,9.309,0,0,1-8.173-4.708.208.208,0,0,1,.113-.288.248.248,0,0,1,.316.1,8.943,8.943,0,0,0,7.747,4.461h.035a8.928,8.928,0,0,0,7.736-4.526.249.249,0,0,1,.314-.1.208.208,0,0,1,.116.287,9.293,9.293,0,0,1-8.164,4.776Z" transform="translate(-209.086 -69.809)" fill="#a30d18"/>
            <path id="Trazado_885903" data-name="Trazado 885903" d="M582.062,217.472h-.02a24.013,24.013,0,0,1-13.945-5.729,20.3,20.3,0,0,1-6.861-12.458.221.221,0,0,1,.206-.241.226.226,0,0,1,.265.187,19.872,19.872,0,0,0,6.719,12.2,23.512,23.512,0,0,0,13.655,5.61.223.223,0,0,1,.217.233.23.23,0,0,1-.237.2" transform="translate(-206.328 -84.342)" fill="#a30d18"/>
            <path id="Trazado_885904" data-name="Trazado 885904" d="M576.193,242.019a24.49,24.49,0,0,1-16.734-6.591.2.2,0,0,1,.011-.306.255.255,0,0,1,.335.01,23.987,23.987,0,0,0,16.388,6.455h.061a.227.227,0,0,1,.237.216c0,.138-.148.216-.3.217" transform="translate(-205.652 -99.606)" fill="#a30d18"/>
            <path id="Trazado_885905" data-name="Trazado 885905" d="M625.782,264.005l6.849.038a72.836,72.836,0,0,1-.623,14.177c-.266.844-1.149.619-1.167-.128s-.121-4.876-.121-4.876-.941,5.446-1.138,6.194-1.145,1.071-1.221-.083.409-6.014.409-6.014-1.17,6.174-1.384,6.706-1.122.774-1.183-.254.534-6.728.534-6.728-1.382,5.181-1.585,5.742-1.083.695-1.064-.491,1.174-12.345,1.693-14.283" transform="translate(-229.435 -111.87)" fill="#9c4825"/>
            <path id="Trazado_885906" data-name="Trazado 885906" d="M623.9,264.005a22.686,22.686,0,0,0-4.39,4.613c-.392.887-.921,4.606-.137,4.766s1.723-1.5,1.714-2.843a6.986,6.986,0,0,0,4.008-1.984c.969-1.148-1.2-4.551-1.2-4.551" transform="translate(-227.553 -111.87)" fill="#9c4825"/>
            <path id="Trazado_885907" data-name="Trazado 885907" d="M629.939,279.759a11.36,11.36,0,0,1-3.827-.665.21.21,0,0,1-.131-.281.247.247,0,0,1,.309-.12,10.028,10.028,0,0,0,6.23.252.246.246,0,0,1,.3.127.211.211,0,0,1-.14.278,8.659,8.659,0,0,1-2.746.409" transform="translate(-230.125 -118.087)" fill="#782e10"/>
            <path id="Trazado_885908" data-name="Trazado 885908" d="M625.279,271h-.005a.226.226,0,0,1-.232-.221,35.786,35.786,0,0,1,.441-4.844.23.23,0,0,1,.27-.182.219.219,0,0,1,.2.245,35.381,35.381,0,0,0-.436,4.79.229.229,0,0,1-.237.211" transform="translate(-229.786 -112.609)" fill="#782e10"/>
            <path id="Trazado_885909" data-name="Trazado 885909" d="M610.639,169.675c5.126,3.957,17.852,22.512,19.685,28.45s-3.426,23.172-4.378,27.13H615.866c.1-3.844,1.425-19.8,2.851-24.625-3.869-3.618-14.694-15.587-15.644-21.292s7.566-9.663,7.566-9.663" transform="translate(-221.682 -71.898)" fill="#c3471c"/>
            <path id="Trazado_885910" data-name="Trazado 885910" d="M608.4,196.251a.245.245,0,0,1-.2-.093c-3.254-4.3-5.092-7.612-5.464-9.841a.219.219,0,0,1,.2-.245.233.233,0,0,1,.271.181c.355,2.133,2.218,5.473,5.385,9.66a.2.2,0,0,1-.061.3.254.254,0,0,1-.135.038" transform="translate(-221.587 -78.845)" fill="#a30d18"/>
            <path id="Trazado_885911" data-name="Trazado 885911" d="M627.618,222.119a.247.247,0,0,1-.195-.092.2.2,0,0,1,.011-.26,5.694,5.694,0,0,1,3.388-1.844.233.233,0,0,1,.271.18.219.219,0,0,1-.2.247,5.135,5.135,0,0,0-2.489,1.112,12.04,12.04,0,0,1,4.176-.224.221.221,0,0,1,.2.243.233.233,0,0,1-.267.186,11.5,11.5,0,0,0-4.824.442.28.28,0,0,1-.078.012" transform="translate(-230.646 -93.189)" fill="#a30d18"/>
            <path id="Trazado_885912" data-name="Trazado 885912" d="M644.414,220.372a.261.261,0,0,1-.113-.026,4.838,4.838,0,0,1-2.614-3.227,4.461,4.461,0,0,1,1.054-3.894.253.253,0,0,1,.334-.032.2.2,0,0,1,.034.3,4.051,4.051,0,0,0-.957,3.538,4.392,4.392,0,0,0,2.375,2.931.207.207,0,0,1,.1.293.242.242,0,0,1-.209.113" transform="translate(-235.869 -90.318)" fill="#a30d18"/>
            <path id="Trazado_885913" data-name="Trazado 885913" d="M633.807,261.667H624.77a.217.217,0,1,1,0-.432h9.036a.217.217,0,1,1,0,.432" transform="translate(-229.599 -110.696)" fill="#a30d18"/>
            <path id="Trazado_885914" data-name="Trazado 885914" d="M569.728,138.834a10.174,10.174,0,0,0,4.531-1.017A9.36,9.36,0,0,0,577.7,135l1.433-1.928v-11.57a4.538,4.538,0,0,0-4.824-4.3l-4.348.091c-2.57.05-3.655,2.132-4.616,4.3-1.165,2.619-.228,4.276-.324,7.089-.01.324-.034.659-.075,1.008-.018.138-.038.279-.059.424-.01.069-.024.141-.034.213-.021.129-.049.261-.076.4s-.049.245-.066.364c-.01.05-.021.1-.027.148-.045.286-.083.559-.107.826s-.042.505-.049.744c-.144,4.631,3.063,6.019,5.2,6.028" transform="translate(-207.537 -49.663)" fill="#9c4825"/>
            <path id="Trazado_885915" data-name="Trazado 885915" d="M573.164,155.246s1.513,2.512,5.548,2.512a7.534,7.534,0,0,0,5.793-2.512l-2.194-10.5-8.285,4.817-.162.9-.3,1.88Z" transform="translate(-210.714 -61.336)" fill="#9c4825"/>
            <path id="Trazado_885916" data-name="Trazado 885916" d="M573.791,153.988a10.23,10.23,0,0,0,4.274-1.909,9.2,9.2,0,0,0,2.793-3.454,9.311,9.311,0,0,1-3.192,2.508,9.893,9.893,0,0,1-3.57.973Z" transform="translate(-210.944 -62.978)" fill="#2c2f37"/>
            <path id="Trazado_885917" data-name="Trazado 885917" d="M584.5,138.552a3.175,3.175,0,1,0,3.161-2.881,3.031,3.031,0,0,0-3.161,2.881" transform="translate(-214.883 -57.489)" fill="#9c4825"/>
            <path id="Trazado_885918" data-name="Trazado 885918" d="M586.5,141.461h-.015a.224.224,0,0,1-.222-.229,3.006,3.006,0,0,1,1.258-2.188,3.634,3.634,0,0,1,2.627-.611.219.219,0,0,1,.193.249.234.234,0,0,1-.274.176,3.112,3.112,0,0,0-2.253.524,2.58,2.58,0,0,0-1.08,1.877.229.229,0,0,1-.237.2" transform="translate(-215.531 -58.642)" fill="#782e10"/>
            <path id="Trazado_885919" data-name="Trazado 885919" d="M590.361,141.5a.235.235,0,0,1-.227-.154,2.251,2.251,0,0,0-1.819-1.473.22.22,0,0,1-.2-.248.23.23,0,0,1,.273-.179,2.715,2.715,0,0,1,2.2,1.776.213.213,0,0,1-.159.269.252.252,0,0,1-.068.009" transform="translate(-216.211 -59.086)" fill="#782e10"/>
            <path id="Trazado_885920" data-name="Trazado 885920" d="M572.9,137.9a.245.245,0,0,1-.1-.019,2.507,2.507,0,0,1-.82-.466.86.86,0,0,1-.24-.97,1.238,1.238,0,0,1,.348-.394l.1-.087a1.878,1.878,0,0,0,.536-1.029,5.642,5.642,0,0,0,.055-1.24.227.227,0,0,1,.231-.222h.006a.228.228,0,0,1,.237.21,5.953,5.953,0,0,1-.062,1.328,2.266,2.266,0,0,1-.667,1.258c-.037.034-.076.067-.115.1a.908.908,0,0,0-.237.251.466.466,0,0,0,.152.5,2.111,2.111,0,0,0,.668.369.208.208,0,0,1,.12.285.239.239,0,0,1-.216.128" transform="translate(-210.167 -56.556)" fill="#2c2f37"/>
            <path id="Trazado_885921" data-name="Trazado 885921" d="M569.309,129.891a.733.733,0,0,1-.108.464.824.824,0,0,1-.378.318,2.833,2.833,0,0,0-1.1-.466,1.919,1.919,0,0,0-1.077.219,4.716,4.716,0,0,0-.906.621.21.21,0,0,1-.2-.188,2.7,2.7,0,0,1,1.65-1.265,2.878,2.878,0,0,1,2.117.3" transform="translate(-207.912 -54.878)" fill="#2c2f37"/>
            <path id="Trazado_885922" data-name="Trazado 885922" d="M569.2,135.137a.239.239,0,0,1-.22-.135,1.15,1.15,0,0,0-1.148-.655,1.38,1.38,0,0,0-1.236.67.25.25,0,0,1-.32.094.208.208,0,0,1-.1-.291,1.857,1.857,0,0,1,1.658-.905,1.616,1.616,0,0,1,1.589.925.21.21,0,0,1-.13.281.273.273,0,0,1-.09.016" transform="translate(-208.133 -56.745)" fill="#2c2f37"/>
            <path id="Trazado_885923" data-name="Trazado 885923" d="M569,135.045a.62.62,0,1,1-.605-.754.693.693,0,0,1,.605.754" transform="translate(-208.74 -56.904)" fill="#2c2f37"/>
            <path id="Trazado_885924" data-name="Trazado 885924" d="M575.978,129.891a.729.729,0,0,0,.107.464.824.824,0,0,0,.378.318,2.829,2.829,0,0,1,1.1-.466,1.917,1.917,0,0,1,1.076.219,4.674,4.674,0,0,1,.906.621.211.211,0,0,0,.2-.188,2.7,2.7,0,0,0-1.65-1.265,2.876,2.876,0,0,0-2.117.3" transform="translate(-211.747 -54.878)" fill="#2c2f37"/>
            <path id="Trazado_885925" data-name="Trazado 885925" d="M576.369,135.137a.273.273,0,0,1-.09-.016.21.21,0,0,1-.13-.281,1.617,1.617,0,0,1,1.589-.925,1.857,1.857,0,0,1,1.658.905.208.208,0,0,1-.1.291.25.25,0,0,1-.32-.094,1.38,1.38,0,0,0-1.236-.67,1.15,1.15,0,0,0-1.148.655.24.24,0,0,1-.22.135" transform="translate(-211.805 -56.745)" fill="#2c2f37"/>
            <path id="Trazado_885926" data-name="Trazado 885926" d="M578.981,135.045a.62.62,0,1,1-.605-.754.693.693,0,0,1,.605.754" transform="translate(-212.407 -56.904)" fill="#2c2f37"/>
            <path id="Trazado_885927" data-name="Trazado 885927" d="M577.736,140.309c0,.272.729.492,1.626.492s1.627-.22,1.627-.492-.728-.492-1.627-.492-1.626.22-1.626.492" transform="translate(-212.395 -59.246)" fill="#782110"/>
            <path id="Trazado_885928" data-name="Trazado 885928" d="M564.82,140.673a4.165,4.165,0,0,0,1.092.129c.9,0,1.626-.22,1.626-.493s-.727-.49-1.626-.49a4.5,4.5,0,0,0-.951.094c-.02.129-.048.261-.075.4s-.049.245-.066.364" transform="translate(-207.646 -59.247)" fill="#782110"/>
            <path id="Trazado_885929" data-name="Trazado 885929" d="M574.723,144.6a5.444,5.444,0,0,1-6.264.037.98.98,0,0,1,.115-.488,10.839,10.839,0,0,1,5.831-.119,1.4,1.4,0,0,1,.317.57" transform="translate(-208.984 -60.887)" fill="#fff"/>
            <path id="Trazado_885930" data-name="Trazado 885930" d="M572.567,148.654a.256.256,0,0,1-.1-.019,2.389,2.389,0,0,0-1.749-.008.248.248,0,0,1-.312-.112.209.209,0,0,1,.122-.285,2.917,2.917,0,0,1,2.132.01.209.209,0,0,1,.12.286.241.241,0,0,1-.216.127" transform="translate(-209.694 -62.728)" fill="#782e10"/>
            <path id="Trazado_885931" data-name="Trazado 885931" d="M581.015,116.606a18.093,18.093,0,0,1-2.371,7.238,3.374,3.374,0,0,0-1.8-.513,3.225,3.225,0,0,0-2.808,1.544,3.626,3.626,0,0,1-.936-1.971,11.148,11.148,0,0,1,.051-2.714,7.432,7.432,0,0,0-.114-2.7,13.608,13.608,0,0,0-3.453-1.5,7.346,7.346,0,0,0-3.756-.017c-2.34.674-4.028,2.755-6.444,3.146a4.973,4.973,0,0,1-2.808-.363,2.622,2.622,0,0,1-1.372-1.233,2.186,2.186,0,0,1,.708-2.4,6.679,6.679,0,0,1,2.5-1.268,5.174,5.174,0,0,1-1.429-.813,1.585,1.585,0,0,1-.67-1.354,1.87,1.87,0,0,1,1.537-1.36,7.193,7.193,0,0,1,3.851.524,5,5,0,0,1-1.094-1.141,1.529,1.529,0,0,1-.152-1.458,2.192,2.192,0,0,1,1.606-.957,7.232,7.232,0,0,1,3.87.432,15.54,15.54,0,0,1,3.37,1.867,3.288,3.288,0,0,1-.417-1.4,1.63,1.63,0,0,1,.557-1.285,2.1,2.1,0,0,1,1.967-.242,4.645,4.645,0,0,1,1.669,1.106,17.718,17.718,0,0,1,4.692,7.52,2.112,2.112,0,0,1,1.17-.882,1.708,1.708,0,0,1,1.511.265,2.183,2.183,0,0,1,.569,1.919" transform="translate(-204.061 -45.146)" fill="#2c2f37"/>
            <path id="Trazado_885932" data-name="Trazado 885932" d="M122.451,425.541l1.3,10.869h6.9l.879-10.426Z" transform="translate(-45.017 -180.319)" fill="#e48a68"/>
            <path id="Trazado_885933" data-name="Trazado 885933" d="M146.09,445.333H118.064a7.385,7.385,0,0,1,1.132-3.617c.032-1.133.292-3.859,2.139-3.859s2.644,2.435,4.461,2.435,2.073-2.789,4.081-2.789a4.253,4.253,0,0,1,3.22,2.034l8.951,2.328a5.846,5.846,0,0,1,4.043,3.469" transform="translate(-43.402 -185.388)" fill="#fff"/>
            <path id="Trazado_885934" data-name="Trazado 885934" d="M117.646,452.537h28.339a.288.288,0,0,0,.3-.273v-.9a.288.288,0,0,0-.3-.273H117.646a.287.287,0,0,0-.3.273v.9a.287.287,0,0,0,.3.273" transform="translate(-43.14 -191.145)" fill="#2c2f37"/>
            <path id="Trazado_885935" data-name="Trazado 885935" d="M88.968,425.541,87.587,436.41h-6.9l-.8-10.426Z" transform="translate(-29.369 -180.319)" fill="#e48a68"/>
            <path id="Trazado_885936" data-name="Trazado 885936" d="M54.184,445.333H82.21a7.385,7.385,0,0,0-1.132-3.617c-.032-1.133-.292-3.859-2.139-3.859s-2.644,2.435-4.461,2.435S72.406,437.5,70.4,437.5a4.253,4.253,0,0,0-3.22,2.034l-8.951,2.328a5.846,5.846,0,0,0-4.043,3.469" transform="translate(-19.92 -185.388)" fill="#fff"/>
            <path id="Trazado_885937" data-name="Trazado 885937" d="M82.1,452.537H53.762a.288.288,0,0,1-.3-.273v-.9a.288.288,0,0,1,.3-.273H82.1a.287.287,0,0,1,.3.273v.9a.287.287,0,0,1-.3.273" transform="translate(-19.654 -191.145)" fill="#2c2f37"/>
            <path id="Trazado_885938" data-name="Trazado 885938" d="M73.106,254.468c-1.041,6.949-3.04,41.456-2.732,52.439s3.308,38.143,4.268,46.143H86.674c.768-5.592,1.766-34.319,1.575-43.568,1.654-6.586,4.576-22.421,5.344-28.727V256.512Z" transform="translate(-25.86 -107.828)" fill="#2c2f37"/>
            <path id="Trazado_885939" data-name="Trazado 885939" d="M124.027,256.313c1.538,8.268,5.228,38.992,6,51.376s-2.182,39.622-1.975,46.857h-13.1c-1.077-9.95-1.846-36.014-2-44.982-1.692-7.707-5.074-21.44-5.843-28.026V257.294Z" transform="translate(-39.378 -108.61)" fill="#2c2f37"/>
            <rect id="Rectángulo_403423" data-name="Rectángulo 403423" width="15.631" height="3.203" transform="translate(47.116 243.901)" fill="#5b5d63"/>
            <rect id="Rectángulo_403424" data-name="Rectángulo 403424" width="15.631" height="3.203" transform="translate(74.159 243.901)" fill="#5b5d63"/>
            <path id="Trazado_885940" data-name="Trazado 885940" d="M106.973,283.529a.261.261,0,0,1-.1-.019.208.208,0,0,1-.119-.285l1.814-3.681V260.721a.238.238,0,0,1,.474,0V279.59a.2.2,0,0,1-.02.088l-1.836,3.723a.238.238,0,0,1-.216.128" transform="translate(-39.24 -110.386)" fill="#5b5d63"/>
            <path id="Trazado_885941" data-name="Trazado 885941" d="M107.624,276.433h-3.791a.217.217,0,1,1,0-.432h3.791a2.322,2.322,0,0,0,2.419-2.2V260.721a.238.238,0,0,1,.474,0V273.8a2.778,2.778,0,0,1-2.894,2.637" transform="translate(-38.085 -110.386)" fill="#5b5d63"/>
            <path id="Trazado_885942" data-name="Trazado 885942" d="M73.269,273.761a.238.238,0,0,1-.223-.143.212.212,0,0,1,.144-.277,10.933,10.933,0,0,0,5.895-4.869,18.333,18.333,0,0,0,2.279-7.149.231.231,0,0,1,.264-.188.221.221,0,0,1,.206.241,18.719,18.719,0,0,1-2.333,7.3,11.4,11.4,0,0,1-6.152,5.069.272.272,0,0,1-.08.012" transform="translate(-26.849 -110.653)" fill="#5b5d63"/>
            <path id="Trazado_885943" data-name="Trazado 885943" d="M131.928,274.3a.249.249,0,0,1-.132-.037,15.066,15.066,0,0,1-7.3-12.618.228.228,0,0,1,.237-.214h0a.227.227,0,0,1,.235.218,14.63,14.63,0,0,0,7.092,12.255.206.206,0,0,1,.064.3.246.246,0,0,1-.2.1" transform="translate(-45.768 -110.781)" fill="#5b5d63"/>
            <path id="Trazado_885944" data-name="Trazado 885944" d="M133.223,346.77q-1.538,0-3.072-.137a.223.223,0,0,1-.213-.236.239.239,0,0,1,.259-.194,33.882,33.882,0,0,0,8.177-.259.242.242,0,0,1,.273.177.22.22,0,0,1-.194.25,34.389,34.389,0,0,1-5.23.4" transform="translate(-47.769 -146.589)" fill="#5b5d63"/>
            <path id="Trazado_885945" data-name="Trazado 885945" d="M76.065,348.627h-.008a22.049,22.049,0,0,1-6.1-1.051.212.212,0,0,1-.145-.276.244.244,0,0,1,.3-.131,21.537,21.537,0,0,0,5.959,1.026.226.226,0,0,1,.229.224.228.228,0,0,1-.237.209" transform="translate(-25.66 -147.104)" fill="#5b5d63"/>
            <path id="Trazado_885946" data-name="Trazado 885946" d="M93.26,370.74h0a.227.227,0,0,1-.233-.22c.132-6.237.223-12.609.311-18.771.087-6.122.177-12.45.307-18.648a12.007,12.007,0,0,0-2.347-1,.22.22,0,0,1-.163-.195.215.215,0,0,1,.141-.208c.434-.175.921-.342,1.394-.5.315-.108.637-.218.943-.331-.3-.168-.605-.34-.908-.512-.426-.241-.851-.482-1.274-.713a.211.211,0,0,1-.113-.212.223.223,0,0,1,.168-.18c.465-.126.96-.277,1.455-.428.452-.138.9-.275,1.333-.395,1.9-8.773,3.488-17.716,4.731-26.583a.231.231,0,0,1,.265-.187.221.221,0,0,1,.206.241c-1.25,8.92-2.853,17.916-4.764,26.74a.225.225,0,0,1-.165.165c-.465.126-.96.277-1.455.428-.324.1-.648.2-.964.29.276.154.553.311.829.467.434.247.868.493,1.3.729a.211.211,0,0,1,.114.2.215.215,0,0,1-.141.184c-.434.175-.921.342-1.393.5-.27.093-.545.187-.811.282A13.52,13.52,0,0,1,94,332.8a.214.214,0,0,1,.114.188c-.132,6.238-.223,12.609-.31,18.771s-.179,12.534-.31,18.773a.228.228,0,0,1-.237.212" transform="translate(-33.503 -127.82)" fill="#5b5d63"/>
            <path id="Trazado_885947" data-name="Trazado 885947" d="M117,370.614a.228.228,0,0,1-.237-.206c-.163-3.413-.4-7.248-.661-11.309-.579-9.173-1.234-19.569-1.06-27.2a.22.22,0,0,1,.152-.2c.448-.156.893-.346,1.324-.531.237-.1.477-.205.722-.3a13.354,13.354,0,0,1-2.084-.811.213.213,0,0,1-.125-.2.219.219,0,0,1,.149-.188c.443-.162.884-.347,1.326-.532.281-.119.561-.236.842-.348-.273-.112-.55-.233-.828-.353-.446-.194-.892-.387-1.317-.549a.223.223,0,0,1-.14-.154l-6.333-26.886a.218.218,0,0,1,.182-.257.239.239,0,0,1,.282.166l6.307,26.776c.4.155.81.334,1.223.513.446.194.892.387,1.317.549a.209.209,0,0,1,0,.4c-.445.163-.889.349-1.333.535-.291.122-.582.244-.873.36a11.8,11.8,0,0,0,2.184.735.223.223,0,0,1,.18.2.217.217,0,0,1-.152.216c-.448.156-.893.347-1.324.531-.391.168-.795.341-1.207.492-.163,7.6.488,17.91,1.062,27.017.256,4.062.5,7.9.661,11.314a.225.225,0,0,1-.226.226Z" transform="translate(-39.973 -127.37)" fill="#5b5d63"/>
            <path id="Trazado_885948" data-name="Trazado 885948" d="M206.09,171.486,210,176.608a87.408,87.408,0,0,0,12.47-8.5c.612-.678-.09-1.214-.777-.8l-4.478,2.67s4.392-3.791,4.958-4.363.32-1.466-.767-.87-5.208,3.712-5.208,3.712,4.922-4.376,5.281-4.837.065-1.281-.9-.745-5.784,4.211-5.784,4.211,3.9-3.973,4.3-4.442.016-1.207-1.046-.521-10.5,7.873-11.959,9.361" transform="translate(-75.765 -68.581)" fill="#e48a68"/>
            <path id="Trazado_885949" data-name="Trazado 885949" d="M206.09,172.121a20.4,20.4,0,0,1,1.687-5.909c.58-.8,3.644-3.3,4.232-2.8s-.383,2.145-1.6,2.9a5.673,5.673,0,0,1,.475,4.133c-.489,1.378-4.793,1.679-4.793,1.679" transform="translate(-75.765 -69.216)" fill="#e48a68"/>
            <path id="Trazado_885950" data-name="Trazado 885950" d="M221.966,174.42a.234.234,0,0,1-.23-.164,8.484,8.484,0,0,0-3.756-4.537.205.205,0,0,1-.066-.3.252.252,0,0,1,.329-.06,8.937,8.937,0,0,1,3.953,4.792.216.216,0,0,1-.173.262.245.245,0,0,1-.058.006" transform="translate(-80.098 -71.749)" fill="#bf603b"/>
            <path id="Trazado_885951" data-name="Trazado 885951" d="M216.471,176.926a.233.233,0,0,1-.071-.01,6.905,6.905,0,0,0-3.541-.062.249.249,0,0,1-.249-.072.2.2,0,0,1-.026-.236,6.4,6.4,0,0,0,.544-5.193.214.214,0,0,1,.159-.269.24.24,0,0,1,.3.145,6.789,6.789,0,0,1-.358,5.1,7.509,7.509,0,0,1,3.318.174.212.212,0,0,1,.154.271.235.235,0,0,1-.226.151" transform="translate(-78.143 -72.491)" fill="#bf603b"/>
            <path id="Trazado_885952" data-name="Trazado 885952" d="M131.562,169.845c5.222,2.589,18.807,12.453,20.717,13.742,3.325-1.676,20.447-8.867,23.489-10.107l5.943,6.718c-2.759,2.1-23.773,15.962-30.211,16.671s-22.146-5.994-24.48-7.962l-2.547-14.032Z" transform="translate(-45.76 -71.97)" fill="#016835"/>
            <path id="Trazado_885953" data-name="Trazado 885953" d="M167.765,197.171h-.022a.223.223,0,0,1-.214-.235l.342-3.421a.221.221,0,0,1,.151-.182.257.257,0,0,1,.246.044l2.026,1.71a.2.2,0,0,1,.013.305.254.254,0,0,1-.335.012L168.3,193.99l-.3,2.984a.23.23,0,0,1-.236.2" transform="translate(-61.589 -81.917)" fill="#2837a1"/>
            <path id="Trazado_885954" data-name="Trazado 885954" d="M158.069,213.253a.252.252,0,0,1-.132-.036.2.2,0,0,1-.066-.3,7.64,7.64,0,0,1,11.226-1,.2.2,0,0,1-.006.305.252.252,0,0,1-.335-.005,7.137,7.137,0,0,0-10.49.941.244.244,0,0,1-.2.1" transform="translate(-58.024 -88.95)" fill="#2837a1"/>
            <path id="Trazado_885955" data-name="Trazado 885955" d="M106.889,173.843c3.713-.735,5.435-5.933,3.82-6.913S97.8,163.2,95.59,162.966H84.249c-1.9.188-14.121,2.4-15.143,3.866s-3,8.433,1.3,9.463c.931,3.625-2,37.092.545,40.608s37.806,2.953,39.581.492-1.427-38.1-3.646-43.551" transform="translate(-24.908 -69.055)" fill="#016835"/>
            <path id="Trazado_885956" data-name="Trazado 885956" d="M98.861,168.952a8.823,8.823,0,0,1-7.827-4.278.207.207,0,0,1,.1-.29.249.249,0,0,1,.319.094c1.869,3.353,5.659,4.25,8.335,4,2.868-.269,5.052-1.785,5.7-3.956a.243.243,0,0,1,.291-.152.214.214,0,0,1,.167.265c-.7,2.348-3.039,3.985-6.107,4.274-.329.031-.656.046-.979.046" transform="translate(-33.458 -69.646)" fill="#2837a1"/>
            <path id="Trazado_885957" data-name="Trazado 885957" d="M75.587,227.847a.233.233,0,0,1-.232-.172c-1.649-7.2-.938-14.492-.251-21.541a99.927,99.927,0,0,0,.7-14.772.225.225,0,0,1,.226-.226.221.221,0,0,1,.248.206,100.286,100.286,0,0,1-.7,14.831c-.684,7.017-1.391,14.272.243,21.414a.217.217,0,0,1-.184.255.286.286,0,0,1-.049,0" transform="translate(-27.332 -80.991)" fill="#2837a1"/>
            <path id="Trazado_885958" data-name="Trazado 885958" d="M89.6,210.785q-.418,0-.843-.013a.217.217,0,1,1,.016-.432c5.61.177,10.389-1.4,13.844-4.545,4.34-3.951,6.578-10.392,6.3-18.137a.226.226,0,0,1,.23-.223.228.228,0,0,1,.245.209c.281,7.867-2.006,14.421-6.44,18.457-3.376,3.073-7.979,4.684-13.352,4.684" transform="translate(-32.546 -79.424)" fill="#2837a1"/>
            <path id="Trazado_885959" data-name="Trazado 885959" d="M98.521,235.027a.234.234,0,0,1-.231-.168.216.216,0,0,1,.178-.259c8.988-1.885,14.042-6.791,15.452-15a.24.24,0,0,1,.271-.18.22.22,0,0,1,.2.247c-1.423,8.284-6.744,13.448-15.814,15.35a.238.238,0,0,1-.053.006" transform="translate(-36.132 -92.978)" fill="#2837a1"/>
            <path id="Trazado_885960" data-name="Trazado 885960" d="M132.027,196.774a.231.231,0,0,1-.236-.194c-.857-7.607-1.773-13.01-2.509-14.821a.211.211,0,0,1,.14-.278.244.244,0,0,1,.3.127c.75,1.845,1.675,7.286,2.537,14.927a.223.223,0,0,1-.212.237h-.025" transform="translate(-47.523 -76.895)" fill="#2837a1"/>
            <path id="Trazado_885961" data-name="Trazado 885961" d="M130.927,185.21a.264.264,0,0,1-.086-.014.211.211,0,0,1-.135-.28,20.64,20.64,0,0,0,1.158-3.579.236.236,0,0,1,.28-.168.217.217,0,0,1,.185.255,21.089,21.089,0,0,1-1.18,3.649.239.239,0,0,1-.221.138" transform="translate(-48.046 -76.766)" fill="#2837a1"/>
            <path id="Trazado_885962" data-name="Trazado 885962" d="M60.886,84.219l-6.028-2.964A78.626,78.626,0,0,1,62.711,69c.67-.632,1.334-.056.964.612s-2.4,4.357-2.4,4.357,3.636-4.406,4.2-4.982,1.562-.455,1.035.6-3.458,5.136-3.458,5.136,4.213-4.951,4.676-5.329,1.39-.2.914.73S64.7,75.836,64.7,75.836s3.89-3.984,4.357-4.392,1.314-.151.687.889-7.4,10.4-8.854,11.887" transform="translate(-20.168 -29.089)" fill="#e48a68"/>
            <path id="Trazado_885963" data-name="Trazado 885963" d="M64.387,90.918a25.566,25.566,0,0,0,6.252-2.195c.8-.615,3.187-3.673,2.576-4.15s-2.3.59-2.978,1.778a7.386,7.386,0,0,0-4.561.037c-1.447.6-1.289,4.53-1.289,4.53" transform="translate(-23.669 -35.788)" fill="#e48a68"/>
            <path id="Trazado_885964" data-name="Trazado 885964" d="M68.485,80.462a.248.248,0,0,1-.181-.077A9.4,9.4,0,0,0,62.932,77.5a.22.22,0,0,1-.2-.242A.234.234,0,0,1,63,77.069a9.912,9.912,0,0,1,5.672,3.037.2.2,0,0,1-.028.3.254.254,0,0,1-.153.051" transform="translate(-23.06 -32.656)" fill="#bf603b"/>
            <path id="Trazado_885965" data-name="Trazado 885965" d="M61.041,86.732a.257.257,0,0,1-.128-.034.209.209,0,0,1-.106-.217,5.29,5.29,0,0,0-.469-3.2.209.209,0,0,1,.12-.286.249.249,0,0,1,.314.109,5.771,5.771,0,0,1,.564,2.985,8.794,8.794,0,0,1,5.523-.9.218.218,0,0,1,.191.251.235.235,0,0,1-.276.174,8.236,8.236,0,0,0-5.6,1.08.256.256,0,0,1-.133.037" transform="translate(-22.175 -35.161)" fill="#bf603b"/>
            <path id="Trazado_885966" data-name="Trazado 885966" d="M54.677,92.5l-8.216-4.307c-2.935,4.437-11.74,21.091-12.607,25.347S50,145.637,58.868,150.925L65.46,132.4c-4.724-4.509-15.4-15.965-17.6-17.9,1-2.6,5.759-17.874,6.815-22" transform="translate(-12.434 -37.372)" fill="#016835"/>
            <path id="Trazado_885967" data-name="Trazado 885967" d="M49.858,133.076a.231.231,0,0,1-.236-.2.223.223,0,0,1,.214-.236l3.211-.274L51.3,131.144a.2.2,0,0,1-.043-.3.251.251,0,0,1,.332-.04l2.231,1.562a.206.206,0,0,1,.083.231.234.234,0,0,1-.206.156l-3.811.325h-.023" transform="translate(-18.242 -55.407)" fill="#2837a1"/>
            <path id="Trazado_885968" data-name="Trazado 885968" d="M36.564,134.735a.247.247,0,0,1-.157-.055.2.2,0,0,1-.02-.3,6.1,6.1,0,0,0,1.769-4.506,6.191,6.191,0,0,0-2.172-4.357.2.2,0,0,1-.009-.306.254.254,0,0,1,.336-.007,6.613,6.613,0,0,1,2.319,4.652,6.5,6.5,0,0,1-1.889,4.812.248.248,0,0,1-.177.072" transform="translate(-13.202 -53.027)" fill="#2837a1"/>
            <path id="Trazado_885969" data-name="Trazado 885969" d="M72.067,182.936a.245.245,0,0,1-.183-.078.2.2,0,0,1,.032-.3,22.611,22.611,0,0,0,6.491-8.232,13.665,13.665,0,0,0,.945-9.632.214.214,0,0,1,.168-.265.24.24,0,0,1,.29.153,14.059,14.059,0,0,1-.967,9.913,23.049,23.049,0,0,1-6.625,8.395.251.251,0,0,1-.151.05" transform="translate(-26.407 -69.67)" fill="#2837a1"/>
            <path id="Trazado_885970" data-name="Trazado 885970" d="M112.188,114.205a2.147,2.147,0,0,0-1.833-.932,6.7,6.7,0,0,0-2.145.409,5.232,5.232,0,0,0,1.316-2.147,1.983,1.983,0,0,0-.85-2.213,2.962,2.962,0,0,0-1.877-.2,6.917,6.917,0,0,0-3.73,1.828,3.4,3.4,0,0,0,.491-1.484,1.612,1.612,0,0,0-.547-1.487,1.927,1.927,0,0,0-1.289-.35,3.913,3.913,0,0,0-1.315.353,7.3,7.3,0,0,0-3.6,3.308,3.5,3.5,0,0,0,.1-1.818,1.624,1.624,0,0,0-1.37-1.175,1.72,1.72,0,0,0-1.263.492,3.41,3.41,0,0,0-.725,1.1,9.639,9.639,0,0,0-.872,4.334,2.03,2.03,0,0,0-.5-1.115,1.507,1.507,0,0,0-1.172-.5,1.692,1.692,0,0,0-1.445,1.136,3.451,3.451,0,0,0-.023,1.829,8.747,8.747,0,0,0,.7,2.084,2.117,2.117,0,0,0-1.857-.9,1.5,1.5,0,0,0-1.036,1.153,2.962,2.962,0,0,0,.185,1.543,12.825,12.825,0,0,0,3.649,5.068l15.962-1.479a3.982,3.982,0,0,0,3.3-1.969,3.328,3.328,0,0,0-.316-3.584,5.94,5.94,0,0,0,1.72-1.324,1.78,1.78,0,0,0,.341-1.955" transform="translate(-32.096 -45.603)" fill="#7d3119"/>
            <path id="Trazado_885971" data-name="Trazado 885971" d="M106.717,138.834a10.173,10.173,0,0,1-4.531-1.017A9.361,9.361,0,0,1,98.744,135l-1.433-1.928v-11.57a4.538,4.538,0,0,1,4.824-4.3l4.348.091c2.57.05,3.655,2.132,4.616,4.3,1.165,2.619.228,4.276.324,7.089.01.324.034.659.075,1.008.017.138.038.279.059.424.01.069.024.141.034.213.021.129.049.261.076.4s.049.245.066.364c.01.05.02.1.027.148.045.286.083.559.107.826s.042.505.049.744c.144,4.631-3.063,6.019-5.2,6.028" transform="translate(-35.775 -49.663)" fill="#e48a68"/>
            <path id="Trazado_885972" data-name="Trazado 885972" d="M105.181,155.246s-1.513,2.512-5.548,2.512a7.53,7.53,0,0,1-5.792-2.512l2.192-10.5,8.286,4.817.161.9.3,1.88Z" transform="translate(-34.499 -61.336)" fill="#e48a68"/>
            <path id="Trazado_885973" data-name="Trazado 885973" d="M107.038,153.988a10.233,10.233,0,0,1-4.274-1.909,9.2,9.2,0,0,1-2.793-3.454,9.311,9.311,0,0,0,3.192,2.508,9.89,9.89,0,0,0,3.57.973Z" transform="translate(-36.753 -62.978)" fill="#2c2f37"/>
            <path id="Trazado_885974" data-name="Trazado 885974" d="M96.758,138.552a3.175,3.175,0,1,1-3.161-2.881,3.031,3.031,0,0,1,3.161,2.881" transform="translate(-33.247 -57.489)" fill="#e48a68"/>
            <path id="Trazado_885975" data-name="Trazado 885975" d="M96.059,141.461a.23.23,0,0,1-.237-.2,2.577,2.577,0,0,0-1.079-1.877,3.116,3.116,0,0,0-2.254-.524.235.235,0,0,1-.273-.176.219.219,0,0,1,.194-.25,3.628,3.628,0,0,1,2.627.611,3.006,3.006,0,0,1,1.258,2.188.224.224,0,0,1-.222.229h-.015" transform="translate(-33.901 -58.641)" fill="#bf603b"/>
            <path id="Trazado_885976" data-name="Trazado 885976" d="M93.134,141.5a.256.256,0,0,1-.068-.009.214.214,0,0,1-.159-.269,2.718,2.718,0,0,1,2.2-1.776.236.236,0,0,1,.273.179.219.219,0,0,1-.2.248,2.251,2.251,0,0,0-1.818,1.473.236.236,0,0,1-.228.154" transform="translate(-34.152 -59.087)" fill="#bf603b"/>
            <path id="Trazado_885977" data-name="Trazado 885977" d="M111.11,137.9a.239.239,0,0,1-.216-.128.208.208,0,0,1,.12-.285,2.117,2.117,0,0,0,.67-.369.468.468,0,0,0,.151-.5.911.911,0,0,0-.237-.251c-.039-.032-.078-.065-.115-.1a2.265,2.265,0,0,1-.667-1.258,5.951,5.951,0,0,1-.063-1.328.215.215,0,0,1,.243-.21.227.227,0,0,1,.231.222,5.675,5.675,0,0,0,.055,1.24,1.877,1.877,0,0,0,.536,1.029l.1.087a1.246,1.246,0,0,1,.349.394.863.863,0,0,1-.24.971,2.5,2.5,0,0,1-.82.466.247.247,0,0,1-.1.019" transform="translate(-40.713 -56.556)" fill="#2c2f37"/>
            <path id="Trazado_885978" data-name="Trazado 885978" d="M113.437,129.891a.732.732,0,0,0,.107.464.824.824,0,0,0,.378.318,2.828,2.828,0,0,1,1.1-.466,1.917,1.917,0,0,1,1.076.219,4.7,4.7,0,0,1,.907.621.21.21,0,0,0,.2-.188,2.7,2.7,0,0,0-1.65-1.265,2.878,2.878,0,0,0-2.117.3" transform="translate(-41.701 -54.878)" fill="#7d3119"/>
            <path id="Trazado_885979" data-name="Trazado 885979" d="M113.828,135.137a.267.267,0,0,1-.089-.016.21.21,0,0,1-.131-.281,1.615,1.615,0,0,1,1.589-.925,1.859,1.859,0,0,1,1.658.9.209.209,0,0,1-.1.292.248.248,0,0,1-.319-.094,1.383,1.383,0,0,0-1.236-.67,1.15,1.15,0,0,0-1.148.655.238.238,0,0,1-.22.135" transform="translate(-41.76 -56.745)" fill="#2c2f37"/>
            <path id="Trazado_885980" data-name="Trazado 885980" d="M115.23,135.045a.62.62,0,1,0,.605-.754.693.693,0,0,0-.605.754" transform="translate(-42.362 -56.904)" fill="#2c2f37"/>
            <path id="Trazado_885981" data-name="Trazado 885981" d="M106.768,129.891a.732.732,0,0,1-.107.464.824.824,0,0,1-.378.318,2.828,2.828,0,0,0-1.1-.466,1.917,1.917,0,0,0-1.076.219,4.7,4.7,0,0,0-.907.621.21.21,0,0,1-.2-.188,2.7,2.7,0,0,1,1.65-1.265,2.878,2.878,0,0,1,2.117.3" transform="translate(-37.867 -54.878)" fill="#7d3119"/>
            <path id="Trazado_885982" data-name="Trazado 885982" d="M106.656,135.137a.238.238,0,0,1-.22-.135,1.15,1.15,0,0,0-1.148-.655,1.382,1.382,0,0,0-1.236.67.248.248,0,0,1-.319.094.208.208,0,0,1-.1-.291,1.856,1.856,0,0,1,1.658-.905,1.615,1.615,0,0,1,1.589.925.21.21,0,0,1-.131.281.267.267,0,0,1-.089.016" transform="translate(-38.088 -56.745)" fill="#2c2f37"/>
            <path id="Trazado_885983" data-name="Trazado 885983" d="M105.253,135.045a.62.62,0,1,0,.605-.754.693.693,0,0,0-.605.754" transform="translate(-38.694 -56.904)" fill="#2c2f37"/>
            <path id="Trazado_885984" data-name="Trazado 885984" d="M110.669,149.758a.239.239,0,0,1-.215-.126.208.208,0,0,1,.116-.286,2.308,2.308,0,0,1,1.919-.025.209.209,0,0,1,.12.285.247.247,0,0,1-.314.109,1.794,1.794,0,0,0-1.526.022.25.25,0,0,1-.1.02" transform="translate(-40.598 -63.19)" fill="#bf603b"/>
            <path id="Trazado_885985" data-name="Trazado 885985" d="M105.311,140.309c0,.272-.728.492-1.626.492s-1.627-.22-1.627-.492.729-.492,1.627-.492,1.626.22,1.626.492" transform="translate(-37.519 -59.246)" fill="#bf513b"/>
            <path id="Trazado_885986" data-name="Trazado 885986" d="M118.538,140.673a4.165,4.165,0,0,1-1.092.129c-.9,0-1.626-.22-1.626-.493s.727-.49,1.626-.49a4.505,4.505,0,0,1,.951.094c.02.129.048.261.075.4s.049.245.066.364" transform="translate(-42.579 -59.247)" fill="#bf513b"/>
            <path id="Trazado_885987" data-name="Trazado 885987" d="M112.766,143.892a13.472,13.472,0,0,0-6.126.019,3.289,3.289,0,0,0,6.126-.019" transform="translate(-39.204 -60.827)" fill="#fff"/>
            <path id="Trazado_885988" data-name="Trazado 885988" d="M111.485,123.145a3.424,3.424,0,0,1-2.435-.242,2.8,2.8,0,0,1-1.4-1.786,3.005,3.005,0,0,1-.089.951,1.23,1.23,0,0,1-.607.755,1.867,1.867,0,0,1-1.606-.213,6.178,6.178,0,0,1-2.188-1.919,1.432,1.432,0,0,1-.519,1.769,2.394,2.394,0,0,1-2.062.248A3.3,3.3,0,0,1,99,121.375a3.346,3.346,0,0,0-.746,2.455,17.969,17.969,0,0,0,.481,2.564,5.1,5.1,0,0,1,.013,2.582,2.572,2.572,0,0,1-.43.841,3.093,3.093,0,0,0-3.048-2.265L94.86,124l1.549-5.866,3.478-1.625H106.6l2.871,2.322Z" transform="translate(-34.874 -49.368)" fill="#7d3119"/>
          </g>
        </g>
      </g>
    </g>
  </g>
</svg>
