<svg xmlns="http://www.w3.org/2000/svg" width="85" height="85" viewBox="0 0 85 85">
  <g id="Grupo_1100166" data-name="Grupo 1100166" transform="translate(-284.73 -6151)">
    <circle id="Elipse_11499" data-name="Elipse 11499" cx="42.5" cy="42.5" r="42.5" transform="translate(284.73 6151)" fill="#f35923"/>
    <g id="Grupo_1102496" data-name="Grupo 1102496">
      <g id="Layer_4" data-name="Layer 4" transform="translate(299.402 6165.552)">
        <path id="Trazado_886790" data-name="Trazado 886790" d="M39.962,44.576a1.7,1.7,0,0,1-1.2-.5l-4.247-4.247a1.7,1.7,0,0,1,2.4-2.4l3,2.99,8.146-8.885a1.7,1.7,0,1,1,2.5,2.293L41.211,44.024a1.7,1.7,0,0,1-1.249.552Z" transform="translate(-4.69 -4.204)" fill="none" stroke="#feefe9" stroke-linecap="round" stroke-linejoin="round" stroke-width="2"/>
        <circle id="Elipse_11648" data-name="Elipse 11648" cx="13.59" cy="13.59" r="13.59" transform="translate(25.079 19.987)" fill="none" stroke="#feefe9" stroke-linecap="round" stroke-linejoin="round" stroke-width="2"/>
        <path id="Trazado_886791" data-name="Trazado 886791" d="M11,39V51.741h4.247a1.7,1.7,0,0,1,1.7,1.7v4.247H46.674a1.7,1.7,0,0,0,1.7-1.7V50.042" transform="translate(-1.21 -5.423)" fill="none" stroke="#feefe9" stroke-linecap="round" stroke-linejoin="round" stroke-width="2"/>
        <path id="Trazado_886792" data-name="Trazado 886792" d="M11,23v5.946" transform="translate(-1.21 -3.013)" fill="none" stroke="#feefe9" stroke-linecap="round" stroke-linejoin="round" stroke-width="2"/>
        <path id="Trazado_886793" data-name="Trazado 886793" d="M49.126,22.536V4.7a1.7,1.7,0,0,0-1.7-1.7H16" transform="translate(-1.963 -0.001)" fill="none" stroke="#feefe9" stroke-linecap="round" stroke-linejoin="round" stroke-width="2"/>
        <path id="Trazado_886794" data-name="Trazado 886794" d="M11,54l5.946,5.946" transform="translate(-1.21 -7.682)" fill="none" stroke="#feefe9" stroke-linecap="round" stroke-linejoin="round" stroke-width="2"/>
        <path id="Trazado_886795" data-name="Trazado 886795" d="M23.38,16.8,10.64,4.29a4.544,4.544,0,0,0-6.353,0,4.374,4.374,0,0,0,0,6.26l14,13.76a2.744,2.744,0,0,0,3.814,0,2.625,2.625,0,0,0,0-3.754L9.357,8.045" fill="none" stroke="#feefe9" stroke-linecap="round" stroke-linejoin="round" stroke-width="2"/>
        <path id="Trazado_886796" data-name="Trazado 886796" d="M11,34v.849" transform="translate(-1.21 -4.67)" fill="none" stroke="#feefe9" stroke-linecap="round" stroke-linejoin="round" stroke-width="2"/>
      </g>
    </g>
  </g>
</svg>
