<svg xmlns="http://www.w3.org/2000/svg" xmlns:xlink="http://www.w3.org/1999/xlink" width="315.11" height="247" viewBox="0 0 315.11 247">
  <defs>
    <clipPath id="clip-path">
      <rect id="Rectángulo_403726" data-name="Rectángulo 403726" width="315" height="219.198" fill="none"/>
    </clipPath>
    <clipPath id="clip-path-2">
      <rect id="Rectángulo_403725" data-name="Rectángulo 403725" width="315.001" height="219.198" fill="none"/>
    </clipPath>
    <clipPath id="clip-path-3">
      <rect id="Rectángulo_403700" data-name="Rectángulo 403700" width="86.172" height="121.776" fill="none"/>
    </clipPath>
    <clipPath id="clip-path-4">
      <rect id="Rectángulo_403717" data-name="Rectángulo 403717" width="61.887" height="44.74" fill="#e0f4ff"/>
    </clipPath>
    <clipPath id="clip-path-5">
      <rect id="Rectángulo_403720" data-name="Rectángulo 403720" width="61.96" height="41.389" fill="#b1e5ff"/>
    </clipPath>
    <clipPath id="clip-path-6">
      <rect id="Rectángulo_403721" data-name="Rectángulo 403721" width="20.587" height="14.668" fill="none"/>
    </clipPath>
    <clipPath id="clip-path-7">
      <rect id="Rectángulo_403722" data-name="Rectángulo 403722" width="72.924" height="72.923" fill="none"/>
    </clipPath>
    <clipPath id="clip-path-8">
      <rect id="Rectángulo_403723" data-name="Rectángulo 403723" width="57.819" height="33.802" fill="none"/>
    </clipPath>
    <clipPath id="clip-path-9">
      <rect id="Rectángulo_403724" data-name="Rectángulo 403724" width="6.71" height="6.71" fill="none"/>
    </clipPath>
  </defs>
  <g id="Grupo_1099609" data-name="Grupo 1099609" transform="translate(-684.891 -3092)">
    <rect id="Rectángulo_401369" data-name="Rectángulo 401369" width="223" height="247" transform="translate(777 3092)" fill="#cce1d7"/>
    <g id="Grupo_1102615" data-name="Grupo 1102615" transform="translate(684.891 3119.802)">
      <g id="Grupo_1102614" data-name="Grupo 1102614" clip-path="url(#clip-path)">
        <g id="Grupo_1102613" data-name="Grupo 1102613">
          <g id="Grupo_1102612" data-name="Grupo 1102612" clip-path="url(#clip-path-2)">
            <path id="Trazado_887134" data-name="Trazado 887134" d="M522.506,316.944H411.05V156.575h123.7V306.5c0,5.769-5.482,10.445-12.245,10.445" transform="translate(-319.288 -121.622)" fill="#f7f7f7"/>
            <rect id="Rectángulo_403691" data-name="Rectángulo 403691" width="123.494" height="7.445" transform="translate(91.733 34.953)" fill="#6a8a99"/>
            <path id="Trazado_887135" data-name="Trazado 887135" d="M605.407,545.1c1.666,0,1.666-1.883,0-1.883H543.419c-1.666,0-1.666,1.883,0,1.883Z" transform="translate(-421.137 -421.952)" fill="#f7f7f7"/>
            <path id="Trazado_887136" data-name="Trazado 887136" d="M589,213.059a32.789,32.789,0,0,0-24.848,11.349L589,245.939l24.849-21.531A32.79,32.79,0,0,0,589,213.059" transform="translate(-438.213 -165.496)" fill="#c3471c"/>
            <path id="Trazado_887137" data-name="Trazado 887137" d="M718.617,338.762l-32.544,4.679v32.88a32.868,32.868,0,0,0,32.544-37.559" transform="translate(-532.915 -263.137)" fill="#f35923"/>
            <path id="Trazado_887138" data-name="Trazado 887138" d="M537.348,264.385a32.861,32.861,0,0,0,3.948,46.332,33.239,33.239,0,0,0,3.795,2.758l17.4-27.9Z" transform="translate(-411.373 -205.364)" fill="#99c2ae"/>
            <path id="Trazado_887139" data-name="Trazado 887139" d="M614.876,392.4a32.729,32.729,0,0,1-17.775-5.222l17.778-27.657Z" transform="translate(-463.805 -279.259)" fill="#fabca7"/>
            <path id="Trazado_887140" data-name="Trazado 887140" d="M726.106,272.012a32.73,32.73,0,0,0-7.7-16.852l-24.848,21.531Z" transform="translate(-538.733 -198.199)" fill="#016835"/>
            <rect id="Rectángulo_403692" data-name="Rectángulo 403692" width="12.079" height="29.094" transform="translate(106.305 159.024)" fill="#6a8a99"/>
            <rect id="Rectángulo_403693" data-name="Rectángulo 403693" width="12.079" height="13.672" transform="translate(106.305 147.758)" fill="#e0f4ff"/>
            <rect id="Rectángulo_403694" data-name="Rectángulo 403694" width="12.079" height="29.094" transform="translate(185.824 160.336)" fill="#6a8a99"/>
            <rect id="Rectángulo_403695" data-name="Rectángulo 403695" width="12.158" height="26.961" transform="translate(185.824 135.781)" fill="#e0f4ff"/>
            <rect id="Rectángulo_403696" data-name="Rectángulo 403696" width="12.079" height="30.735" transform="translate(159.318 158.04)" fill="#6a8a99"/>
            <rect id="Rectángulo_403697" data-name="Rectángulo 403697" width="12.079" height="20.399" transform="translate(159.318 155.305)" fill="#e0f4ff"/>
            <rect id="Rectángulo_403698" data-name="Rectángulo 403698" width="12.079" height="41.276" transform="translate(132.811 147.334)" fill="#6a8a99"/>
            <rect id="Rectángulo_403699" data-name="Rectángulo 403699" width="12.079" height="33.014" transform="translate(132.811 131.352)" fill="#e0f4ff"/>
            <path id="Trazado_887141" data-name="Trazado 887141" d="M426.529,171.629a1.588,1.588,0,1,1,1.588-1.588,1.59,1.59,0,0,1-1.588,1.588m0-2.912a1.324,1.324,0,1,0,1.324,1.324,1.325,1.325,0,0,0-1.324-1.324" transform="translate(-330.078 -130.847)" fill="#fff"/>
            <path id="Trazado_887142" data-name="Trazado 887142" d="M448.468,171.629a1.588,1.588,0,1,1,1.588-1.588,1.59,1.59,0,0,1-1.588,1.588m0-2.912a1.324,1.324,0,1,0,1.324,1.324,1.325,1.325,0,0,0-1.324-1.324" transform="translate(-347.119 -130.847)" fill="#fff"/>
            <path id="Trazado_887143" data-name="Trazado 887143" d="M470.408,171.629A1.588,1.588,0,1,1,472,170.041a1.59,1.59,0,0,1-1.588,1.588m0-2.912a1.324,1.324,0,1,0,1.324,1.324,1.325,1.325,0,0,0-1.324-1.324" transform="translate(-364.162 -130.847)" fill="#fff"/>
            <g id="Grupo_1102593" data-name="Grupo 1102593" transform="translate(16.243 78.216)" opacity="0.07">
              <g id="Grupo_1102592" data-name="Grupo 1102592">
                <g id="Grupo_1102591" data-name="Grupo 1102591" clip-path="url(#clip-path-3)">
                  <path id="Trazado_887144" data-name="Trazado 887144" d="M151.61,472.148H72.76V350.372h86.172V464.826a7.322,7.322,0,0,1-7.322,7.322" transform="translate(-72.76 -350.372)" fill="#2e4661"/>
                </g>
              </g>
            </g>
            <path id="Trazado_887145" data-name="Trazado 887145" d="M111.084,436.686H28.9V309.1h92.851V426.017a10.669,10.669,0,0,1-10.669,10.669" transform="translate(-22.45 -240.099)" fill="#d2e1f1"/>
            <rect id="Rectángulo_403701" data-name="Rectángulo 403701" width="75.165" height="47.531" transform="translate(16.307 79.191)" fill="#fff"/>
            <path id="Trazado_887146" data-name="Trazado 887146" d="M142.4,385.67a3.141,3.141,0,0,0,1.873,1.548c1.9.711,4.462.2,5.559-1.4,1.834-2.664,1.318-6.477,3.292-9.244a6.477,6.477,0,0,1,3.462-2.445,5.922,5.922,0,0,1,4.373.415c2.087,1.15,2.809,3.525,2.83,5.681a67.153,67.153,0,0,1-1.286,12.507,10.82,10.82,0,0,1-2.35,5.57c-1.943,2.119-5.144,3-8.2,3.472-7.743,1.193-15.685.464-23.5-.269l-18.865-1.768c-1.773-.166-6.992.1-8.053-1.126-1.036-1.2-.222-5.264.384-6.518,1.349-2.794,5.041-4.37,8.506-4.193,7.815.4,4.726-7.762,7.227-11.637,1.329-2.059,4.255-3.538,6.776-2.68,2.4.818,3.408,3.231,4.592,5.234a4.344,4.344,0,0,0,2.8,2.342c2.235.382,4.1-1.889,6.375-1.8a3.807,3.807,0,0,1,3.076,2.024c.791,1.446.515,3.043,1.131,4.286" transform="translate(-78.479 -289.995)" fill="#f7f7f7"/>
            <path id="Trazado_887147" data-name="Trazado 887147" d="M157.981,429.007s.012-3.421.013-3.609c.018-5.105.018-10.21.024-15.316.006-4.878.408-9.754.329-14.62-.035-2.251-1.007-3.427-3.378-2.824a10.957,10.957,0,0,0-5.937,3.891c-.995,1.295-1.822,2.916-3.369,3.437-2.765.932-5.028-2.183-7.512-3.715a7.72,7.72,0,0,0-8.8.656c-2.9,2.452-3.565,6.691-6.019,9.589a9.906,9.906,0,0,1-11.4,2.509c-1.557-.723-2.9-1.851-4.43-2.62-6.087-3.052-14.55,1.339-15.56,8.073v13.934s66.156.737,66.033.614" transform="translate(-71.422 -304.865)" fill="#b1e5ff"/>
            <rect id="Rectángulo_403702" data-name="Rectángulo 403702" width="5.65" height="5.65" transform="translate(17.535 133.968)" fill="#8eb7cc"/>
            <rect id="Rectángulo_403703" data-name="Rectángulo 403703" width="5.65" height="5.65" transform="translate(17.535 142.319)" fill="#8eb7cc"/>
            <rect id="Rectángulo_403704" data-name="Rectángulo 403704" width="16.458" height="1.719" transform="translate(27.852 135.687)" fill="#f7f7f7"/>
            <rect id="Rectángulo_403705" data-name="Rectángulo 403705" width="16.458" height="1.719" transform="translate(27.606 144.776)" fill="#f7f7f7"/>
            <rect id="Rectángulo_403706" data-name="Rectángulo 403706" width="71.726" height="1.858" transform="translate(18.272 157.603)" fill="#f7f7f7"/>
            <rect id="Rectángulo_403707" data-name="Rectángulo 403707" width="31.933" height="25.454" transform="translate(18.272 162.999)" fill="#f7f7f7"/>
            <rect id="Rectángulo_403708" data-name="Rectángulo 403708" width="34.88" height="11.084" transform="translate(55.118 163.245)" fill="#f7f7f7"/>
            <rect id="Rectángulo_403709" data-name="Rectángulo 403709" width="34.88" height="11.084" transform="translate(54.749 177.246)" fill="#f7f7f7"/>
            <path id="Trazado_887148" data-name="Trazado 887148" d="M59.093,72.919H.409A.429.429,0,0,0,0,73.365v31.088c0,7.664,5.7,13.878,12.737,13.878H37.068l9.949,13.958a.474.474,0,0,0,.861-.268l.2-13.69H59.093a.429.429,0,0,0,.409-.446V73.365a.429.429,0,0,0-.409-.446" transform="translate(0 -56.641)" fill="#f35923"/>
            <rect id="Rectángulo_403710" data-name="Rectángulo 403710" width="36.554" height="1.523" transform="translate(7.685 23.707)" fill="#f7f7f7"/>
            <rect id="Rectángulo_403711" data-name="Rectángulo 403711" width="43.599" height="1.523" transform="translate(7.685 35.321)" fill="#f7f7f7"/>
            <rect id="Rectángulo_403712" data-name="Rectángulo 403712" width="43.599" height="1.523" transform="translate(7.685 46.935)" fill="#f7f7f7"/>
            <path id="Trazado_887149" data-name="Trazado 887149" d="M284.291,30.854H240.764V0h40.759l8.729,9.219V24.483a6.176,6.176,0,0,1-5.961,6.371" transform="translate(-187.016)" fill="#923615"/>
            <path id="Trazado_887150" data-name="Trazado 887150" d="M432.1,9.293l-8.763.22V0Z" transform="translate(-328.828 0)" fill="#923615"/>
            <rect id="Rectángulo_403713" data-name="Rectángulo 403713" width="27.768" height="1.322" transform="translate(65.684 8.008)" fill="#f7f7f7"/>
            <rect id="Rectángulo_403714" data-name="Rectángulo 403714" width="32.167" height="1.322" transform="translate(61.286 14.399)" fill="#f7f7f7"/>
            <rect id="Rectángulo_403715" data-name="Rectángulo 403715" width="32.167" height="1.322" transform="translate(61.286 20.79)" fill="#f7f7f7"/>
            <g id="Grupo_1102596" data-name="Grupo 1102596" transform="translate(206.836 129.5)">
              <g id="Grupo_1102595" data-name="Grupo 1102595">
                <g id="Grupo_1102594" data-name="Grupo 1102594" clip-path="url(#clip-path-4)">
                  <rect id="Rectángulo_403716" data-name="Rectángulo 403716" width="61.887" height="44.74" transform="translate(0)" fill="#e0f4ff"/>
                </g>
              </g>
            </g>
            <rect id="Rectángulo_403719" data-name="Rectángulo 403719" width="62.222" height="3.572" transform="translate(208.95 126.905)" fill="#6a8a99"/>
            <g id="Grupo_1102599" data-name="Grupo 1102599" transform="translate(209.167 130.545)" opacity="0.03">
              <g id="Grupo_1102598" data-name="Grupo 1102598">
                <g id="Grupo_1102597" data-name="Grupo 1102597" clip-path="url(#clip-path-5)">
                  <path id="Trazado_887151" data-name="Trazado 887151" d="M998.927,592.424v-.139h-7.648V584.78h-.139v7.505h-9.169V584.78h-.139v7.505h-9.169V584.78h-.138v7.505h-9.169V584.78h-.138v7.505H954.05V584.78h-.139v7.505h-9.169V584.78H944.6v7.505h-7.636v.139H944.6v8.48h-7.636v.138H944.6v8.48h-7.636v.138H944.6v8.48h-7.636v.138H944.6v7.89h.139v-7.89h9.169v7.89h.139v-7.89h9.169v7.89h.138v-7.89h9.169v7.89h.138v-7.89h9.169v7.89h.139v-7.89h9.169v7.89h.139v-7.89h7.648v-.138h-7.648v-8.48h7.648v-.138h-7.648v-8.48h7.648V600.9h-7.648v-8.48Zm-17.094,8.48h-9.169v-8.48h9.169Zm-18.476.138h9.169v8.48h-9.169Zm-.138,8.48H954.05v-8.48h9.169Zm9.446-8.48h9.169v8.48h-9.169Zm-.138-.138h-9.169v-8.48h9.169Zm-9.307,0H954.05v-8.48h9.169Zm-18.476-8.48h9.169v8.48h-9.169Zm0,8.618h9.169v8.48h-9.169Zm0,8.618h9.169v8.48h-9.169Zm9.307,0h9.169v8.48H954.05Zm9.307,0h9.169v8.48h-9.169Zm9.307,0h9.169v8.48h-9.169Zm18.476,8.48h-9.169v-8.48h9.169Zm0-8.618h-9.169v-8.48h9.169Zm0-8.618h-9.169v-8.48h9.169Z" transform="translate(-936.968 -584.78)" fill="#b1e5ff"/>
                </g>
              </g>
            </g>
            <path id="Trazado_887152" data-name="Trazado 887152" d="M1000.325,610.242a1.9,1.9,0,0,0-1.334,3.254l-6.614,5.695-.5.433a1.9,1.9,0,1,0-2.225,3.075l-1.449,3.488-.618,1.487a1.892,1.892,0,0,0-2.072.9l-6.389-4.038-4.734-2.992a1.9,1.9,0,1,0-3.625-.317l-8.96,3.657-.878.358a1.9,1.9,0,1,0-3.047,2.138l-1.331,1.51-6.352,7.21a1.912,1.912,0,1,0,.493.486l5.423-6.156,2.354-2.672a1.9,1.9,0,0,0,2.617-1.761c0-.026,0-.05,0-.076l.13-.053,9.817-4.007a1.9,1.9,0,0,0,2.993.266l4.294,2.714,6.965,4.4a1.877,1.877,0,0,0-.024.284,1.9,1.9,0,1,0,2.962-1.578l2.07-4.983a1.9,1.9,0,0,0,2.3-1.858,1.889,1.889,0,0,0-.26-.957l1.17-1.007,5.011-4.315,1.081-.931a1.9,1.9,0,1,0,.739-3.653" transform="translate(-735.772 -474.013)" fill="#6a8a99"/>
            <path id="Trazado_887153" data-name="Trazado 887153" d="M1065.538,387.067l-7.456,11.943-42.308-26.653,7.456-11.943Z" transform="translate(-789.015 -279.956)" fill="#f7f7f7"/>
            <path id="Trazado_887154" data-name="Trazado 887154" d="M1158.059,451.11l-.086.138c-2.352,3.767-6.549,5.391-9.375,3.627l-32.475-19.933,8.534-14.353L1157.2,441.1c2.825,1.764,3.209,6.248.857,10.015" transform="translate(-866.962 -326.698)" fill="#013f20"/>
            <g id="Grupo_1102602" data-name="Grupo 1102602" transform="translate(229.719 81.005)" opacity="0.2" style="mix-blend-mode: multiply;isolation: isolate">
              <g id="Grupo_1102601" data-name="Grupo 1102601">
                <g id="Grupo_1102600" data-name="Grupo 1102600" clip-path="url(#clip-path-6)">
                  <path id="Trazado_887155" data-name="Trazado 887155" d="M1029.033,376.04l2.048,1.491,18.539-4.812-15.446-9.856Z" transform="translate(-1029.033 -362.863)" fill="#bbbcbf"/>
                </g>
              </g>
            </g>
            <path id="Trazado_887156" data-name="Trazado 887156" d="M764.883,111.753a42.379,42.379,0,1,0,13.506,58.391,42.379,42.379,0,0,0-13.506-58.391m8.482,55.255a36.457,36.457,0,1,1-11.618-50.231,36.457,36.457,0,0,1,11.618,50.231" transform="translate(-543.777 -81.806)" fill="#013f20"/>
            <g id="Grupo_1102605" data-name="Grupo 1102605" transform="translate(162.202 29.433)" opacity="0.5">
              <g id="Grupo_1102604" data-name="Grupo 1102604">
                <g id="Grupo_1102603" data-name="Grupo 1102603" clip-path="url(#clip-path-7)">
                  <path id="Trazado_887157" data-name="Trazado 887157" d="M782.355,137.384a36.457,36.457,0,1,0,11.618,50.231,36.457,36.457,0,0,0-11.618-50.231" transform="translate(-726.587 -131.848)" fill="#d1e7f5"/>
                </g>
              </g>
            </g>
            <g id="Grupo_1102608" data-name="Grupo 1102608" transform="translate(167.295 33.013)" opacity="0.22">
              <g id="Grupo_1102607" data-name="Grupo 1102607">
                <g id="Grupo_1102606" data-name="Grupo 1102606" clip-path="url(#clip-path-8)">
                  <path id="Trazado_887158" data-name="Trazado 887158" d="M754.5,179.3a25.675,25.675,0,0,1,47.852-13.612c1.659,2.83,6.171.465,4.51-2.369a31.152,31.152,0,0,0-33.3-14.755c-12.907,2.747-22.43,13.84-23.982,26.806a28.179,28.179,0,0,0-.167,3.781c.05,3.271,5.143,3.443,5.091.148" transform="translate(-749.4 -147.884)" fill="#fff"/>
                </g>
              </g>
            </g>
            <g id="Grupo_1102611" data-name="Grupo 1102611" transform="translate(222.723 55.286)" opacity="0.31">
              <g id="Grupo_1102610" data-name="Grupo 1102610">
                <g id="Grupo_1102609" data-name="Grupo 1102609" clip-path="url(#clip-path-9)">
                  <path id="Trazado_887159" data-name="Trazado 887159" d="M1002.823,248.166a3.354,3.354,0,1,1-4.622,1.069,3.354,3.354,0,0,1,4.622-1.069" transform="translate(-997.692 -247.657)" fill="#fff"/>
                </g>
              </g>
            </g>
            <path id="Trazado_887160" data-name="Trazado 887160" d="M1111.108,429.28l8.119-13.656a1.064,1.064,0,0,0-.281-1.4l-.142-.105a1.063,1.063,0,0,0-1.552.32l-8,13.751a1.064,1.064,0,0,0,.4,1.464l.019.01a1.064,1.064,0,0,0,1.43-.386" transform="translate(-861.516 -321.511)" fill="#353a85"/>
            <path id="Trazado_887161" data-name="Trazado 887161" d="M791.476,164.084a36.078,36.078,0,1,1-4.84-18.061,36.352,36.352,0,0,1,4.84,18.061.97.97,0,0,0,1.939,0,38.015,38.015,0,1,0-12.047,27.763,38.442,38.442,0,0,0,12.047-27.763.97.97,0,0,0-1.939,0" transform="translate(-557.249 -97.928)" fill="#dddae8"/>
            <path id="Trazado_887162" data-name="Trazado 887162" d="M1153.3,419.89c1.37-3.6,3.355-10.706,4.5-14.158-2.5-8.408-7.644-22.452-8.177-22.607-3.118-.9-5.9-1.729-9.005-2.626-.144-.042-1.055,4.608-1.2,4.567a6.646,6.646,0,0,1-.2-2.025h0l-.6-6.044a1.141,1.141,0,0,0-.854-1.066c-1.821-.473-5.754-1.4-5.926-1.111-.063.105-.4,5.352-.685,6.851l-.656-.342-.856-9.791s-6.8-1.714-6.936-1.4c-.157.371-1.67,8.677-1.67,8.677s-2.632,19.822-2.931,21.232c-.438,2.064-1.817,3.913-1.618,5.971a20.015,20.015,0,0,0,2.222,6.524l7.2,15.153c.524,3.428,1.073,11.282,1.862,14.657,8.876-1.791,17.792-3.147,27.671-6.291.28-.089-2.728-14.621-2.137-16.171" transform="translate(-867.23 -287.479)" fill="#eac5b0"/>
            <path id="Trazado_887163" data-name="Trazado 887163" d="M1149.043,643.149l-2.049-18.017,35.486-13.141,6.169,21.966-39.485,11.788Z" transform="translate(-890.941 -475.372)" fill="#f7f7f7"/>
            <path id="Trazado_887164" data-name="Trazado 887164" d="M1179.187,659.644s-36.5,20.858-44.047,22.833l-2.084,49.107h62.06Z" transform="translate(-880.114 -512.386)" fill="#01532a"/>
            <path id="Trazado_887165" data-name="Trazado 887165" d="M1166.93,694.86a2.023,2.023,0,1,1-1.437-2.474,2.023,2.023,0,0,1,1.437,2.474" transform="translate(-903.336 -537.766)" fill="#292949"/>
            <path id="Trazado_887166" data-name="Trazado 887166" d="M1066.44,472l-4.734-7.465-6.852-6.381s-1.332-3.847,2.962-3.953,7.183,3.483,9.084,6.333c.836,1.253,4.875,4.9,8.011,7.131,4.1,2.919-.184,15.77-.184,15.77s-7.813-10.722-8.289-11.434" transform="translate(-819.219 -352.804)" fill="#eac5b0"/>
          </g>
        </g>
      </g>
    </g>
  </g>
</svg>
