<svg xmlns="http://www.w3.org/2000/svg" xmlns:xlink="http://www.w3.org/1999/xlink" width="315.11" height="247" viewBox="0 0 315.11 247">
  <defs>
    <clipPath id="clip-path">
      <rect id="Rectángulo_403690" data-name="Rectángulo 403690" width="287.102" height="211.845" fill="none"/>
    </clipPath>
    <clipPath id="clip-path-2">
      <rect id="Rectángulo_403689" data-name="Rectángulo 403689" width="287.102" height="211.846" fill="none"/>
    </clipPath>
    <clipPath id="clip-path-3">
      <rect id="Rectángulo_403633" data-name="Rectángulo 403633" width="2.952" height="2.956" fill="none"/>
    </clipPath>
    <clipPath id="clip-path-4">
      <rect id="Rectángulo_403634" data-name="Rectángulo 403634" width="1.916" height="2.956" fill="none"/>
    </clipPath>
    <clipPath id="clip-path-5">
      <rect id="Rectángulo_403640" data-name="Rectángulo 403640" width="30.191" height="1.043" fill="none"/>
    </clipPath>
    <clipPath id="clip-path-6">
      <rect id="Rectángulo_403644" data-name="Rectángulo 403644" width="7.704" height="14.512" fill="none"/>
    </clipPath>
    <clipPath id="clip-path-7">
      <rect id="Rectángulo_403645" data-name="Rectángulo 403645" width="4.915" height="3.753" fill="none"/>
    </clipPath>
    <clipPath id="clip-path-8">
      <rect id="Rectángulo_403648" data-name="Rectángulo 403648" width="2.117" height="4.924" fill="none"/>
    </clipPath>
    <clipPath id="clip-path-10">
      <rect id="Rectángulo_403653" data-name="Rectángulo 403653" width="2.002" height="1.277" fill="none"/>
    </clipPath>
    <clipPath id="clip-path-11">
      <rect id="Rectángulo_403658" data-name="Rectángulo 403658" width="126.86" height="146.763" fill="none"/>
    </clipPath>
    <clipPath id="clip-path-12">
      <rect id="Rectángulo_403674" data-name="Rectángulo 403674" width="41.483" height="46.703" fill="none"/>
    </clipPath>
    <clipPath id="clip-path-13">
      <rect id="Rectángulo_403676" data-name="Rectángulo 403676" width="143.923" height="39.949" fill="none"/>
    </clipPath>
    <clipPath id="clip-path-14">
      <rect id="Rectángulo_403677" data-name="Rectángulo 403677" width="105.041" height="27.227" fill="none"/>
    </clipPath>
    <clipPath id="clip-path-15">
      <rect id="Rectángulo_403679" data-name="Rectángulo 403679" width="2.741" height="2.762" fill="none"/>
    </clipPath>
    <clipPath id="clip-path-16">
      <rect id="Rectángulo_403680" data-name="Rectángulo 403680" width="1.848" height="2.762" fill="none"/>
    </clipPath>
    <clipPath id="clip-path-17">
      <rect id="Rectángulo_403682" data-name="Rectángulo 403682" width="9.817" height="13.678" fill="#01532a"/>
    </clipPath>
    <clipPath id="clip-path-18">
      <rect id="Rectángulo_403685" data-name="Rectángulo 403685" width="14.031" height="7.183" fill="#01532a"/>
    </clipPath>
    <clipPath id="clip-path-19">
      <rect id="Rectángulo_403686" data-name="Rectángulo 403686" width="4.769" height="6.579" fill="none"/>
    </clipPath>
  </defs>
  <g id="Grupo_1100170" data-name="Grupo 1100170" transform="translate(-684.891 -3092)">
    <rect id="Rectángulo_401369" data-name="Rectángulo 401369" width="223" height="247" transform="translate(777 3092)" fill="#cce1d7"/>
    <g id="Grupo_1102590" data-name="Grupo 1102590" transform="translate(684.891 3109.578)">
      <g id="Grupo_1102589" data-name="Grupo 1102589" clip-path="url(#clip-path)">
        <g id="Grupo_1102588" data-name="Grupo 1102588" transform="translate(0 0)">
          <g id="Grupo_1102587" data-name="Grupo 1102587" clip-path="url(#clip-path-2)">
            <path id="Trazado_886914" data-name="Trazado 886914" d="M1135.521,312.421a7.29,7.29,0,0,0,3.841-6.282c.163-5.519-5.828-6.464-7.787-8.881a10.943,10.943,0,0,1-1.365-2.07.3.3,0,0,0-.569.092,9.109,9.109,0,0,0-.1,2.255c.175,1.036.231,1.2.231,1.2a29.977,29.977,0,0,1-1.716-2.614,4.919,4.919,0,0,1-.673-1.744.3.3,0,0,0-.572-.082,6.755,6.755,0,0,0-.925,3.917l.119,1.66a2.312,2.312,0,0,1-1.284-.779.3.3,0,0,0-.539.206,10.277,10.277,0,0,0,1.569,4.193c1.812,2.953,9.766,8.926,9.766,8.926" transform="translate(-946.162 -247.548)" fill="#2e2f4d"/>
            <path id="Trazado_886915" data-name="Trazado 886915" d="M1150.035,390.135a1.593,1.593,0,0,0-.438,2.388l.036.043c.8.952,2.608,2.315,6.221,1.2a8.546,8.546,0,0,0,2.882-1.5,1.589,1.589,0,0,0-.2-2.628,2,2,0,0,1-.914-.939,38.537,38.537,0,0,1-.19-6.407c.031-.658.119-1.973.119-1.973l-6.014,3.318s.083,1.613.13,2.922c.027.776.019,1.443.017,1.607-.009.8-.846,1.492-1.646,1.971" transform="translate(-967.246 -320.091)" fill="#f6a49d"/>
            <path id="Trazado_886916" data-name="Trazado 886916" d="M1188.259,377.123c.239.535,1.4.557,2.586.05s1.9-1.315,1.721-1.887c-.235-.759-1.4-.557-2.586-.05s-1.96,1.352-1.721,1.887" transform="translate(-1000.053 -315.434)" fill="#d47c74"/>
            <path id="Trazado_886917" data-name="Trazado 886917" d="M1163.746,387.631s.084,1.613.13,2.922a3.228,3.228,0,0,0,1.271.188c3.174-.286,4.445-5.676,4.445-5.676Z" transform="translate(-979.458 -324.087)" fill="#d47c74"/>
            <path id="Trazado_886918" data-name="Trazado 886918" d="M1151.193,345.526c-.022.175-.048.352-.078.529-.72,4.177-3.507,7.222-6.225,6.8a4.5,4.5,0,0,1-3.32-3.328c-.032-.093-.062-.187-.09-.283s-.05-.171-.072-.258a8.472,8.472,0,0,1-.19-.917q-.05-.313-.079-.639-.034-.372-.039-.758a11.51,11.51,0,0,1,.167-2.15c.027-.157.061-.332.1-.518.016-.077.032-.156.051-.237q.017-.077.035-.156l.008-.033a15.16,15.16,0,0,1,.646-2.184,6.9,6.9,0,0,0,2.39-.089c2.183-.27,4.577-.507,5.773,1.327.512.785.73,2.7.924,2.894" transform="translate(-960.397 -287.101)" fill="#f6a49d"/>
            <path id="Trazado_886919" data-name="Trazado 886919" d="M1159.854,374.321l-.352-.072c-.238-.049-.4-.247-.344-.427l.406-1.355a.368.368,0,0,1,.447-.2.4.4,0,0,1,.353.365l-.054,1.428c-.007.189-.219.311-.457.262" transform="translate(-975.589 -313.305)" fill="#d47c74"/>
            <path id="Trazado_886920" data-name="Trazado 886920" d="M1180.885,366.418c-.038.287-.243.5-.459.472a.467.467,0,0,1-.322-.567c.038-.287.243-.5.458-.472a.467.467,0,0,1,.322.567" transform="translate(-993.221 -307.914)" fill="#4f1d30"/>
            <path id="Trazado_886921" data-name="Trazado 886921" d="M1175.73,356.409a.675.675,0,0,1,.085-.121,1.385,1.385,0,0,1,.289-.26,1.544,1.544,0,0,1,.228-.13,1.775,1.775,0,0,1,.278-.1,1.763,1.763,0,0,1,.65-.042,1.935,1.935,0,0,1,.324.074,2.732,2.732,0,0,1,.291.13c.087.054.166.113.24.168a1.677,1.677,0,0,1,.183.182.933.933,0,0,1,.131.171c.035.054.061.1.083.144a1.241,1.241,0,0,1,.062.13s-.053-.017-.136-.051c-.041-.018-.092-.037-.145-.064a1.828,1.828,0,0,0-.184-.075c-.067-.024-.133-.061-.208-.085s-.151-.052-.228-.08-.16-.043-.241-.064-.164-.039-.249-.042a1.982,1.982,0,0,0-.251-.022c-.084-.008-.167,0-.249,0s-.163.009-.24.018-.153.016-.222.029c-.141.019-.262.044-.35.062l-.141.03" transform="translate(-989.545 -299.405)" fill="#2e2f4d"/>
            <path id="Trazado_886922" data-name="Trazado 886922" d="M1148.167,364.01c-.019.289-.211.512-.428.5a.469.469,0,0,1-.358-.546c.019-.289.211-.512.428-.5a.47.47,0,0,1,.358.547" transform="translate(-965.684 -305.905)" fill="#4f1d30"/>
            <path id="Trazado_886923" data-name="Trazado 886923" d="M1142.426,354.044a.688.688,0,0,1,.077-.126,1.386,1.386,0,0,1,.272-.277,1.519,1.519,0,0,1,.219-.144,1.768,1.768,0,0,1,.271-.118,1.765,1.765,0,0,1,.646-.081,1.938,1.938,0,0,1,.328.055,2.73,2.73,0,0,1,.3.112c.09.048.173.1.25.153a1.682,1.682,0,0,1,.195.171.951.951,0,0,1,.142.163c.039.051.068.1.093.139a1.24,1.24,0,0,1,.07.127s-.054-.013-.139-.043c-.042-.015-.094-.032-.149-.055a1.871,1.871,0,0,0-.188-.064c-.069-.02-.137-.053-.213-.072s-.154-.042-.233-.066-.163-.033-.245-.049-.166-.029-.251-.027a1.976,1.976,0,0,0-.252-.007c-.084,0-.167.01-.249.013s-.162.019-.239.032-.152.026-.22.042c-.14.028-.259.06-.345.082l-.139.038" transform="translate(-961.515 -297.348)" fill="#2e2f4d"/>
            <g id="Grupo_1102538" data-name="Grupo 1102538" transform="translate(186.074 59.371)" opacity="0.5">
              <g id="Grupo_1102537" data-name="Grupo 1102537">
                <g id="Grupo_1102536" data-name="Grupo 1102536" clip-path="url(#clip-path-3)">
                  <path id="Trazado_886924" data-name="Trazado 886924" d="M1177.98,376.428a1.484,1.484,0,0,1-1.518,1.44,1.469,1.469,0,0,1-1.432-1.515,1.484,1.484,0,0,1,1.518-1.44,1.469,1.469,0,0,1,1.432,1.515" transform="translate(-1175.029 -374.913)" fill="#d47c74"/>
                </g>
              </g>
            </g>
            <g id="Grupo_1102541" data-name="Grupo 1102541" transform="translate(180.733 59.189)" opacity="0.5">
              <g id="Grupo_1102540" data-name="Grupo 1102540">
                <g id="Grupo_1102539" data-name="Grupo 1102539" clip-path="url(#clip-path-4)">
                  <path id="Trazado_886925" data-name="Trazado 886925" d="M1143.217,375.284a1.484,1.484,0,0,1-1.518,1.44l-.049,0q-.038-.127-.072-.258a8.483,8.483,0,0,1-.19-.917q-.05-.313-.078-.639a10.055,10.055,0,0,1,.014-1.077,1.444,1.444,0,0,1,.463-.062,1.468,1.468,0,0,1,1.431,1.515" transform="translate(-1141.301 -373.768)" fill="#d47c74"/>
                </g>
              </g>
            </g>
            <path id="Trazado_886926" data-name="Trazado 886926" d="M1153.542,395.1a6.37,6.37,0,0,0,3.892.146s-.8,1.615-2.24,1.56-1.652-1.706-1.652-1.706" transform="translate(-970.87 -332.536)" fill="#fff"/>
            <path id="Trazado_886927" data-name="Trazado 886927" d="M1153.5,334.5s-.82,2.031-1.836,2.331-.525-1.46-.615-2.936-1.149-2.229-3.538-1.339a4.908,4.908,0,0,1-4.436-.728s-.4-2.729-.353-2.76,6.975-.132,7.05-.117l.029.008a5.148,5.148,0,0,1,3.714,5.342Z" transform="translate(-961.764 -276.858)" fill="#2e2f4d"/>
            <path id="Trazado_886928" data-name="Trazado 886928" d="M1123.329,462.941c-.019.442.094,2.538,2.78,2.617.779.023,1.7.053,2.7.079l5.129.151c1.422.038,2.836.079,4.134.117.692.019,1.35.038,1.959.057,2.076.057,3.7-.692,3.616-1.865-.242-3.2-1.275-27.08-1.282-27.08-.306-.106-2.114-.654-3.722-1.135-.911-.272-1.759-.526-2.228-.669-.193-.057-.322-.095-.367-.11l-.182-.053-.015.011-.068.053a5.593,5.593,0,0,1-2.568,1.248,4.511,4.511,0,0,1-.813.064,4.218,4.218,0,0,1-.889-.1,4.338,4.338,0,0,1-.628-.178,6.16,6.16,0,0,1-1.381-.715c-.075-.053-.151-.106-.227-.163l-1.225.352-2.614.753-2.209.632c-.027-.136.454,11.834.378,14.259,0,.11-.28,11.581-.284,11.676" transform="translate(-945.361 -366.157)" fill="#fcded3"/>
            <path id="Trazado_886929" data-name="Trazado 886929" d="M1062.455,459c-.047.535-.1,1.069-.147,1.593a13.181,13.181,0,0,1-.38,3.179c-.036.09-1.939,2.213-1.939,2.213s-.511.545-1.255,1.2q-.066.062-.14.124a.3.3,0,0,1-.028.026c-.191.163-.4.336-.612.506a10.757,10.757,0,0,1-1.761,1.162,4.175,4.175,0,0,1-1,.377,6.436,6.436,0,0,1-1.356.155,5.044,5.044,0,0,1-.746-.044l-.072-.031h0a10.329,10.329,0,0,1-1.5-.819,38.3,38.3,0,0,1,1.8-5.6c.008-.013.132-.188.344-.488l.248-.346c.181-.256.4-.56.651-.9,1.963-2.717,5.746-7.845,7.535-9.751.431-.46.684,3.566.351,7.442" transform="translate(-885.008 -380.019)" fill="#d47c74"/>
            <path id="Trazado_886930" data-name="Trazado 886930" d="M979.234,474.09l.106.134,0,0v0c.093.11.233.285.422.515.014.014.028.031.045.051.857,1.036,2.572,3.073,4.472,5.1.717.772,1.464,1.557,2.222,2.318a37.552,37.552,0,0,0,4.125,3.237l.017.01a.208.208,0,0,0,.034.024,10.31,10.31,0,0,0,1.5.82h0a4.572,4.572,0,0,0,1.152.031,6.3,6.3,0,0,0,1.33-.291,4.22,4.22,0,0,0,.957-.477,2.835,2.835,0,0,0,.055-.34c.013-.1.021-.192.027-.291.007-.12.01-.24.007-.357a5.073,5.073,0,0,0-.4-1.893c-.062-.141-.124-.281-.2-.425a4.619,4.619,0,0,0-.213-.412c-.079-.151-.164-.3-.257-.449-.079-.127-.168-.257-.253-.388-.065-.086-.13-.175-.2-.257a1.91,1.91,0,0,0-.185-.226,1.781,1.781,0,0,0-.148-.175,9.9,9.9,0,0,0-.72-.686c-.01-.007-.017-.014-.027-.021-.055-.051-.117-.1-.175-.154-.038-.031-.072-.062-.11-.1-.069-.055-.137-.113-.209-.171-.24-.2-.5-.415-.785-.641-.024-.021-.041-.034-.065-.052-.062-.044-.12-.092-.182-.144-.538-.429-1.149-.892-1.776-1.372a.224.224,0,0,1-.048-.031c-2.874-2.167-6.29-4.561-7.284-5.254-.072-.055-.134-.1-.178-.127h0a1.2,1.2,0,0,0-.1-.069c0-.007,0-.007,0-.007l-.021.017-2.02,1.749Z" transform="translate(-824.165 -396.861)" fill="#d47c74"/>
            <path id="Trazado_886931" data-name="Trazado 886931" d="M1075.178,459.19c-.047.535-.1,1.069-.147,1.593a13.175,13.175,0,0,1-.38,3.179c-.036.09-1.939,2.213-1.939,2.213s-.511.545-1.255,1.2l-4.816-4.976c.181-.256.4-.56.651-.9,1.963-2.717,5.746-7.845,7.535-9.751Z" transform="translate(-897.731 -380.21)" fill="#d47c74"/>
            <path id="Trazado_886932" data-name="Trazado 886932" d="M1075.7,447.363a5.329,5.329,0,0,0-1.936,1.569c-.654.85-7.016,8.565-7.016,8.565l6.51,6.725,3.2-2.972Z" transform="translate(-897.822 -376.519)" fill="#fcded3"/>
            <path id="Trazado_886933" data-name="Trazado 886933" d="M1213.823,847.951a2.628,2.628,0,0,0-.016-.723l-.047-.319-.243-1.537-.041-.278-5.23-25.647-.114-.7h.006c.145-.038,4.7-1.1,7.118.631a3.4,3.4,0,0,1,1.073,1.247s0,.01.006.016a4.109,4.109,0,0,1,.4,1.676c0,.092.006.18.006.275,0,3.737.08,18.5,1.308,23.432a.029.029,0,0,1,0,.016,12.809,12.809,0,0,1,.267,2.014,10.436,10.436,0,0,0,.151,1.215c.044.284.082.53.085.663,0,.032,0,.063,0,.095.006.366.006.565.006.565l-5.859-.429.606-.852a2.767,2.767,0,0,0,.41-.84v0a1.966,1.966,0,0,0,.069-.3l0-.009.019-.12a.832.832,0,0,0,.01-.088" transform="translate(-1016.816 -688.792)" fill="#f6a49d"/>
            <path id="Trazado_886934" data-name="Trazado 886934" d="M1213.823,847.951a2.722,2.722,0,0,0-.145-1.111l-5.432-27.393-.114-.7h.006c.145-.038,4.7-1.1,7.118.631a3.4,3.4,0,0,1,1.073,1.247s0,.01.006.016c.047.129.189.729.4,1.676,1.076,4.839.266,18.583,1.314,23.707a.029.029,0,0,1,0,.016,12.809,12.809,0,0,1,.267,2.014l-4.526.114,0-.009a.818.818,0,0,0,.019-.12.832.832,0,0,0,.01-.088" transform="translate(-1016.816 -688.792)" fill="#d47c74"/>
            <path id="Trazado_886935" data-name="Trazado 886935" d="M1184.37,1013.719v.352a.542.542,0,0,1-.034.155.644.644,0,0,1-.064.087.345.345,0,0,1-.034.046v0a.493.493,0,0,1-.057.038h-5.533s0,0-.008,0-.026-.023-.045-.034a.426.426,0,0,1-.114-.147.4.4,0,0,1-.03-.147l0,0,0-.061-.008-.215,0-.015-2.193.019v.015l0,.14v.114a.4.4,0,0,1-.189.34h-8.937a.034.034,0,0,0,0-.019,2.977,2.977,0,0,1,.057-.488.761.761,0,0,1,.019-.091,3.139,3.139,0,0,1,.911-1.532c.28-.261,4.641-2.364,7.75-3.858l1.747-1.154a2.1,2.1,0,0,0,.825-1.331.388.388,0,0,1,.764.053l.091.934h.034l2.076-.023,2.614-.034h.026a31.967,31.967,0,0,1,.318,4.417Z" transform="translate(-982.307 -846.38)" fill="#615370"/>
            <path id="Trazado_886936" data-name="Trazado 886936" d="M1176.258,1057.406v.114a.412.412,0,0,1-.125.291.457.457,0,0,1-.064.049h-8.937a.034.034,0,0,0,0-.019,2.965,2.965,0,0,1,.057-.488c1.853-.015,5.518-.049,9.062-.087Z" transform="translate(-982.308 -889.84)" fill="#463b54"/>
            <path id="Trazado_886937" data-name="Trazado 886937" d="M1244.494,1056.716v.352a.535.535,0,0,1-.034.155.64.64,0,0,1-.064.087.344.344,0,0,1-.034.045v0a.508.508,0,0,1-.057.038h-5.533s0,0-.008,0-.026-.023-.045-.034a.426.426,0,0,1-.113-.147.4.4,0,0,1-.03-.147l0,0,0-.06-.008-.216c2.534-.026,4.777-.053,5.927-.068" transform="translate(-1042.431 -889.377)" fill="#463b54"/>
            <path id="Trazado_886938" data-name="Trazado 886938" d="M1118.334,847.224a2.717,2.717,0,0,1-.015.942,2.744,2.744,0,0,1-.48,1.142l-.6.851,5.859.431s0-.2-.008-.567c0-.03,0-.06,0-.095-.008-.325-.223-1.343-.235-1.876,0-.11,0-.223,0-.34,0-.276-.008-.567-.008-.874,0-.087,0-.174-.007-.265-.053-6.1,2.229-19.512,2.229-23.983a4.326,4.326,0,0,0-.412-1.967,3.4,3.4,0,0,0-1.074-1.248c-2.42-1.736-6.97-.669-7.118-.632h0l.114.7,1.44,25.647.042.276.242,1.539Z" transform="translate(-939.65 -688.788)" fill="#f6a49d"/>
            <path id="Trazado_886939" data-name="Trazado 886939" d="M1116.447,818.744l.114.7,1.44,25.647.042.276.242,1.539.049.318a2.717,2.717,0,0,1-.015.942l4.527-.113c0-.11,0-.223,0-.34,0-.276-.008-.567-.008-.874,0-.087,0-.174-.008-.265-.053-6.1,2.229-19.512,2.229-23.983a4.326,4.326,0,0,0-.412-1.967,3.4,3.4,0,0,0-1.074-1.248c-2.421-1.736-6.971-.669-7.118-.632Z" transform="translate(-939.65 -688.788)" fill="#d47c74"/>
            <path id="Trazado_886940" data-name="Trazado 886940" d="M1127.891,630.776l-1.824,5.9v0l0,.013v0l-2.541,13.674-.4,26.516H1114.5l-.565-27.119c-.031-.489.784-23.032.784-23.032l.718-8.619.051-.01.42-.076,2.743-.48h.009l7.03.038.17.9.171.893,1.285,6.761.082.429Z" transform="translate(-937.538 -519.759)" fill="#923615"/>
            <path id="Trazado_886941" data-name="Trazado 886941" d="M1172.651,677.224H1163.7l-3.917-24.681c-.41-1.622-1.619-15.265-1.641-15.509v-.019l-.937-5.114-2.15-1.926-1.923-2.92-.1-.653-.982-6.559,1.477-.253,4.413-.761,5.095-.877,3.45.019a9.124,9.124,0,0,1,.909,1.143,12.552,12.552,0,0,1,1.781,4.075c.073.287.142.575.2.868.126.593.224,1.2.306,1.815l.1.811c0,.019,0,.035.006.054.328,2.958.054,18.857.095,19.789Z" transform="translate(-969.621 -520.094)" fill="#923615"/>
            <path id="Trazado_886942" data-name="Trazado 886942" d="M1068.756,1013.719v.352a.542.542,0,0,1-.034.155.632.632,0,0,1-.064.087.366.366,0,0,1-.034.046v0a.516.516,0,0,1-.057.038h-5.533s0,0-.008,0-.026-.023-.045-.034a.428.428,0,0,1-.114-.147.4.4,0,0,1-.03-.147l0,0,0-.061-.008-.215,0-.015-2.194.019v.015l0,.14v.114a.4.4,0,0,1-.189.34h-8.937a.034.034,0,0,0,0-.019,2.99,2.99,0,0,1,.057-.488.761.761,0,0,1,.019-.091,3.139,3.139,0,0,1,.911-1.532c.28-.261,4.641-2.364,7.75-3.858l1.747-1.154a2.1,2.1,0,0,0,.824-1.331.388.388,0,0,1,.764.053l.091.934h.034l2.076-.023,2.614-.034h.026a31.967,31.967,0,0,1,.318,4.417Z" transform="translate(-885.002 -846.38)" fill="#615370"/>
            <path id="Trazado_886943" data-name="Trazado 886943" d="M1060.644,1057.406v.114a.412.412,0,0,1-.125.291.459.459,0,0,1-.064.049h-8.937a.035.035,0,0,0,0-.019,2.978,2.978,0,0,1,.057-.488c1.853-.015,5.518-.049,9.062-.087Z" transform="translate(-885.003 -889.84)" fill="#463b54"/>
            <path id="Trazado_886944" data-name="Trazado 886944" d="M1128.88,1056.716v.352a.547.547,0,0,1-.034.155.641.641,0,0,1-.064.087.355.355,0,0,1-.034.045v0a.508.508,0,0,1-.057.038h-5.533s0,0-.008,0-.026-.023-.045-.034a.425.425,0,0,1-.114-.147.4.4,0,0,1-.03-.147l0,0,0-.06-.008-.216c2.534-.026,4.777-.053,5.927-.068" transform="translate(-945.125 -889.377)" fill="#463b54"/>
            <path id="Trazado_886945" data-name="Trazado 886945" d="M1119.147,627.013l6.291-.371,6.346-.144,10.306-.231-.1-.809-.491-4-.3-2.394-.185-1.5h-.3l-.518,0-1.414-.008-3.45-.019-5.265-.026-7.031-.038h-.008l-2.8-.011-.318,0h-.106Z" transform="translate(-941.922 -519.68)" fill="#923615"/>
            <path id="Trazado_886946" data-name="Trazado 886946" d="M1156.171,705.541l.946-3.215-7.47-2.931Z" transform="translate(-967.592 -588.64)" fill="#524660"/>
            <path id="Trazado_886947" data-name="Trazado 886947" d="M1159.763,643.034l-1.682-4.547-2.291-1.336-1.665-8.193.556-.113,1.614,7.944,2.247,1.311,1.753,4.737Z" transform="translate(-971.361 -529.262)" fill="#524660"/>
            <rect id="Rectángulo_403635" data-name="Rectángulo 403635" width="0.567" height="8.604" transform="matrix(0.982, -0.19, 0.19, 0.982, 185.348, 99.567)" fill="#524660"/>
            <path id="Trazado_886948" data-name="Trazado 886948" d="M1229.027,637.636c-.055-.017-5.482-1.727-6.062-7.365l.564-.058c.542,5.267,5.612,6.865,5.663,6.88Z" transform="translate(-1029.3 -530.414)" fill="#524660"/>
            <path id="Trazado_886949" data-name="Trazado 886949" d="M1119.325,637.8l-.154-.546c3-.844,2.915-6.628,2.914-6.687l.567-.012c.005.256.092,6.282-3.327,7.245" transform="translate(-941.942 -530.703)" fill="#524660"/>
            <path id="Trazado_886950" data-name="Trazado 886950" d="M1121.789,627.6h21.5l.3,2.4h-21.964Z" transform="translate(-944.002 -528.214)" fill="#524660"/>
            <rect id="Rectángulo_403636" data-name="Rectángulo 403636" width="2.175" height="3.215" transform="translate(191.93 98.977)" fill="#615370"/>
            <rect id="Rectángulo_403637" data-name="Rectángulo 403637" width="2.175" height="3.215" transform="translate(180.584 98.977)" fill="#615370"/>
            <path id="Trazado_886951" data-name="Trazado 886951" d="M1164.937,628.572h-3.128a.753.753,0,0,1-.752-.752v-1.552a.753.753,0,0,1,.752-.753h3.128a.753.753,0,0,1,.752.753v1.552a.753.753,0,0,1-.752.752m-3.128-2.49a.186.186,0,0,0-.185.185v1.552a.185.185,0,0,0,.185.185h3.128a.185.185,0,0,0,.185-.185v-1.552a.185.185,0,0,0-.185-.185Z" transform="translate(-977.194 -526.46)" fill="#f8cd9e"/>
            <path id="Trazado_886952" data-name="Trazado 886952" d="M1174.781,633.91h1.9v-.583h-1.9a.292.292,0,0,0,0,.583" transform="translate(-988.501 -533.035)" fill="#f8cd9e"/>
            <path id="Trazado_886953" data-name="Trazado 886953" d="M1132.459,451.646l2.984-2.878.378-10.11-2.614.753Z" transform="translate(-953.126 -369.193)" fill="#923615"/>
            <path id="Trazado_886954" data-name="Trazado 886954" d="M1196.4,449.888l2.315,3.094,1.513-16.233c-.911-.272-1.759-.526-2.228-.669Z" transform="translate(-1006.937 -367.022)" fill="#923615"/>
            <path id="Trazado_886955" data-name="Trazado 886955" d="M1123.041,511.535l8.4.425,12.857-.93-5.53-2.1-1.244-14.826v-.019a3.185,3.185,0,0,0-.053-.378,3.384,3.384,0,0,0-3.3-2.772l-6.123-.064a3.4,3.4,0,0,0-3.381,2.837,3.234,3.234,0,0,0-.038.337l0,.042-.963,14.821-.465.733Z" transform="translate(-945.199 -413.141)" fill="#923615"/>
            <path id="Trazado_886956" data-name="Trazado 886956" d="M1133.056,509.167h12.9a3.089,3.089,0,0,0-.053-.378h-12.8a3.2,3.2,0,0,0-.038.337Z" transform="translate(-953.628 -428.218)" fill="#524660"/>
            <path id="Trazado_886957" data-name="Trazado 886957" d="M1193.631,497.293a.5.5,0,1,0,.5-.5.5.5,0,0,0-.5.5" transform="translate(-1004.611 -418.125)" fill="#524660"/>
            <path id="Trazado_886958" data-name="Trazado 886958" d="M1147.655,497.293a.5.5,0,1,0,.5-.5.5.5,0,0,0-.5.5" transform="translate(-965.916 -418.125)" fill="#524660"/>
            <path id="Trazado_886959" data-name="Trazado 886959" d="M1147.308,528.321a4.83,4.83,0,0,1-4.824-4.824v-3.558h9.648V523.5a4.83,4.83,0,0,1-4.824,4.824m-4.3-7.858V523.5a4.3,4.3,0,1,0,8.6,0v-3.034Z" transform="translate(-961.563 -437.602)" fill="#524660"/>
            <path id="Trazado_886960" data-name="Trazado 886960" d="M1156.628,759.078h-.567l.006-26.823.007-.031,3.779-16.641.553.126-3.772,16.61Z" transform="translate(-972.99 -602.265)" fill="#524660"/>
            <path id="Trazado_886961" data-name="Trazado 886961" d="M1251.061,722.791l-2.692-29.009.372-21.72.567.01-.374,21.689,2.691,28.978Z" transform="translate(-1050.681 -565.636)" fill="#524660"/>
            <path id="Trazado_886962" data-name="Trazado 886962" d="M1203.333,799.812c-.028-.13-.063-.256-.1-.382a4.975,4.975,0,0,0-.284-.723,4.123,4.123,0,0,0-2.724-2.345,2.725,2.725,0,0,0-2.3.537l0,.666a2.245,2.245,0,0,1,2.2-.739,3.565,3.565,0,0,1,2.3,1.91,4.387,4.387,0,0,1,.347.83c.022.076.044.155.063.23a4.2,4.2,0,0,1-.114,2.535,2.542,2.542,0,0,1-1.6,1.594,2.119,2.119,0,0,1-.675.1h-.029a2.43,2.43,0,0,1-.445-.054,2.7,2.7,0,0,1-.552-.183,3.2,3.2,0,0,1-.855-.562l.262.777a3.01,3.01,0,0,0,.83.372c.069.022.145.044.218.06a2.749,2.749,0,0,0,.66.06.053.053,0,0,0,.031,0,2.64,2.64,0,0,0,.7-.114,3.007,3.007,0,0,0,1.9-1.878,4.634,4.634,0,0,0,.161-2.689" transform="translate(-1008.223 -670.199)" fill="#524660"/>
            <path id="Trazado_886963" data-name="Trazado 886963" d="M1116.075,803.137a2.532,2.532,0,0,1-.507-.227l.064.571a2.727,2.727,0,0,0,.515.166,2.8,2.8,0,0,0,.594.064h.072a3.011,3.011,0,0,0,2.333-1.3,4.725,4.725,0,0,0,.874-2.946c0-.121-.011-.238-.023-.356-.2-2.11-1.611-3.714-3.339-3.714h-.072a2.694,2.694,0,0,0-1.169.3l-.064.59a2.31,2.31,0,0,1,1.244-.416h.061c1.43,0,2.647,1.4,2.855,3.2.015.136.026.276.03.416a4.246,4.246,0,0,1-.779,2.651,2.552,2.552,0,0,1-1.963,1.112h-.061a2.166,2.166,0,0,1-.666-.1" transform="translate(-938.729 -669.435)" fill="#524660"/>
            <path id="Trazado_886964" data-name="Trazado 886964" d="M927.857,445.5s-.758-.283-.491-.8c.245-.476,1.166-.426,1.166-.426s.063-.49.783-.621c.766-.141,4.189.713,4.7.331s-.729-.775-1.164-1.194a3.109,3.109,0,0,1-.649-1.2,17.108,17.108,0,0,1,3.569,1.885,29.939,29.939,0,0,1,3.534,3.663l.2.234-2.435,2.49s-.166-.106-.429-.256h0a6.817,6.817,0,0,0-2.37-.911,28.493,28.493,0,0,1-5.272-1.03,1.39,1.39,0,0,1-.334-.757,1.776,1.776,0,0,1-.782-.444c-.226-.283-.025-.968-.025-.968" transform="translate(-780.463 -371.66)" fill="#d47c74"/>
            <rect id="Rectángulo_403638" data-name="Rectángulo 403638" width="30.19" height="2.424" transform="translate(173.983 107.912)" fill="#f8cd9e"/>
            <g id="Grupo_1102544" data-name="Grupo 1102544" transform="translate(173.982 109.292)" opacity="0.5">
              <g id="Grupo_1102543" data-name="Grupo 1102543">
                <g id="Grupo_1102542" data-name="Grupo 1102542" clip-path="url(#clip-path-5)">
                  <rect id="Rectángulo_403639" data-name="Rectángulo 403639" width="30.19" height="1.043" transform="translate(0.001 0)" fill="#fb9d7e"/>
                </g>
              </g>
            </g>
            <rect id="Rectángulo_403641" data-name="Rectángulo 403641" width="32.329" height="11.39" transform="translate(173.628 113.924)" fill="#fb9d7e"/>
            <rect id="Rectángulo_403642" data-name="Rectángulo 403642" width="7.845" height="1.388" transform="matrix(0.434, -0.901, 0.901, 0.434, 199.251, 111.653)" fill="#f8cd9e"/>
            <path id="Trazado_886965" data-name="Trazado 886965" d="M1237.351,702.414h0l1.522.734h0l3.743-8.108.012-.025-.182-.561a.422.422,0,0,0-.176-.23l-.011-.006h0l-.012-.006-.013-.005-.014-.005a.423.423,0,0,0-.289.005l-.552.207h0l-.011.023Z" transform="translate(-1041.407 -584.248)" fill="#f77c7c"/>
            <path id="Trazado_886966" data-name="Trazado 886966" d="M1235.9,746.361l1.764.85v-.005l-.011-.278-1.524-.735-.225.165Z" transform="translate(-1040.188 -628.028)" fill="#524660"/>
            <path id="Trazado_886967" data-name="Trazado 886967" d="M1235.26,747.229l-.111.231a.117.117,0,0,0,.054.155l1.555.749a.116.116,0,0,0,.155-.054l.112-.231Z" transform="translate(-1039.544 -628.899)" fill="#e96362"/>
            <path id="Trazado_886968" data-name="Trazado 886968" d="M1264.52,697.389a.255.255,0,1,0,.34-.119.254.254,0,0,0-.34.119" transform="translate(-1064.253 -586.831)" fill="#615370"/>
            <path id="Trazado_886969" data-name="Trazado 886969" d="M1261.761,703.115a.255.255,0,1,0,.34-.119.255.255,0,0,0-.34.119" transform="translate(-1061.931 -591.65)" fill="#615370"/>
            <path id="Trazado_886970" data-name="Trazado 886970" d="M1259,708.841a.255.255,0,1,0,.34-.119.255.255,0,0,0-.34.119" transform="translate(-1059.608 -596.47)" fill="#615370"/>
            <path id="Trazado_886971" data-name="Trazado 886971" d="M1256.24,714.568a.255.255,0,1,0,.34-.119.255.255,0,0,0-.34.119" transform="translate(-1057.284 -601.289)" fill="#615370"/>
            <rect id="Rectángulo_403643" data-name="Rectángulo 403643" width="0.509" height="1.388" transform="translate(202.436 105.045) rotate(-64.264)" fill="#f77c7c"/>
            <g id="Grupo_1102547" data-name="Grupo 1102547" transform="translate(195.593 104.587)" opacity="0.5" style="mix-blend-mode: multiply;isolation: isolate">
              <g id="Grupo_1102546" data-name="Grupo 1102546">
                <g id="Grupo_1102545" data-name="Grupo 1102545" clip-path="url(#clip-path-6)">
                  <path id="Trazado_886972" data-name="Trazado 886972" d="M1235.26,674.186l-.111.231a.117.117,0,0,0,.054.155l.792.382,6.847-14.2-.639-.308-2.688,5.577h0l-.011.023-4.014,7.979h0l-.225.165Z" transform="translate(-1235.138 -660.443)" fill="#fb9d7e"/>
                </g>
              </g>
            </g>
            <path id="Trazado_886973" data-name="Trazado 886973" d="M1271.888,642.548a5.83,5.83,0,0,0-4.173-4.378.115.115,0,0,0-.115.025c-.091.083-.331.224-.795.013s-.508-.483-.5-.611a.115.115,0,0,0-.065-.108l-.832-.4a.127.127,0,0,0-.115,0,.125.125,0,0,0-.053.055l-.748,1.5a.16.16,0,0,0,.078.217l.859.384a.117.117,0,0,0,.11-.007.8.8,0,0,1,.771-.033.772.772,0,0,1,.492.648l-.132.661a.258.258,0,0,0,.144.285l1.341.624a.258.258,0,0,0,.167.018l.021,0a.26.26,0,0,0,.141-.086l.453-.544s.773-.537,2.765,1.825a.108.108,0,0,0,.19-.087" transform="translate(-1064.233 -536.189)" fill="#615370"/>
            <path id="Trazado_886974" data-name="Trazado 886974" d="M1264.488,646a.16.16,0,0,0,.074.216l0,0,.859.384a.117.117,0,0,0,.11-.007.8.8,0,0,1,.771-.033.772.772,0,0,1,.492.648l-.132.662a.258.258,0,0,0,.141.283l0,0,1.341.624a.258.258,0,0,0,.167.018l.021,0a.258.258,0,0,0,.141-.086l.453-.544s.773-.537,2.765,1.825a.108.108,0,0,0,.19-.087c0-.026-.01-.058-.017-.095a.108.108,0,0,1-.068-.037c-1.992-2.363-2.765-1.825-2.765-1.825l-.453.544a.26.26,0,0,1-.141.086l-.021,0a.258.258,0,0,1-.167-.018l-1.341-.624,0,0a.258.258,0,0,1-.141-.283l.132-.662a.773.773,0,0,0-.493-.648.8.8,0,0,0-.771.033.116.116,0,0,1-.109.007l-.859-.384,0,0a.16.16,0,0,1-.086-.186Z" transform="translate(-1064.233 -543.54)" fill="#524660"/>
            <g id="Grupo_1102550" data-name="Grupo 1102550" transform="translate(200.456 101.082)" opacity="0.5">
              <g id="Grupo_1102549" data-name="Grupo 1102549">
                <g id="Grupo_1102548" data-name="Grupo 1102548" clip-path="url(#clip-path-7)">
                  <path id="Trazado_886975" data-name="Trazado 886975" d="M1280.5,647.034l.051-.533a2.889,2.889,0,0,1,.25-.93l.151-.33a.226.226,0,0,1,.3-.11l1.71.825a.227.227,0,0,1,.1.306l-.164.324a2.892,2.892,0,0,1-.571.775l-.385.372a.185.185,0,0,1-.21.034l-1.137-.548a.186.186,0,0,1-.1-.185" transform="translate(-1278.176 -644.033)" fill="#524660"/>
                  <path id="Trazado_886976" data-name="Trazado 886976" d="M1265.935,639.615l.683.329a.148.148,0,0,0,.2-.069l.492-1.021a.148.148,0,0,0-.069-.2l-.683-.329a.147.147,0,0,0-.2.069l-.493,1.021a.148.148,0,0,0,.069.2" transform="translate(-1265.851 -638.313)" fill="#524660"/>
                </g>
              </g>
            </g>
            <rect id="Rectángulo_403646" data-name="Rectángulo 403646" width="2.117" height="11.597" transform="translate(173.615 105.58)" fill="#f8cd9e"/>
            <g id="Grupo_1102553" data-name="Grupo 1102553" transform="translate(173.615 112.253)" opacity="0.5">
              <g id="Grupo_1102552" data-name="Grupo 1102552">
                <g id="Grupo_1102551" data-name="Grupo 1102551" clip-path="url(#clip-path-8)">
                  <rect id="Rectángulo_403647" data-name="Rectángulo 403647" width="2.117" height="4.924" transform="translate(0)" fill="#fb9d7e"/>
                </g>
              </g>
            </g>
            <rect id="Rectángulo_403649" data-name="Rectángulo 403649" width="2.117" height="11.597" transform="translate(203.839 105.58)" fill="#f8cd9e"/>
            <g id="Grupo_1102556" data-name="Grupo 1102556" transform="translate(203.839 112.253)" opacity="0.5">
              <g id="Grupo_1102555" data-name="Grupo 1102555">
                <g id="Grupo_1102554" data-name="Grupo 1102554" clip-path="url(#clip-path-8)">
                  <rect id="Rectángulo_403650" data-name="Rectángulo 403650" width="2.117" height="4.924" transform="translate(0)" fill="#fb9d7e"/>
                </g>
              </g>
            </g>
            <path id="Trazado_886977" data-name="Trazado 886977" d="M1129.53,693.364l3.038,4.052.611-.458-3.038-4.052Zm1.558,1.721-.523-.7a.167.167,0,0,1,.034-.234l.011-.007a.166.166,0,0,1,.223.041l.523.7a.166.166,0,0,1-.023.225.05.05,0,0,1-.01.009.167.167,0,0,1-.234-.033" transform="translate(-950.661 -583.179)" fill="#5eb9f7"/>
            <rect id="Rectángulo_403652" data-name="Rectángulo 403652" width="2.546" height="1.268" transform="translate(179.918 113.077) rotate(-36.863)" fill="#257699"/>
            <path id="Trazado_886978" data-name="Trazado 886978" d="M1137.205,708.788l.74,1.077-1.031.773-.761-1.015Z" transform="translate(-956.235 -596.546)" fill="#5eb9f7"/>
            <path id="Trazado_886979" data-name="Trazado 886979" d="M1129.528,695.8l1.049,2.892.727-.534Z" transform="translate(-950.659 -585.613)" fill="#5eb9f7"/>
            <path id="Trazado_886980" data-name="Trazado 886980" d="M1135.861,694.729l-.708.53-1.768-2.353Z" transform="translate(-953.905 -583.179)" fill="#257699"/>
            <path id="Trazado_886981" data-name="Trazado 886981" d="M1140.96,717.1l.911-.259-.259-.375Z" transform="translate(-960.281 -603.01)" fill="#5eb9f7"/>
            <path id="Trazado_886982" data-name="Trazado 886982" d="M1150.071,710.825l-.5.8-.2-.284Z" transform="translate(-967.355 -598.26)" fill="#257699"/>
            <path id="Trazado_886983" data-name="Trazado 886983" d="M1145.254,720.409l.518.661-.648.609-.52-.693.088-.7Z" transform="translate(-963.347 -606.221)" fill="#257699"/>
            <path id="Trazado_886984" data-name="Trazado 886984" d="M1152.276,715.343l.49.682.766-.452-.52-.693-.7-.113Z" transform="translate(-969.805 -601.579)" fill="#257699"/>
            <path id="Trazado_886985" data-name="Trazado 886985" d="M1131.821,692.906l2.62,3.495-.295.221-1.134-1.512a.166.166,0,0,0,.023-.225l-.523-.7a.166.166,0,0,0-.223-.041l-.764-1.019Z" transform="translate(-952.341 -583.179)" fill="#257699"/>
            <path id="Trazado_886986" data-name="Trazado 886986" d="M1135.861,694.729l-.752.6-1.724-2.42Z" transform="translate(-953.905 -583.179)" fill="#257699"/>
            <path id="Trazado_886987" data-name="Trazado 886987" d="M1142.524,709.216a1,1,0,1,1-1.4-.2,1,1,0,0,1,1.4.2" transform="translate(-960.082 -596.569)" fill="#5eb9f7"/>
            <g id="Grupo_1102559" data-name="Grupo 1102559" transform="translate(180.641 112.97)" opacity="0.5">
              <g id="Grupo_1102558" data-name="Grupo 1102558">
                <g id="Grupo_1102557" data-name="Grupo 1102557" clip-path="url(#clip-path-10)">
                  <path id="Trazado_886988" data-name="Trazado 886988" d="M1142.7,713.447a1,1,0,1,1-1.938-.061,1,1,0,0,0,1.938.061" transform="translate(-1140.722 -713.386)" fill="#257699"/>
                </g>
              </g>
            </g>
            <path id="Trazado_886989" data-name="Trazado 886989" d="M1145.134,726.056a5.348,5.348,0,0,0,1.27,3.034,12.057,12.057,0,0,0,2.484,1.973c.156.18-.009.576-.314.81a.779.779,0,0,1-.7.154,6.747,6.747,0,0,1-3.1-2.836,8.028,8.028,0,0,1-.922-2.524,1.093,1.093,0,0,0-.442-.456c-.268-.127-.451-.493-.132-.975.022-.034.048-.069.076-.1.421-.533.737-.737,1.134-.565s.614.93.648,1.49" transform="translate(-962.088 -609.775)" fill="#f77c7c"/>
            <path id="Trazado_886990" data-name="Trazado 886990" d="M1148.575,735.75a.779.779,0,0,1-.7.154,6.748,6.748,0,0,1-3.1-2.836,8.026,8.026,0,0,1-.922-2.524,1.093,1.093,0,0,0-.442-.456c-.268-.127-.451-.493-.132-.975a.986.986,0,0,0,.3.636c.393.375.562.54.611.9a8.084,8.084,0,0,0,1.7,3.273,4.9,4.9,0,0,0,2.69,1.824" transform="translate(-962.089 -613.652)" fill="#e96362"/>
            <path id="Trazado_886991" data-name="Trazado 886991" d="M1156.232,718.067a5.347,5.347,0,0,1,2.556,2.069,12.051,12.051,0,0,1,1.2,2.937c.129.2.555.152.866-.075a.779.779,0,0,0,.345-.633,6.747,6.747,0,0,0-1.854-3.768,8.028,8.028,0,0,0-2.165-1.592,1.092,1.092,0,0,1-.313-.552c-.047-.293-.347-.571-.9-.4-.039.012-.08.027-.122.044-.63.254-.914.5-.86.93s.721.85,1.249,1.04" transform="translate(-972.078 -602.617)" fill="#f77c7c"/>
            <path id="Trazado_886992" data-name="Trazado 886992" d="M1166.106,723a.779.779,0,0,0,.345-.633,6.748,6.748,0,0,0-1.854-3.768,8.029,8.029,0,0,0-2.165-1.592,1.091,1.091,0,0,1-.314-.552c-.047-.293-.347-.571-.9-.4a.985.985,0,0,1,.526.468c.25.482.361.69.7.84a8.087,8.087,0,0,1,2.667,2.544,4.9,4.9,0,0,1,1,3.093" transform="translate(-977.332 -602.617)" fill="#e96362"/>
            <rect id="Rectángulo_403654" data-name="Rectángulo 403654" width="32.328" height="5.605" transform="translate(173.628 116.312)" fill="#f8cd9e"/>
            <rect id="Rectángulo_403655" data-name="Rectángulo 403655" width="32.328" height="6.082" transform="translate(173.628 121.634)" fill="#f8cd9e"/>
            <rect id="Rectángulo_403656" data-name="Rectángulo 403656" width="29.643" height="0.48" transform="translate(174.971 121.687)" fill="#fb9d7e"/>
            <path id="Trazado_886993" data-name="Trazado 886993" d="M1113.541,749.375a.529.529,0,1,1-.529-.529.529.529,0,0,1,.529.529" transform="translate(-936.313 -630.26)" fill="#615370"/>
            <path id="Trazado_886994" data-name="Trazado 886994" d="M1278.9,749.375a.529.529,0,1,1-.529-.529.529.529,0,0,1,.529.529" transform="translate(-1075.488 -630.26)" fill="#615370"/>
            <path id="Trazado_886995" data-name="Trazado 886995" d="M1113.541,785.412a.529.529,0,1,1-.529-.529.529.529,0,0,1,.529.529" transform="translate(-936.313 -660.591)" fill="#615370"/>
            <path id="Trazado_886996" data-name="Trazado 886996" d="M1278.9,785.412a.529.529,0,1,1-.529-.529.529.529,0,0,1,.529.529" transform="translate(-1075.488 -660.591)" fill="#615370"/>
            <path id="Trazado_886997" data-name="Trazado 886997" d="M1217.581,569.526l-.032-.162,0,0-.023-.017-1.292-1.041-1.3-1.041.148-.323,9.13-16.347,3.985.177c.928.539,1.792,2.151,1.309,3.11-.186.369-.425.806-.731,1.32-.785,1.318-11.2,14.326-11.2,14.326" transform="translate(-1022.543 -463.401)" fill="#f6a49d"/>
            <path id="Trazado_886998" data-name="Trazado 886998" d="M1186.907,649.83l-.29.241c-.011.01-.023.019-.036.028l-.068.058c-.842.7-2.106,1.729-2.868,2.3-.983.74-2.346-.588-2.346-.588s-.024.04-.066.113v0c-.284.485-1.381,2.354-1.724,2.865-.4.59-1.476.62-1.476.62s.839-3.516,2.375-5.172a21.456,21.456,0,0,1,4.219-3.151l.132-.085Z" transform="translate(-991.482 -544.6)" fill="#f6a49d"/>
            <path id="Trazado_886999" data-name="Trazado 886999" d="M1199.672,658.65c-.321,2.044-2.55,4.845-2.825,5.169-.633.747-1.2.224-1.2.224-.89.7-1.464.078-1.464.078a.8.8,0,0,1-1.045-.341c-.279-.383.46-2.33.756-3.164.078-.216.128-.349.128-.349l4.293-2.937.014-.01.076.11s1.27,1.184,1.265,1.221" transform="translate(-1004.147 -553.227)" fill="#f6a49d"/>
            <path id="Trazado_887000" data-name="Trazado 887000" d="M1240.386,459.591l3.23,8.824.015,0,.034,0,6.57-1.176h.008s-.011-.026-.034-.076c-.007-.015-.015-.038-.023-.057-.03-.064-.064-.155-.114-.261-.038-.091-.083-.2-.132-.314-.087-.208-.193-.458-.314-.741-1.369-3.237-5.355-10.858-5.862-12.088a7.494,7.494,0,0,0-1.04-1.77,6.937,6.937,0,0,0-2.088-1.781c-.11.545-.31,1.543-.522,2.689l.465,4.043Z" transform="translate(-1043.733 -378.859)" fill="#f6a49d"/>
            <path id="Trazado_887001" data-name="Trazado 887001" d="M1251.537,470.661l-.013.005-6.352,2.279-.058-.709-.049.008-3.228-8.824.194-2.714a42.1,42.1,0,0,0,.351-6.012,10.641,10.641,0,0,1,1.792,1.061,7.332,7.332,0,0,1,1.038,1.769c.553,1.335,6.2,12.827,6.2,12.827l.124.31" transform="translate(-1045.184 -382.689)" fill="#d47c74"/>
            <path id="Trazado_887002" data-name="Trazado 887002" d="M1235.111,459.954l3.364,6.621.945-.416.03-.011,2.719-1.191,3.245-1.426.908-.4s-5.627-11.631-6.658-13a10.784,10.784,0,0,0-3.148-2.669s-.474,1.956-.614,3.113c-.6,4.977-.792,9.374-.792,9.374" transform="translate(-1039.522 -376.607)" fill="#fcded3"/>
            <path id="Trazado_887003" data-name="Trazado 887003" d="M361.749,1014.3H293.59a4.808,4.808,0,0,1-4.808-4.808v-22h77.775v22a4.808,4.808,0,0,1-4.808,4.808" transform="translate(-243.051 -831.119)" fill="#12263f"/>
            <rect id="Rectángulo_403657" data-name="Rectángulo 403657" width="39.952" height="32.168" transform="translate(64.643 179.4)" fill="#12263f"/>
            <path id="Trazado_887004" data-name="Trazado 887004" d="M169.237,120.088c0,45.979-37.885,83.253-84.618,83.253S0,166.067,0,120.088,37.885,36.835,84.618,36.835s84.618,37.274,84.618,83.253" transform="translate(0 -31.001)" fill="#f35923"/>
            <path id="Trazado_887005" data-name="Trazado 887005" d="M203.814,161.992c0,41.625-34.3,75.369-76.6,75.369s-76.6-33.744-76.6-75.369,34.3-75.369,76.6-75.369,76.6,33.744,76.6,75.369" transform="translate(-42.59 -72.905)" fill="#eefbff"/>
            <g id="Grupo_1102562" data-name="Grupo 1102562" transform="translate(8.014 17.692)" opacity="0.5">
              <g id="Grupo_1102561" data-name="Grupo 1102561">
                <g id="Grupo_1102560" data-name="Grupo 1102560" clip-path="url(#clip-path-11)">
                  <path id="Trazado_887006" data-name="Trazado 887006" d="M177.464,240a77.029,77.029,0,0,1-50.254,18.484c-42.308,0-76.606-33.741-76.606-75.367,0-33.155,21.761-61.311,52-71.4a74.685,74.685,0,0,0-26.355,56.889c0,41.625,34.3,75.367,76.606,75.367A77.571,77.571,0,0,0,177.464,240" transform="translate(-50.604 -111.723)" fill="#8ad8ff"/>
                </g>
              </g>
            </g>
            <rect id="Rectángulo_403659" data-name="Rectángulo 403659" width="59.193" height="4.625" transform="translate(54.421 45.54)" fill="#b1e5ff"/>
            <rect id="Rectángulo_403660" data-name="Rectángulo 403660" width="86.973" height="4.625" transform="translate(40.531 34.186)" fill="#b1e5ff"/>
            <rect id="Rectángulo_403661" data-name="Rectángulo 403661" width="86.973" height="4.625" transform="translate(40.531 134.552)" fill="#b1e5ff"/>
            <rect id="Rectángulo_403662" data-name="Rectángulo 403662" width="56.415" height="4.625" transform="translate(55.81 145.038)" fill="#b1e5ff"/>
            <rect id="Rectángulo_403663" data-name="Rectángulo 403663" width="86.973" height="4.625" transform="translate(40.531 124.066)" fill="#b1e5ff"/>
            <rect id="Rectángulo_403664" data-name="Rectángulo 403664" width="12.046" height="25.86" transform="translate(20.871 61.507)" fill="#b1e5ff"/>
            <rect id="Rectángulo_403665" data-name="Rectángulo 403665" width="11.911" height="25.86" transform="translate(35.27 61.507)" fill="#b1e5ff"/>
            <rect id="Rectángulo_403666" data-name="Rectángulo 403666" width="11.911" height="25.86" transform="translate(49.534 61.507)" fill="#b1e5ff"/>
            <rect id="Rectángulo_403667" data-name="Rectángulo 403667" width="11.911" height="25.86" transform="translate(63.798 61.507)" fill="#b1e5ff"/>
            <rect id="Rectángulo_403668" data-name="Rectángulo 403668" width="11.911" height="25.86" transform="translate(78.062 61.507)" fill="#b1e5ff"/>
            <rect id="Rectángulo_403669" data-name="Rectángulo 403669" width="11.911" height="25.86" transform="translate(92.326 61.507)" fill="#b1e5ff"/>
            <rect id="Rectángulo_403670" data-name="Rectángulo 403670" width="11.911" height="25.86" transform="translate(106.59 61.507)" fill="#b1e5ff"/>
            <rect id="Rectángulo_403671" data-name="Rectángulo 403671" width="11.911" height="25.86" transform="translate(120.854 61.507)" fill="#f35923"/>
            <rect id="Rectángulo_403672" data-name="Rectángulo 403672" width="12.046" height="25.86" transform="translate(135.118 61.507)" fill="#f35923"/>
            <path id="Trazado_887007" data-name="Trazado 887007" d="M780.814,549.32H750.683v-4.347h1.282v3.064h27.567v-3.064h1.282Z" transform="translate(-631.807 -458.673)" fill="#f77c7c"/>
            <path id="Trazado_887008" data-name="Trazado 887008" d="M513.833,579.2l-1.678,5.371,2.8-.1-1.731,7.3,4.755-9.258-2.891.1,1.689-3.542Z" transform="translate(-431.052 -487.371)" fill="#f8cd9e"/>
            <path id="Trazado_887009" data-name="Trazado 887009" d="M142.375,674.148a5.29,5.29,0,1,1-5.289-5.2,5.247,5.247,0,0,1,5.289,5.2" transform="translate(-110.926 -563.011)" fill="#b1e5ff"/>
            <path id="Trazado_887010" data-name="Trazado 887010" d="M254.716,674.148a5.29,5.29,0,1,1-5.289-5.2,5.247,5.247,0,0,1,5.289,5.2" transform="translate(-205.477 -563.011)" fill="#b1e5ff"/>
            <path id="Trazado_887011" data-name="Trazado 887011" d="M367.057,674.148a5.29,5.29,0,1,1-5.289-5.2,5.247,5.247,0,0,1,5.289,5.2" transform="translate(-300.028 -563.011)" fill="#b1e5ff"/>
            <rect id="Rectángulo_403673" data-name="Rectángulo 403673" width="66.031" height="4.625" transform="translate(81.133 108.823)" fill="#b1e5ff"/>
            <path id="Trazado_887012" data-name="Trazado 887012" d="M122.118,233.228a77.692,77.692,0,0,1-54.84-22.35,75.47,75.47,0,0,1,0-107.953,78.454,78.454,0,0,1,109.679,0,75.47,75.47,0,0,1,0,107.953,77.693,77.693,0,0,1-54.84,22.35m0-150.738c-41.712,0-75.647,33.38-75.647,74.411s33.935,74.411,75.647,74.411,75.647-33.381,75.647-74.411S163.83,82.49,122.118,82.49" transform="translate(-37.499 -67.814)" fill="#615370"/>
            <path id="Trazado_887013" data-name="Trazado 887013" d="M1526.16,916.276h-4.047V913.07h4.047a5.362,5.362,0,0,0,5.356-5.355V861.009h3.205v46.706a8.571,8.571,0,0,1-8.561,8.561" transform="translate(-1281.076 -724.662)" fill="#12263f"/>
            <path id="Trazado_887014" data-name="Trazado 887014" d="M1371.846,76.754l.01-.1a6.356,6.356,0,0,1,6.981-5.628l57.037,5.568a6.307,6.307,0,0,1,5.721,6.868l-.01.1a6.355,6.355,0,0,1-6.981,5.628l-57.037-5.568a6.307,6.307,0,0,1-5.721-6.868" transform="translate(-1154.577 -59.751)" fill="#fabca7"/>
            <path id="Trazado_887015" data-name="Trazado 887015" d="M1377.355,217.679l.022-.216a5.85,5.85,0,0,1,6.426-5.181l56.918,5.556a5.806,5.806,0,0,1,5.266,6.323l-.022.216a5.851,5.851,0,0,1-6.426,5.181L1382.621,224a5.806,5.806,0,0,1-5.266-6.323" transform="translate(-1159.216 -178.641)" fill="#fabca7"/>
            <path id="Trazado_887016" data-name="Trazado 887016" d="M1375.331,361.067l.022-.216a5.851,5.851,0,0,1,6.426-5.181l56.918,5.556a5.806,5.806,0,0,1,5.266,6.323l-.022.216a5.851,5.851,0,0,1-6.426,5.181L1380.6,367.39a5.806,5.806,0,0,1-5.266-6.323" transform="translate(-1157.513 -299.322)" fill="#fabca7"/>
            <path id="Trazado_887017" data-name="Trazado 887017" d="M1374.227,503.65l.054-.211a5.883,5.883,0,0,1,7.132-4.193l55.465,13.746a5.774,5.774,0,0,1,4.262,7.017l-.054.211a5.882,5.882,0,0,1-7.132,4.193l-55.465-13.746a5.774,5.774,0,0,1-4.262-7.017" transform="translate(-1156.457 -420.038)" fill="#fabca7"/>
            <path id="Trazado_887018" data-name="Trazado 887018" d="M1370.67,19.177l-.025-.082a6.27,6.27,0,0,1,4.251-7.846L1411.526.271a6.408,6.408,0,0,1,7.974,4.182l.025.082a6.27,6.27,0,0,1-4.25,7.846l-36.631,10.978a6.408,6.408,0,0,1-7.974-4.182" transform="translate(-1153.358 0.003)" fill="#feefe9"/>
            <path id="Trazado_887019" data-name="Trazado 887019" d="M1370.5,130.767l-.024-.085a6.273,6.273,0,0,1,4.422-7.751l57.282-15.837a6.4,6.4,0,0,1,7.879,4.351l.024.085a6.273,6.273,0,0,1-4.422,7.751l-57.282,15.836a6.4,6.4,0,0,1-7.879-4.351" transform="translate(-1153.248 -89.937)" fill="#feefe9"/>
            <path id="Trazado_887020" data-name="Trazado 887020" d="M1370.5,273.159l-.024-.085a6.273,6.273,0,0,1,4.422-7.751l57.282-15.836a6.4,6.4,0,0,1,7.879,4.351l.024.085a6.273,6.273,0,0,1-4.422,7.751l-57.282,15.836a6.4,6.4,0,0,1-7.879-4.351" transform="translate(-1153.248 -209.78)" fill="#feefe9"/>
            <path id="Trazado_887021" data-name="Trazado 887021" d="M1370.5,416.547l-.024-.085a6.273,6.273,0,0,1,4.422-7.751l57.282-15.837a6.4,6.4,0,0,1,7.879,4.351l.024.085a6.273,6.273,0,0,1-4.422,7.751L1378.377,420.9a6.4,6.4,0,0,1-7.879-4.351" transform="translate(-1153.248 -330.461)" fill="#feefe9"/>
            <path id="Trazado_887022" data-name="Trazado 887022" d="M1539.124,770.851h0a9.859,9.859,0,0,1-9.859-9.859V747.26h19.719v13.731a9.859,9.859,0,0,1-9.859,9.859" transform="translate(-1287.095 -628.926)" fill="#12263f"/>
            <path id="Trazado_887023" data-name="Trazado 887023" d="M1402.8,667.846h59.772v.116a27.464,27.464,0,0,1-27.464,27.464h-4.844a27.464,27.464,0,0,1-27.464-27.464Z" transform="translate(-1180.656 -562.087)" fill="#727997"/>
            <path id="Trazado_887024" data-name="Trazado 887024" d="M1436.55,653.771h-62.86a3.643,3.643,0,0,1,0-7.285h62.86a3.643,3.643,0,0,1,0,7.285" transform="translate(-1153.091 -544.11)" fill="#12263f"/>
            <path id="Trazado_887025" data-name="Trazado 887025" d="M1436.55,608.587h-62.86a3.643,3.643,0,0,1,0-7.285h62.86a3.643,3.643,0,0,1,0,7.285" transform="translate(-1153.091 -506.081)" fill="#727997"/>
            <g id="Grupo_1102565" data-name="Grupo 1102565" transform="translate(216.957 95.222)" opacity="0.5">
              <g id="Grupo_1102564" data-name="Grupo 1102564">
                <g id="Grupo_1102563" data-name="Grupo 1102563" clip-path="url(#clip-path-12)">
                  <path id="Trazado_887026" data-name="Trazado 887026" d="M1408.163,639.416q-.062-.5-.077-1.01a27.485,27.485,0,0,1-19.764-22.656h-1.808a3.644,3.644,0,0,1-3.645-3.645c0-.086,0-.173.01-.26a3.642,3.642,0,0,1,2.68-3.254,2.656,2.656,0,0,1,.276-.064,2.688,2.688,0,0,1-.276-.064,3.64,3.64,0,0,1,.955-7.155h-12.822a3.641,3.641,0,0,0-.679,7.219,3.643,3.643,0,0,0,.679,7.222h1.808a27.483,27.483,0,0,0,19.765,22.656,9.86,9.86,0,0,0,16.267,7.238,9.839,9.839,0,0,1-3.369-6.228" transform="translate(-1370.048 -601.31)" fill="#463b54"/>
                </g>
              </g>
            </g>
            <rect id="Rectángulo_403675" data-name="Rectángulo 403675" width="62.859" height="0.962" transform="translate(220.6 102.026)" fill="#463b54"/>
            <path id="Trazado_887027" data-name="Trazado 887027" d="M1497.685,1160.05h-4.247v-18.431h4.247a3.285,3.285,0,0,1,3.286,3.286v11.86a3.286,3.286,0,0,1-3.286,3.286" transform="translate(-1256.941 -960.835)" fill="#12263f"/>
            <path id="Trazado_887028" data-name="Trazado 887028" d="M729.645,1125.455H592.914a3.6,3.6,0,0,1-3.6-3.6V1089.1a3.6,3.6,0,0,1,3.6-3.6H729.645a3.6,3.6,0,0,1,3.6,3.6v32.756a3.6,3.6,0,0,1-3.6,3.6" transform="translate(-495.995 -913.609)" fill="#8ad8ff"/>
            <path id="Trazado_887029" data-name="Trazado 887029" d="M729.645,1101.8H592.914a3.6,3.6,0,0,1-3.6-3.6v-32.756a3.6,3.6,0,0,1,3.6-3.6H729.645a3.6,3.6,0,0,1,3.6,3.6v32.756a3.6,3.6,0,0,1-3.6,3.6" transform="translate(-495.995 -893.704)" fill="#eefbff"/>
            <g id="Grupo_1102568" data-name="Grupo 1102568" transform="translate(93.323 168.152)" opacity="0.3">
              <g id="Grupo_1102567" data-name="Grupo 1102567">
                <g id="Grupo_1102566" data-name="Grupo 1102566" clip-path="url(#clip-path-13)">
                  <path id="Trazado_887030" data-name="Trazado 887030" d="M733.241,1089.778v8.424a3.6,3.6,0,0,1-3.6,3.6H592.914a3.6,3.6,0,0,1-3.6-3.6v-32.756a3.6,3.6,0,0,1,3.6-3.6h8.9v24.332a3.6,3.6,0,0,0,3.6,3.6Z" transform="translate(-589.318 -1061.849)" fill="#8ad8ff"/>
                </g>
              </g>
            </g>
            <path id="Trazado_887031" data-name="Trazado 887031" d="M660.9,1115.252a13.493,13.493,0,0,1-2.614,7.986,13.932,13.932,0,0,1-9.364,5.568,14.227,14.227,0,0,1-3.868,0,13.945,13.945,0,0,1-9.364-5.568,13.506,13.506,0,0,1,0-15.972,13.944,13.944,0,0,1,9.364-5.568,14.227,14.227,0,0,1,3.868,0,13.931,13.931,0,0,1,9.364,5.568,13.493,13.493,0,0,1,2.614,7.986" transform="translate(-532.828 -927.125)" fill="#8ad8ff"/>
            <path id="Trazado_887032" data-name="Trazado 887032" d="M920.648,1115.252a13.493,13.493,0,0,1-2.614,7.986,13.933,13.933,0,0,1-9.364,5.568,14.227,14.227,0,0,1-3.868,0,13.946,13.946,0,0,1-9.364-5.568,13.507,13.507,0,0,1,0-15.972,13.944,13.944,0,0,1,9.364-5.568,14.227,14.227,0,0,1,3.868,0,13.931,13.931,0,0,1,9.364,5.568,13.493,13.493,0,0,1,2.614,7.986" transform="translate(-751.439 -927.125)" fill="#8ad8ff"/>
            <path id="Trazado_887033" data-name="Trazado 887033" d="M1180.391,1115.252a13.493,13.493,0,0,1-2.614,7.986,13.933,13.933,0,0,1-9.364,5.568,14.227,14.227,0,0,1-3.868,0,13.946,13.946,0,0,1-9.364-5.568,13.506,13.506,0,0,1,0-15.972,13.944,13.944,0,0,1,9.364-5.568,14.227,14.227,0,0,1,3.868,0,13.932,13.932,0,0,1,9.364,5.568,13.493,13.493,0,0,1,2.614,7.986" transform="translate(-970.05 -927.125)" fill="#8ad8ff"/>
            <g id="Grupo_1102571" data-name="Grupo 1102571" transform="translate(100.253 174.586)" opacity="0.5">
              <g id="Grupo_1102570" data-name="Grupo 1102570">
                <g id="Grupo_1102569" data-name="Grupo 1102569" clip-path="url(#clip-path-14)">
                  <path id="Trazado_887034" data-name="Trazado 887034" d="M655.859,1126.571a13.944,13.944,0,0,1-6.93,3,14.338,14.338,0,0,1-3.869,0,13.958,13.958,0,0,1-9.366-5.568,13.513,13.513,0,0,1,0-15.973,13.955,13.955,0,0,1,9.28-5.555,13.793,13.793,0,0,0-2.439,2.564,13.5,13.5,0,0,0,0,15.973,13.954,13.954,0,0,0,9.363,5.568,14.3,14.3,0,0,0,3.869,0c.032,0,.061-.01.093-.013" transform="translate(-633.081 -1102.479)" fill="#5eb9f7"/>
                  <path id="Trazado_887035" data-name="Trazado 887035" d="M915.6,1126.571a13.944,13.944,0,0,1-6.93,3,14.338,14.338,0,0,1-3.869,0,13.944,13.944,0,0,1-9.363-5.568,13.5,13.5,0,0,1,0-15.973,13.941,13.941,0,0,1,9.277-5.555,13.8,13.8,0,0,0-2.439,2.564,13.5,13.5,0,0,0,0,15.973,13.955,13.955,0,0,0,9.363,5.568,14.3,14.3,0,0,0,3.869,0c.032,0,.061-.01.093-.013" transform="translate(-851.689 -1102.479)" fill="#5eb9f7"/>
                  <path id="Trazado_887036" data-name="Trazado 887036" d="M1175.34,1126.571a13.944,13.944,0,0,1-6.93,3,14.338,14.338,0,0,1-3.869,0,13.943,13.943,0,0,1-9.363-5.568,13.5,13.5,0,0,1,0-15.973,13.941,13.941,0,0,1,9.276-5.555,13.793,13.793,0,0,0-2.439,2.564,13.513,13.513,0,0,0,0,15.973,13.955,13.955,0,0,0,9.363,5.568,14.3,14.3,0,0,0,3.869,0c.032,0,.061-.01.093-.013" transform="translate(-1070.298 -1102.479)" fill="#5eb9f7"/>
                </g>
              </g>
            </g>
            <path id="Trazado_887037" data-name="Trazado 887037" d="M712.587,1101.7v5.172h-3.868V1101.7a14.253,14.253,0,0,1,3.868,0" transform="translate(-596.488 -927.125)" fill="#5eb9f7"/>
            <path id="Trazado_887038" data-name="Trazado 887038" d="M712.587,1240.919v5.172a14.253,14.253,0,0,1-3.868,0v-5.172Z" transform="translate(-596.488 -1044.41)" fill="#5eb9f7"/>
            <path id="Trazado_887039" data-name="Trazado 887039" d="M634.427,1143.612v3.866H635.7v6.053a13.506,13.506,0,0,1,0-15.972v6.053Z" transform="translate(-532.829 -957.418)" fill="#5eb9f7"/>
            <path id="Trazado_887040" data-name="Trazado 887040" d="M794.892,1145.545a13.493,13.493,0,0,1-2.614,7.986v-6.053h1.269v-3.867h-1.269v-6.053a13.493,13.493,0,0,1,2.614,7.986" transform="translate(-666.815 -957.418)" fill="#5eb9f7"/>
            <path id="Trazado_887041" data-name="Trazado 887041" d="M673.269,1177.563a1.994,1.994,0,1,1-1.994-1.962,1.978,1.978,0,0,1,1.994,1.962" transform="translate(-563.296 -989.436)" fill="#615370"/>
            <path id="Trazado_887042" data-name="Trazado 887042" d="M751.391,1177.563a1.994,1.994,0,1,1-1.994-1.962,1.978,1.978,0,0,1,1.994,1.962" transform="translate(-629.046 -989.436)" fill="#615370"/>
            <path id="Trazado_887043" data-name="Trazado 887043" d="M972.33,1101.7v5.172h-3.868V1101.7a14.253,14.253,0,0,1,3.868,0" transform="translate(-815.099 -927.125)" fill="#5eb9f7"/>
            <path id="Trazado_887044" data-name="Trazado 887044" d="M972.33,1240.919v5.172a14.253,14.253,0,0,1-3.868,0v-5.172Z" transform="translate(-815.099 -1044.41)" fill="#5eb9f7"/>
            <path id="Trazado_887045" data-name="Trazado 887045" d="M894.169,1143.612v3.866h1.269v6.053a13.507,13.507,0,0,1,0-15.972v6.053Z" transform="translate(-751.439 -957.418)" fill="#5eb9f7"/>
            <path id="Trazado_887046" data-name="Trazado 887046" d="M1054.635,1145.545a13.493,13.493,0,0,1-2.614,7.986v-6.053h1.269v-3.867h-1.269v-6.053a13.493,13.493,0,0,1,2.614,7.986" transform="translate(-885.426 -957.418)" fill="#5eb9f7"/>
            <path id="Trazado_887047" data-name="Trazado 887047" d="M933.012,1177.563a1.994,1.994,0,1,1-1.994-1.962,1.978,1.978,0,0,1,1.994,1.962" transform="translate(-781.906 -989.436)" fill="#615370"/>
            <path id="Trazado_887048" data-name="Trazado 887048" d="M1011.134,1177.563a1.994,1.994,0,1,1-1.994-1.962,1.978,1.978,0,0,1,1.994,1.962" transform="translate(-847.657 -989.436)" fill="#615370"/>
            <path id="Trazado_887049" data-name="Trazado 887049" d="M1232.073,1101.7v5.172H1228.2V1101.7a14.254,14.254,0,0,1,3.868,0" transform="translate(-1033.71 -927.125)" fill="#5eb9f7"/>
            <path id="Trazado_887050" data-name="Trazado 887050" d="M1232.073,1240.919v5.172a14.254,14.254,0,0,1-3.868,0v-5.172Z" transform="translate(-1033.71 -1044.41)" fill="#5eb9f7"/>
            <path id="Trazado_887051" data-name="Trazado 887051" d="M1153.912,1143.612v3.866h1.269v6.053a13.507,13.507,0,0,1,0-15.972v6.053Z" transform="translate(-970.05 -957.418)" fill="#5eb9f7"/>
            <path id="Trazado_887052" data-name="Trazado 887052" d="M1314.378,1145.545a13.493,13.493,0,0,1-2.614,7.986v-6.053h1.269v-3.867h-1.269v-6.053a13.493,13.493,0,0,1,2.614,7.986" transform="translate(-1104.037 -957.418)" fill="#5eb9f7"/>
            <path id="Trazado_887053" data-name="Trazado 887053" d="M1192.754,1177.563a1.994,1.994,0,1,1-1.994-1.962,1.978,1.978,0,0,1,1.994,1.962" transform="translate(-1000.516 -989.436)" fill="#615370"/>
            <path id="Trazado_887054" data-name="Trazado 887054" d="M1270.876,1177.563a1.994,1.994,0,1,1-1.994-1.962,1.978,1.978,0,0,1,1.994,1.962" transform="translate(-1066.267 -989.436)" fill="#615370"/>
            <path id="Trazado_887055" data-name="Trazado 887055" d="M1389.481,1142.2h-8.8a1.079,1.079,0,0,1-1.079-1.079V1122.06a1.079,1.079,0,0,1,1.079-1.079h8.8a1.079,1.079,0,0,1,1.079,1.079v19.065a1.079,1.079,0,0,1-1.079,1.079" transform="translate(-1161.129 -943.465)" fill="#f35923"/>
            <path id="Trazado_887056" data-name="Trazado 887056" d="M1384.775,1138.451h-8.787a1.958,1.958,0,0,1-1.972-1.94v-19.082a1.958,1.958,0,0,1,1.972-1.94h8.787a1.958,1.958,0,0,1,1.972,1.94v19.082a1.958,1.958,0,0,1-1.972,1.94m-8.787-21.222a.2.2,0,0,0-.2.2v19.082a.2.2,0,0,0,.2.2h8.787a.2.2,0,0,0,.2-.2v-19.082a.2.2,0,0,0-.2-.2Z" transform="translate(-1156.431 -938.843)" fill="#615370"/>
            <path id="Trazado_887057" data-name="Trazado 887057" d="M1400.464,1149.4a2.55,2.55,0,1,1,2.586-2.55,2.571,2.571,0,0,1-2.586,2.55m0-4.458a1.909,1.909,0,1,0,1.945,1.909,1.929,1.929,0,0,0-1.945-1.909" transform="translate(-1176.514 -963.089)" fill="#eefbff"/>
            <rect id="Rectángulo_403678" data-name="Rectángulo 403678" width="4.622" height="0.535" transform="translate(221.639 194.19)" fill="#eefbff"/>
            <path id="Trazado_887058" data-name="Trazado 887058" d="M170.232,808.852a7.935,7.935,0,0,1-2.483-8.688c1.848-5.358,7.746-7.387,7.958-6.035s.145,1.932,1.264,1.709c1.519-.3,1.515-1.312,2.37-.781,1.6,1-.658,2.977,1.439,2.983,1.082,0,1.554.655,1.146,1.831-1.031,2.977-11.694,8.98-11.694,8.98" transform="translate(-140.799 -668.031)" fill="#2e2f4d"/>
            <path id="Trazado_887059" data-name="Trazado 887059" d="M177.1,874.326a.208.208,0,0,1-.036.039c-.8.838-2.564,2-5.84.731a7.911,7.911,0,0,1-2.576-1.582,1.482,1.482,0,0,1,.285-2.392.446.446,0,0,1,.072-.043,1.872,1.872,0,0,0,.907-.819,13.766,13.766,0,0,0,.353-2.4c.053-.531.1-1.1.134-1.651.051-.707.083-1.382.1-1.911,0-.071,0-.149.006-.233,0-.36,0-.818.006-1.155,0,0,0,0,0,0,0-.266,0-.458,0-.458l1.141.739.762.494,1,.642.194.126,1.286.831h0l.981.638s-.007.051-.018.145c0,.039-.01.087-.018.138s-.007.084-.014.129c-.01.077-.02.167-.031.264l0,.036c-.01.084-.02.17-.031.264s-.024.215-.04.331c-.016.151-.032.309-.051.473-.009.077-.019.154-.025.235,0,0,0,.01,0,.016-.009.074-.018.145-.024.219-.019.157-.035.315-.051.467-.017.171-.034.338-.046.493-.044.5-.065.884-.072,1-.041.746.688,1.442,1.4,1.941a1.532,1.532,0,0,1,.361.354,1.472,1.472,0,0,1-.108,1.9" transform="translate(-141.534 -725.877)" fill="#f6a49d"/>
            <path id="Trazado_887060" data-name="Trazado 887060" d="M173.839,859.141c-.255.484-1.33.432-2.4-.115s-1.676-1.344-1.475-1.866c.266-.693,1.33-.432,2.4.115s1.731,1.383,1.475,1.866" transform="translate(-143.017 -721.07)" fill="#d47c74"/>
            <path id="Trazado_887061" data-name="Trazado 887061" d="M189.569,868.158s-.18,1.5-.306,2.715a2.983,2.983,0,0,1-1.19.1c-2.923-.464-3.631-5.859-3.631-5.859Z" transform="translate(-155.234 -728.113)" fill="#d47c74"/>
            <path id="Trazado_887062" data-name="Trazado 887062" d="M180.791,831.2c.009.164.022.331.039.5.4,3.939,2.791,6.951,5.337,6.726a4.2,4.2,0,0,0,3.288-2.894c.035-.085.069-.171.1-.258s.057-.156.083-.236a7.981,7.981,0,0,0,.234-.843c.044-.192.082-.39.113-.591q.054-.344.084-.7a10.818,10.818,0,0,0-.019-2.014c-.015-.149-.035-.313-.059-.489-.01-.073-.02-.147-.032-.224q-.01-.073-.023-.147l0-.031a14.24,14.24,0,0,0-.46-2.076,6.371,6.371,0,0,1-2.209-.233c-2.006-.388-4.209-.758-5.434.877a22.588,22.588,0,0,0-1.04,2.64" transform="translate(-152.161 -696.334)" fill="#f6a49d"/>
            <path id="Trazado_887063" data-name="Trazado 887063" d="M215.8,859.223l.33-.045c.223-.031.384-.205.345-.376l-.29-1.289a.341.341,0,0,0-.4-.215.377.377,0,0,0-.351.318l-.041,1.334c-.005.177.184.3.407.273" transform="translate(-181.286 -721.534)" fill="#d47c74"/>
            <path id="Trazado_887064" data-name="Trazado 887064" d="M199.079,850.658c.017.27.194.48.395.469s.351-.239.335-.508-.193-.479-.4-.469-.351.239-.334.508" transform="translate(-167.553 -715.522)" fill="#4f1d30"/>
            <path id="Trazado_887065" data-name="Trazado 887065" d="M194.212,841.349a.631.631,0,0,0-.071-.118,1.3,1.3,0,0,0-.251-.26,1.43,1.43,0,0,0-.2-.136,1.64,1.64,0,0,0-.251-.112,1.621,1.621,0,0,0-.6-.08,1.806,1.806,0,0,0-.305.049,2.524,2.524,0,0,0-.278.1c-.084.045-.161.1-.233.142a1.542,1.542,0,0,0-.181.158.892.892,0,0,0-.133.151c-.036.048-.063.093-.086.129a1.181,1.181,0,0,0-.066.118s.051-.012.13-.039c.039-.014.087-.029.138-.051a1.7,1.7,0,0,1,.175-.059c.064-.019.127-.049.2-.066s.143-.039.216-.06.151-.03.228-.045.154-.026.233-.024a1.81,1.81,0,0,1,.234,0c.078,0,.155.01.231.014s.15.018.221.032.14.025.2.041c.129.027.24.057.32.079l.129.036" transform="translate(-161.22 -707.519)" fill="#2e2f4d"/>
            <path id="Trazado_887066" data-name="Trazado 887066" d="M229.563,850.462c0,.27.163.49.365.491s.366-.217.366-.487-.163-.49-.365-.491-.366.217-.366.487" transform="translate(-193.21 -715.375)" fill="#4f1d30"/>
            <path id="Trazado_887067" data-name="Trazado 887067" d="M225.17,841.193a.623.623,0,0,0-.064-.122,1.285,1.285,0,0,0-.234-.275,1.431,1.431,0,0,0-.194-.148,1.626,1.626,0,0,0-.244-.127,1.626,1.626,0,0,0-.594-.115,1.78,1.78,0,0,0-.308.031,2.551,2.551,0,0,0-.284.086c-.087.04-.167.085-.241.127a1.556,1.556,0,0,0-.191.147.885.885,0,0,0-.142.143c-.039.045-.069.089-.095.124a1.167,1.167,0,0,0-.073.114s.051-.009.132-.031c.04-.011.089-.024.141-.042a1.714,1.714,0,0,1,.178-.048c.065-.015.13-.041.2-.054s.145-.03.22-.047.153-.021.23-.031.156-.017.235-.01a1.85,1.85,0,0,1,.234.01c.078,0,.154.019.23.028s.149.027.219.045.139.033.2.053c.128.034.236.072.315.1l.126.044" transform="translate(-187.271 -707.321)" fill="#2e2f4d"/>
            <g id="Grupo_1102574" data-name="Grupo 1102574" transform="translate(30.113 135.948)" opacity="0.5">
              <g id="Grupo_1102573" data-name="Grupo 1102573">
                <g id="Grupo_1102572" data-name="Grupo 1102572" clip-path="url(#clip-path-15)">
                  <path id="Trazado_887068" data-name="Trazado 887068" d="M190.158,859.808a1.371,1.371,0,1,0,1.423-1.322,1.381,1.381,0,0,0-1.423,1.322" transform="translate(-190.157 -858.484)" fill="#d47c74"/>
                </g>
              </g>
            </g>
            <g id="Grupo_1102577" data-name="Grupo 1102577" transform="translate(36.033 136.176)" opacity="0.5">
              <g id="Grupo_1102576" data-name="Grupo 1102576">
                <g id="Grupo_1102575" data-name="Grupo 1102575" clip-path="url(#clip-path-16)">
                  <path id="Trazado_887069" data-name="Trazado 887069" d="M227.543,861.253a1.38,1.38,0,0,0,1.315,1.437h.046q.043-.116.083-.236a7.975,7.975,0,0,0,.234-.843c.044-.192.082-.39.113-.591a9.414,9.414,0,0,0,.056-1,1.336,1.336,0,0,0-.425-.086,1.37,1.37,0,0,0-1.422,1.323" transform="translate(-227.542 -859.929)" fill="#d47c74"/>
                </g>
              </g>
            </g>
            <path id="Trazado_887070" data-name="Trazado 887070" d="M207.45,878.677a5.886,5.886,0,0,1-3.616-.107s.639,1.555,1.977,1.594,1.639-1.487,1.639-1.487" transform="translate(-171.555 -739.442)" fill="#fff"/>
            <path id="Trazado_887071" data-name="Trazado 887071" d="M175.57,820.431s.63,1.944,1.553,2.287.579-1.328.757-2.7,1.207-2.005,3.364-1.028a4.54,4.54,0,0,0,4.156-.4s.543-2.519.5-2.55-6.455-.558-6.526-.549l-.028.005a4.813,4.813,0,0,0-3.781,4.747Z" transform="translate(-147.766 -686.352)" fill="#2e2f4d"/>
            <path id="Trazado_887072" data-name="Trazado 887072" d="M85.619,1245.026l-1.3,6.456-16.71-6.388-3.068-1.174-1.234-.472-.608-.232,1.44-3.978.029-.081.06.016h0l.013.005,1.372.376,3.146.861Z" transform="translate(-52.767 -1042.927)" fill="#f6a49d"/>
            <path id="Trazado_887073" data-name="Trazado 887073" d="M23.841,1234.937l-1.442-.295a.383.383,0,0,1-.3-.454l.885-4.325a.383.383,0,0,1,.451-.3l1.442.295Z" transform="translate(-18.596 -1034.845)" fill="#615370"/>
            <rect id="Rectángulo_403681" data-name="Rectángulo 403681" width="7.808" height="1.856" transform="matrix(0.2, -0.98, 0.98, 0.2, 2.785, 206.217)" fill="#615370"/>
            <path id="Trazado_887074" data-name="Trazado 887074" d="M6.433,1283.339l1.949-9.529a.383.383,0,0,1,.451-.3l2.57.526-1.423,6.959a3.1,3.1,0,0,1-.191.608c-.014.029-.026.058-.041.087a3.017,3.017,0,0,1-3.316,1.65" transform="translate(-5.414 -1071.832)" fill="#615370"/>
            <path id="Trazado_887075" data-name="Trazado 887075" d="M25.84,1246.662l.041-3.715.022-2.17.027-2.49.005-.392.479-1.468.41-1.256,1.208-3.7,5.189,1.223-.969,4.427c-.95,1.071-5.018,7.376-6.13,9.108-.181.278-.283.439-.283.439" transform="translate(-21.748 -1036.454)" fill="#01532a"/>
            <path id="Trazado_887076" data-name="Trazado 887076" d="M10.544,1229.622l-.292-.06a.384.384,0,0,0-.452.3l-.885,4.326a.384.384,0,0,0,.3.453l.283.058-.385,1.881-.283-.058a.384.384,0,0,0-.453.3l-1.949,9.53a3,3,0,0,0,.684.06Z" transform="translate(-5.408 -1034.845)" fill="#463b54"/>
            <g id="Grupo_1102580" data-name="Grupo 1102580" transform="translate(1.657 194.709)" opacity="0.5">
              <g id="Grupo_1102579" data-name="Grupo 1102579">
                <g id="Grupo_1102578" data-name="Grupo 1102578" clip-path="url(#clip-path-17)">
                  <path id="Trazado_887077" data-name="Trazado 887077" d="M10.462,1243.232l1.311-6.41a.383.383,0,0,1,.451-.3l.283.058.385-1.88-.283-.058a.383.383,0,0,1-.3-.454l.885-4.325a.383.383,0,0,1,.451-.3l1.442.295,5.189,1.223a27.059,27.059,0,0,0-5.875,5.887c-.037.053-.076.1-.113.156-.46.637-.908,1.316-1.331,2.044-.361.622-2.5,4.065-2.5,4.065" transform="translate(-10.462 -1229.554)" fill="#01532a"/>
                </g>
              </g>
            </g>
            <path id="Trazado_887078" data-name="Trazado 887078" d="M77.285,914.416l-.313.777-.2.493-3.161,7.725-.742,1.818-.85,2.079-.029.066-.055.136-.235.577-1.876,4.591-.6-.145L64.148,931.3q-.013-.118-.017-.235a3.109,3.109,0,0,1,.009-.493,3.071,3.071,0,0,1,.148-.708c.046-.081.1-.168.151-.255.041-.07.078-.139.119-.206.11-.191.232-.394.357-.612.046-.075.093-.154.139-.232.113-.188.229-.388.348-.592.136-.232.281-.473.423-.722l.113-.191c.107-.18.218-.371.328-.56.02-.035.041-.07.061-.1.1-.157.186-.31.278-.467l.049-.084c.276-.476.563-.96.85-1.456.064-.107.128-.218.194-.328,1.238-2.105,2.506-4.263,3.416-5.8,0,0,0-.006.006-.006.484-.568.945-1.085,1.346-1.514.429-.4.815-.745.815-.745.023-.015.046-.032.067-.046A9.57,9.57,0,0,1,75,915h.006a8.7,8.7,0,0,1,1.9-.594h0a.261.261,0,0,1,.046-.009c.061,0,.113,0,.157.009.11,0,.171.009.171.009" transform="translate(-53.97 -769.597)" fill="#f6a49d"/>
            <rect id="Rectángulo_403683" data-name="Rectángulo 403683" width="0.496" height="8.9" transform="translate(26.28 174.172) rotate(-11.436)" fill="#5f6fb2"/>
            <path id="Trazado_887079" data-name="Trazado 887079" d="M176.1,1106.627l-.331-.37,1.353-1.213-.642-5.924.493-.054.669,6.177Z" transform="translate(-147.931 -925.021)" fill="#5f6fb2"/>
            <path id="Trazado_887080" data-name="Trazado 887080" d="M98.536,1106.993l-.179-.463c.15-.058,3.677-1.489,3.741-6.361l.5.007a7.22,7.22,0,0,1-4.058,6.816" transform="translate(-82.781 -925.95)" fill="#5f6fb2"/>
            <path id="Trazado_887081" data-name="Trazado 887081" d="M198.392,1087.589a5.365,5.365,0,0,1-.777-.057l.072-.491a5.863,5.863,0,0,0,4.562-1.544l.351.351a6.441,6.441,0,0,1-4.207,1.74" transform="translate(-166.321 -913.601)" fill="#5f6fb2"/>
            <path id="Trazado_887082" data-name="Trazado 887082" d="M92.2,1116.079l-.27-.4c.022-.015,2.17-1.509,2.427-5.53l.485.031c-.275,4.277-2.546,5.838-2.642,5.9" transform="translate(-77.375 -934.346)" fill="#46846c"/>
            <path id="Trazado_887083" data-name="Trazado 887083" d="M290.011,1143.749l-1.354,18.239-.243,3.261-.136,1.826-4.531-.062-.042-1.763-.078-3.261-.4-16.674Z" transform="translate(-238.378 -962.628)" fill="#f6a49d"/>
            <path id="Trazado_887084" data-name="Trazado 887084" d="M290.778,1258.924l-.243,3.261h-4.708l-.078-3.261Z" transform="translate(-240.499 -1059.564)" fill="#d47c74"/>
            <path id="Trazado_887085" data-name="Trazado 887085" d="M78.546,1242.522l-1.153,4.68-3.068-1.174,1.075-4.367Z" transform="translate(-62.556 -1045.035)" fill="#d47c74"/>
            <path id="Trazado_887086" data-name="Trazado 887086" d="M117.871,1096.1c-.009,7.018-.107,15.642-.107,15.642l-8.413-.078-.336-18.911-14.622.736,7.853,14.744c1.256,2.355,2.613,5.176,2.349,7.833-.226,2.268-1.8,4.3-4.043,4.385-4.71.18-22.782-6.052-22.782-6.052l1.7-7.389,11.577,3.175s-3-4.84-5.87-8.52a38.238,38.238,0,0,1-5.382-8.932,23.365,23.365,0,0,1-1.021-3.036.1.1,0,0,1-.006-.032c-.041-.157-.075-.307-.11-.458l.02-.009c0-.017-.006-.038-.009-.055l-.061-.386c-.017-.131-.035-.258-.052-.389s-.029-.258-.044-.386q-.026-.244-.044-.487a19.566,19.566,0,0,1,.084-3.776.579.579,0,0,1,.012-.1c.009-.09.02-.18.035-.267l.684-.032,5.284-.264,12.191-1.088H96.8c.058,0,.171.009.336.014l.188.009c2.984.125,16.837.821,19.238,3.065,1.459,1.366,1.311,5.458,1.305,11.043" transform="translate(-65.455 -910.632)" fill="#013f20"/>
            <path id="Trazado_887087" data-name="Trazado 887087" d="M103.632,923.431l-2.511,10.327.038.133-.194.487-.017.043L82.715,936.13a.58.58,0,0,1,.012-.1c.009-.09.02-.18.035-.267.049-.386.113-.769.188-1.151l.56-1.638c0-.006,0-.006,0-.006v-.006l0-.006.017-.049.861-2.523.56-1.644.421-1.232.052-.151.026-.072.65-1.905,6.131-17.965.275-.8,3.138.107.734.026,1.34-.012.418,0a4.356,4.356,0,0,0,2.99,1.633,3.665,3.665,0,0,0,2.448-.67l1.09.792.409.3.171.122,1.557,1.14,1.459,1.064.7.508.142.1.049.035Z" transform="translate(-69.616 -763.04)" fill="#f8cd9e"/>
            <path id="Trazado_887088" data-name="Trazado 887088" d="M224.652,949.208c-.052.3-.1.6-.139.9-.481,3.245-.655,5.727-.655,5.727l-2.2,2.3a3.207,3.207,0,0,1-.853-.426,3.5,3.5,0,0,1-.418-.351c-.012,0-.012-.006-.015-.012s-.015,0-.015,0a.3.3,0,0,0-.029-.032,3.428,3.428,0,0,1-.51-.638c-.009-.009-.014-.015-.014-.023-.046-.081-.093-.165-.136-.249-.058-.11-.116-.223-.168-.339a12.191,12.191,0,0,1-.658-1.728c-.046-.148-.084-.287-.119-.421a3.343,3.343,0,0,1-.154-.954v0c0-.041.017-.084.02-.122,0-.02.009-.046.012-.07l0,0c0-.006,0-.009,0-.015l4.866-13.679,0,0a7.036,7.036,0,0,1,.609,3.326c.044,2.1-.041,6.548-.052,7.2v0c0,.052,0,.078,0,.078l.267-.2Z" transform="translate(-183.958 -790.359)" fill="#f6a49d"/>
            <path id="Trazado_887089" data-name="Trazado 887089" d="M237.13,970.78s-.038.061-.11.168a.771.771,0,0,0-.049.073.429.429,0,0,1-.032.046l0,0c-.1.148-.226.348-.386.589-1.244,1.879-5.814,9.622-8.514,11a2.7,2.7,0,0,1-.594.055,3.3,3.3,0,0,1-.977-.154,3.219,3.219,0,0,1-.853-.426,3.509,3.509,0,0,1-.418-.351c-.012,0-.012-.006-.015-.012s-.015,0-.015,0a.323.323,0,0,0-.029-.032,3.426,3.426,0,0,1-.51-.638c-.009-.009-.014-.014-.014-.023-.017-.023-.032-.046-.046-.069a1.153,1.153,0,0,1-.09-.18.435.435,0,0,1-.029-.064,2.59,2.59,0,0,1,.6-2.758l4.2-4.254,4.167-4.214.1-.087.537-.484.13-.119h0l.415-.374.421-.383Z" transform="translate(-188.759 -814.787)" fill="#f6a49d"/>
            <path id="Trazado_887090" data-name="Trazado 887090" d="M290.693,1324.3v1.472a.383.383,0,0,1-.385.382h-4.415a.383.383,0,0,1-.385-.382V1324.3Z" transform="translate(-240.296 -1114.585)" fill="#615370"/>
            <rect id="Rectángulo_403684" data-name="Rectángulo 403684" width="7.808" height="1.856" transform="translate(49.084 209.039)" fill="#615370"/>
            <path id="Trazado_887091" data-name="Trazado 887091" d="M340.477,1320.03H330.75a.383.383,0,0,1-.385-.382v-2.623h7.1a3.105,3.105,0,0,1,.634.065l.093.023a3.016,3.016,0,0,1,2.281,2.918" transform="translate(-278.049 -1108.464)" fill="#615370"/>
            <path id="Trazado_887092" data-name="Trazado 887092" d="M300.836,1295.077l-3.648.7-2.131.413-2.445.473-.385.073-1.534-.175-1.313-.15-3.871-.442.158-5.329,4.531.063c1.24.716,8.233,3.438,10.151,4.18.308.122.487.19.487.19" transform="translate(-240.297 -1086.262)" fill="#013f20"/>
            <path id="Trazado_887093" data-name="Trazado 887093" d="M285.509,1331.7v.3a.384.384,0,0,0,.383.383h4.416a.384.384,0,0,0,.384-.383v-.288h1.92V1332a.384.384,0,0,0,.384.383h9.727a2.99,2.99,0,0,0-.078-.682Z" transform="translate(-240.297 -1120.819)" fill="#463b54"/>
            <g id="Grupo_1102583" data-name="Grupo 1102583" transform="translate(45.212 204.383)" opacity="0.5">
              <g id="Grupo_1102582" data-name="Grupo 1102582">
                <g id="Grupo_1102581" data-name="Grupo 1102581" clip-path="url(#clip-path-18)">
                  <path id="Trazado_887094" data-name="Trazado 887094" d="M299.54,1297.829H293a.383.383,0,0,1-.385-.382v-.289h-1.919v.289a.383.383,0,0,1-.385.382h-4.415a.383.383,0,0,1-.385-.382v-1.472l.158-5.329a27.062,27.062,0,0,0,6.945,4.576c.06.025.116.054.175.079.716.323,1.472.626,2.27.894.682.229,4.483,1.633,4.483,1.633" transform="translate(-285.509 -1290.646)" fill="#01532a"/>
                </g>
              </g>
            </g>
            <path id="Trazado_887095" data-name="Trazado 887095" d="M81.12,987.881l-.067.232-6.194-.067.113-.191c.107-.18.217-.371.328-.56.02-.035.041-.07.061-.1.1-.157.186-.31.278-.467l.049-.084Z" transform="translate(-63.005 -830.401)" fill="#d47c74"/>
            <path id="Trazado_887096" data-name="Trazado 887096" d="M83.907,906.571l-.826,4.072-2.027,5.217L79.542,920.6,72.5,919.3s3.2-4.985,5.609-8.352c0,0,0-.006.006-.009.432-.609.844-1.163,1.2-1.627a8.19,8.19,0,0,1,1.145-1.285c2.187-1.633,3.448-1.462,3.448-1.462" transform="translate(-61.016 -763.004)" fill="#f8cd9e"/>
            <path id="Trazado_887097" data-name="Trazado 887097" d="M224.876,1005.578v0l-.345.49-4.15,5.916-.038.052a12.191,12.191,0,0,1-.658-1.728c-.046-.148-.084-.287-.119-.421Z" transform="translate(-184.796 -846.337)" fill="#d47c74"/>
            <path id="Trazado_887098" data-name="Trazado 887098" d="M216.765,949.681l-5.188,4.652-.728.652-.916-2.61,6.276-13.308,0,0a7.035,7.035,0,0,1,.609,3.326c.046,2.271-.055,7.285-.055,7.285" transform="translate(-176.689 -790.359)" fill="#f8cd9e"/>
            <path id="Trazado_887099" data-name="Trazado 887099" d="M101.833,1031.356l-1.449,6.606.038.134.142.5.012.041L82.1,1045.812l-.009-.055c-.02-.128-.041-.258-.061-.386s-.035-.258-.052-.389-.029-.258-.044-.386q-.026-.244-.044-.487a19.568,19.568,0,0,1,.084-3.776.566.566,0,0,1,.012-.1l.719-.3,19.461-9.515Z" transform="translate(-68.88 -867.244)" fill="#bbdefb"/>
            <path id="Trazado_887100" data-name="Trazado 887100" d="M103.539,978.608l-.328,1.267-.09.345-2.738,10.541.368.644.113.194L83.515,1002.68c-.1-.171-.206-.351-.3-.534a11.637,11.637,0,0,1-1.021-3.036.105.105,0,0,1-.006-.032c-.032-.154-.061-.31-.09-.467l-.009-.055-.061-.386-.052-.389c-.015-.128-.029-.258-.044-.386q-.026-.244-.044-.487a19.568,19.568,0,0,1,.084-3.776.566.566,0,0,1,.012-.1c.009-.09.02-.18.035-.267.049-.386.113-.769.188-1.151.078-.409.168-.818.273-1.221l.11-.438.2-.047,3.474-.823L91.806,977l.151-.33.531-1.157a2.019,2.019,0,0,1,2.308-1.122l7.259,1.74a2.023,2.023,0,0,1,1.485,2.474" transform="translate(-68.88 -820.044)" fill="#013f20"/>
            <path id="Trazado_887101" data-name="Trazado 887101" d="M156.182,992.289l-.09.345-11.316-3.216.151-.331Z" transform="translate(-121.85 -832.458)" fill="#524660"/>
            <path id="Trazado_887102" data-name="Trazado 887102" d="M201.308,994.387a.47.47,0,1,0,.581-.324.47.47,0,0,0-.581.324" transform="translate(-169.414 -836.63)" fill="#524660"/>
            <path id="Trazado_887103" data-name="Trazado 887103" d="M159.419,982.48a.47.47,0,1,0,.581-.324.47.47,0,0,0-.581.324" transform="translate(-134.159 -826.609)" fill="#524660"/>
            <path id="Trazado_887104" data-name="Trazado 887104" d="M147.272,1010.248h0a4.573,4.573,0,0,1-4.4-5.82l.921-3.242,8.791,2.5-.922,3.242a4.587,4.587,0,0,1-4.393,3.321m-3.134-8.449-.786,2.765a4.073,4.073,0,1,0,7.836,2.227l.786-2.765Z" transform="translate(-120.103 -842.641)" fill="#524660"/>
            <path id="Trazado_887105" data-name="Trazado 887105" d="M211.47,921.585l-2.491,11.261-1.9.061,2.665-12.583.171.122Z" transform="translate(-174.284 -774.583)" fill="#013f20"/>
            <path id="Trazado_887106" data-name="Trazado 887106" d="M199.074,957.229l.424-.594-1.094-.781-.3.422a3.168,3.168,0,0,1-.673.523,4.44,4.44,0,0,0-1.342,1.253l-3.1,4.341a1.3,1.3,0,0,0,.232,1.781,1.262,1.262,0,0,0,1.792-.271l3.147-4.409a4.67,4.67,0,0,0,.749-1.73,3.062,3.062,0,0,1,.165-.536" transform="translate(-162.217 -804.487)" fill="#f77c7c"/>
            <path id="Trazado_887107" data-name="Trazado 887107" d="M236.93,914.924l-.018-.013h0l-.406-.29,0,0-.751.685-.418.949-3.479,4.874.412.294,3.479-4.874.761-.7Z" transform="translate(-195.139 -769.784)" fill="#99d6ff"/>
            <g id="Grupo_1102586" data-name="Grupo 1102586" transform="translate(37.022 145.063)" opacity="0.5">
              <g id="Grupo_1102585" data-name="Grupo 1102585">
                <g id="Grupo_1102584" data-name="Grupo 1102584" clip-path="url(#clip-path-19)">
                  <path id="Trazado_887108" data-name="Trazado 887108" d="M238.558,916.124l-.423.924-.762.7-3.479,4.874-.105-.089,3.487-4.879.762-.7.412-.907Z" transform="translate(-233.789 -916.046)" fill="#5eb9f7"/>
                </g>
              </g>
            </g>
            <path id="Trazado_887109" data-name="Trazado 887109" d="M228.621,955.05l-1.126-.8a.222.222,0,0,1,.258-.361l1.125.8a.222.222,0,1,1-.258.361" transform="translate(-191.392 -802.796)" fill="#f77c7c"/>
            <path id="Trazado_887110" data-name="Trazado 887110" d="M197.307,973.875h0a.2.2,0,0,1-.046-.273l3.062-4.29a.2.2,0,1,1,.319.227l-3.062,4.29a.2.2,0,0,1-.273.046" transform="translate(-165.993 -815.745)" fill="#e96362"/>
            <path id="Trazado_887111" data-name="Trazado 887111" d="M200.861,976.412h0a.2.2,0,0,1-.046-.273l3.062-4.29a.2.2,0,1,1,.318.227l-3.062,4.29a.2.2,0,0,1-.273.046" transform="translate(-168.985 -817.881)" fill="#e96362"/>
            <path id="Trazado_887112" data-name="Trazado 887112" d="M204.415,978.948h0a.2.2,0,0,1-.046-.273l3.062-4.29a.2.2,0,0,1,.319.227l-3.062,4.29a.2.2,0,0,1-.273.046" transform="translate(-171.976 -820.015)" fill="#e96362"/>
            <path id="Trazado_887113" data-name="Trazado 887113" d="M83.543,994.922c-.835.267-1.476.476-1.612.519,0,0-.006,0-.009,0l-.02.009,0,0c-.409.107-.879.235-1.4.374l-.006,0c-4.593,1.224-12.8,3.393-13.2,3.378-.1,0-.206,0-.3-.006a3.022,3.022,0,0,1-2.685-2.044,2.623,2.623,0,0,1-.127-.5c0-.012,0-.015,0-.017s-.006-.009,0-.012c-.012-.064-.02-.128-.029-.188-.009-.079-.014-.157-.017-.235a3.108,3.108,0,0,1,.009-.493,3.069,3.069,0,0,1,.148-.708.275.275,0,0,1,.015-.047l.722-1.229a.137.137,0,0,1,.029-.029c.026-.032.055-.061.084-.09.049-.055.1-.1.157-.151.029-.026.061-.055.1-.084a3.383,3.383,0,0,1,1.868-.731c.073,0,.142-.009.212-.009l.763-.02,1.96-.058.067-.006,1.76-.1.026,0,6.725-.386.94-.052h.009l1.331-.075,1.972-.116.418-.023.07,2.053Z" transform="translate(-53.97 -834.733)" fill="#f6a49d"/>
            <path id="Trazado_887114" data-name="Trazado 887114" d="M159.818,969.828a33.027,33.027,0,0,1,5.21-3.934c2.068-1.059,5.785-.906,5.785-.906s-.331,1.062-1.026,1.288-3.454.941-3.454.941.934,1.721-.075,2.487-4.306,3.024-4.306,3.024Z" transform="translate(-134.51 -812.168)" fill="#f6a49d"/>
            <path id="Trazado_887115" data-name="Trazado 887115" d="M177.092,980.71a1.231,1.231,0,0,1-.606,1.245c-.262.168-3.282,1.169-5.224,1.8-.836.269-1.479.478-1.613.521,0,0-.007,0-.01,0l-.02.008,0,0-.244-.324-1.026-1.375.729-.59,1.664-1.344,2.519-2.037s.141-.013.373-.028a.01.01,0,0,0,.007,0c.905-.058,3.153-.164,3.4.257a.939.939,0,0,1-.009,1.006.553.553,0,0,1,.062.863" transform="translate(-141.688 -823.57)" fill="#f6a49d"/>
            <path id="Trazado_887116" data-name="Trazado 887116" d="M103.578,1122.281l-.213-.328a6.713,6.713,0,0,0,2.781-5.906l.39-.034a7.115,7.115,0,0,1-2.958,6.268" transform="translate(-86.996 -939.284)" fill="#524660"/>
            <path id="Trazado_887117" data-name="Trazado 887117" d="M169.121,1103.628l-.371-.124.784-2.352-2.193-4.96.358-.158,2.254,5.1Z" transform="translate(-140.841 -922.469)" fill="#524660"/>
            <path id="Trazado_887118" data-name="Trazado 887118" d="M157.672,1107.475a.4.4,0,0,1-.038-.063L155.1,1102.2l.352-.171,2.537,5.218Z" transform="translate(-130.538 -927.511)" fill="#524660"/>
            <path id="Trazado_887119" data-name="Trazado 887119" d="M195.581,1089.891a6.01,6.01,0,0,1-3.792-1.419l.244-.306a5.126,5.126,0,0,0,5.291,1l.175.35a4.728,4.728,0,0,1-1.917.373" transform="translate(-161.418 -915.846)" fill="#524660"/>
            <path id="Trazado_887120" data-name="Trazado 887120" d="M153.575,907.3l-2.324,10.921a1.223,1.223,0,0,1-1.339.96l-.831-.1,2.421-11.8.734.026Z" transform="translate(-125.472 -763.609)" fill="#013f20"/>
            <path id="Trazado_887121" data-name="Trazado 887121" d="M105.728,1089.781l-.148-.362,12.5-5.133-13.479.482-.014-.391,13.477-.491a.4.4,0,0,1,.165.761Z" transform="translate(-88.022 -912.245)" fill="#524660"/>
            <path id="Trazado_887122" data-name="Trazado 887122" d="M184.068,1298.689a2.272,2.272,0,0,1-.1-.661c0-1.76,2.083-3.192,4.642-3.192,2.437,0,4.471,1.307,4.632,2.976l-.389.038c-.142-1.471-2.005-2.623-4.243-2.623-2.344,0-4.251,1.257-4.251,2.8a1.881,1.881,0,0,0,.082.547Z" transform="translate(-154.836 -1089.789)" fill="#524660"/>
            <path id="Trazado_887123" data-name="Trazado 887123" d="M103.456,1165.369l-16.186-3.575.085-.382,15.327,3.385L91.4,1144.88l.341-.193Z" transform="translate(-73.451 -963.417)" fill="#524660"/>
            <path id="Trazado_887124" data-name="Trazado 887124" d="M303.6,1100.048a2.945,2.945,0,0,1-1.421-.393,4.524,4.524,0,0,1-1.875-2.114,4.3,4.3,0,0,1-.152-3.414l.415.181a3.846,3.846,0,0,0,.149,3.047,4.07,4.07,0,0,0,1.681,1.9,2.183,2.183,0,0,0,1.978.171q.048-.022.093-.045l.21.4c-.038.02-.076.039-.116.057a2.323,2.323,0,0,1-.963.205" transform="translate(-252.379 -920.864)" fill="#524660"/>
            <path id="Trazado_887125" data-name="Trazado 887125" d="M298.038,949.158a2.864,2.864,0,0,1-.391.183,2.519,2.519,0,0,1,.226.148.935.935,0,0,1,.026.772,3.4,3.4,0,0,1-.9.525s.125.041.154.087a.828.828,0,0,1-.075.574,13.747,13.747,0,0,1-2.836.951,1.052,1.052,0,0,1-.223.023c-.191-.006-.47-.009-.737-.012H292.8c-.731-.264-1.5-.316-1.978-1.009-.458-.658-.171-1.1-.415-1.143a.8.8,0,0,1-.012-.795,26.342,26.342,0,0,1,1.9-2.79,3,3,0,0,1,.679-.371,3.454,3.454,0,0,1,2.05-.165c.18.133.316,1.009.316,1.009a.064.064,0,0,1,.012-.015v0a.475.475,0,0,1,.27-.2,4.867,4.867,0,0,1,1.29-.128,1.611,1.611,0,0,1,.348.8c-.015.09-.16.154-.165.159a1.672,1.672,0,0,1,.623.055,1.224,1.224,0,0,1,.452.737,1.169,1.169,0,0,1-.136.606" transform="translate(-244.328 -796.237)" fill="#f6a49d"/>
            <path id="Trazado_887126" data-name="Trazado 887126" d="M296.44,991.986a1.283,1.283,0,1,0,.837,1.61,1.283,1.283,0,0,0-.837-1.61m-.234,1.91-.671-.212-.152-.687.519-.475.671.212.152.687Z" transform="translate(-248.091 -834.847)" fill="#5eb9f7"/>
            <rect id="Rectángulo_403687" data-name="Rectángulo 403687" width="11.753" height="1.573" transform="translate(47.26 157.45) rotate(-72.472)" fill="#5eb9f7"/>
            <rect id="Rectángulo_403688" data-name="Rectángulo 403688" width="11.588" height="1.573" transform="translate(47.627 157.376) rotate(-72.472)" fill="#8ad8ff"/>
            <path id="Trazado_887127" data-name="Trazado 887127" d="M309.344,946.838h0a.249.249,0,0,1-.162-.312l1.828-5.788a.248.248,0,0,1,.473.15l-1.828,5.788a.248.248,0,0,1-.311.162" transform="translate(-260.211 -791.619)" fill="#5eb9f7"/>
            <path id="Trazado_887128" data-name="Trazado 887128" d="M339.7,903.078l.412.13-.023.822-.349-.268Z" transform="translate(-285.91 -760.069)" fill="#5eb9f7"/>
            <path id="Trazado_887129" data-name="Trazado 887129" d="M318.55,902.721a2.589,2.589,0,0,1-3.249,1.689,2.327,2.327,0,0,1-1.373-3.149,2.673,2.673,0,0,1,2.159-1.752l-1.1,2.069-.015.014.25,1.132,1.105.349.855-.783,0-.019.694-2.2a2.589,2.589,0,0,1,.674,2.647" transform="translate(-264.081 -757.065)" fill="#5eb9f7"/>
            <path id="Trazado_887130" data-name="Trazado 887130" d="M319.672,902.867a2.589,2.589,0,1,1-2.866-3.339l-.694,2.2-.015.014.25,1.132,1.105.349.855-.783,0-.019.694-2.2a2.589,2.589,0,0,1,.674,2.647" transform="translate(-264.792 -757.081)" fill="#8ad8ff"/>
            <path id="Trazado_887131" data-name="Trazado 887131" d="M297.756,991.929a1.283,1.283,0,1,0,.837,1.61,1.283,1.283,0,0,0-.837-1.61m-.234,1.91-.671-.212-.152-.687.519-.475.671.212.152.687Z" transform="translate(-249.199 -834.799)" fill="#8ad8ff"/>
            <path id="Trazado_887132" data-name="Trazado 887132" d="M299.384,948.639a.274.274,0,0,1-.368.136,7.036,7.036,0,0,1-1.009-1.053,2.586,2.586,0,0,0-1,.98c-.217.539-2.085,1.65-2.085,1.65s.789-2.9,1.563-3.709a3.036,3.036,0,0,1,.383-.342,3.454,3.454,0,0,1,2.05-.165c.18.133.316,1.009.316,1.009a.062.062,0,0,1,.012-.014s.177,1.4.139,1.508" transform="translate(-248.218 -796.237)" fill="#f6a49d"/>
            <path id="Trazado_887133" data-name="Trazado 887133" d="M320.139,966.145c-.427-.158-.635-.331-.635-.53,0-.235.3-.409.48-.49a.65.65,0,0,1-.337-.515.8.8,0,0,1,.347-.572c-.32-.069-.507-.189-.557-.359-.081-.273.228-.55.242-.562l.085.1c-.073.064-.251.267-.2.428.042.141.251.243.606.3l.179.026-.156.093s-.415.251-.413.552c0,.166.129.324.38.471l.118.069-.129.047c-.133.048-.512.229-.512.418,0,.133.2.278.55.409Z" transform="translate(-268.841 -810.601)" fill="#d47c74"/>
          </g>
        </g>
      </g>
    </g>
  </g>
</svg>
