<svg xmlns="http://www.w3.org/2000/svg" xmlns:xlink="http://www.w3.org/1999/xlink" width="85" height="85" viewBox="0 0 85 85">
  <defs>
    <clipPath id="clip-path">
      <rect id="Rectángulo_401458" data-name="Rectángulo 401458" width="71.908" height="71.908" transform="translate(296.73 6163)" fill="#feefe9" stroke="#707070" stroke-width="1"/>
    </clipPath>
  </defs>
  <g id="Grupo_1100016" data-name="Grupo 1100016" transform="translate(-284.73 -6151)">
    <circle id="Elipse_11499" data-name="Elipse 11499" cx="42.5" cy="42.5" r="42.5" transform="translate(284.73 6151)" fill="#f35923"/>
    <g id="Enmascarar_grupo_1098708" data-name="Enmascarar grupo 1098708" transform="translate(-6.781 -5.454)" clip-path="url(#clip-path)">
      <g id="Grupo_1102397" data-name="Grupo 1102397" transform="translate(303.021 6167.442)">
        <path id="Trazado_886449" data-name="Trazado 886449" d="M31.633,11.35A20.283,20.283,0,1,0,51.915,31.633,20.283,20.283,0,0,0,31.633,11.35Zm0,38.6A18.318,18.318,0,1,1,49.951,31.633,18.318,18.318,0,0,1,31.633,49.951Z" transform="translate(-0.206 -0.039)" fill="#feefe9"/>
        <path id="Trazado_886450" data-name="Trazado 886450" d="M34.643,2.688a2.691,2.691,0,1,0-5.373,0,2.672,2.672,0,0,0,1.7,2.5,1.14,1.14,0,0,0,0,.177V8.316a.982.982,0,1,0,1.964,0V5.37a1.14,1.14,0,0,0,0-.177,2.672,2.672,0,0,0,1.709-2.5Z" transform="translate(-0.525 0.165)" fill="#feefe9"/>
        <path id="Trazado_886451" data-name="Trazado 886451" d="M32.933,58.636a.57.57,0,0,0,0-.177V55.512a.982.982,0,0,0-1.964,0v2.947a1.14,1.14,0,0,0,0,.177,2.727,2.727,0,1,0,1.964,0Z" transform="translate(-0.524 -0.808)" fill="#feefe9"/>
        <path id="Trazado_886452" data-name="Trazado 886452" d="M47.925,14.552a.979.979,0,0,0,1.385,1.385L51.4,13.9a1.377,1.377,0,0,0,.1-.157,2.691,2.691,0,1,0-1.336-1.336l-.157.1Z" transform="translate(-0.852 0.009)" fill="#feefe9"/>
        <path id="Trazado_886453" data-name="Trazado 886453" d="M14.551,47.926l-2.092,2.082c0,.049-.059.108-.1.157A2.691,2.691,0,1,0,13.7,51.5l.157-.1,2.082-2.092a.982.982,0,0,0-1.385-1.385Z" transform="translate(-0.157 -0.686)" fill="#feefe9"/>
        <path id="Trazado_886454" data-name="Trazado 886454" d="M61.15,29.26a2.681,2.681,0,0,0-2.514,1.709,1.14,1.14,0,0,0-.177,0H55.512a.982.982,0,0,0,0,1.964h2.947a1.14,1.14,0,0,0,.177,0A2.681,2.681,0,1,0,61.15,29.3Z" transform="translate(-0.975 -0.358)" fill="#feefe9"/>
        <path id="Trazado_886455" data-name="Trazado 886455" d="M9.3,31.951a.982.982,0,0,0-.982-.982H5.373a.57.57,0,0,0-.177,0,2.681,2.681,0,1,0,0,1.886,1.139,1.139,0,0,0,.177,0H8.319a.982.982,0,0,0,.982-.9Z" transform="translate(-0.004 -0.358)" fill="#feefe9"/>
        <path id="Trazado_886456" data-name="Trazado 886456" d="M51.5,50.165a1.374,1.374,0,0,0-.1-.157l-2.092-2.082a.982.982,0,0,0-1.385,1.385L50.008,51.4l.157.1A2.691,2.691,0,1,0,51.5,50.165Z" transform="translate(-0.853 -0.686)" fill="#feefe9"/>
        <path id="Trazado_886457" data-name="Trazado 886457" d="M13.157,9.356a2.691,2.691,0,1,0-.8,4.341c0,.049.059.108.1.157l2.092,2.082a.983.983,0,1,0,1.385-1.395L13.9,12.459l-.157-.1A2.672,2.672,0,0,0,13.157,9.356Z" transform="translate(-0.156 0.01)" fill="#feefe9"/>
        <path id="Trazado_886458" data-name="Trazado 886458" d="M45.6,34.558a4.675,4.675,0,0,0,1.287-3.212,4.607,4.607,0,0,0-.982-2.888,5.628,5.628,0,0,0,.138-1.208,5.471,5.471,0,0,0-3.438-5.107v-.118a4.557,4.557,0,0,0-1.257-3.153h0a4.322,4.322,0,0,0-2.161-1.208H39.1a3.752,3.752,0,0,0-.884-.1,3.929,3.929,0,0,0-.756.079h-.334a6.325,6.325,0,0,0-3.143-.835,3.153,3.153,0,0,0-2.22.923,3.153,3.153,0,0,0-2.22-.923,6.325,6.325,0,0,0-3.143.835,4.056,4.056,0,0,0-1.09-.147,4.469,4.469,0,0,0-4.41,4.518v.118a5.471,5.471,0,0,0-3.438,5.107,5.628,5.628,0,0,0,.138,1.208,4.607,4.607,0,0,0-.982,2.888,4.675,4.675,0,0,0,1.287,3.212,4.724,4.724,0,0,0-.2,1.11,4.636,4.636,0,0,0,2.23,3.929,5.305,5.305,0,0,0,0,.55,5.422,5.422,0,0,0,6.149,5.441,6.335,6.335,0,0,0,3.448.982h4.44a6.345,6.345,0,0,0,3.428-.982,5.461,5.461,0,0,0,.805.079A5.353,5.353,0,0,0,42,44.086a1.149,1.149,0,0,0,.206-.295,5.6,5.6,0,0,0,1.306-3.6V39.8a4.449,4.449,0,0,0,2.22-3.84v-.069a1.769,1.769,0,0,0,0-.216A4.724,4.724,0,0,0,45.6,34.558ZM20.853,26.7a.982.982,0,1,1,1.66-1.041,2.544,2.544,0,0,0,1.572,1.159,2.347,2.347,0,0,0,.579.049,4.489,4.489,0,0,1-.786-3.516,1,1,0,1,1,1.964.383,2.524,2.524,0,0,0,1.964,2.947.981.981,0,0,1-.206,1.945h-.2a5.342,5.342,0,0,1-.8-.246,4.44,4.44,0,0,1-1.964.452,4.98,4.98,0,0,1-.982-.108,4.508,4.508,0,0,1-2.809-1.984Zm2.308,7.317a.982.982,0,0,1-.825.432.923.923,0,0,1-.54-.167.982.982,0,0,1-.275-1.355,4.5,4.5,0,0,1,6.276-1.2.985.985,0,0,1-1.09,1.64,2.514,2.514,0,0,0-3.5.707Zm6.09,6.817a.982.982,0,0,1-.982.855h-.138a.982.982,0,0,1-.835-1.12,2.5,2.5,0,0,0-2.161-2.829.99.99,0,1,1,.255-1.964,4.5,4.5,0,0,1,3.86,5.039Zm14.625-7.406a.982.982,0,0,0-.314,1.247,2.76,2.76,0,0,1,.216.982,2.632,2.632,0,0,1-1.689,2.475.9.9,0,0,0-.393.285,2.258,2.258,0,0,1-.442.049.982.982,0,0,0,0,1.964h.3A3.4,3.4,0,0,1,37.4,43.644h-.079a3.28,3.28,0,0,1-1.552-.874.986.986,0,1,0-1.395,1.395,6.267,6.267,0,0,0,.511.413,4.273,4.273,0,0,1-.982.118h-1.2V20.14a1.267,1.267,0,0,1,1.238-1.3A4.224,4.224,0,0,1,35,18.981a.982.982,0,0,0,1.454,1.287,2.446,2.446,0,0,1,3.34-.088,2.583,2.583,0,0,1,.835,1.905,2.554,2.554,0,0,1-.069.6.982.982,0,0,0,.766,1.188,3.467,3.467,0,0,1,2.74,3.438,3.575,3.575,0,0,1-.2,1.149.982.982,0,0,0,.255.982,2.681,2.681,0,0,1-.246,4.047Z" transform="translate(-0.3 -0.137)" fill="#feefe9"/>
        <path id="Trazado_886459" data-name="Trazado 886459" d="M42.624,25.489a.982.982,0,0,0-1.355.314,2.514,2.514,0,0,1-1.572,1.12,2.947,2.947,0,0,1-.579.059c0-.059.088-.1.128-.157a4.479,4.479,0,0,0,.668-3.369,1,1,0,1,0-1.964.383,2.524,2.524,0,0,1-1.964,2.947.987.987,0,1,0,.187,1.964h.2a4.391,4.391,0,0,0,.8-.246,4.44,4.44,0,0,0,1.964.452,4.98,4.98,0,0,0,.982-.108,4.479,4.479,0,0,0,2.8-1.964.982.982,0,0,0-.285-1.395Z" transform="translate(-0.629 -0.24)" fill="#feefe9"/>
        <path id="Trazado_886460" data-name="Trazado 886460" d="M39.412,31.308a4.449,4.449,0,0,0-3.369.668.982.982,0,0,0,1.09,1.63,2.514,2.514,0,0,1,3.5.707.982.982,0,0,0,.825.432.923.923,0,0,0,.54-.167.982.982,0,0,0,.275-1.355,4.459,4.459,0,0,0-2.858-1.915Z" transform="translate(-0.639 -0.393)" fill="#feefe9"/>
        <path id="Trazado_886461" data-name="Trazado 886461" d="M38.379,36.179a4.5,4.5,0,0,0-3.86,5.039.982.982,0,0,0,.982.845h.128a.982.982,0,0,0,.845-1.149,2.5,2.5,0,0,1,2.171-2.829.991.991,0,0,0-.265-1.964Z" transform="translate(-0.618 -0.48)" fill="#feefe9"/>
      </g>
    </g>
  </g>
</svg>
