<svg xmlns="http://www.w3.org/2000/svg" width="85" height="85" viewBox="0 0 85 85">
  <g id="Grupo_1100019" data-name="Grupo 1100019" transform="translate(-284.73 -6151)">
    <circle id="Elipse_11499" data-name="Elipse 11499" cx="42.5" cy="42.5" r="42.5" transform="translate(284.73 6151)" fill="#f35923"/>
    <g id="Grupo_1102399" data-name="Grupo 1102399" transform="translate(302.286 6168.555)">
      <path id="Trazado_886463" data-name="Trazado 886463" d="M141,0a19,19,0,1,0,19,19A19.023,19.023,0,0,0,141,0Zm0,32.155A13.154,13.154,0,1,1,154.159,19,13.169,13.169,0,0,1,141,32.155Zm0,0" transform="translate(-110.116)" fill="#feefe9"/>
      <path id="Trazado_886464" data-name="Trazado 886464" d="M222.235,90a10.231,10.231,0,1,0,10.231,10.231A10.244,10.244,0,0,0,222.235,90Zm-1.462,16.683-5.418-5.418,2.067-2.067,3.351,3.351,6.275-6.275,2.067,2.067Zm0,0" transform="translate(-191.346 -81.23)" fill="#feefe9"/>
      <path id="Trazado_886465" data-name="Trazado 886465" d="M6.2,411.629l-6.2-6.2,4.636-4.636,6.2,6.2Zm0,0" transform="translate(0 -361.74)" fill="#feefe9"/>
      <path id="Trazado_886466" data-name="Trazado 886466" d="M80.9,325.161a22.1,22.1,0,0,1-6.2-6.2l-5.907,5.907,6.2,6.2Zm0,0" transform="translate(-62.09 -287.881)" fill="#feefe9"/>
    </g>
  </g>
</svg>
