<svg xmlns="http://www.w3.org/2000/svg" width="85" height="85" viewBox="0 0 85 85">
  <g id="Grupo_1100163" data-name="Grupo 1100163" transform="translate(-284.73 -6151)">
    <circle id="Elipse_11499" data-name="Elipse 11499" cx="42.5" cy="42.5" r="42.5" transform="translate(284.73 6151)" fill="#f35923"/>
    <g id="Grupo_1102493" data-name="Grupo 1102493" transform="translate(302.713 6165.485)">
      <path id="Trazado_886779" data-name="Trazado 886779" d="M1.759,49.965H35.137a.759.759,0,0,0,.759-.759V46.93a9.873,9.873,0,0,0-9.862-9.862H23V35.078a9.1,9.1,0,0,0,4.552-7.871,3.034,3.034,0,0,0,1.118-5.85v0a11.007,11.007,0,0,0,1.158-4.9,5.939,5.939,0,0,0-5.939-5.939H22.555a1.845,1.845,0,0,1-1.295-.536A3.324,3.324,0,0,0,18.892,9H13.008a5.939,5.939,0,0,0-5.939,5.939v.531a15.206,15.206,0,0,0,1.192,5.878,3.029,3.029,0,0,0,1.084,5.859A9.1,9.1,0,0,0,13.9,35.078v1.991H10.862A9.873,9.873,0,0,0,1,46.93v2.276a.759.759,0,0,0,.759.759ZM24.791,23.3a3.019,3.019,0,0,0-5.477.872H17.582A3.019,3.019,0,0,0,12.1,23.3l-1.2-1.6a.75.75,0,0,1,.718-.56h.391a16.181,16.181,0,0,0,10.924-4.2L25.33,19.81a3.034,3.034,0,0,1,.695,1.845Zm-1.033,1.631a1.517,1.517,0,1,1-1.517-1.517A1.517,1.517,0,0,1,23.758,24.931Zm-7.586,0a1.517,1.517,0,1,1-1.517-1.517A1.517,1.517,0,0,1,16.172,24.931Zm11.379.759V22.655a1.517,1.517,0,1,1,0,3.034ZM8.586,14.939a4.421,4.421,0,0,1,4.423-4.422h5.884a1.845,1.845,0,0,1,1.295.536,3.324,3.324,0,0,0,2.368.981h1.333a4.421,4.421,0,0,1,4.422,4.423,9.483,9.483,0,0,1-.94,4.087,4.539,4.539,0,0,0-.874-1.705l-2.914-3.5a.759.759,0,0,0-1.119-.051A14.686,14.686,0,0,1,12.011,19.62H11.62a2.267,2.267,0,0,0-1.961,1.138,13.7,13.7,0,0,1-1.073-5.289Zm-.759,9.233a1.517,1.517,0,0,1,1.517-1.517v3.034A1.517,1.517,0,0,1,7.827,24.172Zm3.034,3.034V24.172l.788,1.051a3.018,3.018,0,0,0,5.932.467h1.733a3.018,3.018,0,0,0,5.932-.467l.788-1.051v3.034a7.586,7.586,0,0,1-15.172,0Zm7.586,9.1a9.044,9.044,0,0,0,3.034-.531v2.048a3.034,3.034,0,1,1-6.069,0V35.779a9.044,9.044,0,0,0,3.034.531ZM2.517,46.93a8.355,8.355,0,0,1,8.345-8.345h3.1a4.546,4.546,0,0,0,8.967,0h3.1a8.355,8.355,0,0,1,8.345,8.345v1.517H2.517Z" transform="translate(0 -1.932)" fill="#feefe9"/>
      <path id="Trazado_886780" data-name="Trazado 886780" d="M54.17,3.319a9.1,9.1,0,0,0-12.9,12.8,5.894,5.894,0,0,1,1.479,3.239,2.276,2.276,0,0,0-1.479,2.124v3.034a2.276,2.276,0,0,0,2.276,2.276h.759v.759a3.793,3.793,0,0,0,7.586,0v-.759h.759a2.276,2.276,0,0,0,2.276-2.276V21.482a2.276,2.276,0,0,0-1.486-2.124,5.755,5.755,0,0,1,1.456-3.2A9.094,9.094,0,0,0,54.17,3.319ZM50.377,27.551a2.276,2.276,0,1,1-4.552,0v-.759h4.552Zm3.034-3.034a.759.759,0,0,1-.759.759h-9.1a.759.759,0,0,1-.759-.759V21.482a.759.759,0,0,1,.759-.759h9.1a.759.759,0,0,1,.759.759Zm.355-9.375a7.26,7.26,0,0,0-1.833,4.065H44.272a7.424,7.424,0,0,0-1.86-4.093A7.521,7.521,0,0,1,40.567,9.2a7.6,7.6,0,0,1,6.664-6.639,7.586,7.586,0,0,1,6.535,12.58Z" transform="translate(-9.171 0)" fill="#feefe9"/>
      <path id="Trazado_886781" data-name="Trazado 886781" d="M43,11.069h1.517a4.556,4.556,0,0,1,4.552-4.552V5A6.076,6.076,0,0,0,43,11.069Z" transform="translate(-10.139 -0.966)" fill="#feefe9"/>
    </g>
  </g>
</svg>
