<svg xmlns="http://www.w3.org/2000/svg" width="85" height="85" viewBox="0 0 85 85">
  <g id="Grupo_1100038" data-name="Grupo 1100038" transform="translate(-284.73 -6151)">
    <circle id="Elipse_11499" data-name="Elipse 11499" cx="42.5" cy="42.5" r="42.5" transform="translate(284.73 6151)" fill="#f35923"/>
    <g id="Grupo_1102407" data-name="Grupo 1102407" transform="translate(290.461 6156.67)">
      <g id="Grupo_1102406" data-name="Grupo 1102406" transform="translate(13.458 13.806)">
        <g id="Grupo_1102403" data-name="Grupo 1102403" transform="translate(0 0)">
          <path id="Trazado_886486" data-name="Trazado 886486" d="M53.039,51.208a4.386,4.386,0,0,1,4.386,4.386c0,2.852-2.052,2.184-2.052,7.358H50.7c0-5.173-2.052-4.506-2.052-7.358A4.386,4.386,0,0,1,53.039,51.208Z" transform="translate(-48.653 -51.208)" fill="#fdcd56" fill-rule="evenodd"/>
          <path id="Trazado_886487" data-name="Trazado 886487" d="M60.385,144.733h4.847a.727.727,0,0,1,.725.725v1.565a.727.727,0,0,1-.725.725h-.745v.727a.686.686,0,0,1-.684.684H61.815a.686.686,0,0,1-.684-.684v-.727h-.745a.727.727,0,0,1-.725-.725v-1.565a.727.727,0,0,1,.725-.725Z" transform="translate(-58.423 -134.218)" fill="#e4e8eb" fill-rule="evenodd"/>
        </g>
        <path id="Trazado_886488" data-name="Trazado 886488" d="M351.294,343.766a2.024,2.024,0,0,0-1.431,3.454.6.6,0,0,1,0,.849l-1.293,1.293a.6.6,0,0,1-.849,0,2.024,2.024,0,0,0-3.453,1.431.6.6,0,0,1-.6.6H341.84a.6.6,0,0,1-.6-.6,2.023,2.023,0,0,0-3.454-1.431.6.6,0,0,1-.849,0l-1.293-1.293a.6.6,0,0,1,0-.849,2.024,2.024,0,0,0-1.431-3.454.6.6,0,0,1-.6-.6v-1.828a.6.6,0,0,1,.6-.6,2.024,2.024,0,0,0,1.431-3.453.6.6,0,0,1,0-.849l1.293-1.293a.6.6,0,0,1,.849,0,2.024,2.024,0,0,0,3.454-1.431.6.6,0,0,1,.6-.6h1.828a.6.6,0,0,1,.6.6,2.024,2.024,0,0,0,3.453,1.431.6.6,0,0,1,.849,0l1.293,1.293a.6.6,0,0,1,0,.849,2.024,2.024,0,0,0,1.431,3.453.6.6,0,0,1,.6.6v1.828A.6.6,0,0,1,351.294,343.766Zm-8.54-5.906a4.392,4.392,0,1,0,4.392,4.392A4.392,4.392,0,0,0,342.754,337.86Z" transform="translate(-301.576 -301.418)" fill="#636c77" fill-rule="evenodd"/>
        <g id="Grupo_1102404" data-name="Grupo 1102404" transform="translate(5.254 4.91)">
          <path id="Trazado_886489" data-name="Trazado 886489" d="M129.693,94.88a1.855,1.855,0,1,1-1.855,1.855A1.855,1.855,0,0,1,129.693,94.88ZM97.238,127.335a1.855,1.855,0,1,1-1.855,1.855A1.855,1.855,0,0,1,97.238,127.335Z" transform="translate(-95.383 -94.88)" fill="#c7e0ec" fill-rule="evenodd"/>
        </g>
        <g id="Grupo_1102405" data-name="Grupo 1102405" transform="translate(11.399 9.209)">
          <path id="Trazado_886490" data-name="Trazado 886490" d="M161.984,133.12l-11.937,6.892V153.8l11.937,6.892,11.937-6.892V140.012Z" transform="translate(-150.047 -133.12)" fill="#c89f81" fill-rule="evenodd"/>
          <path id="Trazado_886491" data-name="Trazado 886491" d="M268.159,194.42V208.2L256.222,215.1V201.312Z" transform="translate(-244.285 -187.528)" fill="#d5a889" fill-rule="evenodd"/>
          <path id="Trazado_886492" data-name="Trazado 886492" d="M161.984,133.12l-11.937,6.892,11.937,6.892,11.937-6.892Z" transform="translate(-150.047 -133.12)" fill="#dcb190" fill-rule="evenodd"/>
          <path id="Trazado_886493" data-name="Trazado 886493" d="M191.688,155.244l-3.321,1.917,11.937,6.892V169.8l3.321-1.917v-5.743Z" transform="translate(-184.059 -152.757)" fill="#efc7a4" fill-rule="evenodd"/>
          <path id="Trazado_886494" data-name="Trazado 886494" d="M297.862,222.287l-3.321,1.917v-5.743l3.321-1.917Z" transform="translate(-278.296 -207.165)" fill="#e6bd9b" fill-rule="evenodd"/>
        </g>
      </g>
      <path id="Trazado_886495" data-name="Trazado 886495" d="M37.556,49.242V37.276L40.291,35.7v4.38a.786.786,0,0,0,.787.787.8.8,0,0,0,.394-.105l3.32-1.917a.787.787,0,0,0,.394-.681V32.871l2.734-1.578V43.259ZM17.974,9.068h-.31a.788.788,0,0,0-.632.771v1.41a.787.787,0,0,0,1.574,0V9.839A.787.787,0,0,0,17.974,9.068Zm7.645,22.225,10.364,5.983V49.242L25.619,43.259Zm16.246,3.5v3.926l1.746-1.008V33.78Zm-.787-1.363,1.746-1.008L32.461,26.434l-1.747,1.009Zm-4.308,2.487L39.5,34.335,29.14,28.352,26.406,29.93Zm0-11.967-2.734,1.579L44.4,31.509l2.734-1.579Zm.394-1.59a.787.787,0,0,0-.787,0L24.438,29.249a.788.788,0,0,0-.394.681V43.713a.789.789,0,0,0,.394.682l11.937,6.892a.789.789,0,0,0,.787,0L49.1,44.4a.787.787,0,0,0,.394-.682V29.93a.786.786,0,0,0-.394-.681ZM54.61,58.268a3.605,3.605,0,1,1,3.605-3.6A3.609,3.609,0,0,1,54.61,58.268Zm0-8.784a5.179,5.179,0,1,1-5.179,5.179A5.185,5.185,0,0,1,54.61,49.484ZM62.965,55.4V53.93a2.812,2.812,0,0,1-1.928-4.655L60,48.238a2.811,2.811,0,0,1-4.654-1.928H53.877a2.811,2.811,0,0,1-4.654,1.928l-1.038,1.037a2.812,2.812,0,0,1-1.928,4.655V55.4a2.811,2.811,0,0,1,1.928,4.655l1.038,1.037a2.81,2.81,0,0,1,4.654,1.928h1.468A2.811,2.811,0,0,1,60,61.089l1.037-1.037A2.812,2.812,0,0,1,62.965,55.4Zm.187-3.035a1.237,1.237,0,0,1-.875-2.11,1.389,1.389,0,0,0,0-1.962L60.983,47a1.389,1.389,0,0,0-1.962,0,1.237,1.237,0,0,1-2.11-.874,1.389,1.389,0,0,0-1.387-1.388H53.7a1.389,1.389,0,0,0-1.387,1.388A1.237,1.237,0,0,1,50.2,47a1.389,1.389,0,0,0-1.962,0L46.944,48.29a1.389,1.389,0,0,0,0,1.962,1.237,1.237,0,0,1-.873,2.11,1.39,1.39,0,0,0-1.388,1.388v1.828a1.39,1.39,0,0,0,1.388,1.387,1.237,1.237,0,0,1,.873,2.11,1.389,1.389,0,0,0,0,1.962l1.293,1.292a1.389,1.389,0,0,0,1.963,0,1.235,1.235,0,0,1,2.109.874A1.389,1.389,0,0,0,53.7,64.591h1.828A1.389,1.389,0,0,0,56.912,63.2a1.237,1.237,0,0,1,2.11-.874,1.39,1.39,0,0,0,1.963,0l1.291-1.292a1.39,1.39,0,0,0,0-1.962,1.237,1.237,0,0,1,.875-2.11,1.389,1.389,0,0,0,1.387-1.387V53.749a1.389,1.389,0,0,0-1.387-1.388ZM20.744,20.242a7.215,7.215,0,0,0-1.253,3.315h-.886V19.486l1.488-.859a.787.787,0,1,0-.787-1.363l-1.487.859-1.488-.859a.787.787,0,0,0-.787,1.363l1.487.859v4.071h-.885a7.2,7.2,0,0,0-1.254-3.315,3.134,3.134,0,0,1-.673-2.026,3.6,3.6,0,0,1,7.2,0A3.134,3.134,0,0,1,20.744,20.242Zm-.563,6.33H19.5a.788.788,0,0,0-.787.787v.624H16.928v-.624a.788.788,0,0,0-.787-.787h-.683V25.131h4.723v1.441Zm2.812-8.356a5.173,5.173,0,0,0-10.347,0,4.655,4.655,0,0,0,.926,2.881,5.7,5.7,0,0,1,1.018,2.7,1.509,1.509,0,0,0-.707,1.278v1.565a1.514,1.514,0,0,0,1.472,1.511,1.472,1.472,0,0,0,1.469,1.411h1.989a1.473,1.473,0,0,0,1.469-1.411,1.514,1.514,0,0,0,1.472-1.511V25.069a1.512,1.512,0,0,0-.707-1.278,5.7,5.7,0,0,1,1.018-2.7A4.658,4.658,0,0,0,22.993,18.215Zm.955-2.64a.788.788,0,0,1,.289-1.075l1.221-.705a.787.787,0,0,1,.787,1.363l-1.221.705a.789.789,0,0,1-1.076-.288ZM21.07,11.91l.705-1.222a.787.787,0,0,1,1.363.787L22.432,12.7a.786.786,0,1,1-1.362-.787ZM10.615,15.864l-1.221-.705a.787.787,0,0,1,.787-1.363L11.4,14.5a.787.787,0,0,1-.787,1.363ZM12.5,11.476a.787.787,0,0,1,1.363-.787l.705,1.222A.787.787,0,1,1,13.2,12.7Zm41.565,9.118A1.068,1.068,0,1,1,53,19.526,1.069,1.069,0,0,1,54.065,20.594Zm-24.491-4.74A22.252,22.252,0,0,1,50.592,19.5a2.64,2.64,0,0,0,3.5,3.5,22.041,22.041,0,0,1,4.557,17.384l-1.187-1.645a.787.787,0,0,0-1.276.922l2.239,3.1a.783.783,0,0,0,.513.316.772.772,0,0,0,.125.01.789.789,0,0,0,.461-.149l3.1-2.24a.787.787,0,0,0-.922-1.276L60.22,40.492a23.72,23.72,0,0,0-4.955-18.544,2.641,2.641,0,0,0-3.622-3.621,23.837,23.837,0,0,0-22.58-3.962.787.787,0,1,0,.512,1.489Zm-10.1,37.2a1.068,1.068,0,1,1,1.068,1.067A1.069,1.069,0,0,1,19.474,53.05Zm24.491,4.74a22.26,22.26,0,0,1-21.019-3.648,2.615,2.615,0,0,0,.238-1.093,2.641,2.641,0,0,0-3.736-2.4,22.235,22.235,0,0,1-4.554-17.382l1.186,1.643a.787.787,0,1,0,1.276-.921l-2.239-3.1a.788.788,0,0,0-1.1-.177l-3.1,2.239a.787.787,0,1,0,.922,1.276l1.479-1.068A23.811,23.811,0,0,0,18.274,51.7,2.64,2.64,0,0,0,21.9,55.317a23.837,23.837,0,0,0,14.92,5.235,23.592,23.592,0,0,0,7.659-1.273.787.787,0,1,0-.51-1.489Z" transform="translate(0)" fill-rule="evenodd"/>
    </g>
  </g>
</svg>
