<svg xmlns="http://www.w3.org/2000/svg" width="85" height="85" viewBox="0 0 85 85">
  <g id="Grupo_1099630" data-name="Grupo 1099630" transform="translate(-284.73 -6151)">
    <circle id="Elipse_11499" data-name="Elipse 11499" cx="42.5" cy="42.5" r="42.5" transform="translate(284.73 6151)" fill="#016835"/>
    <g id="Grupo_1099643" data-name="Grupo 1099643" transform="translate(253.281 6161.205)">
      <path id="Trazado_881827" data-name="Trazado 881827" d="M59.048,25.864a.92.92,0,0,0,1.84,0A13.054,13.054,0,0,1,67.78,14.348a.92.92,0,1,0-.87-1.621A14.891,14.891,0,0,0,59.048,25.864Zm-8.009,5.311A23.628,23.628,0,0,1,64.962,3.61a.92.92,0,0,0-.7-1.7A25.488,25.488,0,0,0,49.253,31.62a.92.92,0,1,0,1.785-.445Zm29.08-16.827a13.054,13.054,0,0,1,6.893,11.516.92.92,0,0,0,1.84,0,14.891,14.891,0,0,0-7.862-13.136.92.92,0,1,0-.87,1.621ZM67.838,49.23a.92.92,0,0,0-.62-1.144,23.417,23.417,0,0,1-8.4-4.516.92.92,0,0,0-1.18,1.411,25.245,25.245,0,0,0,9.06,4.869.925.925,0,0,0,1.144-.62ZM95.225,36.462,86.1,28.708a2.843,2.843,0,0,0-4.154.683l-2.9-1.673a5.466,5.466,0,0,0-4.182-7.247V16.945a4.045,4.045,0,0,0,.85-.409,4,4,0,0,0,1.862-3.389V2.554a2.554,2.554,0,0,0-5.066-.46L70.36,13.871a2.685,2.685,0,0,0,1.5,2.912,4.035,4.035,0,0,0,1.169.344v3.346a5.435,5.435,0,0,0-4.182,7.244l-3.057,1.766a4.038,4.038,0,0,0-.78-.533,4,4,0,0,0-3.866.082l-9.173,5.3a2.554,2.554,0,0,0,2.135,4.617l11.276-4.023a2.684,2.684,0,0,0,1.771-2.755,4.038,4.038,0,0,0-.286-1.184l2.9-1.673a5.4,5.4,0,0,0,1.179,1.058l-.846,16.7a.92.92,0,1,0,1.837.093l.811-16.021a5.335,5.335,0,0,0,2.4,0l1.51,29.821H71.237l.48-9.474a.92.92,0,1,0-1.837-.093L69.4,60.955H58.662a.92.92,0,0,0,0,1.84H89.236a.92.92,0,0,0,0-1.84H78.5L76.954,30.367a5.393,5.393,0,0,0,1.177-1.056l3.057,1.765a4.019,4.019,0,0,0,1.933,4.248l9.174,5.3a2.554,2.554,0,0,0,2.931-4.158ZM64.765,33.191,53.488,37.213a.714.714,0,0,1-.859-.316.721.721,0,0,1,.261-.976l9.174-5.3a2.176,2.176,0,0,1,3.257,1.7.844.844,0,0,1-.557.866Zm7.877-18.073a.843.843,0,0,1-.471-.915L74.324,2.426a.714.714,0,0,1,1.417.129V13.147a2.176,2.176,0,0,1-3.1,1.97Zm4.409,12.546a3.6,3.6,0,1,1-3.1-5.43h.017A3.636,3.636,0,0,1,77.051,27.663Zm17.139,11.1a.715.715,0,0,1-.976.261l-9.174-5.3a2.188,2.188,0,0,1-.157-3.67.847.847,0,0,1,1.028.049l9.122,7.754A.714.714,0,0,1,94.19,38.765ZM73.949,24.914a.92.92,0,1,0,.92.92A.92.92,0,0,0,73.949,24.914ZM89.084,43.57a23.428,23.428,0,0,1-8.4,4.516A.92.92,0,1,0,81.2,49.85a25.258,25.258,0,0,0,9.059-4.868.92.92,0,0,0-1.18-1.411Zm5.9-32.447A25.438,25.438,0,0,0,83.637,1.909a.92.92,0,0,0-.7,1.7A23.649,23.649,0,0,1,96.86,31.175a.92.92,0,0,0,1.785.445,25.515,25.515,0,0,0-3.659-20.5Z" fill="#ebf8ed"/>
    </g>
  </g>
</svg>
