<svg xmlns="http://www.w3.org/2000/svg" width="85" height="85" viewBox="0 0 85 85">
  <g id="Grupo_1100017" data-name="Grupo 1100017" transform="translate(-284.73 -6151)">
    <circle id="Elipse_11499" data-name="Elipse 11499" cx="42.5" cy="42.5" r="42.5" transform="translate(284.73 6151)" fill="#f35923"/>
    <g id="Grupo_1102398" data-name="Grupo 1102398" transform="translate(-4 -2)">
      <path id="Trazado_886462" data-name="Trazado 886462" d="M14.228,8H40.271v5.071a2.042,2.042,0,0,0,2.04,2.04h5.071V31.548a11.939,11.939,0,0,0-3.742-2.873V19.222a2.454,2.454,0,0,0-.728-1.757L37.918,12.47a2.454,2.454,0,0,0-1.757-.728H13.339V8.89a.891.891,0,0,1,.89-.89Zm22.3,5.415v4.994a.446.446,0,0,0,.445.445h4.994a.893.893,0,0,0-.183-.261L36.789,13.6A.891.891,0,0,0,36.529,13.415Zm1.887,15.65a10.3,10.3,0,1,0,6.7,18.122l3.151,3.089-.108.111a.939.939,0,0,0,.02,1.324L53.833,57.2a.939.939,0,0,0,1.324-.02l2.042-2.1a.939.939,0,0,0-.02-1.324l-5.656-5.488a.939.939,0,0,0-1.324.02l-.125.129-3.214-3.15a10.3,10.3,0,0,0-8.444-16.2Zm0,5.1a.8.8,0,0,1,0,1.6,3.6,3.6,0,0,0-3.606,3.606.8.8,0,0,1-1.6,0,5.2,5.2,0,0,1,5.2-5.2Zm0-2.194a7.4,7.4,0,1,1-7.4,7.4A7.4,7.4,0,0,1,38.416,31.968Zm8.9,19.608a.892.892,0,0,1-.821.547H43.64V50.052a11.894,11.894,0,0,0,1.337-.766ZM8.891,13.338a.891.891,0,0,0-.89.89V56.572a.891.891,0,0,0,.89.89H41.155a.891.891,0,0,0,.89-.89V50.693a11.958,11.958,0,0,1-6.27.27.712.712,0,0,1-.677.493H14.948a.712.712,0,0,1,0-1.423H33.155a11.95,11.95,0,0,1-4.918-4.515H14.948a.712.712,0,0,1,0-1.423H27.5a11.841,11.841,0,0,1-.976-4.515H14.948a.712.712,0,0,1,0-1.423H26.583a11.815,11.815,0,0,1,1.4-4.515H14.948a.712.712,0,0,1,0-1.423H28.907a11.906,11.906,0,0,1,13.138-4.185V20.449H36.974a2.042,2.042,0,0,1-2.04-2.04V13.338ZM41.867,8.077v4.994a.446.446,0,0,0,.445.445h4.994a.892.892,0,0,0-.183-.261L42.127,8.261a.892.892,0,0,0-.261-.183ZM14.948,27.7H35.1a.712.712,0,1,0,0-1.423H14.948a.712.712,0,0,0,0,1.423Zm0-5.938H29.412a.712.712,0,0,0,0-1.423H14.948a.712.712,0,0,0,0,1.423Z" transform="translate(300.268 6160.77)" fill="#feefe9" fill-rule="evenodd"/>
    </g>
  </g>
</svg>
