<svg xmlns="http://www.w3.org/2000/svg" width="85" height="85" viewBox="0 0 85 85">
  <g id="Grupo_1100039" data-name="Grupo 1100039" transform="translate(-284.73 -6151)">
    <circle id="Elipse_11499" data-name="Elipse 11499" cx="42.5" cy="42.5" r="42.5" transform="translate(284.73 6151)" fill="#f35923"/>
    <g id="Grupo_1102410" data-name="Grupo 1102410" transform="translate(289.15 6155.42)">
      <g id="Grupo_1102409" data-name="Grupo 1102409" transform="translate(9.947 9.946)">
        <path id="Trazado_886496" data-name="Trazado 886496" d="M43.674,69.8C33.338,73.732,23.95,66.816,19.547,57.186l-2,1.156a.353.353,0,0,1-.525-.365l1.216-7.209a.353.353,0,0,1,.471-.272l6.851,2.552a.353.353,0,0,1,.053.637l-2.357,1.361A24.032,24.032,0,0,0,43.571,69.121a.353.353,0,0,1,.1.683ZM20.492,43.674C16.564,33.338,23.48,23.95,33.109,19.547l-1.156-2a.353.353,0,0,1,.364-.525l7.209,1.216a.353.353,0,0,1,.272.471l-2.552,6.851a.353.353,0,0,1-.637.053L35.25,23.255A24.032,24.032,0,0,0,21.175,43.571a.353.353,0,0,1-.683.1Zm26.13-23.181c10.336-3.929,19.723,2.988,24.126,12.617l2-1.156a.353.353,0,0,1,.525.365L72.06,39.527a.353.353,0,0,1-.471.272l-6.851-2.552a.353.353,0,0,1-.053-.637l2.357-1.361A24.033,24.033,0,0,0,46.725,21.175a.353.353,0,0,1-.1-.683ZM69.8,46.622c3.929,10.336-2.988,19.723-12.617,24.126l1.156,2a.353.353,0,0,1-.364.525L50.769,72.06a.353.353,0,0,1-.272-.471l2.552-6.851a.353.353,0,0,1,.637-.053l1.361,2.357A24.032,24.032,0,0,0,69.121,46.725a.353.353,0,0,1,.683-.1Z" transform="translate(-17.014 -17.014)" fill="#a4d4ff" fill-rule="evenodd"/>
        <g id="Grupo_1102408" data-name="Grupo 1102408" transform="translate(23.861 23.861)">
          <path id="Trazado_886497" data-name="Trazado 886497" d="M223.982,228.254a4.272,4.272,0,1,0-4.272-4.272A4.28,4.28,0,0,0,223.982,228.254Z" transform="translate(-219.71 -219.71)" fill="#c7e0ec" fill-rule="evenodd"/>
        </g>
      </g>
      <path id="Trazado_886498" data-name="Trazado 886498" d="M62.112,50.642c-1.839,5.066-6.337,9.545-12.336,12.288a.832.832,0,0,0-.443.5.841.841,0,0,0,.072.663l.659,1.137L44.4,64.274l2-5.38.864,1.491a.821.821,0,0,0,1.052.338,24.92,24.92,0,0,0,14.3-18.763,14.864,14.864,0,0,1-.51,8.682Zm-.188-13.366a.825.825,0,0,0-.643.8A23.265,23.265,0,0,1,48.313,58.9l-1.357-2.35a.823.823,0,0,0-1.485.124l-2.963,7.956a.816.816,0,0,0,.055.7.838.838,0,0,0,.582.4l8.37,1.411a.714.714,0,0,0,.133.012.826.826,0,0,0,.715-1.236l-1.086-1.879c5.994-2.954,10.48-7.594,12.38-12.838a17.139,17.139,0,0,0-.809-13.48.827.827,0,0,0-.925-.449ZM25.519,62.11c-5.069-1.839-9.544-6.335-12.292-12.335a.817.817,0,0,0-.5-.442.775.775,0,0,0-.249-.04.816.816,0,0,0-.41.111l-1.136.657.953-5.661,5.379,2-1.49.86a.823.823,0,0,0-.338,1.054A24.918,24.918,0,0,0,34.2,62.621a14.858,14.858,0,0,1-8.68-.511Zm12.563-.831A23.259,23.259,0,0,1,17.254,48.312l2.354-1.356a.827.827,0,0,0-.127-1.486l-7.954-2.964a.829.829,0,0,0-1.1.636l-1.407,8.37a.821.821,0,0,0,.338.814.831.831,0,0,0,.886.037l1.878-1.085c2.952,5.99,7.595,10.477,12.835,12.381a16.706,16.706,0,0,0,5.717,1.014,17.964,17.964,0,0,0,7.766-1.827.824.824,0,0,0-.355-1.568ZM14.052,25.517c1.839-5.066,6.331-9.546,12.331-12.288a.832.832,0,0,0,.443-.5.818.818,0,0,0-.072-.663L26.1,10.931l5.661.955-2.005,5.38L28.9,15.775a.83.83,0,0,0-1.058-.339A24.921,24.921,0,0,0,13.537,34.2,14.864,14.864,0,0,1,14.052,25.517ZM14.058,38.9a.848.848,0,0,0,.183-.02.83.83,0,0,0,.643-.8A23.257,23.257,0,0,1,27.845,17.256L29.2,19.605a.827.827,0,0,0,1.49-.125l2.958-7.954a.819.819,0,0,0-.055-.7.833.833,0,0,0-.576-.4l-8.37-1.411a.825.825,0,0,0-.853,1.224l1.086,1.879C18.894,15.072,14.4,19.712,12.5,24.955a17.139,17.139,0,0,0,.809,13.48.832.832,0,0,0,.748.468ZM64.272,31.76l-5.379-2,1.49-.862a.823.823,0,0,0,.338-1.054,24.907,24.907,0,0,0-18.762-14.3,14.864,14.864,0,0,1,8.68.511c5.068,1.839,9.55,6.335,12.292,12.335a.816.816,0,0,0,.5.443.828.828,0,0,0,.665-.071L65.23,26.1ZM66.8,23.833a.82.82,0,0,0-.881-.037l-1.883,1.085C61.087,18.891,56.45,14.4,51.2,12.5a17.116,17.116,0,0,0-13.477.813.822.822,0,0,0,.354,1.568A23.258,23.258,0,0,1,58.9,27.847L56.556,29.2a.825.825,0,0,0,.122,1.487l7.954,2.962a.825.825,0,0,0,.288.052.822.822,0,0,0,.814-.687l1.413-8.371a.833.833,0,0,0-.343-.813ZM34.631,38.08a3.448,3.448,0,1,1,3.451,3.448,3.452,3.452,0,0,1-3.451-3.448ZM41.91,52.3,38.9,49.754V43.108a5.074,5.074,0,0,0,2.149-.892l4.7,4.7-.327,3.925a.831.831,0,0,0,.759.889.545.545,0,0,0,.067,0,.828.828,0,0,0,.82-.756l.2-2.532L49.5,50.662A.823.823,0,0,0,50.662,49.5l-2.216-2.218,2.532-.208a.824.824,0,0,0-.133-1.642l-3.927.322-4.7-4.7a5.071,5.071,0,0,0,.9-2.148h6.642l2.548,3a.816.816,0,0,0,.631.292.824.824,0,0,0,.626-1.358L51.914,38.9h3.135a.824.824,0,1,0,0-1.648H51.914l1.645-1.938A.824.824,0,1,0,52.3,34.252l-2.548,3H43.112a5.073,5.073,0,0,0-.9-2.147l4.7-4.7,3.927.322a.546.546,0,0,0,.067,0,.824.824,0,0,0,.066-1.645l-2.532-.208,2.216-2.218A.823.823,0,1,0,49.5,25.5l-2.221,2.218-.2-2.532a.825.825,0,0,0-1.645.135l.327,3.925-4.7,4.7a5.074,5.074,0,0,0-2.149-.891V26.4l3.008-2.546A.825.825,0,0,0,40.84,22.6L38.9,24.245V21.109a.823.823,0,1,0-1.645,0v3.136L35.318,22.6a.823.823,0,0,0-1.064,1.257l3,2.546v6.647a5.075,5.075,0,0,0-2.149.891l-4.7-4.7.321-3.925a.825.825,0,0,0-1.645-.135l-.2,2.532L26.66,25.5A.823.823,0,1,0,25.5,26.662l2.216,2.218-2.531.208a.824.824,0,0,0,.066,1.645.641.641,0,0,0,.072,0l3.922-.322,4.7,4.7a5.066,5.066,0,0,0-.892,2.147H26.4l-2.548-3A.824.824,0,0,0,22.6,35.318l1.645,1.938H21.109a.824.824,0,1,0,0,1.648h3.135L22.6,40.841a.828.828,0,0,0,.631,1.358.813.813,0,0,0,.626-.292l2.548-3h6.647a5.06,5.06,0,0,0,.892,2.148l-4.7,4.7-3.922-.322a.824.824,0,1,0-.138,1.642l2.531.208L25.5,49.5a.823.823,0,1,0,1.163,1.165l2.221-2.217.2,2.532a.829.829,0,0,0,.825.756.547.547,0,0,0,.067,0,.823.823,0,0,0,.753-.889l-.321-3.925,4.7-4.7a5.076,5.076,0,0,0,2.149.892v6.646l-3,2.546a.823.823,0,0,0,1.064,1.257l1.939-1.643V55.05a.823.823,0,1,0,1.645,0V51.914l1.939,1.643a.816.816,0,0,0,.532.195A.824.824,0,0,0,41.91,52.3Z" fill-rule="evenodd"/>
    </g>
  </g>
</svg>
