<svg xmlns="http://www.w3.org/2000/svg" width="85" height="85" viewBox="0 0 85 85">
  <g id="Grupo_1099768" data-name="Grupo 1099768" transform="translate(-284.73 -6151)">
    <circle id="Elipse_11499" data-name="Elipse 11499" cx="42.5" cy="42.5" r="42.5" transform="translate(284.73 6151)" fill="#016835"/>
    <g id="Grupo_1102073" data-name="Grupo 1102073" transform="translate(294.23 6160.504)">
      <path id="Trazado_885498" data-name="Trazado 885498" d="M35.85,45.94l-.86-4.88H31.01l-.86,4.88Z" fill="#fff"/>
      <path id="Trazado_885499" data-name="Trazado 885499" d="M33,34.64a4.07,4.07,0,1,0-4.07-4.07A4.067,4.067,0,0,0,33,34.64Z" fill="#fff"/>
      <path id="Trazado_885500" data-name="Trazado 885500" d="M42.35,16.3a17.057,17.057,0,0,1,7.58,12.15,1,1,0,0,0,.99.88.615.615,0,0,0,.13-.01,1,1,0,0,0,.87-1.12,19.064,19.064,0,0,0-8.46-13.57,1.013,1.013,0,0,0-1.39.29.988.988,0,0,0,.28,1.38Z" fill="#fff"/>
      <path id="Trazado_885501" data-name="Trazado 885501" d="M22.55,14.63A19.032,19.032,0,0,0,14.09,28.2a1,1,0,0,0,.87,1.12.528.528,0,0,0,.13.01,1,1,0,0,0,.99-.88A17.057,17.057,0,0,1,23.66,16.3a1,1,0,0,0,.29-1.38,1.023,1.023,0,0,0-1.4-.29Z" fill="#fff"/>
      <path id="Trazado_885502" data-name="Trazado 885502" d="M42.65,10.73A22.258,22.258,0,0,1,55.07,30.58c0,.12,0,.25-.01.37l-.01.21a1,1,0,0,0,.98,1.02h.02a1,1,0,0,0,1-.98l.01-.19c0-.15.01-.29.01-.44A24.256,24.256,0,0,0,43.53,8.93a1,1,0,0,0-.88,1.8Z" fill="#fff"/>
      <path id="Trazado_885503" data-name="Trazado 885503" d="M46.22,48.23a22.31,22.31,0,0,1-5.71,3.09,1,1,0,0,0,.34,1.94,1.016,1.016,0,0,0,.34-.06,24.014,24.014,0,0,0,6.23-3.37,1,1,0,1,0-1.2-1.6Z" fill="#fff"/>
      <path id="Trazado_885504" data-name="Trazado 885504" d="M25.15,53.26a1,1,0,0,0,.34-1.94,22.146,22.146,0,0,1-5.71-3.09,1,1,0,0,0-1.2,1.6,24.317,24.317,0,0,0,6.23,3.37,1.016,1.016,0,0,0,.34.06Z" fill="#fff"/>
      <path id="Trazado_885505" data-name="Trazado 885505" d="M8.94,31.2a1.006,1.006,0,0,0,1,.98h.02a1,1,0,0,0,.98-1.02l-.01-.21c0-.12-.01-.25-.01-.37A22.258,22.258,0,0,1,23.34,10.73a1,1,0,0,0-.88-1.8A24.247,24.247,0,0,0,8.93,30.57c0,.15,0,.29.01.44Z" fill="#fff"/>
      <path id="Trazado_885506" data-name="Trazado 885506" d="M41.44,62.5H35.85V47.93H30.14V62.5H24.55a1,1,0,1,0,0,2H41.44a1,1,0,1,0,0-2Z" fill="#fff"/>
      <path id="Trazado_885507" data-name="Trazado 885507" d="M29.04,35.16a6.064,6.064,0,0,1-2.08-5.2H24.23L7.97,43.03a.919.919,0,0,0,.92,1.57L28.2,36.69Z" fill="#fff"/>
      <path id="Trazado_885508" data-name="Trazado 885508" d="M58.03,43.03,41.77,29.95H39.04c.02.2.03.41.03.61a6.05,6.05,0,0,1-2.11,4.59l.84,1.53,19.31,7.91a.914.914,0,0,0,.92-1.56Z" fill="#fff"/>
      <path id="Trazado_885509" data-name="Trazado 885509" d="M33,24.5a6.036,6.036,0,0,1,2.62.6l1.28-2.17-3-20.65a.92.92,0,0,0-1.82,0l-3,20.65,1.28,2.17A6.192,6.192,0,0,1,33,24.5Z" fill="#fff"/>
      <path id="Trazado_885510" data-name="Trazado 885510" d="M34.99,36.3a6.2,6.2,0,0,1-1.99.34,6.3,6.3,0,0,1-1.99-.34v2.75h3.98Z" fill="#fff"/>
    </g>
  </g>
</svg>
