<svg xmlns="http://www.w3.org/2000/svg" width="85" height="85" viewBox="0 0 85 85">
  <g id="Grupo_1100164" data-name="Grupo 1100164" transform="translate(-284.73 -6151)">
    <circle id="Elipse_11499" data-name="Elipse 11499" cx="42.5" cy="42.5" r="42.5" transform="translate(284.73 6151)" fill="#f35923"/>
    <g id="Grupo_1102494" data-name="Grupo 1102494" transform="translate(300.926 6145.579)">
      <path id="Trazado_886782" data-name="Trazado 886782" d="M47.178,39.731V33.422H43.117V27.2l-22.088.121-1.855-3.234H0v41.7H6.268v5.96H52.61V39.731ZM40.035,30.3v3.117H24.525L22.791,30.4ZM3.083,27.175H17.388l5.351,9.33H44.1v26.2H3.083ZM49.527,68.668H9.351V65.791H47.178V42.814h2.349Z" fill="#feefe9"/>
      <path id="Trazado_886783" data-name="Trazado 886783" d="M83.18,175.025H80.72V164.02H72.443v11.005H69.867v-15.6h-8.38v15.6h-2.74V155.811H55.664v22.3H91.458V167.813H83.18ZM75.525,167.1h2.112v7.922H75.525Zm-10.956-4.593h2.215v12.516H64.569ZM86.263,170.9h2.112v4.129H86.263Z" transform="translate(-49.944 -118.184)" fill="#feefe9"/>
    </g>
  </g>
</svg>
