<svg xmlns="http://www.w3.org/2000/svg" width="85" height="85" viewBox="0 0 85 85">
  <g id="Grupo_1100041" data-name="Grupo 1100041" transform="translate(-284.73 -6151)">
    <circle id="Elipse_11499" data-name="Elipse 11499" cx="42.5" cy="42.5" r="42.5" transform="translate(284.73 6151)" fill="#f35923"/>
    <g id="Grupo_1102471" data-name="Grupo 1102471" transform="translate(295.23 6161.5)">
      <g id="Grupo_1102421" data-name="Grupo 1102421">
        <g id="Grupo_1102412" data-name="Grupo 1102412">
          <g id="Grupo_1102411" data-name="Grupo 1102411">
            <path id="Trazado_886499" data-name="Trazado 886499" d="M30.489,14.179V1h3v13.18A5.581,5.581,0,0,0,32,13.99a5.8,5.8,0,0,0-1.511.2Z" fill="#545c66"/>
          </g>
        </g>
        <g id="Grupo_1102414" data-name="Grupo 1102414">
          <g id="Grupo_1102413" data-name="Grupo 1102413">
            <path id="Trazado_886500" data-name="Trazado 886500" d="M32,13.989a5.611,5.611,0,0,1,1.489.189,6,6,0,0,1,4.521,5.811H38v6H26v-6a5.99,5.99,0,0,1,4.489-5.8A5.884,5.884,0,0,1,32,13.989Z" fill="#656d78"/>
          </g>
        </g>
        <g id="Grupo_1102416" data-name="Grupo 1102416">
          <g id="Grupo_1102415" data-name="Grupo 1102415">
            <path id="Trazado_886501" data-name="Trazado 886501" d="M32,36.989a2,2,0,0,1-2-2v-9h4v9A1.993,1.993,0,0,1,32,36.989Z" fill="#e6e9ed"/>
          </g>
        </g>
        <g id="Grupo_1102418" data-name="Grupo 1102418">
          <g id="Grupo_1102417" data-name="Grupo 1102417">
            <path id="Trazado_886502" data-name="Trazado 886502" d="M33.5,41.489a1.5,1.5,0,0,1-3,0,1.5,1.5,0,0,1-3,0l2.5-6.5a2,2,0,0,0,4,0l2.51,6.5a1.505,1.505,0,0,1-3.01,0Z" fill="#ffce54"/>
          </g>
        </g>
        <g id="Grupo_1102420" data-name="Grupo 1102420">
          <g id="Grupo_1102419" data-name="Grupo 1102419">
            <path id="Trazado_886503" data-name="Trazado 886503" d="M30,25.989v9l-2.5,6.5a1.5,1.5,0,0,0,3,0,1.5,1.5,0,0,0,3,0,1.505,1.505,0,0,0,3.01,0L34,34.989v-9h3.01v2.09a12,12,0,1,1-10.01,0v-2.09Z" fill="#ffce54"/>
          </g>
        </g>
      </g>
      <g id="Grupo_1102470" data-name="Grupo 1102470">
        <g id="Grupo_1102423" data-name="Grupo 1102423">
          <g id="Grupo_1102422" data-name="Grupo 1102422">
            <path id="Trazado_886504" data-name="Trazado 886504" d="M32.018,51.995A13,13,0,0,1,26.6,27.174a1,1,0,0,1,.834,1.818,11,11,0,1,0,9.17,0,1,1,0,1,1,.834-1.818A13,13,0,0,1,32.018,52Z"/>
          </g>
        </g>
        <g id="Grupo_1102425" data-name="Grupo 1102425">
          <g id="Grupo_1102424" data-name="Grupo 1102424">
            <path id="Trazado_886505" data-name="Trazado 886505" d="M26.017,26.977a1,1,0,0,1-1-1V19.995a1,1,0,0,1,2,0v5.982A1,1,0,0,1,26.017,26.977Z"/>
          </g>
        </g>
        <g id="Grupo_1102427" data-name="Grupo 1102427">
          <g id="Grupo_1102426" data-name="Grupo 1102426">
            <path id="Trazado_886506" data-name="Trazado 886506" d="M38.019,26.994a1,1,0,0,1-1-1v-6a1,1,0,0,1,2,0v6A1,1,0,0,1,38.019,26.994Z"/>
          </g>
        </g>
        <g id="Grupo_1102429" data-name="Grupo 1102429">
          <g id="Grupo_1102428" data-name="Grupo 1102428">
            <path id="Trazado_886507" data-name="Trazado 886507" d="M38.019,26.994h-12a1,1,0,0,1,0-2h12a1,1,0,0,1,0,2Z"/>
          </g>
        </g>
        <g id="Grupo_1102431" data-name="Grupo 1102431">
          <g id="Grupo_1102430" data-name="Grupo 1102430">
            <path id="Trazado_886508" data-name="Trazado 886508" d="M38.021,21a1,1,0,0,1-1-1,5,5,0,0,0-10.008,0,1,1,0,0,1-2,0,7,7,0,0,1,14.008,0A1,1,0,0,1,38.021,21Z"/>
          </g>
        </g>
        <g id="Grupo_1102433" data-name="Grupo 1102433">
          <g id="Grupo_1102432" data-name="Grupo 1102432">
            <path id="Trazado_886509" data-name="Trazado 886509" d="M27.018,29.083a1,1,0,0,1-1-1V25.977a1,1,0,1,1,2,0v2.106A1,1,0,0,1,27.018,29.083Z"/>
          </g>
        </g>
        <g id="Grupo_1102435" data-name="Grupo 1102435">
          <g id="Grupo_1102434" data-name="Grupo 1102434">
            <path id="Trazado_886510" data-name="Trazado 886510" d="M37.021,29.086a1,1,0,0,1-1-1V25.977a1,1,0,0,1,2,0v2.109A1,1,0,0,1,37.021,29.086Z"/>
          </g>
        </g>
        <g id="Grupo_1102437" data-name="Grupo 1102437">
          <g id="Grupo_1102436" data-name="Grupo 1102436">
            <path id="Trazado_886511" data-name="Trazado 886511" d="M32.018,38a3,3,0,0,1-3-3,1,1,0,0,1,2,0,1,1,0,0,0,2,0,1,1,0,0,1,2,0A3,3,0,0,1,32.018,38Z"/>
          </g>
        </g>
        <g id="Grupo_1102439" data-name="Grupo 1102439">
          <g id="Grupo_1102438" data-name="Grupo 1102438">
            <path id="Trazado_886512" data-name="Trazado 886512" d="M29.018,43.993a2.5,2.5,0,0,1-2.5-2.5,1,1,0,0,1,2,0,.5.5,0,1,0,1,0,1,1,0,0,1,2,0A2.5,2.5,0,0,1,29.018,43.993Z"/>
          </g>
        </g>
        <g id="Grupo_1102441" data-name="Grupo 1102441">
          <g id="Grupo_1102440" data-name="Grupo 1102440">
            <path id="Trazado_886513" data-name="Trazado 886513" d="M32.019,43.993a2.5,2.5,0,0,1-2.5-2.5,1,1,0,0,1,2,0,.5.5,0,1,0,1,0,1,1,0,0,1,2,0A2.5,2.5,0,0,1,32.019,43.993Z"/>
          </g>
        </g>
        <g id="Grupo_1102443" data-name="Grupo 1102443">
          <g id="Grupo_1102442" data-name="Grupo 1102442">
            <path id="Trazado_886514" data-name="Trazado 886514" d="M35.02,43.993a2.5,2.5,0,0,1-2.5-2.5,1,1,0,0,1,2,0,.5.5,0,1,0,1,0,1,1,0,0,1,2,0A2.5,2.5,0,0,1,35.02,43.993Z"/>
          </g>
        </g>
        <g id="Grupo_1102445" data-name="Grupo 1102445">
          <g id="Grupo_1102444" data-name="Grupo 1102444">
            <path id="Trazado_886515" data-name="Trazado 886515" d="M30.018,36a1,1,0,0,1-1-1v-9a1,1,0,0,1,2,0v9A1,1,0,0,1,30.018,36Z"/>
          </g>
        </g>
        <g id="Grupo_1102447" data-name="Grupo 1102447">
          <g id="Grupo_1102446" data-name="Grupo 1102446">
            <path id="Trazado_886516" data-name="Trazado 886516" d="M34.018,36a1,1,0,0,1-1-1v-9a1,1,0,1,1,2,0v9A1,1,0,0,1,34.018,36Z"/>
          </g>
        </g>
        <g id="Grupo_1102449" data-name="Grupo 1102449">
          <g id="Grupo_1102448" data-name="Grupo 1102448">
            <path id="Trazado_886517" data-name="Trazado 886517" d="M27.517,42.492a1,1,0,0,1-.933-1.359l2.5-6.5a1,1,0,1,1,1.867.719l-2.5,6.5a1,1,0,0,1-.934.64Z"/>
          </g>
        </g>
        <g id="Grupo_1102451" data-name="Grupo 1102451">
          <g id="Grupo_1102450" data-name="Grupo 1102450">
            <path id="Trazado_886518" data-name="Trazado 886518" d="M36.52,42.492a1,1,0,0,1-.934-.641l-2.5-6.5a1,1,0,0,1,1.867-.719l2.5,6.5a1,1,0,0,1-.574,1.293.984.984,0,0,1-.359.067Z"/>
          </g>
        </g>
        <g id="Grupo_1102453" data-name="Grupo 1102453">
          <g id="Grupo_1102452" data-name="Grupo 1102452">
            <path id="Trazado_886519" data-name="Trazado 886519" d="M30.5,15.181a1,1,0,0,1-1-1V1a1,1,0,0,1,2,0V14.181A1,1,0,0,1,30.5,15.181Z"/>
          </g>
        </g>
        <g id="Grupo_1102455" data-name="Grupo 1102455">
          <g id="Grupo_1102454" data-name="Grupo 1102454">
            <path id="Trazado_886520" data-name="Trazado 886520" d="M33.5,15.181a1,1,0,0,1-1-1V1a1,1,0,0,1,2,0V14.181A1,1,0,0,1,33.5,15.181Z"/>
          </g>
        </g>
        <g id="Grupo_1102457" data-name="Grupo 1102457">
          <g id="Grupo_1102456" data-name="Grupo 1102456">
            <path id="Trazado_886521" data-name="Trazado 886521" d="M32,64a1,1,0,0,1-1-1V55a1,1,0,0,1,2,0v8A1,1,0,0,1,32,64Z"/>
          </g>
        </g>
        <g id="Grupo_1102459" data-name="Grupo 1102459">
          <g id="Grupo_1102458" data-name="Grupo 1102458">
            <path id="Trazado_886522" data-name="Trazado 886522" d="M44,60.784a1,1,0,0,1-.867-.5l-4-6.928a1,1,0,0,1,1.732-1l4,6.928a1,1,0,0,1-.865,1.5Z"/>
          </g>
        </g>
        <g id="Grupo_1102461" data-name="Grupo 1102461">
          <g id="Grupo_1102460" data-name="Grupo 1102460">
            <path id="Trazado_886523" data-name="Trazado 886523" d="M52.783,52a.992.992,0,0,1-.5-.134l-6.928-4a1,1,0,1,1,1-1.732l6.928,4a1,1,0,0,1-.5,1.866Z"/>
          </g>
        </g>
        <g id="Grupo_1102463" data-name="Grupo 1102463">
          <g id="Grupo_1102462" data-name="Grupo 1102462">
            <path id="Trazado_886524" data-name="Trazado 886524" d="M48,40a1,1,0,0,1,0-2h8a1,1,0,0,1,0,2Z"/>
          </g>
        </g>
        <g id="Grupo_1102465" data-name="Grupo 1102465">
          <g id="Grupo_1102464" data-name="Grupo 1102464">
            <path id="Trazado_886525" data-name="Trazado 886525" d="M16,40H8a1,1,0,0,1,0-2h8a1,1,0,0,1,0,2Z"/>
          </g>
        </g>
        <g id="Grupo_1102467" data-name="Grupo 1102467">
          <g id="Grupo_1102466" data-name="Grupo 1102466">
            <path id="Trazado_886526" data-name="Trazado 886526" d="M11.217,52a1,1,0,0,1-.5-1.866l6.93-4a1,1,0,0,1,1,1.732l-6.93,4A.992.992,0,0,1,11.217,52Z"/>
          </g>
        </g>
        <g id="Grupo_1102469" data-name="Grupo 1102469">
          <g id="Grupo_1102468" data-name="Grupo 1102468">
            <path id="Trazado_886527" data-name="Trazado 886527" d="M20,60.786a1,1,0,0,1-.865-1.5l4-6.929a1,1,0,1,1,1.732,1l-4,6.929a1,1,0,0,1-.867.5Z"/>
          </g>
        </g>
      </g>
    </g>
  </g>
</svg>
