<svg xmlns="http://www.w3.org/2000/svg" width="85" height="85" viewBox="0 0 85 85">
  <g id="Grupo_1100165" data-name="Grupo 1100165" transform="translate(-284.73 -6151)">
    <circle id="Elipse_11499" data-name="Elipse 11499" cx="42.5" cy="42.5" r="42.5" transform="translate(284.73 6151)" fill="#f35923"/>
    <g id="Grupo_1102495" data-name="Grupo 1102495" transform="translate(304.822 6170.599)">
      <path id="Trazado_886784" data-name="Trazado 886784" d="M6.563,13.626A6.529,6.529,0,0,0,10.5,12.313H33.388l6.125-5.25-6.125-5.25H10.5A6.562,6.562,0,1,0,6.563,13.626ZM35.479,7.063,32.416,9.688H12.576a6.542,6.542,0,0,0,0-5.25h19.84ZM6.563,3.125A3.938,3.938,0,1,1,2.625,7.063,3.942,3.942,0,0,1,6.563,3.125Zm0,0" fill="#feefe9"/>
      <path id="Trazado_886785" data-name="Trazado 886785" d="M6.563,194.563a6.529,6.529,0,0,0,3.933-1.313H28.137L34.263,188l-6.125-5.25H10.5a6.562,6.562,0,1,0-3.933,11.813ZM30.229,188l-3.063,2.625H12.576a6.542,6.542,0,0,0,0-5.25h14.59ZM6.563,184.063A3.938,3.938,0,1,1,2.625,188,3.942,3.942,0,0,1,6.563,184.063Zm0,0" transform="translate(0 -165.099)" fill="#feefe9"/>
      <path id="Trazado_886786" data-name="Trazado 886786" d="M44.818,368.938l-6.184-5.25H10.5a6.563,6.563,0,1,0,0,10.5H38.634ZM6.563,372.876a3.938,3.938,0,1,1,3.938-3.938A3.942,3.942,0,0,1,6.563,372.876Zm6.013-1.313a6.542,6.542,0,0,0,0-5.25H37.67l3.092,2.625-3.092,2.625Zm0,0" transform="translate(0 -330.198)" fill="#feefe9"/>
      <path id="Trazado_886787" data-name="Trazado 886787" d="M55.622,419.861,53.766,418l1.856-1.856L57.478,418Zm0,0" transform="translate(-49.059 -379.265)" fill="#feefe9"/>
      <path id="Trazado_886788" data-name="Trazado 886788" d="M55.626,235.2l1.856,1.856-1.856,1.856-1.856-1.856Zm0,0" transform="translate(-49.063 -214.158)" fill="#feefe9"/>
      <path id="Trazado_886789" data-name="Trazado 886789" d="M55.626,54.266l1.856,1.856-1.856,1.856L53.77,56.122Zm0,0" transform="translate(-49.063 -49.059)" fill="#feefe9"/>
    </g>
  </g>
</svg>
