<svg xmlns="http://www.w3.org/2000/svg" width="85" height="85" viewBox="0 0 85 85">
  <g id="Grupo_1100020" data-name="Grupo 1100020" transform="translate(-284.73 -6151)">
    <circle id="Elipse_11499" data-name="Elipse 11499" cx="42.5" cy="42.5" r="42.5" transform="translate(284.73 6151)" fill="#f35923"/>
    <g id="Grupo_1102400" data-name="Grupo 1102400" transform="translate(303.864 6170.134)">
      <path id="Trazado_886467" data-name="Trazado 886467" d="M341.553,37.829a5.7,5.7,0,1,1-5.7-5.7A5.7,5.7,0,0,1,341.553,37.829Zm0,0" transform="translate(-300.025 -29.2)" fill="#feefe9"/>
      <path id="Trazado_886468" data-name="Trazado 886468" d="M25.972,16.008l-2.7-4.054V5.036A5.031,5.031,0,0,0,18.234,0H5.036A5.032,5.032,0,0,0,0,5.036V13.1a5.031,5.031,0,0,0,5.036,5.035h19.8A1.37,1.37,0,0,0,25.972,16.008ZM11.6,13H7.273a1.394,1.394,0,0,1-1.406-1.3,1.369,1.369,0,0,1,1.368-1.434h4.4A1.369,1.369,0,0,1,13,11.7,1.394,1.394,0,0,1,11.6,13Zm4.438-5.133H7.274a1.394,1.394,0,0,1-1.406-1.3A1.369,1.369,0,0,1,7.235,5.132H16a1.394,1.394,0,0,1,1.406,1.3A1.369,1.369,0,0,1,16.034,7.871Zm0,0" fill="#feefe9"/>
      <path id="Trazado_886469" data-name="Trazado 886469" d="M10.632,372.152A10.745,10.745,0,0,0,0,382.937v.3a1.679,1.679,0,0,0,1.679,1.679H19.66a1.679,1.679,0,0,0,1.679-1.679v-.416A10.669,10.669,0,0,0,10.632,372.152Zm0,0" transform="translate(0 -338.184)" fill="#feefe9"/>
      <path id="Trazado_886470" data-name="Trazado 886470" d="M56.726,231.652a6.719,6.719,0,1,1-6.719-6.719A6.719,6.719,0,0,1,56.726,231.652Zm0,0" transform="translate(-39.338 -204.403)" fill="#feefe9"/>
      <path id="Trazado_886471" data-name="Trazado 886471" d="M315.18,164.621H297.9a8.7,8.7,0,0,1,17.281,0Zm0,0" transform="translate(-270.708 -142.624)" fill="#feefe9"/>
      <path id="Trazado_886472" data-name="Trazado 886472" d="M223.5,272a1.369,1.369,0,0,1,1.369,1.369V289.6a1.369,1.369,0,0,1-1.436,1.367,1.4,1.4,0,0,1-1.3-1.407V288.04H201.676a13.466,13.466,0,0,0-5.644-7.52A9.444,9.444,0,0,0,197.95,272Zm0,0" transform="translate(-178.139 -247.173)" fill="#feefe9"/>
    </g>
  </g>
</svg>
