<svg xmlns="http://www.w3.org/2000/svg" width="85" height="85" viewBox="0 0 85 85">
  <g id="Grupo_1100021" data-name="Grupo 1100021" transform="translate(-284.73 -6151)">
    <circle id="Elipse_11499" data-name="Elipse 11499" cx="42.5" cy="42.5" r="42.5" transform="translate(284.73 6151)" fill="#f35923"/>
    <g id="Grupo_1102401" data-name="Grupo 1102401" transform="translate(302.091 6168.36)">
      <path id="Trazado_886473" data-name="Trazado 886473" d="M178.186,181H162.473A1.473,1.473,0,0,0,161,182.473v11.784a1.473,1.473,0,0,0,1.473,1.473h15.713a1.473,1.473,0,0,0,1.473-1.473V182.473A1.473,1.473,0,0,0,178.186,181Z" transform="translate(-145.19 -163.225)" fill="#feefe9"/>
      <path id="Trazado_886474" data-name="Trazado 886474" d="M178.186,0H162.473A1.473,1.473,0,0,0,161,1.473V13.257a1.473,1.473,0,0,0,1.473,1.473h15.713a1.473,1.473,0,0,0,1.473-1.473V1.473A1.473,1.473,0,0,0,178.186,0Z" transform="translate(-145.19)" fill="#feefe9"/>
      <path id="Trazado_886475" data-name="Trazado 886475" d="M178.186,362H162.473A1.473,1.473,0,0,0,161,363.473v11.784a1.473,1.473,0,0,0,1.473,1.473h15.713a1.473,1.473,0,0,0,1.473-1.473V363.473A1.473,1.473,0,0,0,178.186,362Z" transform="translate(-145.19 -326.45)" fill="#feefe9"/>
      <path id="Trazado_886476" data-name="Trazado 886476" d="M6.442,22.514a1.473,1.473,0,0,0-2.083-2.083L.431,24.359a1.473,1.473,0,0,0,0,2.083L4.359,30.37a1.473,1.473,0,1,0,2.083-2.083L5.029,26.874h7.835V23.928H5.029Z" transform="translate(0 -18.035)" fill="#feefe9"/>
      <path id="Trazado_886477" data-name="Trazado 886477" d="M388.463,60H381v2.946h7.463a2.458,2.458,0,0,1,2.455,2.455V75.32a2.458,2.458,0,0,1-2.455,2.455H381v2.946h7.463a5.407,5.407,0,0,0,5.4-5.4V65.4A5.407,5.407,0,0,0,388.463,60Z" transform="translate(-343.585 -54.108)" fill="#feefe9"/>
      <path id="Trazado_886478" data-name="Trazado 886478" d="M0,246.4v9.919a5.407,5.407,0,0,0,5.4,5.4h7.463v-2.946H5.4a2.458,2.458,0,0,1-2.455-2.455V246.4A2.458,2.458,0,0,1,5.4,243.946h7.463V241H5.4A5.407,5.407,0,0,0,0,246.4Z" transform="translate(0 -217.333)" fill="#feefe9"/>
      <path id="Trazado_886479" data-name="Trazado 886479" d="M389.505,382.431a1.473,1.473,0,0,0-2.083,2.083l1.413,1.414H381v2.946h7.835l-1.414,1.414a1.473,1.473,0,1,0,2.083,2.083l3.928-3.928a1.473,1.473,0,0,0,0-2.083Z" transform="translate(-343.585 -344.486)" fill="#feefe9"/>
    </g>
  </g>
</svg>
