<svg xmlns="http://www.w3.org/2000/svg" width="85" height="85" viewBox="0 0 85 85">
  <g id="Grupo_1100044" data-name="Grupo 1100044" transform="translate(-284.73 -6151)">
    <circle id="Elipse_11499" data-name="Elipse 11499" cx="42.5" cy="42.5" r="42.5" transform="translate(284.73 6151)" fill="#f35923"/>
    <g id="water_system" data-name="water system" transform="translate(295 6159.746)">
      <path id="Trazado_886569" data-name="Trazado 886569" d="M61,32V58H59a2.006,2.006,0,0,1-2-2V34a2.006,2.006,0,0,1,2-2Z" fill="#ffeb99"/>
      <path id="Trazado_886570" data-name="Trazado 886570" d="M39,35H57V55H39Z" fill="#57a4ff"/>
      <g id="Grupo_1102488" data-name="Grupo 1102488">
        <circle id="Elipse_11644" data-name="Elipse 11644" cx="2" cy="2" r="2" transform="translate(47 15)" fill="#ffeb99"/>
        <circle id="Elipse_11645" data-name="Elipse 11645" cx="2" cy="2" r="2" transform="translate(37 15)" fill="#ffeb99"/>
        <circle id="Elipse_11646" data-name="Elipse 11646" cx="2" cy="2" r="2" transform="translate(37 23)" fill="#ffeb99"/>
        <path id="Trazado_886571" data-name="Trazado 886571" d="M39,55v1a2.006,2.006,0,0,1-2,2H35V32h2a2.006,2.006,0,0,1,2,2Z" fill="#ffeb99"/>
      </g>
      <rect id="Rectángulo_403604" data-name="Rectángulo 403604" width="32" height="32" rx="2" transform="translate(3 29)" fill="#00d7df"/>
      <path id="Trazado_886572" data-name="Trazado 886572" d="M35,31V59a2.006,2.006,0,0,1-2,2H31a2.006,2.006,0,0,0,2-2V31a2.006,2.006,0,0,0-2-2h2a2.006,2.006,0,0,1,2,2Z" fill="#00b6bd"/>
      <path id="Trazado_886573" data-name="Trazado 886573" d="M32,27v2H6V27a2.006,2.006,0,0,1,2-2H30a2.006,2.006,0,0,1,2,2Z" fill="#ffeb99"/>
      <path id="Trazado_886574" data-name="Trazado 886574" d="M32,3V5a2.006,2.006,0,0,1-2,2H8A2.006,2.006,0,0,1,6,5V3Z" fill="#ffeb99"/>
      <path id="Trazado_886575" data-name="Trazado 886575" d="M9,7H29V25H9Z" fill="#57a4ff"/>
      <path id="Trazado_886576" data-name="Trazado 886576" d="M29,37a3,3,0,0,1-6,0c0-1.66,3-5,3-5S29,35.34,29,37Z" fill="#57a4ff"/>
      <path id="Trazado_886577" data-name="Trazado 886577" d="M23,49A7,7,0,1,1,9,49c0-3.87,7-15,7-15S23,45.13,23,49Z" fill="#57a4ff"/>
      <path id="Trazado_886578" data-name="Trazado 886578" d="M55,35h2V55H55Z" fill="#2488ff"/>
      <path id="Trazado_886579" data-name="Trazado 886579" d="M27,7h2V25H27Z" fill="#2488ff"/>
      <path id="Trazado_886580" data-name="Trazado 886580" d="M23,49a7,7,0,0,1-7,7,5.474,5.474,0,0,1-1-.08A6.979,6.979,0,0,0,21,49c0-2.95-4.07-10.12-6-13.36.61-1.01,1-1.64,1-1.64S23,45.13,23,49Z" fill="#2488ff"/>
      <path id="Trazado_886581" data-name="Trazado 886581" d="M61,31H59a3,3,0,0,0-3,3H52l4.8-6.4A1,1,0,0,0,57,27V17a1,1,0,0,0-1-1H51.816a3,3,0,1,0,0,2H55v8.667L49.5,34H46V25a1,1,0,0,0-1-1H41.816a3,3,0,1,0,0,2H44v8H40a3,3,0,0,0-3-3H36a3,3,0,0,0-3-3V27a3,3,0,0,0-3-3V12h8v2.184a3,3,0,1,0,2,0V11a1,1,0,0,0-1-1H30V8a3,3,0,0,0,3-3V3a1,1,0,0,0-1-1H6A1,1,0,0,0,5,3V5A3,3,0,0,0,8,8V24a3,3,0,0,0-3,3v1a3,3,0,0,0-3,3V59a3,3,0,0,0,3,3H33a3,3,0,0,0,3-3h1a3,3,0,0,0,3-3H56a3,3,0,0,0,3,3h2a1,1,0,0,0,1-1V32A1,1,0,0,0,61,31ZM49,18a1,1,0,1,1,1-1A1,1,0,0,1,49,18ZM39,26a1,1,0,1,1,1-1A1,1,0,0,1,39,26Zm0-8a1,1,0,1,1,1-1A1,1,0,0,1,39,18ZM7,5V4H31V5a1,1,0,0,1-1,1H8A1,1,0,0,1,7,5Zm3,3H28V24H10ZM7,27a1,1,0,0,1,1-1H30a1,1,0,0,1,1,1v1H7ZM34,59a1,1,0,0,1-1,1H5a1,1,0,0,1-1-1V31a1,1,0,0,1,1-1H33a1,1,0,0,1,1,1Zm4-3a1,1,0,0,1-1,1H36V33h1a1,1,0,0,1,1,1Zm2-2V36H56V54Zm20,3H59a1,1,0,0,1-1-1V34a1,1,0,0,1,1-1h1Z"/>
      <path id="Trazado_886582" data-name="Trazado 886582" d="M51.707,40.293l-3-3-1.414,1.414L48.586,40H45v2h3.586l-1.293,1.293,1.414,1.414,3-3L51.7,41.7a.974.974,0,0,0,.006-1.408Z"/>
      <path id="Trazado_886583" data-name="Trazado 886583" d="M48.707,46.707l-1.414-1.414-3,3A.974.974,0,0,0,44.3,49.7l-.006.006,3,3,1.414-1.414L47.414,50H51V48H47.414Z"/>
      <path id="Trazado_886584" data-name="Trazado 886584" d="M15.7,12.3a.974.974,0,0,0-1.408-.006l-3,3,1.414,1.414L14,15.414V19h2V15.414l1.293,1.293,1.414-1.414-3-3Z"/>
      <path id="Trazado_886585" data-name="Trazado 886585" d="M26.707,16.707l-1.414-1.414L24,16.586V13H22v3.586l-1.293-1.293-1.414,1.414,3,3A.974.974,0,0,0,23.7,19.7l.006.006Z"/>
      <path id="Trazado_886586" data-name="Trazado 886586" d="M15.153,33.468C14.421,34.632,8,44.962,8,49a8,8,0,1,0,16,0c0-4.038-6.421-14.368-7.153-15.532a1.04,1.04,0,0,0-1.694,0ZM16,55a6.006,6.006,0,0,1-6-6c0-2.565,3.777-9.388,6-13.087,2.223,3.7,6,10.521,6,13.087a6.006,6.006,0,0,1-6,6Z"/>
      <path id="Trazado_886587" data-name="Trazado 886587" d="M26.744,31.332a1.031,1.031,0,0,0-1.488,0C24.712,31.938,22,35.059,22,37a4,4,0,0,0,8,0c0-1.941-2.712-5.062-3.256-5.668ZM26,39a2,2,0,0,1-2-2c0-.637.939-2.125,2-3.451,1.062,1.332,2,2.831,2,3.451A2,2,0,0,1,26,39Z"/>
      <path id="Trazado_886588" data-name="Trazado 886588" d="M30,56h2v2H30Z"/>
      <path id="Trazado_886589" data-name="Trazado 886589" d="M6,32H8v2H6Z"/>
    </g>
  </g>
</svg>
