<svg xmlns="http://www.w3.org/2000/svg" width="85" height="85" viewBox="0 0 85 85">
  <g id="Grupo_1100045" data-name="Grupo 1100045" transform="translate(-284.73 -6151)">
    <circle id="Elipse_11499" data-name="Elipse 11499" cx="42.5" cy="42.5" r="42.5" transform="translate(284.73 6151)" fill="#f35923"/>
    <g id="Grupo_1102489" data-name="Grupo 1102489" transform="translate(301 6161.5)">
      <path id="Trazado_886590" data-name="Trazado 886590" d="M41,37a13.006,13.006,0,0,0-.934,23.574A3.994,3.994,0,0,1,37,62H9a4,4,0,0,1-4-4V14a4,4,0,0,1,4-4H37a4,4,0,0,1,4,4Z" fill="#3b5892"/>
      <path id="Trazado_886591" data-name="Trazado 886591" d="M37,40H9V16a2,2,0,0,1,2-2H35a2,2,0,0,1,2,2Z" fill="#f2f2f2"/>
      <path id="Trazado_886592" data-name="Trazado 886592" d="M33,36V14H11a2,2,0,0,0-2,2V36Z" fill="#fff"/>
      <circle id="Elipse_11647" data-name="Elipse 11647" cx="13" cy="13" r="13" transform="translate(33 36)" fill="#aed5ff"/>
      <path id="Trazado_886593" data-name="Trazado 886593" d="M56,48a12.988,12.988,0,0,0-7.463-11.748,12.991,12.991,0,0,0-8.074,24.5A12.991,12.991,0,0,0,56,48Z" fill="#c0dafc"/>
      <path id="Trazado_886594" data-name="Trazado 886594" d="M49,46h6a8,8,0,0,1-8,8H41A8,8,0,0,1,49,46Z" transform="translate(96 100) rotate(180)" fill="#6bc13b"/>
      <path id="Trazado_886595" data-name="Trazado 886595" d="M41,54H37V49a9,9,0,0,1,9-9h1v6.252A8,8,0,0,0,41,54Z" fill="#4d8c28"/>
      <path id="Trazado_886596" data-name="Trazado 886596" d="M49.293,48.293l1.414,1.414A19.01,19.01,0,0,1,44.083,54H41a8.02,8.02,0,0,1,.063-.96l1.6-.647a17.066,17.066,0,0,0,6.63-4.1Z" fill="#559b2d"/>
      <path id="Trazado_886597" data-name="Trazado 886597" d="M39.012,54H37v-.053l.005-.052a16.155,16.155,0,0,1,2.807-7.667,23.078,23.078,0,0,1,2.481-2.935l1.414,1.414a21.134,21.134,0,0,0-2.266,2.68A14.129,14.129,0,0,0,39.012,54Z" fill="#376818"/>
      <path id="Trazado_886598" data-name="Trazado 886598" d="M36.619,40H9v6H33.348a12.971,12.971,0,0,1,3.271-6Z" fill="#fce797"/>
      <path id="Trazado_886599" data-name="Trazado 886599" d="M33.348,52a13.1,13.1,0,0,1,0-6H9v6Z" fill="#f9d266"/>
      <path id="Trazado_886600" data-name="Trazado 886600" d="M36.23,57.577A12.973,12.973,0,0,1,33.348,52H9v4a2,2,0,0,0,2,2H35a2,2,0,0,0,1.231-.423Z" fill="#f0ae42"/>
      <path id="Trazado_886601" data-name="Trazado 886601" d="M14,10V4a2,2,0,0,1,2-2H30a2,2,0,0,1,2,2v6" fill="#4c6cb5"/>
      <path id="Trazado_886602" data-name="Trazado 886602" d="M12,33l9-13,3,4,10-6L25,31l-4-4Z" fill="#f0ae42"/>
      <path id="Trazado_886603" data-name="Trazado 886603" d="M28,5V2H16a2,2,0,0,0-2,2V7H26A2,2,0,0,0,28,5Z" fill="#5e87ca"/>
      <path id="Trazado_886604" data-name="Trazado 886604" d="M33.485,17.143l-9.226,5.536L21.8,19.4a1.043,1.043,0,0,0-.819-.4,1,1,0,0,0-.8.431l-9,13a1,1,0,0,0,1.377,1.4l8.318-5.545,3.42,3.42a1.017,1.017,0,0,0,.8.289,1,1,0,0,0,.732-.427l9-13a1,1,0,0,0-1.337-1.426Zm-8.626,12.3L21.707,26.29a1,1,0,0,0-1.262-.125l-4.645,3.1,5.228-7.552L23.2,24.6a1,1,0,0,0,1.315.257l6.023-3.614Z"/>
      <path id="Trazado_886605" data-name="Trazado 886605" d="M55,45H49a8.935,8.935,0,0,0-1,.059V40a1,1,0,0,0-1-1H46A10.011,10.011,0,0,0,36,49v5a1,1,0,0,0,1,1H47a9.01,9.01,0,0,0,9-9,1,1,0,0,0-1-1Zm-9-4v4.525A9.014,9.014,0,0,0,40.059,53h-.881a13.863,13.863,0,0,1,2.263-5.612,21.206,21.206,0,0,1,2.266-2.681l-1.414-1.414a23.13,23.13,0,0,0-2.481,2.935A15.068,15.068,0,0,0,38,49.667V49a8.009,8.009,0,0,1,8-8Zm1,12h-.729a19.04,19.04,0,0,0,4.436-3.293l-1.414-1.414a17.088,17.088,0,0,1-6.635,4.1l-.5.167A7.007,7.007,0,0,1,49,47h4.929A7.011,7.011,0,0,1,47,53Z"/>
      <path id="Trazado_886606" data-name="Trazado 886606" d="M46,35a13.917,13.917,0,0,0-4,.59V14a5.006,5.006,0,0,0-5-5H33V4a3,3,0,0,0-3-3H16a3,3,0,0,0-3,3V9H9a5.006,5.006,0,0,0-5,5V58a5.006,5.006,0,0,0,5,5H37a4.98,4.98,0,0,0,3.28-1.235A13.995,13.995,0,1,0,46,35ZM15,4a1,1,0,0,1,1-1H30a1,1,0,0,1,1,1V9H15ZM37,61H9a3,3,0,0,1-3-3V14a3,3,0,0,1,3-3H37a3,3,0,0,1,3,3V36.37a14.057,14.057,0,0,0-2,1.157V16a3,3,0,0,0-3-3H11a3,3,0,0,0-3,3V56a3,3,0,0,0,3,3H35a2.986,2.986,0,0,0,1.03-.188,14.036,14.036,0,0,0,2.287,1.878A2.987,2.987,0,0,1,37,61ZM36,39H10V16a1,1,0,0,1,1-1H35a1,1,0,0,1,1,1ZM10,47H32.16a12.58,12.58,0,0,0,0,4H10Zm0,6H32.59a13.962,13.962,0,0,0,1.937,4H11a1,1,0,0,1-1-1Zm22.59-8H10V41H34.527a13.962,13.962,0,0,0-1.937,4ZM46,61A12,12,0,1,1,58,49,12,12,0,0,1,46,61Z"/>
    </g>
  </g>
</svg>
