<svg xmlns="http://www.w3.org/2000/svg" width="57.798" height="57.68" viewBox="0 0 57.798 57.68">
  <path id="Trazado_886910" data-name="Trazado 886910" d="M17.1,15.623a.932.932,0,0,1,.932-.932H28.072a.932.932,0,1,1,0,1.864H18.03A.932.932,0,0,1,17.1,15.623ZM13.532,22.5h14.54a.932.932,0,1,0,0-1.864H13.532a.932.932,0,1,0,0,1.864ZM65.8,14.626V44.791a.932.932,0,0,1-.932.932H45.933A13.231,13.231,0,0,1,40.11,48.9l.059,3.893a2.064,2.064,0,0,1,.6.4,2.037,2.037,0,0,1,.624,1.44l.142,9.418a2.054,2.054,0,0,1-2.02,2.082l-3.5.053h-.031a2.054,2.054,0,0,1-2.051-2.02l-.142-9.418A2.058,2.058,0,0,1,35.2,52.768l-.054-3.591a13.2,13.2,0,0,1-7.279-3.453H8.932A.932.932,0,0,1,8,44.791V14.626a.932.932,0,0,1,.273-.659l5.185-5.185a.932.932,0,0,1,.659-.273H32.672a.932.932,0,0,1,.932.932V23.225a13.287,13.287,0,0,1,6.589,0V9.44a.932.932,0,0,1,.932-.932H59.681a.932.932,0,0,1,.659.273l5.185,5.185a.932.932,0,0,1,.273.659Zm-5.185-.932h2l-2-2Zm-49.43,0h2v-2ZM9.864,43.859H26.211a13.222,13.222,0,0,1-1.84-3.517H13.532a.932.932,0,0,1,0-1.864H23.881a13.3,13.3,0,0,1-.12-4.082H13.532a.932.932,0,1,1,0-1.864h10.6a13.2,13.2,0,0,1,1.93-4.082H13.532a.932.932,0,0,1,0-1.864H27.652a13.285,13.285,0,0,1,4.088-2.728V10.373H15.05v4.253a.932.932,0,0,1-.932.932H9.864ZM36.9,47.429a11.371,11.371,0,0,0,8.315-19.134A.935.935,0,0,1,44.931,28,11.375,11.375,0,1,0,36.9,47.429Zm2.767,16.652-.142-9.418a.19.19,0,0,0-.187-.184h0l-3.5.053a.19.19,0,0,0-.184.189l.142,9.418a.192.192,0,0,0,.189.184l3.5-.053a.189.189,0,0,0,.184-.19ZM38.251,49.225q-.612.062-1.24.067l.05,3.357L38.3,52.63Zm25.683-5.366v-28.3H59.681a.932.932,0,0,1-.932-.932V10.373H42.058V23.856a13.289,13.289,0,0,1,4.089,2.728H60.266a.932.932,0,0,1,0,1.864H47.734a13.192,13.192,0,0,1,1.93,4.082h10.6a.932.932,0,0,1,0,1.864H50.037a13.3,13.3,0,0,1-.12,4.082H60.266a.932.932,0,1,1,0,1.864H49.427a13.214,13.214,0,0,1-1.84,3.517Zm-18.208-27.3H55.769a.932.932,0,1,0,0-1.864H45.726a.932.932,0,1,0,0,1.864Zm14.54,4.082H45.726a.932.932,0,0,0,0,1.864h14.54a.932.932,0,0,0,0-1.864ZM36.9,45.723a9.672,9.672,0,1,1,9.672-9.672A9.683,9.683,0,0,1,36.9,45.723Zm7.807-9.672A7.807,7.807,0,1,0,36.9,43.859,7.816,7.816,0,0,0,44.707,36.052Z" transform="translate(-8 -8.508)" fill="#f35923"/>
</svg>
