<svg xmlns="http://www.w3.org/2000/svg" xmlns:xlink="http://www.w3.org/1999/xlink" width="400" height="413.314" viewBox="0 0 400 413.314">
  <defs>
    <clipPath id="clip-path">
      <rect id="Rectángulo_403306" data-name="Rectángulo 403306" width="400" height="413.314" fill="none"/>
    </clipPath>
    <clipPath id="clip-path-2">
      <rect id="Rectángulo_403305" data-name="Rectángulo 403305" width="400" height="409.617" fill="none"/>
    </clipPath>
    <clipPath id="clip-path-3">
      <rect id="Rectángulo_403302" data-name="Rectángulo 403302" width="230.787" height="230.785" fill="#38b449"/>
    </clipPath>
    <clipPath id="clip-path-4">
      <rect id="Rectángulo_403303" data-name="Rectángulo 403303" width="237.257" height="237.257" fill="#f35923"/>
    </clipPath>
    <clipPath id="clip-path-5">
      <rect id="Rectángulo_403304" data-name="Rectángulo 403304" width="237.257" height="237.257" fill="#b1e5ff"/>
    </clipPath>
  </defs>
  <g id="Grupo_1103087" data-name="Grupo 1103087" transform="translate(-600 -24482.088)">
    <g id="Grupo_1101981" data-name="Grupo 1101981" transform="translate(1000 24895.402) rotate(180)">
      <g id="Grupo_1101980" data-name="Grupo 1101980" clip-path="url(#clip-path)">
        <g id="Grupo_1101979" data-name="Grupo 1101979" transform="translate(0 -0.001)">
          <g id="Grupo_1101978" data-name="Grupo 1101978" clip-path="url(#clip-path-2)">
            <g id="Grupo_1101971" data-name="Grupo 1101971" transform="translate(85 41.566)" opacity="0.85">
              <g id="Grupo_1101970" data-name="Grupo 1101970">
                <g id="Grupo_1101969" data-name="Grupo 1101969" clip-path="url(#clip-path-3)">
                  <path id="Trazado_885336" data-name="Trazado 885336" d="M570.508,115.389A115.393,115.393,0,1,1,455.115,0,115.393,115.393,0,0,1,570.508,115.389" transform="translate(-339.722 0.003)" fill="#38b449"/>
                </g>
              </g>
            </g>
            <g id="Grupo_1101974" data-name="Grupo 1101974" transform="translate(21.32 153.722)" opacity="0.85">
              <g id="Grupo_1101973" data-name="Grupo 1101973">
                <g id="Grupo_1101972" data-name="Grupo 1101972" clip-path="url(#clip-path-4)">
                  <path id="Trazado_885337" data-name="Trazado 885337" d="M237.257,722.785A118.629,118.629,0,1,1,118.629,604.156,118.629,118.629,0,0,1,237.257,722.785" transform="translate(0 -604.156)" fill="#f35923"/>
                </g>
              </g>
            </g>
            <g id="Grupo_1101977" data-name="Grupo 1101977" transform="translate(154.423 153.723)" opacity="0.85">
              <g id="Grupo_1101976" data-name="Grupo 1101976" opacity="0.756">
                <g id="Grupo_1101975" data-name="Grupo 1101975" clip-path="url(#clip-path-5)">
                  <path id="Trazado_885338" data-name="Trazado 885338" d="M913.812,722.784A118.628,118.628,0,1,1,795.184,604.156,118.628,118.628,0,0,1,913.812,722.784" transform="translate(-676.556 -604.156)" fill="#b1e5ff"/>
                </g>
              </g>
            </g>
          </g>
        </g>
      </g>
    </g>
    <path id="Trazado_888867" data-name="Trazado 888867" d="M-15.23-2.984A1.2,1.2,0,0,0-15.7-4a6.148,6.148,0,0,0-1.687-.75,11.963,11.963,0,0,1-1.93-.777,3.153,3.153,0,0,1-1.937-2.82A2.747,2.747,0,0,1-20.734-10a3.389,3.389,0,0,1,1.492-1.129,5.616,5.616,0,0,1,2.184-.406,5.112,5.112,0,0,1,2.172.441,3.458,3.458,0,0,1,1.48,1.246,3.261,3.261,0,0,1,.527,1.828h-2.344a1.534,1.534,0,0,0-.492-1.215A2.023,2.023,0,0,0-17.1-9.664a2.162,2.162,0,0,0-1.336.363,1.146,1.146,0,0,0-.477.957,1.1,1.1,0,0,0,.559.93,6.311,6.311,0,0,0,1.645.7,7.106,7.106,0,0,1,2.914,1.492A2.972,2.972,0,0,1-12.879-3,2.737,2.737,0,0,1-14-.684,4.891,4.891,0,0,1-17,.156a5.808,5.808,0,0,1-2.391-.48,3.783,3.783,0,0,1-1.645-1.316,3.371,3.371,0,0,1-.566-1.937h2.352Q-19.254-1.7-17-1.7a2.189,2.189,0,0,0,1.3-.34A1.106,1.106,0,0,0-15.23-2.984Zm3.438-1.32a5.013,5.013,0,0,1,.484-2.242A3.546,3.546,0,0,1-9.914-8.07,4.069,4.069,0,0,1-7.8-8.609,3.849,3.849,0,0,1-5.008-7.562,4.2,4.2,0,0,1-3.8-4.719l.016.578A4.418,4.418,0,0,1-4.871-1.02,3.775,3.775,0,0,1-7.785.156,3.793,3.793,0,0,1-10.7-1.016,4.5,4.5,0,0,1-11.793-4.2Zm2.258.16A3.16,3.16,0,0,0-9.082-2.3a1.5,1.5,0,0,0,1.3.638A1.5,1.5,0,0,0-6.5-2.294a3.457,3.457,0,0,0,.461-2.015A3.128,3.128,0,0,0-6.5-6.14a1.5,1.5,0,0,0-1.3-.649,1.474,1.474,0,0,0-1.281.646A3.516,3.516,0,0,0-9.535-4.144ZM1.121-1.664a1.481,1.481,0,0,0,1.016-.344,1.2,1.2,0,0,0,.406-.914H4.66a2.9,2.9,0,0,1-.469,1.574A3.093,3.093,0,0,1,2.93-.238,3.949,3.949,0,0,1,1.16.156,3.67,3.67,0,0,1-1.7-1,4.56,4.56,0,0,1-2.746-4.18v-.148A4.508,4.508,0,0,1-1.707-7.445,3.627,3.627,0,0,1,1.145-8.609a3.555,3.555,0,0,1,2.543.9A3.2,3.2,0,0,1,4.66-5.3H2.543a1.551,1.551,0,0,0-.406-1.072,1.354,1.354,0,0,0-1.031-.412,1.36,1.36,0,0,0-1.191.575,3.333,3.333,0,0,0-.4,1.866v.235a3.375,3.375,0,0,0,.4,1.878A1.377,1.377,0,0,0,1.121-1.664ZM8.332,0H6.066V-8.453H8.332Zm-2.4-10.641a1.112,1.112,0,0,1,.34-.836A1.277,1.277,0,0,1,7.2-11.8a1.28,1.28,0,0,1,.922.328,1.105,1.105,0,0,1,.344.836,1.108,1.108,0,0,1-.348.844,1.283,1.283,0,0,1-.918.328A1.283,1.283,0,0,1,6.281-9.8,1.108,1.108,0,0,1,5.934-10.641ZM15.09,0a2.507,2.507,0,0,1-.227-.758A2.732,2.732,0,0,1,12.73.156a3,3,0,0,1-2.059-.719,2.312,2.312,0,0,1-.816-1.812,2.389,2.389,0,0,1,1-2.062,4.915,4.915,0,0,1,2.879-.727H14.77v-.484a1.393,1.393,0,0,0-.3-.937,1.183,1.183,0,0,0-.949-.352,1.345,1.345,0,0,0-.895.273.929.929,0,0,0-.324.75H10.043A2.268,2.268,0,0,1,10.5-7.273a3,3,0,0,1,1.281-.98,4.669,4.669,0,0,1,1.859-.355,3.689,3.689,0,0,1,2.48.785,2.747,2.747,0,0,1,.918,2.207v3.664a4.041,4.041,0,0,0,.336,1.82V0ZM13.223-1.57a1.945,1.945,0,0,0,.922-.223,1.462,1.462,0,0,0,.625-.6V-3.844h-.844q-1.7,0-1.8,1.172l-.008.133a.9.9,0,0,0,.3.7A1.153,1.153,0,0,0,13.223-1.57ZM21.152,0H18.887V-12h2.266Z" transform="translate(682.931 24637.738)" fill="#12263f"/>
    <path id="Trazado_888868" data-name="Trazado 888868" d="M-28.082-4.93h-4.5v3.047H-27.3V0h-7.625V-11.375h7.609v1.9h-5.266v2.711h4.5Zm1.656.625a5.053,5.053,0,0,1,.887-3.148,2.9,2.9,0,0,1,2.434-1.156A2.6,2.6,0,0,1-20.941-7.57l.148-.883h1.984V3.25h-2.266V-.727a2.6,2.6,0,0,1-2.047.883,2.878,2.878,0,0,1-2.406-1.172A5.3,5.3,0,0,1-26.426-4.3Zm2.258.16A3.315,3.315,0,0,0-23.742-2.3a1.363,1.363,0,0,0,1.2.634,1.518,1.518,0,0,0,1.469-.829v-3.5a1.506,1.506,0,0,0-1.453-.8,1.38,1.38,0,0,0-1.211.634A3.661,3.661,0,0,0-24.168-4.144Zm12.2,3.285A2.831,2.831,0,0,1-14.285.156a2.67,2.67,0,0,1-2.074-.781,3.335,3.335,0,0,1-.73-2.289V-8.453h2.258v5.467q0,1.322,1.2,1.322a1.63,1.63,0,0,0,1.578-.8V-8.453h2.266V0H-11.91ZM-5.7,0H-7.965V-8.453H-5.7ZM-8.1-10.641a1.112,1.112,0,0,1,.34-.836,1.277,1.277,0,0,1,.926-.328,1.28,1.28,0,0,1,.922.328,1.105,1.105,0,0,1,.344.836,1.108,1.108,0,0,1-.348.844,1.283,1.283,0,0,1-.918.328A1.283,1.283,0,0,1-7.75-9.8,1.108,1.108,0,0,1-8.1-10.641Zm6.961.109v2.078H.309V-6.8H-1.137v4.219a1.007,1.007,0,0,0,.18.672.9.9,0,0,0,.688.2,3.6,3.6,0,0,0,.664-.055V-.047a4.648,4.648,0,0,1-1.367.2,2.156,2.156,0,0,1-2.422-2.4V-6.8H-4.629V-8.453h1.234v-2.078ZM6.465,0a2.507,2.507,0,0,1-.227-.758A2.732,2.732,0,0,1,4.105.156,3,3,0,0,1,2.047-.562,2.312,2.312,0,0,1,1.23-2.375a2.389,2.389,0,0,1,1-2.062,4.915,4.915,0,0,1,2.879-.727H6.145v-.484a1.393,1.393,0,0,0-.3-.937,1.183,1.183,0,0,0-.949-.352A1.345,1.345,0,0,0,4-6.664a.929.929,0,0,0-.324.75H1.418a2.268,2.268,0,0,1,.453-1.359,3,3,0,0,1,1.281-.98,4.669,4.669,0,0,1,1.859-.355,3.689,3.689,0,0,1,2.48.785A2.747,2.747,0,0,1,8.41-5.617v3.664a4.041,4.041,0,0,0,.336,1.82V0ZM4.6-1.57a1.945,1.945,0,0,0,.922-.223,1.462,1.462,0,0,0,.625-.6V-3.844H5.3q-1.7,0-1.8,1.172l-.008.133a.9.9,0,0,0,.3.7A1.153,1.153,0,0,0,4.6-1.57Zm8.25-8.961v2.078h1.445V-6.8H12.848v4.219a1.007,1.007,0,0,0,.18.672.9.9,0,0,0,.688.2,3.6,3.6,0,0,0,.664-.055V-.047a4.648,4.648,0,0,1-1.367.2,2.156,2.156,0,0,1-2.422-2.4V-6.8H9.355V-8.453H10.59v-2.078ZM17.934,0H15.668V-8.453h2.266Zm-2.4-10.641a1.112,1.112,0,0,1,.34-.836A1.277,1.277,0,0,1,16.8-11.8a1.28,1.28,0,0,1,.922.328,1.105,1.105,0,0,1,.344.836,1.108,1.108,0,0,1-.348.844,1.283,1.283,0,0,1-.918.328,1.283,1.283,0,0,1-.918-.328A1.108,1.108,0,0,1,15.535-10.641Zm7.422,7.883,1.57-5.7h2.359L24.035,0H21.879L19.027-8.453h2.359ZM27.41-4.3a5.013,5.013,0,0,1,.484-2.242A3.546,3.546,0,0,1,29.289-8.07,4.069,4.069,0,0,1,31.4-8.609,3.849,3.849,0,0,1,34.2-7.562,4.2,4.2,0,0,1,35.4-4.719l.016.578A4.418,4.418,0,0,1,34.332-1.02,3.775,3.775,0,0,1,31.418.156,3.793,3.793,0,0,1,28.5-1.016,4.5,4.5,0,0,1,27.41-4.2Zm2.258.16A3.16,3.16,0,0,0,30.121-2.3a1.5,1.5,0,0,0,1.3.638,1.5,1.5,0,0,0,1.281-.63,3.457,3.457,0,0,0,.461-2.015A3.128,3.128,0,0,0,32.7-6.14a1.5,1.5,0,0,0-1.3-.649,1.474,1.474,0,0,0-1.281.646A3.516,3.516,0,0,0,29.668-4.144Z" transform="translate(796.051 24594.738)" fill="#12263f"/>
    <path id="Trazado_888872" data-name="Trazado 888872" d="M-32.008-4.93h-4.5v3.047h5.281V0h-7.625V-11.375h7.609v1.9h-5.266v2.711h4.5Zm5.375,3.266a1.481,1.481,0,0,0,1.016-.344,1.2,1.2,0,0,0,.406-.914h2.117a2.9,2.9,0,0,1-.469,1.574A3.093,3.093,0,0,1-24.824-.238a3.949,3.949,0,0,1-1.77.395A3.67,3.67,0,0,1-29.453-1,4.56,4.56,0,0,1-30.5-4.18v-.148a4.508,4.508,0,0,1,1.039-3.117,3.627,3.627,0,0,1,2.852-1.164,3.555,3.555,0,0,1,2.543.9,3.2,3.2,0,0,1,.973,2.4h-2.117a1.551,1.551,0,0,0-.406-1.072,1.354,1.354,0,0,0-1.031-.412,1.36,1.36,0,0,0-1.191.575,3.333,3.333,0,0,0-.4,1.866v.235a3.375,3.375,0,0,0,.4,1.878A1.377,1.377,0,0,0-26.633-1.664ZM-22.156-4.3a5.013,5.013,0,0,1,.484-2.242A3.546,3.546,0,0,1-20.277-8.07a4.069,4.069,0,0,1,2.113-.539,3.849,3.849,0,0,1,2.793,1.047,4.2,4.2,0,0,1,1.207,2.844l.016.578A4.418,4.418,0,0,1-15.234-1.02,3.775,3.775,0,0,1-18.148.156a3.793,3.793,0,0,1-2.918-1.172A4.5,4.5,0,0,1-22.156-4.2Zm2.258.16A3.16,3.16,0,0,0-19.445-2.3a1.5,1.5,0,0,0,1.3.638,1.5,1.5,0,0,0,1.281-.63,3.457,3.457,0,0,0,.461-2.015,3.128,3.128,0,0,0-.461-1.831,1.5,1.5,0,0,0-1.3-.649,1.474,1.474,0,0,0-1.281.646A3.516,3.516,0,0,0-19.9-4.144Zm9.219-4.309.07.977A2.951,2.951,0,0,1-8.18-8.609a2.453,2.453,0,0,1,2,.789,3.682,3.682,0,0,1,.672,2.359V0H-7.766V-5.406a1.465,1.465,0,0,0-.312-1.043,1.4,1.4,0,0,0-1.039-.324,1.553,1.553,0,0,0-1.43.813V0H-12.8V-8.453ZM-4.148-4.3a5.013,5.013,0,0,1,.484-2.242A3.546,3.546,0,0,1-2.27-8.07,4.069,4.069,0,0,1-.156-8.609,3.849,3.849,0,0,1,2.637-7.562,4.2,4.2,0,0,1,3.844-4.719l.016.578A4.418,4.418,0,0,1,2.773-1.02,3.775,3.775,0,0,1-.141.156,3.793,3.793,0,0,1-3.059-1.016,4.5,4.5,0,0,1-4.148-4.2Zm2.258.16A3.16,3.16,0,0,0-1.437-2.3a1.5,1.5,0,0,0,1.3.638,1.5,1.5,0,0,0,1.281-.63A3.457,3.457,0,0,0,1.6-4.309,3.128,3.128,0,0,0,1.141-6.14a1.5,1.5,0,0,0-1.3-.649,1.474,1.474,0,0,0-1.281.646A3.516,3.516,0,0,0-1.891-4.144ZM.289-12H2.75L.586-9.578H-1.25ZM7.367-8.453l.07.945a2.971,2.971,0,0,1,2.43-1.1A2.255,2.255,0,0,1,12.109-7.32a2.9,2.9,0,0,1,2.539-1.289,2.521,2.521,0,0,1,2.047.8,3.681,3.681,0,0,1,.672,2.41V0H15.1V-5.391a1.61,1.61,0,0,0-.281-1.051,1.246,1.246,0,0,0-.992-.332,1.409,1.409,0,0,0-1.406.969L12.43,0H10.172V-5.383a1.59,1.59,0,0,0-.289-1.062A1.259,1.259,0,0,0,8.9-6.773a1.463,1.463,0,0,0-1.391.8V0H5.25V-8.453ZM21.484,0H19.219V-8.453h2.266Zm-2.4-10.641a1.112,1.112,0,0,1,.34-.836,1.277,1.277,0,0,1,.926-.328,1.28,1.28,0,0,1,.922.328,1.105,1.105,0,0,1,.344.836,1.108,1.108,0,0,1-.348.844,1.283,1.283,0,0,1-.918.328,1.283,1.283,0,0,1-.918-.328A1.108,1.108,0,0,1,19.086-10.641Zm7.773,8.977a1.481,1.481,0,0,0,1.016-.344,1.2,1.2,0,0,0,.406-.914H30.4a2.9,2.9,0,0,1-.469,1.574A3.093,3.093,0,0,1,28.668-.238,3.949,3.949,0,0,1,26.9.156,3.67,3.67,0,0,1,24.039-1,4.56,4.56,0,0,1,22.992-4.18v-.148a4.508,4.508,0,0,1,1.039-3.117,3.627,3.627,0,0,1,2.852-1.164,3.555,3.555,0,0,1,2.543.9A3.2,3.2,0,0,1,30.4-5.3H28.281a1.551,1.551,0,0,0-.406-1.072,1.354,1.354,0,0,0-1.031-.412,1.36,1.36,0,0,0-1.191.575,3.333,3.333,0,0,0-.4,1.866v.235a3.375,3.375,0,0,0,.4,1.878A1.377,1.377,0,0,0,26.859-1.664ZM31.336-4.3a5.013,5.013,0,0,1,.484-2.242A3.546,3.546,0,0,1,33.215-8.07a4.069,4.069,0,0,1,2.113-.539,3.849,3.849,0,0,1,2.793,1.047,4.2,4.2,0,0,1,1.207,2.844l.016.578A4.418,4.418,0,0,1,38.258-1.02,3.775,3.775,0,0,1,35.344.156a3.793,3.793,0,0,1-2.918-1.172A4.5,4.5,0,0,1,31.336-4.2Zm2.258.16A3.16,3.16,0,0,0,34.047-2.3a1.5,1.5,0,0,0,1.3.638,1.5,1.5,0,0,0,1.281-.63,3.457,3.457,0,0,0,.461-2.015,3.128,3.128,0,0,0-.461-1.831,1.5,1.5,0,0,0-1.3-.649,1.474,1.474,0,0,0-1.281.646A3.516,3.516,0,0,0,33.594-4.144Z" transform="translate(915.051 24637.738)" fill="#12263f"/>
    <path id="Trazado_888870" data-name="Trazado 888870" d="M-17.371-2.82l2.578-8.555h2.609L-16.145,0H-18.59l-3.945-11.375h2.6ZM-8.879,0h-2.266V-8.453h2.266Zm-2.4-10.641a1.112,1.112,0,0,1,.34-.836,1.277,1.277,0,0,1,.926-.328,1.28,1.28,0,0,1,.922.328,1.105,1.105,0,0,1,.344.836,1.108,1.108,0,0,1-.348.844,1.283,1.283,0,0,1-.918.328A1.283,1.283,0,0,1-10.93-9.8,1.108,1.108,0,0,1-11.277-10.641ZM-2.121,0a2.507,2.507,0,0,1-.227-.758A2.732,2.732,0,0,1-4.48.156,3,3,0,0,1-6.539-.562a2.312,2.312,0,0,1-.816-1.812,2.389,2.389,0,0,1,1-2.062A4.915,4.915,0,0,1-3.48-5.164h1.039v-.484a1.393,1.393,0,0,0-.3-.937,1.183,1.183,0,0,0-.949-.352,1.345,1.345,0,0,0-.895.273.929.929,0,0,0-.324.75H-7.168a2.268,2.268,0,0,1,.453-1.359,3,3,0,0,1,1.281-.98,4.669,4.669,0,0,1,1.859-.355,3.689,3.689,0,0,1,2.48.785A2.747,2.747,0,0,1-.176-5.617v3.664A4.041,4.041,0,0,0,.16-.133V0ZM-3.988-1.57a1.945,1.945,0,0,0,.922-.223,1.462,1.462,0,0,0,.625-.6V-3.844h-.844q-1.7,0-1.8,1.172l-.008.133a.9.9,0,0,0,.3.7A1.153,1.153,0,0,0-3.988-1.57ZM9.176-4.148A5.119,5.119,0,0,1,8.309-.98,2.872,2.872,0,0,1,5.887.156,2.639,2.639,0,0,1,3.691-.9l-.1.9H1.559V-12H3.816v4.3a2.571,2.571,0,0,1,2.055-.914A2.9,2.9,0,0,1,8.3-7.473a5.126,5.126,0,0,1,.879,3.2ZM6.918-4.312a3.363,3.363,0,0,0-.406-1.871A1.374,1.374,0,0,0,5.3-6.773a1.489,1.489,0,0,0-1.484.883v3.336a1.509,1.509,0,0,0,1.5.891A1.394,1.394,0,0,0,6.754-2.742,5.562,5.562,0,0,0,6.918-4.312ZM12.949,0H10.684V-12h2.266ZM18.7.156A4.15,4.15,0,0,1,15.672-.984,4.054,4.054,0,0,1,14.5-4.023v-.219A5.106,5.106,0,0,1,15-6.52a3.612,3.612,0,0,1,1.395-1.547,3.914,3.914,0,0,1,2.059-.543,3.508,3.508,0,0,1,2.73,1.094,4.444,4.444,0,0,1,1,3.1v.922H16.793a2.1,2.1,0,0,0,.66,1.328,2,2,0,0,0,1.395.5,2.437,2.437,0,0,0,2.039-.945L22-1.367A3.389,3.389,0,0,1,20.621-.246,4.511,4.511,0,0,1,18.7.156Zm-.258-6.945a1.411,1.411,0,0,0-1.09.455,2.357,2.357,0,0,0-.535,1.3h3.141v-.181a1.681,1.681,0,0,0-.406-1.165A1.456,1.456,0,0,0,18.441-6.789Z" transform="translate(865.051 24705.738)" fill="#12263f"/>
    <path id="Trazado_888871" data-name="Trazado 888871" d="M-19.246-2.82l2.578-8.555h2.609L-18.02,0h-2.445L-24.41-11.375h2.6ZM-10.754,0H-13.02V-8.453h2.266Zm-2.4-10.641a1.112,1.112,0,0,1,.34-.836,1.277,1.277,0,0,1,.926-.328,1.28,1.28,0,0,1,.922.328,1.105,1.105,0,0,1,.344.836,1.108,1.108,0,0,1-.348.844,1.283,1.283,0,0,1-.918.328A1.283,1.283,0,0,1-12.8-9.8,1.108,1.108,0,0,1-13.152-10.641ZM-5.73-2.758l1.57-5.7H-1.8L-4.652,0H-6.809L-9.66-8.453H-7.3ZM1.574,0H-.691V-8.453H1.574Zm-2.4-10.641a1.112,1.112,0,0,1,.34-.836A1.277,1.277,0,0,1,.441-11.8a1.28,1.28,0,0,1,.922.328,1.105,1.105,0,0,1,.344.836,1.108,1.108,0,0,1-.348.844,1.283,1.283,0,0,1-.918.328A1.283,1.283,0,0,1-.477-9.8,1.108,1.108,0,0,1-.824-10.641ZM11.051-4.148A5.119,5.119,0,0,1,10.184-.98,2.872,2.872,0,0,1,7.762.156,2.639,2.639,0,0,1,5.566-.9l-.1.9H3.434V-12H5.691v4.3a2.571,2.571,0,0,1,2.055-.914,2.9,2.9,0,0,1,2.426,1.137,5.126,5.126,0,0,1,.879,3.2ZM8.793-4.312a3.363,3.363,0,0,0-.406-1.871,1.374,1.374,0,0,0-1.211-.59,1.489,1.489,0,0,0-1.484.883v3.336a1.509,1.509,0,0,0,1.5.891A1.394,1.394,0,0,0,8.629-2.742,5.562,5.562,0,0,0,8.793-4.312ZM14.824,0H12.559V-12h2.266Zm5.75.156A4.15,4.15,0,0,1,17.547-.984a4.054,4.054,0,0,1-1.168-3.039v-.219a5.106,5.106,0,0,1,.492-2.277,3.612,3.612,0,0,1,1.395-1.547,3.914,3.914,0,0,1,2.059-.543,3.508,3.508,0,0,1,2.73,1.094,4.444,4.444,0,0,1,1,3.1v.922H18.668a2.1,2.1,0,0,0,.66,1.328,2,2,0,0,0,1.395.5,2.437,2.437,0,0,0,2.039-.945l1.109,1.242A3.389,3.389,0,0,1,22.5-.246,4.511,4.511,0,0,1,20.574.156Zm-.258-6.945a1.411,1.411,0,0,0-1.09.455,2.357,2.357,0,0,0-.535,1.3h3.141v-.181a1.681,1.681,0,0,0-.406-1.165A1.456,1.456,0,0,0,20.316-6.789Z" transform="translate(729.051 24705.738)" fill="#12263f"/>
    <path id="Trazado_888873" data-name="Trazado 888873" d="M-54.164-11.375l2.922,8.25,2.906-8.25h3.078V0h-2.352V-3.109l.234-5.367L-50.445,0h-1.609l-3.062-8.469.234,5.359V0h-2.344V-11.375ZM-39.469.156A4.15,4.15,0,0,1-42.5-.984a4.054,4.054,0,0,1-1.168-3.039v-.219a5.106,5.106,0,0,1,.492-2.277,3.612,3.612,0,0,1,1.395-1.547,3.914,3.914,0,0,1,2.059-.543,3.508,3.508,0,0,1,2.73,1.094,4.444,4.444,0,0,1,1,3.1v.922h-5.383a2.1,2.1,0,0,0,.66,1.328,2,2,0,0,0,1.395.5,2.437,2.437,0,0,0,2.039-.945l1.109,1.242A3.389,3.389,0,0,1-37.547-.246,4.511,4.511,0,0,1-39.469.156Zm-.258-6.945a1.411,1.411,0,0,0-1.09.455,2.357,2.357,0,0,0-.535,1.3h3.141v-.181a1.681,1.681,0,0,0-.406-1.165A1.456,1.456,0,0,0-39.727-6.789Zm4.664,2.5a5.094,5.094,0,0,1,.887-3.148A2.877,2.877,0,0,1-31.75-8.609a2.589,2.589,0,0,1,2.039.922V-12h2.266V0h-2.039l-.109-.9A2.657,2.657,0,0,1-31.766.156,2.869,2.869,0,0,1-34.16-1.02,5.258,5.258,0,0,1-35.062-4.289Zm2.258.168A3.337,3.337,0,0,0-32.391-2.3a1.349,1.349,0,0,0,1.2.634,1.511,1.511,0,0,0,1.477-.884V-5.889a1.489,1.489,0,0,0-1.461-.884Q-32.8-6.773-32.8-4.121ZM-23.312,0h-2.266V-8.453h2.266Zm-2.4-10.641a1.112,1.112,0,0,1,.34-.836,1.277,1.277,0,0,1,.926-.328,1.28,1.28,0,0,1,.922.328,1.105,1.105,0,0,1,.344.836,1.108,1.108,0,0,1-.348.844,1.283,1.283,0,0,1-.918.328,1.283,1.283,0,0,1-.918-.328A1.108,1.108,0,0,1-25.711-10.641ZM-21.8-4.3a5.013,5.013,0,0,1,.484-2.242A3.546,3.546,0,0,1-19.926-8.07a4.069,4.069,0,0,1,2.113-.539A3.849,3.849,0,0,1-15.02-7.562a4.2,4.2,0,0,1,1.207,2.844l.016.578A4.418,4.418,0,0,1-14.883-1.02,3.775,3.775,0,0,1-17.8.156a3.793,3.793,0,0,1-2.918-1.172A4.5,4.5,0,0,1-21.8-4.2Zm2.258.16A3.16,3.16,0,0,0-19.094-2.3a1.5,1.5,0,0,0,1.3.638,1.5,1.5,0,0,0,1.281-.63,3.457,3.457,0,0,0,.461-2.015,3.128,3.128,0,0,0-.461-1.831,1.5,1.5,0,0,0-1.3-.649,1.474,1.474,0,0,0-1.281.646A3.516,3.516,0,0,0-19.547-4.144ZM-7.508,0a2.507,2.507,0,0,1-.227-.758A2.732,2.732,0,0,1-9.867.156a3,3,0,0,1-2.059-.719,2.312,2.312,0,0,1-.816-1.812,2.389,2.389,0,0,1,1-2.062,4.915,4.915,0,0,1,2.879-.727h1.039v-.484a1.393,1.393,0,0,0-.3-.937,1.183,1.183,0,0,0-.949-.352,1.345,1.345,0,0,0-.895.273.929.929,0,0,0-.324.75h-2.258A2.268,2.268,0,0,1-12.1-7.273a3,3,0,0,1,1.281-.98,4.669,4.669,0,0,1,1.859-.355,3.689,3.689,0,0,1,2.48.785,2.747,2.747,0,0,1,.918,2.207v3.664a4.041,4.041,0,0,0,.336,1.82V0ZM-9.375-1.57a1.945,1.945,0,0,0,.922-.223,1.462,1.462,0,0,0,.625-.6V-3.844h-.844q-1.7,0-1.8,1.172l-.008.133a.9.9,0,0,0,.3.7A1.153,1.153,0,0,0-9.375-1.57Zm7.664-6.883.07.945a2.971,2.971,0,0,1,2.43-1.1A2.255,2.255,0,0,1,3.031-7.32,2.9,2.9,0,0,1,5.57-8.609a2.521,2.521,0,0,1,2.047.8A3.681,3.681,0,0,1,8.289-5.4V0H6.023V-5.391a1.61,1.61,0,0,0-.281-1.051,1.246,1.246,0,0,0-.992-.332A1.409,1.409,0,0,0,3.344-5.8L3.352,0H1.094V-5.383A1.59,1.59,0,0,0,.8-6.445,1.259,1.259,0,0,0-.18-6.773a1.463,1.463,0,0,0-1.391.8V0H-3.828V-8.453Zm19.352,4.3A5.119,5.119,0,0,1,16.773-.98,2.872,2.872,0,0,1,14.352.156,2.639,2.639,0,0,1,12.156-.9l-.1.9H10.023V-12h2.258v4.3a2.571,2.571,0,0,1,2.055-.914,2.9,2.9,0,0,1,2.426,1.137,5.126,5.126,0,0,1,.879,3.2Zm-2.258-.164a3.363,3.363,0,0,0-.406-1.871,1.374,1.374,0,0,0-1.211-.59,1.489,1.489,0,0,0-1.484.883v3.336a1.509,1.509,0,0,0,1.5.891,1.394,1.394,0,0,0,1.438-1.078A5.562,5.562,0,0,0,15.383-4.312ZM21.414,0H19.148V-8.453h2.266Zm-2.4-10.641a1.112,1.112,0,0,1,.34-.836,1.277,1.277,0,0,1,.926-.328,1.28,1.28,0,0,1,.922.328,1.105,1.105,0,0,1,.344.836A1.108,1.108,0,0,1,21.2-9.8a1.283,1.283,0,0,1-.918.328,1.283,1.283,0,0,1-.918-.328A1.108,1.108,0,0,1,19.016-10.641ZM27.164.156A4.15,4.15,0,0,1,24.137-.984a4.054,4.054,0,0,1-1.168-3.039v-.219a5.106,5.106,0,0,1,.492-2.277,3.612,3.612,0,0,1,1.395-1.547,3.914,3.914,0,0,1,2.059-.543,3.508,3.508,0,0,1,2.73,1.094,4.444,4.444,0,0,1,1,3.1v.922H25.258a2.1,2.1,0,0,0,.66,1.328,2,2,0,0,0,1.395.5,2.437,2.437,0,0,0,2.039-.945l1.109,1.242A3.389,3.389,0,0,1,29.086-.246,4.511,4.511,0,0,1,27.164.156Zm-.258-6.945a1.411,1.411,0,0,0-1.09.455,2.357,2.357,0,0,0-.535,1.3h3.141v-.181a1.681,1.681,0,0,0-.406-1.165A1.456,1.456,0,0,0,26.906-6.789ZM34-8.453l.07.977A2.951,2.951,0,0,1,36.5-8.609a2.453,2.453,0,0,1,2,.789,3.682,3.682,0,0,1,.672,2.359V0H36.914V-5.406A1.465,1.465,0,0,0,36.6-6.449a1.4,1.4,0,0,0-1.039-.324,1.553,1.553,0,0,0-1.43.813V0H31.875V-8.453Zm9.586-2.078v2.078h1.445V-6.8H43.586v4.219a1.007,1.007,0,0,0,.18.672.9.9,0,0,0,.688.2,3.6,3.6,0,0,0,.664-.055V-.047a4.648,4.648,0,0,1-1.367.2,2.156,2.156,0,0,1-2.422-2.4V-6.8H40.094V-8.453h1.234v-2.078ZM51.188,0a2.507,2.507,0,0,1-.227-.758,2.732,2.732,0,0,1-2.133.914A3,3,0,0,1,46.77-.562a2.312,2.312,0,0,1-.816-1.812,2.389,2.389,0,0,1,1-2.062,4.915,4.915,0,0,1,2.879-.727h1.039v-.484a1.393,1.393,0,0,0-.3-.937,1.183,1.183,0,0,0-.949-.352,1.345,1.345,0,0,0-.895.273.929.929,0,0,0-.324.75H46.141a2.268,2.268,0,0,1,.453-1.359,3,3,0,0,1,1.281-.98,4.669,4.669,0,0,1,1.859-.355,3.689,3.689,0,0,1,2.48.785,2.747,2.747,0,0,1,.918,2.207v3.664a4.041,4.041,0,0,0,.336,1.82V0ZM49.32-1.57a1.945,1.945,0,0,0,.922-.223,1.462,1.462,0,0,0,.625-.6V-3.844h-.844q-1.7,0-1.8,1.172l-.008.133a.9.9,0,0,0,.3.7A1.153,1.153,0,0,0,49.32-1.57ZM57.25,0H54.984V-12H57.25Z" transform="translate(800.051 24820.738)" fill="#12263f"/>
    <path id="Trazado_888869" data-name="Trazado 888869" d="M-35.895,0V-11.375h3.5a5.315,5.315,0,0,1,2.684.676,4.712,4.712,0,0,1,1.848,1.922A5.928,5.928,0,0,1-27.2-5.945v.523a5.945,5.945,0,0,1-.652,2.82,4.672,4.672,0,0,1-1.84,1.914A5.355,5.355,0,0,1-32.371,0Zm2.344-9.477v7.594h1.133a2.545,2.545,0,0,0,2.1-.9,4.06,4.06,0,0,0,.742-2.57v-.6a4.124,4.124,0,0,0-.719-2.629,2.537,2.537,0,0,0-2.1-.895Zm11.8,9.633A4.15,4.15,0,0,1-24.781-.984a4.054,4.054,0,0,1-1.168-3.039v-.219a5.106,5.106,0,0,1,.492-2.277,3.612,3.612,0,0,1,1.395-1.547A3.914,3.914,0,0,1-22-8.609a3.508,3.508,0,0,1,2.73,1.094,4.444,4.444,0,0,1,1,3.1v.922H-23.66A2.1,2.1,0,0,0-23-2.164a2,2,0,0,0,1.395.5,2.437,2.437,0,0,0,2.039-.945l1.109,1.242A3.389,3.389,0,0,1-19.832-.246,4.511,4.511,0,0,1-21.754.156Zm-.258-6.945a1.411,1.411,0,0,0-1.09.455,2.357,2.357,0,0,0-.535,1.3H-20.5v-.181A1.681,1.681,0,0,0-20.9-6.377,1.456,1.456,0,0,0-22.012-6.789Zm9.594,4.453a.727.727,0,0,0-.41-.652,4.659,4.659,0,0,0-1.316-.426q-3.016-.633-3.016-2.562a2.323,2.323,0,0,1,.934-1.879,3.766,3.766,0,0,1,2.441-.754,4.053,4.053,0,0,1,2.574.758,2.388,2.388,0,0,1,.965,1.969H-12.5a1.092,1.092,0,0,0-.312-.8A1.322,1.322,0,0,0-13.793-7a1.351,1.351,0,0,0-.883.258.814.814,0,0,0-.312.656.7.7,0,0,0,.355.605,3.657,3.657,0,0,0,1.2.4,9.8,9.8,0,0,1,1.422.379A2.336,2.336,0,0,1-10.223-2.43a2.2,2.2,0,0,1-.992,1.871,4.28,4.28,0,0,1-2.562.715,4.47,4.47,0,0,1-1.887-.379,3.166,3.166,0,0,1-1.293-1.039,2.414,2.414,0,0,1-.469-1.426h2.141a1.179,1.179,0,0,0,.445.922,1.766,1.766,0,0,0,1.109.32,1.635,1.635,0,0,0,.98-.246A.766.766,0,0,0-12.418-2.336ZM-3.871,0A2.507,2.507,0,0,1-4.1-.758,2.732,2.732,0,0,1-6.23.156,3,3,0,0,1-8.289-.562a2.312,2.312,0,0,1-.816-1.812,2.389,2.389,0,0,1,1-2.062A4.915,4.915,0,0,1-5.23-5.164h1.039v-.484a1.393,1.393,0,0,0-.3-.937,1.183,1.183,0,0,0-.949-.352,1.345,1.345,0,0,0-.895.273.929.929,0,0,0-.324.75H-8.918a2.268,2.268,0,0,1,.453-1.359,3,3,0,0,1,1.281-.98,4.669,4.669,0,0,1,1.859-.355,3.689,3.689,0,0,1,2.48.785,2.747,2.747,0,0,1,.918,2.207v3.664A4.041,4.041,0,0,0-1.59-.133V0ZM-5.738-1.57a1.945,1.945,0,0,0,.922-.223,1.462,1.462,0,0,0,.625-.6V-3.844h-.844q-1.7,0-1.8,1.172l-.008.133a.9.9,0,0,0,.3.7A1.153,1.153,0,0,0-5.738-1.57Zm10.3-4.766A6.134,6.134,0,0,0,3.746-6.4a1.654,1.654,0,0,0-1.68.867V0H-.191V-8.453H1.941L2-7.445A2.092,2.092,0,0,1,3.887-8.609a2.366,2.366,0,0,1,.7.1Zm5.836,0A6.134,6.134,0,0,0,9.582-6.4a1.654,1.654,0,0,0-1.68.867V0H5.645V-8.453H7.777L7.84-7.445A2.092,2.092,0,0,1,9.723-8.609a2.366,2.366,0,0,1,.7.1ZM10.848-4.3a5.013,5.013,0,0,1,.484-2.242A3.546,3.546,0,0,1,12.727-8.07a4.069,4.069,0,0,1,2.113-.539,3.849,3.849,0,0,1,2.793,1.047A4.2,4.2,0,0,1,18.84-4.719l.016.578A4.418,4.418,0,0,1,17.77-1.02,3.775,3.775,0,0,1,14.855.156a3.793,3.793,0,0,1-2.918-1.172A4.5,4.5,0,0,1,10.848-4.2Zm2.258.16A3.16,3.16,0,0,0,13.559-2.3a1.5,1.5,0,0,0,1.3.638,1.5,1.5,0,0,0,1.281-.63A3.457,3.457,0,0,0,16.6-4.309a3.128,3.128,0,0,0-.461-1.831,1.5,1.5,0,0,0-1.3-.649,1.474,1.474,0,0,0-1.281.646A3.516,3.516,0,0,0,13.105-4.144ZM22.629,0H20.363V-12h2.266Zm4.242,0H24.605V-12h2.266Zm1.508-4.3a5.013,5.013,0,0,1,.484-2.242A3.546,3.546,0,0,1,30.258-8.07a4.069,4.069,0,0,1,2.113-.539,3.849,3.849,0,0,1,2.793,1.047,4.2,4.2,0,0,1,1.207,2.844l.016.578A4.418,4.418,0,0,1,35.3-1.02,3.775,3.775,0,0,1,32.387.156a3.793,3.793,0,0,1-2.918-1.172A4.5,4.5,0,0,1,28.379-4.2Zm2.258.16A3.16,3.16,0,0,0,31.09-2.3a1.5,1.5,0,0,0,1.3.638,1.5,1.5,0,0,0,1.281-.63,3.457,3.457,0,0,0,.461-2.015,3.128,3.128,0,0,0-.461-1.831,1.5,1.5,0,0,0-1.3-.649,1.474,1.474,0,0,0-1.281.646A3.516,3.516,0,0,0,30.637-4.144Zm-62.52,19.808a.727.727,0,0,0-.41-.652,4.659,4.659,0,0,0-1.316-.426q-3.016-.633-3.016-2.562a2.323,2.323,0,0,1,.934-1.879,3.766,3.766,0,0,1,2.441-.754,4.053,4.053,0,0,1,2.574.758,2.388,2.388,0,0,1,.965,1.969h-2.258a1.092,1.092,0,0,0-.312-.8A1.322,1.322,0,0,0-33.258,11a1.351,1.351,0,0,0-.883.258.814.814,0,0,0-.312.656.7.7,0,0,0,.355.605,3.657,3.657,0,0,0,1.2.4,9.8,9.8,0,0,1,1.422.379,2.336,2.336,0,0,1,1.789,2.273,2.2,2.2,0,0,1-.992,1.871,4.28,4.28,0,0,1-2.562.715,4.47,4.47,0,0,1-1.887-.379,3.166,3.166,0,0,1-1.293-1.039,2.414,2.414,0,0,1-.469-1.426h2.141a1.179,1.179,0,0,0,.445.922,1.766,1.766,0,0,0,1.109.32,1.635,1.635,0,0,0,.98-.246A.766.766,0,0,0-31.883,15.664Zm3.3-1.969a5.013,5.013,0,0,1,.484-2.242A3.546,3.546,0,0,1-26.707,9.93a4.069,4.069,0,0,1,2.113-.539A3.849,3.849,0,0,1-21.8,10.438a4.2,4.2,0,0,1,1.207,2.844l.016.578a4.418,4.418,0,0,1-1.086,3.121,3.775,3.775,0,0,1-2.914,1.176A3.793,3.793,0,0,1-27.5,16.984a4.5,4.5,0,0,1-1.09-3.187Zm2.258.16a3.16,3.16,0,0,0,.453,1.843,1.5,1.5,0,0,0,1.3.638,1.5,1.5,0,0,0,1.281-.63,3.457,3.457,0,0,0,.461-2.015A3.128,3.128,0,0,0-23.3,11.86a1.5,1.5,0,0,0-1.3-.649,1.474,1.474,0,0,0-1.281.646A3.516,3.516,0,0,0-26.328,13.856Zm11.719,1.808a.727.727,0,0,0-.41-.652,4.659,4.659,0,0,0-1.316-.426q-3.016-.633-3.016-2.562a2.323,2.323,0,0,1,.934-1.879,3.766,3.766,0,0,1,2.441-.754,4.053,4.053,0,0,1,2.574.758,2.388,2.388,0,0,1,.965,1.969H-14.7a1.092,1.092,0,0,0-.312-.8A1.322,1.322,0,0,0-15.984,11a1.351,1.351,0,0,0-.883.258.814.814,0,0,0-.312.656.7.7,0,0,0,.355.605,3.657,3.657,0,0,0,1.2.4A9.8,9.8,0,0,1-14.2,13.3a2.336,2.336,0,0,1,1.789,2.273,2.2,2.2,0,0,1-.992,1.871,4.28,4.28,0,0,1-2.562.715,4.47,4.47,0,0,1-1.887-.379,3.166,3.166,0,0,1-1.293-1.039,2.414,2.414,0,0,1-.469-1.426h2.141a1.179,1.179,0,0,0,.445.922,1.766,1.766,0,0,0,1.109.32,1.635,1.635,0,0,0,.98-.246A.766.766,0,0,0-14.609,15.664Zm6.352-8.2V9.547h1.445V11.2H-8.258v4.219a1.007,1.007,0,0,0,.18.672.9.9,0,0,0,.688.2,3.6,3.6,0,0,0,.664-.055v1.711a4.648,4.648,0,0,1-1.367.2,2.156,2.156,0,0,1-2.422-2.4V11.2H-11.75V9.547h1.234V7.469Zm6.594,10.688a4.15,4.15,0,0,1-3.027-1.141,4.054,4.054,0,0,1-1.168-3.039v-.219a5.106,5.106,0,0,1,.492-2.277A3.612,3.612,0,0,1-3.973,9.934a3.914,3.914,0,0,1,2.059-.543,3.508,3.508,0,0,1,2.73,1.094,4.444,4.444,0,0,1,1,3.1v.922H-3.57a2.1,2.1,0,0,0,.66,1.328,2,2,0,0,0,1.395.5,2.437,2.437,0,0,0,2.039-.945l1.109,1.242A3.389,3.389,0,0,1,.258,17.754,4.511,4.511,0,0,1-1.664,18.156Zm-.258-6.945a1.411,1.411,0,0,0-1.09.455,2.357,2.357,0,0,0-.535,1.3H-.406v-.181a1.681,1.681,0,0,0-.406-1.165A1.456,1.456,0,0,0-1.922,11.211ZM5.172,9.547l.07.977a2.951,2.951,0,0,1,2.43-1.133,2.453,2.453,0,0,1,2,.789,3.682,3.682,0,0,1,.672,2.359V18H8.086V12.594a1.465,1.465,0,0,0-.312-1.043,1.4,1.4,0,0,0-1.039-.324,1.553,1.553,0,0,0-1.43.813V18H3.047V9.547ZM14.438,18H12.172V9.547h2.266Zm-2.4-10.641a1.112,1.112,0,0,1,.34-.836A1.277,1.277,0,0,1,13.3,6.2a1.28,1.28,0,0,1,.922.328,1.193,1.193,0,0,1,0,1.68,1.448,1.448,0,0,1-1.836,0A1.108,1.108,0,0,1,12.039,7.359Zm11.875,6.492a5.119,5.119,0,0,1-.867,3.168,2.872,2.872,0,0,1-2.422,1.137,2.639,2.639,0,0,1-2.2-1.055l-.1.9H16.3V6h2.258v4.3a2.571,2.571,0,0,1,2.055-.914,2.9,2.9,0,0,1,2.426,1.137,5.126,5.126,0,0,1,.879,3.2Zm-2.258-.164a3.363,3.363,0,0,0-.406-1.871,1.374,1.374,0,0,0-1.211-.59,1.489,1.489,0,0,0-1.484.883v3.336a1.509,1.509,0,0,0,1.5.891,1.394,1.394,0,0,0,1.438-1.078A5.562,5.562,0,0,0,21.656,13.688ZM27.688,18H25.422V6h2.266Zm5.75.156a4.15,4.15,0,0,1-3.027-1.141,4.054,4.054,0,0,1-1.168-3.039v-.219a5.106,5.106,0,0,1,.492-2.277,3.612,3.612,0,0,1,1.395-1.547,3.914,3.914,0,0,1,2.059-.543,3.508,3.508,0,0,1,2.73,1.094,4.444,4.444,0,0,1,1,3.1v.922H31.531a2.1,2.1,0,0,0,.66,1.328,2,2,0,0,0,1.395.5,2.437,2.437,0,0,0,2.039-.945l1.109,1.242a3.389,3.389,0,0,1-1.375,1.121A4.511,4.511,0,0,1,33.438,18.156Zm-.258-6.945a1.411,1.411,0,0,0-1.09.455,2.357,2.357,0,0,0-.535,1.3H34.7v-.181a1.681,1.681,0,0,0-.406-1.165A1.456,1.456,0,0,0,33.18,11.211Z" transform="translate(794.051 24658.738)" fill="#12263f"/>
    <g id="Grupo_1102094" data-name="Grupo 1102094" transform="translate(660.931 24542.113)">
      <path id="Trazado_885536" data-name="Trazado 885536" d="M19.209,62.712A4.839,4.839,0,0,0,17.484,61.6a4.89,4.89,0,0,0-.513-6.28l-.043-.043a4.876,4.876,0,0,0-5.3-1.059,4.842,4.842,0,0,0-1.225-2.051l-.044-.044a4.892,4.892,0,0,0-6.885,0l-.122.122L3.1,51.993a10.609,10.609,0,0,1,15-15l2.474,2.474-4.694,4.56a5.254,5.254,0,1,0,7.37,7.488l1.618-1.618a.131.131,0,0,1,.185,0l9.7,9.7.006.006.344.344a1.652,1.652,0,1,1-2.336,2.336c-.018-.018-.038-.035-.057-.052-.035-.037-.069-.075-.105-.111l-2.741-2.741a1.464,1.464,0,1,0-2.07,2.07l2.741,2.741a1.881,1.881,0,0,1-2.661,2.661L25.15,64.118a1.464,1.464,0,0,0-2.07,2.07L25.792,68.9a1.882,1.882,0,1,1-2.647,2.676L20.09,68.52a4.891,4.891,0,0,0-.838-5.765Z" fill="#12263f"/>
      <path id="Trazado_885537" data-name="Trazado 885537" d="M223.927,42.745a10.025,10.025,0,0,1,.014,14.147l-5.334,5.044-8.693-8.692a3.072,3.072,0,0,0-4.324,0l-1.618,1.618a2.337,2.337,0,0,1-3.29,0,2.327,2.327,0,0,1,.027-3.317l9.042-8.785a10.025,10.025,0,0,1,14.176-.015Z" transform="translate(-182.787 -5.419)" fill="#12263f"/>
      <path id="Trazado_885538" data-name="Trazado 885538" d="M83.722,307.6l-.043-.043a1.951,1.951,0,0,1,0-2.745l2.688-2.688,0,0,1.7-1.7a1.972,1.972,0,0,1,2.789,2.789L86.467,307.6A1.943,1.943,0,0,1,83.722,307.6Z" transform="translate(-75.96 -243.074)" fill="#12263f"/>
      <path id="Trazado_885539" data-name="Trazado 885539" d="M27.247,269.289l-.043-.043a1.944,1.944,0,0,1,0-2.745l2.688-2.688a1.95,1.95,0,0,1,2.745,0l.044.044a1.95,1.95,0,0,1,0,2.745l-2.688,2.688A1.943,1.943,0,0,1,27.247,269.289Z" transform="translate(-24.344 -209.619)" fill="#12263f"/>
      <path id="Trazado_885540" data-name="Trazado 885540" d="M143.751,391.33a1.944,1.944,0,0,1-2.745,0l-.043-.043a1.944,1.944,0,0,1,0-2.745L142.7,386.8a1.972,1.972,0,0,1,2.789,2.789Z" transform="translate(-128.31 -322.018)" fill="#12263f"/>
    </g>
    <path id="Trazado_885541" data-name="Trazado 885541" d="M24.223,7.8A16.389,16.389,0,1,0,40.612,24.194,16.407,16.407,0,0,0,24.223,7.8Zm-.579,14.539,2.177.75a4.577,4.577,0,0,1-.037,8.666v1.454a1.561,1.561,0,0,1-3.122,0V31.759a4.583,4.583,0,0,1-3.122-4.338,1.561,1.561,0,1,1,3.122,0,1.457,1.457,0,0,0,1.456,1.456h.211a1.456,1.456,0,0,0,.474-2.832l-2.177-.75a4.577,4.577,0,0,1,.037-8.666V15.175a1.561,1.561,0,0,1,3.122,0v1.454a4.583,4.583,0,0,1,3.122,4.338,1.561,1.561,0,1,1-3.122,0,1.457,1.457,0,0,0-1.456-1.456h-.211a1.456,1.456,0,0,0-.474,2.832ZM24.223,7.8A16.389,16.389,0,1,0,40.612,24.194,16.407,16.407,0,0,0,24.223,7.8Zm-.579,14.539,2.177.75a4.577,4.577,0,0,1-.037,8.666v1.454a1.561,1.561,0,0,1-3.122,0V31.759a4.583,4.583,0,0,1-3.122-4.338,1.561,1.561,0,1,1,3.122,0,1.457,1.457,0,0,0,1.456,1.456h.211a1.456,1.456,0,0,0,.474-2.832l-2.177-.75a4.577,4.577,0,0,1,.037-8.666V15.175a1.561,1.561,0,0,1,3.122,0v1.454a4.583,4.583,0,0,1,3.122,4.338,1.561,1.561,0,1,1-3.122,0,1.457,1.457,0,0,0-1.456-1.456h-.211a1.456,1.456,0,0,0-.474,2.832ZM24.223,0A24.193,24.193,0,1,0,48.416,24.194,24.181,24.181,0,0,0,24.223,0Zm0,43.7A19.511,19.511,0,1,1,43.733,24.194,19.533,19.533,0,0,1,24.223,43.7Zm0-35.9A16.389,16.389,0,1,0,40.612,24.194,16.407,16.407,0,0,0,24.223,7.8Zm-.579,14.539,2.177.75a4.577,4.577,0,0,1-.037,8.666v1.454a1.561,1.561,0,0,1-3.122,0V31.759a4.583,4.583,0,0,1-3.122-4.338,1.561,1.561,0,1,1,3.122,0,1.457,1.457,0,0,0,1.456,1.456h.211a1.456,1.456,0,0,0,.474-2.832l-2.177-.75a4.577,4.577,0,0,1,.037-8.666V15.175a1.561,1.561,0,0,1,3.122,0v1.454a4.583,4.583,0,0,1,3.122,4.338,1.561,1.561,0,1,1-3.122,0,1.457,1.457,0,0,0-1.456-1.456h-.211a1.456,1.456,0,0,0-.474,2.832ZM24.223,7.8A16.389,16.389,0,1,0,40.612,24.194,16.407,16.407,0,0,0,24.223,7.8Zm-.579,14.539,2.177.75a4.577,4.577,0,0,1-.037,8.666v1.454a1.561,1.561,0,0,1-3.122,0V31.759a4.583,4.583,0,0,1-3.122-4.338,1.561,1.561,0,1,1,3.122,0,1.457,1.457,0,0,0,1.456,1.456h.211a1.456,1.456,0,0,0,.474-2.832l-2.177-.75a4.577,4.577,0,0,1,.037-8.666V15.175a1.561,1.561,0,0,1,3.122,0v1.454a4.583,4.583,0,0,1,3.122,4.338,1.561,1.561,0,1,1-3.122,0,1.457,1.457,0,0,0-1.456-1.456h-.211a1.456,1.456,0,0,0-.474,2.832ZM24.223,7.8A16.389,16.389,0,1,0,40.612,24.194,16.407,16.407,0,0,0,24.223,7.8Zm-.579,14.539,2.177.75a4.577,4.577,0,0,1-.037,8.666v1.454a1.561,1.561,0,0,1-3.122,0V31.759a4.583,4.583,0,0,1-3.122-4.338,1.561,1.561,0,1,1,3.122,0,1.457,1.457,0,0,0,1.456,1.456h.211a1.456,1.456,0,0,0,.474-2.832l-2.177-.75a4.577,4.577,0,0,1,.037-8.666V15.175a1.561,1.561,0,0,1,3.122,0v1.454a4.583,4.583,0,0,1,3.122,4.338,1.561,1.561,0,1,1-3.122,0,1.457,1.457,0,0,0-1.456-1.456h-.211a1.456,1.456,0,0,0-.474,2.832Z" transform="translate(887.073 24570.922)"/>
    <path id="Trazado_885542" data-name="Trazado 885542" d="M30.573,15.774c4.5-4.5,4.816-11.548,4.8-13.744L17.713,19.687V15.629L33.341,0C31.145-.018,24.1.295,19.6,4.8a16.684,16.684,0,0,0-4.223,8.294,11.7,11.7,0,0,0-1.7-2.179C10.02,7.263,4.436,6.864,2.529,6.839L14.843,19.153v4.058L.5,8.868c.025,1.907.424,7.491,4.074,11.141,3.2,3.2,7.874,3.9,10.269,4.042v9.711A15.215,15.215,0,0,0,1.121,47.611L.99,49.167H31.567l-.131-1.556a15.215,15.215,0,0,0-13.723-13.85V23.226l.024-.515c0-.08.027-.645-.024-1.513V20.56C20.535,20.472,26.562,19.785,30.573,15.774ZM17.713,33.761v8.193h-2.87V33.761q.712-.066,1.435-.067T17.713,33.761Zm0,0" transform="translate(782.064 24746.152)"/>
  </g>
</svg>
