<svg xmlns="http://www.w3.org/2000/svg" xmlns:xlink="http://www.w3.org/1999/xlink" width="610" height="487" viewBox="0 0 610 487">
  <defs>
    <clipPath id="clip-path">
      <rect id="Rectángulo_403308" data-name="Rectángulo 403308" width="359.577" height="359.592" fill="none"/>
    </clipPath>
  </defs>
  <g id="Grupo_1103083" data-name="Grupo 1103083" transform="translate(-495.051 -4405)">
    <g id="Grupo_1102013" data-name="Grupo 1102013" transform="translate(609.712 4462.129)">
      <g id="Grupo_1102011" data-name="Grupo 1102011" clip-path="url(#clip-path)">
        <path id="Trazado_885400" data-name="Trazado 885400" d="M278.408,171.629a8.485,8.485,0,0,1-4.616-1.359l-38.011-24.651a90.508,90.508,0,0,1-86.954,82.307l-28.68,44.223a.777.777,0,0,0-.01.825l27.919,45.56a179.817,179.817,0,0,0,177.313-174.21l-42.527,26.06a8.461,8.461,0,0,1-4.433,1.246" transform="translate(34.146 41.059)" fill="#013f20"/>
        <path id="Trazado_885401" data-name="Trazado 885401" d="M229.1,177.709l41.842,27.138a.776.776,0,0,0,.826.009l46.244-28.337.374.611A179.816,179.816,0,0,0,144.768.062l25.446,41.426a8.515,8.515,0,0,1-.112,9.053L145.623,88.288A90.506,90.506,0,0,1,229.1,177.709" transform="translate(41.186 0.018)" fill="#016835"/>
        <path id="Trazado_885402" data-name="Trazado 885402" d="M177.776,88.057l27.04-41.692a.779.779,0,0,0,.01-.825L176.851,0A179.821,179.821,0,0,0,.026,174.528L40.84,148.8a8.538,8.538,0,0,1,9.09.087l39.416,25.564a90.506,90.506,0,0,1,88.43-86.4" transform="translate(0.007)" fill="#c3471c"/>
        <path id="Trazado_885403" data-name="Trazado 885403" d="M89.406,149.292,45.743,120.977a.774.774,0,0,0-.823-.012L0,149.278A179.82,179.82,0,0,0,173.1,325.1L147.713,283.68a8.522,8.522,0,0,1,.113-9.049l26.046-40.16a90.515,90.515,0,0,1-84.466-85.179" transform="translate(0 34.382)" fill="#f35923"/>
        <path id="Trazado_885404" data-name="Trazado 885404" d="M269.14,69.009a4.58,4.58,0,0,0,2.415-2.525l9.3-40.868A4.637,4.637,0,0,0,275,19.54l-41.035,6.643a4.574,4.574,0,0,0-2.389,1.918A189.764,189.764,0,0,1,269.14,69.009" transform="translate(65.882 5.482)" fill="#016835"/>
        <path id="Trazado_885405" data-name="Trazado 885405" d="M270.191,223.994a4.624,4.624,0,0,0-1.279-1.63,189.673,189.673,0,0,1-37.835,40.892,4.58,4.58,0,0,0,2.75,2.146l41.588,5.192a4.637,4.637,0,0,0,5.464-6.429Z" transform="translate(65.74 63.262)" fill="#013f20"/>
        <path id="Trazado_885406" data-name="Trazado 885406" d="M58.042,28.452a4.58,4.58,0,0,0-2.592-2.268L14.416,19.54a4.637,4.637,0,0,0-5.853,6.076l9.3,40.868A4.588,4.588,0,0,0,20.782,69.2,189.7,189.7,0,0,1,58.042,28.452" transform="translate(2.341 5.482)" fill="#c3471c"/>
        <path id="Trazado_885407" data-name="Trazado 885407" d="M21.069,222.126a4.6,4.6,0,0,0-1.7,1.937L8.677,264.234a4.638,4.638,0,0,0,5.464,6.429l41.589-5.192a4.587,4.587,0,0,0,2.938-2.509,189.8,189.8,0,0,1-37.6-40.837" transform="translate(2.341 63.194)" fill="#f35923"/>
      </g>
    </g>
    <path id="Trazado_888833" data-name="Trazado 888833" d="M-42.778-6.035h-5.391v3.4H-41.8V0H-51.6V-14.219h9.814v2.646h-6.387v3h5.391Zm11.328.371h-5.527V0h-3.428V-14.219h9.512v2.646h-6.084V-8.3h5.527ZM-25.815,0h-3.418V-14.219h3.418Zm13.887-4.814a5.193,5.193,0,0,1-.8,2.622A4.833,4.833,0,0,1-14.785-.43,7,7,0,0,1-17.808.2a5.584,5.584,0,0,1-4.414-1.826,7.54,7.54,0,0,1-1.611-5.156v-.7a8.607,8.607,0,0,1,.728-3.657,5.513,5.513,0,0,1,2.095-2.422,5.844,5.844,0,0,1,3.164-.854,6.129,6.129,0,0,1,4.16,1.362A5.383,5.383,0,0,1-11.9-9.307h-3.418a2.547,2.547,0,0,0-.654-1.865,2.691,2.691,0,0,0-1.875-.566,2.048,2.048,0,0,0-1.875.957,6.151,6.151,0,0,0-.625,3.057v1.006a6.806,6.806,0,0,0,.571,3.252,2.091,2.091,0,0,0,1.968.977A2.632,2.632,0,0,0-16-3.047a2.363,2.363,0,0,0,.664-1.768ZM-6.655,0h-3.418V-14.219h3.418Zm11.2-6.035H-.845v3.4H5.522V0H-4.272V-14.219H5.542v2.646H-.845v3H4.546ZM18.794,0H15.386L10.347-8.848V0H6.919V-14.219h3.428l5.029,8.848v-8.848h3.418ZM32.466-4.814a5.193,5.193,0,0,1-.8,2.622A4.833,4.833,0,0,1,29.609-.43,7,7,0,0,1,26.587.2a5.584,5.584,0,0,1-4.414-1.826,7.54,7.54,0,0,1-1.611-5.156v-.7a8.607,8.607,0,0,1,.728-3.657,5.513,5.513,0,0,1,2.095-2.422,5.844,5.844,0,0,1,3.164-.854,6.129,6.129,0,0,1,4.16,1.362A5.383,5.383,0,0,1,32.5-9.307H29.077a2.547,2.547,0,0,0-.654-1.865,2.691,2.691,0,0,0-1.875-.566,2.048,2.048,0,0,0-1.875.957,6.151,6.151,0,0,0-.625,3.057v1.006a6.806,6.806,0,0,0,.571,3.252,2.091,2.091,0,0,0,1.968.977,2.632,2.632,0,0,0,1.807-.557,2.363,2.363,0,0,0,.664-1.768ZM37.739,0H34.321V-14.219h3.418ZM48.2-2.656H43.5L42.681,0H39.019l5.215-14.219h3.223L52.71,0H49.028ZM44.321-5.3h3.057l-1.533-4.932ZM-49.951,20.965h-5.391v3.4h6.367V27H-58.77V12.781h9.814v2.646h-6.387v3h5.391ZM-35.7,27h-3.408l-5.039-8.848V27h-3.428V12.781h3.428l5.029,8.848V12.781H-35.7Zm10.986-6.035h-5.391v3.4h6.367V27h-9.795V12.781h9.814v2.646h-6.387v3h5.391Zm7.656,1.006h-1.855V27h-3.428V12.781h5.6A6.246,6.246,0,0,1-12.793,13.9a3.8,3.8,0,0,1,1.426,3.17,4.616,4.616,0,0,1-.6,2.458,4.263,4.263,0,0,1-1.88,1.58l2.969,5.741V27h-3.672Zm-1.855-2.637h2.168a1.946,1.946,0,0,0,1.47-.514,1.987,1.987,0,0,0,.493-1.434,2.01,2.01,0,0,0-.5-1.444,1.928,1.928,0,0,0-1.465-.524h-2.168Zm21.26,5.908A5.511,5.511,0,0,1,.029,26.658a9.982,9.982,0,0,1-3.34.537,5.955,5.955,0,0,1-4.463-1.709A6.918,6.918,0,0,1-9.561,20.73l-.01-1.23a8.485,8.485,0,0,1,.742-3.667A5.511,5.511,0,0,1-6.7,13.421a6.008,6.008,0,0,1,3.2-.845A6.3,6.3,0,0,1,.62,13.792,5.152,5.152,0,0,1,2.334,17.42h-3.3a2.7,2.7,0,0,0-.762-1.7,2.458,2.458,0,0,0-1.66-.508,2.237,2.237,0,0,0-1.992,1.094,5.84,5.84,0,0,0-.713,3.125v.859a5.717,5.717,0,0,0,.728,3.2,2.573,2.573,0,0,0,2.29,1.069,2.88,2.88,0,0,0,1.992-.6V21.756H-3.467V19.4H2.344Zm10.811-4.277H7.764v3.4h6.367V27H4.336V12.781H14.15v2.646H7.764v3h5.391ZM9.961,8.973h3.477l-2.715,3.066-2.686,0Zm16.729,6.455H22.422V27H18.994V15.428H14.8V12.781H26.689ZM31.787,27H28.369V12.781h3.418Zm13.887-4.814a5.193,5.193,0,0,1-.8,2.622,4.833,4.833,0,0,1-2.056,1.763,7,7,0,0,1-3.022.625,5.584,5.584,0,0,1-4.414-1.826,7.54,7.54,0,0,1-1.611-5.156v-.7a8.607,8.607,0,0,1,.728-3.657,5.513,5.513,0,0,1,2.095-2.422,5.844,5.844,0,0,1,3.164-.854,6.129,6.129,0,0,1,4.16,1.362A5.383,5.383,0,0,1,45.7,17.693H42.285a2.547,2.547,0,0,0-.654-1.865,2.691,2.691,0,0,0-1.875-.566,2.048,2.048,0,0,0-1.875.957,6.151,6.151,0,0,0-.625,3.057v1.006a6.806,6.806,0,0,0,.571,3.252,2.091,2.091,0,0,0,1.968.977,2.632,2.632,0,0,0,1.807-.557,2.363,2.363,0,0,0,.664-1.768Zm9.7,2.158h-4.7L49.854,27H46.191l5.215-14.219h3.223L59.883,27H56.2ZM51.494,21.7h3.057l-1.533-4.932Z" transform="translate(789.5 4636.425)" fill="#12263f"/>
    <g id="Grupo_1102015" data-name="Grupo 1102015" transform="translate(650.432 4516.612)">
      <g id="Grupo_1102014" data-name="Grupo 1102014" transform="translate(22.203)">
        <path id="Trazado_885408" data-name="Trazado 885408" d="M47.136,250.486c-10.98,0-20.3-3.55-24.933-8.857V242.7c.106,7.347,11.29,13.342,24.933,13.342,13.472,0,24.889-6.148,24.932-13.425v-.988C67.431,246.935,58.116,250.486,47.136,250.486Z" transform="translate(-22.203 -220.4)" fill="#fff"/>
        <path id="Trazado_885409" data-name="Trazado 885409" d="M47.136,349.382c-10.954,0-20.287-3.562-24.933-8.876v1.42c.106,7.346,11.29,13.342,24.933,13.342,13.472,0,24.889-6.147,24.932-13.424v-1.331C67.428,345.826,58.106,349.382,47.136,349.382Z" transform="translate(-22.203 -310.592)" fill="#fff"/>
        <path id="Trazado_885410" data-name="Trazado 885410" d="M47.136,452.248c-10.954,0-20.287-3.562-24.933-8.876v1.472c.106,7.348,11.29,13.343,24.933,13.343,13.472,0,24.889-6.147,24.932-13.425v-1.384C67.428,448.692,58.106,452.248,47.136,452.248Z" transform="translate(-22.203 -404.42)" fill="#fff"/>
        <path id="Trazado_885411" data-name="Trazado 885411" d="M332.838,176.236a1.145,1.145,0,0,0-.778-1.063,8.236,8.236,0,0,0-2.385-.544v3.146Q332.838,177.507,332.838,176.236Z" transform="translate(-302.663 -159.287)" fill="#fff"/>
        <path id="Trazado_885412" data-name="Trazado 885412" d="M246.863,98.594a8.954,8.954,0,0,0,2.474.569V95.95a6.64,6.64,0,0,0-2.577.544,1.192,1.192,0,0,0-.714,1.029A1.163,1.163,0,0,0,246.863,98.594Z" transform="translate(-226.381 -87.521)" fill="#fff"/>
        <path id="Trazado_885413" data-name="Trazado 885413" d="M47.136,26.934c13.515,0,24.932-6.167,24.932-13.468S60.652,0,47.136,0,22.2,6.167,22.2,13.467,33.621,26.934,47.136,26.934ZM36.893,8.2a5.121,5.121,0,0,1,1.761-1.489A11.147,11.147,0,0,1,41.447,5.7a24.179,24.179,0,0,1,3.711-.536V3.442h4.057V5.117q1.862.066,3.788.275a31.184,31.184,0,0,1,3.533.577V9.283a41.17,41.17,0,0,0-7.321-.937v3.715q1.607.168,3.176.443a12.8,12.8,0,0,1,2.806.8,5.711,5.711,0,0,1,2.016,1.381,3.128,3.128,0,0,1,.778,2.192,3.724,3.724,0,0,1-2.283,3.364,16.55,16.55,0,0,1-6.493,1.523V23.49H45.159v-1.64q-2.5-.051-4.706-.293a21.141,21.141,0,0,1-3.661-.678V17.6q1,.235,1.939.411t1.939.3q.995.126,2.092.2t2.4.092V14.94q-1.605-.15-3.188-.41a13,13,0,0,1-2.845-.778,5.7,5.7,0,0,1-2.053-1.372,3.117,3.117,0,0,1-.791-2.209A3.311,3.311,0,0,1,36.893,8.2Z" transform="translate(-22.203 0)" fill="#fff"/>
      </g>
    </g>
    <path id="Trazado_888834" data-name="Trazado 888834" d="M10,0H147a10,10,0,0,1,10,10V60a10,10,0,0,1-10,10H10A10,10,0,0,1,0,60V10A10,10,0,0,1,10,0Z" transform="translate(495.051 4405)" fill="#c3471c"/>
    <path id="Trazado_888835" data-name="Trazado 888835" d="M10,0H147a10,10,0,0,1,10,10V75a10,10,0,0,1-10,10H10A10,10,0,0,1,0,75V10A10,10,0,0,1,10,0Z" transform="translate(495.051 4807)" fill="#f35923"/>
    <path id="Trazado_888830" data-name="Trazado 888830" d="M10,0H147a10,10,0,0,1,10,10V75a10,10,0,0,1-10,10H10A10,10,0,0,1,0,75V10A10,10,0,0,1,10,0Z" transform="translate(948.051 4807)" fill="#013f20"/>
    <path id="Trazado_888829" data-name="Trazado 888829" d="M10,0H147a10,10,0,0,1,10,10V60a10,10,0,0,1-10,10H10A10,10,0,0,1,0,60V10A10,10,0,0,1,10,0Z" transform="translate(948.051 4405)" fill="#226c2c"/>
    <path id="Trazado_888837" data-name="Trazado 888837" d="M7.438-2.344H3.328L2.547,0H.055L4.289-11.375H6.461L10.719,0H8.227Zm-3.477-1.9H6.8L5.375-8.5Zm9.875-3.289a2.818,2.818,0,0,1,2.258-1.078q2.75,0,2.789,3.2V0H16.625V-5.352a1.57,1.57,0,0,0-.312-1.074,1.34,1.34,0,0,0-1.039-.348,1.537,1.537,0,0,0-1.437.766V0H11.578V-12h2.258Zm6.4,3.227a5.013,5.013,0,0,1,.484-2.242A3.546,3.546,0,0,1,22.113-8.07a4.069,4.069,0,0,1,2.113-.539A3.849,3.849,0,0,1,27.02-7.562a4.2,4.2,0,0,1,1.207,2.844l.016.578A4.418,4.418,0,0,1,27.156-1.02,3.775,3.775,0,0,1,24.242.156a3.793,3.793,0,0,1-2.918-1.172A4.5,4.5,0,0,1,20.234-4.2Zm2.258.16A3.16,3.16,0,0,0,22.945-2.3a1.5,1.5,0,0,0,1.3.638,1.5,1.5,0,0,0,1.281-.63,3.457,3.457,0,0,0,.461-2.015,3.128,3.128,0,0,0-.461-1.831,1.5,1.5,0,0,0-1.3-.649,1.474,1.474,0,0,0-1.281.646A3.516,3.516,0,0,0,22.492-4.144ZM34.383-6.336A6.134,6.134,0,0,0,33.57-6.4a1.654,1.654,0,0,0-1.68.867V0H29.633V-8.453h2.133l.063,1.008a2.092,2.092,0,0,1,1.883-1.164,2.366,2.366,0,0,1,.7.1Zm5.836,0a6.134,6.134,0,0,0-.812-.062,1.654,1.654,0,0,0-1.68.867V0H35.469V-8.453H37.6l.063,1.008a2.092,2.092,0,0,1,1.883-1.164,2.366,2.366,0,0,1,.7.1ZM40.672-4.3a5.013,5.013,0,0,1,.484-2.242A3.546,3.546,0,0,1,42.551-8.07a4.069,4.069,0,0,1,2.113-.539,3.849,3.849,0,0,1,2.793,1.047,4.2,4.2,0,0,1,1.207,2.844l.016.578A4.418,4.418,0,0,1,47.594-1.02,3.775,3.775,0,0,1,44.68.156a3.793,3.793,0,0,1-2.918-1.172A4.5,4.5,0,0,1,40.672-4.2Zm2.258.16A3.16,3.16,0,0,0,43.383-2.3a1.5,1.5,0,0,0,1.3.638,1.5,1.5,0,0,0,1.281-.63,3.457,3.457,0,0,0,.461-2.015,3.128,3.128,0,0,0-.461-1.831,1.5,1.5,0,0,0-1.3-.649,1.474,1.474,0,0,0-1.281.646A3.516,3.516,0,0,0,42.93-4.144ZM4.758,16.156A4.15,4.15,0,0,1,1.73,15.016,4.054,4.054,0,0,1,.563,11.977v-.219A5.106,5.106,0,0,1,1.055,9.48,3.612,3.612,0,0,1,2.449,7.934a3.914,3.914,0,0,1,2.059-.543,3.508,3.508,0,0,1,2.73,1.094,4.444,4.444,0,0,1,1,3.1v.922H2.852a2.1,2.1,0,0,0,.66,1.328,2,2,0,0,0,1.395.5,2.437,2.437,0,0,0,2.039-.945l1.109,1.242A3.389,3.389,0,0,1,6.68,15.754,4.511,4.511,0,0,1,4.758,16.156ZM4.5,9.211a1.411,1.411,0,0,0-1.09.455,2.357,2.357,0,0,0-.535,1.3H6.016v-.181a1.681,1.681,0,0,0-.406-1.165A1.456,1.456,0,0,0,4.5,9.211Zm8.531,5.125a1.481,1.481,0,0,0,1.016-.344,1.2,1.2,0,0,0,.406-.914H16.57a2.9,2.9,0,0,1-.469,1.574,3.093,3.093,0,0,1-1.262,1.109,3.949,3.949,0,0,1-1.77.395A3.67,3.67,0,0,1,10.211,15,4.56,4.56,0,0,1,9.164,11.82v-.148A4.508,4.508,0,0,1,10.2,8.555a3.627,3.627,0,0,1,2.852-1.164,3.555,3.555,0,0,1,2.543.9,3.2,3.2,0,0,1,.973,2.4H14.453a1.551,1.551,0,0,0-.406-1.072,1.354,1.354,0,0,0-1.031-.412,1.36,1.36,0,0,0-1.191.575,3.333,3.333,0,0,0-.4,1.866v.235a3.375,3.375,0,0,0,.4,1.878A1.377,1.377,0,0,0,13.031,14.336ZM17.508,11.7a5.013,5.013,0,0,1,.484-2.242A3.546,3.546,0,0,1,19.387,7.93,4.069,4.069,0,0,1,21.5,7.391a3.849,3.849,0,0,1,2.793,1.047A4.2,4.2,0,0,1,25.5,11.281l.016.578A4.418,4.418,0,0,1,24.43,14.98a3.775,3.775,0,0,1-2.914,1.176A3.793,3.793,0,0,1,18.6,14.984a4.5,4.5,0,0,1-1.09-3.187Zm2.258.16a3.16,3.16,0,0,0,.453,1.843,1.628,1.628,0,0,0,2.578.008,3.457,3.457,0,0,0,.461-2.015A3.128,3.128,0,0,0,22.8,9.86a1.5,1.5,0,0,0-1.3-.649,1.474,1.474,0,0,0-1.281.646A3.516,3.516,0,0,0,19.766,11.856Zm9.219-4.309.07.977a2.951,2.951,0,0,1,2.43-1.133,2.453,2.453,0,0,1,2,.789,3.682,3.682,0,0,1,.672,2.359V16H31.9V10.594a1.465,1.465,0,0,0-.312-1.043,1.4,1.4,0,0,0-1.039-.324,1.553,1.553,0,0,0-1.43.813V16H26.859V7.547ZM35.516,11.7A5.013,5.013,0,0,1,36,9.453,3.546,3.546,0,0,1,37.395,7.93a4.069,4.069,0,0,1,2.113-.539A3.849,3.849,0,0,1,42.3,8.438a4.2,4.2,0,0,1,1.207,2.844l.016.578a4.418,4.418,0,0,1-1.086,3.121,4.209,4.209,0,0,1-5.832,0,4.5,4.5,0,0,1-1.09-3.187Zm2.258.16a3.16,3.16,0,0,0,.453,1.843,1.628,1.628,0,0,0,2.578.008,3.457,3.457,0,0,0,.461-2.015A3.128,3.128,0,0,0,40.8,9.86a1.5,1.5,0,0,0-1.3-.649,1.474,1.474,0,0,0-1.281.646A3.516,3.516,0,0,0,37.773,11.856ZM39.953,4h2.461L40.25,6.422H38.414Zm7.078,3.547.07.945a2.971,2.971,0,0,1,2.43-1.1A2.255,2.255,0,0,1,51.773,8.68a2.9,2.9,0,0,1,2.539-1.289,2.521,2.521,0,0,1,2.047.8,3.681,3.681,0,0,1,.672,2.41V16H54.766V10.609a1.61,1.61,0,0,0-.281-1.051,1.246,1.246,0,0,0-.992-.332,1.409,1.409,0,0,0-1.406.969l.008,5.8H49.836V10.617a1.59,1.59,0,0,0-.289-1.062,1.259,1.259,0,0,0-.984-.328,1.463,1.463,0,0,0-1.391.8V16H44.914V7.547ZM61.148,16H58.883V7.547h2.266ZM58.75,5.359a1.112,1.112,0,0,1,.34-.836,1.465,1.465,0,0,1,1.848,0,1.105,1.105,0,0,1,.344.836,1.108,1.108,0,0,1-.348.844,1.448,1.448,0,0,1-1.836,0A1.108,1.108,0,0,1,58.75,5.359Zm7.773,8.977a1.481,1.481,0,0,0,1.016-.344,1.2,1.2,0,0,0,.406-.914h2.117a2.9,2.9,0,0,1-.469,1.574,3.093,3.093,0,0,1-1.262,1.109,3.949,3.949,0,0,1-1.77.395A3.67,3.67,0,0,1,63.7,15a4.56,4.56,0,0,1-1.047-3.184v-.148A4.508,4.508,0,0,1,63.7,8.555a3.627,3.627,0,0,1,2.852-1.164,3.555,3.555,0,0,1,2.543.9,3.2,3.2,0,0,1,.973,2.4H67.945a1.551,1.551,0,0,0-.406-1.072,1.51,1.51,0,0,0-2.223.163,3.333,3.333,0,0,0-.4,1.866v.235a3.375,3.375,0,0,0,.4,1.878A1.377,1.377,0,0,0,66.523,14.336ZM71,11.7a5.013,5.013,0,0,1,.484-2.242A3.546,3.546,0,0,1,72.879,7.93a4.069,4.069,0,0,1,2.113-.539,3.849,3.849,0,0,1,2.793,1.047,4.2,4.2,0,0,1,1.207,2.844l.016.578a4.418,4.418,0,0,1-1.086,3.121,4.209,4.209,0,0,1-5.832,0A4.5,4.5,0,0,1,71,11.8Zm2.258.16a3.16,3.16,0,0,0,.453,1.843,1.628,1.628,0,0,0,2.578.008,3.457,3.457,0,0,0,.461-2.015,3.128,3.128,0,0,0-.461-1.831,1.5,1.5,0,0,0-1.3-.649,1.474,1.474,0,0,0-1.281.646A3.516,3.516,0,0,0,73.258,11.856Z" transform="translate(510.712 4438.129)" fill="#fff"/>
    <path id="Trazado_888831" data-name="Trazado 888831" d="M-71.117-4.023H-72.6V0h-2.742V-11.375h4.477a5,5,0,0,1,3.164.9,3.041,3.041,0,0,1,1.141,2.536,3.693,3.693,0,0,1-.48,1.967,3.41,3.41,0,0,1-1.5,1.264l2.375,4.593V0h-2.937ZM-72.6-6.133h1.734a1.557,1.557,0,0,0,1.176-.411A1.59,1.59,0,0,0-69.3-7.691a1.608,1.608,0,0,0-.4-1.155,1.542,1.542,0,0,0-1.172-.419H-72.6ZM-60.937.156A4.345,4.345,0,0,1-64.086-1a4.006,4.006,0,0,1-1.2-3.02v-.219a5.191,5.191,0,0,1,.48-2.289,3.516,3.516,0,0,1,1.4-1.535,4.233,4.233,0,0,1,2.188-.543A3.659,3.659,0,0,1-58.406-7.5a4.344,4.344,0,0,1,1.031,3.082V-3.4h-5.234a1.9,1.9,0,0,0,.617,1.117,1.836,1.836,0,0,0,1.234.406A2.366,2.366,0,0,0-58.8-2.75l1.2,1.422A3.363,3.363,0,0,1-59-.246,4.713,4.713,0,0,1-60.937.156Zm-.3-6.734q-1.156,0-1.375,1.531h2.656v-.2a1.3,1.3,0,0,0-.32-.98A1.275,1.275,0,0,0-61.234-6.578Zm4.586,2.289a5.164,5.164,0,0,1,.867-3.164,2.854,2.854,0,0,1,2.422-1.156,2.428,2.428,0,0,1,1.906.891V-12h2.641V0H-51.18l-.133-.906A2.493,2.493,0,0,1-53.375.156,2.849,2.849,0,0,1-55.766-1,5.327,5.327,0,0,1-56.648-4.289Zm2.633.164q0,2.25,1.313,2.25a1.3,1.3,0,0,0,1.25-.734V-5.828a1.261,1.261,0,0,0-1.234-.75q-1.219,0-1.32,1.969ZM-42.281-.914A2.714,2.714,0,0,1-44.539.156a2.662,2.662,0,0,1-2.105-.809,3.4,3.4,0,0,1-.715-2.324V-8.453h2.633v5.492a.946.946,0,0,0,1.055,1.086,1.376,1.376,0,0,0,1.289-.648v-5.93h2.648V0H-42.2Zm7.563-.961a1.171,1.171,0,0,0,.859-.3,1.1,1.1,0,0,0,.3-.84h2.469a2.922,2.922,0,0,1-1,2.281,3.705,3.705,0,0,1-2.566.891A3.751,3.751,0,0,1-37.562-1a4.556,4.556,0,0,1-1.062-3.2v-.109a5.149,5.149,0,0,1,.473-2.262,3.441,3.441,0,0,1,1.363-1.508,4.065,4.065,0,0,1,2.109-.527,3.658,3.658,0,0,1,2.617.914,3.242,3.242,0,0,1,.969,2.477h-2.469a1.445,1.445,0,0,0-.32-1.008,1.106,1.106,0,0,0-.859-.352q-1.023,0-1.2,1.3a9.206,9.206,0,0,0-.055,1.141,3.616,3.616,0,0,0,.3,1.766A1.055,1.055,0,0,0-34.719-1.875Zm8.313,0a1.171,1.171,0,0,0,.859-.3,1.1,1.1,0,0,0,.3-.84h2.469a2.922,2.922,0,0,1-1,2.281,3.705,3.705,0,0,1-2.566.891A3.751,3.751,0,0,1-29.25-1a4.556,4.556,0,0,1-1.062-3.2v-.109a5.149,5.149,0,0,1,.473-2.262,3.441,3.441,0,0,1,1.363-1.508,4.065,4.065,0,0,1,2.109-.527A3.658,3.658,0,0,1-23.75-7.7a3.242,3.242,0,0,1,.969,2.477H-25.25a1.445,1.445,0,0,0-.32-1.008,1.106,1.106,0,0,0-.859-.352q-1.023,0-1.2,1.3a9.206,9.206,0,0,0-.055,1.141,3.616,3.616,0,0,0,.3,1.766A1.055,1.055,0,0,0-26.406-1.875ZM-18.891,0h-2.641V-8.453h2.641Zm-2.8-10.633a1.175,1.175,0,0,1,.406-.922,1.533,1.533,0,0,1,1.055-.359,1.533,1.533,0,0,1,1.055.359,1.175,1.175,0,0,1,.406.922,1.175,1.175,0,0,1-.406.922,1.533,1.533,0,0,1-1.055.359,1.533,1.533,0,0,1-1.055-.359A1.175,1.175,0,0,1-21.687-10.633ZM-17.6-4.3a4.989,4.989,0,0,1,.492-2.254A3.52,3.52,0,0,1-15.7-8.078a4.259,4.259,0,0,1,2.164-.531,3.887,3.887,0,0,1,2.992,1.176,4.512,4.512,0,0,1,1.094,3.2v.094A4.378,4.378,0,0,1-10.543-1,3.9,3.9,0,0,1-13.516.156a3.942,3.942,0,0,1-2.9-1.082,4.232,4.232,0,0,1-1.18-2.934Zm2.633.164A3.145,3.145,0,0,0-14.6-2.422a1.223,1.223,0,0,0,1.086.547q1.406,0,1.438-2.164V-4.3q0-2.273-1.453-2.273-1.32,0-1.43,1.961Zm1.8-7.859h2.781l-2.172,2.453-2.148,0Zm7.3,3.547.086.992A2.867,2.867,0,0,1-3.367-8.609a2.412,2.412,0,0,1,1.973.789A3.757,3.757,0,0,1-.719-5.445V0H-3.359V-5.336a1.426,1.426,0,0,0-.258-.941,1.193,1.193,0,0,0-.937-.3A1.256,1.256,0,0,0-5.7-5.969V0H-8.336V-8.453Zm-89.82,21.164a5.164,5.164,0,0,1,.867-3.164A2.854,2.854,0,0,1-92.4,8.391a2.428,2.428,0,0,1,1.906.891V5h2.641V17h-2.367l-.133-.906a2.493,2.493,0,0,1-2.062,1.063A2.849,2.849,0,0,1-94.8,16,5.327,5.327,0,0,1-95.687,12.711Zm2.633.164q0,2.25,1.313,2.25a1.3,1.3,0,0,0,1.25-.734V11.172a1.261,1.261,0,0,0-1.234-.75q-1.219,0-1.32,1.969Zm10.789,4.281A4.345,4.345,0,0,1-85.414,16a4.006,4.006,0,0,1-1.2-3.02v-.219a5.191,5.191,0,0,1,.48-2.289,3.516,3.516,0,0,1,1.4-1.535,4.233,4.233,0,0,1,2.188-.543A3.659,3.659,0,0,1-79.734,9.5,4.344,4.344,0,0,1-78.7,12.578V13.6h-5.234a1.9,1.9,0,0,0,.617,1.117,1.836,1.836,0,0,0,1.234.406,2.366,2.366,0,0,0,1.953-.875l1.2,1.422a3.363,3.363,0,0,1-1.395,1.082A4.713,4.713,0,0,1-82.266,17.156Zm-.3-6.734q-1.156,0-1.375,1.531h2.656v-.2a1.3,1.3,0,0,0-.32-.98A1.275,1.275,0,0,0-82.562,10.422Zm12.992,6.734A4.345,4.345,0,0,1-72.719,16a4.006,4.006,0,0,1-1.2-3.02v-.219a5.191,5.191,0,0,1,.48-2.289,3.516,3.516,0,0,1,1.4-1.535,4.233,4.233,0,0,1,2.188-.543A3.659,3.659,0,0,1-67.039,9.5a4.344,4.344,0,0,1,1.031,3.082V13.6h-5.234a1.9,1.9,0,0,0,.617,1.117,1.836,1.836,0,0,0,1.234.406,2.366,2.366,0,0,0,1.953-.875l1.2,1.422a3.363,3.363,0,0,1-1.395,1.082A4.713,4.713,0,0,1-69.57,17.156Zm-.3-6.734q-1.156,0-1.375,1.531h2.656v-.2a1.3,1.3,0,0,0-.32-.98A1.275,1.275,0,0,0-69.867,10.422Zm7.406-1.875.086.992a2.906,2.906,0,0,1,2.414-1.148A2.14,2.14,0,0,1-57.8,9.664a2.813,2.813,0,0,1,2.484-1.273q2.57,0,2.641,3.109V17h-2.641V11.664a1.611,1.611,0,0,0-.219-.945.931.931,0,0,0-.8-.3,1.247,1.247,0,0,0-1.164.7l.008.109V17h-2.641V11.68a1.694,1.694,0,0,0-.211-.961.929.929,0,0,0-.8-.3,1.263,1.263,0,0,0-1.156.7V17H-64.93V8.547ZM-48.391,17h-2.641V8.547h2.641Zm-2.8-10.633a1.175,1.175,0,0,1,.406-.922,1.533,1.533,0,0,1,1.055-.359,1.533,1.533,0,0,1,1.055.359,1.175,1.175,0,0,1,.406.922,1.175,1.175,0,0,1-.406.922,1.533,1.533,0,0,1-1.055.359,1.533,1.533,0,0,1-1.055-.359A1.175,1.175,0,0,1-51.187,6.367Zm8.844,8.258a.608.608,0,0,0-.352-.539,5.348,5.348,0,0,0-1.336-.422,6.092,6.092,0,0,1-1.625-.574,2.722,2.722,0,0,1-.977-.863,2.061,2.061,0,0,1-.336-1.164,2.336,2.336,0,0,1,.961-1.918,3.958,3.958,0,0,1,2.516-.754,4.386,4.386,0,0,1,2.688.758,2.37,2.37,0,0,1,1.016,1.992H-42.43q0-1.016-1.07-1.016a1.061,1.061,0,0,0-.7.23.714.714,0,0,0-.281.574.655.655,0,0,0,.344.57,3.248,3.248,0,0,0,1.1.359,9.485,9.485,0,0,1,1.324.336A2.406,2.406,0,0,1-39.8,14.547a2.214,2.214,0,0,1-1.027,1.883,4.505,4.505,0,0,1-2.66.727,4.6,4.6,0,0,1-1.937-.391A3.24,3.24,0,0,1-46.758,15.7a2.406,2.406,0,0,1-.477-1.414h2.461a1.017,1.017,0,0,0,.391.855,1.607,1.607,0,0,0,.961.27,1.264,1.264,0,0,0,.809-.219A.7.7,0,0,0-42.344,14.625ZM-35.8,17h-2.641V8.547H-35.8Zm-2.8-10.633a1.175,1.175,0,0,1,.406-.922,1.533,1.533,0,0,1,1.055-.359,1.533,1.533,0,0,1,1.055.359,1.175,1.175,0,0,1,.406.922,1.175,1.175,0,0,1-.406.922,1.533,1.533,0,0,1-1.055.359,1.533,1.533,0,0,1-1.055-.359A1.175,1.175,0,0,1-38.594,6.367Zm4.086,6.328a4.989,4.989,0,0,1,.492-2.254A3.52,3.52,0,0,1-32.6,8.922a4.259,4.259,0,0,1,2.164-.531,3.887,3.887,0,0,1,2.992,1.176,4.512,4.512,0,0,1,1.094,3.2v.094A4.378,4.378,0,0,1-27.449,16a3.9,3.9,0,0,1-2.973,1.16,3.942,3.942,0,0,1-2.9-1.082,4.232,4.232,0,0,1-1.18-2.934Zm2.633.164a3.145,3.145,0,0,0,.367,1.719,1.223,1.223,0,0,0,1.086.547q1.406,0,1.438-2.164V12.7q0-2.273-1.453-2.273-1.32,0-1.43,1.961Zm9.1-4.312.086.992a2.867,2.867,0,0,1,2.414-1.148A2.412,2.412,0,0,1-18.3,9.18a3.757,3.757,0,0,1,.676,2.375V17h-2.641V11.664a1.426,1.426,0,0,0-.258-.941,1.193,1.193,0,0,0-.937-.3,1.256,1.256,0,0,0-1.148.609V17h-2.633V8.547Zm10.7,8.609A4.345,4.345,0,0,1-15.227,16a4.006,4.006,0,0,1-1.2-3.02v-.219a5.191,5.191,0,0,1,.48-2.289,3.516,3.516,0,0,1,1.4-1.535,4.233,4.233,0,0,1,2.188-.543A3.659,3.659,0,0,1-9.547,9.5a4.344,4.344,0,0,1,1.031,3.082V13.6H-13.75a1.9,1.9,0,0,0,.617,1.117,1.836,1.836,0,0,0,1.234.406,2.366,2.366,0,0,0,1.953-.875l1.2,1.422a3.363,3.363,0,0,1-1.395,1.082A4.713,4.713,0,0,1-12.078,17.156Zm-.3-6.734q-1.156,0-1.375,1.531h2.656v-.2a1.3,1.3,0,0,0-.32-.98A1.275,1.275,0,0,0-12.375,10.422Zm9.344,4.2a.608.608,0,0,0-.352-.539,5.348,5.348,0,0,0-1.336-.422,6.092,6.092,0,0,1-1.625-.574,2.722,2.722,0,0,1-.977-.863,2.061,2.061,0,0,1-.336-1.164A2.336,2.336,0,0,1-6.7,9.145,3.958,3.958,0,0,1-4.18,8.391a4.386,4.386,0,0,1,2.688.758A2.37,2.37,0,0,1-.477,11.141H-3.117q0-1.016-1.07-1.016a1.061,1.061,0,0,0-.7.23.714.714,0,0,0-.281.574.655.655,0,0,0,.344.57,3.248,3.248,0,0,0,1.1.359A9.486,9.486,0,0,1-2.4,12.2,2.406,2.406,0,0,1-.492,14.547,2.214,2.214,0,0,1-1.52,16.43a4.505,4.505,0,0,1-2.66.727,4.6,4.6,0,0,1-1.937-.391A3.24,3.24,0,0,1-7.445,15.7a2.406,2.406,0,0,1-.477-1.414h2.461a1.017,1.017,0,0,0,.391.855,1.607,1.607,0,0,0,.961.27A1.264,1.264,0,0,0-3.3,15.2.7.7,0,0,0-3.031,14.625Z" transform="translate(1090 4435.129)" fill="#fff"/>
    <g id="Grupo_1102020" data-name="Grupo 1102020" transform="translate(853.014 4516.612)">
      <g id="Grupo_1102016" data-name="Grupo 1102016" transform="translate(27.268 27.086)">
        <circle id="Elipse_11634" data-name="Elipse 11634" cx="4.451" cy="4.451" r="4.451" fill="#fff"/>
      </g>
      <g id="Grupo_1102017" data-name="Grupo 1102017" transform="translate(0 8.526)">
        <path id="Trazado_885414" data-name="Trazado 885414" d="M49.787,105.306a11.058,11.058,0,0,1,7.324,2.766,13.14,13.14,0,0,0-1.1-21.227A17.087,17.087,0,0,0,28.692,73.839,13.193,13.193,0,0,0,9.175,81.017a16.567,16.567,0,0,0,9.8,31.216,7.846,7.846,0,0,0,6.346.485,13.5,13.5,0,0,0,13.459,2.232A11.121,11.121,0,0,1,49.787,105.306ZM9.052,93.434a8.084,8.084,0,0,1,12.6-6.7,1.816,1.816,0,0,1-2.033,3.01,4.452,4.452,0,1,0-2.488,8.144,3.123,3.123,0,0,0,2.557-1.12A1.816,1.816,0,1,1,22.475,99.1a6.749,6.749,0,0,1-5.34,2.418,8.093,8.093,0,0,1-8.083-8.084Zm14.584,0a8.083,8.083,0,1,1,8.083,8.083,8.093,8.093,0,0,1-8.083-8.083ZM48.477,101.5c-1.337.017-2.313.024-3.034.024a7.014,7.014,0,0,1-2.256-.132,1.874,1.874,0,0,1-1.2-1.221c-.295-.958.182-1.583.787-2.374.464-.608,1.328-1.739,2.778-3.81a4.438,4.438,0,0,0,.679-1.3l.012-.094a.541.541,0,0,0-1.065-.032,1.816,1.816,0,1,1-3.564-.7,4.173,4.173,0,0,1,8.266.807,1.827,1.827,0,0,1-.015.23l-.046.356a1.816,1.816,0,0,1-.032.18,7.646,7.646,0,0,1-1.26,2.63c-.492.7-.919,1.3-1.288,1.811l1.192-.012h.023a1.816,1.816,0,0,1,.023,3.632Z" transform="translate(0 -70.423)" fill="#fff"/>
      </g>
      <g id="Grupo_1102018" data-name="Grupo 1102018" transform="translate(0 0)">
        <circle id="Elipse_11635" data-name="Elipse 11635" cx="6.257" cy="6.257" r="6.257" transform="translate(0 0)" fill="#fff"/>
      </g>
      <g id="Grupo_1102019" data-name="Grupo 1102019" transform="translate(39.21 43.947)">
        <circle id="Elipse_11636" data-name="Elipse 11636" cx="7.472" cy="7.472" r="7.472" transform="translate(0 10.566) rotate(-45)" fill="#fff"/>
      </g>
    </g>
    <path id="Trazado_888836" data-name="Trazado 888836" d="M4.078-11.375,7-3.125l2.906-8.25h3.078V0H10.633V-3.109l.234-5.367L7.8,0H6.188L3.125-8.469l.234,5.359V0H1.016V-11.375ZM19.781,0a2.507,2.507,0,0,1-.227-.758,2.732,2.732,0,0,1-2.133.914,3,3,0,0,1-2.059-.719,2.312,2.312,0,0,1-.816-1.812,2.389,2.389,0,0,1,1-2.062,4.915,4.915,0,0,1,2.879-.727h1.039v-.484a1.393,1.393,0,0,0-.3-.937,1.183,1.183,0,0,0-.949-.352,1.345,1.345,0,0,0-.895.273.929.929,0,0,0-.324.75H14.734a2.268,2.268,0,0,1,.453-1.359,3,3,0,0,1,1.281-.98,4.669,4.669,0,0,1,1.859-.355,3.689,3.689,0,0,1,2.48.785,2.747,2.747,0,0,1,.918,2.207v3.664a4.041,4.041,0,0,0,.336,1.82V0ZM17.914-1.57a1.945,1.945,0,0,0,.922-.223,1.462,1.462,0,0,0,.625-.6V-3.844h-.844q-1.7,0-1.8,1.172l-.008.133a.9.9,0,0,0,.3.7A1.153,1.153,0,0,0,17.914-1.57Zm8.7-1.625L28.18-8.453H30.6L27.2,1.313l-.187.445a2.577,2.577,0,0,1-2.5,1.656,3.552,3.552,0,0,1-1-.148V1.555l.344.008a1.857,1.857,0,0,0,.957-.2,1.283,1.283,0,0,0,.5-.648l.266-.7L22.617-8.453h2.43ZM31.141-4.3a5.013,5.013,0,0,1,.484-2.242A3.546,3.546,0,0,1,33.02-8.07a4.069,4.069,0,0,1,2.113-.539,3.849,3.849,0,0,1,2.793,1.047,4.2,4.2,0,0,1,1.207,2.844l.016.578A4.418,4.418,0,0,1,38.063-1.02,3.775,3.775,0,0,1,35.148.156,3.793,3.793,0,0,1,32.23-1.016,4.5,4.5,0,0,1,31.141-4.2Zm2.258.16A3.16,3.16,0,0,0,33.852-2.3a1.5,1.5,0,0,0,1.3.638,1.5,1.5,0,0,0,1.281-.63,3.457,3.457,0,0,0,.461-2.015A3.128,3.128,0,0,0,36.43-6.14a1.5,1.5,0,0,0-1.3-.649,1.474,1.474,0,0,0-1.281.646A3.516,3.516,0,0,0,33.4-4.144ZM45.289-6.336a6.134,6.134,0,0,0-.812-.062,1.654,1.654,0,0,0-1.68.867V0H40.539V-8.453h2.133l.063,1.008a2.092,2.092,0,0,1,1.883-1.164,2.366,2.366,0,0,1,.7.1ZM4.383,13.336A1.481,1.481,0,0,0,5.4,12.992a1.2,1.2,0,0,0,.406-.914H7.922a2.9,2.9,0,0,1-.469,1.574,3.093,3.093,0,0,1-1.262,1.109,3.949,3.949,0,0,1-1.77.395A3.67,3.67,0,0,1,1.563,14,4.56,4.56,0,0,1,.516,10.82v-.148A4.508,4.508,0,0,1,1.555,7.555,3.627,3.627,0,0,1,4.406,6.391a3.555,3.555,0,0,1,2.543.9,3.2,3.2,0,0,1,.973,2.4H5.8A1.551,1.551,0,0,0,5.4,8.623a1.354,1.354,0,0,0-1.031-.412,1.36,1.36,0,0,0-1.191.575,3.333,3.333,0,0,0-.4,1.866v.235a3.375,3.375,0,0,0,.4,1.878A1.377,1.377,0,0,0,4.383,13.336ZM8.859,10.7a5.013,5.013,0,0,1,.484-2.242A3.546,3.546,0,0,1,10.738,6.93a4.069,4.069,0,0,1,2.113-.539,3.849,3.849,0,0,1,2.793,1.047,4.2,4.2,0,0,1,1.207,2.844l.016.578a4.418,4.418,0,0,1-1.086,3.121,3.775,3.775,0,0,1-2.914,1.176,3.793,3.793,0,0,1-2.918-1.172A4.5,4.5,0,0,1,8.859,10.8Zm2.258.16A3.16,3.16,0,0,0,11.57,12.7a1.5,1.5,0,0,0,1.3.638,1.5,1.5,0,0,0,1.281-.63,3.457,3.457,0,0,0,.461-2.015,3.128,3.128,0,0,0-.461-1.831,1.5,1.5,0,0,0-1.3-.649,1.474,1.474,0,0,0-1.281.646A3.516,3.516,0,0,0,11.117,10.856Zm9.219-4.309.07.977a2.951,2.951,0,0,1,2.43-1.133,2.453,2.453,0,0,1,2,.789,3.682,3.682,0,0,1,.672,2.359V15H23.25V9.594a1.465,1.465,0,0,0-.312-1.043A1.4,1.4,0,0,0,21.9,8.227a1.553,1.553,0,0,0-1.43.813V15H18.211V6.547ZM26.867,10.7a5.013,5.013,0,0,1,.484-2.242A3.546,3.546,0,0,1,28.746,6.93a4.069,4.069,0,0,1,2.113-.539,3.849,3.849,0,0,1,2.793,1.047,4.2,4.2,0,0,1,1.207,2.844l.016.578a4.418,4.418,0,0,1-1.086,3.121,3.775,3.775,0,0,1-2.914,1.176,3.793,3.793,0,0,1-2.918-1.172,4.5,4.5,0,0,1-1.09-3.187Zm2.258.16a3.16,3.16,0,0,0,.453,1.843,1.628,1.628,0,0,0,2.578.008,3.457,3.457,0,0,0,.461-2.015,3.128,3.128,0,0,0-.461-1.831,1.5,1.5,0,0,0-1.3-.649,1.474,1.474,0,0,0-1.281.646A3.516,3.516,0,0,0,29.125,10.856Zm10.656,2.48a1.481,1.481,0,0,0,1.016-.344,1.2,1.2,0,0,0,.406-.914H43.32a2.9,2.9,0,0,1-.469,1.574,3.093,3.093,0,0,1-1.262,1.109,3.949,3.949,0,0,1-1.77.395A3.67,3.67,0,0,1,36.961,14a4.56,4.56,0,0,1-1.047-3.184v-.148a4.508,4.508,0,0,1,1.039-3.117A3.627,3.627,0,0,1,39.8,6.391a3.555,3.555,0,0,1,2.543.9,3.2,3.2,0,0,1,.973,2.4H41.2A1.551,1.551,0,0,0,40.8,8.623a1.51,1.51,0,0,0-2.223.163,3.333,3.333,0,0,0-.4,1.866v.235a3.375,3.375,0,0,0,.4,1.878A1.377,1.377,0,0,0,39.781,13.336ZM46.992,15H44.727V6.547h2.266Zm-2.4-10.641a1.112,1.112,0,0,1,.34-.836,1.465,1.465,0,0,1,1.848,0,1.105,1.105,0,0,1,.344.836,1.108,1.108,0,0,1-.348.844,1.448,1.448,0,0,1-1.836,0A1.108,1.108,0,0,1,44.594,4.359Zm6.375,2.188.07.945a2.971,2.971,0,0,1,2.43-1.1A2.255,2.255,0,0,1,55.711,7.68,2.9,2.9,0,0,1,58.25,6.391a2.521,2.521,0,0,1,2.047.8,3.681,3.681,0,0,1,.672,2.41V15H58.7V9.609a1.61,1.61,0,0,0-.281-1.051,1.246,1.246,0,0,0-.992-.332,1.409,1.409,0,0,0-1.406.969l.008,5.8H53.773V9.617a1.59,1.59,0,0,0-.289-1.062,1.259,1.259,0,0,0-.984-.328,1.463,1.463,0,0,0-1.391.8V15H48.852V6.547ZM65.086,15H62.82V6.547h2.266Zm-2.4-10.641a1.112,1.112,0,0,1,.34-.836,1.465,1.465,0,0,1,1.848,0,1.105,1.105,0,0,1,.344.836,1.108,1.108,0,0,1-.348.844,1.448,1.448,0,0,1-1.836,0A1.108,1.108,0,0,1,62.688,4.359Zm8.148,10.8a4.15,4.15,0,0,1-3.027-1.141,4.054,4.054,0,0,1-1.168-3.039v-.219a5.106,5.106,0,0,1,.492-2.277,3.612,3.612,0,0,1,1.395-1.547,3.914,3.914,0,0,1,2.059-.543,3.508,3.508,0,0,1,2.73,1.094,4.444,4.444,0,0,1,1,3.1v.922H68.93a2.1,2.1,0,0,0,.66,1.328,2,2,0,0,0,1.395.5,2.437,2.437,0,0,0,2.039-.945l1.109,1.242a3.389,3.389,0,0,1-1.375,1.121A4.511,4.511,0,0,1,70.836,15.156Zm-.258-6.945a1.411,1.411,0,0,0-1.09.455,2.357,2.357,0,0,0-.535,1.3h3.141V9.788a1.681,1.681,0,0,0-.406-1.165A1.456,1.456,0,0,0,70.578,8.211Zm7.094-1.664.07.977a2.951,2.951,0,0,1,2.43-1.133,2.453,2.453,0,0,1,2,.789,3.682,3.682,0,0,1,.672,2.359V15H80.586V9.594a1.465,1.465,0,0,0-.312-1.043,1.4,1.4,0,0,0-1.039-.324,1.553,1.553,0,0,0-1.43.813V15H75.547V6.547Zm9.586-2.078V6.547H88.7V8.2H87.258v4.219a1.007,1.007,0,0,0,.18.672.9.9,0,0,0,.688.2,3.6,3.6,0,0,0,.664-.055v1.711a4.648,4.648,0,0,1-1.367.2A2.156,2.156,0,0,1,85,12.758V8.2H83.766V6.547H85V4.469ZM89.375,10.7a5.013,5.013,0,0,1,.484-2.242A3.546,3.546,0,0,1,91.254,6.93a4.069,4.069,0,0,1,2.113-.539A3.849,3.849,0,0,1,96.16,7.438a4.2,4.2,0,0,1,1.207,2.844l.016.578A4.418,4.418,0,0,1,96.3,13.98a4.209,4.209,0,0,1-5.832,0,4.5,4.5,0,0,1-1.09-3.187Zm2.258.16a3.16,3.16,0,0,0,.453,1.843,1.628,1.628,0,0,0,2.578.008,3.457,3.457,0,0,0,.461-2.015,3.128,3.128,0,0,0-.461-1.831,1.5,1.5,0,0,0-1.3-.649,1.474,1.474,0,0,0-1.281.646A3.516,3.516,0,0,0,91.633,10.856ZM.516,25.711A5.094,5.094,0,0,1,1.4,22.563a2.877,2.877,0,0,1,2.426-1.172,2.589,2.589,0,0,1,2.039.922V18H8.133V30H6.094l-.109-.9a2.657,2.657,0,0,1-2.172,1.055A2.869,2.869,0,0,1,1.418,28.98,5.258,5.258,0,0,1,.516,25.711Zm2.258.168A3.337,3.337,0,0,0,3.188,27.7a1.349,1.349,0,0,0,1.2.634,1.511,1.511,0,0,0,1.477-.884V24.111a1.489,1.489,0,0,0-1.461-.884Q2.773,23.227,2.773,25.879Zm11,4.277a4.15,4.15,0,0,1-3.027-1.141,4.054,4.054,0,0,1-1.168-3.039v-.219a5.106,5.106,0,0,1,.492-2.277,3.612,3.612,0,0,1,1.395-1.547,3.914,3.914,0,0,1,2.059-.543,3.508,3.508,0,0,1,2.73,1.094,4.444,4.444,0,0,1,1,3.1v.922H11.867a2.1,2.1,0,0,0,.66,1.328,2,2,0,0,0,1.395.5,2.437,2.437,0,0,0,2.039-.945l1.109,1.242A3.389,3.389,0,0,1,15.7,29.754,4.511,4.511,0,0,1,13.773,30.156Zm-.258-6.945a1.411,1.411,0,0,0-1.09.455,2.357,2.357,0,0,0-.535,1.3h3.141v-.181a1.681,1.681,0,0,0-.406-1.165A1.456,1.456,0,0,0,13.516,23.211ZM20.914,30H18.648V18h2.266Zm10.906-.859a2.831,2.831,0,0,1-2.312,1.016,2.67,2.67,0,0,1-2.074-.781,3.335,3.335,0,0,1-.73-2.289V21.547h2.258v5.467q0,1.322,1.2,1.322a1.63,1.63,0,0,0,1.578-.8V21.547h2.266V30H31.883Zm8.469-1.477a.727.727,0,0,0-.41-.652,4.659,4.659,0,0,0-1.316-.426q-3.016-.633-3.016-2.562a2.323,2.323,0,0,1,.934-1.879,3.766,3.766,0,0,1,2.441-.754,4.053,4.053,0,0,1,2.574.758,2.388,2.388,0,0,1,.965,1.969H40.2a1.092,1.092,0,0,0-.312-.8A1.322,1.322,0,0,0,38.914,23a1.351,1.351,0,0,0-.883.258.814.814,0,0,0-.312.656.7.7,0,0,0,.355.605,3.657,3.657,0,0,0,1.2.4A9.8,9.8,0,0,1,40.7,25.3a2.336,2.336,0,0,1,1.789,2.273,2.2,2.2,0,0,1-.992,1.871,4.28,4.28,0,0,1-2.562.715,4.47,4.47,0,0,1-1.887-.379,3.166,3.166,0,0,1-1.293-1.039,2.414,2.414,0,0,1-.469-1.426h2.141a1.179,1.179,0,0,0,.445.922,1.766,1.766,0,0,0,1.109.32,1.635,1.635,0,0,0,.98-.246A.766.766,0,0,0,40.289,27.664Zm3.3-1.969a5.013,5.013,0,0,1,.484-2.242,3.546,3.546,0,0,1,1.395-1.523,4.069,4.069,0,0,1,2.113-.539,3.849,3.849,0,0,1,2.793,1.047,4.2,4.2,0,0,1,1.207,2.844l.016.578a4.418,4.418,0,0,1-1.086,3.121,4.209,4.209,0,0,1-5.832,0,4.5,4.5,0,0,1-1.09-3.187Zm2.258.16A3.16,3.16,0,0,0,46.3,27.7a1.628,1.628,0,0,0,2.578.008,3.457,3.457,0,0,0,.461-2.015,3.128,3.128,0,0,0-.461-1.831,1.5,1.5,0,0,0-1.3-.649,1.474,1.474,0,0,0-1.281.646A3.516,3.516,0,0,0,45.844,25.856ZM4.758,45.156A4.15,4.15,0,0,1,1.73,44.016,4.054,4.054,0,0,1,.563,40.977v-.219a5.106,5.106,0,0,1,.492-2.277,3.612,3.612,0,0,1,1.395-1.547,3.914,3.914,0,0,1,2.059-.543,3.508,3.508,0,0,1,2.73,1.094,4.444,4.444,0,0,1,1,3.1v.922H2.852a2.1,2.1,0,0,0,.66,1.328,2,2,0,0,0,1.395.5,2.437,2.437,0,0,0,2.039-.945l1.109,1.242A3.389,3.389,0,0,1,6.68,44.754,4.511,4.511,0,0,1,4.758,45.156ZM4.5,38.211a1.411,1.411,0,0,0-1.09.455,2.357,2.357,0,0,0-.535,1.3H6.016v-.181a1.681,1.681,0,0,0-.406-1.165A1.456,1.456,0,0,0,4.5,38.211Zm7.094-1.664.07.977a2.951,2.951,0,0,1,2.43-1.133,2.453,2.453,0,0,1,2,.789,3.682,3.682,0,0,1,.672,2.359V45H14.508V39.594a1.465,1.465,0,0,0-.312-1.043,1.4,1.4,0,0,0-1.039-.324,1.553,1.553,0,0,0-1.43.813V45H9.469V36.547Zm10.773,8.609a4.15,4.15,0,0,1-3.027-1.141,4.054,4.054,0,0,1-1.168-3.039v-.219a5.106,5.106,0,0,1,.492-2.277,3.612,3.612,0,0,1,1.395-1.547,3.914,3.914,0,0,1,2.059-.543,3.508,3.508,0,0,1,2.73,1.094,4.444,4.444,0,0,1,1,3.1v.922H20.461a2.1,2.1,0,0,0,.66,1.328,2,2,0,0,0,1.395.5,2.437,2.437,0,0,0,2.039-.945l1.109,1.242a3.389,3.389,0,0,1-1.375,1.121A4.511,4.511,0,0,1,22.367,45.156Zm-.258-6.945a1.411,1.411,0,0,0-1.09.455,2.357,2.357,0,0,0-.535,1.3h3.141v-.181a1.681,1.681,0,0,0-.406-1.165A1.456,1.456,0,0,0,22.109,38.211Zm9.766.453a6.134,6.134,0,0,0-.812-.062,1.654,1.654,0,0,0-1.68.867V45H27.125V36.547h2.133l.063,1.008A2.092,2.092,0,0,1,31.2,36.391a2.366,2.366,0,0,1,.7.1Zm.758,2.047a4.954,4.954,0,0,1,.926-3.133,3,3,0,0,1,2.5-1.187,2.631,2.631,0,0,1,2.164.953l.094-.8h2.047v8.172a3.613,3.613,0,0,1-.5,1.93,3.236,3.236,0,0,1-1.418,1.25,4.985,4.985,0,0,1-2.141.43,4.635,4.635,0,0,1-1.812-.371A3.217,3.217,0,0,1,33.148,47l1-1.375a2.645,2.645,0,0,0,2.047.945,1.936,1.936,0,0,0,1.4-.48,1.8,1.8,0,0,0,.5-1.363v-.453a2.612,2.612,0,0,1-2.055.883,2.992,2.992,0,0,1-2.465-1.191,4.953,4.953,0,0,1-.941-3.16Zm2.258.168a3.085,3.085,0,0,0,.461,1.8,1.466,1.466,0,0,0,1.266.653,1.568,1.568,0,0,0,1.477-.775V39a1.564,1.564,0,0,0-1.461-.775,1.476,1.476,0,0,0-1.277.665A3.477,3.477,0,0,0,34.891,40.879Zm11.094,4.277a4.15,4.15,0,0,1-3.027-1.141,4.054,4.054,0,0,1-1.168-3.039v-.219a5.106,5.106,0,0,1,.492-2.277,3.612,3.612,0,0,1,1.395-1.547,3.914,3.914,0,0,1,2.059-.543,3.508,3.508,0,0,1,2.73,1.094,4.444,4.444,0,0,1,1,3.1v.922H44.078a2.1,2.1,0,0,0,.66,1.328,2,2,0,0,0,1.395.5,2.437,2.437,0,0,0,2.039-.945l1.109,1.242a3.389,3.389,0,0,1-1.375,1.121A4.511,4.511,0,0,1,45.984,45.156Zm-.258-6.945a1.411,1.411,0,0,0-1.09.455,2.357,2.357,0,0,0-.535,1.3h3.141v-.181a1.681,1.681,0,0,0-.406-1.165A1.456,1.456,0,0,0,45.727,38.211ZM45.93,33h2.461l-2.164,2.422H44.391Zm7.516,1.469v2.078h1.445V38.2H53.445v4.219a1.007,1.007,0,0,0,.18.672.9.9,0,0,0,.688.2,3.6,3.6,0,0,0,.664-.055v1.711a4.648,4.648,0,0,1-1.367.2,2.156,2.156,0,0,1-2.422-2.4V38.2H49.953V36.547h1.234V34.469ZM58.531,45H56.266V36.547h2.266Zm-2.4-10.641a1.112,1.112,0,0,1,.34-.836,1.465,1.465,0,0,1,1.848,0,1.193,1.193,0,0,1,0,1.68,1.448,1.448,0,0,1-1.836,0A1.108,1.108,0,0,1,56.133,34.359Zm7.773,8.977a1.481,1.481,0,0,0,1.016-.344,1.2,1.2,0,0,0,.406-.914h2.117a2.9,2.9,0,0,1-.469,1.574,3.093,3.093,0,0,1-1.262,1.109,3.949,3.949,0,0,1-1.77.395A3.67,3.67,0,0,1,61.086,44a4.56,4.56,0,0,1-1.047-3.184v-.148a4.508,4.508,0,0,1,1.039-3.117,3.627,3.627,0,0,1,2.852-1.164,3.555,3.555,0,0,1,2.543.9,3.2,3.2,0,0,1,.973,2.4H65.328a1.551,1.551,0,0,0-.406-1.072,1.51,1.51,0,0,0-2.223.163,3.333,3.333,0,0,0-.4,1.866v.235a3.375,3.375,0,0,0,.4,1.878A1.377,1.377,0,0,0,63.906,43.336ZM68.383,40.7a5.013,5.013,0,0,1,.484-2.242,3.546,3.546,0,0,1,1.395-1.523,4.069,4.069,0,0,1,2.113-.539,3.849,3.849,0,0,1,2.793,1.047,4.2,4.2,0,0,1,1.207,2.844l.016.578A4.418,4.418,0,0,1,75.3,43.98a4.209,4.209,0,0,1-5.832,0,4.5,4.5,0,0,1-1.09-3.187Zm2.258.16a3.16,3.16,0,0,0,.453,1.843,1.628,1.628,0,0,0,2.578.008,3.457,3.457,0,0,0,.461-2.015,3.128,3.128,0,0,0-.461-1.831,1.5,1.5,0,0,0-1.3-.649,1.474,1.474,0,0,0-1.281.646A3.516,3.516,0,0,0,70.641,40.856Z" transform="translate(509.551 4832.222)" fill="#fff"/>
    <g id="Grupo_1102021" data-name="Grupo 1102021" transform="translate(661.567 4695.375)">
      <path id="Trazado_885415" data-name="Trazado 885415" d="M35.626,19.527a6.06,6.06,0,0,0-4.872,9.652c.07.1.14.184.216.273l.184.215a6.088,6.088,0,0,0,2.669,1.7h0c.114.036.233.07.352.1.1.026.2.048.3.065a2.207,2.207,0,0,0,.229.04c.044.009.088.013.132.018.065.012.131.017.193.026h.044a1.1,1.1,0,0,0,.127.009c.136.013.278.018.418.018s.286,0,.426-.018a1.1,1.1,0,0,0,.127-.009.208.208,0,0,0,.049,0,5.682,5.682,0,0,0,.867-.15c.118-.031.237-.061.355-.1A6.076,6.076,0,0,0,40.4,29.323c.035-.048.074-.1.11-.145a6.057,6.057,0,0,0-4.881-9.652" transform="translate(-4.102 -3.113)" fill="#fff"/>
      <path id="Trazado_885416" data-name="Trazado 885416" d="M32.263,1.65A21,21,0,0,0,10.255,22.633a19.417,19.417,0,0,0,.1,2.024,1.484,1.484,0,0,1-.091.744L6.133,36.215A2.261,2.261,0,0,0,8.239,39.28h.826A1.639,1.639,0,0,1,10.7,40.915v7.741a2.264,2.264,0,0,0,2.255,2.255h7.311a1.641,1.641,0,0,1,1.644,1.636,2.572,2.572,0,0,0,2.569,2.569h20.05a2.54,2.54,0,0,0,1.974-.934,2.515,2.515,0,0,0,.545-2.115L46.026,46.69a11.244,11.244,0,0,1,.661-6.4l3.759-9.1.38-.876a.247.247,0,0,0,.033-.083A21.027,21.027,0,0,0,32.263,1.65M45.9,24a1.492,1.492,0,0,1-1.214,1.322l-1.082.182a.866.866,0,0,0-.669.62,11.808,11.808,0,0,1-.826,2.024.878.878,0,0,0,.041.9l.595.851a1.462,1.462,0,0,1-.058,1.751,14.485,14.485,0,0,1-2.247,2.2,1.462,1.462,0,0,1-1.743.017l-.727-.529a.868.868,0,0,0-.925-.033,11.48,11.48,0,0,1-1.933.81.868.868,0,0,0-.6.677l-.14.826a1.483,1.483,0,0,1-1.322,1.223,13.849,13.849,0,0,1-1.528.083,14.779,14.779,0,0,1-1.5-.074,1.5,1.5,0,0,1-1.322-1.223l-.14-.834a.868.868,0,0,0-.6-.677,11.479,11.479,0,0,1-1.933-.81.868.868,0,0,0-.925.033l-.727.529a1.45,1.45,0,0,1-1.735-.017,14.253,14.253,0,0,1-2.264-2.2,1.462,1.462,0,0,1-.05-1.751l.595-.859a.845.845,0,0,0,.041-.892,11.656,11.656,0,0,1-.818-2.024.888.888,0,0,0-.677-.62l-1.082-.182A1.492,1.492,0,0,1,17.161,24a12.839,12.839,0,0,1-.083-1.512c0-.5.033-1.008.083-1.528a1.491,1.491,0,0,1,1.223-1.314l1.074-.19a.853.853,0,0,0,.669-.62,11.835,11.835,0,0,1,.826-2.024.863.863,0,0,0-.033-.892l-.6-.867a1.462,1.462,0,0,1,.05-1.735A13.57,13.57,0,0,1,22.614,11.1a1.462,1.462,0,0,1,1.743-.017l.727.529a.868.868,0,0,0,.925.041,12.325,12.325,0,0,1,1.95-.826.874.874,0,0,0,.6-.661l.14-.851A1.5,1.5,0,0,1,30.024,8.1a15.324,15.324,0,0,1,3.015,0,1.5,1.5,0,0,1,1.322,1.214l.14.851a.874.874,0,0,0,.6.661,12.326,12.326,0,0,1,1.95.826.868.868,0,0,0,.925-.041l.719-.52a1.449,1.449,0,0,1,1.735.017A13.962,13.962,0,0,1,42.7,13.315a1.449,1.449,0,0,1,.041,1.735l-.587.859a.878.878,0,0,0-.041.9,11.692,11.692,0,0,1,.826,2.024.853.853,0,0,0,.669.62l1.074.19A1.491,1.491,0,0,1,45.9,20.956c.05.52.083,1.033.083,1.528A12.85,12.85,0,0,1,45.9,24" fill="#fff"/>
    </g>
    <path id="Trazado_888832" data-name="Trazado 888832" d="M-71.6-11.375l2.539,7.914,2.531-7.914h3.609V0h-2.75V-2.656l.266-5.437L-68.156,0h-1.812l-2.758-8.1.266,5.445V0H-75.2V-11.375ZM-57.211.156A4.345,4.345,0,0,1-60.359-1a4.006,4.006,0,0,1-1.2-3.02v-.219a5.191,5.191,0,0,1,.48-2.289,3.516,3.516,0,0,1,1.4-1.535,4.233,4.233,0,0,1,2.188-.543A3.659,3.659,0,0,1-54.68-7.5a4.344,4.344,0,0,1,1.031,3.082V-3.4h-5.234a1.9,1.9,0,0,0,.617,1.117,1.836,1.836,0,0,0,1.234.406,2.366,2.366,0,0,0,1.953-.875l1.2,1.422A3.363,3.363,0,0,1-55.27-.246,4.713,4.713,0,0,1-57.211.156Zm-.3-6.734q-1.156,0-1.375,1.531h2.656v-.2a1.3,1.3,0,0,0-.32-.98A1.275,1.275,0,0,0-57.508-6.578Zm7.75-1.875V.289A3.068,3.068,0,0,1-50.617,2.6a3.3,3.3,0,0,1-2.375.813,5.607,5.607,0,0,1-1.242-.133V1.289a5.037,5.037,0,0,0,.742.07A.963.963,0,0,0-52.4.273V-8.453Zm-2.836-2.18a1.175,1.175,0,0,1,.406-.922,1.533,1.533,0,0,1,1.055-.359,1.533,1.533,0,0,1,1.055.359,1.175,1.175,0,0,1,.406.922,1.175,1.175,0,0,1-.406.922,1.533,1.533,0,0,1-1.055.359,1.533,1.533,0,0,1-1.055-.359A1.175,1.175,0,0,1-52.594-10.633ZM-48.6-4.3a4.989,4.989,0,0,1,.492-2.254A3.52,3.52,0,0,1-46.7-8.078a4.259,4.259,0,0,1,2.164-.531,3.887,3.887,0,0,1,2.992,1.176,4.512,4.512,0,0,1,1.094,3.2v.094A4.378,4.378,0,0,1-41.543-1,3.9,3.9,0,0,1-44.516.156a3.942,3.942,0,0,1-2.9-1.082,4.232,4.232,0,0,1-1.18-2.934Zm2.633.164A3.145,3.145,0,0,0-45.6-2.422a1.223,1.223,0,0,0,1.086.547q1.406,0,1.438-2.164V-4.3q0-2.273-1.453-2.273-1.32,0-1.43,1.961Zm11.8-1.93-.867-.062a1.558,1.558,0,0,0-1.594.781V0h-2.633V-8.453H-36.8l.086,1.086a2.039,2.039,0,0,1,1.852-1.242,2.567,2.567,0,0,1,.734.094ZM-28.7,0a2.973,2.973,0,0,1-.25-.758,2.448,2.448,0,0,1-2.031.914,3,3,0,0,1-2.031-.723,2.3,2.3,0,0,1-.836-1.816,2.364,2.364,0,0,1,1.016-2.078,5.174,5.174,0,0,1,2.953-.7h.813v-.448q0-1.17-1.008-1.17a.824.824,0,0,0-.937.926h-2.633A2.36,2.36,0,0,1-32.6-7.845a4.383,4.383,0,0,1,2.66-.765,3.843,3.843,0,0,1,2.555.789,2.743,2.743,0,0,1,.961,2.164v3.742a3.832,3.832,0,0,0,.359,1.781V0Zm-1.648-1.719a1.469,1.469,0,0,0,.816-.211,1.322,1.322,0,0,0,.465-.477V-3.758h-.766q-1.375,0-1.375,1.234a.754.754,0,0,0,.242.582A.876.876,0,0,0-30.344-1.719ZM-16.891.156A4.345,4.345,0,0,1-20.039-1a4.006,4.006,0,0,1-1.2-3.02v-.219a5.191,5.191,0,0,1,.48-2.289,3.516,3.516,0,0,1,1.4-1.535,4.233,4.233,0,0,1,2.188-.543A3.659,3.659,0,0,1-14.359-7.5a4.344,4.344,0,0,1,1.031,3.082V-3.4h-5.234a1.9,1.9,0,0,0,.617,1.117,1.836,1.836,0,0,0,1.234.406,2.366,2.366,0,0,0,1.953-.875l1.2,1.422A3.363,3.363,0,0,1-14.949-.246,4.713,4.713,0,0,1-16.891.156Zm-.3-6.734q-1.156,0-1.375,1.531h2.656v-.2a1.3,1.3,0,0,0-.32-.98A1.275,1.275,0,0,0-17.187-6.578Zm7.336-1.875.086.992A2.867,2.867,0,0,1-7.352-8.609a2.412,2.412,0,0,1,1.973.789A3.757,3.757,0,0,1-4.7-5.445V0H-7.344V-5.336A1.426,1.426,0,0,0-7.6-6.277a1.193,1.193,0,0,0-.937-.3,1.256,1.256,0,0,0-1.148.609V0H-12.32V-8.453ZM-121.094,17h-2.641V5h2.641Zm6.383,0a2.973,2.973,0,0,1-.25-.758,2.448,2.448,0,0,1-2.031.914,3,3,0,0,1-2.031-.723,2.3,2.3,0,0,1-.836-1.816,2.364,2.364,0,0,1,1.016-2.078,5.174,5.174,0,0,1,2.953-.7h.813v-.448q0-1.17-1.008-1.17a.824.824,0,0,0-.937.926h-2.633a2.36,2.36,0,0,1,1.043-1.99,4.383,4.383,0,0,1,2.66-.765,3.843,3.843,0,0,1,2.555.789,2.743,2.743,0,0,1,.961,2.164v3.742a3.832,3.832,0,0,0,.359,1.781V17Zm-1.648-1.719a1.469,1.469,0,0,0,.816-.211,1.322,1.322,0,0,0,.465-.477V13.242h-.766q-1.375,0-1.375,1.234a.754.754,0,0,0,.242.582A.876.876,0,0,0-116.359,15.281Zm12.938-.156a1.171,1.171,0,0,0,.859-.3,1.1,1.1,0,0,0,.3-.84H-99.8a2.922,2.922,0,0,1-1,2.281,3.705,3.705,0,0,1-2.566.891A3.751,3.751,0,0,1-106.266,16a4.556,4.556,0,0,1-1.062-3.2v-.109a5.149,5.149,0,0,1,.473-2.262,3.441,3.441,0,0,1,1.363-1.508,4.065,4.065,0,0,1,2.109-.527,3.658,3.658,0,0,1,2.617.914,3.242,3.242,0,0,1,.969,2.477h-2.469a1.445,1.445,0,0,0-.32-1.008,1.106,1.106,0,0,0-.859-.352q-1.023,0-1.2,1.3a9.206,9.206,0,0,0-.055,1.141,3.616,3.616,0,0,0,.3,1.766A1.055,1.055,0,0,0-103.422,15.125Zm4.406-2.43a4.989,4.989,0,0,1,.492-2.254,3.52,3.52,0,0,1,1.414-1.52,4.259,4.259,0,0,1,2.164-.531,3.887,3.887,0,0,1,2.992,1.176,4.512,4.512,0,0,1,1.094,3.2v.094A4.378,4.378,0,0,1-91.957,16a3.9,3.9,0,0,1-2.973,1.16,3.942,3.942,0,0,1-2.9-1.082,4.232,4.232,0,0,1-1.18-2.934Zm2.633.164a3.145,3.145,0,0,0,.367,1.719,1.223,1.223,0,0,0,1.086.547q1.406,0,1.438-2.164V12.7q0-2.273-1.453-2.273-1.32,0-1.43,1.961Zm9.172-4.312.086.992a2.906,2.906,0,0,1,2.414-1.148,2.14,2.14,0,0,1,2.164,1.273,2.813,2.813,0,0,1,2.484-1.273q2.57,0,2.641,3.109V17h-2.641V11.664a1.611,1.611,0,0,0-.219-.945.931.931,0,0,0-.8-.3,1.247,1.247,0,0,0-1.164.7l.008.109V17h-2.641V11.68a1.694,1.694,0,0,0-.211-.961.928.928,0,0,0-.8-.3,1.263,1.263,0,0,0-1.156.7V17H-89.68V8.547Zm19.141,4.289a5.1,5.1,0,0,1-.887,3.145,2.843,2.843,0,0,1-2.395,1.176,2.437,2.437,0,0,1-1.914-.852V20.25H-75.9V8.547h2.461l.078.781a2.437,2.437,0,0,1,1.992-.937,2.866,2.866,0,0,1,2.43,1.152,5.16,5.16,0,0,1,.867,3.168Zm-2.633-.164q0-2.25-1.312-2.25a1.239,1.239,0,0,0-1.25.672v3.328a1.279,1.279,0,0,0,1.266.7q1.258,0,1.3-2.172Zm7.883,4.484A4.345,4.345,0,0,1-65.969,16a4.006,4.006,0,0,1-1.2-3.02v-.219a5.191,5.191,0,0,1,.48-2.289,3.516,3.516,0,0,1,1.4-1.535A4.233,4.233,0,0,1-63.1,8.391,3.659,3.659,0,0,1-60.289,9.5a4.344,4.344,0,0,1,1.031,3.082V13.6h-5.234a1.9,1.9,0,0,0,.617,1.117,1.836,1.836,0,0,0,1.234.406,2.366,2.366,0,0,0,1.953-.875l1.2,1.422a3.363,3.363,0,0,1-1.395,1.082A4.713,4.713,0,0,1-62.82,17.156Zm-.3-6.734q-1.156,0-1.375,1.531h2.656v-.2a1.3,1.3,0,0,0-.32-.98A1.275,1.275,0,0,0-63.117,10.422Zm7.984-3.977v2.1h1.391v1.828h-1.391v3.867a.987.987,0,0,0,.172.664.922.922,0,0,0,.68.188,3.862,3.862,0,0,0,.656-.047V16.93a4.859,4.859,0,0,1-1.484.227,2.758,2.758,0,0,1-2.008-.641,2.626,2.626,0,0,1-.648-1.945v-4.2h-1.078V8.547h1.078v-2.1ZM-49.93,17H-52.57V8.547h2.641Zm-2.8-10.633a1.175,1.175,0,0,1,.406-.922,1.533,1.533,0,0,1,1.055-.359,1.533,1.533,0,0,1,1.055.359,1.175,1.175,0,0,1,.406.922,1.175,1.175,0,0,1-.406.922,1.533,1.533,0,0,1-1.055.359,1.533,1.533,0,0,1-1.055-.359A1.175,1.175,0,0,1-52.727,6.367Zm7.484.078v2.1h1.391v1.828h-1.391v3.867a.987.987,0,0,0,.172.664.922.922,0,0,0,.68.188,3.862,3.862,0,0,0,.656-.047V16.93a4.859,4.859,0,0,1-1.484.227,2.758,2.758,0,0,1-2.008-.641,2.626,2.626,0,0,1-.648-1.945v-4.2h-1.078V8.547h1.078v-2.1ZM-40.039,17H-42.68V8.547h2.641Zm-2.8-10.633a1.175,1.175,0,0,1,.406-.922,1.533,1.533,0,0,1,1.055-.359,1.533,1.533,0,0,1,1.055.359,1.175,1.175,0,0,1,.406.922,1.175,1.175,0,0,1-.406.922,1.533,1.533,0,0,1-1.055.359,1.533,1.533,0,0,1-1.055-.359A1.175,1.175,0,0,1-42.836,6.367Zm7.789,7.5,1.336-5.32h2.773L-33.7,17h-2.687l-2.758-8.453h2.781ZM-27.375,17h-2.641V8.547h2.641Zm-2.8-10.633a1.175,1.175,0,0,1,.406-.922,1.533,1.533,0,0,1,1.055-.359,1.533,1.533,0,0,1,1.055.359,1.175,1.175,0,0,1,.406.922,1.175,1.175,0,0,1-.406.922,1.533,1.533,0,0,1-1.055.359,1.533,1.533,0,0,1-1.055-.359A1.175,1.175,0,0,1-30.172,6.367Zm4.086,6.344a5.164,5.164,0,0,1,.867-3.164A2.854,2.854,0,0,1-22.8,8.391a2.428,2.428,0,0,1,1.906.891V5h2.641V17h-2.367l-.133-.906a2.493,2.493,0,0,1-2.062,1.063A2.849,2.849,0,0,1-25.2,16,5.327,5.327,0,0,1-26.086,12.711Zm2.633.164q0,2.25,1.313,2.25a1.3,1.3,0,0,0,1.25-.734V11.172a1.261,1.261,0,0,0-1.234-.75q-1.219,0-1.32,1.969ZM-11.992,17a2.973,2.973,0,0,1-.25-.758,2.448,2.448,0,0,1-2.031.914,3,3,0,0,1-2.031-.723,2.3,2.3,0,0,1-.836-1.816,2.364,2.364,0,0,1,1.016-2.078,5.174,5.174,0,0,1,2.953-.7h.813v-.448q0-1.17-1.008-1.17a.824.824,0,0,0-.937.926h-2.633a2.36,2.36,0,0,1,1.043-1.99,4.383,4.383,0,0,1,2.66-.765,3.843,3.843,0,0,1,2.555.789,2.743,2.743,0,0,1,.961,2.164v3.742a3.832,3.832,0,0,0,.359,1.781V17Zm-1.648-1.719a1.469,1.469,0,0,0,.816-.211,1.322,1.322,0,0,0,.465-.477V13.242h-.766q-1.375,0-1.375,1.234a.754.754,0,0,0,.242.582A.876.876,0,0,0-13.641,15.281Zm5.047-2.57a5.164,5.164,0,0,1,.867-3.164A2.854,2.854,0,0,1-5.3,8.391,2.428,2.428,0,0,1-3.4,9.281V5H-.758V17H-3.125l-.133-.906A2.493,2.493,0,0,1-5.32,17.156,2.849,2.849,0,0,1-7.711,16,5.327,5.327,0,0,1-8.594,12.711Zm2.633.164q0,2.25,1.313,2.25a1.3,1.3,0,0,0,1.25-.734V11.172a1.261,1.261,0,0,0-1.234-.75q-1.219,0-1.32,1.969Z" transform="translate(1089.051 4846.222)" fill="#fff"/>
    <g id="Layer_x0020_1" transform="translate(601.768 4703.737)">
      <path id="Trazado_885417" data-name="Trazado 885417" d="M276.98,12.5l3.008,4.2,5.074,1.631a1.437,1.437,0,0,1,.652,2.32l-3.081,4.2.036,5.292a1.457,1.457,0,0,1-1.957,1.377l-5-1.667-5.038,1.667c-1.2.4-1.885-.544-1.885-1.667v-5l-3.117-4.313c-.761-.979-.072-1.957.979-2.32l4.785-1.522,3.117-4.313A1.441,1.441,0,0,1,276.98,12.5Zm-17.616,9.207a16.347,16.347,0,1,1,16.347,16.347A16.351,16.351,0,0,1,259.364,21.711ZM286.8,40.378a21.729,21.729,0,1,0-22.908-.471l-2.429,13.737a1.446,1.446,0,0,0,2.573,1.2l4.313-4.386,2.465,5.437c.761,1.7,2.61,1.486,2.9,0l1.595-9.062L277.7,60.386c.29,1.74,2.1,2.1,2.9.362l2.5-5.509,4.313,4.386c1.015,1.051,2.936.471,2.573-1.2Z" transform="translate(0)" fill="#fff"/>
    </g>
  </g>
</svg>
