<svg xmlns="http://www.w3.org/2000/svg" width="295" height="255.956" viewBox="0 0 295 255.956">
  <g id="Grupo_1103084" data-name="Grupo 1103084" transform="translate(-705 -5481.66)">
    <g id="Grupo_1099962" data-name="Grupo 1099962" transform="translate(-72 2389.66)">
      <rect id="Rectángulo_401369" data-name="Rectángulo 401369" width="295" height="255.956" transform="translate(777 3092)" fill="#e0f4ff"/>
    </g>
    <g id="Grupo_1103065" data-name="Grupo 1103065">
      <g id="iso-1" transform="translate(707.547 5496.765)">
        <path id="Trazado_885419" data-name="Trazado 885419" d="M8.5,66.546H112.67V159.2H8.5Z" transform="translate(0)" fill="#1e447f" fill-rule="evenodd"/>
        <path id="Trazado_885420" data-name="Trazado 885420" d="M15.414,92.287h18.87a1.324,1.324,0,0,1,1.32,1.322v6.039a1.323,1.323,0,0,1-1.32,1.32H30.378v16.418h3.907a1.328,1.328,0,0,1,1.322,1.323v6.039a1.326,1.326,0,0,1-1.322,1.32H15.414a1.323,1.323,0,0,1-1.32-1.32v-6.039a1.325,1.325,0,0,1,1.32-1.323h4.153V100.966H15.416a1.325,1.325,0,0,1-1.322-1.32V93.607a1.323,1.323,0,0,1,1.32-1.32Zm70.293,34.345c-9.614,0-17.457-5.785-17.457-17.076s7.842-17.078,17.457-17.078,17.455,5.786,17.455,17.078S95.322,126.632,85.707,126.632Zm5-17.076c0-6.178-1.115-9.341-5-9.341s-5,3.165-5,9.341,1.115,9.343,5,9.343S90.708,115.73,90.708,109.555ZM53.67,105.12c-3.2-.9-6.448-1.107-6.308-3.625.051-.916.764-1.943,3.208-1.949a12.412,12.412,0,0,1,6.069,1.753c2.045,1.292,3.519,3.226,5.008,3.226H65.3c1.079,0,1.887-1.561,1.887-2.642V94.9a1.525,1.525,0,0,0-1.746-1.632l-3.573.043c-2.356.029-1.291,1.892-2.323,2.277-2.684,1-2.671-2.879-9.826-2.974-8.072-.106-12.838,4.6-12.719,9.981.149,6.777,5.269,9.257,11.619,11.329,3.157,1.031,8.346,1.556,8.2,4.073-.051.916-.764,1.944-3.208,1.951a12.446,12.446,0,0,1-6.069-1.753c-2.045-1.292-3.521-3.227-5.008-3.227H38.885c-1.081,0-1.887,1.562-1.887,2.642v6.988a1.523,1.523,0,0,0,1.746,1.632l3.573-.042c2.356-.031,1.292-1.893,2.325-2.278,2.684-1,2.67,2.879,9.824,2.972,8.074.106,12.838-4.6,12.72-9.982-.151-6.777-5.235-9.445-13.517-11.776ZM80.455,81.132A13.818,13.818,0,0,1,76.3,84.214a35.975,35.975,0,0,1,3.263,5.62H77.88a34.422,34.422,0,0,0-2.974-4.962,29.905,29.905,0,0,1-2.932,1.082c-1.165.365-2.409.688-3.719.96q.422,1.193.8,2.477l.127.443H67.606l-.006-.022q-.384-1.319-.848-2.612a53.209,53.209,0,0,1-8.308.747v1.887H56.925V87.948a53,53,0,0,1-8.307-.747q-.467,1.3-.854,2.635H46.189c.04-.149.084-.3.127-.443q.375-1.284.8-2.479a38.425,38.425,0,0,1-4.08-1.075q-1.308-.422-2.57-.967a34.528,34.528,0,0,0-2.84,4.688l-.137.273h-1.68a36.154,36.154,0,0,1,3.264-5.62,13.8,13.8,0,0,1-4.156-3.083,36.6,36.6,0,0,0-7.777,8.7H25.353a37.7,37.7,0,0,1,64.665,0H88.232a36.7,36.7,0,0,0-7.777-8.7ZM47.919,74.389A8.481,8.481,0,0,0,50.708,76.1a18.958,18.958,0,0,0,6.977,1.228,19.364,19.364,0,0,0,6.547-1.062,8.955,8.955,0,0,0,3.219-1.878,36.176,36.176,0,0,0-19.533,0Zm-.238,1.775a6.837,6.837,0,0,1-1.35-1.289A36.2,36.2,0,0,0,36.112,80.2a12.563,12.563,0,0,0,3.876,2.786A26.957,26.957,0,0,1,47.681,76.164Zm4.308,1.96a16.463,16.463,0,0,1-1.845-.617q-.49-.2-.964-.433a24.808,24.808,0,0,0-7.766,6.558q.988.41,2.093.769a37.144,37.144,0,0,0,4.15,1.079A23.654,23.654,0,0,1,51.989,78.124Zm4.935.711a22.383,22.383,0,0,1-3.177-.323,19.882,19.882,0,0,0-4.577,7.245,51.863,51.863,0,0,0,7.754.674Zm4.7-.323a22.61,22.61,0,0,1-3.179.323v7.6a51.679,51.679,0,0,0,7.755-.674A19.9,19.9,0,0,0,61.622,78.512Zm4.567-1.44a13.769,13.769,0,0,1-1.441.617c-.435.158-.891.3-1.367.435a23.672,23.672,0,0,1,4.333,7.353,37.94,37.94,0,0,0,3.809-.969q1.237-.384,2.435-.877A24.819,24.819,0,0,0,66.19,77.072Zm2.85-2.2a6.805,6.805,0,0,1-1.351,1.289,26.933,26.933,0,0,1,7.692,6.822A12.564,12.564,0,0,0,79.258,80.2,36.156,36.156,0,0,0,69.039,74.876Zm11.416,61.965a13.794,13.794,0,0,0-4.157-3.084,35.935,35.935,0,0,0,3.263-5.617H77.88a34.438,34.438,0,0,1-2.974,4.963,29.9,29.9,0,0,0-2.932-1.082q-1.835-.57-3.719-.961.422-1.193.8-2.475l.127-.443H67.606l-.006.022q-.384,1.319-.848,2.612a52.839,52.839,0,0,0-8.308-.745v-1.887H56.925v1.887a52.821,52.821,0,0,0-8.307.745q-.468-1.3-.854-2.634H46.189c.04.149.084.294.127.443q.375,1.284.8,2.479a38.434,38.434,0,0,0-4.08,1.073c-.908.294-1.767.618-2.57.967a34.643,34.643,0,0,1-2.84-4.69l-.137-.273h-1.68a36.115,36.115,0,0,0,3.264,5.617,13.806,13.806,0,0,0-4.156,3.084,36.536,36.536,0,0,1-7.777-8.7H25.353a37.7,37.7,0,0,0,64.665,0H88.232a36.635,36.635,0,0,1-7.777,8.7Zm-32.536,6.743a8.507,8.507,0,0,1,2.789-1.711,18.961,18.961,0,0,1,6.977-1.225,19.444,19.444,0,0,1,6.547,1.059,8.978,8.978,0,0,1,3.219,1.878,36.176,36.176,0,0,1-19.533,0Zm-.238-1.775a6.791,6.791,0,0,0-1.35,1.289,36.165,36.165,0,0,1-10.22-5.327,12.586,12.586,0,0,1,3.876-2.784A26.91,26.91,0,0,0,47.681,141.809Zm4.308-1.96a16.46,16.46,0,0,0-1.845.615q-.489.2-.964.433a24.767,24.767,0,0,1-7.766-6.558q.988-.41,2.093-.767a36.481,36.481,0,0,1,4.15-1.079,23.617,23.617,0,0,0,4.333,7.356Zm4.935-.713a22.844,22.844,0,0,0-3.177.325,19.864,19.864,0,0,1-4.577-7.246,52.7,52.7,0,0,1,7.754-.674Zm4.7.325a22.844,22.844,0,0,0-3.179-.325v-7.6a52.092,52.092,0,0,1,7.755.674A19.891,19.891,0,0,1,61.622,139.461ZM66.19,140.9a14.1,14.1,0,0,0-1.441-.615c-.435-.158-.891-.3-1.367-.433a23.644,23.644,0,0,0,4.333-7.355,37.935,37.935,0,0,1,3.809.971c.862.27,1.676.564,2.435.876A24.792,24.792,0,0,1,66.19,140.9Zm2.85,2.2a6.717,6.717,0,0,0-1.351-1.289,26.933,26.933,0,0,0,7.692-6.822,12.614,12.614,0,0,1,3.878,2.784A36.236,36.236,0,0,1,69.039,143.1Z" transform="translate(3.091 2.753)" fill="#fff" fill-rule="evenodd"/>
        <path id="Trazado_885421" data-name="Trazado 885421" d="M96.861,91.23h-2.07v-14.3h2.07Zm4.341,0H99.257v-10.8h1.867v1.23a3.857,3.857,0,0,1,1.34-1.067,3.943,3.943,0,0,1,1.673-.339,4.18,4.18,0,0,1,3.257,1.247,5.131,5.131,0,0,1,1.134,3.575v6.153h-1.952V85.5a4.181,4.181,0,0,0-.637-2.55,2.764,2.764,0,0,0-4.083.148,6.005,6.005,0,0,0-.652,3.227V91.23h0Zm10.256,0V82.194h-1.528V80.429h1.528v-3.5h1.935v3.5h1.531v1.766h-1.531V91.23ZM124.73,84.8a3.889,3.889,0,0,0-1.259-2.067A3.251,3.251,0,0,0,121.336,82a3.46,3.46,0,0,0-2.218.75,3.85,3.85,0,0,0-1.289,2.05h6.9Zm-6.96,1.747a3.669,3.669,0,0,0,1.222,2.194,3.6,3.6,0,0,0,4.077.376,3.39,3.39,0,0,0,1.259-1.3h2.19a6.181,6.181,0,0,1-2.087,2.749,5.25,5.25,0,0,1-3.115.95,5.56,5.56,0,0,1-2.193-.421,5.438,5.438,0,0,1-1.8-1.266,5.911,5.911,0,0,1-1.607-4.005,5.8,5.8,0,0,1,.388-2.131,5.7,5.7,0,0,1,1.143-1.806,5.362,5.362,0,0,1,1.814-1.331,5.422,5.422,0,0,1,2.211-.446,5.479,5.479,0,0,1,2.645.663,5.686,5.686,0,0,1,2.02,1.85,5.578,5.578,0,0,1,.694,1.615,8.038,8.038,0,0,1,.225,2.006v.306H117.77v0Zm12.745,4.682h-1.944v-10.8H130.4v1.247a3.272,3.272,0,0,1,1.107-1.062,3,3,0,0,1,1.447-.359v2.031a2.59,2.59,0,0,0-1.871.77,3.354,3.354,0,0,0-.564,2.165V91.23Zm5.789,0H134.36v-10.8h1.868v1.23a3.829,3.829,0,0,1,1.34-1.067,3.929,3.929,0,0,1,1.671-.339A4.191,4.191,0,0,1,142.5,81.5a5.154,5.154,0,0,1,1.132,3.575v6.153h-1.954V85.5a4.181,4.181,0,0,0-.637-2.55,2.763,2.763,0,0,0-4.081.148,6.034,6.034,0,0,0-.652,3.227V91.23h0Zm11.065-5.47a3.788,3.788,0,0,0,1.086,2.749,3.551,3.551,0,0,0,2.654,1.109,3.446,3.446,0,0,0,2.527-1.113,3.61,3.61,0,0,0,1.095-2.607,3.817,3.817,0,0,0-1.082-2.724,3.456,3.456,0,0,0-2.578-1.132,3.693,3.693,0,0,0-3.7,3.719Zm7.262,5.47V89.9a5.086,5.086,0,0,1-1.659,1.172,4.918,4.918,0,0,1-1.963.4,5.468,5.468,0,0,1-4.044-1.624,5.546,5.546,0,0,1-1.61-4.069,5.8,5.8,0,0,1,.4-2.162,5.375,5.375,0,0,1,1.149-1.8,5.3,5.3,0,0,1,1.778-1.261,5.667,5.667,0,0,1,2.208-.408,5.185,5.185,0,0,1,2.037.391,5.034,5.034,0,0,1,1.7,1.19V80.427H156.6v10.8h-1.966v0Zm4.879,0V82.194h-1.531V80.429h1.531v-3.5h1.935v3.5h1.531v1.766h-1.531V91.23ZM166.3,79.162h-1.926V76.933H166.3ZM164.379,91.23v-10.8H166.3v10.8Zm5.629-5.411a3.765,3.765,0,0,0,1.025,2.7A3.373,3.373,0,0,0,173.59,89.6a3.3,3.3,0,0,0,2.514-1.086,4.131,4.131,0,0,0,0-5.426,3.524,3.524,0,0,0-5.072.017,3.8,3.8,0,0,0-1.023,2.715Zm-2.014.022a5.866,5.866,0,0,1,.388-2.145,5.466,5.466,0,0,1,1.14-1.792,5.815,5.815,0,0,1,1.839-1.343,4.986,4.986,0,0,1,2.12-.474,5.473,5.473,0,0,1,4.007,1.669,5.875,5.875,0,0,1,1.222,1.837,5.4,5.4,0,0,1,.424,2.112,6.085,6.085,0,0,1-.4,2.159,5.776,5.776,0,0,1-2.963,3.207,5.193,5.193,0,0,1-2.183.466,5.507,5.507,0,0,1-2.19-.426,5.426,5.426,0,0,1-1.8-1.263A5.855,5.855,0,0,1,168.418,88a5.741,5.741,0,0,1-.424-2.159Zm14.756,5.389h-1.944v-10.8h1.868v1.23a3.857,3.857,0,0,1,1.34-1.067,3.94,3.94,0,0,1,1.671-.339,4.191,4.191,0,0,1,3.258,1.247,5.139,5.139,0,0,1,1.134,3.575v6.153h-1.957V85.5a4.182,4.182,0,0,0-.634-2.55,2.763,2.763,0,0,0-4.081.148,6,6,0,0,0-.655,3.227V91.23Zm11.068-5.47a3.776,3.776,0,0,0,1.086,2.749,3.551,3.551,0,0,0,2.654,1.109,3.451,3.451,0,0,0,2.527-1.113,3.62,3.62,0,0,0,1.092-2.607,3.8,3.8,0,0,0-1.082-2.724,3.451,3.451,0,0,0-2.578-1.132,3.693,3.693,0,0,0-3.7,3.719Zm7.262,5.47V89.9a5.131,5.131,0,0,1-1.662,1.172,4.908,4.908,0,0,1-1.96.4,5.474,5.474,0,0,1-4.045-1.624,5.544,5.544,0,0,1-1.607-4.069,5.86,5.86,0,0,1,.4-2.162,5.423,5.423,0,0,1,1.149-1.8,5.324,5.324,0,0,1,1.78-1.261,5.64,5.64,0,0,1,2.205-.408,5.212,5.212,0,0,1,2.041.391,5.1,5.1,0,0,1,1.7,1.19V80.427h1.963v10.8H201.08v0Zm4.222,0v-14.3h1.923v14.3Zm-109,18.316a6.027,6.027,0,0,0,.371,2.117,4.963,4.963,0,0,0,1.072,1.719,5.221,5.221,0,0,0,1.7,1.193,4.825,4.825,0,0,0,1.964.421,4.915,4.915,0,0,0,3.71-1.575,5.478,5.478,0,0,0,1.492-3.915,5.1,5.1,0,0,0-.357-1.89,5.616,5.616,0,0,0-2.791-2.944,5.141,5.141,0,0,0-3.979-.037,4.833,4.833,0,0,0-1.618,1.109,5.513,5.513,0,0,0-1.149,1.76,5.348,5.348,0,0,0-.412,2.044Zm-2.162-.017a7.269,7.269,0,0,1,.568-2.848,7.413,7.413,0,0,1,1.669-2.426,7.194,7.194,0,0,1,2.312-1.545,7.051,7.051,0,0,1,2.735-.526,7.366,7.366,0,0,1,6.762,4.488,7.4,7.4,0,0,1,.551,2.859,8.034,8.034,0,0,1-.474,2.8,6.881,6.881,0,0,1-1.41,2.3,7.572,7.572,0,0,1-2.482,1.8,7.221,7.221,0,0,1-2.969.61A6.965,6.965,0,0,1,96,114.592a6.907,6.907,0,0,1-1.385-2.3,8.1,8.1,0,0,1-.469-2.763Zm18.342,7.234h-1.944v-10.8h1.826v1.247a3.272,3.272,0,0,1,1.107-1.062,3,3,0,0,1,1.447-.359v2.031a2.59,2.59,0,0,0-1.871.77,3.335,3.335,0,0,0-.564,2.165v6.008Zm4,.863h2.072a3.032,3.032,0,0,0,1.183,1.152,3.453,3.453,0,0,0,1.671.4,3.6,3.6,0,0,0,2.642-.989,3.5,3.5,0,0,0,1-2.618v-.137A5.115,5.115,0,0,1,123.4,116.6a4.846,4.846,0,0,1-1.96.4,5.47,5.47,0,0,1-4.045-1.626,5.558,5.558,0,0,1-1.607-4.067,5.869,5.869,0,0,1,.4-2.163,5.49,5.49,0,0,1,1.149-1.8,5.324,5.324,0,0,1,1.78-1.261,5.64,5.64,0,0,1,2.205-.408,5.241,5.241,0,0,1,2.037.391,5.343,5.343,0,0,1,1.722,1.19v-1.306h1.944v9.01a6.3,6.3,0,0,1-1.461,4.417,5.19,5.19,0,0,1-4.025,1.595,5.592,5.592,0,0,1-3.173-.876,4.783,4.783,0,0,1-1.874-2.479Zm1.308-6.333a3.773,3.773,0,0,0,1.086,2.749,3.553,3.553,0,0,0,2.654,1.11,3.451,3.451,0,0,0,2.527-1.113,3.6,3.6,0,0,0,1.092-2.609,3.794,3.794,0,0,0-1.082-2.724,3.45,3.45,0,0,0-2.575-1.132,3.693,3.693,0,0,0-3.7,3.719Zm12.949,0a3.786,3.786,0,0,0,1.086,2.749,3.558,3.558,0,0,0,2.654,1.11,3.451,3.451,0,0,0,2.527-1.113,3.611,3.611,0,0,0,1.092-2.609,3.817,3.817,0,0,0-1.079-2.724,3.462,3.462,0,0,0-2.578-1.132,3.693,3.693,0,0,0-3.7,3.719Zm7.262,5.47v-1.326a5.115,5.115,0,0,1-1.662,1.171,4.845,4.845,0,0,1-1.96.4,5.47,5.47,0,0,1-4.045-1.626,5.558,5.558,0,0,1-1.607-4.067,5.808,5.808,0,0,1,.4-2.163,5.39,5.39,0,0,1,1.149-1.8,5.3,5.3,0,0,1,1.778-1.261,5.651,5.651,0,0,1,2.205-.408,5.19,5.19,0,0,1,2.041.391,5.065,5.065,0,0,1,1.7,1.19v-1.306h1.966v10.8h-1.968v0Zm6.165,0h-1.944v-10.8H144.1v1.23a3.852,3.852,0,0,1,1.34-1.065,3.929,3.929,0,0,1,1.671-.339,4.191,4.191,0,0,1,3.258,1.247,5.14,5.14,0,0,1,1.134,3.576v6.151h-1.957v-5.729a4.165,4.165,0,0,0-.637-2.552,2.764,2.764,0,0,0-4.08.148,6.011,6.011,0,0,0-.655,3.229v4.9ZM155.7,104.694h-1.923v-2.228H155.7Zm-1.923,12.068v-10.8H155.7v10.8Zm10.753,0h-7.462V115.19l5.213-7.464h-4.586v-1.766h6.54v1.994l-4.872,6.981h5.165v1.826h0Zm3.055-5.47a3.773,3.773,0,0,0,1.086,2.749,3.553,3.553,0,0,0,2.654,1.11,3.451,3.451,0,0,0,2.527-1.113,3.611,3.611,0,0,0,1.092-2.609,3.807,3.807,0,0,0-1.082-2.724,3.455,3.455,0,0,0-2.575-1.132,3.693,3.693,0,0,0-3.7,3.719Zm7.26,5.47v-1.326a5.149,5.149,0,0,1-1.662,1.171,4.858,4.858,0,0,1-1.96.4,5.47,5.47,0,0,1-4.045-1.626,5.558,5.558,0,0,1-1.607-4.067,5.869,5.869,0,0,1,.4-2.163,5.489,5.489,0,0,1,1.149-1.8,5.324,5.324,0,0,1,1.78-1.261,5.64,5.64,0,0,1,2.205-.408,5.212,5.212,0,0,1,2.041.391,5.1,5.1,0,0,1,1.7,1.19v-1.306h1.963v10.8h-1.963v0Zm4.881,0v-9.034h-1.531v-1.766h1.531v-3.5h1.932v3.5h1.531v1.766h-1.531v9.034Zm6.791-12.068h-1.923v-2.228h1.923Zm-1.923,12.068v-10.8h1.923v10.8Zm5.626-5.409a3.772,3.772,0,0,0,1.025,2.7,3.372,3.372,0,0,0,2.556,1.079,3.3,3.3,0,0,0,2.517-1.086,4.131,4.131,0,0,0,0-5.426,3.528,3.528,0,0,0-5.075.017,3.819,3.819,0,0,0-1.023,2.716Zm-2.014.022a5.889,5.889,0,0,1,.388-2.148,5.425,5.425,0,0,1,1.143-1.792,5.8,5.8,0,0,1,1.836-1.343,5,5,0,0,1,2.123-.472,5.459,5.459,0,0,1,4,1.669,5.788,5.788,0,0,1,1.222,1.837,5.391,5.391,0,0,1,.427,2.11,6.029,6.029,0,0,1-.4,2.16,5.777,5.777,0,0,1-2.963,3.207,5.194,5.194,0,0,1-2.183.467,5.513,5.513,0,0,1-2.187-.427,5.412,5.412,0,0,1-1.8-1.261,5.881,5.881,0,0,1-1.61-4.008Zm14.759,5.387H201.02v-10.8h1.865v1.23a3.88,3.88,0,0,1,1.34-1.065,3.978,3.978,0,0,1,1.674-.339,4.191,4.191,0,0,1,3.258,1.247,5.155,5.155,0,0,1,1.132,3.576v6.151h-1.954v-5.729a4.186,4.186,0,0,0-.637-2.552,2.766,2.766,0,0,0-4.081.148,6.044,6.044,0,0,0-.652,3.229v4.9h0Zm17.828,0h-1.935v-9.111h-1.286v-1.688H218.8v-.325a3.209,3.209,0,0,1,.926-2.5,3.982,3.982,0,0,1,2.76-.839v1.8h-.169a1.646,1.646,0,0,0-1.235.391,1.879,1.879,0,0,0-.373,1.314v.158h1.778v1.688h-1.69v9.111h0Zm4.5-5.409a3.772,3.772,0,0,0,1.025,2.7,3.378,3.378,0,0,0,2.559,1.079,3.292,3.292,0,0,0,2.514-1.086,4.131,4.131,0,0,0,0-5.426,3.528,3.528,0,0,0-5.075.017,3.819,3.819,0,0,0-1.023,2.716Zm-2.014.022a5.89,5.89,0,0,1,.391-2.148,5.467,5.467,0,0,1,1.14-1.792,5.816,5.816,0,0,1,1.839-1.343,4.985,4.985,0,0,1,2.12-.472,5.46,5.46,0,0,1,4.007,1.669,5.84,5.84,0,0,1,1.222,1.837,5.387,5.387,0,0,1,.424,2.11,6.093,6.093,0,0,1-.4,2.16,5.776,5.776,0,0,1-2.963,3.207,5.2,5.2,0,0,1-2.183.467,5.535,5.535,0,0,1-2.19-.427,5.412,5.412,0,0,1-1.8-1.261,5.873,5.873,0,0,1-1.183-1.85,5.7,5.7,0,0,1-.427-2.159Zm14.781,5.387H236.11v-10.8h1.826v1.247a3.272,3.272,0,0,1,1.107-1.062,3,3,0,0,1,1.447-.359v2.031a2.582,2.582,0,0,0-1.868.77,3.334,3.334,0,0,0-.567,2.165v6.008ZM94.036,138.172h1.857a2.708,2.708,0,0,0,.655,1.772,2.06,2.06,0,0,0,1.582.662,2.288,2.288,0,0,0,1.713-.662,2.444,2.444,0,0,0,.644-1.775,2.182,2.182,0,0,0-.474-1.5,4.51,4.51,0,0,0-1.974-.992q-.133-.033-.266-.07a4.526,4.526,0,0,1-2.6-1.578A3.592,3.592,0,0,1,94.629,133a3.684,3.684,0,0,1-.18-1.162,4.112,4.112,0,0,1,1.089-2.972,3.8,3.8,0,0,1,2.859-1.132,3.554,3.554,0,0,1,2.643,1.013,4.138,4.138,0,0,1,1.117,2.788h-1.933a2.065,2.065,0,0,0-.575-1.384,1.936,1.936,0,0,0-2.71.057,2.145,2.145,0,0,0-.537,1.508,1.9,1.9,0,0,0,.1.61,1.677,1.677,0,0,0,.3.531,3.652,3.652,0,0,0,1.806.865c.426.109.753.207.981.286a4.521,4.521,0,0,1,2.148,1.541,4.038,4.038,0,0,1,.731,2.426,4.7,4.7,0,0,1-1.18,3.339,4.061,4.061,0,0,1-3.12,1.264,3.909,3.909,0,0,1-2.972-1.213,4.536,4.536,0,0,1-1.162-3.191Zm10.868,4.122v-9.032h-1.53v-1.769h1.53V128h1.935v3.494h1.531v1.769h-1.531v9.032Zm6.331-5.468a3.776,3.776,0,0,0,1.089,2.749,3.553,3.553,0,0,0,2.654,1.11,3.456,3.456,0,0,0,2.527-1.113,3.621,3.621,0,0,0,1.092-2.609,3.807,3.807,0,0,0-1.082-2.724,3.456,3.456,0,0,0-2.578-1.132,3.547,3.547,0,0,0-2.612,1.079,3.587,3.587,0,0,0-1.089,2.64Zm7.265,5.468v-1.326a5.15,5.15,0,0,1-1.662,1.171,4.861,4.861,0,0,1-1.963.4,5.473,5.473,0,0,1-4.044-1.626,5.543,5.543,0,0,1-1.61-4.067,5.871,5.871,0,0,1,.4-2.163,5.636,5.636,0,0,1,2.929-3.056,5.668,5.668,0,0,1,2.205-.407,5.211,5.211,0,0,1,2.041.391,5.118,5.118,0,0,1,1.7,1.19v-1.308h1.963v10.8H118.5Zm6.167,0h-1.944v-10.8h1.865v1.231a3.909,3.909,0,0,1,1.34-1.068,3.954,3.954,0,0,1,1.674-.337,4.179,4.179,0,0,1,3.255,1.247,5.133,5.133,0,0,1,1.134,3.576v6.151h-1.954v-5.729a4.186,4.186,0,0,0-.637-2.552,2.764,2.764,0,0,0-4.081.149,6.005,6.005,0,0,0-.652,3.227v4.9Zm11.065-5.468a3.773,3.773,0,0,0,1.086,2.749,3.553,3.553,0,0,0,2.654,1.11A3.451,3.451,0,0,0,142,139.572a3.6,3.6,0,0,0,1.092-2.609,3.794,3.794,0,0,0-1.082-2.724,3.445,3.445,0,0,0-2.575-1.132,3.7,3.7,0,0,0-3.7,3.719Zm7.262,5.468v-1.326a5.115,5.115,0,0,1-1.662,1.171,4.845,4.845,0,0,1-1.96.4,5.47,5.47,0,0,1-4.045-1.626,5.553,5.553,0,0,1-1.607-4.067,5.808,5.808,0,0,1,.4-2.163,5.409,5.409,0,0,1,1.146-1.8,5.324,5.324,0,0,1,1.78-1.261,5.668,5.668,0,0,1,2.205-.407,5.24,5.24,0,0,1,2.037.391,5.3,5.3,0,0,1,1.722,1.19V128h1.944v14.295h-1.964Zm5.687-5.468a3.786,3.786,0,0,0,1.086,2.749,3.559,3.559,0,0,0,2.654,1.11,3.451,3.451,0,0,0,2.527-1.113,3.608,3.608,0,0,0,1.092-2.609,3.807,3.807,0,0,0-1.082-2.724,3.445,3.445,0,0,0-2.575-1.132,3.7,3.7,0,0,0-3.7,3.719Zm7.265,5.468v-1.326a5.161,5.161,0,0,1-1.665,1.171,4.846,4.846,0,0,1-1.96.4,5.47,5.47,0,0,1-4.045-1.626,5.553,5.553,0,0,1-1.607-4.067,5.808,5.808,0,0,1,.4-2.163,5.369,5.369,0,0,1,1.149-1.8A5.3,5.3,0,0,1,150,131.627a5.679,5.679,0,0,1,2.205-.407,5.2,5.2,0,0,1,2.041.391,5.129,5.129,0,0,1,1.7,1.19v-1.308h1.963v10.8h-1.965Zm6.184,0h-1.944v-10.8h1.826v1.247a3.272,3.272,0,0,1,1.107-1.062,2.981,2.981,0,0,1,1.447-.357v2.03a2.565,2.565,0,0,0-1.868.773,3.324,3.324,0,0,0-.567,2.163v6.007h0Zm5.311-5.468a3.786,3.786,0,0,0,1.086,2.749,3.559,3.559,0,0,0,2.654,1.11,3.451,3.451,0,0,0,2.527-1.113,3.6,3.6,0,0,0,1.092-2.609,3.805,3.805,0,0,0-1.079-2.724,3.456,3.456,0,0,0-2.578-1.132,3.7,3.7,0,0,0-3.7,3.719Zm7.262,5.468v-1.326a5.1,5.1,0,0,1-1.659,1.171,4.866,4.866,0,0,1-1.963.4,5.47,5.47,0,0,1-4.045-1.626,5.553,5.553,0,0,1-1.607-4.067,5.808,5.808,0,0,1,.4-2.163,5.369,5.369,0,0,1,1.149-1.8,5.3,5.3,0,0,1,1.778-1.261,5.69,5.69,0,0,1,2.205-.407,5.229,5.229,0,0,1,2.037.391,5.3,5.3,0,0,1,1.722,1.19V128h1.944v14.295H174.7Zm6.148-12.065h-1.923V128h1.923Zm-1.924,12.065v-10.8h1.923v10.8Zm10.753,0h-7.462v-1.572l5.213-7.462h-4.586v-1.769h6.54v2l-4.872,6.979h5.165v1.828h0Zm3.052-5.468a3.776,3.776,0,0,0,1.089,2.749,3.553,3.553,0,0,0,2.654,1.11A3.456,3.456,0,0,0,199,139.572a3.608,3.608,0,0,0,1.092-2.609,3.807,3.807,0,0,0-1.082-2.724,3.456,3.456,0,0,0-2.578-1.132,3.7,3.7,0,0,0-3.7,3.719Zm7.265,5.468v-1.326a5.149,5.149,0,0,1-1.662,1.171,4.861,4.861,0,0,1-1.963.4,5.473,5.473,0,0,1-4.044-1.626,5.541,5.541,0,0,1-1.607-4.067,5.869,5.869,0,0,1,.4-2.163,5.466,5.466,0,0,1,1.149-1.8,5.324,5.324,0,0,1,1.78-1.261,5.668,5.668,0,0,1,2.205-.407,5.211,5.211,0,0,1,2.041.391,5.118,5.118,0,0,1,1.7,1.19v-1.308h1.963v10.8h-1.961Zm4.876,0v-9.032h-1.528v-1.769h1.528V128h1.935v3.494h1.531v1.769h-1.531v9.032Zm6.794-12.065h-1.923V128h1.923Zm-1.923,12.065v-10.8h1.923v10.8Zm5.626-5.407a3.772,3.772,0,0,0,1.025,2.7,3.367,3.367,0,0,0,2.556,1.079,3.3,3.3,0,0,0,2.517-1.086,4.131,4.131,0,0,0,0-5.426,3.528,3.528,0,0,0-5.075.017A3.821,3.821,0,0,0,215.369,136.887Zm-2.014.02a5.876,5.876,0,0,1,.388-2.148,5.424,5.424,0,0,1,1.143-1.792,5.827,5.827,0,0,1,1.836-1.343,5,5,0,0,1,2.123-.471,5.579,5.579,0,0,1,2.18.421,5.816,5.816,0,0,1,3.045,3.083,5.413,5.413,0,0,1,.427,2.11,6.1,6.1,0,0,1-.4,2.16,5.776,5.776,0,0,1-2.963,3.207,5.194,5.194,0,0,1-2.183.467,5.534,5.534,0,0,1-2.19-.427,5.444,5.444,0,0,1-1.8-1.261,5.873,5.873,0,0,1-1.183-1.85,5.679,5.679,0,0,1-.424-2.157Zm14.759,5.387H226.17v-10.8h1.865v1.231a3.64,3.64,0,0,1,3.011-1.405,4.182,4.182,0,0,1,3.258,1.247,5.133,5.133,0,0,1,1.134,3.576v6.151h-1.954v-5.729a4.186,4.186,0,0,0-.637-2.552,2.764,2.764,0,0,0-4.081.149,6,6,0,0,0-.652,3.227v4.9ZM82.549,72.167h1.492v75.2H82.549Z" transform="translate(40.944 3.108)" fill="#1e447f" fill-rule="evenodd"/>
      </g>
    </g>
  </g>
</svg>
