<svg xmlns="http://www.w3.org/2000/svg" xmlns:xlink="http://www.w3.org/1999/xlink" width="611" height="618.678" viewBox="0 0 611 618.678">
  <defs>
    <clipPath id="clip-path">
      <rect id="Rectángulo_403307" data-name="Rectángulo 403307" width="305.302" height="299.793" fill="none"/>
    </clipPath>
  </defs>
  <g id="Grupo_1103027" data-name="Grupo 1103027" transform="translate(-494 -1948.529)">
    <g id="Grupo_1102010" data-name="Grupo 1102010" transform="translate(-17.212)">
      <g id="Grupo_1101986" data-name="Grupo 1101986" transform="translate(647.715 2102.35)">
        <g id="Grupo_1101985" data-name="Grupo 1101985" clip-path="url(#clip-path)">
          <path id="Trazado_885339" data-name="Trazado 885339" d="M136.372,0V28.085a121.784,121.784,0,0,1,67.911,28.547l19.84-19.84A149.676,149.676,0,0,0,136.372,0" transform="translate(30.153)" fill="#016835"/>
          <path id="Trazado_885340" data-name="Trazado 885340" d="M62.884,56.736a121.782,121.782,0,0,1,67.8-28.634V.012A149.679,149.679,0,0,0,43.046,36.9Z" transform="translate(13.119 0.002)" fill="#2d903a"/>
          <path id="Trazado_885341" data-name="Trazado 885341" d="M28.038,132.406A121.742,121.742,0,0,1,54.88,64.8L35,44.929A149.633,149.633,0,0,0,0,132.406Z" transform="translate(0 8.2)" fill="#226c2c"/>
          <path id="Trazado_885342" data-name="Trazado 885342" d="M56.708,203.841a121.8,121.8,0,0,1-28.331-65.726H.262a149.68,149.68,0,0,0,36.6,85.567Z" transform="translate(5.31 25.209)" fill="#38b449"/>
          <path id="Trazado_885343" data-name="Trazado 885343" d="M234.08,138.115a121.791,121.791,0,0,1-28.437,65.851L225.482,223.8A149.673,149.673,0,0,0,262.2,138.115Z" transform="translate(42.796 25.209)" fill="#99c2ae"/>
          <path id="Trazado_885344" data-name="Trazado 885344" d="M130.345,233.883A121.744,121.744,0,0,1,64.8,207.128L44.928,227a149.638,149.638,0,0,0,85.417,34.973Z" transform="translate(13.462 37.805)" fill="#99c2ae"/>
          <path id="Trazado_885345" data-name="Trazado 885345" d="M207.232,64.7a121.761,121.761,0,0,1,26.947,67.73h28.036a149.645,149.645,0,0,0-35.11-87.6Z" transform="translate(43.086 8.181)" fill="#cce1d7"/>
          <path id="Trazado_885346" data-name="Trazado 885346" d="M202.021,207.215a121.748,121.748,0,0,1-65.649,26.672v28.085A149.631,149.631,0,0,0,221.9,227.091Z" transform="translate(30.153 37.821)" fill="#016835"/>
        </g>
      </g>
      <g id="Grupo_1101988" data-name="Grupo 1101988" transform="translate(776.935 2031.445) rotate(-90)">
        <path id="Trazado_885347" data-name="Trazado 885347" d="M30.029,6.493,23.536,0H.812L0,6.493l.812,6.493H23.536Z" transform="translate(2.435 35.71)" fill="#afe1b6"/>
        <path id="Trazado_885348" data-name="Trazado 885348" d="M39.768,6.493,33.275,0H.812L0,6.493l.812,6.493H33.275Z" transform="translate(2.435 19.478)" fill="#afe1b6"/>
        <path id="Trazado_885349" data-name="Trazado 885349" d="M49.507,6.493,43.014,0H.812L0,6.493l.812,6.493h42.2Z" transform="translate(2.435 3.246)" fill="#afe1b6"/>
        <g id="Grupo_1101987" data-name="Grupo 1101987">
          <path id="Trazado_885350" data-name="Trazado 885350" d="M3.246,51.942H0V48.7L.812,42.2,0,35.71V32.464l.812-6.493L0,19.478V16.232L.812,9.739,0,3.246V0H3.246V3.246L2.435,9.739l.812,6.493v3.246l-.812,6.493.812,6.493V35.71L2.435,42.2,3.246,48.7Z" fill="#2d903a"/>
          <path id="Trazado_885351" data-name="Trazado 885351" d="M0,3.246H3.246V0H0Z" transform="translate(22.724 40.579)" fill="#38b449"/>
          <path id="Trazado_885352" data-name="Trazado 885352" d="M0,3.246H3.246V0H0Z" transform="translate(32.463 24.348)" fill="#38b449"/>
          <path id="Trazado_885353" data-name="Trazado 885353" d="M0,3.246H3.246V0H0Z" transform="translate(42.202 8.116)" fill="#38b449"/>
        </g>
        <path id="Trazado_885354" data-name="Trazado 885354" d="M0,12.985H3.246V0H0Z" transform="translate(0 35.71)" fill="#38b449"/>
        <path id="Trazado_885355" data-name="Trazado 885355" d="M0,12.985H3.246V0H0Z" transform="translate(0 19.478)" fill="#38b449"/>
        <path id="Trazado_885356" data-name="Trazado 885356" d="M0,12.985H3.246V0H0Z" transform="translate(0 3.246)" fill="#38b449"/>
      </g>
      <path id="Trazado_885357" data-name="Trazado 885357" d="M-3589.69-9462.583V-9551.3" transform="translate(4380.627 11592.725)" fill="none" stroke="#2d903a" stroke-width="2"/>
      <path id="Trazado_885385" data-name="Trazado 885385" d="M-3589.69-9551.3v88.721" transform="translate(4405.621 11925.093)" fill="none" stroke="#2d903a" stroke-width="2"/>
      <path id="Trazado_885358" data-name="Trazado 885358" d="M-3635.8-9551.3h93.747" transform="translate(4380.515 11592.725)" fill="none" stroke="#2d903a" stroke-width="2"/>
      <path id="Trazado_885386" data-name="Trazado 885386" d="M-3635.8-9551.3h93.747" transform="translate(4405.64 12013.813)" fill="none" stroke="#2d903a" stroke-width="2"/>
      <text id="Ahorro_energético" data-name="Ahorro energético" transform="translate(798.652 1965.529)" fill="#12263f" font-size="16" font-family="Roboto-Bold, Roboto" font-weight="700"><tspan x="-65.051" y="0">Ahorro energético</tspan></text>
      <text id="EFICIENCIA_ENERGÉTICA" data-name="EFICIENCIA
ENERGÉTICA" transform="translate(804.235 2245.371)" fill="#226c2c" font-size="20" font-family="Roboto-Black, Roboto" font-weight="800"><tspan x="-52.671" y="0">EFICIENCIA</tspan><tspan x="-59.844" y="27">ENERGÉTICA</tspan></text>
      <text id="Responsabilidad_social_corporativa" data-name="Responsabilidad
social corporativa" transform="translate(815.921 2545.207)" fill="#12263f" font-size="16" font-family="Roboto-Bold, Roboto" font-weight="700"><tspan x="-59.625" y="0">Responsabilidad</tspan><tspan x="-64.16" y="18">social corporativa</tspan></text>
      <text id="Cuidado_del_medio_ambiente" data-name="Cuidado del
medio ambiente" transform="translate(996.212 2060)" fill="#12263f" font-size="16" font-family="Roboto-Bold, Roboto" font-weight="700"><tspan x="-42.605" y="0">Cuidado del</tspan><tspan x="-58.066" y="18">medio ambiente</tspan></text>
      <text id="Ahorro_económico" data-name="Ahorro económico" transform="translate(1045.212 2385.59)" fill="#12263f" font-size="16" font-family="Roboto-Bold, Roboto" font-weight="700"><tspan x="-66.359" y="0">Ahorro económico</tspan></text>
      <text id="Disminución_de_emisiones_de_CO2" data-name="Disminución de
emisiones de CO2" transform="translate(579.962 2379.678)" fill="#12263f" font-size="16" font-family="Roboto-Bold, Roboto" font-weight="700"><tspan x="-55.559" y="0">Disminución de</tspan><tspan x="-63.298" y="18">emisiones de CO</tspan><tspan y="18" font-size="9.333" baseline-shift="-5.33279994943018">2</tspan></text>
      <text id="Dismunición_en_el_recibo_de_la_luz" data-name="Dismunición
en el recibo de 
la luz" transform="translate(1067.212 2249.938)" fill="#12263f" font-size="16" font-family="Roboto-Bold, Roboto" font-weight="700"><tspan x="-44.734" y="0">Dismunición</tspan><tspan x="-54.613" y="18">en el recibo de </tspan><tspan x="-19.07" y="36">la luz</tspan></text>
      <text id="Calcular_el_ahorro_energético" data-name="Calcular el 
ahorro 
energético" transform="translate(552.212 2249.938)" fill="#12263f" font-size="16" font-family="Roboto-Bold, Roboto" font-weight="700"><tspan x="-40.051" y="0">Calcular el </tspan><tspan x="-25.5" y="18">ahorro </tspan><tspan x="-38.457" y="36">energético</tspan></text>
      <g id="Grupo_1101989" data-name="Grupo 1101989" transform="translate(964.513 1981.944)">
        <path id="Trazado_885359" data-name="Trazado 885359" d="M128.184,13.285,124.892,8h-4.636a6.044,6.044,0,0,0-5.184,2.935L112,15.928l10.9,6.936Z" transform="translate(-98.128 -8.001)" fill="#016835"/>
        <path id="Trazado_885360" data-name="Trazado 885360" d="M236.736,17.526l-3.814-6.553A5.583,5.583,0,0,0,227.968,8h-11.88L225,24.846l-4.954,2.973L234.787,29.5l7.053-14.559Z" transform="translate(-189.323 -8.001)" fill="#38b449"/>
        <path id="Trazado_885361" data-name="Trazado 885361" d="M347.891,176,336,182.937l4.954,8.918h7.927l2.071-3.344a6.044,6.044,0,0,0,.141-6.113Z" transform="translate(-294.383 -155.192)" fill="#016835"/>
        <path id="Trazado_885362" data-name="Trazado 885362" d="M209.909,268.955V264L200,274.9l9.909,12.882v-3.964h7.927a5.4,5.4,0,0,0,4.954-2.973l6.936-11.891Z" transform="translate(-175.228 -232.293)" fill="#38b449"/>
        <path id="Trazado_885363" data-name="Trazado 885363" d="M62.933,312l-2.413,5.561,3.015,5.223a6.287,6.287,0,0,0,5.343,3.089h3.964V312Z" transform="translate(-53.024 -274.347)" fill="#016835"/>
        <path id="Trazado_885364" data-name="Trazado 885364" d="M21.8,148.882,15.854,136,0,136.992l5.667,3.514-3.685,7.386a6.131,6.131,0,0,0,0,5.945L7.5,163.361l2.063-3.579L16.922,147Z" transform="translate(0 -120.147)" fill="#38b449"/>
      </g>
      <path id="Trazado_885365" data-name="Trazado 885365" d="M-3457.051-9420.57l68.422-65.318h85.652" transform="translate(4348.263 11579)" fill="none" stroke="#2d903a" stroke-width="2"/>
      <path id="Trazado_885384" data-name="Trazado 885384" d="M-3452.089-9485.686l63.46,65.115h85.652" transform="translate(4358.263 11816.967)" fill="none" stroke="#2d903a" stroke-width="2"/>
      <path id="Trazado_885393" data-name="Trazado 885393" d="M-3302.978-9485.686l-63.46,65.115h-85.652" transform="translate(4021.978 11833.055)" fill="none" stroke="#2d903a" stroke-width="2"/>
      <g id="Grupo_1101991" data-name="Grupo 1101991" transform="translate(1037.212 2163.371)">
        <g id="Grupo_1101990" data-name="Grupo 1101990">
          <path id="Trazado_885366" data-name="Trazado 885366" d="M10.172,17.744l3.5,2.021a1,1,0,0,0,1-1.731l-3.5-2.021a1,1,0,0,0-1,1.731Z" transform="translate(-6.213 -2)" fill="#016835"/>
          <path id="Trazado_885367" data-name="Trazado 885367" d="M12.254,30.5a1,1,0,0,0-1-1H7.213a1,1,0,1,0,0,2h4.041A1,1,0,0,0,12.254,30.5Z" transform="translate(-6.213 -2)" fill="#016835"/>
          <path id="Trazado_885368" data-name="Trazado 885368" d="M14.028,41.134l-3.5,2.021a1,1,0,1,0,1,1.732l3.5-2.021a1,1,0,1,0-1-1.732Z" transform="translate(-6.213 -2)" fill="#016835"/>
          <path id="Trazado_885369" data-name="Trazado 885369" d="M19.611,7.314l2.021,3.5A1,1,0,0,0,23,11.18a1.228,1.228,0,0,0,.271-1.718l-2.021-3.5A1,1,0,0,0,19.881,5.6a1.228,1.228,0,0,0-.271,1.718Z" transform="translate(-6.213 -2)" fill="#016835"/>
          <path id="Trazado_885370" data-name="Trazado 885370" d="M34,8.044a1,1,0,0,0,1-1V3a1,1,0,0,0-2,0V7.044A1,1,0,0,0,34,8.044Z" transform="translate(-6.213 -2)" fill="#016835"/>
          <path id="Trazado_885371" data-name="Trazado 885371" d="M45,11.184a1,1,0,0,0,1.366-.366l2.021-3.5a1.234,1.234,0,0,0-.271-1.726,1,1,0,0,0-1.366.366l-2.021,3.5A1.234,1.234,0,0,0,45,11.184Z" transform="translate(-6.213 -2)" fill="#016835"/>
          <path id="Trazado_885372" data-name="Trazado 885372" d="M54.329,19.77l3.5-2.021a1,1,0,1,0-1-1.732l-3.5,2.021a1,1,0,1,0,1,1.732Z" transform="translate(-6.213 -2)" fill="#016835"/>
          <path id="Trazado_885373" data-name="Trazado 885373" d="M60.787,29.5H56.746a1,1,0,0,0,0,2h4.041a1,1,0,0,0,0-2Z" transform="translate(-6.213 -2)" fill="#016835"/>
          <path id="Trazado_885374" data-name="Trazado 885374" d="M57.472,43.159l-3.5-2.02a1,1,0,0,0-1,1.732l3.5,2.02a1,1,0,1,0,1-1.732Z" transform="translate(-6.213 -2)" fill="#016835"/>
          <path id="Trazado_885375" data-name="Trazado 885375" d="M26.617,55.5H42.1v2.118H26.617Z" transform="translate(-6.213 -2)" fill="#016835"/>
          <path id="Trazado_885376" data-name="Trazado 885376" d="M26.617,59.752a2.537,2.537,0,0,0,2.54,2.54h10.4a2.537,2.537,0,0,0,2.54-2.54v-.133H26.617Z" transform="translate(-6.213 -2)" fill="#016835"/>
          <path id="Trazado_885377" data-name="Trazado 885377" d="M34.355,66A4.57,4.57,0,0,0,38.842,62.3H29.869A4.568,4.568,0,0,0,34.355,66Z" transform="translate(-6.213 -2)" fill="#016835"/>
          <path id="Trazado_885378" data-name="Trazado 885378" d="M52.757,28.632a18.489,18.489,0,1,0-30.67,15.63,8.946,8.946,0,0,1,3.11,6.68v.24h1.42V53.5H42.1v-2.32h1.42v-.24a8.922,8.922,0,0,1,3.09-6.67,18.458,18.458,0,0,0,6.15-15.64Zm-13.48,5.98h-1.52v16.57h-2V34.612h-2.81v16.57h-2V34.612h-1.52a3.461,3.461,0,0,1-3.46-3.46,3.46,3.46,0,1,1,6.92,0v1.46h2.94v-1.46a3.46,3.46,0,1,1,3.45,3.46Z" transform="translate(-6.213 -2)" fill="#016835"/>
          <path id="Trazado_885379" data-name="Trazado 885379" d="M40.745,31.155a1.46,1.46,0,1,0-2.921,0v1.457h1.457a1.462,1.462,0,0,0,1.464-1.457Z" transform="translate(-6.213 -2)" fill="#016835"/>
          <path id="Trazado_885380" data-name="Trazado 885380" d="M28.387,30.12a1.465,1.465,0,0,0,1.045,2.492h1.456V31.155a1.464,1.464,0,0,0-2.5-1.035Z" transform="translate(-6.213 -2)" fill="#016835"/>
        </g>
      </g>
      <path id="Trazado_885381" data-name="Trazado 885381" d="M-3393.112-9294.434h53.061" transform="translate(4322.958 11537)" fill="none" stroke="#016835" stroke-width="2"/>
      <path id="Trazado_885396" data-name="Trazado 885396" d="M-3340.051-9294.434h-53.061" transform="translate(4017.581 11561)" fill="none" stroke="#016835" stroke-width="2"/>
      <path id="Trazado_885382" data-name="Trazado 885382" d="M-3332.051-9340.115v94.742" transform="translate(4315.343 11535.311)" fill="none" stroke="#016835" stroke-width="2"/>
      <path id="Trazado_885395" data-name="Trazado 885395" d="M-3332.051-9340.115v94.742" transform="translate(3953.051 11559.311)" fill="none" stroke="#016835" stroke-width="2"/>
      <g id="Grupo_1101993" data-name="Grupo 1101993" transform="translate(1004.669 2310.937)">
        <g id="Grupo_1101992" data-name="Grupo 1101992">
          <path id="Trazado_885383" data-name="Trazado 885383" d="M65.831,81.485a1.467,1.467,0,0,0,0,2.934,2.109,2.109,0,1,1,0,4.218h-2.3c-.205-6.131-3.339-11.85-8.879-16.163a34.212,34.212,0,0,0-21-6.791,37.6,37.6,0,0,0-13.792,2.662,8.525,8.525,0,0,0-6.57-3.06,1.467,1.467,0,0,0-1.467,1.467v6.436A24.677,24.677,0,0,0,6.157,80H3.489A3.494,3.494,0,0,0,0,83.492V94.2A3.493,3.493,0,0,0,3.489,97.69h2.22a25.554,25.554,0,0,0,11.075,11.083v5.241c0,2.283,2.387,4.071,5.436,4.071h2.315c3.048,0,5.436-1.788,5.436-4.071V112.7a38.264,38.264,0,0,0,7.359,0v1.314c0,2.283,2.388,4.071,5.436,4.071h2.315c3.048,0,5.436-1.788,5.436-4.071v-5.241c7.372-3.973,12.039-10.245,12.884-17.2h2.433a5.043,5.043,0,1,0,0-10.086ZM14.324,86.541a1.339,1.339,0,0,1-.223.182,1.539,1.539,0,0,1-.253.135,1.606,1.606,0,0,1-.274.083,1.419,1.419,0,0,1-.287.029A1.466,1.466,0,0,1,11.82,85.5a1.547,1.547,0,0,1,.028-.287,1.487,1.487,0,0,1,.085-.275,1.4,1.4,0,0,1,.135-.253,1.452,1.452,0,0,1,1.506-.624,1.546,1.546,0,0,1,.526.218,1.436,1.436,0,0,1,.223.183,1.462,1.462,0,0,1,.4.751,1.42,1.42,0,0,1,.029.287A1.477,1.477,0,0,1,14.324,86.541Zm19.326,1.539a5.309,5.309,0,0,1,1.467,10.412v1.94a1.467,1.467,0,0,1-2.934,0v-1.94a5.318,5.318,0,0,1-3.843-5.1,1.467,1.467,0,0,1,2.934,0,2.376,2.376,0,1,0,2.376-2.376A5.309,5.309,0,0,1,32.182,80.6v-1.94a1.467,1.467,0,1,1,2.934,0V80.6a5.318,5.318,0,0,1,3.843,5.1,1.467,1.467,0,1,1-2.934,0,2.376,2.376,0,1,0-2.376,2.376Zm7.712-14.3a1.465,1.465,0,0,1-1.8,1.04,23.283,23.283,0,0,0-11.833,0,1.467,1.467,0,1,1-.755-2.835,26.21,26.21,0,0,1,13.344,0A1.467,1.467,0,0,1,41.361,73.784Z" transform="translate(0 -65.285)" fill="#99c2ae"/>
        </g>
      </g>
      <g id="Grupo_1102007" data-name="Grupo 1102007" transform="translate(789.659 2472.485)">
        <g id="Grupo_1101996" data-name="Grupo 1101996" transform="translate(41.973 24.698)">
          <g id="Grupo_1101995" data-name="Grupo 1101995" transform="translate(0 0)">
            <path id="Trazado_885387" data-name="Trazado 885387" d="M402.665,273.32h-4.171a10.849,10.849,0,0,1,.657,3.729v15.763a4.648,4.648,0,0,1-.268,1.557h6.895a4.676,4.676,0,0,0,4.671-4.671V281.1A7.794,7.794,0,0,0,402.665,273.32Z" transform="translate(-398.494 -273.32)" fill="#016835"/>
          </g>
        </g>
        <g id="Grupo_1101998" data-name="Grupo 1101998" transform="translate(0 24.698)">
          <g id="Grupo_1101997" data-name="Grupo 1101997" transform="translate(0 0)">
            <path id="Trazado_885388" data-name="Trazado 885388" d="M11.3,277.05a10.848,10.848,0,0,1,.657-3.729H7.785A7.794,7.794,0,0,0,0,281.106V289.7a4.676,4.676,0,0,0,4.671,4.671h6.9a4.649,4.649,0,0,1-.268-1.557Z" transform="translate(0 -273.321)" fill="#016835"/>
          </g>
        </g>
        <g id="Grupo_1102000" data-name="Grupo 1102000" transform="translate(14.412 20.642)">
          <g id="Grupo_1101999" data-name="Grupo 1101999">
            <path id="Trazado_885389" data-name="Trazado 885389" d="M154.149,234.815h-9.535a7.794,7.794,0,0,0-7.785,7.785v15.763a1.557,1.557,0,0,0,1.557,1.557h21.99a1.557,1.557,0,0,0,1.557-1.557V242.6A7.794,7.794,0,0,0,154.149,234.815Z" transform="translate(-136.829 -234.815)" fill="#016835"/>
          </g>
        </g>
        <g id="Grupo_1102002" data-name="Grupo 1102002" transform="translate(17.602)">
          <g id="Grupo_1102001" data-name="Grupo 1102001" transform="translate(0 0)">
            <path id="Trazado_885390" data-name="Trazado 885390" d="M176.476,38.84a9.361,9.361,0,1,0,9.362,9.362A9.373,9.373,0,0,0,176.476,38.84Z" transform="translate(-167.114 -38.84)" fill="#016835"/>
          </g>
        </g>
        <g id="Grupo_1102004" data-name="Grupo 1102004" transform="translate(3.523 8.726)">
          <g id="Grupo_1102003" data-name="Grupo 1102003">
            <path id="Trazado_885391" data-name="Trazado 885391" d="M40.445,121.689a7,7,0,1,0,7,7A7.01,7.01,0,0,0,40.445,121.689Z" transform="translate(-33.443 -121.689)" fill="#016835"/>
          </g>
        </g>
        <g id="Grupo_1102006" data-name="Grupo 1102006" transform="translate(36.403 8.726)">
          <g id="Grupo_1102005" data-name="Grupo 1102005">
            <path id="Trazado_885392" data-name="Trazado 885392" d="M352.609,121.689a7,7,0,1,0,7,7A7.01,7.01,0,0,0,352.609,121.689Z" transform="translate(-345.607 -121.689)" fill="#016835"/>
          </g>
        </g>
      </g>
      <g id="Grupo_1102009" data-name="Grupo 1102009" transform="translate(542.309 2316.877)">
        <circle id="Elipse_11632" data-name="Elipse 11632" cx="4.368" cy="4.368" r="4.368" transform="translate(0 34.986)" fill="#99c2ae"/>
        <circle id="Elipse_11633" data-name="Elipse 11633" cx="3.33" cy="3.33" r="3.33" transform="translate(36.594 17.436)" fill="#99c2ae"/>
        <path id="Trazado_885394" data-name="Trazado 885394" d="M45.129,55.264a13.164,13.164,0,0,0-9.942-21.485,12.826,12.826,0,0,0-8.06,2.874,9.048,9.048,0,0,0-16.3,4.915h-.118a10.761,10.761,0,0,0-8.793,16.89A10.917,10.917,0,0,0,5.4,61.689a10.958,10.958,0,0,0-.717,3.9A10.71,10.71,0,0,0,15.3,76.368,10.54,10.54,0,0,0,23.64,72.26,13.709,13.709,0,0,0,35.187,78.8a13.556,13.556,0,0,0,9.725-4.127,13.938,13.938,0,0,0,.217-19.41ZM23.4,58.051a5.182,5.182,0,0,1-4.1,1.858,6.2,6.2,0,1,1,3.466-11.337,1.434,1.434,0,1,1-1.606,2.377A3.33,3.33,0,1,0,19.3,57.04a2.414,2.414,0,0,0,1.661-.583,2.387,2.387,0,0,0,.241-.249,1.434,1.434,0,0,1,2.2,1.843Zm1.592-4.285a6.2,6.2,0,1,1,6.2,6.2A6.205,6.205,0,0,1,24.99,53.766ZM39.795,70.2c-1.084.014-1.875.02-2.457.02a5.614,5.614,0,0,1-1.8-.1,1.481,1.481,0,0,1-.949-.965c-.233-.758.148-1.257.63-1.888.375-.491,1.073-1.4,2.243-3.077a3.608,3.608,0,0,0,.553-1.058l.01-.082a.468.468,0,0,0-.923-.032,1.434,1.434,0,0,1-2.815-.553,3.337,3.337,0,0,1,6.61.645,1.443,1.443,0,0,1-.012.182l-.037.288a1.432,1.432,0,0,1-.026.142,6.139,6.139,0,0,1-1.012,2.112c-.414.591-.77,1.091-1.076,1.512l1.025-.011h.018a1.434,1.434,0,0,1,.018,2.868Z" transform="translate(8.736 -33)" fill="#99c2ae"/>
      </g>
      <path id="Trazado_885397" data-name="Trazado 885397" d="M34.344,0H7.156A5.161,5.161,0,0,0,2,5.156V39.844A5.161,5.161,0,0,0,7.156,45H34.344A5.161,5.161,0,0,0,39.5,39.844V5.156A5.161,5.161,0,0,0,34.344,0ZM16.587,35.1A1.405,1.405,0,1,1,14.6,37.088l-1.35-1.348-1.35,1.35A1.407,1.407,0,0,1,9.913,35.1l1.348-1.348L9.911,32.4A1.407,1.407,0,1,1,11.9,30.411l1.35,1.35,1.35-1.35A1.407,1.407,0,1,1,16.589,32.4l-1.35,1.35Zm-.994-11.194h-.937v.938a1.406,1.406,0,0,1-2.812,0v-.937h-.937a1.406,1.406,0,0,1,0-2.812h.938v-.937a1.406,1.406,0,0,1,2.813,0v.938h.938a1.406,1.406,0,0,1,0,2.813Zm15,13.594H25.906a1.406,1.406,0,0,1,0-2.812h4.688a1.406,1.406,0,0,1,0,2.813Zm0-4.687H25.906a1.406,1.406,0,0,1,0-2.812h4.688a1.406,1.406,0,0,1,0,2.813Zm0-8.437H25.906a1.406,1.406,0,0,1,0-2.812h4.688a1.406,1.406,0,0,1,0,2.813Zm3.281-12.656A3.285,3.285,0,0,1,30.594,15H10.906a3.285,3.285,0,0,1-3.281-3.281V8.906a3.285,3.285,0,0,1,3.281-3.281H30.594a3.285,3.285,0,0,1,3.281,3.281Z" transform="translate(531.462 2182.371)" fill="#38b449"/>
      <text id="Desarrollo_sostenible" data-name="Desarrollo
sostenible" transform="translate(589.823 2076.844)" fill="#12263f" font-size="16" font-family="Roboto-Bold, Roboto" font-weight="700"><tspan x="-36.91" y="0">Desarrollo</tspan><tspan x="-37.328" y="18">sostenible</tspan></text>
      <path id="Trazado_885398" data-name="Trazado 885398" d="M-3302.978-9420.57l-68.422-65.318h-85.652" transform="translate(3997.801 11595.844)" fill="none" stroke="#2d903a" stroke-width="2"/>
      <path id="Trazado_885399" data-name="Trazado 885399" d="M23.928,38.628,41.921,24.039,59.914,38.628v3.109a3.131,3.131,0,0,0-2.136,2.968,2.2,2.2,0,0,1-3.063,2.014V43.74A2.606,2.606,0,0,0,52.167,41.1H42.929a2.606,2.606,0,0,0-2.549,2.645V66.8H26.344a2.417,2.417,0,0,1-2.415-2.415Zm10.855,5.649H29.841a2.1,2.1,0,0,0-2.094,2.1v8.814a2.1,2.1,0,0,0,2.094,2.094h4.942a2.1,2.1,0,0,0,2.094-2.094V46.375A2.1,2.1,0,0,0,34.783,44.277ZM31.356,55.371H29.841a.183.183,0,0,1-.182-.182V51.738h1.7Zm-1.7-5.545V46.375a.184.184,0,0,1,.182-.185h1.515v3.636Zm3.609-3.636h1.515a.184.184,0,0,1,.182.185v3.451h-1.7Zm1.7,5.548v3.451a.182.182,0,0,1-.182.182H33.268V51.738ZM30.9,20.648l-4.645,3.766V19.638a.683.683,0,0,1,.683-.683h3.279a.683.683,0,0,1,.683.683ZM44.319,66.8H42.293V43.74a.69.69,0,0,1,.637-.733h9.238a.69.69,0,0,1,.637.733v1.753a3.129,3.129,0,0,0-3.188.761l-2.622,2.622a3.129,3.129,0,0,0,0,4.425,2.191,2.191,0,0,1-1.548,3.739,3.13,3.13,0,0,0-3.129,3.129v3.706a3.131,3.131,0,0,0,2,2.921ZM43.331,52.5v2.749a.956.956,0,1,0,1.912,0V52.5a.956.956,0,0,0-1.912,0ZM67.673,35.929l-2.764,3.408a.683.683,0,0,1-.96.1L41.921,21.578,19.894,39.438a.683.683,0,0,1-.961-.1l-2.764-3.408a.683.683,0,0,1,.1-.961l23.808-19.3a2.881,2.881,0,0,1,3.659-.025L67.573,34.969a.683.683,0,0,1,.1.961ZM77.1,57.675a4.009,4.009,0,0,0,2.98,1.277,1.216,1.216,0,0,1,1.217,1.217v3.706a1.216,1.216,0,0,1-1.217,1.217,4.1,4.1,0,0,0-2.9,7,1.219,1.219,0,0,1,0,1.723l-2.62,2.62a1.219,1.219,0,0,1-1.723,0,4.1,4.1,0,0,0-7,2.9,1.216,1.216,0,0,1-1.217,1.217H60.908a1.216,1.216,0,0,1-1.217-1.217,4.1,4.1,0,0,0-7-2.9,1.217,1.217,0,0,1-1.721,0l-2.622-2.62a1.219,1.219,0,0,1,0-1.723,4.1,4.1,0,0,0-2.9-7,1.217,1.217,0,0,1-1.217-1.217V60.169a1.217,1.217,0,0,1,1.217-1.217,4.1,4.1,0,0,0,2.9-7,1.217,1.217,0,0,1,0-1.721l2.622-2.622a1.217,1.217,0,0,1,1.721,0,4.1,4.1,0,0,0,7-2.9,1.217,1.217,0,0,1,1.217-1.217h3.706a1.217,1.217,0,0,1,1.217,1.217,4.124,4.124,0,0,0,.34,1.662q-.269.183-.533.376a18.161,18.161,0,0,0-5.665,6.822,8.9,8.9,0,1,0,11.695,8.456q0-.3-.02-.594a18.354,18.354,0,0,0,5.45-3.754ZM60.5,60.7a.5.5,0,0,1-.384-.524A16.381,16.381,0,0,1,80.065,45.525a.545.545,0,0,1,.424.578A16.381,16.381,0,0,1,60.5,60.7Zm9.235-8.353c-2.944,2.17-6.63,4.856-6.63,4.856a.956.956,0,1,0,1.126,1.545s3.69-2.69,6.638-4.862a.956.956,0,1,0-1.134-1.539Z" transform="translate(541.168 1979.289)" fill="#226c2c" fill-rule="evenodd"/>
    </g>
  </g>
</svg>
