<svg xmlns="http://www.w3.org/2000/svg" xmlns:xlink="http://www.w3.org/1999/xlink" width="610" height="409" viewBox="0 0 610 409">
  <defs>
    <clipPath id="clip-path">
      <rect id="Rectángulo_402105" data-name="Rectángulo 402105" width="335.001" height="384.603" fill="none"/>
    </clipPath>
  </defs>
  <g id="Grupo_1103043" data-name="Grupo 1103043" transform="translate(-547.949 -6801.009)">
    <rect id="Rectángulo_402126" data-name="Rectángulo 402126" width="610" height="409" rx="16" transform="translate(547.949 6801.009)" fill="#fff"/>
    <g id="Grupo_1100280" data-name="Grupo 1100280" transform="translate(685 6813.208)">
      <g id="Grupo_1100348" data-name="Grupo 1100348">
        <path id="Trazado_882046" data-name="Trazado 882046" d="M119.76,0,88.388,18.113V54.343L119.76,72.456l31.375-18.113V18.113Z" transform="translate(49.663 99)" fill="#923615"/>
        <path id="Trazado_882071" data-name="Trazado 882071" d="M119.76,0,88.388,18.113V54.343L119.76,72.456l31.375-18.113V18.113Z" transform="translate(49.663 217)" fill="#38b449"/>
        <path id="Trazado_882052" data-name="Trazado 882052" d="M174.312,69.85l0,36.229,31.373,18.111,31.376-18.115,0-36.229-31.38-18.115Z" transform="translate(194.959 -57.081) rotate(60)" fill="#fabca7"/>
        <path id="Trazado_882074" data-name="Trazado 882074" d="M174.312,69.85l0,36.229,31.373,18.111,31.376-18.115,0-36.229-31.38-18.115Z" transform="translate(194.959 -0.081) rotate(60)" fill="#8eb7cc"/>
        <path id="Trazado_882072" data-name="Trazado 882072" d="M174.312,69.85l0,36.229,31.373,18.111,31.376-18.115,0-36.229-31.38-18.115Z" transform="translate(90.959 -57.081) rotate(60)" fill="#c3471c"/>
        <path id="Trazado_882073" data-name="Trazado 882073" d="M174.312,69.85l0,36.229,31.373,18.111,31.376-18.115,0-36.229-31.38-18.115Z" transform="translate(90.959 -0.081) rotate(60)" fill="#226c2c"/>
        <path id="Trazado_882064" data-name="Trazado 882064" d="M44.5,70.063,105.9,34.609V31.228L41.565,68.374Z" transform="translate(23.354 17.546)" fill="#12263f"/>
        <path id="Trazado_882065" data-name="Trazado 882065" d="M134.192,34.546l63.121,36.443,2.933-1.693L134.192,31.16Z" transform="translate(75.398 17.508)" fill="#12263f"/>
        <path id="Trazado_882066" data-name="Trazado 882066" d="M18.181,100.9l-2.93-1.691v74.45l2.93-1.693Z" transform="translate(8.569 55.742)" fill="#12263f"/>
        <path id="Trazado_882067" data-name="Trazado 882067" d="M199.939,173.435l2.932,1.691V100.341l-2.932,1.692Z" transform="translate(112.339 56.379)" fill="#12263f"/>
        <path id="Trazado_882068" data-name="Trazado 882068" d="M106.984,228.105l-64.252-37.1L39.8,192.7l67.182,38.787Z" transform="translate(22.363 107.321)" fill="#12263f"/>
        <path id="Trazado_882069" data-name="Trazado 882069" d="M196.682,191.681l-62.433,36.045v3.383l65.363-37.736Z" transform="translate(75.431 107.7)" fill="#12263f"/>
        <path id="Trazado_882070" data-name="Trazado 882070" d="M125.266,53.416,47.354,98.4v89.967l77.911,44.985,77.915-44.985V98.4Z" transform="translate(312.898 68.499) rotate(90)" fill="#12263f"/>
        <text id="Petróleo_crudo" data-name="Petróleo 
crudo" transform="translate(170.052 191.813)" fill="#fff" font-size="16" font-family="Roboto-Bold, Roboto" font-weight="700"><tspan x="-32.59" y="0">Petróleo </tspan><tspan x="-20.598" y="14">crudo</tspan></text>
        <text id="Carbono_C_83-87" data-name="Carbono 
(C) 83-87" transform="translate(170.052 65.813)" fill="#12263f" font-size="16" font-family="Roboto-Bold, Roboto" font-weight="700"><tspan x="-32.465" y="0">Carbono </tspan><tspan x="-34.215" y="19">(C) 83-87</tspan></text>
        <text id="Oxígeno_O_0.1-1.5" data-name="Oxígeno (O) 
0.1-1.5" transform="translate(170.052 316.813)" fill="#12263f" font-size="16" font-family="Roboto-Bold, Roboto" font-weight="700"><tspan x="-44.816" y="0">Oxígeno (O) </tspan><tspan x="-26.109" y="19">0.1-1.5</tspan></text>
        <text id="Hidrógeno_H_10-14" data-name="Hidrógeno
(H) 10-14" transform="translate(289.052 118.813)" fill="#12263f" font-size="16" font-family="Roboto-Bold, Roboto" font-weight="700"><tspan x="-37.617" y="0">Hidrógeno</tspan><tspan x="-34.734" y="19">(H) 10-14</tspan></text>
        <text id="Nitrógeno_N_0.1-1.2" data-name="Nitrógeno 
(N) 0.1-1.2" transform="translate(289.052 254.813)" fill="#12263f" font-size="16" font-family="Roboto-Bold, Roboto" font-weight="700"><tspan x="-37.801" y="0">Nitrógeno </tspan><tspan x="-39.379" y="19">(N) 0.1-1.2</tspan></text>
        <text id="Metales_Na_Ni_V_Fe_Cu_0.1" data-name="Metales (Na, Ni, V, 
Fe, Cu) &lt; 0.1" transform="translate(48.052 118.813)" fill="#12263f" font-size="16" font-family="Roboto-Bold, Roboto" font-weight="700"><tspan x="-67.617" y="0">Metales (Na, Ni, V, </tspan><tspan x="-44.742" y="19">Fe, Cu) &lt; 0.1</tspan></text>
        <text id="Azufre_S_0.5-6.0" data-name="Azufre (S) 
0.5-6.0" transform="translate(48.052 254.813)" fill="#12263f" font-size="16" font-family="Roboto-Bold, Roboto" font-weight="700"><tspan x="-38.617" y="0">Azufre (S) </tspan><tspan x="-26.109" y="19">0.5-6.0</tspan></text>
      </g>
    </g>
  </g>
</svg>
