<svg xmlns="http://www.w3.org/2000/svg" width="610" height="483.149" viewBox="0 0 610 483.149">
  <g id="Grupo_1103041" data-name="Grupo 1103041" transform="translate(-600 -8272.909)">
    <rect id="Rectángulo_402129" data-name="Rectángulo 402129" width="610" height="483.149" rx="10" transform="translate(600 8272.909)" fill="#fff"/>
    <text id="Gas_natural_Gas_fósil_" data-name="Gas natural “Gas fósil”" transform="translate(643 8508.559) rotate(-90)" fill="#12263f" font-size="16" font-family="Roboto-Bold, Roboto" font-weight="700"><tspan x="-80.387" y="0">Gas natural </tspan><tspan y="0" font-family="Roboto-BoldItalic, Roboto" font-style="italic">“Gas fósil”</tspan></text>
    <text id="Líquidos_de_gas_natural" data-name="Líquidos 
de gas 
natural" transform="translate(717 8664.559)" fill="#12263f" font-size="16" font-family="Roboto-Regular, Roboto"><tspan x="-32.359" y="0">Líquidos </tspan><tspan x="-25.676" y="19">de gas </tspan><tspan x="-24.633" y="38">natural</tspan></text>
    <rect id="Rectángulo_402130" data-name="Rectángulo 402130" width="420" height="31" transform="translate(685.051 8294.009)" fill="#d7f0db"/>
    <rect id="Rectángulo_402131" data-name="Rectángulo 402131" width="397" height="42" transform="translate(790.051 8347.009)" fill="#feefe9"/>
    <rect id="Rectángulo_402132" data-name="Rectángulo 402132" width="397" height="239" transform="translate(790.051 8389.009)" fill="#fabca7"/>
    <rect id="Rectángulo_402133" data-name="Rectángulo 402133" width="397" height="32" transform="translate(790.051 8628.009)" fill="#f35923"/>
    <rect id="Rectángulo_402134" data-name="Rectángulo 402134" width="397" height="36" transform="translate(790.051 8660.009)" fill="#38b449"/>
    <rect id="Rectángulo_402135" data-name="Rectángulo 402135" width="397" height="36" transform="translate(790.051 8696.009)" fill="#afe1b6"/>
    <text id="Componentes_gas_natural_en_su_forma_primaria" data-name="Componentes gas natural en su forma primaria" transform="translate(886 8315.188)" fill="#12263f" font-size="16" font-family="Roboto-Bold, Roboto" font-weight="700"><tspan x="-169.223" y="0">Componentes gas natural en su forma primaria</tspan></text>
    <text id="No_hidrocarburos_H2S_CO2_H2O_N2_H2_ETC_" data-name="No hidrocarburos (H2S, CO2, H2O, N2, H2, ETC)" transform="translate(978 8372.338)" fill="#12263f" font-size="16" font-family="Roboto-Bold, Roboto" font-weight="700"><tspan x="-167.926" y="0">No hidrocarburos</tspan><tspan y="0" xml:space="preserve" font-family="Roboto-Regular, Roboto" font-weight="400"> (H2S, CO2, H2O, N2, H2, ETC)</tspan></text>
    <text id="Metano" transform="translate(837 8513.983)" fill="#12263f" font-size="16" font-family="Roboto-Bold, Roboto" font-weight="700"><tspan x="-27.328" y="0">Metano</tspan></text>
    <text id="Etano" transform="translate(830 8650.509)" fill="#12263f" font-size="16" font-family="Roboto-Bold, Roboto" font-weight="700"><tspan x="-20.496" y="0">Etano</tspan></text>
    <text id="Propano_y_Butano" data-name="Propano y Butano" transform="translate(874 8683.559)" fill="#12263f" font-size="16" font-family="Roboto-Bold, Roboto" font-weight="700"><tspan x="-63.836" y="0">Propano y Butano</tspan></text>
    <text id="GLP-Gas_licuado_de_petróleo" data-name="GLP-Gas licuado de petróleo" transform="translate(1073.051 8683.559)" fill="#12263f" font-size="16" font-family="Roboto-Regular, Roboto"><tspan x="-100.883" y="0">GLP-Gas licuado de petróleo</tspan></text>
    <text id="Gasolina_y_DM" data-name="Gasolina y DM" transform="translate(1023.051 8718.559)" fill="#12263f" font-size="16" font-family="Roboto-Regular, Roboto"><tspan x="-51.113" y="0">Gasolina y DM</tspan></text>
    <text id="Pentanos_" data-name="Pentanos +" transform="translate(850 8718.559)" fill="#12263f" font-size="16" font-family="Roboto-Bold, Roboto" font-weight="700"><tspan x="-40.434" y="0">Pentanos +</tspan></text>
    <g id="Grupo_1100356" data-name="Grupo 1100356" transform="translate(5253 7763.191) rotate(90)">
      <path id="Trazado_882044" data-name="Trazado 882044" d="M-8037.053-7124h83.566" transform="translate(8911.104 11608)" fill="none" stroke="#12263f" stroke-width="2"/>
      <g id="Trazado_882083" data-name="Trazado 882083" transform="translate(956.817 4477) rotate(90)" fill="#12263f">
        <path d="M14,0h0Z" stroke="none"/>
        <path d="M 0 -9.5367431640625e-07 L 14 -9.5367431640625e-07 L 0 -9.5367431640625e-07 Z" stroke="none" fill="#12263f"/>
      </g>
      <g id="Polígono_13" data-name="Polígono 13" transform="translate(866.051 4489) rotate(-90)" fill="#12263f">
        <path d="M 9.097874641418457 7.5 L 0.9021250009536743 7.5 L 5 0.9434000253677368 L 9.097874641418457 7.5 Z" stroke="none"/>
        <path d="M 5 1.886799812316895 L 1.80424976348877 7 L 8.19575023651123 7 L 5 1.886799812316895 M 5 0 L 10 8 L 0 8 L 5 0 Z" stroke="none" fill="#12263f"/>
      </g>
      <g id="Polígono_15" data-name="Polígono 15" transform="translate(964.817 4479) rotate(90)" fill="#12263f">
        <path d="M 9.097874641418457 7.5 L 0.9021250009536743 7.5 L 5 0.9434000253677368 L 9.097874641418457 7.5 Z" stroke="none"/>
        <path d="M 5 1.886799812316895 L 1.80424976348877 7 L 8.19575023651123 7 L 5 1.886799812316895 M 5 0 L 10 8 L 0 8 L 5 0 Z" stroke="none" fill="#12263f"/>
      </g>
    </g>
    <g id="Grupo_1100360" data-name="Grupo 1100360" transform="translate(5441 7793.958) rotate(90)">
      <path id="Trazado_882044-2" data-name="Trazado 882044" d="M-8037.053-7124h22.8" transform="translate(8910.199 11608)" fill="none" stroke="#12263f" stroke-width="2"/>
      <g id="Trazado_882083-2" data-name="Trazado 882083" transform="translate(893.051 4477) rotate(90)" fill="#12263f">
        <path d="M14,0h0Z" stroke="none"/>
        <path d="M 0 0 L 14 0 L 0 0 Z" stroke="none" fill="#12263f"/>
      </g>
      <g id="Polígono_13-2" data-name="Polígono 13" transform="translate(866.051 4489) rotate(-90)" fill="#12263f">
        <path d="M 9.097874641418457 7.5 L 0.9021250009536743 7.5 L 5 0.9434000253677368 L 9.097874641418457 7.5 Z" stroke="none"/>
        <path d="M 5 1.886799812316895 L 1.80424976348877 7 L 8.19575023651123 7 L 5 1.886799812316895 M 5 0 L 10 8 L 0 8 L 5 0 Z" stroke="none" fill="#12263f"/>
      </g>
      <g id="Polígono_15-2" data-name="Polígono 15" transform="translate(902.051 4479) rotate(90)" fill="#12263f">
        <path d="M 9.097874641418457 7.5 L 0.9021250009536743 7.5 L 5 0.9434000253677368 L 9.097874641418457 7.5 Z" stroke="none"/>
        <path d="M 5 1.886799812316895 L 1.80424976348877 7 L 8.19575023651123 7 L 5 1.886799812316895 M 5 0 L 10 8 L 0 8 L 5 0 Z" stroke="none" fill="#12263f"/>
      </g>
    </g>
    <g id="Grupo_1100361" data-name="Grupo 1100361" transform="translate(5441 7829.958) rotate(90)">
      <path id="Trazado_882044-3" data-name="Trazado 882044" d="M-8037.053-7124h22.8" transform="translate(8910.199 11608)" fill="none" stroke="#12263f" stroke-width="2"/>
      <g id="Trazado_882083-3" data-name="Trazado 882083" transform="translate(893.051 4477) rotate(90)" fill="#12263f">
        <path d="M14,0h0Z" stroke="none"/>
        <path d="M 0 0 L 14 0 L 0 0 Z" stroke="none" fill="#12263f"/>
      </g>
      <g id="Polígono_13-3" data-name="Polígono 13" transform="translate(866.051 4489) rotate(-90)" fill="#12263f">
        <path d="M 9.097874641418457 7.5 L 0.9021250009536743 7.5 L 5 0.9434000253677368 L 9.097874641418457 7.5 Z" stroke="none"/>
        <path d="M 5 1.886799812316895 L 1.80424976348877 7 L 8.19575023651123 7 L 5 1.886799812316895 M 5 0 L 10 8 L 0 8 L 5 0 Z" stroke="none" fill="#12263f"/>
      </g>
      <g id="Polígono_15-3" data-name="Polígono 15" transform="translate(902.051 4479) rotate(90)" fill="#12263f">
        <path d="M 9.097874641418457 7.5 L 0.9021250009536743 7.5 L 5 0.9434000253677368 L 9.097874641418457 7.5 Z" stroke="none"/>
        <path d="M 5 1.886799812316895 L 1.80424976348877 7 L 8.19575023651123 7 L 5 1.886799812316895 M 5 0 L 10 8 L 0 8 L 5 0 Z" stroke="none" fill="#12263f"/>
      </g>
    </g>
    <g id="Grupo_1100358" data-name="Grupo 1100358" transform="translate(5153 7480.958) rotate(90)">
      <path id="Trazado_882044-4" data-name="Trazado 882044" d="M-8037.053-7124h365.8" transform="translate(8911.104 11608)" fill="none" stroke="#12263f" stroke-width="2" stroke-dasharray="1"/>
      <g id="Trazado_882083-4" data-name="Trazado 882083" transform="translate(1239.051 4477) rotate(90)" fill="#12263f">
        <path d="M14,0h0Z" stroke="none"/>
        <path d="M 0 0 L 14 0 L 0 0 Z" stroke="none" fill="#12263f"/>
      </g>
      <g id="Polígono_13-4" data-name="Polígono 13" transform="translate(866.051 4489) rotate(-90)" fill="#12263f">
        <path d="M 9.097874641418457 7.5 L 0.9021250009536743 7.5 L 5 0.9434000253677368 L 9.097874641418457 7.5 Z" stroke="none"/>
        <path d="M 5 1.886799812316895 L 1.80424976348877 7 L 8.19575023651123 7 L 5 1.886799812316895 M 5 0 L 10 8 L 0 8 L 5 0 Z" stroke="none" fill="#12263f"/>
      </g>
      <g id="Polígono_15-4" data-name="Polígono 15" transform="translate(1247.051 4479) rotate(90)" fill="#12263f">
        <path d="M 9.097874641418457 7.5 L 0.9021250009536743 7.5 L 5 0.9434000253677368 L 9.097874641418457 7.5 Z" stroke="none"/>
        <path d="M 5 1.886799812316895 L 1.80424976348877 7 L 8.19575023651123 7 L 5 1.886799812316895 M 5 0 L 10 8 L 0 8 L 5 0 Z" stroke="none" fill="#12263f"/>
      </g>
    </g>
  </g>
</svg>
