<svg xmlns="http://www.w3.org/2000/svg" width="84.014" height="84.03" viewBox="0 0 84.014 84.03">
  <path id="gestion-energetica_1_" data-name="gestion-energetica (1)" d="M87,45a4,4,0,0,0-3.858,3H71V46a1,1,0,0,0-2,0V63H49.782L66.916,46.389a1,1,0,0,0-.7-1.718H46.655L51.088,35H69v2a1,1,0,0,0,2,0V34a1,1,0,0,0-1-1H64V21H76.142a4,4,0,1,0,0-2H63a1,1,0,0,0-1,1V33H52l3.361-7.333a1,1,0,0,0-1.676-1.059L50,29.014V14.858a4,4,0,1,0-2,0V31.4L46.662,33H36V20a1,1,0,0,0-1-1H21.858a4,4,0,1,0,0,2H34V33H28a1,1,0,0,0-1,1V48H14.858a4,4,0,1,0,0,2H27V64a1,1,0,0,0,1,1h6V77H21.858a4,4,0,1,0,0,2H35a1,1,0,0,0,1-1V65h5.653l-4.227,7.246a1,1,0,0,0,1.559,1.222L47.719,65H48V83.142a4,4,0,1,0,2,0V65H62V78a1,1,0,0,0,1,1H76.142a4,4,0,1,0,0-2H64V65h6a1,1,0,0,0,1-1V50H83.142A3.993,3.993,0,1,0,87,45ZM80,18a2,2,0,1,1-2,2A2,2,0,0,1,80,18ZM47,11a2,2,0,1,1,2,2A2,2,0,0,1,47,11ZM18,22a2,2,0,1,1,2-2A2,2,0,0,1,18,22ZM11,51a2,2,0,1,1,2-2A2,2,0,0,1,11,51Zm7,29a2,2,0,1,1,2-2A2,2,0,0,1,18,80Zm33,7a2,2,0,1,1-2-2A2,2,0,0,1,51,87ZM80,76a2,2,0,1,1-2,2A2,2,0,0,1,80,76ZM29,63V35H44.988L31.014,51.688a1,1,0,0,0,.766,1.641H48.461L42.819,63ZM51.065,52.833a1,1,0,0,0-.863-1.5H33.922l16.527-19.74L44.187,45.254a1,1,0,0,0,.91,1.417H63.752L46.617,63.283l-.023.023-3.77,3.654ZM87,51a2,2,0,1,1,2-2A2,2,0,0,1,87,51Z" transform="translate(-6.985 -6.985)" fill="#f35923"/>
</svg>
