<svg xmlns="http://www.w3.org/2000/svg" width="63" height="63" viewBox="0 0 63 63">
  <g id="Grupo_1099961" data-name="Grupo 1099961" transform="translate(-1018.763 -6764)">
    <g id="Grupo_1098742" data-name="Grupo 1098742" transform="translate(1019.209 6764.445)">
      <rect id="Rect치ngulo_400898" data-name="Rect치ngulo 400898" width="63" height="63" rx="31.5" transform="translate(-0.445 -0.445)" fill="#38b449" opacity="0.859"/>
      <rect id="Rect치ngulo_400907" data-name="Rect치ngulo 400907" width="63" height="63" rx="31.5" transform="translate(-0.446 -0.445)" fill="none"/>
    </g>
    <g id="_9" data-name="9" transform="translate(1020.791 6763.995)">
      <path id="Trazado_881688" data-name="Trazado 881688" d="M18.51,50.509H40.491v1.6H18.51Zm.065-17.36H15.206v1.6h3.369Zm-3.369,4.3h3.369v-1.6H15.206Zm27.427-4.3a1.408,1.408,0,1,0,1.408,1.408,1.408,1.408,0,0,0-1.408-1.408Zm-16.6-20.306h-1.4v1.6h1.4Zm-.468,2.9,1.06,1.195.992-.879-1.06-1.195Zm0-4.212.992.879,1.06-1.195-.992-.879Zm7.868,2.9h1.4v-1.6h-1.4Zm.468,1.308-.992-.879-1.06,1.195.992.879Zm0-4.212-1.06-1.195-.992.879,1.06,1.195ZM33.532,34.29l-2.2,5.633,4.054,1.591a.8.8,0,0,1,.1,1.436l-10.2,5.829a.8.8,0,0,1-1.012-1.2l3.11-3.78-3.174-.669a.8.8,0,0,1-.4-1.348l8.409-8.348a.8.8,0,0,1,1.306.857Zm-3.524,6.828a.8.8,0,0,1-.452-1.034l1.116-2.858-4.68,4.646,3.015.636a.8.8,0,0,1,.451,1.289l-1.184,1.438,4.977-2.844ZM41.688,26.769l1.22,1.03a1.076,1.076,0,0,1,1.6,0l1.222-1.028a2.64,2.64,0,0,0-4.044,0Zm2.021-3.013A3.19,3.19,0,0,1,46.376,25.2l1.333-.878a4.778,4.778,0,0,0-8,0l1.334.878a3.189,3.189,0,0,1,2.667-1.448ZM13.745,26.769l1.22,1.03a1.076,1.076,0,0,1,1.6,0l1.222-1.028a2.64,2.64,0,0,0-4.044,0Zm2.021-3.013A3.19,3.19,0,0,1,18.433,25.2l1.333-.878a4.778,4.778,0,0,0-8,0L13.1,25.2a3.189,3.189,0,0,1,2.667-1.448ZM6.973,52.105V42.434a4.673,4.673,0,0,1,2.5-4.144l1.755-.925V32.051a2.3,2.3,0,0,1,2.295-2.295H25.978V28.409a1.411,1.411,0,0,1-1.131-1.386v-.5a1.408,1.408,0,0,1,1.4-1.414c.051-.058.035-.086.03-.1l-3.927-6.96a8.761,8.761,0,0,1,.066-8.807,8.437,8.437,0,0,1,14.644,0,8.761,8.761,0,0,1,.066,8.807L33.2,25.017a.069.069,0,0,0,0,.074,1.446,1.446,0,0,1,1.429,1.435v.5A1.411,1.411,0,0,1,33.5,28.409v1.347H45.479a2.3,2.3,0,0,1,2.295,2.295v5.064L50,38.29a4.673,4.673,0,0,1,2.5,4.144v9.671H50.9V42.434A3.08,3.08,0,0,0,49.258,39.7l-1.484-.783v2.8l1.811.87-.692,1.439-5.727-2.752a.823.823,0,1,0-.713,1.483l3.735,1.794-.278.693a1.559,1.559,0,0,0-.112.517l.677,6.343h-1.6L44.2,45.828a3.136,3.136,0,0,1,.032-.445L41.762,44.2a2.42,2.42,0,0,1,2.1-4.362l2.319,1.114v-8.9a.7.7,0,0,0-.7-.7H13.522a.7.7,0,0,0-.7.7v9.126l2.793-1.342a2.419,2.419,0,1,1,2.1,4.362l-2.47,1.187a3.136,3.136,0,0,1,.032.445l-.013.146L14.6,52.105H13l.677-6.343a1.559,1.559,0,0,0-.112-.517l-.278-.693,3.735-1.794a.823.823,0,1,0-.713-1.483l-5.727,2.752L9.89,42.587l1.338-.643V39.17l-1.01.533a3.08,3.08,0,0,0-1.647,2.731v9.671ZM31.9,28.437H27.575v1.316H31.9Zm-4.232-4.2a1.655,1.655,0,0,1-.012,1.664,1.619,1.619,0,0,1-1.211.8v.143h2.495v-11.5a.8.8,0,0,1-.715-.79V13.115a.8.8,0,0,1,.8-.8h1.431a.8.8,0,0,1,.8.8v1.431a.8.8,0,0,1-.715.79v11.5H33.03V26.7a1.619,1.619,0,0,1-1.211-.8,1.655,1.655,0,0,1-.012-1.664l3.927-6.96a7.179,7.179,0,0,0-.054-7.217,6.84,6.84,0,0,0-11.886,0,7.179,7.179,0,0,0-.054,7.217Z" fill="#fff"/>
    </g>
  </g>
</svg>
