<svg xmlns="http://www.w3.org/2000/svg" xmlns:xlink="http://www.w3.org/1999/xlink" width="334.965" height="407.995" viewBox="0 0 334.965 407.995">
  <defs>
    <clipPath id="clip-path">
      <rect id="Rectángulo_403619" data-name="Rectángulo 403619" width="334.965" height="400" fill="none"/>
    </clipPath>
    <clipPath id="clip-path-2">
      <rect id="Rectángulo_400902" data-name="Rectángulo 400902" width="113.066" height="100.239" fill="#f8cd20"/>
    </clipPath>
  </defs>
  <g id="Grupo_1100161" data-name="Grupo 1100161" transform="translate(-245.035 -2491.848)">
    <path id="_119740" data-name="119740" d="M45.281,0l-.444.154H24.13A24.13,24.13,0,0,0,0,24.285V74.451a24.156,24.156,0,0,0,9.563,19.4c6.572,4.9,13.421,13.2,9.266,25.115-7.226,20.721-3.8,38.8,11.788,51.47s27.669,26.1,11.979,42.434q-.42.438-.812.882c-13.556,15.354-2.116,39.6,18.365,39.6H276.586l-.012-.04A126.6,126.6,0,0,0,273.4.154c-.57,0-1.135.019-1.7.026l-.014-.026Z" transform="translate(285 2891.848) rotate(-90)" fill="#feefe9"/>
    <g id="Grupo_1102491" data-name="Grupo 1102491" transform="translate(245.035 2499.843)">
      <g id="Grupo_1102490" data-name="Grupo 1102490" clip-path="url(#clip-path)">
        <path id="Trazado_886607" data-name="Trazado 886607" d="M854.411,195.089H834.74a.861.861,0,0,1-.862-.861V57.127a.861.861,0,0,1,.862-.862h19.671a.861.861,0,0,1,.862.862v137.1a.862.862,0,0,1-.862.861m-18.81-1.723h17.948V57.988H835.6Z" transform="translate(-602.884 -40.679)" fill="#93acbf"/>
        <path id="Trazado_886608" data-name="Trazado 886608" d="M777.6,71.7H757.924a.854.854,0,0,1-.363-.081l-29.432-13.71a.861.861,0,0,1,.363-1.642h78.535a.861.861,0,0,1,.363,1.642l-29.431,13.71a.855.855,0,0,1-.364.081m-19.481-1.723H777.4l25.733-11.987H732.383Z" transform="translate(-526.068 -40.679)" fill="#93acbf"/>
        <path id="Trazado_886609" data-name="Trazado 886609" d="M787.832,121.189H685.453a.861.861,0,0,1-.271-1.679l41.354-13.71a.849.849,0,0,1,.271-.044h19.672a.849.849,0,0,1,.271.044L788.1,119.51a.861.861,0,0,1-.271,1.679m-97.043-1.723H782.5L746.34,107.48H726.946Z" transform="translate(-494.951 -76.46)" fill="#93acbf"/>
        <path id="Trazado_886610" data-name="Trazado 886610" d="M685.455,178.708a.862.862,0,0,1-.862-.862V166.67a.861.861,0,0,1,.862-.862h11.922a.862.862,0,0,1,.589,1.49l-11.922,11.176a.858.858,0,0,1-.589.233m.861-11.177v8.326l8.882-8.326Z" transform="translate(-494.952 -119.877)" fill="#93acbf"/>
        <path id="Trazado_886611" data-name="Trazado 886611" d="M685.454,227.661a.861.861,0,0,1-.862-.862V207.017a.862.862,0,1,1,1.723,0V226.8a.861.861,0,0,1-.861.862" transform="translate(-494.952 -149.048)" fill="#93acbf"/>
        <path id="Trazado_886612" data-name="Trazado 886612" d="M684.45,280.5h-2.682a.419.419,0,0,1,0-.838h2.682a.419.419,0,0,1,0,.838" transform="translate(-492.607 -202.191)" fill="#93acbf"/>
        <path id="Trazado_886613" data-name="Trazado 886613" d="M684.45,272.145h-2.682a.419.419,0,1,1,0-.838h2.682a.419.419,0,1,1,0,.838" transform="translate(-492.607 -196.152)" fill="#93acbf"/>
        <path id="Trazado_886614" data-name="Trazado 886614" d="M684.45,263.79h-2.682a.419.419,0,1,1,0-.838h2.682a.419.419,0,1,1,0,.838" transform="translate(-492.607 -190.111)" fill="#93acbf"/>
        <path id="Trazado_886615" data-name="Trazado 886615" d="M684.45,255.436h-2.682a.419.419,0,1,1,0-.838h2.682a.419.419,0,1,1,0,.838" transform="translate(-492.607 -184.071)" fill="#93acbf"/>
        <path id="Trazado_886616" data-name="Trazado 886616" d="M684.45,247.081h-2.682a.419.419,0,1,1,0-.838h2.682a.419.419,0,1,1,0,.838" transform="translate(-492.607 -178.031)" fill="#93acbf"/>
        <path id="Trazado_886617" data-name="Trazado 886617" d="M684.45,238.726h-2.682a.419.419,0,1,1,0-.838h2.682a.419.419,0,1,1,0,.838" transform="translate(-492.607 -171.99)" fill="#93acbf"/>
        <path id="Trazado_886618" data-name="Trazado 886618" d="M684.45,230.372h-2.682a.419.419,0,1,1,0-.838h2.682a.419.419,0,1,1,0,.838" transform="translate(-492.607 -165.95)" fill="#93acbf"/>
        <path id="Trazado_886619" data-name="Trazado 886619" d="M684.45,222.017h-2.682a.419.419,0,1,1,0-.838h2.682a.419.419,0,1,1,0,.838" transform="translate(-492.607 -159.91)" fill="#93acbf"/>
        <path id="Trazado_886620" data-name="Trazado 886620" d="M684.45,213.662h-2.682a.419.419,0,1,1,0-.838h2.682a.419.419,0,1,1,0,.838" transform="translate(-492.607 -153.869)" fill="#93acbf"/>
        <path id="Trazado_886621" data-name="Trazado 886621" d="M1023.921,178.708a.859.859,0,0,1-.589-.233L1011.41,167.3a.862.862,0,0,1,.589-1.49h11.922a.861.861,0,0,1,.862.862v11.176a.862.862,0,0,1-.862.862m-9.743-11.177,8.882,8.326v-8.326Z" transform="translate(-731.04 -119.877)" fill="#93acbf"/>
        <path id="Trazado_886622" data-name="Trazado 886622" d="M1055.038,227.661a.861.861,0,0,1-.861-.862V207.017a.862.862,0,1,1,1.723,0V226.8a.861.861,0,0,1-.862.862" transform="translate(-762.157 -149.048)" fill="#93acbf"/>
        <path id="Trazado_886623" data-name="Trazado 886623" d="M1051.35,280.5h2.682a.419.419,0,1,0,0-.838h-2.682a.419.419,0,1,0,0,.838" transform="translate(-759.81 -202.191)" fill="#93acbf"/>
        <path id="Trazado_886624" data-name="Trazado 886624" d="M1051.35,272.145h2.682a.419.419,0,1,0,0-.838h-2.682a.419.419,0,1,0,0,.838" transform="translate(-759.81 -196.152)" fill="#93acbf"/>
        <path id="Trazado_886625" data-name="Trazado 886625" d="M1051.35,263.79h2.682a.419.419,0,1,0,0-.838h-2.682a.419.419,0,1,0,0,.838" transform="translate(-759.81 -190.111)" fill="#93acbf"/>
        <path id="Trazado_886626" data-name="Trazado 886626" d="M1051.35,255.436h2.682a.419.419,0,1,0,0-.838h-2.682a.419.419,0,1,0,0,.838" transform="translate(-759.81 -184.071)" fill="#93acbf"/>
        <path id="Trazado_886627" data-name="Trazado 886627" d="M1051.35,247.081h2.682a.419.419,0,1,0,0-.838h-2.682a.419.419,0,1,0,0,.838" transform="translate(-759.81 -178.031)" fill="#93acbf"/>
        <path id="Trazado_886628" data-name="Trazado 886628" d="M1051.35,238.726h2.682a.419.419,0,1,0,0-.838h-2.682a.419.419,0,1,0,0,.838" transform="translate(-759.81 -171.99)" fill="#93acbf"/>
        <path id="Trazado_886629" data-name="Trazado 886629" d="M1051.35,230.372h2.682a.419.419,0,1,0,0-.838h-2.682a.419.419,0,1,0,0,.838" transform="translate(-759.81 -165.95)" fill="#93acbf"/>
        <path id="Trazado_886630" data-name="Trazado 886630" d="M1051.35,222.017h2.682a.419.419,0,1,0,0-.838h-2.682a.419.419,0,1,0,0,.838" transform="translate(-759.81 -159.91)" fill="#93acbf"/>
        <path id="Trazado_886631" data-name="Trazado 886631" d="M1051.35,213.662h2.682a.419.419,0,1,0,0-.838h-2.682a.419.419,0,1,0,0,.838" transform="translate(-759.81 -153.869)" fill="#93acbf"/>
        <path id="Trazado_886632" data-name="Trazado 886632" d="M787.832,517.134H685.453a.862.862,0,0,1-.271-1.68l41.354-13.712a.857.857,0,0,1,.271-.044h19.672a.857.857,0,0,1,.271.044L788.1,515.455a.862.862,0,0,1-.271,1.68m-97.043-1.723H782.5L746.34,503.422H726.946Z" transform="translate(-494.951 -362.722)" fill="#93acbf"/>
        <path id="Trazado_886633" data-name="Trazado 886633" d="M685.455,573.312a.862.862,0,0,1-.862-.861V561.273a.861.861,0,0,1,.862-.861h11.922a.861.861,0,0,1,.589,1.49l-11.922,11.177a.859.859,0,0,1-.589.233m.861-11.177v8.327l8.882-8.327Z" transform="translate(-494.952 -405.171)" fill="#93acbf"/>
        <path id="Trazado_886634" data-name="Trazado 886634" d="M685.454,622.266a.861.861,0,0,1-.862-.862V601.622a.862.862,0,1,1,1.723,0V621.4a.861.861,0,0,1-.861.862" transform="translate(-494.952 -434.342)" fill="#93acbf"/>
        <path id="Trazado_886635" data-name="Trazado 886635" d="M684.45,666.749h-2.682a.419.419,0,1,1,0-.838h2.682a.419.419,0,1,1,0,.838" transform="translate(-492.607 -481.445)" fill="#93acbf"/>
        <path id="Trazado_886636" data-name="Trazado 886636" d="M684.45,658.394h-2.682a.419.419,0,1,1,0-.838h2.682a.419.419,0,1,1,0,.838" transform="translate(-492.607 -475.405)" fill="#93acbf"/>
        <path id="Trazado_886637" data-name="Trazado 886637" d="M684.45,650.04h-2.682a.419.419,0,1,1,0-.838h2.682a.419.419,0,1,1,0,.838" transform="translate(-492.607 -469.365)" fill="#93acbf"/>
        <path id="Trazado_886638" data-name="Trazado 886638" d="M684.45,641.685h-2.682a.419.419,0,0,1,0-.838h2.682a.419.419,0,0,1,0,.838" transform="translate(-492.607 -463.325)" fill="#93acbf"/>
        <path id="Trazado_886639" data-name="Trazado 886639" d="M684.45,633.33h-2.682a.419.419,0,0,1,0-.838h2.682a.419.419,0,0,1,0,.838" transform="translate(-492.607 -457.284)" fill="#93acbf"/>
        <path id="Trazado_886640" data-name="Trazado 886640" d="M684.45,624.976h-2.682a.419.419,0,1,1,0-.838h2.682a.419.419,0,1,1,0,.838" transform="translate(-492.607 -451.244)" fill="#93acbf"/>
        <path id="Trazado_886641" data-name="Trazado 886641" d="M684.45,616.621h-2.682a.419.419,0,1,1,0-.838h2.682a.419.419,0,1,1,0,.838" transform="translate(-492.607 -445.204)" fill="#93acbf"/>
        <path id="Trazado_886642" data-name="Trazado 886642" d="M684.45,608.267h-2.682a.419.419,0,1,1,0-.838h2.682a.419.419,0,1,1,0,.838" transform="translate(-492.607 -439.164)" fill="#93acbf"/>
        <path id="Trazado_886643" data-name="Trazado 886643" d="M1023.921,573.312a.86.86,0,0,1-.589-.233L1011.41,561.9a.862.862,0,0,1,.589-1.49h11.922a.861.861,0,0,1,.862.861V572.45a.862.862,0,0,1-.862.861m-9.743-11.177,8.882,8.327v-8.327Z" transform="translate(-731.04 -405.171)" fill="#93acbf"/>
        <path id="Trazado_886644" data-name="Trazado 886644" d="M1055.038,622.266a.861.861,0,0,1-.861-.862V601.622a.862.862,0,1,1,1.723,0V621.4a.861.861,0,0,1-.862.862" transform="translate(-762.157 -434.342)" fill="#93acbf"/>
        <path id="Trazado_886645" data-name="Trazado 886645" d="M1051.35,666.749h2.682a.419.419,0,1,0,0-.838h-2.682a.419.419,0,1,0,0,.838" transform="translate(-759.81 -481.445)" fill="#93acbf"/>
        <path id="Trazado_886646" data-name="Trazado 886646" d="M1051.35,658.394h2.682a.419.419,0,1,0,0-.838h-2.682a.419.419,0,1,0,0,.838" transform="translate(-759.81 -475.405)" fill="#93acbf"/>
        <path id="Trazado_886647" data-name="Trazado 886647" d="M1051.35,650.04h2.682a.419.419,0,1,0,0-.838h-2.682a.419.419,0,1,0,0,.838" transform="translate(-759.81 -469.365)" fill="#93acbf"/>
        <path id="Trazado_886648" data-name="Trazado 886648" d="M1051.35,641.685h2.682a.419.419,0,1,0,0-.838h-2.682a.419.419,0,1,0,0,.838" transform="translate(-759.81 -463.325)" fill="#93acbf"/>
        <path id="Trazado_886649" data-name="Trazado 886649" d="M1051.35,633.33h2.682a.419.419,0,1,0,0-.838h-2.682a.419.419,0,1,0,0,.838" transform="translate(-759.81 -457.284)" fill="#93acbf"/>
        <path id="Trazado_886650" data-name="Trazado 886650" d="M1051.35,624.976h2.682a.419.419,0,1,0,0-.838h-2.682a.419.419,0,1,0,0,.838" transform="translate(-759.81 -451.244)" fill="#93acbf"/>
        <path id="Trazado_886651" data-name="Trazado 886651" d="M1051.35,616.621h2.682a.419.419,0,1,0,0-.838h-2.682a.419.419,0,1,0,0,.838" transform="translate(-759.81 -445.204)" fill="#93acbf"/>
        <path id="Trazado_886652" data-name="Trazado 886652" d="M1051.35,608.267h2.682a.419.419,0,1,0,0-.838h-2.682a.419.419,0,1,0,0,.838" transform="translate(-759.81 -439.164)" fill="#93acbf"/>
        <path id="Trazado_886653" data-name="Trazado 886653" d="M1072.489,422.8a.861.861,0,0,1-.589-.233l-11.922-11.176a.862.862,0,0,1,.589-1.49h11.922a.862.862,0,0,1,.862.862v11.176a.862.862,0,0,1-.862.862m-9.743-11.177,8.882,8.326v-8.326Z" transform="translate(-766.154 -296.355)" fill="#93acbf"/>
        <path id="Trazado_886654" data-name="Trazado 886654" d="M1103.606,471.756a.861.861,0,0,1-.862-.862V451.112a.862.862,0,1,1,1.723,0v19.783a.861.861,0,0,1-.861.862" transform="translate(-797.27 -325.525)" fill="#93acbf"/>
        <path id="Trazado_886655" data-name="Trazado 886655" d="M1099.918,524.594h2.683a.419.419,0,0,0,0-.838h-2.683a.419.419,0,1,0,0,.838" transform="translate(-794.924 -378.669)" fill="#93acbf"/>
        <path id="Trazado_886656" data-name="Trazado 886656" d="M1099.918,516.239h2.683a.419.419,0,0,0,0-.838h-2.683a.419.419,0,1,0,0,.838" transform="translate(-794.924 -372.629)" fill="#93acbf"/>
        <path id="Trazado_886657" data-name="Trazado 886657" d="M1099.918,507.885h2.683a.419.419,0,0,0,0-.838h-2.683a.419.419,0,1,0,0,.838" transform="translate(-794.924 -366.589)" fill="#93acbf"/>
        <path id="Trazado_886658" data-name="Trazado 886658" d="M1099.918,499.53h2.683a.419.419,0,0,0,0-.838h-2.683a.419.419,0,1,0,0,.838" transform="translate(-794.924 -360.548)" fill="#93acbf"/>
        <path id="Trazado_886659" data-name="Trazado 886659" d="M1099.918,491.176h2.683a.419.419,0,0,0,0-.838h-2.683a.419.419,0,1,0,0,.838" transform="translate(-794.924 -354.508)" fill="#93acbf"/>
        <path id="Trazado_886660" data-name="Trazado 886660" d="M1099.918,482.821h2.683a.419.419,0,0,0,0-.838h-2.683a.419.419,0,1,0,0,.838" transform="translate(-794.924 -348.468)" fill="#93acbf"/>
        <path id="Trazado_886661" data-name="Trazado 886661" d="M1099.918,474.466h2.683a.419.419,0,0,0,0-.838h-2.683a.419.419,0,1,0,0,.838" transform="translate(-794.924 -342.427)" fill="#93acbf"/>
        <path id="Trazado_886662" data-name="Trazado 886662" d="M1099.918,466.112h2.683a.419.419,0,0,0,0-.838h-2.683a.419.419,0,1,0,0,.838" transform="translate(-794.924 -336.387)" fill="#93acbf"/>
        <path id="Trazado_886663" data-name="Trazado 886663" d="M1099.918,457.757h2.683a.419.419,0,0,0,0-.838h-2.683a.419.419,0,1,0,0,.838" transform="translate(-794.924 -330.347)" fill="#93acbf"/>
        <path id="Trazado_886664" data-name="Trazado 886664" d="M642.855,422.8a.863.863,0,0,1-.862-.862V410.765a.862.862,0,0,1,.862-.862h11.922a.862.862,0,0,1,.589,1.49L643.444,422.57a.861.861,0,0,1-.589.233m.862-11.177v8.326l8.882-8.326Z" transform="translate(-464.153 -296.355)" fill="#93acbf"/>
        <path id="Trazado_886665" data-name="Trazado 886665" d="M642.854,471.756a.861.861,0,0,1-.862-.862V451.112a.861.861,0,1,1,1.723,0v19.783a.861.861,0,0,1-.861.862" transform="translate(-464.153 -325.525)" fill="#93acbf"/>
        <path id="Trazado_886666" data-name="Trazado 886666" d="M641.85,524.594h-2.682a.419.419,0,0,1,0-.838h2.682a.419.419,0,1,1,0,.838" transform="translate(-461.808 -378.669)" fill="#93acbf"/>
        <path id="Trazado_886667" data-name="Trazado 886667" d="M641.85,516.239h-2.682a.419.419,0,0,1,0-.838h2.682a.419.419,0,1,1,0,.838" transform="translate(-461.808 -372.629)" fill="#93acbf"/>
        <path id="Trazado_886668" data-name="Trazado 886668" d="M641.85,507.885h-2.682a.419.419,0,0,1,0-.838h2.682a.419.419,0,1,1,0,.838" transform="translate(-461.808 -366.589)" fill="#93acbf"/>
        <path id="Trazado_886669" data-name="Trazado 886669" d="M641.85,499.53h-2.682a.419.419,0,0,1,0-.838h2.682a.419.419,0,1,1,0,.838" transform="translate(-461.808 -360.548)" fill="#93acbf"/>
        <path id="Trazado_886670" data-name="Trazado 886670" d="M641.85,491.176h-2.682a.419.419,0,0,1,0-.838h2.682a.419.419,0,1,1,0,.838" transform="translate(-461.808 -354.508)" fill="#93acbf"/>
        <path id="Trazado_886671" data-name="Trazado 886671" d="M641.85,482.821h-2.682a.419.419,0,0,1,0-.838h2.682a.419.419,0,1,1,0,.838" transform="translate(-461.808 -348.468)" fill="#93acbf"/>
        <path id="Trazado_886672" data-name="Trazado 886672" d="M641.85,474.466h-2.682a.419.419,0,0,1,0-.838h2.682a.419.419,0,1,1,0,.838" transform="translate(-461.808 -342.427)" fill="#93acbf"/>
        <path id="Trazado_886673" data-name="Trazado 886673" d="M641.85,466.112h-2.682a.419.419,0,0,1,0-.838h2.682a.419.419,0,1,1,0,.838" transform="translate(-461.808 -336.387)" fill="#93acbf"/>
        <path id="Trazado_886674" data-name="Trazado 886674" d="M641.85,457.757h-2.682a.419.419,0,0,1,0-.838h2.682a.419.419,0,1,1,0,.838" transform="translate(-461.808 -330.347)" fill="#93acbf"/>
        <path id="Trazado_886675" data-name="Trazado 886675" d="M728.494,61.9a.861.861,0,0,1-.862-.862V57.126a.862.862,0,1,1,1.723,0v3.912a.861.861,0,0,1-.862.862" transform="translate(-526.069 -40.678)" fill="#93acbf"/>
        <path id="Trazado_886676" data-name="Trazado 886676" d="M1012,61.9a.861.861,0,0,1-.862-.862V57.126a.862.862,0,1,1,1.723,0v3.912a.861.861,0,0,1-.861.862" transform="translate(-731.04 -40.678)" fill="#93acbf"/>
        <path id="Trazado_886677" data-name="Trazado 886677" d="M766,359.964H636.5a.862.862,0,0,1-.255-1.685L691.16,341.29a.874.874,0,0,1,.255-.038h19.671a.87.87,0,0,1,.255.038l54.915,16.989a.862.862,0,0,1-.255,1.685m-123.8-1.723H760.3l-49.345-15.266H691.546Z" transform="translate(-459.56 -246.721)" fill="#93acbf"/>
        <path id="Trazado_886678" data-name="Trazado 886678" d="M783.23,798.512H772.022a.863.863,0,0,1-.755-.447l-42.084-76.71L687.1,798.066a.862.862,0,0,1-.755.447H675.135a.861.861,0,0,1-.848-1.014L718.5,551.911a.862.862,0,0,1,.848-.709h19.673a.861.861,0,0,1,.848.709L784.078,797.5a.862.862,0,0,1-.848,1.014m-10.7-1.723H782.2L738.3,552.925H720.066l-43.9,243.864h9.667l42.594-77.639a.9.9,0,0,1,1.511,0Z" transform="translate(-487.492 -398.512)" fill="#93acbf"/>
        <path id="Trazado_886679" data-name="Trazado 886679" d="M834.741,71.7a.862.862,0,0,1-.493-1.568l19.671-13.71a.861.861,0,1,1,.985,1.414l-19.671,13.71a.855.855,0,0,1-.491.155" transform="translate(-602.884 -40.678)" fill="#93acbf"/>
        <path id="Trazado_886680" data-name="Trazado 886680" d="M854.41,71.7a.855.855,0,0,1-.491-.155l-19.671-13.71a.861.861,0,1,1,.984-1.414L854.9,70.127a.862.862,0,0,1-.493,1.568" transform="translate(-602.884 -40.677)" fill="#93acbf"/>
        <path id="Trazado_886681" data-name="Trazado 886681" d="M834.741,121.19a.862.862,0,0,1-.494-1.568l19.671-13.71a.862.862,0,0,1,.986,1.414l-19.671,13.71a.859.859,0,0,1-.492.155" transform="translate(-602.884 -76.461)" fill="#93acbf"/>
        <path id="Trazado_886682" data-name="Trazado 886682" d="M854.41,121.19a.859.859,0,0,1-.492-.155l-19.672-13.71a.862.862,0,0,1,.986-1.414l19.672,13.71a.862.862,0,0,1-.494,1.568" transform="translate(-602.884 -76.46)" fill="#93acbf"/>
        <path id="Trazado_886683" data-name="Trazado 886683" d="M834.741,170.682a.862.862,0,0,1-.493-1.568l19.671-13.71a.861.861,0,1,1,.985,1.414l-19.671,13.71a.855.855,0,0,1-.491.155" transform="translate(-602.884 -112.243)" fill="#93acbf"/>
        <path id="Trazado_886684" data-name="Trazado 886684" d="M854.41,170.682a.854.854,0,0,1-.491-.155l-19.671-13.71a.861.861,0,1,1,.984-1.414l19.671,13.71a.862.862,0,0,1-.493,1.568" transform="translate(-602.884 -112.242)" fill="#93acbf"/>
        <path id="Trazado_886685" data-name="Trazado 886685" d="M834.741,220.176a.862.862,0,0,1-.494-1.568l19.671-13.71a.862.862,0,0,1,.986,1.414l-19.671,13.71a.859.859,0,0,1-.492.155" transform="translate(-602.884 -148.026)" fill="#93acbf"/>
        <path id="Trazado_886686" data-name="Trazado 886686" d="M854.41,220.175a.859.859,0,0,1-.492-.155l-19.672-13.71a.862.862,0,0,1,.986-1.414l19.672,13.71a.862.862,0,0,1-.494,1.568" transform="translate(-602.884 -148.025)" fill="#93acbf"/>
        <path id="Trazado_886687" data-name="Trazado 886687" d="M834.741,269.669a.861.861,0,0,1-.493-1.568l19.671-13.71a.861.861,0,1,1,.985,1.414l-19.671,13.71a.855.855,0,0,1-.491.155" transform="translate(-602.884 -183.809)" fill="#93acbf"/>
        <path id="Trazado_886688" data-name="Trazado 886688" d="M854.41,269.668a.855.855,0,0,1-.491-.155L834.247,255.8a.861.861,0,1,1,.984-1.414L854.9,268.1a.861.861,0,0,1-.493,1.568" transform="translate(-602.884 -183.809)" fill="#93acbf"/>
        <path id="Trazado_886689" data-name="Trazado 886689" d="M834.741,319.161a.862.862,0,0,1-.494-1.568l19.671-13.71a.862.862,0,0,1,.986,1.414l-19.671,13.71a.861.861,0,0,1-.492.155" transform="translate(-602.884 -219.591)" fill="#93acbf"/>
        <path id="Trazado_886690" data-name="Trazado 886690" d="M854.41,319.161a.861.861,0,0,1-.492-.155L834.247,305.3a.862.862,0,0,1,.986-1.414l19.672,13.71a.862.862,0,0,1-.494,1.568" transform="translate(-602.884 -219.591)" fill="#93acbf"/>
        <path id="Trazado_886691" data-name="Trazado 886691" d="M834.741,368.656a.862.862,0,0,1-.493-1.568l19.671-13.71a.861.861,0,1,1,.985,1.414L835.233,368.5a.855.855,0,0,1-.491.155" transform="translate(-602.884 -255.376)" fill="#93acbf"/>
        <path id="Trazado_886692" data-name="Trazado 886692" d="M854.41,368.654a.855.855,0,0,1-.491-.155l-19.671-13.71a.861.861,0,1,1,.984-1.414l19.671,13.71a.862.862,0,0,1-.493,1.568" transform="translate(-602.884 -255.374)" fill="#93acbf"/>
        <path id="Trazado_886693" data-name="Trazado 886693" d="M834.741,418.147a.862.862,0,0,1-.494-1.568l19.671-13.71a.862.862,0,0,1,.986,1.414l-19.671,13.71a.859.859,0,0,1-.492.155" transform="translate(-602.884 -291.157)" fill="#93acbf"/>
        <path id="Trazado_886694" data-name="Trazado 886694" d="M854.41,418.146a.859.859,0,0,1-.492-.155l-19.672-13.71a.862.862,0,0,1,.986-1.414l19.672,13.71a.862.862,0,0,1-.494,1.568" transform="translate(-602.884 -291.156)" fill="#93acbf"/>
        <path id="Trazado_886695" data-name="Trazado 886695" d="M834.741,467.64a.862.862,0,0,1-.493-1.568l19.671-13.71a.861.861,0,1,1,.985,1.414l-19.671,13.71a.855.855,0,0,1-.491.155" transform="translate(-602.884 -326.94)" fill="#93acbf"/>
        <path id="Trazado_886696" data-name="Trazado 886696" d="M854.41,467.639a.855.855,0,0,1-.491-.155l-19.671-13.71a.861.861,0,1,1,.984-1.414l19.671,13.71a.862.862,0,0,1-.493,1.568" transform="translate(-602.884 -326.939)" fill="#93acbf"/>
        <path id="Trazado_886697" data-name="Trazado 886697" d="M834.741,517.132a.862.862,0,0,1-.494-1.568l19.671-13.71a.862.862,0,0,1,.986,1.414l-19.671,13.71a.86.86,0,0,1-.492.155" transform="translate(-602.884 -362.722)" fill="#93acbf"/>
        <path id="Trazado_886698" data-name="Trazado 886698" d="M854.41,517.131a.859.859,0,0,1-.492-.155l-19.672-13.71a.862.862,0,0,1,.986-1.414l19.672,13.71a.862.862,0,0,1-.494,1.568" transform="translate(-602.884 -362.721)" fill="#93acbf"/>
        <path id="Trazado_886699" data-name="Trazado 886699" d="M817.658,579.208a.861.861,0,0,1-.631-1.448l24.4-26.286a.861.861,0,1,1,1.262,1.172l-24.4,26.286a.856.856,0,0,1-.631.276" transform="translate(-590.534 -398.509)" fill="#93acbf"/>
        <path id="Trazado_886700" data-name="Trazado 886700" d="M859,579.209a.86.86,0,0,1-.633-.277l-24.257-26.286a.862.862,0,0,1,1.267-1.169l24.257,26.286a.862.862,0,0,1-.634,1.446" transform="translate(-602.884 -398.511)" fill="#93acbf"/>
        <path id="Trazado_886701" data-name="Trazado 886701" d="M796.5,680.374a.861.861,0,0,1-.588-1.491l34.851-32.561a.862.862,0,0,1,1.176,1.26l-34.851,32.56a.855.855,0,0,1-.588.232" transform="translate(-575.235 -467.116)" fill="#93acbf"/>
        <path id="Trazado_886702" data-name="Trazado 886702" d="M852.653,680.375a.862.862,0,0,1-.587-.23l-35-32.561a.862.862,0,1,1,1.175-1.261l35,32.56a.862.862,0,0,1-.587,1.492" transform="translate(-590.533 -467.116)" fill="#93acbf"/>
        <path id="Trazado_886703" data-name="Trazado 886703" d="M826.9,801.429H773.054a.862.862,0,0,1-.523-1.547l26.024-19.826-19.53-14.878a.862.862,0,0,1,1.045-1.371l19.907,15.167,19.906-15.167a.862.862,0,0,1,1.045,1.371L801.4,780.056l26.025,19.826a.862.862,0,0,1-.522,1.547m-51.294-1.723h48.741l-24.371-18.567Z" transform="translate(-558.285 -552.096)" fill="#93acbf"/>
        <path id="Trazado_886704" data-name="Trazado 886704" d="M752.13,1182.648a.859.859,0,0,1-.595-.238l-26.241-25.059a.861.861,0,0,1,.595-1.485h79.977a.861.861,0,0,1,.595,1.485l-26.243,25.059a.862.862,0,0,1-1.19-1.247l24.688-23.574H728.039l24.686,23.574a.862.862,0,0,1-.6,1.485" transform="translate(-524.186 -835.677)" fill="#93acbf"/>
        <path id="Trazado_886705" data-name="Trazado 886705" d="M817.319,1014.874H751.574a.862.862,0,0,1,0-1.723h65.746a.862.862,0,0,1,0,1.723" transform="translate(-542.756 -732.496)" fill="#93acbf"/>
        <path id="Trazado_886706" data-name="Trazado 886706" d="M725.65,1281.748a.859.859,0,0,1-.624-.267l-18.606-19.5a.862.862,0,0,1,1.247-1.19l18.606,19.5a.862.862,0,0,1-.624,1.456" transform="translate(-510.561 -911.345)" fill="#93acbf"/>
        <path id="Trazado_886707" data-name="Trazado 886707" d="M966.275,1281.75a.862.862,0,0,1-.623-1.457l18.607-19.5a.862.862,0,0,1,1.247,1.19l-18.607,19.5a.858.858,0,0,1-.624.267" transform="translate(-697.982 -911.347)" fill="#93acbf"/>
        <path id="Trazado_886708" data-name="Trazado 886708" d="M745.553,529.909a.845.845,0,0,1-.255-.039l-12.638-3.911v3.086a.862.862,0,0,1-1.723,0V524.79a.862.862,0,0,1,1.117-.823l12.638,3.912v-7.65a.862.862,0,0,1,1.3-.74l14.761,8.816a.861.861,0,0,1-.883,1.479l-13.458-8.037v7.3a.861.861,0,0,1-.861.861" transform="translate(-528.458 -375.496)" fill="#93acbf"/>
        <path id="Trazado_886709" data-name="Trazado 886709" d="M920.513,529.909a.861.861,0,0,1-.862-.861v-7.3l-13.457,8.037a.862.862,0,0,1-.884-1.479l14.761-8.816a.862.862,0,0,1,1.3.74v7.65l12.639-3.912a.862.862,0,0,1,1.117.823v4.255a.862.862,0,0,1-1.723,0v-3.086l-12.639,3.911a.849.849,0,0,1-.255.039" transform="translate(-654.225 -375.496)" fill="#93acbf"/>
        <path id="Trazado_886710" data-name="Trazado 886710" d="M920.513,133.959a.861.861,0,0,1-.862-.862v-7.3l-13.457,8.037a.862.862,0,0,1-.884-1.479l14.761-8.816a.862.862,0,0,1,1.3.74v7.649l12.639-3.912a.862.862,0,0,1,1.117.823V133.1a.862.862,0,0,1-1.723,0v-3.086l-12.639,3.911a.856.856,0,0,1-.255.039" transform="translate(-654.225 -89.23)" fill="#93acbf"/>
        <path id="Trazado_886711" data-name="Trazado 886711" d="M745.553,133.959a.852.852,0,0,1-.255-.039l-12.638-3.911V133.1a.862.862,0,0,1-1.723,0V128.84a.862.862,0,0,1,1.117-.823l12.638,3.912V124.28a.862.862,0,0,1,1.3-.74l14.761,8.816a.861.861,0,0,1-.883,1.479L746.414,125.8v7.3a.861.861,0,0,1-.861.862" transform="translate(-528.458 -89.23)" fill="#93acbf"/>
        <path id="Trazado_886712" data-name="Trazado 886712" d="M921.009,64.591a.861.861,0,0,1-.342-.071l-15.256-6.6a.861.861,0,1,1,.685-1.581l14.052,6.082V57.126a.861.861,0,1,1,1.723,0v6.6a.862.862,0,0,1-.861.862" transform="translate(-654.225 -40.678)" fill="#93acbf"/>
        <path id="Trazado_886713" data-name="Trazado 886713" d="M779.667,64.59a.861.861,0,0,1-.862-.862v-6.6a.862.862,0,0,1,1.723,0v5.292l14.052-6.082a.861.861,0,1,1,.685,1.581l-15.256,6.6a.861.861,0,0,1-.342.071" transform="translate(-563.066 -40.678)" fill="#93acbf"/>
        <path id="Trazado_886714" data-name="Trazado 886714" d="M740.971,373.425a.854.854,0,0,1-.5-.161l-15.264-10.908v10.17a.861.861,0,0,1-1.112.824l-18.188-5.536v4.711a.862.862,0,0,1-1.723,0v-5.874a.861.861,0,0,1,1.112-.824l18.188,5.535V360.682a.861.861,0,0,1,1.362-.7l16.626,11.882a.861.861,0,0,1-.5,1.562" transform="translate(-509.116 -260.145)" fill="#93acbf"/>
        <path id="Trazado_886715" data-name="Trazado 886715" d="M905.753,373.425a.861.861,0,0,1-.5-1.562l16.627-11.882a.861.861,0,0,1,1.362.7v10.682l18.188-5.535a.861.861,0,0,1,1.112.824v5.874a.862.862,0,0,1-1.723,0v-4.711l-18.188,5.536a.861.861,0,0,1-1.112-.824v-10.17l-15.264,10.908a.854.854,0,0,1-.5.161" transform="translate(-654.224 -260.145)" fill="#93acbf"/>
        <path id="Trazado_886716" data-name="Trazado 886716" d="M1100.286,145.366a14.558,14.558,0,0,0,0-20.6l1.479-1.479a16.648,16.648,0,0,1,0,23.558Z" transform="translate(-795.493 -89.135)" fill="#e5f0f8"/>
        <path id="Trazado_886717" data-name="Trazado 886717" d="M1131.329,131.591a26.7,26.7,0,0,0,0-37.712l1.479-1.479a28.791,28.791,0,0,1,0,40.67Z" transform="translate(-817.937 -66.804)" fill="#e5f0f8"/>
        <path id="Trazado_886718" data-name="Trazado 886718" d="M1161.078,118.3a38.389,38.389,0,0,0,0-54.228l1.479-1.479a40.414,40.414,0,0,1,0,57.186Z" transform="translate(-839.445 -45.251)" fill="#e5f0f8"/>
        <path id="Trazado_886719" data-name="Trazado 886719" d="M624.075,145.366a14.557,14.557,0,0,1,0-20.6l-1.479-1.479a16.648,16.648,0,0,0,0,23.558Z" transform="translate(-446.599 -89.135)" fill="#e5f0f8"/>
        <path id="Trazado_886720" data-name="Trazado 886720" d="M583.827,131.591a26.7,26.7,0,0,1,0-37.712L582.348,92.4a28.79,28.79,0,0,0,0,40.67Z" transform="translate(-414.951 -66.804)" fill="#e5f0f8"/>
        <path id="Trazado_886721" data-name="Trazado 886721" d="M545.091,118.3a38.389,38.389,0,0,1,0-54.228l-1.479-1.479a40.414,40.414,0,0,0,0,57.186Z" transform="translate(-384.455 -45.251)" fill="#e5f0f8"/>
        <path id="Trazado_886722" data-name="Trazado 886722" d="M176.953,0H39.595A39.707,39.707,0,0,0,0,39.575V358.661a39.711,39.711,0,0,0,39.595,39.594H176.953a39.711,39.711,0,0,0,39.594-39.594V39.575A39.707,39.707,0,0,0,176.953,0m11.3,46.562H28.3V39.3a11.307,11.307,0,0,1,11.3-11.3H176.953a11.307,11.307,0,0,1,11.3,11.3Z" fill="#586773"/>
        <path id="Trazado_886723" data-name="Trazado 886723" d="M213.882,50.027H76.524A25.471,25.471,0,0,0,51.078,75.472V394.539A25.488,25.488,0,0,0,76.524,420H213.882a25.5,25.5,0,0,0,25.465-25.465V75.472a25.488,25.488,0,0,0-25.465-25.445m11.3,32.7H65.227V75.472a11.307,11.307,0,0,1,11.3-11.3H213.882a11.307,11.307,0,0,1,11.3,11.3Z" transform="translate(-36.929 -36.169)" fill="#e5f0f8"/>
        <path id="Trazado_886724" data-name="Trazado 886724" d="M262.107,112.4v7.259H102.156V112.4a11.307,11.307,0,0,1,11.3-11.3H250.81a11.307,11.307,0,0,1,11.3,11.3" transform="translate(-73.858 -73.098)" fill="#bbdbf3"/>
        <path id="Trazado_886725" data-name="Trazado 886725" d="M262.107,168.088V479.9a11.307,11.307,0,0,1-11.3,11.3H113.452a11.307,11.307,0,0,1-11.3-11.3V168.088Z" transform="translate(-73.858 -121.526)" fill="#fff"/>
        <path id="Trazado_886726" data-name="Trazado 886726" d="M150.812,122.564a4.61,4.61,0,1,1-4.61-4.61,4.61,4.61,0,0,1,4.61,4.61" transform="translate(-102.369 -85.279)" fill="#40a87b"/>
        <path id="Trazado_886727" data-name="Trazado 886727" d="M197.658,122.564a4.61,4.61,0,1,1-4.61-4.61,4.61,4.61,0,0,1,4.61,4.61" transform="translate(-136.238 -85.279)" fill="#fff"/>
        <path id="Trazado_886728" data-name="Trazado 886728" d="M244.5,122.564a4.61,4.61,0,1,1-4.61-4.61,4.61,4.61,0,0,1,4.61,4.61" transform="translate(-170.107 -85.279)" fill="#f35923"/>
        <rect id="Rectángulo_403605" data-name="Rectángulo 403605" width="10.356" height="93.637" transform="translate(37.507 73.558)" fill="#bbdbf3"/>
        <rect id="Rectángulo_403606" data-name="Rectángulo 403606" width="10.356" height="93.637" transform="translate(59.37 73.558)" fill="#bbdbf3"/>
        <rect id="Rectángulo_403607" data-name="Rectángulo 403607" width="10.356" height="51.781" transform="translate(59.37 115.414)" fill="#016835"/>
        <rect id="Rectángulo_403608" data-name="Rectángulo 403608" width="10.356" height="93.637" transform="translate(81.233 73.558)" fill="#bbdbf3"/>
        <rect id="Rectángulo_403609" data-name="Rectángulo 403609" width="10.356" height="69.904" transform="translate(81.233 97.291)" fill="#016835"/>
        <rect id="Rectángulo_403610" data-name="Rectángulo 403610" width="10.356" height="93.637" transform="translate(103.096 73.558)" fill="#bbdbf3"/>
        <rect id="Rectángulo_403611" data-name="Rectángulo 403611" width="10.356" height="38.188" transform="translate(103.096 129.007)" fill="#016835"/>
        <rect id="Rectángulo_403612" data-name="Rectángulo 403612" width="10.356" height="93.637" transform="translate(124.959 73.558)" fill="#bbdbf3"/>
        <rect id="Rectángulo_403613" data-name="Rectángulo 403613" width="10.356" height="78.966" transform="translate(124.959 88.229)" fill="#016835"/>
        <rect id="Rectángulo_403614" data-name="Rectángulo 403614" width="10.356" height="93.637" transform="translate(146.822 73.558)" fill="#bbdbf3"/>
        <rect id="Rectángulo_403615" data-name="Rectángulo 403615" width="10.356" height="39.819" transform="translate(146.822 127.377)" fill="#016835"/>
        <rect id="Rectángulo_403616" data-name="Rectángulo 403616" width="10.356" height="93.637" transform="translate(168.685 73.558)" fill="#bbdbf3"/>
        <rect id="Rectángulo_403617" data-name="Rectángulo 403617" width="10.356" height="26.106" transform="translate(168.685 141.089)" fill="#016835"/>
        <rect id="Rectángulo_403618" data-name="Rectángulo 403618" width="10.356" height="27.586" transform="translate(37.507 139.609)" fill="#016835"/>
        <path id="Trazado_886729" data-name="Trazado 886729" d="M205.589,693.315a64.962,64.962,0,0,0-34.961,103.736l50.651-40.679Z" transform="translate(-113.005 -501.258)" fill="#fabca7"/>
        <path id="Trazado_886730" data-name="Trazado 886730" d="M388.816,699.316a65.02,65.02,0,0,0-54.593-11.01l15.69,63.057Z" transform="translate(-241.639 -496.249)" fill="#c3471c"/>
        <path id="Trazado_886731" data-name="Trazado 886731" d="M455.79,783.15a64.87,64.87,0,0,0-26.024-50.088l-38.9,52.047Z" transform="translate(-282.589 -529.995)" fill="#38b449"/>
        <path id="Trazado_886732" data-name="Trazado 886732" d="M455.79,913.878l-64.927,1.958,46.108,45.774a64.765,64.765,0,0,0,18.868-45.774c0-.657-.03-1.306-.05-1.958" transform="translate(-282.589 -660.723)" fill="#b1e5ff"/>
        <path id="Trazado_886733" data-name="Trazado 886733" d="M410.894,982.762a64.963,64.963,0,0,0,26.077-16.041l-46.108-45.774Z" transform="translate(-282.589 -665.833)" fill="#99c2ae"/>
        <path id="Trazado_886734" data-name="Trazado 886734" d="M208.017,961.627A64.971,64.971,0,0,0,278.7,982.763l-20.031-61.815Z" transform="translate(-150.394 -665.834)" fill="#016835"/>
        <path id="Trazado_886735" data-name="Trazado 886735" d="M685.548,797.105c-.334.592,2.354,3.713,4.929,5.265,2.181,1.317,7.535,3.813,9.118,4.537l4.372-6.825a20.835,20.835,0,0,1-2.265-2.144c-1.591-1.8-6.472-6.188-7.1-5.474s2.112,4.39,1.6,4.471-3.149-2.155-4.193-3.2-2.945-3.635-3.8-3.5-.991,1.4-.991,1.4-.608-1.076-1.211-.573-.075,2.413-.075,2.413-.266-.631-.791.085,1.234,3.3,1.234,3.3a.548.548,0,0,0-.831.249" transform="translate(-495.281 -571.327)" fill="#fdae97"/>
        <path id="Trazado_886736" data-name="Trazado 886736" d="M906.209,668.911c5.672.493,10.6,5.314,10.667,12.2s1.318,10.428,5.48,9.627c0,0-11.659,6.761-27.022.8,0,0,1.926-2.283,2.2-7.454s8.679-15.168,8.679-15.168" transform="translate(-647.316 -483.615)" fill="#322a28"/>
        <path id="Trazado_886737" data-name="Trazado 886737" d="M816.665,815.332h0a7.485,7.485,0,0,0,10.108-3.035L841.4,785.13a7.463,7.463,0,0,0-13.143-7.074L813.63,805.224a7.485,7.485,0,0,0,3.035,10.108" transform="translate(-587.604 -559.69)" fill="#013f20"/>
        <path id="Trazado_886738" data-name="Trazado 886738" d="M882.663,955.487c4.886,6.4,6.727,19.661,3.611,33.948s-4.168,23.68-4.168,23.68a12.065,12.065,0,1,1-23.951-2.941l4.968-54.688Z" transform="translate(-620.371 -690.805)" fill="#923615"/>
        <path id="Trazado_886739" data-name="Trazado 886739" d="M887.537,766.16l13.06,5.915s-2.9,33.621-3.2,37.3a41.881,41.881,0,0,0,.826,9.232h-31.3s.375-18.014-1.726-23.042c-1.424-3.407-2.4-5.479-1.576-9.382s6.867-10.8,5.891-17.558l6.813-2.182Z" transform="translate(-624.167 -553.924)" fill="#013f20"/>
        <path id="Trazado_886740" data-name="Trazado 886740" d="M981.869,829.058h0a7.485,7.485,0,0,0,4.442-9.574L975.7,790.513a7.463,7.463,0,0,0-14.016,5.132L972.3,824.617a7.485,7.485,0,0,0,9.574,4.442" transform="translate(-694.961 -567.992)" fill="#013f20"/>
        <path id="Trazado_886741" data-name="Trazado 886741" d="M903.626,680.961s-1.777-4.372,2.495-5.7Z" transform="translate(-653.046 -488.208)" fill="#332b27"/>
        <path id="Trazado_886742" data-name="Trazado 886742" d="M910.274,712.322v15.192a4.253,4.253,0,0,0,4.263,3.628,7.552,7.552,0,0,0,6.513-3.192l.483-.706.012-.012-1.614-14.91Z" transform="translate(-658.117 -515)" fill="#fdae97"/>
        <path id="Trazado_886743" data-name="Trazado 886743" d="M910.272,741.811l6.734-7.322-6.738,2.531Z" transform="translate(-658.112 -531.026)" fill="#e89780"/>
        <path id="Trazado_886744" data-name="Trazado 886744" d="M906.155,689.261c-3.148,1.856-6.862,1.853-9.1.347s-1.874-4.951-1.206-7.143l0-.017c.139-.453.337-1.091.557-1.813.857-2.832,2.122-7.025,2.122-7.025.554-2.216,6.9-7.2,12.911-.7s-2.139,14.5-5.287,16.351" transform="translate(-647.316 -484.177)" fill="#fdae97"/>
        <path id="Trazado_886745" data-name="Trazado 886745" d="M907.6,672.152s.082,2.655,3.8,4.43,7.251,4.488,6.806,8.409a10.281,10.281,0,0,0,.9,6.134,25.658,25.658,0,0,1,3.019-9.026,8.485,8.485,0,0,0,.206-7.913c-2.506-4.608-8.974-8.108-14.733-2.035" transform="translate(-656.182 -483.615)" fill="#322a28"/>
        <path id="Trazado_886746" data-name="Trazado 886746" d="M941.76,719.865c-.8,1.182-1.028,2.023-.1,2.652a2.448,2.448,0,0,0,3.3-.7,2.358,2.358,0,0,0-.232-3.278c-.928-.628-2.172.147-2.972,1.329" transform="translate(-680.372 -519.33)" fill="#fdae97"/>
        <path id="Trazado_886747" data-name="Trazado 886747" d="M947.351,724.618a1.743,1.743,0,0,0-1.458-.039c.538-1.349,2.158-.8,2.158-.8" transform="translate(-683.869 -523.203)" fill="none" stroke="#e89780" stroke-linecap="round" stroke-linejoin="round" stroke-width="0.64"/>
        <path id="Trazado_886748" data-name="Trazado 886748" d="M919.1,708.276c-.148.531-.546.885-.89.789s-.5-.6-.355-1.135.546-.885.89-.789.5.6.355,1.135" transform="translate(-663.56 -511.243)" fill="#2c3447"/>
        <path id="Trazado_886749" data-name="Trazado 886749" d="M903.764,702.517c-.136.491-.5.817-.822.729s-.464-.558-.328-1.048.5-.817.822-.729.464.558.328,1.049" transform="translate(-652.542 -507.143)" fill="#2c3447"/>
        <path id="Trazado_886750" data-name="Trazado 886750" d="M842.764,1190.391h21.2l7.278-62.312.093-1.426a12.027,12.027,0,0,0-12.4-12.03,12.161,12.161,0,0,0-11.667,11.331Z" transform="translate(-609.308 -805.854)" fill="#923615"/>
        <path id="Trazado_886751" data-name="Trazado 886751" d="M923.647,704.342s-.7-1.621-2.075-1.487" transform="translate(-666.285 -508.15)" fill="none" stroke="#2c3447" stroke-miterlimit="10" stroke-width="0.95"/>
        <path id="Trazado_886752" data-name="Trazado 886752" d="M904.376,698.2a1.993,1.993,0,0,0-1.793.25" transform="translate(-652.557 -504.712)" fill="none" stroke="#2c3447" stroke-miterlimit="10" stroke-width="0.95"/>
        <path id="Trazado_886753" data-name="Trazado 886753" d="M955.741,1190.382h20.23l-6.421-64.362-.019-.224a12.04,12.04,0,0,0-24.051.848,10.467,10.467,0,0,0,.056,1.09Z" transform="translate(-683.572 -805.845)" fill="#c3471c"/>
        <path id="Trazado_886754" data-name="Trazado 886754" d="M730.161,833.349l24.757,15.665,1.465,1.216c2.986,2.069,7.361.993,9.711-2.4s1.818-7.858-1.167-9.927L737.2,822.364l-.614.95-4.372,6.825Z" transform="translate(-527.897 -594.559)" fill="#f9e181"/>
        <path id="Trazado_886755" data-name="Trazado 886755" d="M907.031,706.725s-.793,2.616-2.427,2.509a3.387,3.387,0,0,0,.932.939" transform="translate(-654.017 -510.953)" fill="none" stroke="#2c3447" stroke-miterlimit="10" stroke-width="0.95"/>
        <path id="Trazado_886756" data-name="Trazado 886756" d="M911.763,955.508l.283,1.755,9.08,55.482a12.067,12.067,0,1,0,24-2.52s-1.095-9.387-1.272-24.014c-.141-11.33-2.709-20.469-6.748-26.381a21.021,21.021,0,0,0-3.863-4.322Z" transform="translate(-659.193 -690.821)" fill="#c3471c"/>
        <path id="Trazado_886757" data-name="Trazado 886757" d="M904.823,725.917a2.523,2.523,0,0,0,3.277-.349" transform="translate(-654.176 -524.577)" fill="none" stroke="#2c3447" stroke-miterlimit="10" stroke-width="0.95"/>
        <path id="Trazado_886758" data-name="Trazado 886758" d="M921.124,717.087c.016.574-.885,1.066-2.011,1.1s-2.053-.409-2.069-.984.885-1.065,2.011-1.1,2.053.409,2.069.984" transform="translate(-663.012 -517.733)" fill="#e89780"/>
        <path id="Trazado_886759" data-name="Trazado 886759" d="M898.389,710.746c-.181.306-.64.392-1.19.272.139-.453.337-1.091.557-1.813.591.54.871,1.159.633,1.54" transform="translate(-648.664 -512.747)" fill="#e89780"/>
        <path id="Trazado_886760" data-name="Trazado 886760" d="M941.583,731.708a.918.918,0,1,0,1.124-.65A.918.918,0,0,0,941.583,731.708Z" transform="translate(-680.731 -528.523)" fill="none" stroke="#fff" stroke-miterlimit="10" stroke-width="0.841"/>
        <path id="Trazado_886761" data-name="Trazado 886761" d="M1014.182,1401.814H998.565l-2.026-3.086.046,3.086h-3.439l.308-8.915-.754-4.758h12.719l.047,4.758Z" transform="translate(-717.71 -1003.608)" fill="#fdae97"/>
        <path id="Trazado_886762" data-name="Trazado 886762" d="M908.537,766.943l.787,15.973,10.47-15.475a7.551,7.551,0,0,1-6.513,3.191,5.113,5.113,0,0,1-4.744-3.689" transform="translate(-656.861 -554.49)" fill="#e5f0f8"/>
        <path id="Trazado_886763" data-name="Trazado 886763" d="M930.237,763.034l-7.807,4.645,1.65,2.889,7.259-6.187Z" transform="translate(-666.905 -551.664)" fill="#fff"/>
        <path id="Trazado_886764" data-name="Trazado 886764" d="M908.231,765.439l3.365,3.979-2.032,2.452-2.119-5.7Z" transform="translate(-656.071 -553.403)" fill="#fff"/>
        <path id="Trazado_886765" data-name="Trazado 886765" d="M733.587,859.856l42.042,1.763-9.652-31.943-42.042-1.763Z" transform="translate(-523.396 -598.571)" fill="#a5bbd6"/>
        <path id="Trazado_886766" data-name="Trazado 886766" d="M799.4,909.32l14.258-11.584-40.665-1.706-15.636,11.526Z" transform="translate(-547.558 -647.819)" fill="#89a5c7"/>
        <path id="Trazado_886767" data-name="Trazado 886767" d="M736.559,857.461l42.042,1.763-9.652-31.943-42.042-1.763Z" transform="translate(-525.545 -596.839)" fill="#a5bbd6"/>
        <path id="Trazado_886768" data-name="Trazado 886768" d="M724.758,825.518l-.823.663,42.042,1.763,9.652,31.943.823-.663L766.8,827.281Z" transform="translate(-523.396 -596.839)" fill="#89a5c7"/>
        <path id="Trazado_886769" data-name="Trazado 886769" d="M923.19,902.188l.394,1.548-14.258,11.584-.468-1.551Z" transform="translate(-657.093 -652.271)" fill="#586773"/>
        <path id="Trazado_886770" data-name="Trazado 886770" d="M793.959,884.172c-.048,1.139,2,2.151,4.575,2.259s4.7-.728,4.748-1.868-2-2.151-4.575-2.258-4.7.728-4.748,1.868" transform="translate(-574.022 -637.889)" fill="#89a5c7"/>
        <path id="Trazado_886771" data-name="Trazado 886771" d="M827.564,1401.814l3.734-2.779-.318,2.779h3.474l1.707-8.915.919-4.758H823.607l-.518,4.758-10.812,8.915Z" transform="translate(-587.267 -1003.608)" fill="#fdae97"/>
        <path id="Trazado_886772" data-name="Trazado 886772" d="M1006.63,1405.317l8.715,8.915H999.729l-2.026-3.086.046,3.086H994.31l.308-8.915Z" transform="translate(-718.874 -1016.027)" fill="#322a28"/>
        <path id="Trazado_886773" data-name="Trazado 886773" d="M827.564,1414.232l3.734-2.779-.318,2.779h3.474l1.707-8.915H823.089l-10.812,8.915Z" transform="translate(-587.267 -1016.027)" fill="#322a28"/>
        <path id="Trazado_886774" data-name="Trazado 886774" d="M844.558,909.137c-.61.621.046,1.714.046,1.714s-1.136-.5-1.307.26c-.167.706,1.173,1.822,1.348,1.966-.127-.062-.56-.214-.547.558.008.851,2.68,1.8,2.932,1.885a.556.556,0,0,0-.5.7c.1.684,4.116,1.574,7.105,1.282,2.521-.252,8.275-1.47,10-1.837l-.455-8.07a20.223,20.223,0,0,1-3.2-.373c-2.357-.492-8.894-1.078-8.973-.127s4.321,2.254,3.962,2.619-3.808.16-5.267-.04c-1.474-.206-4.543-1.156-5.141-.539" transform="translate(-609.683 -655.453)" fill="#fdae97"/>
        <path id="Trazado_886775" data-name="Trazado 886775" d="M914.59,893.974l.142,2.439.455,8.07.12,2.142,31.287-.518c3.631-.125,6.49-3.6,6.353-7.723-.152-4.13-3.245-7.388-6.887-7.259l-2.358.4-.011,0Z" transform="translate(-661.237 -644.269)" fill="#013f20"/>
        <path id="Trazado_886776" data-name="Trazado 886776" d="M935.794,874.483l14.935-1.254-3.07-8.385" transform="translate(-676.568 -625.272)" fill="none" stroke="#2c3447" stroke-miterlimit="10" stroke-width="0.95"/>
        <line id="Línea_758" data-name="Línea 758" x2="6.788" transform="translate(273.608 262.032)" fill="none" stroke="#2c3447" stroke-miterlimit="10" stroke-width="0.95"/>
        <path id="Trazado_886777" data-name="Trazado 886777" d="M915.5,706.963a1.491,1.491,0,1,0,2.127-1.051A1.709,1.709,0,0,0,915.5,706.963Z" transform="translate(-661.716 -510.281)" fill="none" stroke="#fff" stroke-miterlimit="10" stroke-width="1.238"/>
        <path id="Trazado_886778" data-name="Trazado 886778" d="M900.1,701.064a1.492,1.492,0,1,0,2.127-1.051A1.71,1.71,0,0,0,900.1,701.064Z" transform="translate(-650.581 -506.016)" fill="none" stroke="#fff" stroke-miterlimit="10" stroke-width="1.238"/>
        <line id="Línea_759" data-name="Línea 759" x1="1.729" y1="0.594" transform="translate(252.309 195.688)" fill="none" stroke="#fff" stroke-miterlimit="10" stroke-width="1.238"/>
      </g>
    </g>
    <g id="Grupo_1102492" data-name="Grupo 1102492" transform="translate(346.144 2799.604)">
      <g id="Grupo_1098724" data-name="Grupo 1098724" transform="translate(0 0)">
        <g id="Grupo_1098723" data-name="Grupo 1098723" clip-path="url(#clip-path-2)">
          <path id="Trazado_872910" data-name="Trazado 872910" d="M4.514,2.257A2.257,2.257,0,1,1,2.257,0,2.257,2.257,0,0,1,4.514,2.257" fill="#f8cd20"/>
          <path id="Trazado_872911" data-name="Trazado 872911" d="M33.468,2.257A2.257,2.257,0,1,1,31.211,0a2.257,2.257,0,0,1,2.257,2.257" transform="translate(-7.243)" fill="#f8cd20"/>
          <path id="Trazado_872912" data-name="Trazado 872912" d="M62.421,2.257A2.257,2.257,0,1,1,60.164,0a2.257,2.257,0,0,1,2.257,2.257" transform="translate(-14.486)" fill="#f8cd20"/>
          <path id="Trazado_872913" data-name="Trazado 872913" d="M91.374,2.257A2.257,2.257,0,1,1,89.117,0a2.257,2.257,0,0,1,2.257,2.257" transform="translate(-21.729)" fill="#f8cd20"/>
          <path id="Trazado_872914" data-name="Trazado 872914" d="M120.328,2.257A2.257,2.257,0,1,1,118.071,0a2.257,2.257,0,0,1,2.257,2.257" transform="translate(-28.972)" fill="#f8cd20"/>
          <path id="Trazado_872915" data-name="Trazado 872915" d="M149.281,2.257A2.257,2.257,0,1,1,147.024,0a2.257,2.257,0,0,1,2.257,2.257" transform="translate(-36.215)" fill="#f8cd20"/>
          <path id="Trazado_872916" data-name="Trazado 872916" d="M4.514,34.172a2.257,2.257,0,1,1-2.257-2.257,2.257,2.257,0,0,1,2.257,2.257" transform="translate(0 -7.984)" fill="#f8cd20"/>
          <path id="Trazado_872917" data-name="Trazado 872917" d="M33.468,34.172a2.257,2.257,0,1,1-2.257-2.257,2.257,2.257,0,0,1,2.257,2.257" transform="translate(-7.243 -7.984)" fill="#f8cd20"/>
          <path id="Trazado_872918" data-name="Trazado 872918" d="M62.421,34.172a2.257,2.257,0,1,1-2.257-2.257,2.257,2.257,0,0,1,2.257,2.257" transform="translate(-14.486 -7.984)" fill="#f8cd20"/>
          <path id="Trazado_872919" data-name="Trazado 872919" d="M91.374,34.172a2.257,2.257,0,1,1-2.257-2.257,2.257,2.257,0,0,1,2.257,2.257" transform="translate(-21.729 -7.984)" fill="#f8cd20"/>
          <path id="Trazado_872920" data-name="Trazado 872920" d="M120.328,34.172a2.257,2.257,0,1,1-2.257-2.257,2.258,2.258,0,0,1,2.257,2.257" transform="translate(-28.972 -7.984)" fill="#f8cd20"/>
          <path id="Trazado_872921" data-name="Trazado 872921" d="M149.281,34.172a2.257,2.257,0,1,1-2.257-2.257,2.257,2.257,0,0,1,2.257,2.257" transform="translate(-36.215 -7.984)" fill="#f8cd20"/>
          <path id="Trazado_872922" data-name="Trazado 872922" d="M4.514,66.087A2.257,2.257,0,1,1,2.257,63.83a2.257,2.257,0,0,1,2.257,2.257" transform="translate(0 -15.968)" fill="#f8cd20"/>
          <path id="Trazado_872923" data-name="Trazado 872923" d="M33.468,66.087a2.257,2.257,0,1,1-2.257-2.257,2.257,2.257,0,0,1,2.257,2.257" transform="translate(-7.243 -15.968)" fill="#f8cd20"/>
          <path id="Trazado_872924" data-name="Trazado 872924" d="M62.421,66.087a2.257,2.257,0,1,1-2.257-2.257,2.257,2.257,0,0,1,2.257,2.257" transform="translate(-14.486 -15.968)" fill="#f8cd20"/>
          <path id="Trazado_872925" data-name="Trazado 872925" d="M91.374,66.087a2.257,2.257,0,1,1-2.257-2.257,2.257,2.257,0,0,1,2.257,2.257" transform="translate(-21.729 -15.968)" fill="#f8cd20"/>
          <path id="Trazado_872926" data-name="Trazado 872926" d="M120.328,66.087a2.257,2.257,0,1,1-2.257-2.257,2.258,2.258,0,0,1,2.257,2.257" transform="translate(-28.972 -15.968)" fill="#f8cd20"/>
          <path id="Trazado_872927" data-name="Trazado 872927" d="M149.281,66.087a2.257,2.257,0,1,1-2.257-2.257,2.257,2.257,0,0,1,2.257,2.257" transform="translate(-36.215 -15.968)" fill="#f8cd20"/>
          <path id="Trazado_872928" data-name="Trazado 872928" d="M4.514,98a2.257,2.257,0,1,1-2.257-2.257A2.257,2.257,0,0,1,4.514,98" transform="translate(0 -23.951)" fill="#f8cd20"/>
          <path id="Trazado_872929" data-name="Trazado 872929" d="M33.468,98a2.257,2.257,0,1,1-2.257-2.257A2.257,2.257,0,0,1,33.468,98" transform="translate(-7.243 -23.951)" fill="#f8cd20"/>
          <path id="Trazado_872930" data-name="Trazado 872930" d="M62.421,98a2.257,2.257,0,1,1-2.257-2.257A2.257,2.257,0,0,1,62.421,98" transform="translate(-14.486 -23.951)" fill="#f8cd20"/>
          <path id="Trazado_872931" data-name="Trazado 872931" d="M91.374,98a2.257,2.257,0,1,1-2.257-2.257A2.257,2.257,0,0,1,91.374,98" transform="translate(-21.729 -23.951)" fill="#f8cd20"/>
          <path id="Trazado_872932" data-name="Trazado 872932" d="M120.328,98a2.257,2.257,0,1,1-2.257-2.257A2.258,2.258,0,0,1,120.328,98" transform="translate(-28.972 -23.951)" fill="#f8cd20"/>
          <path id="Trazado_872933" data-name="Trazado 872933" d="M149.281,98a2.257,2.257,0,1,1-2.257-2.257A2.257,2.257,0,0,1,149.281,98" transform="translate(-36.215 -23.951)" fill="#f8cd20"/>
          <path id="Trazado_872934" data-name="Trazado 872934" d="M4.514,129.917a2.257,2.257,0,1,1-2.257-2.257,2.257,2.257,0,0,1,2.257,2.257" transform="translate(0 -31.935)" fill="#f8cd20"/>
          <path id="Trazado_872935" data-name="Trazado 872935" d="M33.468,129.917a2.257,2.257,0,1,1-2.257-2.257,2.257,2.257,0,0,1,2.257,2.257" transform="translate(-7.243 -31.935)" fill="#f8cd20"/>
          <path id="Trazado_872936" data-name="Trazado 872936" d="M62.421,129.917a2.257,2.257,0,1,1-2.257-2.257,2.257,2.257,0,0,1,2.257,2.257" transform="translate(-14.486 -31.935)" fill="#f8cd20"/>
          <path id="Trazado_872937" data-name="Trazado 872937" d="M91.374,129.917a2.257,2.257,0,1,1-2.257-2.257,2.257,2.257,0,0,1,2.257,2.257" transform="translate(-21.729 -31.935)" fill="#f8cd20"/>
          <path id="Trazado_872938" data-name="Trazado 872938" d="M120.328,129.917a2.257,2.257,0,1,1-2.257-2.257,2.258,2.258,0,0,1,2.257,2.257" transform="translate(-28.972 -31.935)" fill="#f8cd20"/>
          <path id="Trazado_872939" data-name="Trazado 872939" d="M149.281,129.917a2.257,2.257,0,1,1-2.257-2.257,2.257,2.257,0,0,1,2.257,2.257" transform="translate(-36.215 -31.935)" fill="#f8cd20"/>
        </g>
      </g>
    </g>
  </g>
</svg>
