<svg xmlns="http://www.w3.org/2000/svg" xmlns:xlink="http://www.w3.org/1999/xlink" width="190" height="514.881" viewBox="0 0 190 514.881">
  <defs>
    <clipPath id="clip-path">
      <rect id="Rectángulo_403835" data-name="Rectángulo 403835" width="186.051" height="394.359" fill="none"/>
    </clipPath>
    <clipPath id="clip-path-2">
      <path id="Trazado_888527" data-name="Trazado 888527" d="M613.925,284.764c-2.048,19.25,12.622,41.958,21.495,53.722,3.732,4.95,6.438,7.963,6.438,7.963l-6.6,52.374,45.585,4.268s-.341-19.359.07-36.5c.283-11.73.919-22.422,2.258-25.18,3.3-6.789,19.01-47.331,20.562-58.775s-25.411-46.555-25.411-46.555l-7.371,6.4,11.639,40.929L672.506,310.37s-.1.05-.285.136a29.852,29.852,0,0,1-5.1,1.775,19.921,19.921,0,0,1-6.646.611c-3.327-.332-8.745-1.932-12.775-3.243-2.361-.766-4.246-1.433-4.958-1.69l-.306-.111-12.415-30.261L646.513,241.9l-7.759-8.923s-21.92,24.441-24.829,51.792" transform="translate(-613.731 -232.972)" fill="none"/>
    </clipPath>
  </defs>
  <g id="Grupo_1103024" data-name="Grupo 1103024" transform="translate(-1230 -1657.5)">
    <g id="Grupo_1102895" data-name="Grupo 1102895" transform="translate(0 -2856.911)">
      <path id="Rectángulo_403831" data-name="Rectángulo 403831" d="M83.5,0h0A83.5,83.5,0,0,1,167,83.5V502a0,0,0,0,1,0,0H0a0,0,0,0,1,0,0V83.5A83.5,83.5,0,0,1,83.5,0Z" transform="translate(1242.051 4527)" fill="#fcded3"/>
      <g id="Grupo_1102887" data-name="Grupo 1102887" transform="translate(210 -176.793)">
        <path id="Trazado_888482" data-name="Trazado 888482" d="M147.777,177.792a5.163,5.163,0,1,1,5.163-5.163,5.169,5.169,0,0,1-5.163,5.163m0-9.121a3.958,3.958,0,1,0,3.958,3.958,3.963,3.963,0,0,0-3.958-3.958" transform="translate(1048.445 4572.739)" fill="#f35923"/>
        <path id="Trazado_888483" data-name="Trazado 888483" d="M137.366,181.363a.6.6,0,0,1-.6-.6V174.7a.6.6,0,0,1,1.2,0v6.063a.6.6,0,0,1-.6.6" transform="translate(1044.896 4576.759)" fill="#f35923"/>
        <path id="Trazado_888484" data-name="Trazado 888484" d="M141.541,177.188h-6.063a.6.6,0,0,1,0-1.2h6.063a.6.6,0,0,1,0,1.2" transform="translate(1043.752 4577.904)" fill="#f35923"/>
      </g>
      <g id="Grupo_1102893" data-name="Grupo 1102893" transform="translate(133.615 -225.794)">
        <path id="Trazado_888482-2" data-name="Trazado 888482" d="M147.777,177.792a5.163,5.163,0,1,1,5.163-5.163,5.169,5.169,0,0,1-5.163,5.163m0-9.121a3.958,3.958,0,1,0,3.958,3.958,3.963,3.963,0,0,0-3.958-3.958" transform="translate(1048.445 4572.739)" fill="#f35923"/>
        <path id="Trazado_888483-2" data-name="Trazado 888483" d="M137.366,181.363a.6.6,0,0,1-.6-.6V174.7a.6.6,0,0,1,1.2,0v6.063a.6.6,0,0,1-.6.6" transform="translate(1044.896 4576.759)" fill="#f35923"/>
        <path id="Trazado_888484-2" data-name="Trazado 888484" d="M141.541,177.188h-6.063a.6.6,0,0,1,0-1.2h6.063a.6.6,0,0,1,0,1.2" transform="translate(1043.752 4577.904)" fill="#f35923"/>
      </g>
      <g id="Grupo_1102892" data-name="Grupo 1102892" transform="translate(210 61.646)">
        <path id="Trazado_888482-3" data-name="Trazado 888482" d="M147.777,177.792a5.163,5.163,0,1,1,5.163-5.163,5.169,5.169,0,0,1-5.163,5.163m0-9.121a3.958,3.958,0,1,0,3.958,3.958,3.963,3.963,0,0,0-3.958-3.958" transform="translate(1048.445 4572.739)" fill="#f35923"/>
        <path id="Trazado_888483-3" data-name="Trazado 888483" d="M137.366,181.363a.6.6,0,0,1-.6-.6V174.7a.6.6,0,0,1,1.2,0v6.063a.6.6,0,0,1-.6.6" transform="translate(1044.896 4576.759)" fill="#f35923"/>
        <path id="Trazado_888484-3" data-name="Trazado 888484" d="M141.541,177.188h-6.063a.6.6,0,0,1,0-1.2h6.063a.6.6,0,0,1,0,1.2" transform="translate(1043.752 4577.904)" fill="#f35923"/>
      </g>
      <g id="Grupo_1102889" data-name="Grupo 1102889" transform="translate(1238.615 4563.412)">
        <path id="Trazado_888482-4" data-name="Trazado 888482" d="M147.777,177.792a5.163,5.163,0,1,0-5.163-5.163,5.169,5.169,0,0,0,5.163,5.163m0-9.121a3.958,3.958,0,1,1-3.958,3.958,3.963,3.963,0,0,1,3.958-3.958" transform="translate(-142.614 -167.466)" fill="#f35923"/>
        <path id="Trazado_888483-4" data-name="Trazado 888483" d="M137.366,181.363a.6.6,0,0,0,.6-.6V174.7a.6.6,0,0,0-1.2,0v6.063a.6.6,0,0,0,.6.6" transform="translate(-118.244 -163.446)" fill="#f35923"/>
        <path id="Trazado_888484-4" data-name="Trazado 888484" d="M135.478,177.188h6.063a.6.6,0,0,0,0-1.2h-6.063a.6.6,0,0,0,0,1.2" transform="translate(-119.386 -162.301)" fill="#f35923"/>
      </g>
      <g id="Grupo_1102888" data-name="Grupo 1102888" transform="translate(1397.243 4589.953)">
        <path id="Trazado_888482-5" data-name="Trazado 888482" d="M147.777,177.792a5.163,5.163,0,1,0-5.163-5.163,5.169,5.169,0,0,0,5.163,5.163m0-9.121a3.958,3.958,0,1,1-3.958,3.958,3.963,3.963,0,0,1,3.958-3.958" transform="translate(-142.614 -167.466)" fill="#f35923"/>
        <path id="Trazado_888483-5" data-name="Trazado 888483" d="M137.366,181.363a.6.6,0,0,0,.6-.6V174.7a.6.6,0,0,0-1.2,0v6.063a.6.6,0,0,0,.6.6" transform="translate(-118.244 -163.446)" fill="#f35923"/>
        <path id="Trazado_888484-5" data-name="Trazado 888484" d="M135.478,177.188h6.063a.6.6,0,0,0,0-1.2h-6.063a.6.6,0,0,0,0,1.2" transform="translate(-119.386 -162.301)" fill="#f35923"/>
      </g>
      <g id="Grupo_1102890" data-name="Grupo 1102890" transform="translate(1230 4589.952)">
        <path id="Trazado_888482-6" data-name="Trazado 888482" d="M147.777,177.792a5.163,5.163,0,1,1,5.163-5.163,5.169,5.169,0,0,1-5.163,5.163m0-9.121a3.958,3.958,0,1,0,3.958,3.958,3.963,3.963,0,0,0-3.958-3.958" transform="translate(-130.183 -167.466)" fill="#f35923"/>
        <path id="Trazado_888483-6" data-name="Trazado 888483" d="M137.366,181.363a.6.6,0,0,1-.6-.6V174.7a.6.6,0,0,1,1.2,0v6.063a.6.6,0,0,1-.6.6" transform="translate(-133.732 -163.446)" fill="#f35923"/>
        <path id="Trazado_888484-6" data-name="Trazado 888484" d="M141.541,177.188h-6.063a.6.6,0,0,1,0-1.2h6.063a.6.6,0,0,1,0,1.2" transform="translate(-134.876 -162.301)" fill="#f35923"/>
      </g>
      <g id="Grupo_1102891" data-name="Grupo 1102891" transform="translate(1230 4842.952)">
        <path id="Trazado_888482-7" data-name="Trazado 888482" d="M147.777,177.792a5.163,5.163,0,1,1,5.163-5.163,5.169,5.169,0,0,1-5.163,5.163m0-9.121a3.958,3.958,0,1,0,3.958,3.958,3.963,3.963,0,0,0-3.958-3.958" transform="translate(-130.183 -167.466)" fill="#f35923"/>
        <path id="Trazado_888483-7" data-name="Trazado 888483" d="M137.366,181.363a.6.6,0,0,1-.6-.6V174.7a.6.6,0,0,1,1.2,0v6.063a.6.6,0,0,1-.6.6" transform="translate(-133.732 -163.446)" fill="#f35923"/>
        <path id="Trazado_888484-7" data-name="Trazado 888484" d="M141.541,177.188h-6.063a.6.6,0,0,1,0-1.2h6.063a.6.6,0,0,1,0,1.2" transform="translate(-134.876 -162.301)" fill="#f35923"/>
      </g>
    </g>
    <g id="Grupo_1102903" data-name="Grupo 1102903" transform="translate(1230 1778.021)">
      <g id="Grupo_1102898" data-name="Grupo 1102898">
        <g id="Grupo_1102897" data-name="Grupo 1102897" clip-path="url(#clip-path)">
          <path id="Trazado_888485" data-name="Trazado 888485" d="M933.988,220.541c-.1-.257-11.2-5.075-9.352-6.793s5.346,1.364,5.346,1.364l4.43-2.248Z" transform="translate(-785.497 -180.872)" fill="#ffa59c"/>
          <path id="Trazado_888486" data-name="Trazado 888486" d="M839.69,215.378c.1-.257,11.2-5.075,9.352-6.793s-5.346,1.364-5.346,1.364l-4.43-2.248Z" transform="translate(-713.133 -176.485)" fill="#ffa59c"/>
          <rect id="Rectángulo_403833" data-name="Rectángulo 403833" width="0.582" height="16.294" transform="translate(136.994)" fill="#000644"/>
          <path id="Trazado_888487" data-name="Trazado 888487" d="M847.129,163.5h-.14a11.734,11.734,0,0,1,.135-23.468h.14a11.734,11.734,0,0,1-.136,23.468m-10.96-11.863a10.958,10.958,0,1,0,3.3-7.711,10.887,10.887,0,0,0-3.3,7.711" transform="translate(-709.842 -118.986)" fill="#8e98bd"/>
          <path id="Trazado_888488" data-name="Trazado 888488" d="M883.793,146.277a52.125,52.125,0,0,1,1.737,9.787c.093,1.2.749,4.386-.813,4.813-1.465.4-2.884-1.489-3.057-2.794-.047-.354-.339-.309.354-.223.54.067.46.04.55.5a4.3,4.3,0,0,1,.087,1.466c-.171,1.194-1.208,2.06-2.392,1.358a4.2,4.2,0,0,1-1.628-2.232,2.836,2.836,0,0,1-.24-1.078c-.011-.1-.022-.191-.033-.286l.465.133a1.8,1.8,0,0,1,.158.639,3.434,3.434,0,0,1-.438,2.649,1.91,1.91,0,0,1-.884.751c-.811.265-1.109-.422-1.284-1.088a10.974,10.974,0,0,1,.187-4.8A56.766,56.766,0,0,1,879.9,145.73c.139-.348-.423-.5-.561-.155a66.985,66.985,0,0,0-2.984,8.554c-.57,2.277-1.31,5.226-.268,7.475.863,1.859,2.864.316,3.353-1.05a4.866,4.866,0,0,0-.154-3.3c-.22-.541-.772-1.063-1.285-.486-.471.529-.158,1.614.018,2.184a4.8,4.8,0,0,0,1.949,2.734c2.094,1.237,3.5-.966,3.263-2.878-.084-.693-.218-1.685-.906-2.056a.9.9,0,0,0-1.362.569c-.18.815.571,2.123,1.011,2.779a2.9,2.9,0,0,0,2.115,1.392c2.914.266,2.162-3.664,2.024-5.426a52.957,52.957,0,0,0-1.757-9.941.291.291,0,0,0-.561.154" transform="translate(-743.973 -123.532)" fill="#000644"/>
          <path id="Trazado_888489" data-name="Trazado 888489" d="M889.43,94.142l4.9.057a1.521,1.521,0,0,0,1.54-1.5l0-.293.005-.453.016-1.363.005-.453.016-1.361,0-.453.007-.568a4.007,4.007,0,0,0-.069-.795,3.826,3.826,0,0,0-.117-.455,3.972,3.972,0,0,0-7.54-.089,4.188,4.188,0,0,0-.126.453,4.067,4.067,0,0,0-.088.793l-.007.568-.005.453-.016,1.361-.007.453-.016,1.361,0,.455,0,.293a1.524,1.524,0,0,0,1.506,1.54" transform="translate(-754.479 -71.149)" fill="#8e98bd"/>
          <path id="Trazado_888490" data-name="Trazado 888490" d="M888.905,102.006l7.783.091a3.831,3.831,0,0,0-.117-.455l-7.54-.089a4.151,4.151,0,0,0-.126.453" transform="translate(-755.312 -86.291)" fill="#515a83"/>
          <rect id="Rectángulo_403834" data-name="Rectángulo 403834" width="0.453" height="7.941" transform="translate(133.493 17.529) rotate(-89.329)" fill="#515a83"/>
          <path id="Trazado_888491" data-name="Trazado 888491" d="M888.087,126.149l7.942.093.005-.453-7.941-.093Z" transform="translate(-754.617 -106.804)" fill="#515a83"/>
          <path id="Trazado_888492" data-name="Trazado 888492" d="M887.95,138.226l7.942.093,0-.453-7.943-.094Z" transform="translate(-754.5 -117.065)" fill="#515a83"/>
          <path id="Trazado_888493" data-name="Trazado 888493" d="M903.477,72.024l2.042.024a.794.794,0,0,0,.8-.785l.009-.794a1.815,1.815,0,1,0-3.631-.043l-.009.794a.794.794,0,0,0,.785.8" transform="translate(-767.027 -58.317)" fill="#515a83"/>
          <path id="Trazado_888494" data-name="Trazado 888494" d="M1025.612,1996.09l3.937,25.6-9.6,2.376-7.749-24.859Z" transform="translate(-860.074 -1696.099)" fill="#ffb8ae"/>
          <path id="Trazado_888495" data-name="Trazado 888495" d="M946.445,2150.456H976.1s.035-.828.054-1.948c.023-1.251.029-2.869-.054-4.1a17.334,17.334,0,0,0-1.583-5.119l-.555.5a10.1,10.1,0,0,1-6.207,1.552c-3.88-.194-5.237-.97-5.237-.97s1.009-1.682-1.2-2.7a6.334,6.334,0,0,1-2.789,3.28c-.109.058-.217.111-.33.161a4.7,4.7,0,0,1-.64.233c-.611.173-1.259.366-1.924.586l-.355.116c-.766.258-1.554.543-2.33.861-.114.045-.227.093-.341.14-2.493,1.048-4.857,2.4-6.161,4.087a2.364,2.364,0,0,0-.485,1.371,4.046,4.046,0,0,0,.485,1.948" transform="translate(-803.79 -1816.403)" fill="#000644"/>
          <path id="Trazado_888496" data-name="Trazado 888496" d="M945.963,2209.77h30.195c-.02,1.12-.055,1.948-.055,1.948H946.448a4.051,4.051,0,0,1-.484-1.948" transform="translate(-803.793 -1877.665)" fill="#ffd44a"/>
          <path id="Trazado_888497" data-name="Trazado 888497" d="M992.721,2176.32l-.317.183-2.208-3.844c.113-.048.226-.095.341-.141Z" transform="translate(-841.38 -1846.011)" fill="#ffd44a"/>
          <path id="Trazado_888498" data-name="Trazado 888498" d="M1010.44,2169.7l-.316.183-2.155-3.751.354-.116Z" transform="translate(-856.482 -1840.491)" fill="#ffd44a"/>
          <path id="Trazado_888499" data-name="Trazado 888499" d="M1029.561,2162.7l-.317.183-1.853-3.225c.112-.05.222-.1.329-.161Z" transform="translate(-872.986 -1834.95)" fill="#ffd44a"/>
          <path id="Trazado_888500" data-name="Trazado 888500" d="M586.773,1647.6l3.937,25.6-9.6,2.376-7.749-24.86Z" transform="translate(-487.187 -1399.983)" fill="#ffb8ae"/>
          <path id="Trazado_888501" data-name="Trazado 888501" d="M507.606,1801.966h29.655s.035-.828.054-1.948c.023-1.251.029-2.869-.054-4.1a17.334,17.334,0,0,0-1.583-5.119l-.555.5a10.1,10.1,0,0,1-6.207,1.552c-3.88-.194-5.237-.97-5.237-.97s1.009-1.682-1.2-2.7a6.334,6.334,0,0,1-2.789,3.28c-.109.058-.217.11-.33.161a4.675,4.675,0,0,1-.64.233c-.611.172-1.259.367-1.924.586l-.355.116c-.766.258-1.554.543-2.33.861-.114.045-.227.093-.341.14-2.493,1.047-4.857,2.4-6.161,4.087a2.364,2.364,0,0,0-.485,1.371,4.047,4.047,0,0,0,.485,1.948" transform="translate(-430.904 -1520.288)" fill="#000644"/>
          <path id="Trazado_888502" data-name="Trazado 888502" d="M507.124,1861.28h30.195c-.02,1.12-.055,1.948-.055,1.948H507.609a4.054,4.054,0,0,1-.485-1.948" transform="translate(-430.907 -1581.549)" fill="#ffd44a"/>
          <path id="Trazado_888503" data-name="Trazado 888503" d="M553.882,1827.83l-.316.182-2.208-3.844c.113-.047.227-.1.341-.141Z" transform="translate(-468.494 -1549.895)" fill="#ffd44a"/>
          <path id="Trazado_888504" data-name="Trazado 888504" d="M571.6,1821.215l-.317.182-2.155-3.751.354-.116Z" transform="translate(-483.595 -1544.375)" fill="#ffd44a"/>
          <path id="Trazado_888505" data-name="Trazado 888505" d="M590.722,1814.213l-.316.183-1.853-3.225q.168-.075.329-.161Z" transform="translate(-500.1 -1538.834)" fill="#ffd44a"/>
          <path id="Trazado_888506" data-name="Trazado 888506" d="M936.3,151.879s-1.94-6.983-3.1-10.863-6.983-9.893-7.953-8.535,3.88,6.789,3.88,6.789-8.082-8.212-8.5-6.24S926.6,141.4,926.6,141.4s-7.953-8.147-8.341-5.431,7.371,9.311,7.371,9.311a5.46,5.46,0,0,0,.388,4.268c1.164,2.522,6.4,7.759,6.4,7.759Z" transform="translate(-780.24 -112.404)" fill="#f35923"/>
          <path id="Trazado_888507" data-name="Trazado 888507" d="M791.753,146.716s1.94-6.983,3.1-10.863,6.983-9.893,7.953-8.535-3.88,6.789-3.88,6.789,8.082-8.212,8.5-6.24-5.981,8.373-5.981,8.373,7.953-8.147,8.341-5.431-7.371,9.311-7.371,9.311a5.46,5.46,0,0,1-.388,4.267c-1.164,2.522-6.4,7.759-6.4,7.759Z" transform="translate(-672.761 -108.017)" fill="#f35923"/>
          <path id="Trazado_888508" data-name="Trazado 888508" d="M641.857,346.45l-6.6,52.374,45.585,4.267s-.341-19.359.07-36.5c.283-11.73.919-22.422,2.258-25.18,3.3-6.789,19.01-47.331,20.562-58.776s-25.411-46.555-25.411-46.555l-7.371,6.4,11.639,40.929L672.506,310.37s-.1.051-.285.136a29.852,29.852,0,0,1-5.1,1.775,19.923,19.923,0,0,1-6.646.611c-3.327-.332-8.745-1.932-12.776-3.243-2.361-.766-4.246-1.433-4.958-1.69l-.307-.111-12.415-30.261L646.513,241.9l-7.759-8.923s-21.92,24.441-24.829,51.792c-2.048,19.25,12.622,41.957,21.495,53.722,3.732,4.95,6.438,7.963,6.438,7.963" transform="translate(-521.494 -197.959)" fill="#ffd44a"/>
        </g>
      </g>
      <g id="Grupo_1102900" data-name="Grupo 1102900" transform="translate(92.237 35.013)">
        <g id="Grupo_1102899" data-name="Grupo 1102899" clip-path="url(#clip-path-2)">
          <path id="Trazado_888509" data-name="Trazado 888509" d="M683.711,279q-28.215.349-56.39-1.7-8.041-.586-16.065-1.369c-.372-.036-.37.546,0,.582q28.085,2.731,56.331,3.073,8.061.095,16.123-.007a.291.291,0,0,0,0-.582" transform="translate(-611.392 -269.477)" fill="#fff"/>
          <path id="Trazado_888510" data-name="Trazado 888510" d="M684.334,325.591q-30.712-1.186-61.454-1.263-8.7-.021-17.4.048a.291.291,0,0,0,0,.582q30.734-.239,61.464.632,8.7.247,17.387.584c.375.014.374-.567,0-.582" transform="translate(-606.483 -310.594)" fill="#fff"/>
          <path id="Trazado_888511" data-name="Trazado 888511" d="M684.944,363.57q-32.44-1.243-64.912-.179-9.146.3-18.285.788c-.372.02-.375.6,0,.582q32.418-1.718,64.9-1.13,9.15.168,18.295.52c.375.014.374-.568,0-.582" transform="translate(-603.31 -343.372)" fill="#fff"/>
          <path id="Trazado_888512" data-name="Trazado 888512" d="M635.549,408.471q-19.444-.22-38.884-.648t-38.875-1.069q-11.022-.363-22.042-.793c-.375-.015-.374.567,0,.582q19.43.758,38.867,1.307t38.879.887q11.027.192,22.055.316a.291.291,0,0,0,0-.582" transform="translate(-547.229 -379.963)" fill="#fff"/>
          <path id="Trazado_888513" data-name="Trazado 888513" d="M617.089,451.783q-20.709-.9-41.427-1.594-20.814-.692-41.635-1.166-11.718-.266-23.436-.464a.291.291,0,0,0,0,.582q20.726.35,41.447.915,20.818.568,41.629,1.354,11.712.442,23.422.954c.374.017.374-.566,0-.582" transform="translate(-525.853 -416.159)" fill="#fff"/>
          <path id="Trazado_888514" data-name="Trazado 888514" d="M655.586,492.329q-19.872-1.717-39.793-2.773-20.014-1.058-40.056-1.441-11.272-.216-22.546-.217a.291.291,0,0,0,0,.582q19.946.006,39.883.675,20.03.675,40.031,2.025,11.248.759,22.48,1.732c.373.032.371-.55,0-.582" transform="translate(-562.051 -449.585)" fill="#fff"/>
          <path id="Trazado_888515" data-name="Trazado 888515" d="M642.441,533.562c-13.366-.048-26.725-.564-40.065-1.373s-26.675-1.911-39.992-3.115q-11.333-1.025-22.66-2.118c-.373-.035-.37.547,0,.582,13.313,1.265,26.626,2.529,39.956,3.609s26.664,1.974,40.022,2.5q11.364.446,22.739.5a.291.291,0,0,0,0-.582" transform="translate(-550.61 -482.771)" fill="#fff"/>
          <path id="Trazado_888516" data-name="Trazado 888516" d="M605.822,573.513q-21.224-1.694-42.443-3.453t-42.432-3.585q-11.957-1.029-23.911-2.079c-.373-.033-.371.549,0,.582q21.21,1.863,42.426,3.66t42.437,3.527q11.961.975,23.924,1.93c.373.03.372-.552,0-.582" transform="translate(-514.337 -514.586)" fill="#fff"/>
          <path id="Trazado_888517" data-name="Trazado 888517" d="M618.318,625.2q-20.629-1.5-41.245-3.171-20.713-1.677-41.411-3.521-11.649-1.038-23.293-2.129c-.373-.035-.37.547,0,.582q20.593,1.929,41.2,3.693,20.7,1.772,41.423,3.376,11.66.9,23.324,1.753c.374.027.372-.555,0-.582" transform="translate(-527.366 -558.758)" fill="#fff"/>
          <path id="Trazado_888518" data-name="Trazado 888518" d="M588.487,652.163q-20.871-1.183-41.683-3.2Q525.75,646.91,504.792,644q-11.683-1.624-23.326-3.515c-.366-.059-.524.5-.155.561q20.674,3.353,41.47,5.873,20.943,2.535,41.979,4.211,11.853.945,23.726,1.615c.374.021.373-.561,0-.582" transform="translate(-501.034 -579.236)" fill="#fff"/>
          <path id="Trazado_888519" data-name="Trazado 888519" d="M589.719,697.992q-20.793-1.893-41.567-3.982t-41.528-4.376q-11.722-1.291-23.436-2.646c-.371-.043-.368.539,0,.582q20.741,2.4,41.5,4.6t41.545,4.2q11.738,1.132,23.482,2.2c.373.034.371-.548,0-.582" transform="translate(-502.572 -618.752)" fill="#fff"/>
          <path id="Trazado_888520" data-name="Trazado 888520" d="M662.528,753.629l-71.57-6.84-20.393-1.949c-.373-.036-.37.546,0,.582l71.57,6.84,20.394,1.949c.373.036.37-.547,0-.582" transform="translate(-576.815 -667.91)" fill="#fff"/>
          <path id="Trazado_888521" data-name="Trazado 888521" d="M659.444,797.692l-70.805-6.483-20.01-1.832c-.373-.034-.37.548,0,.582l70.805,6.483,20.01,1.832c.373.034.37-.548,0-.582" transform="translate(-575.17 -705.754)" fill="#fff"/>
          <path id="Trazado_888522" data-name="Trazado 888522" d="M648.419,827.8q-34.153-2.575-68.133-7-9.692-1.263-19.364-2.678c-.366-.054-.524.507-.155.561q33.929,4.956,68.093,8.071,9.773.889,19.559,1.625c.374.028.372-.554,0-.582" transform="translate(-568.548 -730.179)" fill="#fff"/>
          <path id="Trazado_888523" data-name="Trazado 888523" d="M636.843,875.92l-67.037-6.348-18.878-1.788c-.372-.035-.37.547,0,.582l67.037,6.348,18.878,1.788c.373.035.37-.547,0-.582" transform="translate(-560.13 -772.377)" fill="#fff"/>
          <path id="Trazado_888524" data-name="Trazado 888524" d="M979.635,975.128q-10.919.178-21.822-.576c-.374-.026-.372.556,0,.582q10.894.753,21.822.576a.291.291,0,0,0,0-.582" transform="translate(-905.864 -863.1)" fill="#fff"/>
          <path id="Trazado_888525" data-name="Trazado 888525" d="M975.61,1019.9a103.551,103.551,0,0,1-19.794-.17c-.372-.039-.369.543,0,.582a103.541,103.541,0,0,0,19.794.17c.37-.032.374-.615,0-.582" transform="translate(-904.168 -901.488)" fill="#fff"/>
          <path id="Trazado_888526" data-name="Trazado 888526" d="M1023.323,1056.684a22.554,22.554,0,0,1-11.242,1.809c-.373-.035-.37.547,0,.582a23.129,23.129,0,0,0,11.535-1.888c.342-.151.046-.652-.294-.5" transform="translate(-951.977 -932.865)" fill="#fff"/>
        </g>
      </g>
      <g id="Grupo_1102902" data-name="Grupo 1102902">
        <g id="Grupo_1102901" data-name="Grupo 1102901" clip-path="url(#clip-path)">
          <path id="Trazado_888528" data-name="Trazado 888528" d="M441.04,889.32l15.324-1.164L445.5,844.123l33.558-9.893a208.687,208.687,0,0,0,5.625,56.448c7.371,30.843,19.786,51.6,19.786,51.6l16.682-3.1s-6.789-32.782-8.535-52.956-1.94-94.08-1.94-94.08-.343-.572-.9-1.589c-2.05-3.75-6.995-13.542-8.217-22.853-1.273-9.7-.72-27.235-.479-33.229a29.836,29.836,0,0,1-5.1,1.775l-2.378,25.828-23.665-2.134,6.623-26.327c-2.361-.766-4.246-1.434-4.958-1.69-1.5,5.709-4.7,18.182-7.327,30.528-1.466,6.913-2.753,13.786-3.455,19.408a219.593,219.593,0,0,0-1.552,24.053s-46.361,13-46.943,27.157S441.04,889.32,441.04,889.32" transform="translate(-350.355 -621.92)" fill="#000644"/>
          <path id="Trazado_888529" data-name="Trazado 888529" d="M1074.11,565.072a52.978,52.978,0,0,0,8.98,4.125c.354.124.506-.438.155-.561a52.135,52.135,0,0,1-8.841-4.066.291.291,0,0,0-.294.5" transform="translate(-912.563 -479.686)" fill="#000644"/>
          <path id="Trazado_888530" data-name="Trazado 888530" d="M1071.984,572.938q2.5,3.2,5.278,6.172c.256.274.667-.138.411-.411q-2.773-2.971-5.278-6.172c-.23-.295-.64.12-.411.412" transform="translate(-910.819 -486.396)" fill="#000644"/>
          <path id="Trazado_888531" data-name="Trazado 888531" d="M662.821,535.1q-4.678,3.476-8.993,7.4c-.278.253.135.663.411.411q4.255-3.873,8.875-7.309c.3-.221.007-.726-.294-.5" transform="translate(-555.487 -454.631)" fill="#000644"/>
          <path id="Trazado_888532" data-name="Trazado 888532" d="M666.241,527.38a47.437,47.437,0,0,1-8.3,2.559c-.366.077-.211.638.155.561a47.421,47.421,0,0,0,8.3-2.559c.341-.141.192-.7-.155-.561" transform="translate(-558.882 -448.101)" fill="#000644"/>
          <path id="Trazado_888533" data-name="Trazado 888533" d="M1013.808,922.789c-3.7-.264-6.045-3.378-7.91-6.241-.2-.313-.708-.021-.5.294,1.992,3.057,4.479,6.249,8.412,6.529.374.026.372-.556,0-.582" transform="translate(-854.254 -778.687)" fill="#000644"/>
          <path id="Trazado_888534" data-name="Trazado 888534" d="M1004.9,918.26a79.413,79.413,0,0,0,5.681,14.574c.17.334.672.04.5-.294a78.635,78.635,0,0,1-5.622-14.436.291.291,0,0,0-.561.155" transform="translate(-853.864 -779.949)" fill="#000644"/>
          <path id="Trazado_888535" data-name="Trazado 888535" d="M739.926,732.8q-4.988,4.907-10.035,9.754c-.271.26.141.671.412.411q5.047-4.846,10.035-9.754c.267-.263-.144-.674-.411-.411" transform="translate(-620.121 -622.595)" fill="#000644"/>
          <path id="Trazado_888536" data-name="Trazado 888536" d="M754.98,732.268q-3.7.826-7.356,1.808a.291.291,0,0,0,.155.561q3.659-.982,7.356-1.808c.365-.082.211-.643-.155-.561" transform="translate(-635.089 -622.209)" fill="#000644"/>
          <path id="Trazado_888537" data-name="Trazado 888537" d="M739.6,1168.428a94.492,94.492,0,0,0,12.415,2.716s-1.94,38.02.776,40.93a4.317,4.317,0,0,0,1.562.9c4.782,1.849,17.578,2.636,22.637,1.655a3.494,3.494,0,0,0,1.988-.813c1.746-2.328.194-52.181-1.358-54.7,0,0-.475.043-1.321.113l-1.125.095c-4.737.388-15.441,1.2-23.935,1.344-9.458.163-22.2-5.02-26.028-6.677l-.33,8.593a74.818,74.818,0,0,0,14.719,5.843" transform="translate(-615.942 -980.559)" fill="#ffb948"/>
          <path id="Trazado_888538" data-name="Trazado 888538" d="M939.092,1257.236c-7.39,2.763-15.374,2.39-23.115,1.976-.374-.02-.373.562,0,.582,7.789.417,15.834.784,23.27-2,.348-.13.2-.693-.155-.561" transform="translate(-778.077 -1068.27)" fill="#000644"/>
          <path id="Trazado_888539" data-name="Trazado 888539" d="M929.552,1199.353l.591,2.087.023.193,1.006,8.575.079.674.965-.093-.052-.677-.655-8.609-.015-.193.181-2.161-.766-1.875-.966.093Z" transform="translate(-789.851 -1017.336)" fill="#afb9d3"/>
          <path id="Trazado_888540" data-name="Trazado 888540" d="M929.552,1199.353l.591,2.087.023.193,1.344-.13-.015-.193.181-2.161-.766-1.875-.966.093Z" transform="translate(-789.851 -1017.336)" fill="#8e98bd"/>
          <path id="Trazado_888541" data-name="Trazado 888541" d="M926.927,1289.57a11,11,0,0,0-.022,3.218,27.4,27.4,0,0,0,1.525,5.7l3.089-.3a27.4,27.4,0,0,0,.406-5.886,11,11,0,0,0-.638-3.154c-.6-1.774-1.4-3.166-1.23-4.071a13.466,13.466,0,0,1,.9-2.815,2.592,2.592,0,0,0,.1-.984l-5.406.522a2.6,2.6,0,0,0,.286.947,13.443,13.443,0,0,1,1.42,2.591c.336.856-.174,2.375-.427,4.231" transform="translate(-786.533 -1088.716)" fill="#000644"/>
          <path id="Trazado_888542" data-name="Trazado 888542" d="M933.395,1337.285a27.39,27.39,0,0,0,1.525,5.7l3.089-.3a27.4,27.4,0,0,0,.406-5.885,11,11,0,0,0-.638-3.154l-4.36.421a11,11,0,0,0-.022,3.218" transform="translate(-793.023 -1133.213)" fill="#000644"/>
          <path id="Trazado_888543" data-name="Trazado 888543" d="M985.882,1154.09l-.158,6.653-.018.739,1.887.07.082,0,.082.009,1.879.188.083-.735.747-6.612-1.265-7.984-.983-.067Zm3.019.371c-.04.591-.36,1.056-.733,1.093a.337.337,0,0,1-.082,0,.351.351,0,0,1-.081-.014c-.364-.087-.618-.592-.577-1.183s.36-1.056.733-1.094a.332.332,0,0,1,.082,0,.338.338,0,0,1,.081.014c.364.088.618.592.577,1.183" transform="translate(-837.565 -974.068)" fill="#afb9d3"/>
          <path id="Trazado_888544" data-name="Trazado 888544" d="M1002.5,1146.538l-.47,6.886a.35.35,0,0,1,.083,0,.344.344,0,0,1,.081.014l.47-6.886Z" transform="translate(-851.434 -974.225)" fill="#8e98bd"/>
          <path id="Trazado_888545" data-name="Trazado 888545" d="M998.756,1207.52a.351.351,0,0,1-.081-.014l-.41,6.008.082,0,.082.009.41-6.009a.349.349,0,0,1-.082,0" transform="translate(-848.236 -1026.031)" fill="#8e98bd"/>
          <path id="Trazado_888546" data-name="Trazado 888546" d="M957.618,1243.913c.119.666,2.073.964,2.345,1.805s-2.572,3.938-2.777,9.353c0,.082-.006.164-.009.246-.209,5.283-.583,8.932,1.653,9.409,2.3.489,1.065-3.547,1.091-6.342a15.147,15.147,0,0,1,.463-2.848c.732-3.13,2.125-7.405,2.648-8.98.3,1.632,1.1,6.056,1.4,9.257a15.157,15.157,0,0,1,.071,2.884c-.354,2.773-2.124,6.6.219,6.432,2.28-.168,2.406-3.834,2.916-9.1.009-.082.016-.163.025-.245.533-5.393-1.864-8.847-1.481-9.644s2.36-.826,2.568-1.47-1.943-.462-1.943-.462l-.848-2.032-5.24-.358-1.117,1.9s-2.107-.473-1.988.193" transform="translate(-813.186 -1055.189)" fill="#fc4138"/>
          <path id="Trazado_888547" data-name="Trazado 888547" d="M1022.325,1219.923a4.081,4.081,0,0,0,1.845,3.8,4.19,4.19,0,0,0,.545.3l.187-2.045,2.646.242-.187,2.045a4.222,4.222,0,0,0,.589-.192,4.077,4.077,0,0,0,.264-7.414l.672-5.6,1.763-14.7.631-5.261a4.456,4.456,0,0,0,.855-7.6,4.338,4.338,0,0,0-.63-.4l-.332,3.631-3.4-.311.332-3.631a4.514,4.514,0,0,0-.693.283,4.455,4.455,0,0,0-.535,7.628l-.335,5.288-.932,14.78-.354,5.628a4.076,4.076,0,0,0-2.929,3.544" transform="translate(-868.666 -1005.015)" fill="#afb9d3"/>
          <path id="Trazado_888548" data-name="Trazado 888548" d="M1045.2,1270.6l-.932,14.779,3.277.3,1.763-14.7Z" transform="translate(-887.33 -1079.64)" fill="#fc4138"/>
          <path id="Trazado_888549" data-name="Trazado 888549" d="M1054.124,1183.056l-.376,4.118,4.725.432.376-4.118a4.341,4.341,0,0,0-.63-.4l-.332,3.631-3.4-.311.332-3.631a4.49,4.49,0,0,0-.693.283" transform="translate(-895.381 -1005.015)" fill="#8e98bd"/>
          <path id="Trazado_888550" data-name="Trazado 888550" d="M1034.923,1438.7l-.227,2.481a4.2,4.2,0,0,0,.545.3l.187-2.045,2.646.242-.187,2.045a4.219,4.219,0,0,0,.589-.192l.227-2.481Z" transform="translate(-879.192 -1222.481)" fill="#8e98bd"/>
          <path id="Trazado_888551" data-name="Trazado 888551" d="M952.293,1316.842l-.582-.97-2.91,1.5-2.667.1-1.115.631-3.395,2.231-3.589.63-3.152-.242-3.346-1.115-1.552-.776-.582-.243-.1,1.067.048,14.645,10.523,6.6,9.7-.776,2.716-5.043Z" transform="translate(-789.642 -1118.11)" fill="#ffb948"/>
          <path id="Trazado_888552" data-name="Trazado 888552" d="M950.313,1309.936a8.741,8.741,0,0,1-5.833,2.162c-.292,0-.673-.122-.941.018-.293.153-.576.662-.819.894a8.827,8.827,0,0,1-2.6,1.7c-4.156,1.8-8.725.483-12.436-1.736a.291.291,0,0,0-.294.5c3.816,2.281,8.5,3.609,12.784,1.84a9.728,9.728,0,0,0,2.291-1.319c.427-.333.761-.766,1.174-1.1.435-.357,1.062-.193,1.608-.232a9.4,9.4,0,0,0,5.479-2.311c.284-.245-.129-.656-.411-.412" transform="translate(-787.894 -1113.003)" fill="#000644"/>
          <path id="Trazado_888553" data-name="Trazado 888553" d="M1038.3,1326.614a95.651,95.651,0,0,1,1.393,32.538c-.047.37.535.367.582,0a96.116,96.116,0,0,0-1.414-32.692c-.08-.366-.641-.211-.561.155" transform="translate(-882.249 -1126.929)" fill="#000644"/>
          <path id="Trazado_888554" data-name="Trazado 888554" d="M926.609,1330.419q.163,14.549-.106,29.1a.291.291,0,0,0,.582,0q.268-14.547.105-29.1a.291.291,0,0,0-.582,0" transform="translate(-787.26 -1130.232)" fill="#000644"/>
          <path id="Trazado_888555" data-name="Trazado 888555" d="M1067.546,1321.68s.776,32.588-.194,33.558a3.972,3.972,0,0,1-2.522.97l.873-33.17Z" transform="translate(-904.797 -1123.046)" fill="#ffd44a"/>
          <path id="Trazado_888556" data-name="Trazado 888556" d="M994.529,1339.75s2.134,14.161,1.94,17.458-1.164,14.161-1.552,14.354-7.371.194-7.565-.776,4.074.388,5.431-2.134.97-15.518.97-19.4-.194-9.117.776-9.5" transform="translate(-838.958 -1138.4)" fill="#ffd44a"/>
          <path id="Trazado_888557" data-name="Trazado 888557" d="M865.431,687.4h0a7.759,7.759,0,0,0,7.759-7.759v-13H857.672v13a7.759,7.759,0,0,0,7.759,7.759" transform="translate(-728.773 -566.458)" fill="#ffb8ae"/>
          <path id="Trazado_888558" data-name="Trazado 888558" d="M857.672,688.616l13.578,1.16c-.138,0-8.706,5.752-13.578,9.03Z" transform="translate(-728.773 -585.124)" fill="#ffa59c"/>
          <path id="Trazado_888559" data-name="Trazado 888559" d="M956.848,684.27s-.388,4.656-1.746,4.074a1.628,1.628,0,0,1-.97-1.94s-.582,1.746-1.552.582-.776-4.85-.776-4.85Z" transform="translate(-808.745 -579.618)" fill="#000644"/>
          <path id="Trazado_888560" data-name="Trazado 888560" d="M824.082,661.588s-3.173,2.426-2.416,3.6a1.682,1.682,0,0,0,1.7.953s-.661,3.944,1.537,2.786a8.436,8.436,0,0,0,3.228-3.037Z" transform="translate(-698.079 -562.158)" fill="#000644"/>
          <path id="Trazado_888561" data-name="Trazado 888561" d="M914.478,517.315s8.729,3.1,9.7,6.6-.582,14.742-1.164,16.1-5.043,2.716-5.043,2.716-11.251-17.264-11.251-17.652,3.3-8.147,3.3-8.147Z" transform="translate(-770.449 -439.238)" fill="#ef1414"/>
          <path id="Trazado_888562" data-name="Trazado 888562" d="M861.4,458.9c-.052-.205,2.328-23.277-14-21.715-10.845,1.037-4.751,20.656-4.751,20.656Z" transform="translate(-714.559 -371.419)" fill="#fc4138"/>
          <path id="Trazado_888563" data-name="Trazado 888563" d="M841.012,534.931c-4.854-.137-8.9.885-10.531,5.461a52.729,52.729,0,0,0-2.757,10.542c-.776,6.6,1.261,9.214,6.11,11.154,6.038,2.415,14.063-3.007,14.063-3.007s6.013,3.492,6.4-1.552-3.3-5.043-3.3-5.043,3.783-17.167-9.99-17.555" transform="translate(-703.19 -454.527)" fill="#ffb8ae"/>
          <path id="Trazado_888564" data-name="Trazado 888564" d="M971.76,664.917a1.948,1.948,0,0,0-2.036.368,7.044,7.044,0,0,0-1.541,2.276c-.155.338.346.634.5.294a8.071,8.071,0,0,1,.994-1.652,1.624,1.624,0,0,1,1.926-.724.291.291,0,0,0,.155-.561" transform="translate(-822.65 -564.88)" fill="#000644"/>
          <path id="Trazado_888565" data-name="Trazado 888565" d="M978.445,668.223a4.288,4.288,0,0,1,.425,1.884c.028.371.61.374.582,0a4.953,4.953,0,0,0-.505-2.177.291.291,0,0,0-.5.294" transform="translate(-831.36 -567.427)" fill="#000644"/>
          <path id="Trazado_888566" data-name="Trazado 888566" d="M849.118,662.633c-.674-1.122-1.27-2.562-2.532-3.138a2.427,2.427,0,0,0-2.815.344c-.245.281.165.695.411.411.846-.974,2.385-.312,3.06.488a16.462,16.462,0,0,1,1.373,2.187.291.291,0,0,0,.5-.294" transform="translate(-716.897 -560.137)" fill="#000644"/>
          <path id="Trazado_888567" data-name="Trazado 888567" d="M915.181,602.184c-.307.625-.245,1.285.14,1.474s.945-.164,1.253-.789.245-1.285-.139-1.474-.946.164-1.253.789" transform="translate(-777.473 -510.969)" fill="#000644"/>
          <path id="Trazado_888568" data-name="Trazado 888568" d="M860.971,578.952c-.307.625-.245,1.285.139,1.474s.945-.164,1.253-.788.245-1.285-.139-1.474-.946.164-1.253.788" transform="translate(-731.41 -491.229)" fill="#000644"/>
          <path id="Trazado_888569" data-name="Trazado 888569" d="M929.264,579.956a5.129,5.129,0,0,0-3.516-4.4c-1.069-.354-1.527,1.331-.464,1.684a3.309,3.309,0,0,1,2.235,2.719c.12,1.105,1.867,1.117,1.746,0" transform="translate(-785.711 -489.013)" fill="#000644"/>
          <path id="Trazado_888570" data-name="Trazado 888570" d="M858.334,556.873a7.111,7.111,0,0,0-2.2-.376,5.025,5.025,0,0,0-1.963.582c-1.016.479-.13,1.985.881,1.508a3.622,3.622,0,0,1,2.815-.03.874.874,0,0,0,.464-1.683" transform="translate(-725.419 -472.859)" fill="#000644"/>
          <path id="Trazado_888571" data-name="Trazado 888571" d="M872.4,546.14c-2.2.244.356-7.4.356-7.4a41.6,41.6,0,0,1-3.071-4.235,8.34,8.34,0,0,1-1.164-3.88s-4.85,1.358-6.983.582a4.809,4.809,0,0,1-2.716-1.94s-3.492,2.91-5.043,2.328-.388-3.3,2.522-4.074,8.729-.582,12.027,1.746a13.505,13.505,0,0,1,5.432,8.923c.388,2.91.388,7.759-1.358,7.953" transform="translate(-724.875 -447.89)" fill="#000644"/>
          <path id="Trazado_888572" data-name="Trazado 888572" d="M936.879,625.872c-.4.964,3.3,4.074,4.267,2.134s-3.3-4.462-4.267-2.134" transform="translate(-796.05 -531.016)" fill="#ffa59c"/>
          <path id="Trazado_888573" data-name="Trazado 888573" d="M837.06,588.806c1.016.2,2.442.295,2.807-.675.417-1.113-1.164-1.529-2.089-1.674Z" transform="translate(-711.259 -498.319)" fill="#ffa59c"/>
          <path id="Trazado_888574" data-name="Trazado 888574" d="M852.136,561.489a10.45,10.45,0,0,1-1.315,5.213c-.124.219-.347.732-.646.772-.215.029-.877-.511-1.114-.6a2.12,2.12,0,0,0-1.3-.128,1.31,1.31,0,0,0-1.023,1.641c.358,1.04,2.041,1.778,2.975,2.112.353.126.505-.436.155-.561a8.4,8.4,0,0,1-1.8-.977c-.437-.294-1.146-.716-.634-1.384.31-.4.975-.3,1.372-.17.623.2,1.338,1.06,1.957.482a7.2,7.2,0,0,0,1.4-2.765,11.225,11.225,0,0,0,.563-3.636.291.291,0,0,0-.582,0" transform="translate(-719.424 -476.865)" fill="#000644"/>
          <path id="Trazado_888575" data-name="Trazado 888575" d="M856.737,631.477a3.376,3.376,0,0,0,2.328,3.3,3.031,3.031,0,0,0,3.734-.824Z" transform="translate(-727.975 -536.573)" fill="#fff"/>
          <path id="Trazado_888576" data-name="Trazado 888576" d="M852.3,622.386c.113.792.129,3.1-.905,2.91s-.453-2.845-1.423-3.168-5.043-2.263-5.431-2.069-.776,2.328-1.358,1.746,0-3.88.97-3.88,7.565.388,8.147,4.461" transform="translate(-716.264 -525.057)" fill="#000644"/>
          <rect id="Rectángulo_403836" data-name="Rectángulo 403836" width="56.254" height="2.328" transform="translate(69.347 201.059)" fill="#d9dfed"/>
          <rect id="Rectángulo_403837" data-name="Rectángulo 403837" width="56.254" height="2.328" transform="translate(82.441 254.307)" fill="#d9dfed"/>
          <rect id="Rectángulo_403838" data-name="Rectángulo 403838" width="56.254" height="2.328" transform="translate(76.622 227.683)" fill="#d9dfed"/>
          <rect id="Rectángulo_403839" data-name="Rectángulo 403839" width="56.254" height="2.328" transform="translate(89.424 280.93)" fill="#d9dfed"/>
          <rect id="Rectángulo_403840" data-name="Rectángulo 403840" width="56.254" height="2.328" transform="translate(103.973 334.178)" fill="#d9dfed"/>
          <rect id="Rectángulo_403841" data-name="Rectángulo 403841" width="56.254" height="2.328" transform="translate(97.184 307.554)" fill="#d9dfed"/>
          <rect id="Rectángulo_403842" data-name="Rectángulo 403842" width="56.254" height="2.328" transform="translate(110.18 360.801)" fill="#d9dfed"/>
          <path id="Trazado_888577" data-name="Trazado 888577" d="M462.474,1362.39l2.448.173L410.7,1142.214h51.544c19.788,73.9,56.913,213.016,57.422,216.689a.739.739,0,0,1-.006-.112h2.522c0-.485,0-1.62-28.9-110.117-14.262-53.55-28.711-107.509-28.855-108.048l-.25-.935h-56.7l.384,1.562Z" transform="translate(-346.243 -968.408)" fill="#7d8aaf"/>
          <path id="Trazado_888578" data-name="Trazado 888578" d="M76.5,1362.379l53.034-222.688H72.857l-.256.925c-.149.539-15.083,54.5-29.825,108.048-29.869,108.5-29.869,109.641-29.869,110.127h2.522a.754.754,0,0,1-.007.117c.537-3.71,38.906-142.813,59.354-216.7h51.566l-52.3,220.36Z" transform="translate(-10.967 -968.408)" fill="#7d8aaf"/>
          <path id="Trazado_888579" data-name="Trazado 888579" d="M428.514,929.665a18.449,18.449,0,0,1,18.428-18.428h15.13A18.449,18.449,0,0,1,480.5,929.665v18.622H428.514Zm49.465,0a15.924,15.924,0,0,0-15.906-15.906h-15.13a15.924,15.924,0,0,0-15.906,15.906v16.1h46.943Z" transform="translate(-364.113 -774.288)" fill="#7d8aaf"/>
          <path id="Trazado_888580" data-name="Trazado 888580" d="M1144.209,2596.582h6.207v-1.746a3.1,3.1,0,1,0-6.207,0Z" transform="translate(-972.247 -2202.222)" fill="#000644"/>
          <path id="Trazado_888581" data-name="Trazado 888581" d="M760.224,2596.582h6.207v-1.746a3.1,3.1,0,1,0-6.207,0Z" transform="translate(-645.97 -2202.222)" fill="#000644"/>
          <path id="Trazado_888582" data-name="Trazado 888582" d="M407.862,2596.582h6.207v-1.746a3.1,3.1,0,1,0-6.207,0Z" transform="translate(-346.565 -2202.222)" fill="#000644"/>
          <path id="Trazado_888583" data-name="Trazado 888583" d="M0,2596.582H6.207v-1.746a3.1,3.1,0,1,0-6.207,0Z" transform="translate(0 -2202.222)" fill="#000644"/>
          <rect id="Rectángulo_403843" data-name="Rectángulo 403843" width="57.806" height="3.298" transform="translate(60.909 170.896)" fill="#d9dfed"/>
        </g>
      </g>
    </g>
  </g>
</svg>
