<svg xmlns="http://www.w3.org/2000/svg" xmlns:xlink="http://www.w3.org/1999/xlink" width="295.033" height="226" viewBox="0 0 295.033 226">
  <defs>
    <clipPath id="clip-path">
      <rect id="Rectángulo_403359" data-name="Rectángulo 403359" width="295" height="224.24" transform="translate(0 -53)" fill="none"/>
    </clipPath>
    <clipPath id="clip-path-2">
      <rect id="Rectángulo_403334" data-name="Rectángulo 403334" width="295" height="171.24" fill="none"/>
    </clipPath>
    <clipPath id="clip-path-3">
      <rect id="Rectángulo_403330" data-name="Rectángulo 403330" width="156.197" height="149.126" fill="#2d903a"/>
    </clipPath>
    <clipPath id="clip-path-4">
      <rect id="Rectángulo_403331" data-name="Rectángulo 403331" width="77.394" height="53.501" fill="#2d903a"/>
    </clipPath>
    <clipPath id="clip-path-5">
      <rect id="Rectángulo_403332" data-name="Rectángulo 403332" width="96.448" height="104.705" fill="#2d903a"/>
    </clipPath>
    <clipPath id="clip-path-6">
      <rect id="Rectángulo_403333" data-name="Rectángulo 403333" width="62.162" height="26.591" fill="none"/>
    </clipPath>
    <clipPath id="clip-path-7">
      <rect id="Rectángulo_403335" data-name="Rectángulo 403335" width="295" height="223.24" transform="translate(0 -52)" fill="none"/>
    </clipPath>
    <clipPath id="clip-path-9">
      <rect id="Rectángulo_403337" data-name="Rectángulo 403337" width="20.232" height="46.233" fill="none"/>
    </clipPath>
    <clipPath id="clip-path-11">
      <rect id="Rectángulo_403339" data-name="Rectángulo 403339" width="15.645" height="40.21" fill="none"/>
    </clipPath>
    <clipPath id="clip-path-12">
      <rect id="Rectángulo_403340" data-name="Rectángulo 403340" width="13.336" height="33.064" fill="none"/>
    </clipPath>
    <clipPath id="clip-path-14">
      <rect id="Rectángulo_403344" data-name="Rectángulo 403344" width="35.766" height="81.731" fill="none"/>
    </clipPath>
    <clipPath id="clip-path-16">
      <rect id="Rectángulo_403346" data-name="Rectángulo 403346" width="27.657" height="71.083" fill="none"/>
    </clipPath>
    <clipPath id="clip-path-17">
      <rect id="Rectángulo_403347" data-name="Rectángulo 403347" width="23.574" height="58.451" fill="none"/>
    </clipPath>
  </defs>
  <g id="Grupo_1103086" data-name="Grupo 1103086" transform="translate(-705 -11671.192)">
    <g id="Grupo_1099743" data-name="Grupo 1099743" transform="translate(0.033 8579.192)">
      <rect id="Rectángulo_401369" data-name="Rectángulo 401369" width="223" height="226" transform="translate(777 3092)" fill="#cce1d7"/>
    </g>
    <g id="Grupo_1102071" data-name="Grupo 1102071" transform="translate(705 11725.952)">
      <g id="Enmascarar_grupo_1102070" data-name="Enmascarar grupo 1102070" clip-path="url(#clip-path)">
        <g id="Grupo_1102037" data-name="Grupo 1102037">
          <g id="Grupo_1102036" data-name="Grupo 1102036" clip-path="url(#clip-path-2)">
            <path id="Trazado_885428" data-name="Trazado 885428" d="M377.789,141.81a142.427,142.427,0,0,1-2.97,29.012H97.146a141.858,141.858,0,0,1,85.5-160.447,140.252,140.252,0,0,1,15.787-5.347,141.94,141.94,0,0,1,173.284,95.615q.075.248.149.5h0c.05.165.1.332.148.5l.015.049c.044.15.087.3.132.45a141.845,141.845,0,0,1,5.625,39.675" transform="translate(-87.718 -0.003)" fill="#b1e5ff"/>
            <g id="Grupo_1102026" data-name="Grupo 1102026" transform="translate(133.874 21.693)" opacity="0.51" style="mix-blend-mode: multiply;isolation: isolate">
              <g id="Grupo_1102025" data-name="Grupo 1102025">
                <g id="Grupo_1102024" data-name="Grupo 1102024" clip-path="url(#clip-path-3)">
                  <path id="Trazado_885429" data-name="Trazado 885429" d="M2108.638,436.482a142.45,142.45,0,0,1-2.97,29.012H1953.906c-3.908-10.17.768-27.557,5.05-33.143,5.066-6.608,2.864-20.927,6.058-24.671s18.283-10.464,33.373-9.142,46.7,9.692,56.172,13.327,28.637,4.3,25.443-10.023-28.747-.991-38.99-1.983-8.922-16.961-20.487-22.248S1994.641,391.049,1992,392.7s-8.04-1.872-11.785-1.762-14.869,1.431-16.191-2.093,6.609-11.785,9.142-12.776,10.574,1.652,11.125-.331-.991-2.092-3.855-3.744-1.983-5.948,7.82-7.49,11.9-6.5,12.446-8.371,7.159-1.762,8.15-7.049-13.548-1.872-16.081-6.388,7.16-10.353,9.8-11.344-.771-10.574,4.186-14.1,23.791,4.3,33.923,8.811c6.215,2.77,14.876,4.132,20.745,4.769a141.866,141.866,0,0,1,41.144,64.48q.075.248.149.5h0c.05.165.1.332.148.5l.015.049c.044.15.087.3.132.45a141.849,141.849,0,0,1,5.625,39.675" transform="translate(-1952.441 -316.368)" fill="#2d903a"/>
                </g>
              </g>
            </g>
            <path id="Trazado_885430" data-name="Trazado 885430" d="M4139.726,1460.508q.305.991.594,1.988-.291-1-.594-1.988" transform="translate(-3855.874 -1360.365)" fill="#28baa5"/>
            <g id="Grupo_1102029" data-name="Grupo 1102029" transform="translate(94.62)" opacity="0.51" style="mix-blend-mode: multiply;isolation: isolate">
              <g id="Grupo_1102028" data-name="Grupo 1102028">
                <g id="Grupo_1102027" data-name="Grupo 1102027" clip-path="url(#clip-path-4)">
                  <path id="Trazado_885431" data-name="Trazado 885431" d="M1457.341,1.981c-1.243,8.429-5.179,17.139-8.936,21.589-4.185,4.956-14.649,3.084-18.834,5.727s-8.922,14.428-14.759,16.521-11.565-.991-15.64,3.414-14.759,8.15-18.724-3.525,16.852-27.976,18.063-32.381c.661-2.4-.9-5.752-2.465-8.3a142.992,142.992,0,0,1,61.295-3.043" transform="translate(-1379.947)" fill="#2d903a"/>
                </g>
              </g>
            </g>
            <g id="Grupo_1102032" data-name="Grupo 1102032" transform="translate(8.973 10.372)" opacity="0.51" style="mix-blend-mode: multiply;isolation: isolate">
              <g id="Grupo_1102031" data-name="Grupo 1102031">
                <g id="Grupo_1102030" data-name="Grupo 1102030" clip-path="url(#clip-path-5)">
                  <path id="Trazado_885432" data-name="Trazado 885432" d="M227.256,217.223c-.881,2.864-7.71,2.423-11.345,2.093s-4.185,4.626-6.5,4.626-15.97,0-18.944-1.432-15.64.771-18.5,5.507-4.3,11.9-8.811,13.217-18.834-.551-21.147,1.983c-2.1,2.3-7.384,11.785-11.142,12.757a142.036,142.036,0,0,1,85.959-104.706c2.38,2.567,5.324,6.51,4.705,9.123-.991,4.185-2.093,8.15-10.353,11.345s-9.142,2.974-9.913,5.066,3.965,3.414,0,7.82-14.208,8.04-18.834,9.252-9.692,11.9-2.533,15.64,13.988-3.965,16.411-8.15,10.463-8.921,16.3-2.974,15.53,15.97,14.649,18.834" transform="translate(-130.865 -151.267)" fill="#2d903a"/>
                </g>
              </g>
            </g>
            <g id="Grupo_1102035" data-name="Grupo 1102035" transform="translate(15.9 144.228)" opacity="0.2" style="mix-blend-mode: multiply;isolation: isolate">
              <g id="Grupo_1102034" data-name="Grupo 1102034">
                <g id="Grupo_1102033" data-name="Grupo 1102033" clip-path="url(#clip-path-6)">
                  <path id="Trazado_885433" data-name="Trazado 885433" d="M294.054,2130.029H232a36.113,36.113,0,0,1,.691-10.233c2.313-11.344,10.574-13.107,28.417-15.97,9.365-1.5,15.971,1.1,21.037,12.556,1.788,4.042,5.989,10.388,11.908,13.648" transform="translate(-231.892 -2103.437)" fill="#28baa5"/>
                </g>
              </g>
            </g>
          </g>
        </g>
        <g id="Grupo_1102039" data-name="Grupo 1102039">
          <g id="Grupo_1102038" data-name="Grupo 1102038" clip-path="url(#clip-path-7)">
            <path id="Trazado_885434" data-name="Trazado 885434" d="M360.488,56.98A47.649,47.649,0,1,1,312.839,9.331,47.649,47.649,0,0,1,360.488,56.98" transform="translate(-255.488 -54.691)" fill="#fff"/>
            <path id="Trazado_885435" data-name="Trazado 885435" d="M390.255,90.363a44.033,44.033,0,1,1-44.032-44.032,44.033,44.033,0,0,1,44.032,44.032" transform="translate(-288.871 -88.075)" fill="#f8cd20"/>
          </g>
        </g>
        <rect id="Rectángulo_403336" data-name="Rectángulo 403336" width="8.348" height="21.19" transform="translate(101.283 148.059)" fill="#fff"/>
        <path id="Trazado_885436" data-name="Trazado 885436" d="M1041.325,1549.427l-10.385,32.044-2.646,8.166h0l-1.952,6.023h-67.8l8.069-24.9,2.647-8.166,4.267-13.169Z" transform="translate(-892.819 -1443.187)" fill="#6a8a99"/>
        <g id="Grupo_1102053" data-name="Grupo 1102053">
          <g id="Grupo_1102052" data-name="Grupo 1102052" clip-path="url(#clip-path-2)">
            <g id="Grupo_1102042" data-name="Grupo 1102042" transform="translate(83.908 106.241)" opacity="0.7">
              <g id="Grupo_1102041" data-name="Grupo 1102041">
                <g id="Grupo_1102040" data-name="Grupo 1102040" clip-path="url(#clip-path-9)">
                  <path id="Trazado_885437" data-name="Trazado 885437" d="M1243.967,1595.661h-5.286l-14.945-46.233h5.286Z" transform="translate(-1223.735 -1549.427)" fill="#dff1f3"/>
                </g>
              </g>
            </g>
            <g id="Grupo_1102045" data-name="Grupo 1102045" transform="translate(101.976 106.241)" opacity="0.7">
              <g id="Grupo_1102044" data-name="Grupo 1102044">
                <g id="Grupo_1102043" data-name="Grupo 1102043" clip-path="url(#clip-path-9)">
                  <path id="Trazado_885438" data-name="Trazado 885438" d="M1507.464,1595.661h-5.286l-14.946-46.233h5.286Z" transform="translate(-1487.232 -1549.427)" fill="#dff1f3"/>
                </g>
              </g>
            </g>
            <g id="Grupo_1102048" data-name="Grupo 1102048" transform="translate(122.476 106.241)" opacity="0.7">
              <g id="Grupo_1102047" data-name="Grupo 1102047">
                <g id="Grupo_1102046" data-name="Grupo 1102046" clip-path="url(#clip-path-11)">
                  <path id="Trazado_885439" data-name="Trazado 885439" d="M1801.859,1581.472l-2.646,8.166-13-40.21h5.286Z" transform="translate(-1786.214 -1549.427)" fill="#dff1f3"/>
                </g>
              </g>
            </g>
            <g id="Grupo_1102051" data-name="Grupo 1102051" transform="translate(73.794 119.41)" opacity="0.7">
              <g id="Grupo_1102050" data-name="Grupo 1102050">
                <g id="Grupo_1102049" data-name="Grupo 1102049" clip-path="url(#clip-path-12)">
                  <path id="Trazado_885440" data-name="Trazado 885440" d="M1089.558,1774.551h-5.286l-8.049-24.9,2.647-8.166Z" transform="translate(-1076.223 -1741.486)" fill="#dff1f3"/>
                </g>
              </g>
            </g>
          </g>
        </g>
        <path id="Trazado_885441" data-name="Trazado 885441" d="M941.908,1585.223h69.542l15.521-47.892H957.429Zm73.322-17.045H994.406l4.412-13.614h20.824Zm-22.567,0H971.743l4.412-13.614h20.92Zm-15.97-15.273,4.51-13.916h20.92l-4.51,13.916Zm-23.1,1.659h20.824L970,1568.179H949.176Zm38.537,15.273-4.448,13.727h-20.92l4.449-13.727Zm-27.112,13.727H944.189l4.448-13.727h20.824Zm-6.378-44.574h20.824l-4.51,13.916H954.125Zm66.054,0-4.51,13.916H999.356l4.51-13.916Zm-14.445,44.574H989.42l4.449-13.727h20.824Z" transform="translate(-877.324 -1431.92)" fill="#fff"/>
        <rect id="Rectángulo_403342" data-name="Rectángulo 403342" width="37.672" height="3.478" transform="translate(86.621 167.484)" fill="#fff"/>
        <rect id="Rectángulo_403343" data-name="Rectángulo 403343" width="14.757" height="37.46" transform="translate(185.463 130.475)" fill="#fff"/>
        <path id="Trazado_885442" data-name="Trazado 885442" d="M1934.415,824.715l-18.358,56.647-4.677,14.435h0l-3.451,10.647H1788.075l14.264-44.015,4.679-14.435,7.544-23.28Z" transform="translate(-1665.471 -768.166)" fill="#6a8a99"/>
        <g id="Grupo_1102067" data-name="Grupo 1102067">
          <g id="Grupo_1102066" data-name="Grupo 1102066" clip-path="url(#clip-path-2)">
            <g id="Grupo_1102056" data-name="Grupo 1102056" transform="translate(154.748 56.548)" opacity="0.7">
              <g id="Grupo_1102055" data-name="Grupo 1102055">
                <g id="Grupo_1102054" data-name="Grupo 1102054" clip-path="url(#clip-path-14)">
                  <path id="Trazado_885443" data-name="Trazado 885443" d="M2292.64,906.445H2283.3l-26.42-81.73h9.344Z" transform="translate(-2256.875 -824.715)" fill="#dff1f3"/>
                </g>
              </g>
            </g>
            <g id="Grupo_1102059" data-name="Grupo 1102059" transform="translate(186.688 56.548)" opacity="0.7">
              <g id="Grupo_1102058" data-name="Grupo 1102058">
                <g id="Grupo_1102057" data-name="Grupo 1102057" clip-path="url(#clip-path-14)">
                  <path id="Trazado_885444" data-name="Trazado 885444" d="M2758.447,906.445H2749.1l-26.422-81.73h9.345Z" transform="translate(-2722.68 -824.715)" fill="#dff1f3"/>
                </g>
              </g>
            </g>
            <g id="Grupo_1102062" data-name="Grupo 1102062" transform="translate(222.929 56.548)" opacity="0.7">
              <g id="Grupo_1102061" data-name="Grupo 1102061">
                <g id="Grupo_1102060" data-name="Grupo 1102060" clip-path="url(#clip-path-16)">
                  <path id="Trazado_885445" data-name="Trazado 885445" d="M3278.873,881.363l-4.678,14.435-22.979-71.083h9.344Z" transform="translate(-3251.216 -824.715)" fill="#dff1f3"/>
                </g>
              </g>
            </g>
            <g id="Grupo_1102065" data-name="Grupo 1102065" transform="translate(136.868 79.829)" opacity="0.7">
              <g id="Grupo_1102064" data-name="Grupo 1102064">
                <g id="Grupo_1102063" data-name="Grupo 1102063" clip-path="url(#clip-path-17)">
                  <path id="Trazado_885446" data-name="Trazado 885446" d="M2019.679,1222.683h-9.345l-14.229-44.015,4.679-14.435Z" transform="translate(-1996.104 -1164.232)" fill="#dff1f3"/>
                </g>
              </g>
            </g>
          </g>
        </g>
        <path id="Trazado_885447" data-name="Trazado 885447" d="M1758.667,887.994H1881.6l27.437-84.663H1786.1Zm129.617-30.131h-36.812l7.8-24.067h36.812Zm-39.894,0h-36.981l7.8-24.067h36.981Zm-28.231-27,7.972-24.6h36.981l-7.972,24.6Zm-40.844,2.932h36.812l-7.8,24.067h-36.812Zm68.126,27-7.864,24.266h-36.981l7.864-24.266Zm-47.928,24.266H1762.7l7.864-24.266h36.812Zm-11.275-78.8h36.812l-7.972,24.6h-36.812Zm116.77,0-7.972,24.6h-36.812l7.972-24.6Zm-25.536,78.8h-36.812l7.864-24.266h36.812Z" transform="translate(-1638.079 -748.249)" fill="#fff"/>
        <rect id="Rectángulo_403349" data-name="Rectángulo 403349" width="66.595" height="6.149" transform="translate(159.544 164.813)" fill="#fff"/>
        <g id="Grupo_1102069" data-name="Grupo 1102069">
          <g id="Grupo_1102068" data-name="Grupo 1102068" clip-path="url(#clip-path-2)">
            <path id="Trazado_885448" data-name="Trazado 885448" d="M3486.332,2255.907h-6.6a19.464,19.464,0,0,1-6.612-9.264c-1.06-3.543.331-6.341,2.449-7.559.15-.086.3-.164.46-.234,2.084-.931,4.708-.405,6.428,2.279a23.131,23.131,0,0,1,2.7,6.981,52.421,52.421,0,0,1,1.17,7.8" transform="translate(-3234.639 -2084.941)" fill="#38b449"/>
            <path id="Trazado_885449" data-name="Trazado 885449" d="M3664.695,2109.46a64.271,64.271,0,0,1-5.471,9.728h-12.557a41.1,41.1,0,0,1,.449-7.8c1.3-8.581,4.987-15.963,8.179-18.3a7.087,7.087,0,0,1,7.466-.687q.229.12.45.26c2.083,1.311,3.632,3.909,3.7,7.926a22.457,22.457,0,0,1-2.217,8.873" transform="translate(-3396.595 -1948.223)" fill="#38b449"/>
            <path id="Trazado_885450" data-name="Trazado 885450" d="M3836.207,2337.69a13.64,13.64,0,0,1-1.684,6.47H3823.1a65.728,65.728,0,0,1,3.985-7.867,6.879,6.879,0,0,1,1.974-1.861c1.575-1.021,3.58-1.6,5.066-1.042a2.884,2.884,0,0,1,.466.221c1.012.6,1.68,1.867,1.611,4.079" transform="translate(-3560.964 -2173.195)" fill="#38b449"/>
            <path id="Trazado_885451" data-name="Trazado 885451" d="M3614,2000.028s-5.367-8.087,0-9.852,0,9.852,0,9.852" transform="translate(-3363.971 -1853.544)" fill="#7dbd4b"/>
            <path id="Trazado_885452" data-name="Trazado 885452" d="M4000.239,2174.864c.221-.073,3.382-7.646,5.955-4.411s-5.955,4.411-5.955,4.411" transform="translate(-3725.952 -2020.882)" fill="#7dbd4b"/>
            <path id="Trazado_885453" data-name="Trazado 885453" d="M3733.031,2102.99l-7.708,18.8h0l-.233.568-2.937,7.162h-.557l.434-1.058.244-.595h0l4.531-11.046.258-.629h0l5.52-13.458c.152.08.3.167.45.26" transform="translate(-3466.415 -1958.551)" fill="#009653"/>
            <rect id="Rectángulo_403350" data-name="Rectángulo 403350" width="0.515" height="8.976" transform="translate(256.375 150.312) rotate(-26.775)" fill="#009653"/>
            <rect id="Rectángulo_403351" data-name="Rectángulo 403351" width="7.135" height="0.515" transform="translate(258.442 163.325) rotate(-10.695)" fill="#009653"/>
            <rect id="Rectángulo_403352" data-name="Rectángulo 403352" width="0.515" height="7.949" transform="translate(251.605 163.194) rotate(-30.849)" fill="#009653"/>
            <path id="Trazado_885454" data-name="Trazado 885454" d="M3521.73,2261.687h-.564c-.549-1.234-1.186-2.671-1.861-4.2l-.253-.571c-1.881-4.25-4-9.061-5.279-12.055.15-.086.3-.164.46-.235.964,2.253,2.415,5.566,3.882,8.893l.287.649c1.207,2.737,2.4,5.437,3.328,7.515" transform="translate(-3272.843 -2090.721)" fill="#009653"/>
            <path id="Trazado_885455" data-name="Trazado 885455" d="M3574.2,2317.586l-.475-.2c.767-1.834,1.927-4.622,1.982-4.785l.489.163c-.075.223-1.8,4.351-2,4.821" transform="translate(-3328.679 -2154.032)" fill="#009653"/>
            <rect id="Rectángulo_403353" data-name="Rectángulo 403353" width="0.515" height="5.348" transform="matrix(0.183, -0.983, 0.983, 0.183, 241.339, 165.815)" fill="#009653"/>
            <path id="Trazado_885456" data-name="Trazado 885456" d="M3896.9,2336.539c-1.292,2.185-3.416,5.733-5.411,9.06l-.378.632-.514.857h-.6c2.43-4.049,4.98-8.309,6.439-10.77a2.9,2.9,0,0,1,.465.221" transform="translate(-3623.264 -2176.122)" fill="#009653"/>
            <rect id="Rectángulo_403354" data-name="Rectángulo 403354" width="6.037" height="0.515" transform="matrix(0.967, -0.254, 0.254, 0.967, 267.61, 169.638)" fill="#009653"/>
            <path id="Trazado_885457" data-name="Trazado 885457" d="M148.63,2271.474H130.569c-.518-.322-1.04-.667-1.555-1.032q-.217-.154-.431-.313c-2.335-1.734-4.425-3.909-5.067-6.4a7.035,7.035,0,0,1,.612-5.343q.113-.2.24-.384c1.659-2.447,4.981-3.631,8.667-2.314q.233.083.469.18a12.1,12.1,0,0,1,2.025,1.079,28.819,28.819,0,0,1,4.467,3.785,81.93,81.93,0,0,1,8.636,10.747" transform="translate(-114.803 -2100.508)" fill="#38b449"/>
            <path id="Trazado_885458" data-name="Trazado 885458" d="M338.09,2007.223H323.137c-1.29-2.812-2.994-6.7-4.522-10.747a74.285,74.285,0,0,1-3.24-10.5c-1.2-5.75.8-11.355,4.144-13.56.13-.087.264-.167.4-.242,2.539-1.424,5.77-.938,8.957,2.758a17.683,17.683,0,0,1,1.938,2.8c.085.15.169.3.252.456,2.166,4.006,3.729,9.451,4.839,14.719a141.85,141.85,0,0,1,2.188,14.312" transform="translate(-293.424 -1836.258)" fill="#38b449"/>
            <path id="Trazado_885459" data-name="Trazado 885459" d="M616.9,2206.714a72.72,72.72,0,0,1-1.452,7.313H603.808c-.138-3.1-.289-6.969-.245-8.332a20.894,20.894,0,0,1,1.087-5.98c1.376-4,4.1-7.241,8.455-5.976q.213.062.432.139a9.787,9.787,0,0,1,1.07.451c3.011,1.474,3.035,7.094,2.295,12.385" transform="translate(-562.17 -2043.062)" fill="#38b449"/>
            <path id="Trazado_885460" data-name="Trazado 885460" d="M775.371,2338.048c-.019.178-.045.354-.079.528,0,.017-.006.035-.01.052a24.491,24.491,0,0,1-1.316,4.275H763.658a16.414,16.414,0,0,1,2.368-7.314,10.663,10.663,0,0,1,1.2-1.5c.1-.109.212-.216.323-.322s.208-.194.316-.289c1.6-1.4,3.006-1.811,4.155-1.594a2.969,2.969,0,0,1,.438.117c2.073.717,3.18,3.575,2.913,6.052" transform="translate(-711.296 -2171.938)" fill="#38b449"/>
            <path id="Trazado_885461" data-name="Trazado 885461" d="M663.948,1965.13c.194-.129-.969-9.429,3.746-8.913s-3.746,8.913-3.746,8.913" transform="translate(-618.423 -1822.065)" fill="#7dbd4b"/>
            <path id="Trazado_885462" data-name="Trazado 885462" d="M391.949,2017.265h-.473l-3.51-11.215-.161-.515-7.222-23.077c.13-.087.264-.167.4-.242l4.855,15.517h0l.18.574,3.4,10.869.171.544Z" transform="translate(-354.487 -1846.299)" fill="#009653"/>
            <path id="Trazado_885463" data-name="Trazado 885463" d="M459.971,2063.8l-6.111,10.073-.053.087-.386-.235.259-.427h0l6.039-9.954q.127.224.253.456" transform="translate(-422.331 -1921.863)" fill="#009653"/>
            <path id="Trazado_885464" data-name="Trazado 885464" d="M682.079,2197.646c-.916,4.209-2.313,10.491-3.588,16.2q-.066.294-.131.586c-.258,1.155-.511,2.284-.752,3.362h-.464c.534-2.383,1.123-5.018,1.71-7.656q.066-.292.13-.585h0c.991-4.446,1.967-8.854,2.663-12.046q.213.062.432.139" transform="translate(-630.713 -2046.83)" fill="#009653"/>
            <rect id="Rectángulo_403355" data-name="Rectángulo 403355" width="0.452" height="6.298" transform="translate(45.354 157.662) rotate(-25.514)" fill="#009653"/>
            <path id="Trazado_885465" data-name="Trazado 885465" d="M380.485,2297.092a77.166,77.166,0,0,0-8.059-1.994v-.452c1.117,0,7.9,1.929,8.183,2.011Z" transform="translate(-346.89 -2137.308)" fill="#009653"/>
            <rect id="Rectángulo_403356" data-name="Rectángulo 403356" width="6.519" height="0.452" transform="translate(47.34 167.255) rotate(-28.466)" fill="#009653"/>
            <rect id="Rectángulo_403357" data-name="Rectángulo 403357" width="10.334" height="0.452" transform="translate(34.667 163.253) rotate(-55.006)" fill="#009653"/>
            <path id="Trazado_885466" data-name="Trazado 885466" d="M146.13,2304.233c2.8,2.091,5.658,4.232,8.133,6.085h-.754l-5.408-4.048-.418-.313c-4.593-3.436-8.963-6.7-11.705-8.733q.113-.2.24-.384c2.333,1.731,5.806,4.322,9.429,7.03l.483.362" transform="translate(-126.653 -2139.352)" fill="#009653"/>
            <path id="Trazado_885467" data-name="Trazado 885467" d="M267.14,2272.9l-.451.037c-.014-.163-.027-.33-.041-.5-.242-2.954-.571-6.986-.762-9.344q.234.083.469.18c.207,2.552.555,6.821.776,9.525,0,.034.006.067.008.1" transform="translate(-247.655 -2107.917)" fill="#009653"/>
            <path id="Trazado_885468" data-name="Trazado 885468" d="M208.748,2427.976l-.12.05c-1.232.52-5.422,2.286-7.237,3.015-.145-.1-.289-.207-.431-.313,1.281-.51,4.7-1.941,7.25-3.016l.362-.153Z" transform="translate(-187.181 -2261.108)" fill="#009653"/>
            <path id="Trazado_885469" data-name="Trazado 885469" d="M841.627,2332.732l-2.81,9.471h0l-.19.64-.236.8h-.472l1.462-4.927h0l.159-.535,1.649-5.561a2.975,2.975,0,0,1,.438.117" transform="translate(-780.465 -2172.673)" fill="#009653"/>
            <path id="Trazado_885470" data-name="Trazado 885470" d="M819.1,2364.112l-.359.275-.07-.092h0l-2.986-3.891q.156-.163.323-.322l2.822,3.678Z" transform="translate(-759.759 -2198.257)" fill="#009653"/>
            <path id="Trazado_885471" data-name="Trazado 885471" d="M849.8,2422.577c-.019.178-.045.354-.079.528,0,.017-.006.035-.01.052-2.067,1.232-5.255,3.139-5.824,3.479l-.088.053-.232-.387.51-.3h0c1.156-.691,3.975-2.377,5.723-3.419" transform="translate(-785.728 -2256.467)" fill="#009653"/>
            <path id="Trazado_885472" data-name="Trazado 885472" d="M2023.233,2098.509h-12.069a36.591,36.591,0,0,1-6.217-10.607c-.062-.173-.123-.348-.181-.523a21.686,21.686,0,0,1-1.2-7.764c.195-4.834,2.294-8.08,5-9.444.155-.079.313-.151.471-.217,3.162-1.312,7.013-.146,9.611,3.931q.146.229.286.471c.051.085.1.172.149.26,3.042,5.486,3.888,14.874,4.1,21.114.034,1.021.051,1.958.057,2.78" transform="translate(-1866.173 -1927.543)" fill="#38b449"/>
            <path id="Trazado_885473" data-name="Trazado 885473" d="M2291.218,2244.669h0c-.023.179-.052.356-.084.535-.607,3.338-2.656,6.759-4.346,9.129h-14.312c.345-.853.741-1.792,1.185-2.781a62.289,62.289,0,0,1,3.036-5.969c.463-.791.967-1.594,1.5-2.379q.18-.264.365-.524c3.011-4.249,6.908-7.689,10.175-4.988q.2.161.386.351a8.209,8.209,0,0,1,1.173,1.511,7.561,7.561,0,0,1,.921,5.113" transform="translate(-2116.657 -2083.367)" fill="#38b449"/>
            <path id="Trazado_885474" data-name="Trazado 885474" d="M2355.466,1980.429s1.81-11.76,6.543-9.116c5.661,3.161-6.543,9.116-6.543,9.116" transform="translate(-2193.958 -1835.783)" fill="#7dbd4b"/>
            <path id="Trazado_885475" data-name="Trazado 885475" d="M2086.122,2105.477h-.54c-.894-2.835-2-6.336-3.146-9.978-.056-.176-.111-.353-.168-.53-2.083-6.6-4.285-13.585-5.628-17.832.155-.079.312-.151.471-.217.918,2.9,2.244,7.1,3.66,11.591l.189.6c1.816,5.757,3.757,11.913,5.162,16.369" transform="translate(-1934.25 -1934.511)" fill="#009653"/>
            <path id="Trazado_885476" data-name="Trazado 885476" d="M2139.042,2134.724l-6.048,7.786-.083.107-.407-.316.3-.387,5.951-7.659q.145.229.286.47" transform="translate(-1986.283 -1987.913)" fill="#009653"/>
            <path id="Trazado_885477" data-name="Trazado 885477" d="M2031.063,2331.7l-.037.514-.174-.012c-3.088-.221-7.269-.509-9.412-.629-.062-.173-.123-.348-.181-.523,2.25.118,6.859.44,9.425.624l.379.027" transform="translate(-1882.666 -2171.219)" fill="#009653"/>
            <path id="Trazado_885478" data-name="Trazado 885478" d="M2367.253,2251.062c-1.181,1.867-3.008,4.76-4.961,7.853-.11.173-.219.347-.33.521-.015.026-.032.051-.048.076l-4.95,7.839h-.608l2.457-3.889h0l.352-.556c.778-1.233,1.573-2.493,2.354-3.729h0l.047-.074,5.3-8.391q.195.161.386.351" transform="translate(-2194.786 -2096.384)" fill="#009653"/>
            <path id="Trazado_885479" data-name="Trazado 885479" d="M2358.939,2331.164l-.487.167-.04-.116-2.486-7.239q.179-.264.365-.524l2.473,7.206Z" transform="translate(-2194.386 -2164.138)" fill="#009653"/>
            <path id="Trazado_885480" data-name="Trazado 885480" d="M2439.327,2352.455c-.023.178-.052.356-.084.535-3.253.556-6.756,1.161-7.348,1.29-.036.007-.061.013-.075.018a.252.252,0,0,0,.155-.157l-.487-.165.011-.031h0a.2.2,0,0,1,.047-.074c.065-.062.2-.086.574-.158l.152-.029c.25-.047.582-.106.988-.179.833-.148,1.991-.35,3.445-.6.912-.157,1.828-.313,2.622-.448" transform="translate(-2264.767 -2191.153)" fill="#009653"/>
            <path id="Trazado_885481" data-name="Trazado 885481" d="M294.726,2489.939H.274a.274.274,0,0,1,0-.549H294.726a.274.274,0,0,1,0,.549" transform="translate(0 -2318.698)" fill="#0294a1"/>
          </g>
        </g>
      </g>
    </g>
  </g>
</svg>
