<svg xmlns="http://www.w3.org/2000/svg" xmlns:xlink="http://www.w3.org/1999/xlink" width="190" height="514.882" viewBox="0 0 190 514.882">
  <defs>
    <clipPath id="clip-path">
      <rect id="Rectángulo_403805" data-name="Rectángulo 403805" width="156.011" height="15.058" fill="none"/>
    </clipPath>
    <clipPath id="clip-path-2">
      <rect id="Rectángulo_403807" data-name="Rectángulo 403807" width="33.281" height="42.464" fill="none"/>
    </clipPath>
    <clipPath id="clip-path-3">
      <rect id="Rectángulo_403808" data-name="Rectángulo 403808" width="45.802" height="24.31" fill="none"/>
    </clipPath>
    <clipPath id="clip-path-4">
      <rect id="Rectángulo_403809" data-name="Rectángulo 403809" width="76.051" height="17.135" fill="none"/>
    </clipPath>
    <clipPath id="clip-path-5">
      <rect id="Rectángulo_403815" data-name="Rectángulo 403815" width="45.55" height="15.433" fill="none"/>
    </clipPath>
    <clipPath id="clip-path-6">
      <rect id="Rectángulo_403816" data-name="Rectángulo 403816" width="9.528" height="10.922" fill="none"/>
    </clipPath>
    <clipPath id="clip-path-7">
      <rect id="Rectángulo_403817" data-name="Rectángulo 403817" width="43.741" height="25.944" fill="none"/>
    </clipPath>
    <clipPath id="clip-path-8">
      <rect id="Rectángulo_403818" data-name="Rectángulo 403818" width="37.736" height="46.799" fill="none"/>
    </clipPath>
    <clipPath id="clip-path-9">
      <rect id="Rectángulo_403819" data-name="Rectángulo 403819" width="58.179" height="46.122" fill="none"/>
    </clipPath>
    <clipPath id="clip-path-10">
      <rect id="Rectángulo_403820" data-name="Rectángulo 403820" width="12.611" height="16.32" fill="none"/>
    </clipPath>
    <clipPath id="clip-path-11">
      <rect id="Rectángulo_403821" data-name="Rectángulo 403821" width="32.837" height="26.22" fill="none"/>
    </clipPath>
    <clipPath id="clip-path-12">
      <rect id="Rectángulo_403822" data-name="Rectángulo 403822" width="3.212" height="17.145" fill="none"/>
    </clipPath>
    <clipPath id="clip-path-13">
      <rect id="Rectángulo_403824" data-name="Rectángulo 403824" width="5.603" height="16.893" fill="none"/>
    </clipPath>
  </defs>
  <g id="Grupo_1102894" data-name="Grupo 1102894" transform="translate(-1230 -4514.411)">
    <path id="Rectángulo_403831" data-name="Rectángulo 403831" d="M83.5,0h0A83.5,83.5,0,0,1,167,83.5V502a0,0,0,0,1,0,0H0a0,0,0,0,1,0,0V83.5A83.5,83.5,0,0,1,83.5,0Z" transform="translate(1242.051 4527)" fill="#fcded3"/>
    <g id="Grupo_1102886" data-name="Grupo 1102886" transform="translate(57.995 -518.999)">
      <path id="Trazado_888407" data-name="Trazado 888407" d="M325.529,238.262a25.666,25.666,0,0,1-9.992,18.79l-13.372-17.067a4.04,4.04,0,0,0,1.73-3.132.166.166,0,0,0,.006-.052c.007-.045.007-.085.013-.124.052-.754.111-7.849-14.748-25.185-3.171-3.7-6.388-7.129-9.2-9.978-.15-.151-.295-.3-.446-.452-4.52-4.573-7.862-7.561-7.993-7.679l13.39-16.439c2.292,1.553,11.008,9.153,20.548,20.258,14.309,16.654,20.873,30.085,20.061,41.059" transform="translate(1036.409 5019.554)" fill="#ff6248"/>
      <path id="Trazado_888408" data-name="Trazado 888408" d="M310.066,248.888l-.118-.013c.006-.046.006-.086.013-.125.052-.753.111-7.849-14.748-25.185-3.171-3.7-6.388-7.128-9.2-9.978l3.085-7.718c12.665,5.019,24.457,28.388,20.965,43.018" transform="translate(1030.363 5007.481)" fill="#c6392a"/>
      <rect id="Rectángulo_403804" data-name="Rectángulo 403804" width="17.182" height="11.826" transform="translate(1283.182 5514.207)" fill="#3d201c"/>
      <g id="Grupo_1102849" data-name="Grupo 1102849" transform="translate(1192.872 5533.234)" style="mix-blend-mode: multiply;isolation: isolate">
        <g id="Grupo_1102848" data-name="Grupo 1102848">
          <g id="Grupo_1102847" data-name="Grupo 1102847" clip-path="url(#clip-path)">
            <path id="Trazado_888409" data-name="Trazado 888409" d="M0,762.463c0,4.158,2.64,7.529,5.9,7.529H150.113c3.257,0,5.9-3.371,5.9-7.529s-2.641-7.529-5.9-7.529H5.9c-3.258,0-5.9,3.371-5.9,7.529" transform="translate(0 -754.934)" fill="#d2d3d6"/>
          </g>
        </g>
      </g>
      <path id="Trazado_888410" data-name="Trazado 888410" d="M241.273,417.02l8.8,61.849a151.019,151.019,0,0,1,.039,42.282l-10.766,76.694" transform="translate(1049.843 4919.346)" fill="none" stroke="#823c33" stroke-miterlimit="10" stroke-width="58.477"/>
      <rect id="Rectángulo_403806" data-name="Rectángulo 403806" width="18.966" height="11.826" transform="translate(1241.383 5514.207)" fill="#3d201c"/>
      <path id="Trazado_888411" data-name="Trazado 888411" d="M218.131,441.109H191.508a1.141,1.141,0,0,1-1.123-.938l-.147-.814a.988.988,0,0,1-.015-.165,6.875,6.875,0,0,0-13.75.084L176.432,587.6a1.141,1.141,0,0,1-1.141,1.141H144.055a1.141,1.141,0,0,1-1.141-1.142l.005-19.608.006-21.714.029-142.552v-7.373a1.141,1.141,0,0,1,1.141-1.141h73.726a1.141,1.141,0,0,1,1.141,1.133l.045,6.488.264,37.132a1.142,1.142,0,0,1-1.141,1.149" transform="translate(1090.094 4928.451)" fill="#823c33"/>
      <g id="Grupo_1102852" data-name="Grupo 1102852" transform="translate(1223.974 5474.724)" style="mix-blend-mode: multiply;isolation: isolate">
        <g id="Grupo_1102851" data-name="Grupo 1102851">
          <g id="Grupo_1102850" data-name="Grupo 1102850" clip-path="url(#clip-path-2)">
            <path id="Trazado_888412" data-name="Trazado 888412" d="M160.689,663.646v33.323H137.372L132.5,676.22l-5.094-21.715h24.14a9.14,9.14,0,0,1,9.142,9.141" transform="translate(-127.408 -654.505)" fill="#a5aab5"/>
          </g>
        </g>
      </g>
      <g id="Grupo_1102855" data-name="Grupo 1102855" transform="translate(1233.049 5323.659)" style="mix-blend-mode: multiply;isolation: isolate">
        <g id="Grupo_1102854" data-name="Grupo 1102854">
          <g id="Grupo_1102853" data-name="Grupo 1102853" clip-path="url(#clip-path-3)">
            <path id="Trazado_888413" data-name="Trazado 888413" d="M186.667,398.941l-1.769-1.006a4.764,4.764,0,0,1-.485,3.645,4.222,4.222,0,0,1-5.562,1.976,4.509,4.509,0,0,1-4.425,7.751c1.857,1.053,2.385,3.651,1.165,5.8a4.2,4.2,0,0,1-5.58,1.965l-9.443-5.36a5.834,5.834,0,0,1-6.9.976l-2.012-1.148a5.82,5.82,0,0,1-2.7-6.425l-5.97-3.39v-8.514h45.8Z" transform="translate(-142.984 -395.208)" fill="#d2d3d6"/>
          </g>
        </g>
      </g>
      <path id="Trazado_888414" data-name="Trazado 888414" d="M121.529,242.453c3.413-9.736,9.375-19.576,14.786-27.164-8.327,3.086-15.448,10.555-14.786,27.164" transform="translate(1099.037 5003.549)" fill="#fff"/>
      <g id="Grupo_1102858" data-name="Grupo 1102858" transform="translate(1233.048 5323.659)" style="mix-blend-mode: multiply;isolation: isolate">
        <g id="Grupo_1102857" data-name="Grupo 1102857">
          <g id="Grupo_1102856" data-name="Grupo 1102856" clip-path="url(#clip-path-4)">
            <path id="Trazado_888415" data-name="Trazado 888415" d="M142.983,395.208v17.135l76.052-12.425-.052-4.71Z" transform="translate(-142.983 -395.208)" fill="#d2d3d6"/>
          </g>
        </g>
      </g>
      <path id="Trazado_888416" data-name="Trazado 888416" d="M229.18,202.945l-2.129,34.521-65.012,57.975H136.881s-7.089-11.374-7.089-11.655l-.492-32.549-.21-13.713-.727-48.082.439-19.754c4.868-11.812,36.84-12.736,36.84-12.736a80.705,80.705,0,0,1,11.1-.767,79.628,79.628,0,0,1,16.077,1.625c.7.151,1.4.308,2.09.472.419.1.838.2,1.251.308a124.15,124.15,0,0,1,12.913,2.189c7.914,1.795,14.761,5.326,18.94,10.221,7.9,9.257,1.16,31.946,1.16,31.946" transform="translate(1096.168 5028.219)" fill="#ff6248"/>
      <path id="Trazado_888417" data-name="Trazado 888417" d="M186.165,353.671h50.841c.2-.19,11.4-12.959,11.4-12.959V295.694Z" transform="translate(1072.041 4969.988)" fill="#c6392a"/>
      <path id="Trazado_888418" data-name="Trazado 888418" d="M199.572,153.752a10.167,10.167,0,1,0,20.334,0v-13.78a10.167,10.167,0,1,0-20.334,0Z" transform="translate(1066.445 5039.23)" fill="#f48967"/>
      <path id="Trazado_888419" data-name="Trazado 888419" d="M152.615,87.157a5.163,5.163,0,1,0,4.293-5.907,5.163,5.163,0,0,0-4.293,5.907" transform="translate(1086.071 5059.524)" fill="#f48967"/>
      <path id="Trazado_888420" data-name="Trazado 888420" d="M243.444,70.385a5.163,5.163,0,1,0,4.293-5.907,5.163,5.163,0,0,0-4.293,5.907" transform="translate(1048.159 5066.524)" fill="#f48967"/>
      <path id="Trazado_888421" data-name="Trazado 888421" d="M208.087,32.439l4.279,43.783a14.208,14.208,0,0,1-.941,7.7,16.535,16.535,0,0,1-4.922,6.507l-5.849,4.892a22.186,22.186,0,0,1-21.622,3.42L171.9,94.848a16.118,16.118,0,0,1-6.526-4.552,13.873,13.873,0,0,1-3.189-6.853l-9.637-42.219Z" transform="translate(1086.071 5079.871)" fill="#f48967"/>
      <path id="Trazado_888422" data-name="Trazado 888422" d="M207.9,32.491l3.662,39.887a14.205,14.205,0,0,1-.941,7.7,16.514,16.514,0,0,1-4.927,6.508l-5.85,4.893a22.178,22.178,0,0,1-21.616,3.42L171.091,91a16.161,16.161,0,0,1-6.527-4.552,14.163,14.163,0,0,1-2.632-4.6l-9.381-42.507Z" transform="translate(1086.071 5079.849)" fill="#ffb287"/>
      <path id="Trazado_888423" data-name="Trazado 888423" d="M210.659,87.266s-2.9,6.185-9.362,1.48Z" transform="translate(1065.725 5056.986)" fill="#f48967"/>
      <path id="Trazado_888424" data-name="Trazado 888424" d="M198.22,108.033a8.522,8.522,0,1,0,16.834-2.663Z" transform="translate(1067.009 5049.429)" fill="#fff"/>
      <path id="Trazado_888425" data-name="Trazado 888425" d="M166.469,359.719,164.5,375.207h-26.8l-7.089-11.655-.273-16.262,48.123,2.59Z" transform="translate(1095.34 4948.451)" fill="#c6392a"/>
      <path id="Trazado_888426" data-name="Trazado 888426" d="M121.532,242.395c.007.269.02.544.033.819,0,.157.006.308.006.458.74-2.221,1.612-4.455,2.574-6.67a.022.022,0,0,0,.006-.013,25.816,25.816,0,0,1,8.321-15.645c1.358-2.191,2.735-4.27,4.08-6.2-8.427,3.032-15.689,10.485-15.021,27.249" transform="translate(1099.036 5003.609)" fill="#ff6248"/>
      <path id="Trazado_888427" data-name="Trazado 888427" d="M101.341,241.518a45.638,45.638,0,0,1,2.705-15.751c0-.151-.007-.3-.007-.459-.013-.275-.026-.55-.033-.819-.661-16.608,6.46-24.078,14.788-27.163.079-.027.151-.059.229-.079a112.241,112.241,0,0,1,8.347-10.765l-15.816-14.235c-2.761,2.662-9.165,9.636-17.237,22.929-11.439,18.849-16.294,35.7-14.426,50.094a21.152,21.152,0,0,0,2.8,7.844Z" transform="translate(1116.563 5021.515)" fill="#ff6248"/>
      <path id="Trazado_888428" data-name="Trazado 888428" d="M227.263,737.861H245.3c.623,3.052,9.72,4.922,13.146,5.348l20.769,3.824a9.142,9.142,0,0,1,.843,3.824c0,5.066-5.3,5.348-10.364,5.348H245.41l-4.569-5.057v5.057H227.263c-5.066,0-5.76-4.107-5.76-9.172s.694-9.172,5.76-9.172" transform="translate(1057.291 4785.427)" fill="#4f2f29"/>
      <rect id="Rectángulo_403810" data-name="Rectángulo 403810" width="20.08" height="5.057" transform="translate(1278.051 5536.575)"/>
      <rect id="Rectángulo_403811" data-name="Rectángulo 403811" width="34.212" height="3.179" transform="translate(1302.595 5538.453)"/>
      <path id="Trazado_888429" data-name="Trazado 888429" d="M259.159,762.548,254.7,760.67l4.463,5.057Z" transform="translate(1043.436 4775.905)"/>
      <path id="Trazado_888430" data-name="Trazado 888430" d="M155.516,737.861h18.042c.623,3.052,9.72,4.922,13.147,5.348l20.768,3.824a9.124,9.124,0,0,1,.842,3.824c0,5.066-5.3,5.348-10.363,5.348h-24.29l-4.568-5.057v5.057H155.516c-5.066,0-5.758.355-5.758-4.71s.692-13.634,5.758-13.634" transform="translate(1087.237 4785.427)" fill="#4f2f29"/>
      <rect id="Rectángulo_403812" data-name="Rectángulo 403812" width="20.08" height="5.057" transform="translate(1236.252 5536.575)"/>
      <rect id="Rectángulo_403813" data-name="Rectángulo 403813" width="34.213" height="3.179" transform="translate(1260.796 5538.453)"/>
      <path id="Trazado_888431" data-name="Trazado 888431" d="M187.412,762.548l-4.463-1.878,4.463,5.057Z" transform="translate(1073.383 4775.905)"/>
      <path id="Trazado_888432" data-name="Trazado 888432" d="M81.363,635.293a2.731,2.731,0,1,0,5.462,0,10.011,10.011,0,0,1,10-10h1.824a10.014,10.014,0,0,1,10.011,10,2.728,2.728,0,0,0,2.725,2.737,2.761,2.761,0,0,0,2.372-1.357,2.789,2.789,0,0,0,.365-1.38,15.483,15.483,0,0,0-15.473-15.46H96.824a15.481,15.481,0,0,0-15.461,15.46" transform="translate(1115.786 4834.691)" fill="#442e2c"/>
      <path id="Trazado_888433" data-name="Trazado 888433" d="M38.212,655.528a9.131,9.131,0,0,1,9.142-9.143h59.474v27.594H38.212Z" transform="translate(1133.797 4823.609)" fill="#612f26"/>
      <path id="Trazado_888434" data-name="Trazado 888434" d="M108.131,693.748v45.489H50.477a9.146,9.146,0,0,1-9.144-9.143V693.748Z" transform="translate(1132.494 4803.839)" fill="#612f26"/>
      <path id="Trazado_888435" data-name="Trazado 888435" d="M158.571,655.522v54.8a9.144,9.144,0,0,1-18.288,0v-54.8a9.144,9.144,0,0,1,18.288,0" transform="translate(1091.192 4823.61)" fill="#893c31"/>
      <rect id="Rectángulo_403814" data-name="Rectángulo 403814" width="57.65" height="4.245" transform="translate(1173.827 5497.587)" fill="#301d1b"/>
      <path id="Trazado_888436" data-name="Trazado 888436" d="M88.845,694.354a3.383,3.383,0,1,0,6.765,0v-2.559a3.383,3.383,0,1,0-6.765,0Z" transform="translate(1112.662 4806.066)" fill="#c0bcbd"/>
      <path id="Trazado_888437" data-name="Trazado 888437" d="M218.721,184.234l-6.562,16.271-6.789-16.074Z" transform="translate(1064.024 5016.511)" fill="#f48967"/>
      <path id="Trazado_888438" data-name="Trazado 888438" d="M217.023,189.962l5.255-13.025,9.519,7.619c4.527-9.178.871-22.616.125-25.112-.688-.164-1.389-.321-2.09-.471-.294,2.424-.838,6.9-1.074,8.877-.327,2.785-8.844,2.706-8.844,2.706Z" transform="translate(1059.161 5027.056)" fill="#c6392a"/>
      <path id="Trazado_888439" data-name="Trazado 888439" d="M204.507,189.157l-5.943-13.025-9.519,7.619c-4.527-9.178-.086-23.932.66-26.428.688-.164,1.85-.128,2.551-.278.294,2.424-.408,8.022-.172,10,.328,2.785,9.017,3.863,9.017,3.863Z" transform="translate(1071.677 5027.86)" fill="#c6392a"/>
      <path id="Trazado_888440" data-name="Trazado 888440" d="M229.259,153.265s-.184,12.2-7.279,14.905c2.541,1.474,9.747,9.5,9.747,9.5s4.054-16.487,1-20.9a29.032,29.032,0,0,1-3.472-3.508" transform="translate(1057.092 5029.438)" fill="#fff"/>
      <path id="Trazado_888441" data-name="Trazado 888441" d="M196.225,153.265s-1.713,12.2,6.788,16.065l-9.256,8.34s-4.054-16.487-1-20.9a29.031,29.031,0,0,0,3.472-3.508" transform="translate(1069.765 5029.438)" fill="#fff"/>
      <path id="Trazado_888442" data-name="Trazado 888442" d="M222.787,70.793a1.706,1.706,0,1,0,1.706-1.708,1.706,1.706,0,0,0-1.706,1.708" transform="translate(1056.755 5064.575)" fill="#40231d"/>
      <path id="Trazado_888443" data-name="Trazado 888443" d="M222.787,70.793a1.706,1.706,0,1,0,1.706-1.708A1.706,1.706,0,0,0,222.787,70.793Z" transform="translate(1056.755 5064.575)" fill="none" stroke="#40231d" stroke-miterlimit="10" stroke-width="1.125"/>
      <path id="Trazado_888444" data-name="Trazado 888444" d="M184.361,77.561a1.772,1.772,0,1,0,1.772-1.773,1.773,1.773,0,0,0-1.772,1.773" transform="translate(1072.794 5061.777)" fill="#40231d"/>
      <path id="Trazado_888445" data-name="Trazado 888445" d="M184.361,77.561a1.772,1.772,0,1,0,1.772-1.773A1.773,1.773,0,0,0,184.361,77.561Z" transform="translate(1072.794 5061.777)" fill="none" stroke="#40231d" stroke-miterlimit="10" stroke-width="1.125"/>
      <path id="Trazado_888446" data-name="Trazado 888446" d="M230.655,62.993c-1.173-1.255-5.365-2.524-7.893-1.377" transform="translate(1056.765 5067.879)" fill="none" stroke="#4f2f29" stroke-linecap="round" stroke-miterlimit="10" stroke-width="3.374"/>
      <path id="Trazado_888447" data-name="Trazado 888447" d="M176.365,70.89c.831-1.5,4.586-3.758,7.317-3.264" transform="translate(1076.131 5065.213)" fill="none" stroke="#4f2f29" stroke-linecap="round" stroke-miterlimit="10" stroke-width="3.374"/>
      <path id="Trazado_888448" data-name="Trazado 888448" d="M195.932,309.455a1.091,1.091,0,0,0,1.429.583l.97-.408a1.092,1.092,0,1,0-.847-2.012l-.969.408a1.091,1.091,0,0,0-.583,1.43" transform="translate(1068 4965.047)" fill="#fff"/>
      <path id="Trazado_888449" data-name="Trazado 888449" d="M148.759,30.149l.008.013c-4.7-28.3,35.494-35.672,42.493-26.34,14.412-2.873,17.785,11.213,18.317,21.964L209.115,47.3h-1.227l-1.421-11.254h0l-.138-.555c-.32-.9-1.4-2.895-5.042-5.855a48.833,48.833,0,0,1-8.67-7.827c-3.738,3.472-11.385,8.509-25.8,11.107h.006l-.068.009q-.48.086-.968.168c-2.672.537-9.641,2.482-10.352,8.25l2.321,12.744h-.987l-6.85-19.229a33.841,33.841,0,0,1-1.137-4.639Z" transform="translate(1087.81 5093.411)" fill="#4f2f29"/>
      <path id="Trazado_888450" data-name="Trazado 888450" d="M155.464,307.328c-1.31-.655-20.965-9.827-21.188-10.483a42.453,42.453,0,0,0-4.455-4.429l-.21-5.614.3-3.6c5.019,2.621,12.226-5.13,13.759-21.509s34.5.872,37.344,7.862-24.241,38.432-25.552,37.777" transform="translate(1095.646 4987.039)" fill="#c6392a"/>
      <path id="Trazado_888451" data-name="Trazado 888451" d="M161.8,395.859a5.942,5.942,0,0,1-8.038,2.431l-2.014-1.144A5.941,5.941,0,0,1,149.72,389l3.7-6.522a5.94,5.94,0,0,1,8.035-2.432l2.014,1.144a5.94,5.94,0,0,1,2.031,8.148Z" transform="translate(1087.599 4935.081)" fill="#465b66"/>
      <path id="Trazado_888452" data-name="Trazado 888452" d="M246.455,234.453a52.919,52.919,0,0,1-6.886,23.416c-.144.255-.288.5-.439.753q-1,1.71-2.117,3.3a52.159,52.159,0,0,1-20.841,17.689,49.91,49.91,0,0,1-10.581,3.6c-.957.38-2.2.9-3.637,1.592-1,.465-2.09,1.015-3.256,1.645a67.6,67.6,0,0,0-11.327,7.685c-.577.485-1.16,1-1.736,1.52q-1.14,1.032-2.254,2.156-1.209,1.218-2.378,2.555l-7.135,4.79c-.661,1.159,1.035,5.523-.026,6.67l-18.5-10.509-13.012-7.39a1.518,1.518,0,0,1,.151-.334c.773-1.369,3.623-2.633,4.364-3.937l.1-.708.754-5.608c.366-1.009.694-2.025.989-3.027q.265-.884.491-1.75c.125-.491.242-.976.354-1.461.1-.406.19-.812.269-1.212.04-.177.079-.347.112-.524.085-.419.164-.845.235-1.264.013-.066.026-.138.04-.2.039-.229.079-.459.111-.688l.02-.118c.033-.2.065-.4.1-.6.026-.164.046-.334.072-.492.033-.242.066-.478.1-.721q.079-.57.138-1.14c.006-.013.006-.019,0-.026.046-.393.091-.78.125-1.166.019-.19.039-.38.052-.577.045-.57.091-1.133.124-1.69.007-.19.02-.373.033-.557.033-.668.052-1.33.065-1.972.026-1.015.026-2,.013-2.942-.013-.393-.019-.773-.033-1.154,0-.026-.006-.059-.006-.091-.02-.478-.039-.943-.065-1.4q-.03-.62-.079-1.2c-.026-.387-.059-.76-.092-1.12v-.013c-.026-.315-.059-.622-.085-.917-.039-.373-.079-.734-.118-1.068-.02-.118-.033-.23-.046-.341s-.026-.216-.04-.321c-.072-.557-.144-1.054-.216-1.507-.019-.125-.039-.242-.059-.361-.1-.6-.184-1.081-.255-1.441a1.418,1.418,0,0,1-.027-.144.4.4,0,0,0-.013-.046c-.04-.2-.072-.354-.1-.452v-.026a.2.2,0,0,1-.013-.052.414.414,0,0,0-.013-.052,52.117,52.117,0,0,1,5.117-39.657c12.645-22.269,38.7-31.854,60.858-23.533a47.5,47.5,0,0,1,6.657,3.118c16.254,9.231,24.9,26.875,23.946,45.023" transform="translate(1090.338 5016.883)" fill="#fcbc2d"/>
      <path id="Trazado_888453" data-name="Trazado 888453" d="M259.022,262.392a52.077,52.077,0,0,1-33.977,25.346,68.235,68.235,0,0,0-18.217,10.917q-.87.735-1.736,1.523a57.481,57.481,0,0,0-4.632,4.707l-7.139,4.791c-.661,1.164,1.041,5.527-.021,6.67l-4.362-2.477c.975-1.193.147-5.059.809-6.223l6.215-5.315c1.386-1.771,2.8-3.419,4.221-4.94q.78-.839,1.555-1.626a80.168,80.168,0,0,1,6.134-5.61,67.89,67.89,0,0,1,11.229-5.792A52.583,52.583,0,0,0,254,208.921a27.418,27.418,0,0,0-11.644-14.734c23.048,13.382,30.521,43.807,16.666,68.206" transform="translate(1070.883 5012.357)" fill="#fcbc2d"/>
      <path id="Trazado_888454" data-name="Trazado 888454" d="M217.68,245.434c-7.672,13.509-19.557,22.754-32.09,26.423a71.871,71.871,0,0,0-17.1,11.551c-.551.5-1.107,1.029-1.657,1.566-1.441,1.415-2.876,2.942-4.252,4.586l-4.475,7.881a23.573,23.573,0,0,1-2.765,3.873l-13.011-7.391c.439-1.493,4.311-4.232,5.117-5.647l.249-4.94a56.036,56.036,0,0,0,2.214-7.973c.151-.76.288-1.52.406-2.273q.3-1.888.478-3.689a69.244,69.244,0,0,0-.262-16.084c-.321-2.392-.648-3.794-.655-3.813a52.114,52.114,0,0,1,5.117-39.657c12.644-22.269,38.7-31.854,60.858-23.533,18.489,14.774,14.466,36.86,1.828,59.122" transform="translate(1090.338 5016.883)" fill="#ffde17"/>
      <line id="Línea_775" data-name="Línea 775" x1="23.363" y2="28.971" transform="translate(1264.974 5282.704)" fill="none" stroke="#fff78d" stroke-linecap="round" stroke-miterlimit="10" stroke-width="3.959"/>
      <path id="Trazado_888455" data-name="Trazado 888455" d="M187.928,294.955A5.729,5.729,0,0,1,194.007,291a5.8,5.8,0,0,1,4.531,8.181,5.878,5.878,0,0,1-.727,1.179,1.711,1.711,0,0,1-3.017-.717,5.859,5.859,0,1,1,9.274,3.38,1.713,1.713,0,0,1-2.714-1.655,5.794,5.794,0,1,1,8.063,6.225,1.735,1.735,0,0,1-2.366-2.093,5.8,5.8,0,0,1,8.708-3.119,5.647,5.647,0,0,1,1.271,8.355" transform="translate(1071.305 4971.963)" fill="none" stroke="#fff" stroke-linecap="round" stroke-miterlimit="10" stroke-width="3.959"/>
      <line id="Línea_776" data-name="Línea 776" y1="37.332" x2="12.377" transform="translate(1246.857 5266.918)" fill="none" stroke="#fff78d" stroke-linecap="round" stroke-miterlimit="10" stroke-width="3.959"/>
      <g id="Grupo_1102861" data-name="Grupo 1102861" transform="translate(1260.307 5204.542)" style="mix-blend-mode: screen;isolation: isolate">
        <g id="Grupo_1102860" data-name="Grupo 1102860">
          <g id="Grupo_1102859" data-name="Grupo 1102859" clip-path="url(#clip-path-5)">
            <path id="Trazado_888456" data-name="Trazado 888456" d="M194.864,205.342c12.173-8.874,29.966-12.353,39.617-6.873" transform="translate(-191.897 -192.876)" fill="none" stroke="#fff" stroke-linecap="round" stroke-miterlimit="10" stroke-width="10.185"/>
          </g>
        </g>
      </g>
      <g id="Grupo_1102864" data-name="Grupo 1102864" transform="translate(1250.482 5219.653)" style="mix-blend-mode: screen;isolation: isolate">
        <g id="Grupo_1102863" data-name="Grupo 1102863">
          <g id="Grupo_1102862" data-name="Grupo 1102862" clip-path="url(#clip-path-6)">
            <path id="Trazado_888457" data-name="Trazado 888457" d="M178,226.769a29.68,29.68,0,0,1,3.595-4.989" transform="translate(-175.034 -218.813)" fill="none" stroke="#fff" stroke-linecap="round" stroke-miterlimit="10" stroke-width="10.185"/>
          </g>
        </g>
      </g>
      <path id="Trazado_888458" data-name="Trazado 888458" d="M192.8,358.427q-.87.735-1.736,1.523l-35.729-20.288c.1-.493.192-.985.275-1.471.043-.231.08-.459.115-.688.009-.038.015-.077.02-.117Z" transform="translate(1084.908 4952.585)" fill="#fcbc2d"/>
      <g id="Grupo_1102867" data-name="Grupo 1102867" transform="translate(1248.87 5288.747)" opacity="0.55" style="mix-blend-mode: multiply;isolation: isolate">
        <g id="Grupo_1102866" data-name="Grupo 1102866">
          <g id="Grupo_1102865" data-name="Grupo 1102865" clip-path="url(#clip-path-7)">
            <path id="Trazado_888459" data-name="Trazado 888459" d="M213.564,348.223c-1,.465-2.09,1.015-3.256,1.645a67.586,67.586,0,0,0-11.328,7.685c-.576.485-1.159,1-1.736,1.52q-1.14,1.031-2.253,2.155L170.14,344.292l21.784-3.276,4.258-5.733,16.543,3.276c.327,1.31,1.965,3.931.655,6.388a3.736,3.736,0,0,0,.184,3.276" transform="translate(-170.141 -335.284)" fill="#c6392a"/>
          </g>
        </g>
      </g>
      <path id="Trazado_888460" data-name="Trazado 888460" d="M183.589,372.91a4.213,4.213,0,0,1-5.582,1.966l-29.489-16.746a3.553,3.553,0,0,1-1.507-1.73,4.662,4.662,0,0,1,.328-4.075,4.857,4.857,0,0,1,2.548-2.189c.1-.039.216-.065.321-.1a3.636,3.636,0,0,1,2.719.327l13.11,7.443,16.379,9.3a3.558,3.558,0,0,1,1.658,2.155,4.747,4.747,0,0,1-.485,3.643" transform="translate(1088.519 4947.356)" fill="#758e9b"/>
      <path id="Trazado_888461" data-name="Trazado 888461" d="M176.018,386.234a4.2,4.2,0,0,1-5.575,1.965l-29.491-16.746a4.2,4.2,0,0,1-1.179-5.8,4.843,4.843,0,0,1,2.549-2.191,3.684,3.684,0,0,1,3.038.228l29.491,16.746a4.2,4.2,0,0,1,1.168,5.8" transform="translate(1091.679 4941.794)" fill="#758e9b"/>
      <path id="Trazado_888462" data-name="Trazado 888462" d="M168.451,399.558a4.2,4.2,0,0,1-5.577,1.966l-29.491-16.746a4.2,4.2,0,0,1-1.178-5.8,4.846,4.846,0,0,1,2.549-2.191,3.686,3.686,0,0,1,3.038.228l29.491,16.746a4.2,4.2,0,0,1,1.168,5.8" transform="translate(1094.838 4936.233)" fill="#758e9b"/>
      <path id="Trazado_888463" data-name="Trazado 888463" d="M159.74,388.713,140.886,377.9a2.2,2.2,0,0,0-2.044.024,4.463,4.463,0,0,0-1.877,1.833l-.009.017a1.4,1.4,0,0,0,.544,2.085l22.955,7.608a1.874,1.874,0,0,0-.714-.759" transform="translate(1092.68 4935.772)" fill="#badce8"/>
      <path id="Trazado_888464" data-name="Trazado 888464" d="M166.549,375.95,147.7,365.135a2.174,2.174,0,0,0-2.092.108,5.219,5.219,0,0,0-1.993,2.037l-.01.019c-.521.926-.281,1.975.472,2.21l23.173,7.225a1.764,1.764,0,0,0-.7-.784" transform="translate(1089.922 4941.095)" fill="#badce8"/>
      <path id="Trazado_888465" data-name="Trazado 888465" d="M174.008,363.135l-18.845-10.824a2.162,2.162,0,0,0-2.15.211,6.212,6.212,0,0,0-2.135,2.287l-.012.021c-.576,1.022-.377,2.143.386,2.363l23.438,6.758a1.655,1.655,0,0,0-.683-.815" transform="translate(1086.913 4946.44)" fill="#95b7c6"/>
      <path id="Trazado_888466" data-name="Trazado 888466" d="M189.59,361.28l-2.725,4.789-1.769-1L164.543,353.4l-13.313-7.561-2.1-1.192,2.718-4.8L179.776,355.7Z" transform="translate(1087.498 4951.557)" fill="#758e9b"/>
      <g id="Grupo_1102870" data-name="Grupo 1102870" transform="translate(1239.352 5291.406)" opacity="0.67">
        <g id="Grupo_1102869" data-name="Grupo 1102869">
          <g id="Grupo_1102868" data-name="Grupo 1102868" clip-path="url(#clip-path-8)">
            <path id="Trazado_888467" data-name="Trazado 888467" d="M182.148,376.47a4.2,4.2,0,0,0-1.168-5.8,4.2,4.2,0,0,0,5.577-1.966,4.744,4.744,0,0,0,.486-3.642l1.773,1.007,2.722-4.794L153.8,339.848l32.084,18.219-2.722,4.794-1.036-.588a4.742,4.742,0,0,1-.486,3.642,4.2,4.2,0,0,1-5.577,1.966,4.508,4.508,0,0,1-4.408,7.763,4.509,4.509,0,0,1-4.409,7.765l4.914,2.791a4.509,4.509,0,0,0,4.41-7.765,4.2,4.2,0,0,0,5.575-1.965" transform="translate(-153.803 -339.848)" fill="#465b66"/>
          </g>
        </g>
      </g>
      <g id="Grupo_1102873" data-name="Grupo 1102873" transform="translate(1269.173 5250.375)" opacity="0.55" style="mix-blend-mode: multiply;isolation: isolate">
        <g id="Grupo_1102872" data-name="Grupo 1102872">
          <g id="Grupo_1102871" data-name="Grupo 1102871" clip-path="url(#clip-path-9)">
            <path id="Trazado_888468" data-name="Trazado 888468" d="M263.169,297.854a52.163,52.163,0,0,1-20.841,17.689c-.013-.02-.007-.033.013-.052.655-.655,11.192-8.19-1.474-16.27-8.9-5.677-24.459-10.264-33.249-11.9,0,0,.491-.655-.819-2.129s-.491-3.275-1.31-4.914-.327-5.241-.491-6.716,2.784-3.6,3.112-4.094,16.707,3.276,17.2,3.767,6.879,8.845,6.879,8.845l21.129,5.9,9.336,7.862s.282,1.055.518,2.018" transform="translate(-204.99 -269.421)" fill="#c6392a"/>
          </g>
        </g>
      </g>
      <g id="Grupo_1102876" data-name="Grupo 1102876" transform="translate(1240.871 5270.199)" opacity="0.55" style="mix-blend-mode: multiply;isolation: isolate">
        <g id="Grupo_1102875" data-name="Grupo 1102875">
          <g id="Grupo_1102874" data-name="Grupo 1102874" clip-path="url(#clip-path-10)">
            <path id="Trazado_888469" data-name="Trazado 888469" d="M167.358,315.607l1.664,3.446a9.966,9.966,0,0,0-1.009.157,50.542,50.542,0,0,1-10.155.492s-.472-.066-1.186-.171a69.253,69.253,0,0,0-.262-16.084c2.175,5.143,5.837,10.2,10.948,12.16" transform="translate(-156.41 -303.447)" fill="#c6392a"/>
          </g>
        </g>
      </g>
      <g id="Grupo_1102879" data-name="Grupo 1102879" transform="translate(1303.956 5251.336)" opacity="0.55" style="mix-blend-mode: multiply;isolation: isolate">
        <g id="Grupo_1102878" data-name="Grupo 1102878">
          <g id="Grupo_1102877" data-name="Grupo 1102877" clip-path="url(#clip-path-11)">
            <path id="Trazado_888470" data-name="Trazado 888470" d="M297.53,271.071a52.918,52.918,0,0,1-6.886,23.416c-.144.255-.288.5-.439.753l-7.6,2.051s-12.887-1.31-14.637-6.552c-.544-1.644-1.074-3.348-1.533-4.92-1.022-3.44-1.743-6.217-1.743-6.217l3.165-3.859c1.205.262,2.523.492,3.9.682,10.208,1.369,24.241.459,25.768-5.353" transform="translate(-264.693 -271.071)" fill="#c6392a"/>
          </g>
        </g>
      </g>
      <path id="Trazado_888471" data-name="Trazado 888471" d="M178.754,355.7l-12.717-2.1-1.92-.314-.6.1-5.739.989s-6.113-1.31-10.483-1.966l-.288-.223a4.664,4.664,0,0,1,.328-4.075,4.856,4.856,0,0,1,2.548-2.188c.1-.04.216-.066.321-.1l-2.1-1.192,2.718-4.8Z" transform="translate(1088.519 4951.558)" fill="#465b66"/>
      <path id="Trazado_888472" data-name="Trazado 888472" d="M300.049,282.119c-5.9,3.6-21.732-1.016-32.305-3.18l-2.981,16.884c.082.028,1.018,1.5,1.944,2.959s1.82,2.909,1.82,2.909a70.356,70.356,0,0,0,9.309,2.231l.109.02c14.156,2.57,27.18,1.925,34.878-4.462Z" transform="translate(1039.234 4976.981)" fill="#ff6248"/>
      <path id="Trazado_888473" data-name="Trazado 888473" d="M84.97,302.743c6.851,11.831,24.888,22.593,45.62,27.968,0,0,7.023-1.947,7.678-1.9l2.542-15.554.217-1.31c-.013,0-.433-.137-1.166-.393-1.979-.681-6.277-2.221-11.249-4.212a.019.019,0,0,1-.013-.007c-7.122-2.85-15.619-6.63-20.625-10.168-2.542-1.795-4.187-3.538-4.3-5.058q-.034-.478-.051-.963Z" transform="translate(1114.28 4971.887)" fill="#ff6248"/>
      <path id="Trazado_888474" data-name="Trazado 888474" d="M188.249,344.151a3.079,3.079,0,0,1-2.547-2.55l-9.244-1.511,2.756-16.862,9.14,1.493a3.245,3.245,0,0,1,1.5-1.917l7.576-4.378a2.273,2.273,0,0,1,1.4-.22c.045.008.09.02.135.03s.1.008.145.016l6.855,1.121a2.283,2.283,0,0,1-.738,4.506l-6.064-.99-1.82,2.125,4.67.763h0l13.274,2.17a2.283,2.283,0,1,1-.736,4.507l-13.275-2.17-.115.7,14.352,2.346a2.282,2.282,0,1,1-.735,4.505l-14.353-2.345-.111.678,12.489,2.041a2.283,2.283,0,0,1-.736,4.506l-12.489-2.041-.111.679,10.429,1.7a2.283,2.283,0,0,1-.736,4.506l-10.429-1.7h0Z" transform="translate(1076.093 4960.604)" fill="#ffb287"/>
      <path id="Trazado_888475" data-name="Trazado 888475" d="M225.452,286.11a3.079,3.079,0,0,0,3.282-1.489l9.18,1.846,3.367-16.752L232.2,267.89a3.242,3.242,0,0,0-.725-2.322l-5.545-6.767a2.272,2.272,0,0,0-1.232-.7c-.045-.009-.092-.013-.137-.02s-.092-.026-.141-.036l-6.809-1.367a2.283,2.283,0,0,0-.9,4.477l6.023,1.21.953,2.631-4.637-.932h0l-13.185-2.649a2.283,2.283,0,0,0-.9,4.477l13.185,2.649-.141.7-14.254-2.863a2.283,2.283,0,1,0-.9,4.476l14.256,2.865-.136.674-12.4-2.493a2.283,2.283,0,0,0-.9,4.477l12.4,2.492-.135.674-10.358-2.081a2.283,2.283,0,0,0-.9,4.477l10.358,2.081h0Z" transform="translate(1065.838 4986.292)" fill="#ffb287"/>
      <g id="Grupo_1102882" data-name="Grupo 1102882" transform="translate(1257.769 5284.759)" opacity="0.19">
        <g id="Grupo_1102881" data-name="Grupo 1102881">
          <g id="Grupo_1102880" data-name="Grupo 1102880" clip-path="url(#clip-path-12)">
            <path id="Trazado_888476" data-name="Trazado 888476" d="M188.629,328.44l-.81,17.145-2.4-.327Z" transform="translate(-185.416 -328.439)" fill="#465b66"/>
          </g>
        </g>
      </g>
      <rect id="Rectángulo_403823" data-name="Rectángulo 403823" width="17.086" height="5.751" transform="translate(1252.551 5300.693) rotate(-80.719)" fill="#fff"/>
      <g id="Grupo_1102885" data-name="Grupo 1102885" transform="translate(1295.878 5254.874)" opacity="0.19">
        <g id="Grupo_1102884" data-name="Grupo 1102884">
          <g id="Grupo_1102883" data-name="Grupo 1102883" clip-path="url(#clip-path-13)">
            <path id="Trazado_888477" data-name="Trazado 888477" d="M256.431,277.144l-5.6,16.238,2.621.655Z" transform="translate(-250.827 -277.143)" fill="#465b66"/>
          </g>
        </g>
      </g>
      <path id="Trazado_888478" data-name="Trazado 888478" d="M254.667,293.894l3.366-16.751,5.637,1.133-2.937,16.954Z" transform="translate(1043.448 4977.731)" fill="#fff"/>
      <path id="Trazado_888479" data-name="Trazado 888479" d="M142.314,659.245V656.37a7.967,7.967,0,0,1,7.964-7.958,7.967,7.967,0,0,1,7.958,7.958v2.876Z" transform="translate(1090.344 4822.763)" fill="#301d1b"/>
      <path id="Trazado_888480" data-name="Trazado 888480" d="M149.429,648.747a6.782,6.782,0,0,1,6.774,6.775v1.692H142.649v-1.692a6.785,6.785,0,0,1,6.781-6.775m0-2.367a9.152,9.152,0,0,0-9.147,9.142v4.058h18.289v-4.058a9.144,9.144,0,0,0-9.142-9.142" transform="translate(1091.193 4823.61)" fill="#893c31"/>
      <path id="Trazado_888481" data-name="Trazado 888481" d="M144.335,683.731H146.9V659.556l-2.564,1.949Z" transform="translate(1089.501 4818.11)" fill="#301d1b"/>
      <rect id="Rectángulo_403825" data-name="Rectángulo 403825" width="11.735" height="4.24" transform="translate(1224.665 5497.599)" fill="#301d1b"/>
    </g>
    <g id="Grupo_1102887" data-name="Grupo 1102887" transform="translate(210 -176.793)">
      <path id="Trazado_888482" data-name="Trazado 888482" d="M147.777,177.792a5.163,5.163,0,1,1,5.163-5.163,5.169,5.169,0,0,1-5.163,5.163m0-9.121a3.958,3.958,0,1,0,3.958,3.958,3.963,3.963,0,0,0-3.958-3.958" transform="translate(1048.445 4572.739)" fill="#f35923"/>
      <path id="Trazado_888483" data-name="Trazado 888483" d="M137.366,181.363a.6.6,0,0,1-.6-.6V174.7a.6.6,0,0,1,1.2,0v6.063a.6.6,0,0,1-.6.6" transform="translate(1044.896 4576.759)" fill="#f35923"/>
      <path id="Trazado_888484" data-name="Trazado 888484" d="M141.541,177.188h-6.063a.6.6,0,0,1,0-1.2h6.063a.6.6,0,0,1,0,1.2" transform="translate(1043.752 4577.904)" fill="#f35923"/>
    </g>
    <g id="Grupo_1102893" data-name="Grupo 1102893" transform="translate(133.615 -225.794)">
      <path id="Trazado_888482-2" data-name="Trazado 888482" d="M147.777,177.792a5.163,5.163,0,1,1,5.163-5.163,5.169,5.169,0,0,1-5.163,5.163m0-9.121a3.958,3.958,0,1,0,3.958,3.958,3.963,3.963,0,0,0-3.958-3.958" transform="translate(1048.445 4572.739)" fill="#f35923"/>
      <path id="Trazado_888483-2" data-name="Trazado 888483" d="M137.366,181.363a.6.6,0,0,1-.6-.6V174.7a.6.6,0,0,1,1.2,0v6.063a.6.6,0,0,1-.6.6" transform="translate(1044.896 4576.759)" fill="#f35923"/>
      <path id="Trazado_888484-2" data-name="Trazado 888484" d="M141.541,177.188h-6.063a.6.6,0,0,1,0-1.2h6.063a.6.6,0,0,1,0,1.2" transform="translate(1043.752 4577.904)" fill="#f35923"/>
    </g>
    <g id="Grupo_1102892" data-name="Grupo 1102892" transform="translate(210 61.646)">
      <path id="Trazado_888482-3" data-name="Trazado 888482" d="M147.777,177.792a5.163,5.163,0,1,1,5.163-5.163,5.169,5.169,0,0,1-5.163,5.163m0-9.121a3.958,3.958,0,1,0,3.958,3.958,3.963,3.963,0,0,0-3.958-3.958" transform="translate(1048.445 4572.739)" fill="#f35923"/>
      <path id="Trazado_888483-3" data-name="Trazado 888483" d="M137.366,181.363a.6.6,0,0,1-.6-.6V174.7a.6.6,0,0,1,1.2,0v6.063a.6.6,0,0,1-.6.6" transform="translate(1044.896 4576.759)" fill="#f35923"/>
      <path id="Trazado_888484-3" data-name="Trazado 888484" d="M141.541,177.188h-6.063a.6.6,0,0,1,0-1.2h6.063a.6.6,0,0,1,0,1.2" transform="translate(1043.752 4577.904)" fill="#f35923"/>
    </g>
    <g id="Grupo_1102889" data-name="Grupo 1102889" transform="translate(1238.615 4563.412)">
      <path id="Trazado_888482-4" data-name="Trazado 888482" d="M147.777,177.792a5.163,5.163,0,1,0-5.163-5.163,5.169,5.169,0,0,0,5.163,5.163m0-9.121a3.958,3.958,0,1,1-3.958,3.958,3.963,3.963,0,0,1,3.958-3.958" transform="translate(-142.614 -167.466)" fill="#f35923"/>
      <path id="Trazado_888483-4" data-name="Trazado 888483" d="M137.366,181.363a.6.6,0,0,0,.6-.6V174.7a.6.6,0,0,0-1.2,0v6.063a.6.6,0,0,0,.6.6" transform="translate(-118.244 -163.446)" fill="#f35923"/>
      <path id="Trazado_888484-4" data-name="Trazado 888484" d="M135.478,177.188h6.063a.6.6,0,0,0,0-1.2h-6.063a.6.6,0,0,0,0,1.2" transform="translate(-119.386 -162.301)" fill="#f35923"/>
    </g>
    <g id="Grupo_1102888" data-name="Grupo 1102888" transform="translate(1397.243 4589.953)">
      <path id="Trazado_888482-5" data-name="Trazado 888482" d="M147.777,177.792a5.163,5.163,0,1,0-5.163-5.163,5.169,5.169,0,0,0,5.163,5.163m0-9.121a3.958,3.958,0,1,1-3.958,3.958,3.963,3.963,0,0,1,3.958-3.958" transform="translate(-142.614 -167.466)" fill="#f35923"/>
      <path id="Trazado_888483-5" data-name="Trazado 888483" d="M137.366,181.363a.6.6,0,0,0,.6-.6V174.7a.6.6,0,0,0-1.2,0v6.063a.6.6,0,0,0,.6.6" transform="translate(-118.244 -163.446)" fill="#f35923"/>
      <path id="Trazado_888484-5" data-name="Trazado 888484" d="M135.478,177.188h6.063a.6.6,0,0,0,0-1.2h-6.063a.6.6,0,0,0,0,1.2" transform="translate(-119.386 -162.301)" fill="#f35923"/>
    </g>
    <g id="Grupo_1102890" data-name="Grupo 1102890" transform="translate(1230 4589.952)">
      <path id="Trazado_888482-6" data-name="Trazado 888482" d="M147.777,177.792a5.163,5.163,0,1,1,5.163-5.163,5.169,5.169,0,0,1-5.163,5.163m0-9.121a3.958,3.958,0,1,0,3.958,3.958,3.963,3.963,0,0,0-3.958-3.958" transform="translate(-130.183 -167.466)" fill="#f35923"/>
      <path id="Trazado_888483-6" data-name="Trazado 888483" d="M137.366,181.363a.6.6,0,0,1-.6-.6V174.7a.6.6,0,0,1,1.2,0v6.063a.6.6,0,0,1-.6.6" transform="translate(-133.732 -163.446)" fill="#f35923"/>
      <path id="Trazado_888484-6" data-name="Trazado 888484" d="M141.541,177.188h-6.063a.6.6,0,0,1,0-1.2h6.063a.6.6,0,0,1,0,1.2" transform="translate(-134.876 -162.301)" fill="#f35923"/>
    </g>
    <g id="Grupo_1102891" data-name="Grupo 1102891" transform="translate(1230 4842.952)">
      <path id="Trazado_888482-7" data-name="Trazado 888482" d="M147.777,177.792a5.163,5.163,0,1,1,5.163-5.163,5.169,5.169,0,0,1-5.163,5.163m0-9.121a3.958,3.958,0,1,0,3.958,3.958,3.963,3.963,0,0,0-3.958-3.958" transform="translate(-130.183 -167.466)" fill="#f35923"/>
      <path id="Trazado_888483-7" data-name="Trazado 888483" d="M137.366,181.363a.6.6,0,0,1-.6-.6V174.7a.6.6,0,0,1,1.2,0v6.063a.6.6,0,0,1-.6.6" transform="translate(-133.732 -163.446)" fill="#f35923"/>
      <path id="Trazado_888484-7" data-name="Trazado 888484" d="M141.541,177.188h-6.063a.6.6,0,0,1,0-1.2h6.063a.6.6,0,0,1,0,1.2" transform="translate(-134.876 -162.301)" fill="#f35923"/>
    </g>
  </g>
</svg>
