<svg xmlns="http://www.w3.org/2000/svg" xmlns:xlink="http://www.w3.org/1999/xlink" width="553.235" height="263.637" viewBox="0 0 553.235 263.637">
  <defs>
    <clipPath id="clip-path">
      <rect id="Rectángulo_403416" data-name="Rectángulo 403416" width="446.794" height="250.327" fill="none"/>
    </clipPath>
    <clipPath id="clip-path-3">
      <rect id="Rectángulo_403385" data-name="Rectángulo 403385" width="11.764" height="52.541" fill="none"/>
    </clipPath>
    <clipPath id="clip-path-4">
      <rect id="Rectángulo_403387" data-name="Rectángulo 403387" width="7.438" height="42.31" fill="none"/>
    </clipPath>
    <clipPath id="clip-path-5">
      <rect id="Rectángulo_403391" data-name="Rectángulo 403391" width="6.883" height="52.541" fill="none"/>
    </clipPath>
    <clipPath id="clip-path-6">
      <rect id="Rectángulo_403393" data-name="Rectángulo 403393" width="39.15" height="46.867" fill="none"/>
    </clipPath>
    <clipPath id="clip-path-7">
      <rect id="Rectángulo_403397" data-name="Rectángulo 403397" width="13.252" height="52.538" fill="none"/>
    </clipPath>
    <clipPath id="clip-path-8">
      <rect id="Rectángulo_403401" data-name="Rectángulo 403401" width="9.393" height="62.302" fill="none"/>
    </clipPath>
    <clipPath id="clip-path-9">
      <rect id="Rectángulo_403403" data-name="Rectángulo 403403" width="9.764" height="43.707" fill="none"/>
    </clipPath>
    <clipPath id="clip-path-10">
      <rect id="Rectángulo_403408" data-name="Rectángulo 403408" width="10.275" height="52.538" fill="none"/>
    </clipPath>
    <clipPath id="clip-path-11">
      <rect id="Rectángulo_403409" data-name="Rectángulo 403409" width="6.589" height="6.54" fill="none"/>
    </clipPath>
    <clipPath id="clip-path-12">
      <rect id="Rectángulo_403410" data-name="Rectángulo 403410" width="19.849" height="40.843" fill="none"/>
    </clipPath>
    <clipPath id="clip-path-13">
      <rect id="Rectángulo_403411" data-name="Rectángulo 403411" width="12.485" height="27.121" fill="none"/>
    </clipPath>
    <clipPath id="clip-path-14">
      <rect id="Rectángulo_403412" data-name="Rectángulo 403412" width="41.69" height="26.099" fill="none"/>
    </clipPath>
    <clipPath id="clip-path-15">
      <rect id="Rectángulo_403413" data-name="Rectángulo 403413" width="34.133" height="12.203" fill="none"/>
    </clipPath>
  </defs>
  <g id="Grupo_1103081" data-name="Grupo 1103081" transform="translate(-236.765 -749.663)">
    <g id="Grupo_1099827" data-name="Grupo 1099827" transform="translate(56.798 -1604.749)">
      <rect id="Rectángulo_35205" data-name="Rectángulo 35205" width="553.235" height="260.005" rx="20" transform="translate(179.967 2354.412)" fill="#feefe9"/>
    </g>
    <g id="Grupo_1102111" data-name="Grupo 1102111" transform="translate(56.798 -1604.749)">
      <rect id="Rectángulo_35205-2" data-name="Rectángulo 35205" width="553.235" height="260.005" rx="20" transform="translate(179.967 2354.412)" fill="#feefe9"/>
    </g>
    <g id="Grupo_1102154" data-name="Grupo 1102154" transform="translate(296.624 762.974)">
      <g id="Grupo_1102153" data-name="Grupo 1102153" clip-path="url(#clip-path)">
        <g id="Grupo_1102152" data-name="Grupo 1102152">
          <g id="Grupo_1102151" data-name="Grupo 1102151" clip-path="url(#clip-path)">
            <path id="Trazado_885774" data-name="Trazado 885774" d="M751.716,0H619.949a12.8,12.8,0,0,0-12.8,12.8V97.423a12.8,12.8,0,0,0,12.8,12.8H751.743a12.8,12.8,0,0,0,12.8-12.8V12.8A12.836,12.836,0,0,0,751.716,0" transform="translate(-400.367)" fill="#f35923"/>
            <path id="Trazado_885775" data-name="Trazado 885775" d="M643.682,41.153a4.622,4.622,0,1,0-4.622-4.622,4.624,4.624,0,0,0,4.622,4.622" transform="translate(-421.409 -21.042)" fill="#fff"/>
            <path id="Trazado_885776" data-name="Trazado 885776" d="M684.232,41.153a4.622,4.622,0,1,0-4.622-4.622,4.624,4.624,0,0,0,4.622,4.622" transform="translate(-448.148 -21.042)" fill="#fff"/>
            <path id="Trazado_885777" data-name="Trazado 885777" d="M724.772,41.153a4.622,4.622,0,1,0-4.622-4.622,4.624,4.624,0,0,0,4.622,4.622" transform="translate(-474.881 -21.042)" fill="#fff"/>
            <path id="Trazado_885778" data-name="Trazado 885778" d="M820.494,116.543c4.584-18.459,4.08-34.47-1.131-35.764s-13.15,12.618-17.737,31.075-4.077,34.47,1.131,35.764S815.909,135,820.494,116.543Z" transform="translate(-526.542 -53.212)" fill="none" stroke="#fff" stroke-linecap="round" stroke-linejoin="round" stroke-width="2"/>
            <path id="Trazado_885779" data-name="Trazado 885779" d="M810.23,154.631c3.726-3.866-4.353-17.7-18.044-30.9s-27.808-20.765-31.534-16.9,4.353,17.7,18.044,30.894S806.508,158.5,810.23,154.631Z" transform="translate(-500.99 -69.782)" fill="none" stroke="#fff" stroke-linecap="round" stroke-linejoin="round" stroke-width="2"/>
            <path id="Trazado_885780" data-name="Trazado 885780" d="M773.777,162.5c18.276-5.259,31.889-13.7,30.4-18.861s-17.5-5.078-35.781.181-31.889,13.7-30.4,18.861S755.5,167.759,773.777,162.5Z" transform="translate(-486.576 -92.201)" fill="none" stroke="#fff" stroke-linecap="round" stroke-linejoin="round" stroke-width="2"/>
            <path id="Trazado_885781" data-name="Trazado 885781" d="M824.9,173.927a5.414,5.414,0,1,0-5.415-5.415,5.413,5.413,0,0,0,5.415,5.415" transform="translate(-540.381 -107.551)" fill="#61ccff"/>
            <path id="Trazado_885782" data-name="Trazado 885782" d="M763.79,140.18a2.81,2.81,0,1,0-2.81-2.81,2.811,2.811,0,0,0,2.81,2.81" transform="translate(-501.805 -88.731)" fill="#ffc930"/>
            <path id="Trazado_885783" data-name="Trazado 885783" d="M907.31,174.33a2.81,2.81,0,1,0-2.81-2.81,2.808,2.808,0,0,0,2.81,2.81" transform="translate(-596.445 -111.251)" fill="#ffc930"/>
            <path id="Trazado_885784" data-name="Trazado 885784" d="M793.01,246.09a2.81,2.81,0,1,0-2.81-2.81,2.808,2.808,0,0,0,2.81,2.81" transform="translate(-521.073 -158.571)" fill="#ffc930"/>
            <rect id="Rectángulo_403384" data-name="Rectángulo 403384" width="20.922" height="52.541" transform="translate(41.237 109.442)" fill="#fff"/>
            <g id="Grupo_1102114" data-name="Grupo 1102114" transform="translate(41.237 109.442)" opacity="0.3" style="isolation: isolate">
              <g id="Grupo_1102113" data-name="Grupo 1102113">
                <g id="Grupo_1102112" data-name="Grupo 1102112" clip-path="url(#clip-path-3)">
                  <path id="Trazado_885785" data-name="Trazado 885785" d="M121.08,321.34h4.138l7.626,52.541H121.08Z" transform="translate(-121.08 -321.34)" fill="#222"/>
                </g>
              </g>
            </g>
            <rect id="Rectángulo_403386" data-name="Rectángulo 403386" width="14.877" height="42.31" transform="translate(138.412 119.673)" fill="#cecece"/>
            <g id="Grupo_1102117" data-name="Grupo 1102117" transform="translate(138.412 119.673)" opacity="0.3" style="isolation: isolate">
              <g id="Grupo_1102116" data-name="Grupo 1102116">
                <g id="Grupo_1102115" data-name="Grupo 1102115" clip-path="url(#clip-path-4)">
                  <path id="Trazado_885786" data-name="Trazado 885786" d="M406.4,351.38h1.672l5.766,42.31H406.4Z" transform="translate(-406.4 -351.38)" fill="#222"/>
                </g>
              </g>
            </g>
            <rect id="Rectángulo_403388" data-name="Rectángulo 403388" width="13.947" height="52.541" transform="translate(112.841 109.442)" fill="#cecece"/>
            <rect id="Rectángulo_403389" data-name="Rectángulo 403389" width="22.318" height="52.541" transform="translate(153.288 109.442)" fill="#fff"/>
            <rect id="Rectángulo_403390" data-name="Rectángulo 403390" width="11.856" height="52.541" transform="translate(175.607 109.442)" fill="#cecece"/>
            <g id="Grupo_1102120" data-name="Grupo 1102120" transform="translate(175.607 109.442)" opacity="0.3" style="isolation: isolate">
              <g id="Grupo_1102119" data-name="Grupo 1102119">
                <g id="Grupo_1102118" data-name="Grupo 1102118" clip-path="url(#clip-path-5)">
                  <path id="Trazado_885787" data-name="Trazado 885787" d="M515.61,321.34h1.907l4.976,52.541H515.61Z" transform="translate(-515.61 -321.34)" fill="#020202"/>
                </g>
              </g>
            </g>
            <rect id="Rectángulo_403392" data-name="Rectángulo 403392" width="11.859" height="52.541" transform="translate(187.462 109.442)" fill="#fff"/>
            <path id="Trazado_885788" data-name="Trazado 885788" d="M242.772,320.99l-26.272,45.5,12.884,7.442,26.272-45.5Z" transform="translate(-142.764 -211.667)" fill="#cecece"/>
            <g id="Grupo_1102123" data-name="Grupo 1102123" transform="translate(73.736 115.3)" opacity="0.3" style="isolation: isolate">
              <g id="Grupo_1102122" data-name="Grupo 1102122">
                <g id="Grupo_1102121" data-name="Grupo 1102121" clip-path="url(#clip-path-6)">
                  <path id="Trazado_885789" data-name="Trazado 885789" d="M253.279,338.54l2.37,1.4-26.269,45.471L216.5,377.969l2.793-4.789Z" transform="translate(-216.5 -338.54)" fill="#222"/>
                </g>
              </g>
            </g>
            <rect id="Rectángulo_403394" data-name="Rectángulo 403394" width="11.624" height="60.443" transform="translate(62.159 101.541)" fill="#cecece"/>
            <rect id="Rectángulo_403395" data-name="Rectángulo 403395" width="11.624" height="60.443" transform="translate(126.788 101.541)" fill="#fff"/>
            <rect id="Rectángulo_403396" data-name="Rectángulo 403396" width="14.877" height="52.538" transform="translate(41.237 194.437)" fill="#fff"/>
            <g id="Grupo_1102126" data-name="Grupo 1102126" transform="translate(41.237 194.437)" opacity="0.3" style="isolation: isolate">
              <g id="Grupo_1102125" data-name="Grupo 1102125">
                <g id="Grupo_1102124" data-name="Grupo 1102124" clip-path="url(#clip-path-7)">
                  <path id="Trazado_885790" data-name="Trazado 885790" d="M121.08,570.9h5.02l8.232,52.538H121.08Z" transform="translate(-121.08 -570.9)" fill="#222"/>
                </g>
              </g>
            </g>
            <rect id="Rectángulo_403398" data-name="Rectángulo 403398" width="14.88" height="52.538" transform="translate(56.114 194.437)" fill="#cecece"/>
            <rect id="Rectángulo_403399" data-name="Rectángulo 403399" width="11.624" height="62.302" transform="translate(70.994 184.673)" fill="#fff"/>
            <rect id="Rectángulo_403400" data-name="Rectángulo 403400" width="27.897" height="62.302" transform="translate(82.618 184.673)" fill="#cecece"/>
            <g id="Grupo_1102129" data-name="Grupo 1102129" transform="translate(82.618 184.673)" opacity="0.3" style="isolation: isolate">
              <g id="Grupo_1102128" data-name="Grupo 1102128">
                <g id="Grupo_1102127" data-name="Grupo 1102127" clip-path="url(#clip-path-8)">
                  <path id="Trazado_885791" data-name="Trazado 885791" d="M242.58,542.23h2.558l6.835,62.3H242.58Z" transform="translate(-242.58 -542.23)" fill="#020202"/>
                </g>
              </g>
            </g>
            <rect id="Rectángulo_403402" data-name="Rectángulo 403402" width="13.947" height="43.707" transform="translate(110.515 203.269)" fill="#fff"/>
            <g id="Grupo_1102132" data-name="Grupo 1102132" transform="translate(110.515 203.269)" opacity="0.3" style="isolation: isolate">
              <g id="Grupo_1102131" data-name="Grupo 1102131">
                <g id="Grupo_1102130" data-name="Grupo 1102130" clip-path="url(#clip-path-9)">
                  <path id="Trazado_885792" data-name="Trazado 885792" d="M324.49,596.83h3.44l6.325,43.707H324.49Z" transform="translate(-324.49 -596.83)" fill="#1a1a1a"/>
                </g>
              </g>
            </g>
            <rect id="Rectángulo_403404" data-name="Rectángulo 403404" width="13.947" height="52.538" transform="translate(148.176 194.437)" fill="#fff"/>
            <rect id="Rectángulo_403405" data-name="Rectángulo 403405" width="13.95" height="52.538" transform="translate(162.123 194.437)" fill="#cecece"/>
            <rect id="Rectángulo_403406" data-name="Rectángulo 403406" width="23.715" height="52.538" transform="translate(124.462 194.437)" fill="#fff"/>
            <rect id="Rectángulo_403407" data-name="Rectángulo 403407" width="23.248" height="52.538" transform="translate(176.073 194.437)" fill="#cecece"/>
            <line id="Línea_749" data-name="Línea 749" x2="158.084" transform="translate(41.237 161.983)" fill="none" stroke="#222" stroke-linecap="round" stroke-linejoin="round" stroke-width="4"/>
            <path id="Trazado_885793" data-name="Trazado 885793" d="M121.08,270.83V424.868H279.164V270.83" transform="translate(-79.843 -178.591)" fill="none" stroke="#222" stroke-linecap="round" stroke-linejoin="round" stroke-width="4"/>
            <g id="Grupo_1102135" data-name="Grupo 1102135" transform="translate(176.073 194.437)" opacity="0.3" style="isolation: isolate">
              <g id="Grupo_1102134" data-name="Grupo 1102134">
                <g id="Grupo_1102133" data-name="Grupo 1102133" clip-path="url(#clip-path-10)">
                  <path id="Trazado_885794" data-name="Trazado 885794" d="M516.98,570.9h2l8.276,52.538H516.98Z" transform="translate(-516.98 -570.9)" fill="#020202"/>
                </g>
              </g>
            </g>
            <path id="Trazado_885795" data-name="Trazado 885795" d="M358.9,300.513l-.674-4.094a17.7,17.7,0,0,0,5.664.841c5.214,0,9.642-1.791,11.774-4.765,3.532-4.819,3.644-10.429.334-20.687.337-.45,2.861-3.644,2.357-5.718-.283-1.178-2.02-2.02-5.1-2.466l-.279-1.012a104.363,104.363,0,0,0-4.71-12.39c-2.524-5.156-8.8-2.3-14.689-4.54-3.811-1.512-3.253-1.682-7.343-1.682-7.85,0-12.952,1.12-18.167,5.718-8.242,7.459-9.587,16.092-8.13,23.715l.058.337c.783,4.71,3.137,18.109,4.932,26.855v.279l32.348,1.236Z" transform="translate(-210.63 -160.898)" fill="#c65a42"/>
            <g id="Grupo_1102138" data-name="Grupo 1102138" transform="translate(141.676 133.465)" opacity="0.3" style="isolation: isolate">
              <g id="Grupo_1102137" data-name="Grupo 1102137">
                <g id="Grupo_1102136" data-name="Grupo 1102136" clip-path="url(#clip-path-11)">
                  <path id="Trazado_885796" data-name="Trazado 885796" d="M422.574,398.024l-.674-4.094-.337-.167s-1.121-.562-3.024-1.512c-.674-.337-1.795-.616-2.244-.058a2.3,2.3,0,0,0-.279,1.628l.671,4.594Z" transform="translate(-415.985 -391.876)" fill="#222020"/>
                </g>
              </g>
            </g>
            <path id="Trazado_885797" data-name="Trazado 885797" d="M659.4,421.005c2.466-5.047,4.036-8.692,4.2-9.2.674-.167,6.839-1.625,12.053-9.417a4.1,4.1,0,0,0,3.365,2.353c1.4,0,2.915-.841,4.54-2.466,3.981-3.981,4.543-6.839,4.261-8.521a3.777,3.777,0,0,0-1.962-2.8,6.192,6.192,0,0,0,.17-4.877,4.808,4.808,0,0,0-2.411-2.411,5.876,5.876,0,0,0-1.628-7.234c1.012-.559,2.02-1.066,2.915-1.57,5.606-2.97,9.308-4.932,9.308-7.455,0-1.682-1.516-2.578-4.319-2.578-3.923,0-10.2,1.737-16.818,4.652a80.2,80.2,0,0,0-19.4,11.886,261.22,261.22,0,0,0-19.229,18.613l-.112.225,24.668,20.966Z" transform="translate(-418.296 -240.576)" fill="#c65a42"/>
            <path id="Trazado_885798" data-name="Trazado 885798" d="M243.3,508.211l55.389-.112.283-1.012,6.447-30.1c1.679,1.345,18.051,13.96,31.224,13.96a8.008,8.008,0,0,0,1.178-.058c20.07-1.178,34.984-25.676,42.106-40.141l-24.951-21.024-.054.054c-9.025,9.475-16.709,18.279-17.6,19.345-21.641-28.37-39.3-32.573-47.879-32.573h-1.121l-1.233-6.617H253.054v.279q.169,1.012.337,1.853c.055.392.167.729.221,1.121.112.45.225.9.283,1.233v.112c-1.291.167-12.615,2.074-19.9,10.146-3.253,3.535-10.483,11.27-14.969,22.764-2.3,5.773-3.814,11.437-5.439,16.93-.225.674.392,3.082.225,3.7-.112.4.783.787.671,1.178a124.837,124.837,0,0,0-3.195,14.24c-1.57,10.2-.729,18.9,2.524,25.789a10.035,10.035,0,0,0,.841,1.516c6.56,10.091,21.528,9.417,27.638-.954.337-.562.674-1.121,1.012-1.625" transform="translate(-138.82 -270.316)" fill="#afe1b6"/>
            <g id="Grupo_1102141" data-name="Grupo 1102141" transform="translate(84.631 206.834)" opacity="0.3" style="isolation: isolate">
              <g id="Grupo_1102140" data-name="Grupo 1102140">
                <g id="Grupo_1102139" data-name="Grupo 1102139" clip-path="url(#clip-path-12)">
                  <path id="Trazado_885799" data-name="Trazado 885799" d="M268.339,638.361,262.4,607.3l-.954.058c-4.261,0-5.214,8.855-6.222,18.276-.337,3.14-.674,6.393-1.178,9.308-1.682,9.921-5.494,12.5-5.551,12.557,0,0,12.673,4.261,19.849-9.138" transform="translate(-248.49 -607.3)" fill="#595457"/>
                </g>
              </g>
            </g>
            <path id="Trazado_885800" data-name="Trazado 885800" d="M57.523,305.028A19.658,19.658,0,0,1,70.7,310.072a28.918,28.918,0,0,1,5.494-14.24c5.1-6.726,13.344-10.538,23.769-11.045a22.549,22.549,0,0,1-.334-14.127,17.119,17.119,0,0,1,9.417-11.1,22.063,22.063,0,0,1,8.692-1.682,32.333,32.333,0,0,1,10.313,1.849v-.054c-.109-7.064-.5-23.548,9.982-31.173a34.345,34.345,0,0,1,20.517-6.56,33.364,33.364,0,0,1,12.166,2.244c4.993,1.907,9.083,6,11.832,11.491l-.283.283a12.593,12.593,0,0,1-9.363,3.757,15.684,15.684,0,0,1-3.923-.507c2.861,5.551,1.57,14.073-2.691,17.717l-.167.17-.17-.17c-.054,0-6.165-4.2-11.324-4.2a6.209,6.209,0,0,0-6.28,4.2,7.51,7.51,0,0,0,.058,6.113c2.466,5.885,10.82,10.2,10.82,10.2s1.795,20.578-6.726,31.623c-4.99,6.56-12.223,9.867-21.531,9.867a55.554,55.554,0,0,1-17.043-3.086,206.856,206.856,0,0,0-13.232,33.3l-.112.337s-19.733-5.66-24.835-12.949a19.732,19.732,0,1,1-18.221-27.3" transform="translate(-24.919 -146.352)" fill="#231f20"/>
            <line id="Línea_750" data-name="Línea 750" y1="3.644" x2="9.754" transform="translate(91.473 221.299)" fill="none" stroke="#595457" stroke-linecap="round" stroke-linejoin="round" stroke-width="2"/>
            <line id="Línea_751" data-name="Línea 751" x1="12.111" y1="10.316" transform="translate(154.487 196.351)" fill="none" stroke="#595457" stroke-linecap="round" stroke-linejoin="round" stroke-width="2"/>
            <line id="Línea_752" data-name="Línea 752" x2="2.299" y2="12.499" transform="translate(198.497 178.805)" fill="none" stroke="#595457" stroke-linecap="round" stroke-linejoin="round" stroke-width="2"/>
            <path id="Trazado_885801" data-name="Trazado 885801" d="M420.214,390.861a73.6,73.6,0,0,1-6.784-3.641" transform="translate(-272.624 -255.34)" fill="none" stroke="#222020" stroke-linecap="round" stroke-linejoin="round" stroke-width="2"/>
            <path id="Trazado_885802" data-name="Trazado 885802" d="M464.048,338.431a9.2,9.2,0,0,1-6.168-2.241" transform="translate(-301.935 -221.69)" fill="none" stroke="#222020" stroke-linecap="round" stroke-linejoin="round" stroke-width="2"/>
            <line id="Línea_753" data-name="Línea 753" x1="5.047" y1="2.524" transform="translate(132.734 115.62)" fill="none" stroke="#222020" stroke-linecap="round" stroke-linejoin="round" stroke-width="2"/>
            <path id="Trazado_885803" data-name="Trazado 885803" d="M454.343,301.126a1.4,1.4,0,1,1,1.4-1.4,1.4,1.4,0,0,1-1.4,1.4" transform="translate(-298.677 -196.718)" fill="#231f20"/>
            <path id="Trazado_885804" data-name="Trazado 885804" d="M764.888,441.54a29.293,29.293,0,0,0-10.708,2.241" transform="translate(-497.321 -291.16)" fill="none" stroke="#222020" stroke-linecap="round" stroke-linejoin="round" stroke-width="4"/>
            <path id="Trazado_885805" data-name="Trazado 885805" d="M758.308,420.14a38.071,38.071,0,0,0-10.708,2.241" transform="translate(-492.982 -277.049)" fill="none" stroke="#222020" stroke-linecap="round" stroke-linejoin="round" stroke-width="4"/>
            <path id="Trazado_885806" data-name="Trazado 885806" d="M752.334,398.755c-5.044-.559-11.324,2.187-11.324,2.187" transform="translate(-488.637 -262.897)" fill="none" stroke="#222020" stroke-linecap="round" stroke-linejoin="round" stroke-width="4"/>
            <line id="Línea_754" data-name="Línea 754" x2="24.951" y2="21.024" transform="translate(216.156 159.405)" fill="none" stroke="#595457" stroke-linecap="round" stroke-linejoin="round" stroke-width="2"/>
            <g id="Grupo_1102144" data-name="Grupo 1102144" transform="translate(154.113 199.392)" opacity="0.3" style="isolation: isolate">
              <g id="Grupo_1102143" data-name="Grupo 1102143">
                <g id="Grupo_1102142" data-name="Grupo 1102142" clip-path="url(#clip-path-13)">
                  <path id="Trazado_885807" data-name="Trazado 885807" d="M464.987,592.724l-8.13-6.9c-.45-.392-3.028-.783-3.869.5a2.669,2.669,0,0,0-.337,2.411l8.13,23.827Z" transform="translate(-452.501 -585.449)" fill="#595457"/>
                </g>
              </g>
            </g>
            <path id="Trazado_885808" data-name="Trazado 885808" d="M346.741,617.952l-55.389.112L283.39,576.52" transform="translate(-186.873 -380.169)" fill="none" stroke="#595457" stroke-linecap="round" stroke-linejoin="round" stroke-width="2"/>
            <path id="Trazado_885809" data-name="Trazado 885809" d="M828.046,446.445c8.934,0,18.16-7.271,20.571-16.2l16.845-62.871c1.192-4.451.545-8.61-1.826-11.7a12.29,12.29,0,0,0-10.071-4.56H752.645c-8.94,0-18.167,7.292-20.571,16.253l-16.845,62.82c-1.172,4.465-.5,8.63,1.883,11.723a12.249,12.249,0,0,0,10.013,4.54Z" transform="translate(-471.264 -231.529)" fill="#b1e5ff"/>
            <g id="Grupo_1102147" data-name="Grupo 1102147" transform="translate(290.59 188.818)" opacity="0.3" style="isolation: isolate">
              <g id="Grupo_1102146" data-name="Grupo 1102146">
                <g id="Grupo_1102145" data-name="Grupo 1102145" clip-path="url(#clip-path-14)">
                  <path id="Trazado_885810" data-name="Trazado 885810" d="M864.616,580.5a5.878,5.878,0,0,0,.065-.644c.01-.211.024-.422.051-.623.647-6.491,4.87-11.77,9.41-11.77a5.981,5.981,0,0,1,4.482,2.088c2,2.193,2.98,5.81,2.622,9.679l-.15,1.253,11.294.017,2.52-26.085-39.119-.014-2.571,26.1Z" transform="translate(-853.22 -554.4)"/>
                </g>
              </g>
            </g>
            <path id="Trazado_885811" data-name="Trazado 885811" d="M912.7,600.552,900.38,554.41l-39.17-.01,12.373,46.152Zm-28.326-33.091c4.52,0,9.618,5.282,11.369,11.77,1.049,3.9.671,7.544-1.011,9.741A4.982,4.982,0,0,1,890.64,591c-4.547,0-9.669-5.282-11.416-11.774-1.025-3.913-.627-7.557,1.066-9.751a4.994,4.994,0,0,1,4.083-2.013" transform="translate(-567.899 -365.582)" fill="#013f20"/>
            <line id="Línea_755" data-name="Línea 755" x1="2.456" y2="9.223" transform="translate(333.922 143.609)" fill="none" stroke="#000" stroke-linecap="round" stroke-linejoin="round" stroke-width="4"/>
            <line id="Línea_756" data-name="Línea 756" x1="2.459" y2="9.223" transform="translate(322.39 143.609)" fill="none" stroke="#000" stroke-linecap="round" stroke-linejoin="round" stroke-width="4"/>
            <line id="Línea_757" data-name="Línea 757" x1="2.456" y2="9.223" transform="translate(310.861 143.609)" fill="none" stroke="#000" stroke-linecap="round" stroke-linejoin="round" stroke-width="4"/>
            <path id="Trazado_885812" data-name="Trazado 885812" d="M656,676.267a7.021,7.021,0,0,0-7.019-7.047H565.253a7.041,7.041,0,0,0-7.033,7.033v.014Z" transform="translate(-368.101 -441.297)" fill="#b1e5ff"/>
            <path id="Trazado_885813" data-name="Trazado 885813" d="M591.324,676.267a7.025,7.025,0,0,0-7.019-7.047H565.253a7.041,7.041,0,0,0-7.033,7.033v.014Z" transform="translate(-368.101 -441.297)" fill="#3c2c5b"/>
            <path id="Trazado_885814" data-name="Trazado 885814" d="M1031.225,609.48h28.66a.291.291,0,0,1,.082.569,86.125,86.125,0,0,0-13.9,5.8c-5.637,2.96-11.6,7.013-15.609,12.2H1011.89a22.381,22.381,0,0,1,3.406-6.849c2.674-3.852,7.377-8.433,15.282-11.552a1.27,1.27,0,0,1,.647-.164" transform="translate(-667.26 -401.903)" fill="#61ccff"/>
            <g id="Grupo_1102150" data-name="Grupo 1102150" transform="translate(344.671 213.902)" opacity="0.3" style="isolation: isolate">
              <g id="Grupo_1102149" data-name="Grupo 1102149">
                <g id="Grupo_1102148" data-name="Grupo 1102148" clip-path="url(#clip-path-15)">
                  <path id="Trazado_885815" data-name="Trazado 885815" d="M1046.143,628.05c-5.6,2.96-11.556,6.972-15.568,12.2H1012.01a21.582,21.582,0,0,1,3.365-6.852Z" transform="translate(-1012.01 -628.05)" fill="#0b4f6f"/>
                </g>
              </g>
            </g>
            <path id="Trazado_885816" data-name="Trazado 885816" d="M1101.64,660.009h-43.09v-9.366a39.353,39.353,0,0,1,42.4-.405,1.367,1.367,0,0,1,.651,1.175Z" transform="translate(-698.029 -424.824)" fill="#61ccff"/>
            <path id="Trazado_885817" data-name="Trazado 885817" d="M975.394,659.93H932.14v-9.284a.213.213,0,0,1,.082-.164,42.1,42.1,0,0,1,21.446-6.362,43.2,43.2,0,0,1,21.726,6.4Z" transform="translate(-614.671 -424.745)" fill="#61ccff"/>
            <path id="Trazado_885818" data-name="Trazado 885818" d="M932.74,650.643a39.381,39.381,0,0,1,43.049,0v9.366" transform="translate(-615.067 -424.824)" fill="none" stroke="#000" stroke-linecap="round" stroke-linejoin="round" stroke-width="4"/>
            <rect id="Rectángulo_403414" data-name="Rectángulo 403414" width="446.794" height="15.847" transform="translate(0 234.479)" fill="#cecece"/>
          </g>
        </g>
      </g>
    </g>
  </g>
</svg>
