<svg xmlns="http://www.w3.org/2000/svg" width="85" height="85" viewBox="0 0 85 85">
  <g id="Grupo_1100200" data-name="Grupo 1100200" transform="translate(-284.73 -6151)">
    <circle id="Elipse_11499" data-name="Elipse 11499" cx="42.5" cy="42.5" r="42.5" transform="translate(284.73 6151)" fill="#016835"/>
    <g id="Grupo_1102522" data-name="Grupo 1102522" transform="translate(297.79 6164.06)">
      <path id="Trazado_886892" data-name="Trazado 886892" d="M2.448,47.449a1.829,1.829,0,1,0,2.762,2.4L26.245,25.637l6.393,7.3a1.829,1.829,0,0,0,2.837-.1l15.914-21.1,2.453,2.165a1.829,1.829,0,0,0,3.04-1.372V3.829a1.829,1.829,0,0,0-2.248-1.781L46.858,3.878a1.829,1.829,0,0,0-.791,3.152L48.637,9.3l-1.311,1.738-.156-.181-.188-.166a1.828,1.828,0,0,1-.377-.462q-.324-.349-.664-.688A25.742,25.742,0,0,0,6.692,42.564Zm6.728-7.744,15.682-18.05a1.829,1.829,0,0,1,2.757-.006l6.293,7.181L45.06,14.041a22.311,22.311,0,0,0-1.707-1.914A22.084,22.084,0,0,0,9.176,39.705Z" fill="#feefe9" fill-rule="evenodd"/>
      <path id="Trazado_886893" data-name="Trazado 886893" d="M12.169,48.944l2.4-2.763A22.086,22.086,0,0,0,49.423,21.75l2.564-3.4A25.758,25.758,0,0,1,48.057,46l9.156,9.156a1.829,1.829,0,0,1-2.587,2.587L45.47,48.584a25.746,25.746,0,0,1-33.3.36Z" transform="translate(-0.868 -1.395)" fill="#feefe9"/>
    </g>
  </g>
</svg>
