<svg xmlns="http://www.w3.org/2000/svg" xmlns:xlink="http://www.w3.org/1999/xlink" width="420.033" height="253.096" viewBox="0 0 420.033 253.096">
  <defs>
    <clipPath id="clip-path">
      <rect id="Rectángulo_403632" data-name="Rectángulo 403632" width="370.516" height="235.824" fill="none"/>
    </clipPath>
    <clipPath id="clip-path-3">
      <rect id="Rectángulo_403626" data-name="Rectángulo 403626" width="65.328" height="65.328" fill="none"/>
    </clipPath>
    <clipPath id="clip-path-4">
      <rect id="Rectángulo_403627" data-name="Rectángulo 403627" width="17.065" height="17.065" fill="none"/>
    </clipPath>
    <clipPath id="clip-path-5">
      <rect id="Rectángulo_403628" data-name="Rectángulo 403628" width="3.18" height="5.726" fill="none"/>
    </clipPath>
  </defs>
  <g id="Grupo_1103085" data-name="Grupo 1103085" transform="translate(-179.983 -2111.379)">
    <g id="Grupo_1100235" data-name="Grupo 1100235" transform="translate(0.017 -243.033)">
      <rect id="Rectángulo_35205" data-name="Rectángulo 35205" width="420.033" height="253.096" transform="translate(179.967 2354.412)" fill="#e0f4ff"/>
      <g id="Grupo_1102521" data-name="Grupo 1102521" transform="translate(209.467 2363.048)">
        <g id="Grupo_1102520" data-name="Grupo 1102520" clip-path="url(#clip-path)">
          <rect id="Rectángulo_403620" data-name="Rectángulo 403620" width="10.052" height="48.47" transform="translate(40.937 161.641)" fill="#923615"/>
          <rect id="Rectángulo_403621" data-name="Rectángulo 403621" width="10.052" height="68.318" transform="translate(118.562 141.792)" fill="#923615"/>
          <rect id="Rectángulo_403622" data-name="Rectángulo 403622" width="10.052" height="64.037" transform="translate(80.588 146.074)" fill="#923615"/>
          <path id="Trazado_886798" data-name="Trazado 886798" d="M93.458,215.973v72.266h10.963V215.973Zm.91.721h9.143v70.957H94.368Z" transform="translate(-33.808 -78.128)" fill="#fff"/>
          <path id="Trazado_886799" data-name="Trazado 886799" d="M155.882,186.154v91.3h10.962v-91.3Zm.91.91h9.143v89.645h-9.143Z" transform="translate(-56.39 -67.341)" fill="#fff"/>
          <rect id="Rectángulo_403623" data-name="Rectángulo 403623" width="14.991" height="106.598" transform="translate(185.333 35.509)" fill="#923615"/>
          <rect id="Rectángulo_403624" data-name="Rectángulo 403624" width="14.991" height="101.879" transform="translate(301.093 40.228)" fill="#923615"/>
          <rect id="Rectángulo_403625" data-name="Rectángulo 403625" width="14.99" height="95.494" transform="translate(244.462 46.613)" fill="#923615"/>
          <path id="Trazado_886800" data-name="Trazado 886800" d="M334.1,9.339V145.486h16.348V9.339Zm1.356,1.356H349.09V144.378H335.455Z" transform="translate(-120.859 -3.378)" fill="#fff"/>
          <path id="Trazado_886801" data-name="Trazado 886801" d="M427.187,9.339V145.486h16.348V9.339Zm1.357,1.356h13.634V144.378H428.544Z" transform="translate(-154.534 -3.378)" fill="#fff"/>
          <path id="Trazado_886802" data-name="Trazado 886802" d="M508.356,143.094v49.583H524.7V143.094Zm1.357,1.356h13.634V191.3H509.713Z" transform="translate(-183.896 -51.764)" fill="#fff"/>
          <g id="Grupo_1102519" data-name="Grupo 1102519">
            <g id="Grupo_1102518" data-name="Grupo 1102518" clip-path="url(#clip-path)">
              <path id="Trazado_886803" data-name="Trazado 886803" d="M534.887,96.93a1.521,1.521,0,1,1-1.522-1.522,1.522,1.522,0,0,1,1.522,1.522" transform="translate(-192.393 -34.514)" fill="#397afa"/>
              <path id="Trazado_886804" data-name="Trazado 886804" d="M560.41,17.193a1.521,1.521,0,1,1-1.522-1.522,1.522,1.522,0,0,1,1.522,1.522" transform="translate(-201.626 -5.669)" fill="#397afa"/>
              <path id="Trazado_886805" data-name="Trazado 886805" d="M501.169,33.674a2.567,2.567,0,1,1,2.567-2.567,2.57,2.57,0,0,1-2.567,2.567m0-4.5a1.929,1.929,0,1,0,1.929,1.929,1.931,1.931,0,0,0-1.929-1.929" transform="translate(-180.368 -10.324)" fill="#fff"/>
              <path id="Trazado_886806" data-name="Trazado 886806" d="M575.039,70.64a2.567,2.567,0,1,1,2.566-2.567,2.57,2.57,0,0,1-2.566,2.567m0-4.5a1.929,1.929,0,1,0,1.928,1.929,1.93,1.93,0,0,0-1.928-1.929" transform="translate(-207.09 -23.697)" fill="#fff"/>
              <path id="Trazado_886807" data-name="Trazado 886807" d="M36.285,302.643a1.521,1.521,0,1,1-1.522-1.522,1.522,1.522,0,0,1,1.522,1.522" transform="translate(-12.025 -108.93)" fill="#397afa"/>
              <path id="Trazado_886808" data-name="Trazado 886808" d="M61.807,222.907a1.521,1.521,0,1,1-1.522-1.522,1.522,1.522,0,0,1,1.522,1.522" transform="translate(-21.258 -80.085)" fill="#397afa"/>
              <path id="Trazado_886809" data-name="Trazado 886809" d="M2.567,239.387a2.567,2.567,0,1,1,2.566-2.567,2.569,2.569,0,0,1-2.566,2.567m0-4.5A1.929,1.929,0,1,0,4.5,236.82a1.93,1.93,0,0,0-1.928-1.929" transform="translate(0 -84.74)" fill="#fff"/>
              <path id="Trazado_886810" data-name="Trazado 886810" d="M5,169.654a2.248,2.248,0,1,1-2.248-2.248A2.248,2.248,0,0,1,5,169.654" transform="translate(-0.181 -60.559)" fill="#fff"/>
              <path id="Trazado_886811" data-name="Trazado 886811" d="M465.169,177.008h0c3.125-2.737,3.39-7.775-1.22-13.04l-53.319-60.893c-4.611-5.266-10.882-7.316-14.008-4.579s-1.921,9.224,2.69,14.49l53.319,60.892c4.611,5.266,9.414,5.866,12.539,3.129" transform="translate(-142.848 -35.192)" fill="#576184"/>
              <path id="Trazado_886812" data-name="Trazado 886812" d="M460.81,178.757a7.607,7.607,0,0,1-1.594-.174,13.6,13.6,0,0,1-7-4.668L398.9,113.023c-4.719-5.39-5.911-12.092-2.66-14.94s9.74-.78,14.458,4.608l53.319,60.893a13.05,13.05,0,0,1,3.59,7.662,7.078,7.078,0,0,1-2.4,5.828,6.544,6.544,0,0,1-4.4,1.683M400,97.423a4.944,4.944,0,0,0-3.341,1.14c-2.988,2.616-1.768,8.914,2.719,14.04L452.7,173.494a12.977,12.977,0,0,0,6.654,4.464,6.032,6.032,0,0,0,5.435-1.365,6.452,6.452,0,0,0,2.182-5.315A12.434,12.434,0,0,0,463.536,164l-53.319-60.892C407.056,99.5,403.1,97.423,400,97.423" transform="translate(-142.675 -35.018)" fill="#353148"/>
              <path id="Trazado_886813" data-name="Trazado 886813" d="M401.453,114.614l10.562-9.248a3.429,3.429,0,0,0,.321-4.839l-3.895-4.447a3.43,3.43,0,0,0-4.841-.32l-10.561,9.246a3.43,3.43,0,0,0-.321,4.839l3.893,4.448a3.431,3.431,0,0,0,4.841.321" transform="translate(-141.758 -34.333)" fill="#9dd3ff"/>
              <path id="Trazado_886814" data-name="Trazado 886814" d="M399.019,115.6c-.084,0-.169,0-.254-.008a3.723,3.723,0,0,1-2.572-1.271l-3.894-4.447a3.754,3.754,0,0,1,.352-5.29l10.56-9.246a3.749,3.749,0,0,1,5.29.35l3.895,4.446a3.749,3.749,0,0,1-.35,5.29l-10.562,9.248a3.72,3.72,0,0,1-2.464.929m6.657-20.554a3.091,3.091,0,0,0-2.046.771l-10.56,9.246a3.115,3.115,0,0,0-.292,4.389l3.894,4.447a3.112,3.112,0,0,0,4.391.292l10.562-9.248a3.112,3.112,0,0,0,.29-4.389l-3.895-4.446a3.091,3.091,0,0,0-2.134-1.054c-.071-.005-.14-.008-.211-.008m-4.4,19.386h0Z" transform="translate(-141.578 -34.153)" fill="#121936"/>
              <line id="Línea_768" data-name="Línea 768" x2="6.859" y2="7.919" transform="translate(262.242 63.653)" fill="#708cf5"/>
              <path id="Trazado_886815" data-name="Trazado 886815" d="M417.553,107.788a.319.319,0,0,1-.241-.11l-6.86-7.919a.319.319,0,0,1,.483-.417l6.86,7.919a.319.319,0,0,1-.241.528" transform="translate(-148.452 -35.896)" fill="#121936"/>
              <line id="Línea_769" data-name="Línea 769" x2="3.43" y2="3.96" transform="translate(262.882 70.565)" fill="#708cf5"/>
              <path id="Trazado_886816" data-name="Trazado 886816" d="M415.127,114.658a.319.319,0,0,1-.241-.11l-3.43-3.96a.319.319,0,1,1,.483-.417l3.43,3.96a.319.319,0,0,1-.241.528" transform="translate(-148.815 -39.814)" fill="#121936"/>
              <path id="Trazado_886817" data-name="Trazado 886817" d="M312.851,65.718a39.618,39.618,0,1,0,3.707-55.905,39.618,39.618,0,0,0-3.707,55.905m9.293-49.886a31.429,31.429,0,1,1-2.94,44.35,31.43,31.43,0,0,1,2.94-44.35" transform="translate(-109.623 0)" fill="#121936"/>
              <g id="Grupo_1102511" data-name="Grupo 1102511" transform="translate(200.665 6.616)" opacity="0.47">
                <g id="Grupo_1102510" data-name="Grupo 1102510">
                  <g id="Grupo_1102509" data-name="Grupo 1102509" clip-path="url(#clip-path-3)">
                    <path id="Trazado_886818" data-name="Trazado 886818" d="M322.487,64.548a32.664,32.664,0,1,0,3.057-46.093,32.664,32.664,0,0,0-3.057,46.093" transform="translate(-314.398 -10.366)" fill="#fff"/>
                  </g>
                </g>
              </g>
              <g id="Grupo_1102514" data-name="Grupo 1102514" transform="translate(220.856 11.524)" opacity="0.69">
                <g id="Grupo_1102513" data-name="Grupo 1102513">
                  <g id="Grupo_1102512" data-name="Grupo 1102512" clip-path="url(#clip-path-4)">
                    <path id="Trazado_886819" data-name="Trazado 886819" d="M348.145,32.209a8.532,8.532,0,1,0,.8-12.041,8.532,8.532,0,0,0-.8,12.041" transform="translate(-346.032 -18.055)" fill="#fff"/>
                  </g>
                </g>
              </g>
              <path id="Trazado_886820" data-name="Trazado 886820" d="M453.044,185.991c-.094-.37-36.832-4.034-36.832-4.034l-12.149,42.7a48.307,48.307,0,0,0-1.772,10.589l-3.567,52.035a1.47,1.47,0,0,0,1.484,1.571l16.55-.2a1.745,1.745,0,0,0,1.713-1.553l4.454-40.218,5.6-13.749,1.77,54.134a1.672,1.672,0,0,0,1.694,1.616l17.477-.006a1.1,1.1,0,0,0,1.1-1.007q1.493-29.832,2.986-59.662c.456-9.1,1.644-18.175,1.538-27.3a62.71,62.71,0,0,0-2.049-14.91" transform="translate(-144.236 -65.822)" fill="#121936"/>
              <path id="Trazado_886821" data-name="Trazado 886821" d="M443.985,255.1a.319.319,0,0,1-.3-.437l8.227-20.831a.319.319,0,1,1,.593.234L444.282,254.9a.319.319,0,0,1-.3.2" transform="translate(-160.495 -84.515)" fill="#fff"/>
              <path id="Trazado_886822" data-name="Trazado 886822" d="M445.812,349.276l-.805.694-11.379,10.285a1.1,1.1,0,0,0,.754,1.918l25.485-.353a1.216,1.216,0,0,0,1.2-1.256l-.045-11.283Z" transform="translate(-156.731 -126.35)" fill="#226c2c"/>
              <path id="Trazado_886823" data-name="Trazado 886823" d="M433.627,366.053l.4-.358a1.062,1.062,0,0,0,.746.289l25.485-.352a1.207,1.207,0,0,0,.807-.329l0,1.06a1.216,1.216,0,0,1-1.2,1.256l-25.485.353a1.1,1.1,0,0,1-.754-1.918" transform="translate(-156.731 -132.147)" fill="#121936"/>
              <path id="Trazado_886824" data-name="Trazado 886824" d="M439.446,366.209a.319.319,0,0,1,0-.638l23.716-.207h0a.319.319,0,0,1,0,.638l-23.716.207Z" transform="translate(-158.853 -132.169)" fill="#fff"/>
              <path id="Trazado_886825" data-name="Trazado 886825" d="M453.617,352.83a.32.32,0,0,1-.236-.1l-2.134-2.33a.319.319,0,1,1,.471-.431l2.134,2.329a.319.319,0,0,1-.02.451.315.315,0,0,1-.216.084" transform="translate(-163.207 -126.562)" fill="#fff"/>
              <path id="Trazado_886826" data-name="Trazado 886826" d="M450.872,355.419a.32.32,0,0,1-.235-.1l-2.134-2.33a.319.319,0,1,1,.471-.431l2.134,2.329a.319.319,0,0,1-.236.535" transform="translate(-162.214 -127.499)" fill="#fff"/>
              <path id="Trazado_886827" data-name="Trazado 886827" d="M448.291,357.964a.32.32,0,0,1-.236-.1l-2.134-2.329a.319.319,0,1,1,.471-.431l2.134,2.329a.319.319,0,0,1-.236.535" transform="translate(-161.281 -128.419)" fill="#fff"/>
              <path id="Trazado_886828" data-name="Trazado 886828" d="M454.483,346.924l-.2-.068c-.853-.433-.58-3.99-.536-4.227a1.41,1.41,0,0,1,2.773.513c-.085.46-1.337,3.436-1.893,3.711Zm.648-4.81a.774.774,0,0,0-.758.631,11.6,11.6,0,0,0,.114,3.345,16.017,16.017,0,0,0,1.4-3.063.773.773,0,0,0-.618-.9.776.776,0,0,0-.142-.013" transform="translate(-164.114 -123.528)" fill="#fff"/>
              <path id="Trazado_886829" data-name="Trazado 886829" d="M451.971,347.969a13.388,13.388,0,0,1-3.5-.917,1.41,1.41,0,1,1,1.429-2.431h0c.363.214,2.442,1.852,2.658,2.718a.577.577,0,0,1-.054.454c-.076.125-.272.175-.539.175m-2.78-2.9a.789.789,0,0,0-.2.025.772.772,0,0,0-.2,1.414,14.194,14.194,0,0,0,3.125.846,10.782,10.782,0,0,0-2.343-2.178.771.771,0,0,0-.39-.107" transform="translate(-161.983 -124.595)" fill="#fff"/>
              <path id="Trazado_886830" data-name="Trazado 886830" d="M394.686,349.276l-.805.694L382.5,360.255a1.1,1.1,0,0,0,.754,1.918l25.485-.353a1.216,1.216,0,0,0,1.2-1.256l-.045-11.283Z" transform="translate(-138.237 -126.35)" fill="#226c2c"/>
              <path id="Trazado_886831" data-name="Trazado 886831" d="M382.5,366.053l.4-.358a1.062,1.062,0,0,0,.746.289l25.485-.352a1.206,1.206,0,0,0,.807-.329l0,1.06a1.216,1.216,0,0,1-1.2,1.256l-25.485.353a1.1,1.1,0,0,1-.754-1.918" transform="translate(-138.237 -132.147)" fill="#121936"/>
              <path id="Trazado_886832" data-name="Trazado 886832" d="M388.32,366.209a.319.319,0,0,1,0-.638l23.716-.207h0a.319.319,0,0,1,0,.638l-23.716.207Z" transform="translate(-140.358 -132.169)" fill="#fff"/>
              <path id="Trazado_886833" data-name="Trazado 886833" d="M415.838,357.863a2.423,2.423,0,0,1-2.374-1.97h0a2.422,2.422,0,1,1,2.831,1.928,2.4,2.4,0,0,1-.457.043m-1.747-2.09a1.784,1.784,0,1,0,1.421-2.086,1.774,1.774,0,0,0-1.421,2.086" transform="translate(-149.554 -127.703)" fill="#fff"/>
              <path id="Trazado_886834" data-name="Trazado 886834" d="M402.49,352.83a.319.319,0,0,1-.235-.1l-2.134-2.33a.319.319,0,1,1,.471-.431l2.134,2.329a.319.319,0,0,1-.02.451.315.315,0,0,1-.216.084" transform="translate(-144.712 -126.562)" fill="#fff"/>
              <path id="Trazado_886835" data-name="Trazado 886835" d="M399.746,355.419a.32.32,0,0,1-.236-.1l-2.134-2.33a.319.319,0,1,1,.471-.431l2.134,2.329a.319.319,0,0,1-.236.535" transform="translate(-143.72 -127.498)" fill="#fff"/>
              <path id="Trazado_886836" data-name="Trazado 886836" d="M397.165,357.964a.32.32,0,0,1-.236-.1l-2.134-2.329a.319.319,0,1,1,.471-.431l2.134,2.329a.319.319,0,0,1-.236.535" transform="translate(-142.786 -128.419)" fill="#fff"/>
              <path id="Trazado_886837" data-name="Trazado 886837" d="M403.358,346.923l-.2-.068c-.853-.433-.581-3.99-.537-4.227a1.41,1.41,0,0,1,2.773.513c-.085.46-1.336,3.436-1.892,3.711Zm.649-4.81a.773.773,0,0,0-.759.631,11.594,11.594,0,0,0,.114,3.345,16.052,16.052,0,0,0,1.4-3.063.771.771,0,0,0-.76-.913" transform="translate(-145.619 -123.527)" fill="#fff"/>
              <path id="Trazado_886838" data-name="Trazado 886838" d="M400.845,347.97a13.39,13.39,0,0,1-3.5-.917,1.41,1.41,0,1,1,1.429-2.431c.364.214,2.443,1.852,2.659,2.718a.576.576,0,0,1-.054.455c-.077.124-.273.175-.539.175m-2.78-2.9a.772.772,0,0,0-.392,1.438,14.154,14.154,0,0,0,3.124.847,10.72,10.72,0,0,0-2.342-2.179h0a.769.769,0,0,0-.389-.106" transform="translate(-143.488 -124.595)" fill="#fff"/>
              <path id="Trazado_886839" data-name="Trazado 886839" d="M366.391,104.8c-1.029-.6-2.2-.911-2.863.414-.767,1.11.072,1.969,1.067,2.653-.682-.33-1.374-.41-1.857.351-1.021,1.26-.066,2.446,1.04,3.167-1.245-.366-1.587,1.792-.447,3.052l5.832,7.148c1.222,1.576,5.245,2.222,6.52,2.459a1.156,1.156,0,0,0,.779-.123c2.691-1.509,3.764-6.752,2.844-11.166a83.1,83.1,0,0,0-3.145-8.689,2.222,2.222,0,0,0-.431-.62.817.817,0,0,0-.694-.23,1.086,1.086,0,0,0-.675.671,8.558,8.558,0,0,0-.617,2.986c-.622-.639-1.284-1.327-2-2.088-1.62-1.5-3.988-4.294-5.822-2.061-.571.83-.16,1.531.467,2.077" transform="translate(-131.062 -36.857)" fill="#ffa386"/>
              <g id="Grupo_1102517" data-name="Grupo 1102517" transform="translate(242.681 68.162)" opacity="0.36">
                <g id="Grupo_1102516" data-name="Grupo 1102516">
                  <g id="Grupo_1102515" data-name="Grupo 1102515" clip-path="url(#clip-path-5)">
                    <path id="Trazado_886840" data-name="Trazado 886840" d="M380.227,108.644l3.18,3.876s-2.3-5.079-2.939-5.726Z" transform="translate(-380.227 -106.795)" fill="#ff6a48"/>
                  </g>
                </g>
              </g>
              <path id="Trazado_886841" data-name="Trazado 886841" d="M370.44,108.491a.319.319,0,0,1-.23-.1,30.687,30.687,0,0,0-2.386-2.321.319.319,0,0,1,.324-.55,29.777,29.777,0,0,1,2.523,2.429.319.319,0,0,1-.23.54" transform="translate(-133.002 -38.157)" fill="#ff6a48"/>
              <path id="Trazado_886842" data-name="Trazado 886842" d="M367.308,113.085a.316.316,0,0,1-.227-.094l-1.914-1.932a.319.319,0,0,1,.453-.449l1.914,1.932a.319.319,0,0,1-.227.544" transform="translate(-132.065 -39.978)" fill="#ff6a48"/>
              <path id="Trazado_886843" data-name="Trazado 886843" d="M365.487,117.92a.319.319,0,0,1-.222-.089l-1.054-1.018a.319.319,0,0,1,.444-.46l1.055,1.018a.319.319,0,0,1,.007.451.315.315,0,0,1-.229.1" transform="translate(-131.717 -42.058)" fill="#ff6a48"/>
              <path id="Trazado_886844" data-name="Trazado 886844" d="M451.511,72.834a5.785,5.785,0,0,1-2.688-1.879l3.339.107a3.784,3.784,0,0,0,1.411-.223l.048-.016a3.784,3.784,0,0,0,.538-.25l.075-.042a3.9,3.9,0,0,0,.478-.329l.057-.049a3.813,3.813,0,0,0,.432-.417l0,0a3.976,3.976,0,0,0,.355-.481c.013-.022.029-.042.041-.064a3.836,3.836,0,0,0,.26-.514c.013-.032.027-.064.04-.1a3.807,3.807,0,0,0,.17-.555c.006-.03.011-.06.017-.09a3.825,3.825,0,0,0,.075-.621l0-.089a3.733,3.733,0,0,0-.015-.456c0-.046-.011-.091-.016-.135-.013-.107-.03-.213-.052-.317-.01-.047-.02-.093-.031-.138-.027-.112-.061-.221-.1-.329-.01-.03-.019-.062-.031-.092a3.9,3.9,0,0,0-.181-.412l-.006-.011a3.911,3.911,0,0,0-.22-.37c-.016-.024-.033-.048-.05-.072q-.107-.152-.228-.294l-.05-.06a3.961,3.961,0,0,0-.68-.61,3.844,3.844,0,0,0-2.093-.7l-4.9-.158a20.622,20.622,0,0,1,.551-2.573,2.437,2.437,0,0,0-2.907-3.02c-5.258,1.243-7.3,1.3-8.525,1.1-.161-.027-.308-.059-.446-.094l-2.49,12.958c-.954,4.384,1.9,6.552,6.168,7.639l.056,5.255c.038,3.6,2.616,6.51,5.73,6.466l.129,0c3.113-.045,6.1-2.139,6.066-5.74l-.336-7.9a2.977,2.977,0,0,1-.465.078Z" transform="translate(-156.82 -20.766)" fill="#ffa386"/>
              <path id="Trazado_886845" data-name="Trazado 886845" d="M462.575,73.15a.317.317,0,0,1-.174-.052l-1.58-1.024,1.6-1.786a.319.319,0,0,1,.476.426l-1.1,1.23.955.62a.319.319,0,0,1-.173.587" transform="translate(-166.701 -25.388)" fill="#ff6a48"/>
              <path id="Trazado_886846" data-name="Trazado 886846" d="M439.189,68.718a.822.822,0,1,0,.85-.793.823.823,0,0,0-.85.793" transform="translate(-158.875 -24.571)" fill="#121936"/>
              <path id="Trazado_886847" data-name="Trazado 886847" d="M441.557,77.119a3.039,3.039,0,0,1-1.366-.382.319.319,0,1,1,.292-.567,1.8,1.8,0,0,0,1.546.212.888.888,0,0,0,.4-.363.321.321,0,0,1,.427-.142.317.317,0,0,1,.147.422,1.531,1.531,0,0,1-.876.73,1.8,1.8,0,0,1-.573.091" transform="translate(-159.175 -27.436)" fill="#ff6a48"/>
              <path id="Trazado_886848" data-name="Trazado 886848" d="M446.014,64.914a1.954,1.954,0,0,1-.82-.366c-.269-.172-.545-.336-.789-.47s-.533-.277-.823-.412a1.943,1.943,0,0,1-.749-.492c-.157-.214-.089-.543.349-.754a2.351,2.351,0,0,1,2.041.2,2.3,2.3,0,0,1,1.253,1.6c.05.479-.2.71-.462.693" transform="translate(-160.166 -22.526)" fill="#121936"/>
              <path id="Trazado_886849" data-name="Trazado 886849" d="M440.648,70.675a.321.321,0,0,1-.211-.08.835.835,0,0,0-1.052-.035.319.319,0,0,1-.368-.522,1.479,1.479,0,0,1,1.845.08.319.319,0,0,1-.213.557" transform="translate(-158.764 -25.232)" fill="#ff6a48"/>
              <path id="Trazado_886850" data-name="Trazado 886850" d="M443.447,90.72s5.179.742,6.209-1.158h0s.278,3.115-6.176,4.214Z" transform="translate(-160.416 -32.093)" fill="#ff6a48"/>
              <path id="Trazado_886851" data-name="Trazado 886851" d="M435.624,66.121l-.449,1.359a.988.988,0,0,1-1.248.628.494.494,0,0,0-.624.315,1.6,1.6,0,0,0,1.016,2.019l.551.182" transform="translate(-156.717 -23.919)" fill="#ffa386"/>
              <path id="Trazado_886852" data-name="Trazado 886852" d="M434.689,70.761a.325.325,0,0,1-.1-.016l-.551-.183a1.919,1.919,0,0,1-1.219-2.422.813.813,0,0,1,1.028-.517.67.67,0,0,0,.845-.426l.449-1.359a.316.316,0,0,1,.4-.2.319.319,0,0,1,.2.4L435.3,67.4a1.306,1.306,0,0,1-1.651.831.172.172,0,0,0-.134.01.174.174,0,0,0-.087.1,1.28,1.28,0,0,0,.813,1.616l.551.182a.319.319,0,0,1-.1.622" transform="translate(-156.536 -23.738)" fill="#ff6a48"/>
              <path id="Trazado_886853" data-name="Trazado 886853" d="M440.126,70.542a3.069,3.069,0,1,1,3.069-3.069,3.073,3.073,0,0,1-3.069,3.069m0-5.5a2.431,2.431,0,1,0,2.431,2.431,2.434,2.434,0,0,0-2.431-2.431" transform="translate(-158.104 -23.298)" fill="#fff"/>
              <path id="Trazado_886854" data-name="Trazado 886854" d="M445.994,67.491a.319.319,0,0,1-.048-.634l7.975-1.232a.319.319,0,0,1,.1.631l-7.975,1.232a.318.318,0,0,1-.049,0" transform="translate(-161.222 -23.738)" fill="#fff"/>
              <path id="Trazado_886855" data-name="Trazado 886855" d="M436.792,68.09a.321.321,0,0,1-.149-.037,2.012,2.012,0,0,0-1.1-.107.322.322,0,0,1-.373-.255.319.319,0,0,1,.254-.372,2.669,2.669,0,0,1,1.52.169.319.319,0,0,1-.148.6" transform="translate(-157.418 -24.337)" fill="#fff"/>
              <path id="Trazado_886856" data-name="Trazado 886856" d="M450.689,41.237l-4.8-.632a3.961,3.961,0,0,0-7.15.486c-.152.067-.3.144-.449.218a3.171,3.171,0,0,0-4.426,4.061,10.447,10.447,0,0,0-.978,2.051,3.8,3.8,0,0,0,2.676,4.133c.123.036.249.073.384.106s.285.066.445.094c1.22.207,3.268.148,8.525-1.1a2.436,2.436,0,0,1,2.907,3.02,20.731,20.731,0,0,0-.55,2.573l4.9.157a3.85,3.85,0,0,1,2.093.7,3.93,3.93,0,0,1,.68.61l.051.059c.08.1.156.193.227.295l.05.072a3.906,3.906,0,0,1,.22.37l.006.011a3.891,3.891,0,0,1,.181.412c.011.03.02.061.031.092.037.108.07.218.1.329q.016.069.031.138.033.157.052.318c.006.045.013.089.017.135a3.882,3.882,0,0,1,.015.457l0,.089a3.9,3.9,0,0,1-.075.621c-.006.03-.01.06-.017.089a3.871,3.871,0,0,1-.17.556c-.013.033-.026.065-.04.1a3.981,3.981,0,0,1-.26.513c-.013.022-.028.043-.042.064a3.868,3.868,0,0,1-.355.481v0a3.928,3.928,0,0,1-.433.417l-.057.049a3.974,3.974,0,0,1-.479.329l-.074.042a3.966,3.966,0,0,1-.538.25l-.048.015a3.756,3.756,0,0,1-1.412.223l-3.339-.107a5.78,5.78,0,0,0,2.689,1.88l-.474,4.4a2.977,2.977,0,0,0,.465-.079,3.324,3.324,0,0,0,.631-.207,3.2,3.2,0,0,0,1.617-1.636l1.028-2.37a5.782,5.782,0,0,0,4.01-7.494,3.955,3.955,0,0,0,1.766-3.125c4.562-7.718-5.259-13.7-9.629-14.271" transform="translate(-156.583 -13.953)" fill="#121936"/>
              <path id="Trazado_886857" data-name="Trazado 886857" d="M464.677,138.636s-16.813-30.718-17.794-31.994a16.633,16.633,0,0,0-12.953-6.493l-9.624-.135-10.975-.283c-1.7,0-6.672.9-7.944,2.031-3.978,3.546-6.71,9.775-8.267,14.571l-3.252,10.011-9.641-11.2a1.178,1.178,0,0,0-1.529-.223l-11.35,7.276a1.081,1.081,0,0,0-.285,1.554l15.668,21.147a10.33,10.33,0,0,0,16.231,1.486l-2.815,22.562h46.589l1.508-19.245,11.341-.592a6.65,6.65,0,0,0,5.093-10.467" transform="translate(-134.154 -36.077)" fill="#38b449"/>
              <path id="Trazado_886858" data-name="Trazado 886858" d="M407.84,143.544a.319.319,0,0,1-.254-.126l-2.974-3.907a.319.319,0,1,1,.507-.387l2.974,3.907a.319.319,0,0,1-.253.513" transform="translate(-146.344 -50.282)" fill="#121936"/>
              <path id="Trazado_886859" data-name="Trazado 886859" d="M491.622,167.2l-.035,0a.32.32,0,0,1-.283-.352l2.841-26.239a.323.323,0,0,1,.352-.283.318.318,0,0,1,.283.351l-2.841,26.239a.319.319,0,0,1-.317.285" transform="translate(-177.727 -50.763)" fill="#121936"/>
              <path id="Trazado_886860" data-name="Trazado 886860" d="M420.981,164.381a.319.319,0,0,1-.266-.495l10-15.143a.319.319,0,1,1,.532.351l-10,15.143a.318.318,0,0,1-.266.144" transform="translate(-152.173 -53.756)" fill="#121936"/>
              <path id="Trazado_886861" data-name="Trazado 886861" d="M180.035,141.966H34.778a4,4,0,0,1-4-4V38.958a4,4,0,0,1,4-4H180.035a4,4,0,0,1,4,4v99.01a4,4,0,0,1-4,4" transform="translate(-11.135 -12.647)" fill="#fff"/>
              <path id="Trazado_886862" data-name="Trazado 886862" d="M180.035,34.961H34.778a4,4,0,0,0-4,4V50.793H184.033V38.958a4,4,0,0,0-4-4" transform="translate(-11.135 -12.647)" fill="#f35923"/>
              <path id="Trazado_886863" data-name="Trazado 886863" d="M183.851,50.932H30.6a.319.319,0,0,1-.319-.319V38.778A4.322,4.322,0,0,1,34.6,34.461H179.854a4.321,4.321,0,0,1,4.316,4.317V50.613a.319.319,0,0,1-.319.319M30.919,50.293H183.532V38.778a3.682,3.682,0,0,0-3.678-3.678H34.6a3.682,3.682,0,0,0-3.678,3.678Z" transform="translate(-10.954 -12.466)" fill="#353148"/>
              <path id="Trazado_886864" data-name="Trazado 886864" d="M228.218,47.895a2.494,2.494,0,1,1,2.494-2.494,2.5,2.5,0,0,1-2.494,2.494m0-4.35a1.856,1.856,0,1,0,1.855,1.856,1.858,1.858,0,0,0-1.855-1.856" transform="translate(-81.655 -15.521)" fill="#fff"/>
              <path id="Trazado_886865" data-name="Trazado 886865" d="M242.12,47.895a2.494,2.494,0,1,1,2.494-2.494,2.5,2.5,0,0,1-2.494,2.494m0-4.35a1.856,1.856,0,1,0,1.855,1.856,1.858,1.858,0,0,0-1.855-1.856" transform="translate(-86.684 -15.521)" fill="#fff"/>
              <path id="Trazado_886866" data-name="Trazado 886866" d="M256.441,47.895a2.494,2.494,0,1,1,2.494-2.494,2.5,2.5,0,0,1-2.494,2.494m0-4.35A1.856,1.856,0,1,0,258.3,45.4a1.858,1.858,0,0,0-1.856-1.856" transform="translate(-91.865 -15.521)" fill="#fff"/>
              <path id="Trazado_886867" data-name="Trazado 886867" d="M177.721,146.895H45.093a3.255,3.255,0,0,1-3.254-3.254V72.026a3.255,3.255,0,0,1,3.254-3.254H177.721a3.255,3.255,0,0,1,3.254,3.254V143.64a3.255,3.255,0,0,1-3.254,3.254" transform="translate(-15.135 -24.878)" fill="#fff"/>
              <path id="Trazado_886868" data-name="Trazado 886868" d="M177.54,147.033H44.913a3.577,3.577,0,0,1-3.574-3.574V71.847a3.578,3.578,0,0,1,3.574-3.574H177.54a3.578,3.578,0,0,1,3.574,3.574V143.46a3.577,3.577,0,0,1-3.574,3.574M44.913,68.911a2.939,2.939,0,0,0-2.935,2.935V143.46a2.939,2.939,0,0,0,2.935,2.935H177.54a2.939,2.939,0,0,0,2.935-2.935V71.847a2.939,2.939,0,0,0-2.935-2.935Z" transform="translate(-14.954 -24.698)" fill="#353148"/>
              <path id="Trazado_886869" data-name="Trazado 886869" d="M85.865,145.3a30.953,30.953,0,1,1,0-61.905c.389,0,.179,61.905,0,61.905" transform="translate(-19.864 -30.167)" fill="#fcded3"/>
              <path id="Trazado_886870" data-name="Trazado 886870" d="M138.311,114.346a30.953,30.953,0,0,0-30.953-30.953c-.2,0-.242,15.111-.21,31.08,0,.116,31.163.005,31.163-.128" transform="translate(-38.757 -30.167)" fill="#fabca7"/>
              <path id="Trazado_886871" data-name="Trazado 886871" d="M108.014,158.953c-.405,0-.405,0-.437-11.8-.007-2.866-.008-5.733-.005-7.882.008-3.9.008-3.9.347-3.9,22.818-.045,22.963.1,23.106.245a.326.326,0,0,1,.1.228,23.132,23.132,0,0,1-23.106,23.106m.211-22.942c-.058,2.531.008,19.948.084,22.3a22.492,22.492,0,0,0,22.17-22.188c-1.517-.094-9.83-.138-22.255-.114" transform="translate(-38.913 -48.968)" fill="#121936"/>
              <path id="Trazado_886872" data-name="Trazado 886872" d="M212.8,107.906h-42a.319.319,0,0,1,0-.638h42a.319.319,0,1,1,0,.638" transform="translate(-61.674 -38.804)" fill="#121936"/>
              <path id="Trazado_886873" data-name="Trazado 886873" d="M191.044,122.662H170.808a.319.319,0,0,1,0-.638h20.236a.319.319,0,0,1,0,.638" transform="translate(-61.674 -44.142)" fill="#121936"/>
              <path id="Trazado_886874" data-name="Trazado 886874" d="M226.154,122.662H207.887a.319.319,0,0,1,0-.638h18.267a.319.319,0,1,1,0,.638" transform="translate(-75.087 -44.142)" fill="#121936"/>
              <path id="Trazado_886875" data-name="Trazado 886875" d="M226.532,140.417c-1.407-.033-2.526,0-2.526,0l-74.365-.086a16.585,16.585,0,0,0-16.266,13.934h-.068l0,.444a16.681,16.681,0,0,0-.149,2.307l.039,6.34a17.008,17.008,0,0,1-5.642,12.955,16.591,16.591,0,0,1-7.707,3.8,13.654,13.654,0,0,0,1.844.078c1.407.033,2.526,0,2.526,0l74.365.086a16.585,16.585,0,0,0,16.266-13.934h.068l0-.444a16.692,16.692,0,0,0,.149-2.307l-.054-8.779a16.9,16.9,0,0,1,13.364-14.322,13.8,13.8,0,0,0-1.844-.078" transform="translate(-43.348 -50.763)" fill="#121936"/>
              <path id="Trazado_886876" data-name="Trazado 886876" d="M262.1,140.328H167c11.433,0,20.7,9.657,20.7,21.57v89.8c0,7.7,5.987,13.933,13.372,13.933h90.8V171.349c1.162-16.222-7.907-31.021-29.771-31.021" transform="translate(-60.411 -50.763)" fill="#fff"/>
              <path id="Trazado_886877" data-name="Trazado 886877" d="M291.592,173.387a.239.239,0,0,1-.239-.239V166.3a25.394,25.394,0,0,0-25.365-25.365h-99.53a.239.239,0,1,1,0-.479h99.53A25.874,25.874,0,0,1,291.831,166.3v6.852a.239.239,0,0,1-.239.239" transform="translate(-60.129 -50.808)" fill="#121936"/>
              <path id="Trazado_886878" data-name="Trazado 886878" d="M332.346,295.018l-99.055.124.06,9.64a17.431,17.431,0,0,1-13.96,17.064,14.214,14.214,0,0,0,1.9.08c1.454.034,2.609,0,2.609,0l76.818.088c.173,0,.345-.01.516-.016l14.144.016a17.129,17.129,0,0,0,17.023-17.235Z" transform="translate(-79.356 -106.722)" fill="#121936"/>
              <path id="Trazado_886879" data-name="Trazado 886879" d="M299.027,201.739H225.914a.319.319,0,1,1,0-.638h73.113a.319.319,0,1,1,0,.638" transform="translate(-81.608 -72.748)" fill="#121936"/>
              <path id="Trazado_886880" data-name="Trazado 886880" d="M266.6,177.51H228.01a.638.638,0,1,1,0-1.277H266.6a.638.638,0,0,1,0,1.277" transform="translate(-82.251 -63.752)" fill="#3e2fd1"/>
              <path id="Trazado_886881" data-name="Trazado 886881" d="M261.072,249.543H225.915a.319.319,0,1,1,0-.638h35.157a.319.319,0,0,1,0,.638" transform="translate(-81.609 -90.041)" fill="#121936"/>
              <path id="Trazado_886882" data-name="Trazado 886882" d="M249.8,224.158H225.914a.319.319,0,0,1,0-.638H249.8a.319.319,0,0,1,0,.638" transform="translate(-81.608 -80.858)" fill="#121936"/>
              <path id="Trazado_886883" data-name="Trazado 886883" d="M317.291,224.158H276.4a.319.319,0,0,1,0-.638h40.889a.319.319,0,1,1,0,.638" transform="translate(-99.872 -80.858)" fill="#121936"/>
              <path id="Trazado_886884" data-name="Trazado 886884" d="M249.8,276.7H225.914a.319.319,0,0,1,0-.638H249.8a.319.319,0,1,1,0,.638" transform="translate(-81.608 -99.864)" fill="#121936"/>
              <path id="Trazado_886885" data-name="Trazado 886885" d="M277.673,276.7h-5.867a.319.319,0,0,1,0-.638h5.867a.319.319,0,0,1,0,.638" transform="translate(-98.21 -99.864)" fill="#121936"/>
              <rect id="Rectángulo_403629" data-name="Rectángulo 403629" width="7.671" height="24.37" transform="translate(187.276 154.724)" fill="#fcded3"/>
              <path id="Trazado_886886" data-name="Trazado 886886" d="M318.636,272.472h-7.671a.319.319,0,0,1-.319-.319V257.566a.319.319,0,0,1,.319-.319h7.671a.319.319,0,0,1,.319.319v14.587a.319.319,0,0,1-.319.319m-7.351-.638h7.033V257.885h-7.033Z" transform="translate(-112.375 -93.058)" fill="#397afa"/>
              <rect id="Rectángulo_403630" data-name="Rectángulo 403630" width="7.671" height="26.876" transform="translate(209.748 152.219)" fill="#c3471c"/>
              <path id="Trazado_886887" data-name="Trazado 886887" d="M250.449,108.478l-18.671-19.26a.32.32,0,0,1,.459-.445l18.233,18.81,20.258-19.007L294.74,107.2a.319.319,0,0,1-.392.5l-23.58-18.285Z" transform="translate(-83.813 -32.042)" fill="#121936"/>
              <path id="Trazado_886888" data-name="Trazado 886888" d="M234.377,86.37a5.053,5.053,0,1,1-5.052-5.052,5.052,5.052,0,0,1,5.052,5.052" transform="translate(-81.13 -29.417)" fill="#f35923"/>
              <path id="Trazado_886889" data-name="Trazado 886889" d="M295.075,86.37a5.053,5.053,0,1,1-5.052-5.052,5.052,5.052,0,0,1,5.052,5.052" transform="translate(-103.087 -29.417)" fill="#f35923"/>
              <path id="Trazado_886890" data-name="Trazado 886890" d="M263.287,115.28a5.053,5.053,0,1,1-5.052-5.052,5.052,5.052,0,0,1,5.052,5.052" transform="translate(-91.588 -39.875)" fill="#fabca7"/>
              <path id="Trazado_886891" data-name="Trazado 886891" d="M332.357,115.28a5.053,5.053,0,1,1-5.052-5.052,5.052,5.052,0,0,1,5.052,5.052" transform="translate(-116.574 -39.875)" fill="#fabca7"/>
            </g>
          </g>
        </g>
      </g>
    </g>
  </g>
</svg>
