<svg xmlns="http://www.w3.org/2000/svg" xmlns:xlink="http://www.w3.org/1999/xlink" width="457.605" height="407.995" viewBox="0 0 457.605 407.995">
  <defs>
    <clipPath id="clip-path">
      <rect id="Rectángulo_400902" data-name="Rectángulo 400902" width="113.066" height="100.239" fill="#f8cd20"/>
    </clipPath>
    <clipPath id="clip-path-2">
      <rect id="Rectángulo_403596" data-name="Rectángulo 403596" width="457.605" height="402.487" fill="none"/>
    </clipPath>
    <clipPath id="clip-path-3">
      <rect id="Rectángulo_403595" data-name="Rectángulo 403595" width="457.604" height="402.487" fill="none"/>
    </clipPath>
    <clipPath id="clip-path-4">
      <rect id="Rectángulo_403576" data-name="Rectángulo 403576" width="50.022" height="18.128" fill="none"/>
    </clipPath>
    <clipPath id="clip-path-5">
      <rect id="Rectángulo_403579" data-name="Rectángulo 403579" width="20.967" height="6.157" fill="none"/>
    </clipPath>
    <clipPath id="clip-path-6">
      <rect id="Rectángulo_403580" data-name="Rectángulo 403580" width="5.57" height="5.57" fill="none"/>
    </clipPath>
    <clipPath id="clip-path-7">
      <rect id="Rectángulo_403583" data-name="Rectángulo 403583" width="52.367" height="14.767" fill="none"/>
    </clipPath>
    <clipPath id="clip-path-8">
      <rect id="Rectángulo_403592" data-name="Rectángulo 403592" width="10.834" height="7.375" fill="none"/>
    </clipPath>
    <clipPath id="clip-path-9">
      <rect id="Rectángulo_403593" data-name="Rectángulo 403593" width="9.859" height="7.076" fill="none"/>
    </clipPath>
    <clipPath id="clip-path-10">
      <rect id="Rectángulo_403594" data-name="Rectángulo 403594" width="4.368" height="4.368" fill="none"/>
    </clipPath>
    <clipPath id="clip-path-11">
      <rect id="Rectángulo_403603" data-name="Rectángulo 403603" width="207.446" height="148.337" fill="none"/>
    </clipPath>
    <clipPath id="clip-path-13">
      <rect id="Rectángulo_403597" data-name="Rectángulo 403597" width="17.509" height="18.536" fill="none"/>
    </clipPath>
    <clipPath id="clip-path-14">
      <path id="Trazado_886445" data-name="Trazado 886445" d="M266.735,63.881a41.454,41.454,0,1,0,41.454-41.453,41.454,41.454,0,0,0-41.454,41.453" transform="translate(-266.735 -22.428)" fill="none"/>
    </clipPath>
  </defs>
  <g id="Grupo_1103082" data-name="Grupo 1103082" transform="translate(-180 -2604.802)">
    <g id="Grupo_1100015" data-name="Grupo 1100015" transform="translate(0 112.954)">
      <path id="_119740" data-name="119740" d="M45.281,0l-.444.154H24.13A24.13,24.13,0,0,0,0,24.285V74.451a24.156,24.156,0,0,0,9.563,19.4c6.572,4.9,13.421,13.2,9.266,25.115-7.226,20.721-3.8,38.8,11.788,51.47s27.669,26.1,11.979,42.434q-.42.438-.812.882c-13.556,15.354-2.116,39.6,18.365,39.6H276.586l-.012-.04A126.6,126.6,0,0,0,273.4.154c-.57,0-1.135.019-1.7.026l-.014-.026Z" transform="translate(285 2891.848) rotate(-90)" fill="#38b449"/>
      <g id="Grupo_1099384" data-name="Grupo 1099384" transform="translate(346.144 2799.604)">
        <g id="Grupo_1098724" data-name="Grupo 1098724" transform="translate(0 0)">
          <g id="Grupo_1098723" data-name="Grupo 1098723" clip-path="url(#clip-path)">
            <path id="Trazado_872910" data-name="Trazado 872910" d="M4.514,2.257A2.257,2.257,0,1,1,2.257,0,2.257,2.257,0,0,1,4.514,2.257" fill="#f8cd20"/>
            <path id="Trazado_872911" data-name="Trazado 872911" d="M33.468,2.257A2.257,2.257,0,1,1,31.211,0a2.257,2.257,0,0,1,2.257,2.257" transform="translate(-7.243)" fill="#f8cd20"/>
            <path id="Trazado_872912" data-name="Trazado 872912" d="M62.421,2.257A2.257,2.257,0,1,1,60.164,0a2.257,2.257,0,0,1,2.257,2.257" transform="translate(-14.486)" fill="#f8cd20"/>
            <path id="Trazado_872913" data-name="Trazado 872913" d="M91.374,2.257A2.257,2.257,0,1,1,89.117,0a2.257,2.257,0,0,1,2.257,2.257" transform="translate(-21.729)" fill="#f8cd20"/>
            <path id="Trazado_872914" data-name="Trazado 872914" d="M120.328,2.257A2.257,2.257,0,1,1,118.071,0a2.257,2.257,0,0,1,2.257,2.257" transform="translate(-28.972)" fill="#f8cd20"/>
            <path id="Trazado_872915" data-name="Trazado 872915" d="M149.281,2.257A2.257,2.257,0,1,1,147.024,0a2.257,2.257,0,0,1,2.257,2.257" transform="translate(-36.215)" fill="#f8cd20"/>
            <path id="Trazado_872916" data-name="Trazado 872916" d="M4.514,34.172a2.257,2.257,0,1,1-2.257-2.257,2.257,2.257,0,0,1,2.257,2.257" transform="translate(0 -7.984)" fill="#f8cd20"/>
            <path id="Trazado_872917" data-name="Trazado 872917" d="M33.468,34.172a2.257,2.257,0,1,1-2.257-2.257,2.257,2.257,0,0,1,2.257,2.257" transform="translate(-7.243 -7.984)" fill="#f8cd20"/>
            <path id="Trazado_872918" data-name="Trazado 872918" d="M62.421,34.172a2.257,2.257,0,1,1-2.257-2.257,2.257,2.257,0,0,1,2.257,2.257" transform="translate(-14.486 -7.984)" fill="#f8cd20"/>
            <path id="Trazado_872919" data-name="Trazado 872919" d="M91.374,34.172a2.257,2.257,0,1,1-2.257-2.257,2.257,2.257,0,0,1,2.257,2.257" transform="translate(-21.729 -7.984)" fill="#f8cd20"/>
            <path id="Trazado_872920" data-name="Trazado 872920" d="M120.328,34.172a2.257,2.257,0,1,1-2.257-2.257,2.258,2.258,0,0,1,2.257,2.257" transform="translate(-28.972 -7.984)" fill="#f8cd20"/>
            <path id="Trazado_872921" data-name="Trazado 872921" d="M149.281,34.172a2.257,2.257,0,1,1-2.257-2.257,2.257,2.257,0,0,1,2.257,2.257" transform="translate(-36.215 -7.984)" fill="#f8cd20"/>
            <path id="Trazado_872922" data-name="Trazado 872922" d="M4.514,66.087A2.257,2.257,0,1,1,2.257,63.83a2.257,2.257,0,0,1,2.257,2.257" transform="translate(0 -15.968)" fill="#f8cd20"/>
            <path id="Trazado_872923" data-name="Trazado 872923" d="M33.468,66.087a2.257,2.257,0,1,1-2.257-2.257,2.257,2.257,0,0,1,2.257,2.257" transform="translate(-7.243 -15.968)" fill="#f8cd20"/>
            <path id="Trazado_872924" data-name="Trazado 872924" d="M62.421,66.087a2.257,2.257,0,1,1-2.257-2.257,2.257,2.257,0,0,1,2.257,2.257" transform="translate(-14.486 -15.968)" fill="#f8cd20"/>
            <path id="Trazado_872925" data-name="Trazado 872925" d="M91.374,66.087a2.257,2.257,0,1,1-2.257-2.257,2.257,2.257,0,0,1,2.257,2.257" transform="translate(-21.729 -15.968)" fill="#f8cd20"/>
            <path id="Trazado_872926" data-name="Trazado 872926" d="M120.328,66.087a2.257,2.257,0,1,1-2.257-2.257,2.258,2.258,0,0,1,2.257,2.257" transform="translate(-28.972 -15.968)" fill="#f8cd20"/>
            <path id="Trazado_872927" data-name="Trazado 872927" d="M149.281,66.087a2.257,2.257,0,1,1-2.257-2.257,2.257,2.257,0,0,1,2.257,2.257" transform="translate(-36.215 -15.968)" fill="#f8cd20"/>
            <path id="Trazado_872928" data-name="Trazado 872928" d="M4.514,98a2.257,2.257,0,1,1-2.257-2.257A2.257,2.257,0,0,1,4.514,98" transform="translate(0 -23.951)" fill="#f8cd20"/>
            <path id="Trazado_872929" data-name="Trazado 872929" d="M33.468,98a2.257,2.257,0,1,1-2.257-2.257A2.257,2.257,0,0,1,33.468,98" transform="translate(-7.243 -23.951)" fill="#f8cd20"/>
            <path id="Trazado_872930" data-name="Trazado 872930" d="M62.421,98a2.257,2.257,0,1,1-2.257-2.257A2.257,2.257,0,0,1,62.421,98" transform="translate(-14.486 -23.951)" fill="#f8cd20"/>
            <path id="Trazado_872931" data-name="Trazado 872931" d="M91.374,98a2.257,2.257,0,1,1-2.257-2.257A2.257,2.257,0,0,1,91.374,98" transform="translate(-21.729 -23.951)" fill="#f8cd20"/>
            <path id="Trazado_872932" data-name="Trazado 872932" d="M120.328,98a2.257,2.257,0,1,1-2.257-2.257A2.258,2.258,0,0,1,120.328,98" transform="translate(-28.972 -23.951)" fill="#f8cd20"/>
            <path id="Trazado_872933" data-name="Trazado 872933" d="M149.281,98a2.257,2.257,0,1,1-2.257-2.257A2.257,2.257,0,0,1,149.281,98" transform="translate(-36.215 -23.951)" fill="#f8cd20"/>
            <path id="Trazado_872934" data-name="Trazado 872934" d="M4.514,129.917a2.257,2.257,0,1,1-2.257-2.257,2.257,2.257,0,0,1,2.257,2.257" transform="translate(0 -31.935)" fill="#f8cd20"/>
            <path id="Trazado_872935" data-name="Trazado 872935" d="M33.468,129.917a2.257,2.257,0,1,1-2.257-2.257,2.257,2.257,0,0,1,2.257,2.257" transform="translate(-7.243 -31.935)" fill="#f8cd20"/>
            <path id="Trazado_872936" data-name="Trazado 872936" d="M62.421,129.917a2.257,2.257,0,1,1-2.257-2.257,2.257,2.257,0,0,1,2.257,2.257" transform="translate(-14.486 -31.935)" fill="#f8cd20"/>
            <path id="Trazado_872937" data-name="Trazado 872937" d="M91.374,129.917a2.257,2.257,0,1,1-2.257-2.257,2.257,2.257,0,0,1,2.257,2.257" transform="translate(-21.729 -31.935)" fill="#f8cd20"/>
            <path id="Trazado_872938" data-name="Trazado 872938" d="M120.328,129.917a2.257,2.257,0,1,1-2.257-2.257,2.258,2.258,0,0,1,2.257,2.257" transform="translate(-28.972 -31.935)" fill="#f8cd20"/>
            <path id="Trazado_872939" data-name="Trazado 872939" d="M149.281,129.917a2.257,2.257,0,1,1-2.257-2.257,2.257,2.257,0,0,1,2.257,2.257" transform="translate(-36.215 -31.935)" fill="#f8cd20"/>
          </g>
        </g>
      </g>
      <g id="Grupo_1102387" data-name="Grupo 1102387" transform="translate(180 2491.848)">
        <g id="Grupo_1102386" data-name="Grupo 1102386" clip-path="url(#clip-path-2)">
          <g id="Grupo_1102385" data-name="Grupo 1102385" transform="translate(0 0)">
            <g id="Grupo_1102384" data-name="Grupo 1102384" clip-path="url(#clip-path-3)">
              <path id="Trazado_886348" data-name="Trazado 886348" d="M475.3,299.248H190.113a10.3,10.3,0,0,1-10.295-10.295V11.546A10.3,10.3,0,0,1,190.113,1.251H475.3A10.3,10.3,0,0,1,485.6,11.546V288.953A10.3,10.3,0,0,1,475.3,299.248" transform="translate(-119.725 -0.833)" fill="#fcded3"/>
              <path id="Trazado_886349" data-name="Trazado 886349" d="M474.472,298.833H189.281a10.725,10.725,0,0,1-10.712-10.713V10.713A10.724,10.724,0,0,1,189.281,0H474.472a10.725,10.725,0,0,1,10.713,10.712V288.121a10.725,10.725,0,0,1-10.713,10.713M189.281.836a9.888,9.888,0,0,0-9.877,9.877V288.121A9.888,9.888,0,0,0,189.281,298H474.472a9.889,9.889,0,0,0,9.877-9.877V10.713A9.888,9.888,0,0,0,474.472.836Z" transform="translate(-118.894 -0.001)" fill="#cbcbff"/>
              <rect id="Rectángulo_403544" data-name="Rectángulo 403544" width="65.166" height="4.755" transform="translate(265.617 35.136)" fill="#c3471c"/>
              <rect id="Rectángulo_403545" data-name="Rectángulo 403545" width="103.829" height="4.755" transform="translate(245.149 55.605)" fill="#fabca7"/>
              <rect id="Rectángulo_403546" data-name="Rectángulo 403546" width="93.516" height="4.755" transform="translate(245.149 69.669)" fill="#fabca7"/>
              <rect id="Rectángulo_403547" data-name="Rectángulo 403547" width="82.776" height="4.755" transform="translate(245.148 83.732)" fill="#fabca7"/>
              <rect id="Rectángulo_403548" data-name="Rectángulo 403548" width="103.829" height="4.755" transform="translate(245.149 97.796)" fill="#fabca7"/>
              <rect id="Rectángulo_403549" data-name="Rectángulo 403549" width="76.643" height="4.755" transform="translate(245.149 111.86)" fill="#fabca7"/>
              <rect id="Rectángulo_403550" data-name="Rectángulo 403550" width="99.651" height="4.755" transform="translate(82.135 189.001)" fill="#f35923"/>
              <rect id="Rectángulo_403551" data-name="Rectángulo 403551" width="257.66" height="4.755" transform="translate(82.421 201.951)" fill="#f35923"/>
              <rect id="Rectángulo_403552" data-name="Rectángulo 403552" width="120.003" height="127" transform="translate(82.291 35.136)" fill="#fff"/>
              <rect id="Rectángulo_403553" data-name="Rectángulo 403553" width="8.343" height="29.207" transform="translate(93.143 119.03)" fill="#fabca7"/>
              <rect id="Rectángulo_403554" data-name="Rectángulo 403554" width="8.343" height="25.09" transform="translate(108.136 123.147)" fill="#e0e0ff"/>
              <rect id="Rectángulo_403555" data-name="Rectángulo 403555" width="8.343" height="41.003" transform="translate(123.129 107.235)" fill="#fabca7"/>
              <rect id="Rectángulo_403556" data-name="Rectángulo 403556" width="8.343" height="38.067" transform="translate(138.121 110.171)" fill="#fcded3"/>
              <rect id="Rectángulo_403557" data-name="Rectángulo 403557" width="8.343" height="51.206" transform="translate(153.114 97.031)" fill="#fabca7"/>
              <rect id="Rectángulo_403558" data-name="Rectángulo 403558" width="8.343" height="58.305" transform="translate(168.106 89.932)" fill="#fcded3"/>
              <rect id="Rectángulo_403559" data-name="Rectángulo 403559" width="8.343" height="64.635" transform="translate(183.099 83.602)" fill="#fabca7"/>
              <path id="Trazado_886350" data-name="Trazado 886350" d="M300.31,227.4l-15.756-6.3.3-.752,15.309,6.124,15.6-12.91,14.552.339,43.862-27.086.426.689-44.067,27.212-14.489-.337Z" transform="translate(-189.46 -124.379)" fill="#f35923"/>
              <rect id="Rectángulo_403560" data-name="Rectángulo 403560" width="17.118" height="7.116" transform="translate(91.624 60.297)" fill="#fabca7"/>
              <rect id="Rectángulo_403561" data-name="Rectángulo 403561" width="16.013" height="0.835" transform="translate(114.398 64.378)" fill="#f35923"/>
              <path id="Trazado_886351" data-name="Trazado 886351" d="M937.876,418a18.688,18.688,0,1,1-18.688-18.688A18.688,18.688,0,0,1,937.876,418" transform="translate(-599.565 -265.864)" fill="#fff"/>
              <path id="Trazado_886352" data-name="Trazado 886352" d="M759.84,436.681a18.693,18.693,0,0,1-2.892-37.16,19.061,19.061,0,0,1,2.892-.219,18.69,18.69,0,0,1,0,37.379" transform="translate(-493.47 -265.861)" fill="#fff"/>
              <path id="Trazado_886353" data-name="Trazado 886353" d="M791.308,418l-2.892-18.474a19.1,19.1,0,0,1,2.892-.219,18.609,18.609,0,0,1,13.91,6.222Z" transform="translate(-524.938 -265.861)" fill="#f35923"/>
              <rect id="Rectángulo_403562" data-name="Rectángulo 403562" width="256.449" height="49.292" transform="translate(84.328 224.503)" fill="#fff"/>
              <path id="Trazado_886354" data-name="Trazado 886354" d="M509.779,722.039H252.71V672.12H509.779Zm-256.442-.627H509.152V672.747H253.337Z" transform="translate(-168.258 -447.507)" fill="#b7b7ff"/>
              <rect id="Rectángulo_403563" data-name="Rectángulo 403563" width="256.442" height="0.627" transform="translate(84.766 264.047)" fill="#b7b7ff"/>
              <rect id="Rectángulo_403564" data-name="Rectángulo 403564" width="256.442" height="0.627" transform="translate(84.766 254.189)" fill="#b7b7ff"/>
              <rect id="Rectángulo_403565" data-name="Rectángulo 403565" width="256.442" height="0.627" transform="translate(84.766 244.33)" fill="#b7b7ff"/>
              <rect id="Rectángulo_403566" data-name="Rectángulo 403566" width="256.442" height="0.627" transform="translate(84.766 234.471)" fill="#b7b7ff"/>
              <rect id="Rectángulo_403567" data-name="Rectángulo 403567" width="0.627" height="49.292" transform="translate(298.154 224.926)" fill="#b7b7ff"/>
              <rect id="Rectángulo_403568" data-name="Rectángulo 403568" width="0.627" height="49.292" transform="translate(255.414 224.926)" fill="#b7b7ff"/>
              <rect id="Rectángulo_403569" data-name="Rectángulo 403569" width="0.627" height="49.292" transform="translate(212.674 224.926)" fill="#b7b7ff"/>
              <rect id="Rectángulo_403570" data-name="Rectángulo 403570" width="0.627" height="49.292" transform="translate(169.933 224.926)" fill="#b7b7ff"/>
              <rect id="Rectángulo_403571" data-name="Rectángulo 403571" width="0.627" height="49.292" transform="translate(127.192 224.926)" fill="#b7b7ff"/>
              <path id="Trazado_886355" data-name="Trazado 886355" d="M273.132,729.826c3.728-5.194,4.534-11.882,7.864-17.351,1.625-2.668,3.776-5.314,6.752-6.507,5.13-2.057,6.439,4.564,6.548,8.241.16,5.408-.737,11.277,3.731,15.337a5.919,5.919,0,0,0,5.477,1.626c2.414-.641,3.915-2.852,5.109-4.882,3.42-5.814,5.592-12.478,7.968-18.767,1.2-3.177,2.726-7.246,5.869-9.026,4.48-2.537,4.97,3.077,4.959,6.035-.012,3.242.022,6.484.05,9.726.013,1.558-.307,4.809,1.524,5.677,1.078.511,1.932-.465,2.536-1.249.526-.682.891-1.479,1.416-2.157a2.323,2.323,0,0,1,1.824-1.1c.818-.068,1.21-.077,1.766.676a4.529,4.529,0,0,1,.584,1.5c.644,2.432-.018,5.188,1.361,7.434.767,1.25,2.417,2.5,3.967,2.253,3.13-.495,3.926-5.6,4.3-8.049a80.419,80.419,0,0,1,1.876-9.745c.91-3.225,2.09-7.077,4.542-9.489a4.745,4.745,0,0,1,3.6-1.679c2.017.226,2.649,2.5,3.142,4.135a39.474,39.474,0,0,1,1.777,11.393c0,2.662-.776,5.993,1,8.3a4.06,4.06,0,0,0,4.113,1.56c2.258-.563,2.8-2.755,3.262-4.743a8.359,8.359,0,0,1,.309-1.183c.44-1.12.615-1.251,1.824-1.3,1.331-.055,1.383.257,1.6,1.36a31.624,31.624,0,0,0,.438,3.333c.423,1.39,1.4,2.669,3.009,2.19,1.485-.442,2.279-2.031,2.77-3.373,1.41-3.857,1.279-8.129,1.49-12.166.139-2.674.354-5.547,1.589-7.974.8-1.58,3.177-4.137,5.011-2.471,2.387,2.169,2.155,7.453,2.209,10.37.117,6.259-.933,12.543-.058,18.781.327,2.333.99,5.816,3.578,6.7,3.585,1.222,6.226-2.681,7.178-5.536.758-2.27.931-4.647,1.469-6.964.283-1.218.717-3.444,2.381-2.748,1.434.6,2.026,2.628,3.286,3.545,4.073,2.963,6.566-2.815,7.045-5.943.7-4.571-.021-9.607,1.69-13.98a6.183,6.183,0,0,1,2.128-2.948c2.488-1.639,4.938.628,5.688,2.945a19.333,19.333,0,0,1,.495,5.554c.036,1.98.089,3.959.126,5.939.061,3.271-.233,6.61-.023,9.868a6.886,6.886,0,0,0,2.961,5.607c4.914,3.21,10.658-1.8,13.793-5.312a42.244,42.244,0,0,0,7.8-13.718,37.5,37.5,0,0,1,3.323-7.361c.8-1.246,3.025-4.235,4.85-3.409,1.189.538,1.584,2.688,1.84,3.8a39.613,39.613,0,0,1,.794,5.7c.3,3.634.317,7.278.383,10.921.057,3.085.318,7.738,3.746,8.987,5.354,1.95,7.908-5.717,9.391-9.259,1.228-2.933,2.724-6.913,5.58-8.657,2.428-1.483,4.118.8,5.016,2.84a16.123,16.123,0,0,1,1.332,6.247c.019,1.487-.1,3.348,1.531,4.066,3.553,1.566,6.789-4.311,8.17-6.627,1.259-2.112,2.215-4.325,3.27-6.541,1.325-2.783,5.667-8.1,7.473-2.771.682,2.014.443,4.186.308,6.266-.152,2.359-.321,4.724-.246,7.09.086,2.732.581,8.693,4.7,8.06,2.5-.384,5.071-3.135,6.943-4.7a91.166,91.166,0,0,0,7.785-7.335c.37-.39-.22-.982-.591-.591a91.221,91.221,0,0,1-7.785,7.335,56.737,56.737,0,0,1-4.55,3.536c-2.064,1.391-4.083.76-4.908-1.369-1.617-4.179-.632-9.349-.415-13.7.129-2.586-.2-8.505-4.158-7.787-2.374.43-4.012,2.99-5,4.964-1.125,2.239-2.046,4.543-3.311,6.714-1.255,2.152-2.7,4.715-4.793,6.161-1.577,1.09-3.424.574-3.6-1.545-.081-.967.023-1.929-.091-2.9-.329-2.8-1.4-7.438-4.433-8.573-4.214-1.576-7.284,5.515-8.483,8.291-1.227,2.841-2.18,6.48-4.449,8.7-1.6,1.563-4.2,2.105-5.833.3-1.2-1.322-1.5-3.406-1.666-5.106-.651-6.6.333-13.427-1.55-19.9-.543-1.867-1.578-4.174-3.889-3.356-3.874,1.371-5.637,6.4-6.957,9.872-2.11,5.543-4.448,10.849-8.56,15.257-2.372,2.543-5.811,5.685-9.522,5.611-4.873-.1-5.48-4.96-5.34-8.687.137-3.644-.007-7.3-.086-10.942-.064-2.937.331-6.435-1.118-9.121a4.912,4.912,0,0,0-4.9-2.716c-1.716.3-2.991,1.92-3.684,3.407-1.865,4-1.372,8.823-1.793,13.1-.241,2.444-.675,6.637-3.536,7.487-3.6,1.07-3.713-4.338-6.74-4.442-3.209-.109-3.236,7.6-3.791,9.626-.685,2.5-1.987,5.487-4.836,6.03-1.763.336-2.937-.773-3.622-2.289-1.556-3.446-1.365-7.788-1.268-11.48.072-2.758.318-5.507.367-8.265.052-2.973.644-15.745-5.027-14.375-3.923.947-4.928,6.014-5.277,9.37-.465,4.473-.072,9.055-1.348,13.424a6.33,6.33,0,0,1-1.723,3.219c-.99.8-2.172.117-2.659-.919a6.963,6.963,0,0,1-.38-2.336c-.11-1.272-.27-3.164-1.687-3.7-1.638-.617-2.981,1.057-3.474,2.4-.611,1.666-.411,3.858-2.1,4.961s-3.692.064-4.511-1.576c-.854-1.709-.545-3.789-.462-5.627a34.952,34.952,0,0,0-.211-5.587,33.378,33.378,0,0,0-2.245-9.508c-1.784-4.017-5.759-2.949-8.124-.063-4.016,4.9-5.026,12.348-5.9,18.392a19.254,19.254,0,0,1-1.515,5.724c-.444.909-1.083,1.984-2.165,2.167-1.809.307-3.306-1.78-3.7-3.262-.646-2.411-.036-10.963-5.056-8.337-1.558.815-1.707,2.76-3.036,3.738-2.078,1.529-2.205-1.851-2.22-3.16-.022-1.963-.034-3.926-.051-5.889a71.372,71.372,0,0,0-.143-8c-.205-1.674-.716-3.625-2.444-4.315-4.678-1.868-8.169,5.683-9.424,8.848-2.662,6.713-4.795,13.888-8.54,20.1-2.056,3.41-5.563,5.965-9.085,2.773-2.517-2.281-3.443-5.631-3.509-8.913-.086-4.266,1.192-12.89-3.922-15.108-4.456-1.933-9.179,4.214-11.064,7.375-3.22,5.4-4.053,12-7.712,17.095-.314.437.41.855.721.422" transform="translate(-181.323 -463.412)" fill="#9192ff"/>
              <path id="Trazado_886356" data-name="Trazado 886356" d="M1209.671,113.155a31.776,31.776,0,0,0-17.826,58.08l-1.22,14.638,11.926-9.979a31.773,31.773,0,1,0,7.12-62.738" transform="translate(-784.259 -75.34)" fill="#fff" stroke="#c3471c" stroke-width="1"/>
              <rect id="Rectángulo_403572" data-name="Rectángulo 403572" width="9.448" height="9.805" transform="translate(421.372 76.274)" fill="#fff"/>
              <path id="Trazado_886358" data-name="Trazado 886358" d="M1269.921,237.629h-10.283v-10.64h10.283Zm-9.448-.835h8.612v-8.969h-8.612Z" transform="translate(-838.684 -151.133)" fill="#c3471c"/>
              <path id="Trazado_886359" data-name="Trazado 886359" d="M1267.416,192.695a7.666,7.666,0,1,0-14.312,3.813,13.529,13.529,0,0,1,1.923,6.745V205h9.448v-1.812a13.254,13.254,0,0,1,1.908-6.65,7.608,7.608,0,0,0,1.033-3.838" transform="translate(-833.655 -123.195)" fill="#fff"/>
              <path id="Trazado_886360" data-name="Trazado 886360" d="M1264.06,204.581h-10.283V202.42a13.019,13.019,0,0,0-1.867-6.536,8.057,8.057,0,0,1-1.074-4.123,8.186,8.186,0,0,1,7.7-7.974,8.079,8.079,0,0,1,7.374,12.123,12.747,12.747,0,0,0-1.851,6.44Zm-9.448-.835h8.612v-1.394a13.563,13.563,0,0,1,1.965-6.861,7.245,7.245,0,0,0-6.614-10.868,7.339,7.339,0,0,0-6.9,7.149,7.225,7.225,0,0,0,.962,3.7,13.835,13.835,0,0,1,1.979,6.953Z" transform="translate(-832.823 -122.363)" fill="#c3471c"/>
              <path id="Trazado_886361" data-name="Trazado 886361" d="M1264.366,200.217a1.462,1.462,0,1,1-.074-2.339,1.689,1.689,0,0,1,.074,2.339" transform="translate(-840.019 -131.618)" fill="#fff"/>
              <path id="Trazado_886362" data-name="Trazado 886362" d="M1261.964,200.731a1.538,1.538,0,0,1-.894-.277,1.655,1.655,0,0,1-.675-1.347,2.752,2.752,0,0,1,1.808-2.577,1.588,1.588,0,0,1,2.173,1.524,2.753,2.753,0,0,1-1.808,2.577,1.931,1.931,0,0,1-.6.1m.837-3.465a1.087,1.087,0,0,0-.34.058,1.921,1.921,0,0,0-1.233,1.757.76.76,0,0,0,1.079.756,1.794,1.794,0,0,0,.884-.69,1.818,1.818,0,0,0,.349-1.066.843.843,0,0,0-.321-.69.72.72,0,0,0-.418-.124" transform="translate(-839.187 -130.787)" fill="#c3471c"/>
              <rect id="Rectángulo_403573" data-name="Rectángulo 403573" width="0.835" height="6.076" transform="matrix(0.622, -0.783, 0.783, 0.622, 410.861, 56.724)" fill="#c3471c"/>
              <rect id="Rectángulo_403574" data-name="Rectángulo 403574" width="0.836" height="8.158" transform="matrix(0.999, -0.032, 0.032, 0.999, 424.965, 48.121)" fill="#c3471c"/>
              <rect id="Rectángulo_403575" data-name="Rectángulo 403575" width="6.877" height="0.835" transform="matrix(0.717, -0.697, 0.697, 0.717, 434.915, 59.223)" fill="#c3471c"/>
              <path id="Trazado_886363" data-name="Trazado 886363" d="M261.253,1124.856c-5.046.075-12.281.192-16.96.259.05-2.264.134-4.52.234-6.583.226-5.146.518-9.123.518-9.123l14.462-.1s-.067,1.437,0,3.592a46.077,46.077,0,0,0,1.746,11.956" transform="translate(-162.654 -738.593)" fill="#ffbc96"/>
              <path id="Trazado_886364" data-name="Trazado 886364" d="M266.732,1162.9c-2.774-.859-4.511-3.692-5.6-7.074-5.05.078-12.284.191-16.967.261a87.057,87.057,0,0,0,.432,13.7,2.705,2.705,0,0,0,2.665,2.263h24.853a3.5,3.5,0,0,0,3.563-3.709c-.251-2.411-3.095-3.631-8.949-5.443" transform="translate(-162.531 -769.565)" fill="#1b1b43"/>
              <path id="Trazado_886365" data-name="Trazado 886365" d="M259.973,1112.9l-14.98,5.631c.226-5.146.518-9.123.518-9.123l14.462-.1s-.067,1.437,0,3.592" transform="translate(-163.12 -738.593)" fill="#d28572"/>
              <path id="Trazado_886366" data-name="Trazado 886366" d="M252.115,1190.162c-.53-2.518-1.584-4.269-3.133-5.2a5.95,5.95,0,0,0-4.28-.607l-.231-.8a6.678,6.678,0,0,1,4.932.688c1.762,1.058,2.949,2.994,3.53,5.754Z" transform="translate(-162.772 -787.892)" fill="#656590"/>
              <path id="Trazado_886367" data-name="Trazado 886367" d="M33.277,1091.187a61.306,61.306,0,0,0-2.757,8.313,36.415,36.415,0,0,0-1.111,6.843c-4.754-1.713-11.554-4.169-15.966-5.765,2.047-5.03,4.236-9.959,5.414-12.549l.033-.067c.51-1.136.819-1.8.819-1.8Z" transform="translate(-8.951 -723.179)" fill="#ffbc96"/>
              <path id="Trazado_886368" data-name="Trazado 886368" d="M23.19,1143.677c-2.291-1.785-2.912-5.05-2.732-8.6-4.75-1.714-11.556-4.17-15.961-5.761a87,87,0,0,0-4.445,12.968,2.7,2.7,0,0,0,1.692,3.06l23.245,8.8a3.5,3.5,0,0,0,4.645-2.208c.619-2.344-1.609-4.491-6.444-8.258" transform="translate(0 -751.916)" fill="#1b1b43"/>
              <path id="Trazado_886369" data-name="Trazado 886369" d="M43.148,1091.187a61.306,61.306,0,0,0-2.757,8.313l-12.123-10.2.46-1.27.033-.067c.51-1.136.819-1.8.819-1.8Z" transform="translate(-18.821 -723.179)" fill="#d28572"/>
              <path id="Trazado_886370" data-name="Trazado 886370" d="M9.672,1160.871l-.741-.387a6.407,6.407,0,0,0-2.608-9.044l.387-.741c.065.034,6.456,3.473,2.962,10.172" transform="translate(-4.21 -766.151)" fill="#656590"/>
              <path id="Trazado_886371" data-name="Trazado 886371" d="M202.041,756.854l-26.593,2.089-5.573-94.967-8.238-31.221L150.86,591.925l-.56-2.13-2.6-9.842-.384-1.47,5.088-.459,27.5-2.465,1.663,7.519v.008l16.467,74.465a40.6,40.6,0,0,1,.936,7.377Z" transform="translate(-98.086 -383.215)" fill="#013f20"/>
              <path id="Trazado_886372" data-name="Trazado 886372" d="M76.364,617.451,74.25,638.58l-3.425,34.2a47.939,47.939,0,0,1-2.615,11.538L39.879,762.68l-23.811-9.19,22.14-80.2c5.706-33.018,4.762-58.357,6.233-74.432.092-1,.192-1.963.3-2.891.593-4.921,1.512-8.823,3.075-11.655l12.5,1.47,8.806,1.036,1.913,8.1.384,1.638Z" transform="translate(-10.698 -389.041)" fill="#013f20"/>
              <g id="Grupo_1102365" data-name="Grupo 1102365" transform="translate(33.742 192.343)" opacity="0.6">
                <g id="Grupo_1102364" data-name="Grupo 1102364">
                  <g id="Grupo_1102363" data-name="Grupo 1102363" clip-path="url(#clip-path-4)">
                    <path id="Trazado_886373" data-name="Trazado 886373" d="M150.7,583.077l.287,3.2s-37.317,10.026-50.022,6.748c.092-1,.192-1.963.3-2.891.593-4.921,1.512-8.823,3.075-11.655l12.5,1.47-.384-1.47,5.088-.459,27.5-2.465Z" transform="translate(-100.968 -575.558)" fill="#1b1b43"/>
                  </g>
                </g>
              </g>
              <path id="Trazado_886374" data-name="Trazado 886374" d="M168.385,735.211,155.91,685.933l-10.223-3.271.255-.8,10.664,3.413.057.225,12.532,49.5Z" transform="translate(-97 -453.996)" fill="#1b1b43"/>
              <path id="Trazado_886375" data-name="Trazado 886375" d="M270.3,836.928l-.294-.782a58.512,58.512,0,0,0,10.155-4.764l.453.7a58.052,58.052,0,0,1-10.314,4.844" transform="translate(-179.772 -553.546)" fill="#1b1b43"/>
              <path id="Trazado_886376" data-name="Trazado 886376" d="M150.219,866.842a91.414,91.414,0,0,1-12.6-2.309l.216-.808a90.655,90.655,0,0,0,12.466,2.286Z" transform="translate(-91.63 -575.08)" fill="#1b1b43"/>
              <rect id="Rectángulo_403577" data-name="Rectángulo 403577" width="0.836" height="25.816" transform="translate(7.314 358.019) rotate(-69.805)" fill="#1b1b43"/>
              <rect id="Rectángulo_403578" data-name="Rectángulo 403578" width="26.593" height="0.836" transform="matrix(0.998, -0.07, 0.07, 0.998, 76.981, 368.414)" fill="#1b1b43"/>
              <path id="Trazado_886377" data-name="Trazado 886377" d="M84.03,403.474l-11.3,4.549a13.293,13.293,0,0,0-7.281,7.16l-9.486,22.7A11.31,11.31,0,0,0,70.3,452.86l8.02-2.949Z" transform="translate(-36.678 -268.639)" fill="#923615"/>
              <path id="Trazado_886378" data-name="Trazado 886378" d="M367.948,341.315c-2.112,1.044-4.548,5.487-3.624,7.085.758,1.31,2.521-.463,3.1-1.071,1.069-1.117,3.828-4.1,2.3-5.795a1.383,1.383,0,0,0-1.784-.22" transform="translate(-242.438 -227.105)" fill="#ffbc96"/>
              <path id="Trazado_886379" data-name="Trazado 886379" d="M355.981,345.592c-1.753,1.574-2.9,6.509-1.582,7.8,1.082,1.057,2.3-1.125,2.7-1.867.729-1.363,2.583-4.979.659-6.2a1.382,1.382,0,0,0-1.778.268" transform="translate(-235.582 -229.777)" fill="#ffbc96"/>
              <path id="Trazado_886380" data-name="Trazado 886380" d="M345.609,353.021c-1.771,1.52-3.018,6.189-1.737,7.374,1.049.972,2.307-1.108,2.716-1.816.752-1.3,2.667-4.742.788-5.85a1.445,1.445,0,0,0-1.767.291" transform="translate(-228.605 -234.727)" fill="#ffbc96"/>
              <path id="Trazado_886381" data-name="Trazado 886381" d="M335.934,356.478c-1.771,1.52-3.018,6.189-1.737,7.374,1.049.971,2.306-1.108,2.716-1.816.752-1.3,2.667-4.742.788-5.85a1.445,1.445,0,0,0-1.766.291" transform="translate(-222.163 -237.028)" fill="#ffbc96"/>
              <g id="Grupo_1102368" data-name="Grupo 1102368" transform="translate(46.123 133.338)" opacity="0.2">
                <g id="Grupo_1102367" data-name="Grupo 1102367">
                  <g id="Grupo_1102366" data-name="Grupo 1102366" clip-path="url(#clip-path-5)">
                    <path id="Trazado_886383" data-name="Trazado 886383" d="M158.983,400.98c-2.089,3.655-26.672,7.413-19.738-.487l7.1-1.5Z" transform="translate(-138.016 -398.996)" fill="#1b1b43"/>
                  </g>
                </g>
              </g>
              <path id="Trazado_886386" data-name="Trazado 886386" d="M201.344,308.347l2.963,4.1a1.286,1.286,0,0,1-.651,1.966l-3.162,1.22-2.232-4.954Z" transform="translate(-132.006 -205.302)" fill="#d28572"/>
              <path id="Trazado_886387" data-name="Trazado 886387" d="M150.168,345.646a125.091,125.091,0,0,0,.443-15.089l13.5.977a40.383,40.383,0,0,0-.075,4.62,61.983,61.983,0,0,0,.752,7.377c.209,1.328.451,2.632.71,3.885Z" transform="translate(-99.984 -220.09)" fill="#ffbc96"/>
              <path id="Trazado_886388" data-name="Trazado 886388" d="M178.155,354.485a15.664,15.664,0,0,1-7.912-7.477l7.16.1a61.979,61.979,0,0,0,.752,7.377" transform="translate(-113.35 -231.043)" fill="#d28572"/>
              <path id="Trazado_886389" data-name="Trazado 886389" d="M144.523,375.7l-2.83,9.283a49.453,49.453,0,0,0,19.981.488l-1.817-8Z" transform="translate(-94.341 -250.144)" fill="#fff5e8"/>
              <path id="Trazado_886390" data-name="Trazado 886390" d="M165.7,283.48l1.4,18.68a2.574,2.574,0,0,1-1.053,2.176,6.093,6.093,0,0,1-4.425,1.542l-9.566-.4-6.823-7.658,5.291-16.292,9.608-.139Z" transform="translate(-96.699 -187.354)" fill="#ffbc96"/>
              <path id="Trazado_886391" data-name="Trazado 886391" d="M134.948,281.683s2.506,7.832-2.82,11.8c-5.744-1.88-16.4-19.32-3.133-24.855,0,0,3.655-9.294,13.576-5.848,8.757,3.042,11.07,8.355,11.07,8.355a12.391,12.391,0,0,1-13.367.313s.731,9.294-5.326,10.234" transform="translate(-81.644 -174.453)" fill="#1b1b43"/>
              <path id="Trazado_886392" data-name="Trazado 886392" d="M155.313,307.76a4.092,4.092,0,1,1-5.992-.939,4.3,4.3,0,0,1,5.992.939" transform="translate(-98.474 -203.729)" fill="#ffbc96"/>
              <path id="Trazado_886393" data-name="Trazado 886393" d="M157.863,317.75c-.034-.136-.868-3.321-3.111-2.834l-.132-.613c2.268-.491,3.513,1.94,3.851,3.294Z" transform="translate(-102.948 -209.225)" fill="#1b1b43"/>
              <g id="Grupo_1102371" data-name="Grupo 1102371" transform="translate(61.346 105.037)" opacity="0.4">
                <g id="Grupo_1102370" data-name="Grupo 1102370">
                  <g id="Grupo_1102369" data-name="Grupo 1102369" clip-path="url(#clip-path-6)">
                    <path id="Trazado_886394" data-name="Trazado 886394" d="M189.138,317.093a2.785,2.785,0,1,1-2.785-2.785,2.785,2.785,0,0,1,2.785,2.785" transform="translate(-183.568 -314.308)" fill="#fe5b52"/>
                  </g>
                </g>
              </g>
              <path id="Trazado_886395" data-name="Trazado 886395" d="M96.592,513.226c-2.535-.6-3.968-1.545-4.384-2.876-.675-2.17,1.565-4.655,3.541-6.847.308-.342.607-.673.88-.988a4.847,4.847,0,0,0,1.089-2.165c1.832-8.685-1.2-35.728-1.235-36l.83-.094c.127,1.116,3.083,27.45,1.223,36.267a5.687,5.687,0,0,1-1.275,2.54c-.277.319-.578.654-.89,1-1.736,1.927-3.9,4.324-3.364,6.039.315,1.013,1.586,1.79,3.779,2.312Z" transform="translate(-61.312 -309.108)" fill="#1b1b43"/>
              <path id="Trazado_886396" data-name="Trazado 886396" d="M248.037,531.708l-.037-.834c2.854-.127,4.6-.809,5.048-1.97s-.372-2.918-2.26-4.79a3.612,3.612,0,0,1-.974-1.789c-1.5-6.752-3.1-29.072-3.117-29.3l.833-.059c.016.224,1.611,22.482,3.1,29.174a2.775,2.775,0,0,0,.746,1.377c2.166,2.148,3.037,4.167,2.451,5.683s-2.533,2.36-5.79,2.5" transform="translate(-164.254 -328.226)" fill="#1b1b43"/>
              <path id="Trazado_886397" data-name="Trazado 886397" d="M290.071,444.385l-.751-.367,10.374-21.2L314.6,424.85l-.113.828-14.309-1.951Z" transform="translate(-192.633 -281.518)" fill="#1b1b43"/>
              <path id="Trazado_886398" data-name="Trazado 886398" d="M1034.856,300.512c-4.943-2.994-6.057-11.557-1.462-14.133s7.519-.278,7.519-.278,15.413-5.622,21.235,8.7c4.386,10.791.9,16.431,4.734,21.861,4.364,6.188,11.349,11.766,2.228,22.627l-21.3-5.222-5.57-26.248Z" transform="translate(-686.11 -189.766)" fill="#1b1b43"/>
              <path id="Trazado_886399" data-name="Trazado 886399" d="M1232.983,1051.3l-15.665,6.893s2.251,5.816,4.177,12.582l16.109-5.146Z" transform="translate(-810.507 -699.967)" fill="#ffbc96"/>
              <path id="Trazado_886400" data-name="Trazado 886400" d="M1235.155,1094.171l-16.108,5.146c2.206,7.75,3.987,16.746,1.47,19.68-3.273,3.817-6.129,6.972-6.813,9.625a1.865,1.865,0,0,0,2.637,2.15l20.812-10.5a7.271,7.271,0,0,0,3.386-9.41Z" transform="translate(-808.058 -728.514)" fill="#1b1b43"/>
              <rect id="Rectángulo_403581" data-name="Rectángulo 403581" width="17.22" height="0.836" transform="translate(412.393 376.159) rotate(-17.369)" fill="#656590"/>
              <path id="Trazado_886401" data-name="Trazado 886401" d="M1224.732,1154.845l-.173-.818c3.989-.846,6.31-2.312,6.9-4.354.969-3.36-3.026-7.292-3.067-7.331l.582-.6c.179.174,4.395,4.325,3.287,8.161-.682,2.363-3.216,4.025-7.53,4.94" transform="translate(-815.328 -760.189)" fill="#656590"/>
              <path id="Trazado_886402" data-name="Trazado 886402" d="M1046.915,1096.808l-18.1,1.671a92.64,92.64,0,0,1-.086,12.875l17.412-.256Z" transform="translate(-684.941 -730.27)" fill="#ffbc96"/>
              <path id="Trazado_886403" data-name="Trazado 886403" d="M996.083,1139.825c-.492,5.709-1.788,11.438-4.927,12.746-6.684,2.785-11.975,4.734-11.418,8.633h25.7a7.271,7.271,0,0,0,7.261-6.877l.8-14.758Z" transform="translate(-652.296 -758.741)" fill="#1b1b43"/>
              <rect id="Rectángulo_403582" data-name="Rectángulo 403582" width="0.836" height="16.712" transform="translate(343.866 385.893) rotate(-89.046)" fill="#656590"/>
              <path id="Trazado_886404" data-name="Trazado 886404" d="M1004.985,1173.519a18.143,18.143,0,0,1-3.878-.493l.183-.816c3.662.819,6.153.566,7.194-.727,1.386-1.722-.027-4.82-.041-4.85l.757-.352c.068.147,1.643,3.6-.066,5.726-.81,1.007-2.2,1.512-4.15,1.512" transform="translate(-666.551 -776.526)" fill="#656590"/>
              <path id="Trazado_886405" data-name="Trazado 886405" d="M1025.448,770.4a5.588,5.588,0,0,1-.6.167c-3.617.836-15.59,0-15.59,0a12.452,12.452,0,0,1-1.554-.443c-11.2-4.077-10.435-23.652-8.756-40.771,1.546-15.7-5.013-95.8-.485-123.022l28.339-6.2.167,4.77.343,9.742.6,17.236s1.069,16.676,2.531,37.571c2.189,31.33,5.264,72.159,6.934,80.514,2.665,13.292-7.4,19.115-11.93,20.435" transform="translate(-663.71 -399.577)" fill="#01532a"/>
              <path id="Trazado_886406" data-name="Trazado 886406" d="M1124,761.238a13.217,13.217,0,0,1-2.063,1.93c-3.81,2.932-8.948,4.01-13.459,5.23a16.9,16.9,0,0,1-2.464.476c-4.2.518-8.789-.443-10.753-4.01-10.059-18.33-21.4-54.715-30.378-87.223-6.567-23.736-11.872-45.416-14.512-56.469-1.161-4.887-1.8-7.695-1.8-7.695l12.841-.384,21.831-.66c.593,2.941,1.27,6.04,2.03,9.257,7.452,31.806,22.132,75.534,27.88,92.26,3.45,10.017,8.672,18.957,10.97,29.45,1.22,5.556,4.06,13.017-.117,17.837" transform="translate(-698.151 -407.767)" fill="#01532a"/>
              <g id="Grupo_1102374" data-name="Grupo 1102374" transform="translate(334.751 200.556)" opacity="0.6">
                <g id="Grupo_1102373" data-name="Grupo 1102373">
                  <g id="Grupo_1102372" data-name="Grupo 1102372" clip-path="url(#clip-path-7)">
                    <path id="Trazado_886407" data-name="Trazado 886407" d="M1054.06,613.5a98.991,98.991,0,0,1-23.518,1.145,79.542,79.542,0,0,1-11.379-1.663c-11.437-2.523-17.469-6.65-17.469-6.65l28.339-6.2.167,4.77,21.831-.66c.593,2.941,1.27,6.04,2.03,9.257" transform="translate(-1001.692 -600.133)" fill="#1b1b43"/>
                  </g>
                </g>
              </g>
              <path id="Trazado_886408" data-name="Trazado 886408" d="M1060.87,738.144l-8.739-30.956-8.989-3.269.285-.785,9.391,3.414.059.207,8.8,31.163Z" transform="translate(-694.538 -468.156)" fill="#1b1b43"/>
              <path id="Trazado_886409" data-name="Trazado 886409" d="M1169.745,766.168l-.725-.417c4.216-7.322-4.236-29.884-14.937-58.45-10.391-27.737-23.323-62.257-28-93.056l.826-.125c4.664,30.712,17.58,65.187,27.957,92.888,10.778,28.771,19.292,51.5,14.879,59.16" transform="translate(-749.761 -408.89)" fill="#1b1b43"/>
              <path id="Trazado_886410" data-name="Trazado 886410" d="M981.966,517.47c-1.011,7.06-2.523,16.283-2.523,16.283h-16.5l4.019-22.081.994-5.489s14.2,3.342,14.83,3.342c.242,0-.192,3.559-.819,7.945" transform="translate(-641.141 -337.024)" fill="#ffbc96"/>
              <path id="Trazado_886411" data-name="Trazado 886411" d="M989.973,517.47l-.752,1.663-14.253-7.461.994-5.489s14.2,3.342,14.829,3.342c.242,0-.192,3.559-.819,7.945" transform="translate(-649.147 -337.024)" fill="#d28572"/>
              <path id="Trazado_886412" data-name="Trazado 886412" d="M997.125,475.829s2.715,15.874-2.506,31.33c0,0,25.9,7.937,50.337-2.089l-5.639-35.716,1.88-18.171-37.387.418-12.741,4.177Z" transform="translate(-659.867 -300.404)" fill="#c3471c"/>
              <path id="Trazado_886413" data-name="Trazado 886413" d="M1032.618,421.341a15.635,15.635,0,0,0-10.238-9.8l-7.021-2.12c-2.827,4.116-7.872,9.362-15.236,9.362-8.658,0-14.089-4.971-17.081-9.031l-4.851,1.183a14.174,14.174,0,0,0-10.456,10.588l-5.417,23.508,15.665,2.994.418-17.963,40.729-1.88,1.044,13.367s11.766-5.152,19.564.139Z" transform="translate(-640.725 -272.596)" fill="#c3471c"/>
              <path id="Trazado_886414" data-name="Trazado 886414" d="M1163.827,413.776c-2.256,4.411-5.288,23.535-6.684,38.431a24.345,24.345,0,0,1-3.785,11.571c-2.841,4.161-6.868,6.049-10.778,5.631a10.639,10.639,0,0,1-4.378-1.47c-6.725-3.985-5.865-21.012-5.113-28.673.234-2.306.451-3.768.451-3.768,3.969-2.189,10.235-2.506,10.235-2.506.083-.86.184-1.729.284-2.623.852-7.695,2.147-16.425,3.267-22.232,1.253-6.475,3.76-4.069,3.76-4.069,1.253-2.306,3.133-.317,3.133-.317,1.671-3.659,3.76-.209,3.76-.209,2.607-3.76,4.035,1.88,4.035,1.88s8.1-6.667,9.474-4.737c.693.978-4.461,6.826-7.661,13.092" transform="translate(-754.092 -266.548)" fill="#ffbc96"/>
              <rect id="Rectángulo_403584" data-name="Rectángulo 403584" width="35.09" height="4.213" transform="translate(310.524 192.516)" fill="#fff"/>
              <path id="Trazado_886415" data-name="Trazado 886415" d="M865.613,518.319H829.419a4.46,4.46,0,0,1-4.051-2.594l-14.094-30.6a1.535,1.535,0,0,1,1.394-2.178h33.948a4.224,4.224,0,0,1,3.837,2.457Z" transform="translate(-540.062 -321.552)" fill="#013f20"/>
              <path id="Trazado_886416" data-name="Trazado 886416" d="M932.1,579.347a17.745,17.745,0,0,1-1.838,4.5c-1.938,3.275-5.046,5.522-9.833,6.124a24.222,24.222,0,0,1-5.522.025c-16.584-1.646-21.38-10.719-21.38-10.719s-1.846-3.851,2.072-2.966c0,0,.735-2.448,3.76.109,0,0-.359-3.033,2.615-.259,0,0-.418-3.083,2.816-.418a14.242,14.242,0,0,0,9.666,3.6c3.91.159,17.645,0,17.645,0" transform="translate(-594.633 -382.617)" fill="#ffbc96"/>
              <rect id="Rectángulo_403585" data-name="Rectángulo 403585" width="0.835" height="17.993" transform="translate(335.797 157.487) rotate(-3.327)" fill="#923615"/>
              <path id="Trazado_886417" data-name="Trazado 886417" d="M1043.84,446.107a23.557,23.557,0,0,1-5.181-.568,20.242,20.242,0,0,1-7.972-3.567l.533-.643c.114.093,11.4,9.153,27.646-.593l.429.716a29.844,29.844,0,0,1-15.456,4.655" transform="translate(-686.245 -293.448)" fill="#923615"/>
              <rect id="Rectángulo_403586" data-name="Rectángulo 403586" width="0.836" height="8.239" transform="translate(378.406 160.766) rotate(-4.361)" fill="#923615"/>
              <path id="Trazado_886418" data-name="Trazado 886418" d="M1084.742,495.181a5.239,5.239,0,0,1-5.224-4.67l-.671-5.955,11.488-.756-.341,6.4a5.274,5.274,0,0,1-5.169,4.978h-.084m-4.966-9.848.573,5.085a4.423,4.423,0,0,0,8.812-.259l.291-5.462Z" transform="translate(-718.311 -322.122)" fill="#923615"/>
              <rect id="Rectángulo_403587" data-name="Rectángulo 403587" width="21.204" height="0.836" transform="translate(386.203 187.41) rotate(-81.863)" fill="#d28572"/>
              <rect id="Rectángulo_403588" data-name="Rectángulo 403588" width="0.627" height="3.503" transform="matrix(0.984, -0.179, 0.179, 0.984, 403.579, 137.05)" fill="#d28572"/>
              <rect id="Rectángulo_403589" data-name="Rectángulo 403589" width="0.627" height="3.503" transform="matrix(0.984, -0.179, 0.179, 0.984, 399.819, 137.154)" fill="#d28572"/>
              <rect id="Rectángulo_403590" data-name="Rectángulo 403590" width="0.627" height="3.503" transform="matrix(0.984, -0.179, 0.179, 0.984, 396.686, 137.363)" fill="#d28572"/>
              <rect id="Rectángulo_403591" data-name="Rectángulo 403591" width="0.627" height="5.574" transform="translate(406.761 136.755) rotate(-20.471)" fill="#d28572"/>
              <path id="Trazado_886419" data-name="Trazado 886419" d="M1144.661,498.043l-10.727,6.249c.234-2.306.451-3.768.451-3.768,3.968-2.189,10.276-2.481,10.276-2.481" transform="translate(-754.989 -331.604)" fill="#d28572"/>
              <g id="Grupo_1102377" data-name="Grupo 1102377" transform="translate(388.431 195.543)" opacity="0.4">
                <g id="Grupo_1102376" data-name="Grupo 1102376">
                  <g id="Grupo_1102375" data-name="Grupo 1102375" clip-path="url(#clip-path-8)">
                    <path id="Trazado_886420" data-name="Trazado 886420" d="M1173.154,586.821c-2.841,4.161-6.868,6.049-10.778,5.631a5.657,5.657,0,0,1-.058-.844,6.476,6.476,0,0,1,10.836-4.787" transform="translate(-1162.319 -585.133)" fill="#fe5b52"/>
                  </g>
                </g>
              </g>
              <g id="Grupo_1102380" data-name="Grupo 1102380" transform="translate(325.771 200.28)" opacity="0.4">
                <g id="Grupo_1102379" data-name="Grupo 1102379">
                  <g id="Grupo_1102378" data-name="Grupo 1102378" clip-path="url(#clip-path-9)">
                    <path id="Trazado_886421" data-name="Trazado 886421" d="M984.677,600.26c-1.938,3.275-5.046,5.522-9.833,6.124q-.025-.3-.025-.6a6.478,6.478,0,0,1,9.859-5.522" transform="translate(-974.818 -599.308)" fill="#fe5b52"/>
                  </g>
                </g>
              </g>
              <path id="Trazado_886422" data-name="Trazado 886422" d="M923.247,583.232c-1.651-.323-3.717-2.878-4.41-4.217l.556-.288c.713,1.379,2.661,3.634,3.974,3.89Z" transform="translate(-611.774 -385.324)" fill="#d28572"/>
              <path id="Trazado_886423" data-name="Trazado 886423" d="M913.892,584.126a16.99,16.99,0,0,1-3.212-4.464l.578-.244a16.3,16.3,0,0,0,3.083,4.27Z" transform="translate(-606.343 -385.785)" fill="#d28572"/>
              <path id="Trazado_886424" data-name="Trazado 886424" d="M902.329,583.813a16.99,16.99,0,0,1-3.212-4.464l.578-.244a16.3,16.3,0,0,0,3.083,4.27Z" transform="translate(-598.644 -385.576)" fill="#d28572"/>
              <path id="Trazado_886425" data-name="Trazado 886425" d="M1056.659,361.353c-2.832,4.119-7.878,9.366-15.239,9.366-8.655,0-14.086-4.971-17.077-9.031l8.931-2.181c.217-1.6.4-3.166.551-4.645.117-1.161.217-2.272.309-3.325.151-1.729.251-3.292.334-4.629.109-1.83.159-3.217.184-3.985.017-.443.017-.677.017-.677l12.532-5.013s-.418,16.292,3.342,22.273Z" transform="translate(-682.022 -224.535)" fill="#ffbc96"/>
              <path id="Trazado_886426" data-name="Trazado 886426" d="M1063.516,367.575s-3.353,3.921-10.8,6.561c.116-1.161.217-2.272.309-3.325.151-1.729.251-3.292.334-4.628Z" transform="translate(-700.915 -243.809)" fill="#d28572"/>
              <path id="Trazado_886427" data-name="Trazado 886427" d="M1038.322,304.866s-6.406,17.405-1.81,20.608c4.087,2.848,9.469,3.2,14.76,1.81l3.481-11.836-2.089-11.557Z" transform="translate(-689.019 -202.335)" fill="#ffbc96"/>
              <path id="Trazado_886428" data-name="Trazado 886428" d="M1059.856,311.842s-4.524,1.735-6.406-4.6c-1.531-5.152-8.215-6.127-8.215-6.127l2.716-2.506,12.88-.348,4.734,5.779-1.6,7.519Z" transform="translate(-695.932 -198.59)" fill="#1b1b43"/>
              <path id="Trazado_886429" data-name="Trazado 886429" d="M1090.339,335.527c-1.461,2.531-4.265,3.647-6.263,2.494s-2.433-4.14-.972-6.671,4.266-3.647,6.263-2.493,2.433,4.14.972,6.671" transform="translate(-720.57 -218.654)" fill="#ffbc96"/>
              <path id="Trazado_886430" data-name="Trazado 886430" d="M1089.976,341.514l-.627-.006a4.477,4.477,0,0,1,3.95-4.382l.072.623a3.8,3.8,0,0,0-3.4,3.765" transform="translate(-725.303 -224.463)" fill="#1b1b43"/>
              <path id="Trazado_886431" data-name="Trazado 886431" d="M1041.974,330.646a.714.714,0,1,1-.714-.714.714.714,0,0,1,.714.714" transform="translate(-692.81 -219.674)" fill="#1b1b43"/>
              <path id="Trazado_886432" data-name="Trazado 886432" d="M1055.947,333.309a.864.864,0,1,1-.864-.864.864.864,0,0,1,.864.864" transform="translate(-701.914 -221.347)" fill="#1b1b43"/>
              <path id="Trazado_886433" data-name="Trazado 886433" d="M1042.026,325.034h-2.131a.544.544,0,1,1,0-1.088h2.131a.544.544,0,1,1,0,1.088" transform="translate(-692.013 -215.688)" fill="#1b1b43"/>
              <path id="Trazado_886434" data-name="Trazado 886434" d="M1058.021,327.611l-2.358-1a.544.544,0,0,1,.423-1l2.358,1a.544.544,0,0,1-.424,1" transform="translate(-702.654 -216.769)" fill="#1b1b43"/>
              <path id="Trazado_886435" data-name="Trazado 886435" d="M1040.474,338.617a.312.312,0,0,1-.29-.194,2.326,2.326,0,0,1-.034-2.32,1.9,1.9,0,0,1,1.52-.627l.8-1.545a.313.313,0,1,1,.556.287l-.985,1.914-.214-.023c-.009,0-.832-.083-1.174.373-.248.33-.208.919.114,1.7a.313.313,0,0,1-.171.409.3.3,0,0,1-.119.024" transform="translate(-692.355 -222.223)" fill="#1b1b43"/>
              <path id="Trazado_886436" data-name="Trazado 886436" d="M1042.136,356.435c1.213,1.71,2.749.98,3.8.1a22.112,22.112,0,0,1-3.8-.1" transform="translate(-693.868 -237.32)" fill="#1b1b43"/>
              <path id="Trazado_886437" data-name="Trazado 886437" d="M1044.68,354.092a8.23,8.23,0,0,0,1.167-1.216c.014-.019-.005-.04-.029-.039a33.538,33.538,0,0,1-5.537-.077c-.021,0-.031.021-.024.041a5.672,5.672,0,0,0,.626,1.187,22.077,22.077,0,0,0,3.8.1" transform="translate(-692.616 -234.873)" fill="#fff"/>
              <g id="Grupo_1102383" data-name="Grupo 1102383" transform="translate(355.056 113.618)" opacity="0.4">
                <g id="Grupo_1102382" data-name="Grupo 1102382">
                  <g id="Grupo_1102381" data-name="Grupo 1102381" clip-path="url(#clip-path-10)">
                    <path id="Trazado_886438" data-name="Trazado 886438" d="M1066.818,342.17a2.184,2.184,0,1,1-2.184-2.184,2.184,2.184,0,0,1,2.184,2.184" transform="translate(-1062.449 -339.986)" fill="#fe5b52"/>
                  </g>
                </g>
              </g>
              <g id="Grupo_1102396" data-name="Grupo 1102396" transform="translate(38.675 31.433)">
                <g id="Grupo_1102395" data-name="Grupo 1102395" clip-path="url(#clip-path-11)">
                  <g id="Grupo_1102392" data-name="Grupo 1102392">
                    <g id="Grupo_1102391" data-name="Grupo 1102391" clip-path="url(#clip-path-11)">
                      <path id="Trazado_886439" data-name="Trazado 886439" d="M121.243,171.928l-9.656,5.654L8.928,237.737c-3.159,1.852-6.857,1.415-8.322-.985l0-.007c-1.466-2.4-.164-5.889,2.926-7.853l100.208-63.717,9.642-6.13Z" transform="translate(0 -90.546)" fill="#016835"/>
                      <g id="Grupo_1102390" data-name="Grupo 1102390" transform="translate(103.735 68.499)" opacity="0.6">
                        <g id="Grupo_1102389" data-name="Grupo 1102389">
                          <g id="Grupo_1102388" data-name="Grupo 1102388" clip-path="url(#clip-path-13)">
                            <path id="Trazado_886440" data-name="Trazado 886440" d="M258.368,171.928l-9.656,5.654a30.465,30.465,0,0,1-4.937-6.144,30.923,30.923,0,0,1-2.916-6.263l9.642-6.13Z" transform="translate(-240.859 -159.045)" fill="#1b1b43"/>
                          </g>
                        </g>
                      </g>
                      <path id="Trazado_886441" data-name="Trazado 886441" d="M243.522,188.529a3.23,3.23,0,1,1,1.073-4.44,3.23,3.23,0,0,1-1.073,4.44" transform="translate(-135.843 -103.924)" fill="#fff"/>
                      <path id="Trazado_886442" data-name="Trazado 886442" d="M322.053,94.73a51.106,51.106,0,1,1,16.984-70.25,51.106,51.106,0,0,1-16.984,70.25" transform="translate(-139.087 0)" fill="#016835"/>
                      <path id="Trazado_886443" data-name="Trazado 886443" d="M349.642,63.881a41.454,41.454,0,1,1-41.454-41.454,41.454,41.454,0,0,1,41.454,41.454" transform="translate(-151.856 -12.768)" fill="#fff"/>
                    </g>
                  </g>
                  <g id="Grupo_1102394" data-name="Grupo 1102394" transform="translate(114.879 9.659)">
                    <g id="Grupo_1102393" data-name="Grupo 1102393" clip-path="url(#clip-path-14)">
                      <rect id="Rectángulo_403599" data-name="Rectángulo 403599" width="12.994" height="79.749" transform="translate(11.607 55.465)" fill="#fabca7"/>
                      <rect id="Rectángulo_403600" data-name="Rectángulo 403600" width="12.994" height="90.805" transform="translate(34.957 44.947)" fill="#fcded3"/>
                      <rect id="Rectángulo_403601" data-name="Rectángulo 403601" width="12.994" height="100.663" transform="translate(58.306 33.653)" fill="#fabca7"/>
                      <rect id="Rectángulo_403602" data-name="Rectángulo 403602" width="62.51" height="1.615" transform="translate(-2.757 37.466) rotate(-17.729)" fill="#f35923"/>
                      <path id="Trazado_886444" data-name="Trazado 886444" d="M385.913,69.987,384.6,69.05l3.921-5.506L382.84,61.6l.524-1.528,6.27,2.147a1.106,1.106,0,0,1,.736.748,1.129,1.129,0,0,1-.221,1.068Zm3.19-6.242a.434.434,0,0,0,.052.018Zm-.228-.7a.186.186,0,0,0-.024.034Z" transform="translate(-332.835 -43.86)" fill="#f35923"/>
                    </g>
                  </g>
                </g>
              </g>
              <path id="Trazado_886446" data-name="Trazado 886446" d="M109.67,398.612,97.9,418.84s3.063,33.419.835,37.523-7.241,7.329-4.177,9.674,27.292,6.449,53.47.293c7.24-2.052,2.228-5.863.557-7.622s-3.9-46.025-3.9-46.025l-15.055-13.718-11.123-2.991Z" transform="translate(-62.318 -263.645)" fill="#923615"/>
              <path id="Trazado_886447" data-name="Trazado 886447" d="M233.093,428.744l-9.7-14.388a15.466,15.466,0,0,0-10.127-7.057l-11.781-2.365,6.962,26.108s10.861,15.247,20.678,18.8c8.81,3.187,20.5-2.047,26.939-36.483l-14.608-1.992Z" transform="translate(-134.151 -269.609)" fill="#923615"/>
              <path id="Trazado_886448" data-name="Trazado 886448" d="M343.711,368.884c-1.477-.188-6.544,7.45-6.544,7.45l-8.191,2.789a11.813,11.813,0,0,0-6.837,6.061l-1.047,2.176,14.608,1.992c.241-1.286.476-2.6.7-3.968,5.013-4.526,10.583-16.083,7.31-16.5" transform="translate(-213.787 -245.605)" fill="#ffbc96"/>
            </g>
          </g>
        </g>
      </g>
    </g>
  </g>
</svg>
