<svg xmlns="http://www.w3.org/2000/svg" width="63.224" height="37.794" viewBox="0 0 63.224 37.794">
  <g id="Grupo_1102534" data-name="Grupo 1102534" transform="translate(0 -102.969)">
    <g id="Grupo_1102533" data-name="Grupo 1102533" transform="translate(0 102.969)">
      <path id="Trazado_886911" data-name="Trazado 886911" d="M53.965,112.235a31.614,31.614,0,0,0-28.928-8.574,1.235,1.235,0,0,0,.511,2.416,29.287,29.287,0,0,1,4.829-.606v2.472a26.457,26.457,0,0,0-16.733,6.931L11.9,113.127a29.326,29.326,0,0,1,3.844-2.984,1.235,1.235,0,0,0-1.347-2.07,31.8,31.8,0,0,0-5.135,4.162A31.405,31.405,0,0,0,0,134.588a3.7,3.7,0,0,0,7.2,1.235H8.69a1.235,1.235,0,0,0,0-2.47H7.44a24.321,24.321,0,0,1,.5-3.83l1.215.326a1.235,1.235,0,0,0,.639-2.385l-1.219-.327a23.885,23.885,0,0,1,1.479-3.571l1.093.631a1.235,1.235,0,1,0,1.235-2.139l-1.089-.629a24.325,24.325,0,0,1,2.357-3.06l.884.884a1.235,1.235,0,0,0,1.746-1.746l-.884-.884a24.327,24.327,0,0,1,3.06-2.357l.629,1.09a1.235,1.235,0,0,0,2.139-1.235l-.631-1.093a23.884,23.884,0,0,1,3.57-1.479l.327,1.219a1.235,1.235,0,0,0,2.385-.639l-.326-1.215a24.337,24.337,0,0,1,3.83-.5v1.25a1.235,1.235,0,0,0,2.47,0v-1.25a24.321,24.321,0,0,1,3.83.5l-.326,1.215a1.235,1.235,0,0,0,2.385.639l.327-1.219a23.885,23.885,0,0,1,3.571,1.479L42,114.119a1.235,1.235,0,0,0,2.139,1.235l.629-1.089a24.324,24.324,0,0,1,3.06,2.357l-.884.884a1.235,1.235,0,0,0,1.746,1.746l.884-.884a24.326,24.326,0,0,1,2.357,3.06l-1.089.629A1.235,1.235,0,0,0,52.08,124.2l1.093-.631a23.886,23.886,0,0,1,1.479,3.571l-1.219.327a1.235,1.235,0,0,0,.639,2.385l1.215-.326a24.336,24.336,0,0,1,.5,3.83h-1.25a1.235,1.235,0,0,0,0,2.47h1.493a3.7,3.7,0,0,0,7.2-1.235,31.407,31.407,0,0,0-9.259-22.353Zm-4.385,2.639a26.457,26.457,0,0,0-16.733-6.931v-2.472a28.91,28.91,0,0,1,18.48,7.655ZM3.7,135.823a1.236,1.236,0,0,1-1.235-1.235,28.933,28.933,0,0,1,7.681-19.715L11.9,116.62a26.481,26.481,0,0,0-6.959,17.968A1.236,1.236,0,0,1,3.7,135.823Zm55.815,0a1.236,1.236,0,0,1-1.235-1.235,26.481,26.481,0,0,0-6.959-17.968l1.748-1.748a28.933,28.933,0,0,1,7.681,19.715,1.236,1.236,0,0,1-1.235,1.235Z" transform="translate(0 -102.969)" fill="#f35923"/>
      <path id="Trazado_886912" data-name="Trazado 886912" d="M222.26,218.058a3.709,3.709,0,0,0-5.061,1.356l-5.477,9.486c-7.608,1.125-7,12.077.738,12.3a6.2,6.2,0,0,0,5.678-8.6l5.477-9.487A3.709,3.709,0,0,0,222.26,218.058Zm-9.8,20.677a3.7,3.7,0,1,1,3.7-3.7A3.709,3.709,0,0,1,212.461,238.735Zm9.016-16.852-4.924,8.528a6.177,6.177,0,0,0-2.137-1.238l4.922-8.525a1.235,1.235,0,0,1,2.139,1.235Z" transform="translate(-180.849 -203.412)" fill="#f35923"/>
      <path id="Trazado_886913" data-name="Trazado 886913" d="M153.126,124.16a1.235,1.235,0,0,0,0-2.47h0A1.235,1.235,0,0,0,153.126,124.16Z" transform="translate(-133.141 -119.378)" fill="#f35923"/>
    </g>
  </g>
</svg>
