<svg xmlns="http://www.w3.org/2000/svg" width="101.461" height="101.461" viewBox="0 0 101.461 101.461">
  <g id="Grupo_1100031" data-name="Grupo 1100031" transform="translate(-419 -1121)">
    <path id="Trazado_824488" data-name="Trazado 824488" d="M50.73,0A50.73,50.73,0,1,1,0,50.73,50.73,50.73,0,0,1,50.73,0Z" transform="translate(419 1121)" fill="#016835"/>
    <g id="archivo-pdf_1_" data-name="archivo-pdf (1)" transform="translate(439.391 1138.573)">
      <g id="Grupo_1096603" data-name="Grupo 1096603" transform="translate(0.971 0.971)">
        <g id="Grupo_1096601" data-name="Grupo 1096601">
          <path id="Trazado_842680" data-name="Trazado 842680" d="M77.2,61.269H41.48a3.886,3.886,0,0,1-3.886-3.886v-46A3.886,3.886,0,0,1,41.48,7.5H77.2a3.886,3.886,0,0,1,3.886,3.886v46A3.885,3.885,0,0,1,77.2,61.269Z" transform="translate(-33.696 -7.5)" fill="#f7f6f7"/>
          <path id="Trazado_842681" data-name="Trazado 842681" d="M317.292,7.5h-3.886a3.886,3.886,0,0,1,3.886,3.886v46a3.886,3.886,0,0,1-3.886,3.886h3.886a3.886,3.886,0,0,0,3.886-3.886v-46A3.886,3.886,0,0,0,317.292,7.5Z" transform="translate(-273.784 -7.5)" fill="#e2d8ec"/>
          <path id="Trazado_842682" data-name="Trazado 842682" d="M54.905,241.616H11.386A3.886,3.886,0,0,1,7.5,237.73V206.386a3.886,3.886,0,0,1,3.886-3.886H30.34a3.368,3.368,0,0,1,3.267,2.551l.667,2.67a3.368,3.368,0,0,0,3.267,2.551H54.905a3.886,3.886,0,0,1,3.886,3.886V237.73A3.886,3.886,0,0,1,54.905,241.616Z" transform="translate(-7.5 -177.243)" fill="#f7e07f"/>
          <g id="Grupo_1096600" data-name="Grupo 1096600" transform="translate(18.955 25.257)">
            <path id="Trazado_842683" data-name="Trazado 842683" d="M157.109,205.051l.667,2.67a3.368,3.368,0,0,0,3.267,2.551h3.886a3.368,3.368,0,0,1-3.267-2.551l-.667-2.67a3.368,3.368,0,0,0-3.267-2.551h-3.886A3.368,3.368,0,0,1,157.109,205.051Z" transform="translate(-153.842 -202.5)" fill="#f0d16f"/>
            <path id="Trazado_842684" data-name="Trazado 842684" d="M347.386,262.5H343.5a3.886,3.886,0,0,1,3.886,3.886v23.573a3.886,3.886,0,0,1-3.886,3.886h3.886a3.886,3.886,0,0,0,3.886-3.886V266.386A3.886,3.886,0,0,0,347.386,262.5Z" transform="translate(-318.935 -254.729)" fill="#f0d16f"/>
          </g>
          <path id="Trazado_842685" data-name="Trazado 842685" d="M118.2,58.329h-29a.648.648,0,0,1-.648-.648V53.148A.648.648,0,0,1,89.2,52.5h29a.648.648,0,0,1,.648.648v4.533A.648.648,0,0,1,118.2,58.329Z" transform="translate(-78.051 -46.671)" fill="#e2dfe3"/>
        </g>
        <g id="Grupo_1096602" data-name="Grupo 1096602" transform="translate(40.092 40.092)">
          <path id="Trazado_850923" data-name="Trazado 850923" d="M12.141,0A12.141,12.141,0,1,1,0,12.141,12.141,12.141,0,0,1,12.141,0Z" transform="translate(0 0)" fill="#79cd34"/>
          <path id="Trazado_842686" data-name="Trazado 842686" d="M397.71,317.033a12.235,12.235,0,0,0-1.943.155,12.142,12.142,0,0,1,0,23.97,12.141,12.141,0,1,0,1.943-24.126Z" transform="translate(-385.569 -317.033)" fill="#529918"/>
          <path id="Trazado_842687" data-name="Trazado 842687" d="M372.915,366.457V358.5a.733.733,0,0,1,.733-.733H376.7a.733.733,0,0,1,.733.733v7.954a.733.733,0,0,0,.733.733h1.676a.628.628,0,0,1,.444,1.072l-4.593,4.593a.733.733,0,0,1-1.036,0l-4.593-4.593a.628.628,0,0,1,.444-1.072h1.676A.732.732,0,0,0,372.915,366.457Z" transform="translate(-363.033 -352.494)" fill="#fff"/>
        </g>
      </g>
      <path id="Trazado_842688" data-name="Trazado 842688" d="M41.765,17.486h-30.3a.971.971,0,0,0,0,1.943h30.3a.971.971,0,0,0,0-1.943ZM41.117,5.829H34.69a.971.971,0,1,0,0,1.943h6.1v3.886H12.44V7.771H30.157a.971.971,0,0,0,0-1.943H12.117A1.621,1.621,0,0,0,10.5,7.448v4.533A1.621,1.621,0,0,0,12.117,13.6h29a1.621,1.621,0,0,0,1.619-1.619V7.448a1.621,1.621,0,0,0-1.619-1.619Zm.648,15.543h-30.3a.971.971,0,0,0,0,1.943h30.3a.971.971,0,0,0,0-1.943Zm0,7.771H30.9a.971.971,0,0,0,0,1.943H41.765a.971.971,0,1,0,0-1.943Zm0-3.886H30.9a.971.971,0,0,0,0,1.943H41.765a.971.971,0,1,0,0-1.943ZM53.234,40.092V37.885a4.865,4.865,0,0,0-3.9-4.761V4.857A4.863,4.863,0,0,0,44.479,0H8.754A4.863,4.863,0,0,0,3.9,4.857v20.5A4.865,4.865,0,0,0,0,30.114V43.9a.971.971,0,1,0,1.943,0V30.114A2.917,2.917,0,0,1,4.857,27.2H23.811a2.4,2.4,0,0,1,2.325,1.814l.667,2.671a4.331,4.331,0,0,0,4.209,3.286H48.377a2.917,2.917,0,0,1,2.914,2.914v2.346a13.109,13.109,0,0,0-4.948,24.141H4.857a2.917,2.917,0,0,1-2.914-2.914V48.431a.971.971,0,1,0-1.943,0V61.458a4.863,4.863,0,0,0,4.857,4.857h43.52a4.8,4.8,0,0,0,1.81-.351,13.112,13.112,0,1,0,3.047-25.873Zm-5.84-7.064H31.013a2.392,2.392,0,0,1-2.324-1.814l-.667-2.672a4.335,4.335,0,0,0-4.21-3.286H5.84V4.857A2.917,2.917,0,0,1,8.754,1.943H44.479a2.917,2.917,0,0,1,2.914,2.914ZM53.2,64.373A11.169,11.169,0,1,1,64.373,53.2,11.182,11.182,0,0,1,53.2,64.373Zm4.667-9.586H56.433V47.072a1.706,1.706,0,0,0-1.7-1.7H51.678a1.706,1.706,0,0,0-1.7,1.7v7.715H48.537a1.6,1.6,0,0,0-1.131,2.73L52,62.11a1.706,1.706,0,0,0,2.41,0L59,57.517a1.6,1.6,0,0,0-1.131-2.73ZM53.2,60.568,49.366,56.73h.847a1.706,1.706,0,0,0,1.7-1.7V47.311H54.49v7.715a1.706,1.706,0,0,0,1.7,1.7h.847Zm-15.959-14.2a.971.971,0,0,0,0-1.943H33.752a.971.971,0,0,0-.971.971v8.619a.971.971,0,0,0,1.943,0v-3.42h2.244a.971.971,0,1,0,0-1.943H34.723V46.366ZM24.521,54.985h0c.072,0,1.773-.007,2.452-.019,2.484-.043,4.287-2.216,4.287-5.165,0-3.1-1.758-5.184-4.374-5.184H24.5a.972.972,0,0,0-.971.973v8.287a1.079,1.079,0,0,0,.989,1.108Zm2.369-8.426c1.792,0,2.431,1.674,2.431,3.241,0,2.2-1.194,3.2-2.378,3.223-.333.006-.933.01-1.454.013,0-1-.01-5.442-.012-6.478H26.89Zm-9.93,7.454V51.208c.514,0,1.112-.005,1.446-.005a3.422,3.422,0,1,0,0-6.843H15.989a.982.982,0,0,0-.971.971v8.682a.971.971,0,0,0,1.943,0ZM18.406,46.3a1.48,1.48,0,1,1,0,2.958c-.332,0-.922,0-1.435.005,0-.529-.007-2.41-.009-2.963Z" transform="translate(0)"/>
    </g>
  </g>
</svg>
