<svg xmlns="http://www.w3.org/2000/svg" width="101.461" height="101.461" viewBox="0 0 101.461 101.461">
  <g id="Grupo_1099855" data-name="Grupo 1099855" transform="translate(-419 -1121)">
    <path id="Trazado_824488" data-name="Trazado 824488" d="M50.73,0A50.73,50.73,0,1,1,0,50.73,50.73,50.73,0,0,1,50.73,0Z" transform="translate(419 1121)" fill="#016835"/>
    <g id="Grupo_1102807" data-name="Grupo 1102807" transform="translate(438.938 1149.797)">
      <path id="Trazado_888390" data-name="Trazado 888390" d="M216.835,110.478l-7.444-4.6v18.4l7.444-4.6,7.444-4.6Zm0,0" transform="translate(-184.204 -93.143)" fill="#fff" fill-rule="evenodd"/>
      <path id="Trazado_888391" data-name="Trazado 888391" d="M33.96,21.534l7.444,4.6,7.444,4.6-7.444,4.6-7.444,4.6v-18.4ZM10.435,41.186c.631,6.029,3.051,8.434,7.95,9.2,9.229,1.439,33.132,1.439,42.362,0,4.9-.764,7.319-3.169,7.95-9.2a118.317,118.317,0,0,0,0-20.907c-.631-6.029-3.051-8.434-7.95-9.2-9.23-1.439-33.133-1.439-42.362,0-4.9.764-7.319,3.169-7.95,9.2A118.406,118.406,0,0,0,10.435,41.186Zm0,0" transform="translate(-8.773 -8.799)" fill="red" fill-rule="evenodd"/>
      <path id="Trazado_888392" data-name="Trazado 888392" d="M39.676,46.756c-2.826.1-5.814.144-8.883.144a159.8,159.8,0,0,1-21-1.065c-4.569-.712-6.385-2.841-6.939-8.135a117.647,117.647,0,0,1,0-20.657C3.412,11.751,5.228,9.623,9.8,8.91c.742-.116,1.614-.226,2.591-.327A1.2,1.2,0,1,0,12.14,6.19c-1.019.106-1.932.221-2.714.343A10,10,0,0,0,3.14,9.545C1.659,11.2.81,13.5.465,16.795a120.517,120.517,0,0,0,0,21.157c.344,3.29,1.194,5.594,2.674,7.25a10,10,0,0,0,6.287,3.011,161.953,161.953,0,0,0,21.366,1.094c3.1,0,6.111-.049,8.964-.146a1.2,1.2,0,0,0-.081-2.4Zm0,0" transform="translate(0 -5.44)"/>
      <path id="Trazado_888393" data-name="Trazado 888393" d="M212.268,11.355c-.344-3.29-1.194-5.594-2.674-7.25a10,10,0,0,0-6.287-3.011A161.964,161.964,0,0,0,181.941,0c-3.1,0-6.111.049-8.964.146a1.2,1.2,0,1,0,.081,2.4c2.825-.1,5.814-.144,8.883-.144a159.819,159.819,0,0,1,21,1.065c4.569.713,6.385,2.841,6.938,8.135a117.555,117.555,0,0,1,0,20.657c-.553,5.293-2.37,7.422-6.938,8.135-.742.116-1.614.226-2.592.327a1.2,1.2,0,0,0,.123,2.4c.042,0,.084,0,.126-.007,1.018-.106,1.931-.221,2.713-.343a10,10,0,0,0,6.287-3.011c1.48-1.656,2.33-3.96,2.674-7.25A120.521,120.521,0,0,0,212.268,11.355Zm0,0" transform="translate(-151.148)"/>
      <path id="Trazado_888394" data-name="Trazado 888394" d="M216.114,105.252l-14.888-9.2a1.2,1.2,0,0,0-1.835,1.023v18.4a1.2,1.2,0,0,0,1.835,1.023l14.888-9.2a1.2,1.2,0,0,0,0-2.047ZM201.8,113.317V99.235l11.4,7.041Zm0,0" transform="translate(-175.407 -84.342)"/>
      <path id="Trazado_888395" data-name="Trazado 888395" d="M133.051,5.438l.081,0a1.2,1.2,0,0,0-.16-2.4h0a1.2,1.2,0,0,0,.08,2.4Zm0,0" transform="translate(-115.989 -2.667)"/>
      <path id="Trazado_888396" data-name="Trazado 888396" d="M361.269,341.664a1.2,1.2,0,0,0,.078,2.4l.081,0h0a1.2,1.2,0,0,0-.161-2.4Zm0,0" transform="translate(-316.826 -300.565)"/>
    </g>
  </g>
</svg>
