<svg xmlns="http://www.w3.org/2000/svg" width="85" height="85" viewBox="0 0 85 85">
  <g id="Grupo_1099820" data-name="Grupo 1099820" transform="translate(-284.73 -6151)">
    <circle id="Elipse_11499" data-name="Elipse 11499" cx="42.5" cy="42.5" r="42.5" transform="translate(284.73 6151)" fill="#f35923"/>
    <g id="XMLID_1020_" transform="translate(303.496 6169.765)">
      <g id="XMLID_1910_" transform="translate(0.927 1.382)">
        <circle id="XMLID_1515_" cx="22.353" cy="22.353" r="22.353" transform="translate(0.455)" fill="#80b6ff"/>
        <g id="Grupo_1102093" data-name="Grupo 1102093" transform="translate(0 4.628)">
          <path id="XMLID_1106_" d="M18.841,103.621H14.9A22.71,22.71,0,0,0,10,117.749a23,23,0,0,0,.219,3.161h.074a8.216,8.216,0,0,0,7.843-5.77,8.216,8.216,0,0,1,2.953-4.156l.145-.107a4.022,4.022,0,0,0-2.394-7.255Z" transform="translate(-10 -100.024)" fill="#89df8f"/>
          <path id="XMLID_1674_" d="M326.255,71.779a6.956,6.956,0,0,0,3.188,5.847l2.412,1.554a4.473,4.473,0,0,1,.239,7.354,4.514,4.514,0,0,0-1.827,3.627,3.328,3.328,0,0,0,3.328,3.328h6.162a22.816,22.816,0,0,0-5.663-28.667h-.883A6.956,6.956,0,0,0,326.255,71.779Z" transform="translate(-296.934 -64.823)" fill="#89df8f"/>
        </g>
      </g>
      <path id="XMLID_1821_" d="M99.6,345.586h0a7.6,7.6,0,0,0-7.6,7.6v4.676h15.205v-4.676A7.6,7.6,0,0,0,99.6,345.586Z" transform="translate(-83.471 -313.545)" fill="#c5d3de"/>
      <path id="XMLID_1820_" d="M142.311,266.579h0a3.238,3.238,0,0,0-3.238,3.238v.773a3.238,3.238,0,0,0,3.238,3.238h0a3.238,3.238,0,0,0,3.238-3.238v-.773A3.238,3.238,0,0,0,142.311,266.579Z" transform="translate(-126.178 -241.863)" fill="#f2b394"/>
      <path id="XMLID_1824_" d="M263.6,345.586h0a7.6,7.6,0,0,1,7.6,7.6v4.676H256v-4.676A7.6,7.6,0,0,1,263.6,345.586Z" transform="translate(-232.267 -313.545)" fill="#ffcd69"/>
      <path id="XMLID_1823_" d="M306.313,266.579h0a3.238,3.238,0,0,1,3.238,3.238v.773a3.238,3.238,0,0,1-3.238,3.238h0a3.238,3.238,0,0,1-3.238-3.238v-.773A3.238,3.238,0,0,1,306.313,266.579Z" transform="translate(-274.975 -241.863)" fill="#f2b394"/>
      <path id="XMLID_1807_" d="M17.6,420h0a7.6,7.6,0,0,0-7.6,7.6H25.205A7.6,7.6,0,0,0,17.6,420Z" transform="translate(-9.073 -381.06)" fill="#ffcd69"/>
      <path id="XMLID_1806_" d="M60.311,340.993h0a3.238,3.238,0,0,0-3.238,3.238V345a3.238,3.238,0,0,0,3.238,3.238h0A3.238,3.238,0,0,0,63.549,345v-.773A3.238,3.238,0,0,0,60.311,340.993Z" transform="translate(-51.781 -309.378)" fill="#f5c6af"/>
      <path id="XMLID_1812_" d="M181.6,420h0a7.6,7.6,0,0,0-7.6,7.6h15.205A7.6,7.6,0,0,0,181.6,420Z" transform="translate(-157.868 -381.06)" fill="#ff7d97"/>
      <path id="XMLID_1811_" d="M224.311,340.993h0a3.238,3.238,0,0,0-3.238,3.238V345a3.238,3.238,0,0,0,3.238,3.238h0A3.238,3.238,0,0,0,227.549,345v-.773A3.238,3.238,0,0,0,224.311,340.993Z" transform="translate(-200.575 -309.378)" fill="#f2b394"/>
      <path id="XMLID_1816_" d="M345.6,420h0a7.6,7.6,0,0,0-7.6,7.6h15.205A7.6,7.6,0,0,0,345.6,420Z" transform="translate(-306.662 -381.06)" fill="#c5d3de"/>
      <path id="XMLID_1815_" d="M388.311,340.993h0a3.238,3.238,0,0,0-3.238,3.238V345a3.238,3.238,0,0,0,3.238,3.238h0A3.238,3.238,0,0,0,391.549,345v-.773A3.238,3.238,0,0,0,388.311,340.993Z" transform="translate(-349.37 -309.378)" fill="#f5c6af"/>
      <path id="XMLID_1906_" d="M198.23,136.093a3.63,3.63,0,0,0,3.725.791,4.144,4.144,0,0,0,2.75-3.9v-1.769a3.212,3.212,0,0,0-6.027-1.545l-1.126,2.052A3.63,3.63,0,0,0,198.23,136.093Z" transform="translate(-178.83 -116.133)" fill="#89df8f"/>
      <g id="XMLID_4_" transform="translate(0 0)">
        <path id="XMLID_768_" d="M42.192,38.657a23.777,23.777,0,0,0,4.359-21.486.927.927,0,1,0-1.782.512,21.942,21.942,0,0,1-1.74,16.375,4.172,4.172,0,0,0-4.088-3.37h0a4.159,4.159,0,0,0-3.279,1.6c-.118-.069-.236-.137-.356-.2a2.394,2.394,0,0,1-.117-.74,3.6,3.6,0,0,1,1.452-2.882,5.4,5.4,0,0,0-.289-8.879l-2.412-1.555A6.029,6.029,0,0,1,37.2,6.937h.565a22.216,22.216,0,0,1,3.415,3.594.927.927,0,1,0,1.478-1.12,23.951,23.951,0,0,0-8.19-6.849A23.739,23.739,0,0,0,0,23.735,23.675,23.675,0,0,0,5.279,38.657,8.543,8.543,0,0,0,0,46.543a.927.927,0,0,0,.927.927H46.543a.927.927,0,0,0,.927-.928,8.542,8.542,0,0,0-5.278-7.885Zm-31.351-3.8v.773a2.311,2.311,0,0,1-4.622,0v-.773A2.314,2.314,0,0,1,8.53,32.542h0A2.314,2.314,0,0,1,10.841,34.853Zm1.854.773v-.773a4.164,4.164,0,0,0-.093-.876,6.679,6.679,0,0,1,7.061,0,4.163,4.163,0,0,0-.093.876v.773a4.151,4.151,0,0,0,1.2,2.92,8.578,8.578,0,0,0-4.635,4.132A8.578,8.578,0,0,0,11.5,38.546a4.151,4.151,0,0,0,1.2-2.92Zm5.748-6.9a2.311,2.311,0,0,1-4.622,0v-.773a2.314,2.314,0,0,1,2.311-2.311h0a2.314,2.314,0,0,1,2.311,2.311Zm7.6,6.126v.773a2.311,2.311,0,0,1-4.622,0v-.773a2.314,2.314,0,0,1,2.311-2.311h0A2.314,2.314,0,0,1,26.046,34.853Zm1.854.773v-.773a4.168,4.168,0,0,0-.093-.876,6.68,6.68,0,0,1,7.061,0,4.164,4.164,0,0,0-.094.877v.773a4.151,4.151,0,0,0,1.2,2.92,8.578,8.578,0,0,0-4.635,4.132A8.578,8.578,0,0,0,26.7,38.546a4.151,4.151,0,0,0,1.2-2.92Zm5.749-6.9a2.311,2.311,0,0,1-4.622,0v-.773a2.314,2.314,0,0,1,2.311-2.311h0a2.314,2.314,0,0,1,2.311,2.311v.773Zm5.291,3.815h0a2.314,2.314,0,0,1,2.311,2.311v.773a2.311,2.311,0,0,1-4.622,0v-.773A2.314,2.314,0,0,1,38.94,32.542ZM23.735,1.854A21.752,21.752,0,0,1,35.5,5.27a7.882,7.882,0,0,0-2.568,14.322l2.412,1.555a3.546,3.546,0,0,1,.19,5.83c-.043.032-.084.066-.127.1a4.172,4.172,0,0,0-4.071-3.288h0a4.17,4.17,0,0,0-4.165,4.165v.773a4.151,4.151,0,0,0,1.2,2.917,8.417,8.417,0,0,0-1.354.645,4.159,4.159,0,0,0-3.279-1.6h0a4.159,4.159,0,0,0-3.279,1.6,8.429,8.429,0,0,0-1.354-.645,4.151,4.151,0,0,0,1.2-2.917v-.773a4.17,4.17,0,0,0-4.165-4.165h0a4.17,4.17,0,0,0-4.165,4.165v.773a4.151,4.151,0,0,0,1.2,2.917,8.422,8.422,0,0,0-1.354.645,4.159,4.159,0,0,0-3.279-1.6h0A4.172,4.172,0,0,0,4.441,34.06a21.8,21.8,0,0,1-2.214-6.293,9.073,9.073,0,0,0,4.411-1.722A9.083,9.083,0,0,0,9.949,21.4a7.243,7.243,0,0,1,2.62-3.687l.145-.107A4.95,4.95,0,0,0,9.768,8.68h-1.9A21.821,21.821,0,0,1,23.735,1.854ZM6.3,10.534H9.768a3.1,3.1,0,0,1,1.842,5.583l-.145.107A9.084,9.084,0,0,0,8.179,20.85a7.252,7.252,0,0,1-6.214,5.08q-.109-1.089-.111-2.195A21.767,21.767,0,0,1,6.3,10.534ZM1.918,45.616a6.686,6.686,0,0,1,6.611-5.748h0a6.685,6.685,0,0,1,6.611,5.748Zm15.205,0a6.686,6.686,0,0,1,6.611-5.748h0a6.685,6.685,0,0,1,6.611,5.748Zm15.205,0a6.686,6.686,0,0,1,6.611-5.748h0a6.685,6.685,0,0,1,6.611,5.748Z" transform="translate(0 0)"/>
        <path id="XMLID_1169_" d="M188.529,127.691a4.537,4.537,0,0,0,4.676.993,5.081,5.081,0,0,0,3.365-4.775v-1.769a4.139,4.139,0,0,0-7.767-1.991l-1.126,2.052A4.562,4.562,0,0,0,188.529,127.691Zm.774-4.6,1.126-2.052a2.285,2.285,0,0,1,4.287,1.1v1.769a3.223,3.223,0,0,1-2.135,3.029,2.7,2.7,0,0,1-3.279-3.845Z" transform="translate(-169.768 -107.06)"/>
        <path id="XMLID_1178_" d="M467.047,137.9a.927.927,0,1,0-.656-.272A.934.934,0,0,0,467.047,137.9Z" transform="translate(-422.904 -123.436)"/>
      </g>
    </g>
  </g>
</svg>
