<svg xmlns="http://www.w3.org/2000/svg" xmlns:xlink="http://www.w3.org/1999/xlink" width="85" height="85" viewBox="0 0 85 85">
  <defs>
    <clipPath id="clip-path">
      <rect id="Rectángulo_401458" data-name="Rectángulo 401458" width="61" height="61" transform="translate(301.064 6167.334)" fill="#fff" stroke="#707070" stroke-width="1"/>
    </clipPath>
  </defs>
  <g id="Grupo_1099821" data-name="Grupo 1099821" transform="translate(-284.73 -6151)">
    <circle id="Elipse_11499" data-name="Elipse 11499" cx="42.5" cy="42.5" r="42.5" transform="translate(284.73 6151)" fill="#f35923"/>
    <g id="XMLID_1215_" transform="translate(301.56 6167.716)">
      <path id="XMLID_3115_" d="M16.828,89.467a3.772,3.772,0,1,0-5.278,5.278,4.913,4.913,0,1,0,5.278-5.278Z" transform="translate(-9.027 -79.016)" fill="#cbe558"/>
      <path id="XMLID_3114_" d="M180.158,13.79a5.576,5.576,0,0,0-10.474,0,5.024,5.024,0,1,0,5.237,7.9,5.024,5.024,0,1,0,5.237-7.9Z" transform="translate(-149.251 -8.998)" fill="#cbe558"/>
      <path id="XMLID_3113_" d="M59.351,204.571a19.719,19.719,0,1,1,39.438,0c0,10.891-7.306,11.649-18.2,11.649s-21.242-.758-21.242-11.649Z" transform="translate(-53.399 -166.201)" fill="#80b6ff"/>
      <g id="Grupo_1102092" data-name="Grupo 1102092" transform="translate(5.952 23.045)">
        <path id="XMLID_3112_" d="M67.076,269.911a4.912,4.912,0,0,1,1.989-3.948,3.478,3.478,0,0,0-2.07-6.272H63.589a19.635,19.635,0,0,0-4.238,12.214c0,3.421,1.022,5.842,2.761,7.553l4.965-8.975v-.573Z" transform="translate(-59.351 -256.581)" fill="#89df8f"/>
        <path id="XMLID_3111_" d="M318.989,228.72a7.884,7.884,0,0,0-.818-.044,6.014,6.014,0,0,0-3.258,11.069L317,241.089a3.867,3.867,0,0,1,.207,6.358,3.9,3.9,0,0,0-1.58,3.136,2.877,2.877,0,0,0,2.877,2.877,6.519,6.519,0,0,0,5.827-3.6,21.043,21.043,0,0,0,1.914-5.816c0-.014,0-.027,0-.041a19.679,19.679,0,0,0-7.256-15.28Z" transform="translate(-286.806 -228.676)" fill="#89df8f"/>
        <path id="XMLID_3110_" d="M214.217,300.82a3.265,3.265,0,0,0-3.351-.711,3.727,3.727,0,0,0-2.474,3.51v1.592a2.889,2.889,0,0,0,5.421,1.39l1.013-1.846A3.265,3.265,0,0,0,214.217,300.82Z" transform="translate(-193.448 -292.774)" fill="#89df8f"/>
      </g>
      <path id="XMLID_3106_" d="M34.668,276.122v0a11.822,11.822,0,0,0-3.463-8.359,8.276,8.276,0,0,0-5.852-2.424l-4.559-4.559a2.714,2.714,0,0,0-3.838,3.838l5.285,5.285.4.4L16.8,264.467a6.659,6.659,0,0,1-1.95-4.709v-6.366a2.426,2.426,0,0,0-4.852,0v5.7a15.609,15.609,0,0,0,4.572,11.038l5.991,5.991Z" transform="translate(-8.997 -225.685)" fill="#f2d2bd"/>
      <path id="XMLID_3103_" d="M256,276.122v0a11.822,11.822,0,0,1,3.463-8.359,8.276,8.276,0,0,1,5.852-2.424l4.559-4.559a2.714,2.714,0,0,1,3.838,3.838l-5.285,5.285-.4.4,5.843-5.843a6.659,6.659,0,0,0,1.95-4.709v-6.366a2.426,2.426,0,0,1,4.852,0v5.7a15.609,15.609,0,0,1-4.572,11.038l-5.991,5.991Z" transform="translate(-230.327 -225.685)" fill="#f2d2bd"/>
      <path id="XMLID_1630_" d="M393.53,89.467a3.772,3.772,0,1,1,5.278,5.278,4.913,4.913,0,1,1-5.278-5.278Z" transform="translate(-349.991 -79.016)" fill="#cbe558"/>
      <g id="XMLID_638_" transform="translate(0 0.127)">
        <path id="XMLID_665_" d="M205.913,291.07a4.246,4.246,0,0,0-4.38-.93,4.74,4.74,0,0,0-3.139,4.454v1.592a3.892,3.892,0,0,0,7.3,1.872l1.013-1.846A4.272,4.272,0,0,0,205.913,291.07Zm-.961,4.178-1.013,1.846a1.886,1.886,0,0,1-3.54-.907V294.6a2.73,2.73,0,0,1,1.808-2.566,2.262,2.262,0,0,1,2.744,3.219Z" transform="translate(-178.5 -260.833)"/>
        <path id="XMLID_673_" d="M389.749,464.205l-2.8,2.8a1,1,0,1,0,1.418,1.418l2.8-2.8a1,1,0,0,0-1.418-1.418Z" transform="translate(-347.882 -417.405)"/>
        <path id="XMLID_682_" d="M50.12,25.083a3.429,3.429,0,0,0-5.636,2.624v1.971a20.767,20.767,0,0,0-5.091-6.835l1.78-2.259a5.878,5.878,0,0,0,2.748.679,5.944,5.944,0,0,0,5.847-5.02A4.774,4.774,0,1,0,43.025,9.5a5.911,5.911,0,0,0-3.443,9.863l-1.753,2.225a20.7,20.7,0,0,0-11.155-3.916V14.89A6.029,6.029,0,1,0,31.652,3.968a6.578,6.578,0,0,0-11.963,0A6.028,6.028,0,1,0,24.668,14.89v2.783a20.7,20.7,0,0,0-11.155,3.916L11.76,19.363A5.911,5.911,0,0,0,8.316,9.5a4.774,4.774,0,1,0-6.743,6.743,5.944,5.944,0,0,0,5.847,5.02,5.878,5.878,0,0,0,2.748-.679l1.78,2.259a20.767,20.767,0,0,0-5.091,6.835V27.707a3.429,3.429,0,1,0-6.857,0v5.7A16.5,16.5,0,0,0,4.866,45.155l5.991,5.991a1,1,0,0,0,1.418-1.418L6.284,43.737A14.512,14.512,0,0,1,2.006,33.408v-5.7a1.423,1.423,0,0,1,2.846,0v6.366A7.612,7.612,0,0,0,7.1,39.491l5.439,5.439.4.4a1,1,0,1,0,1.418-1.418l-5.69-5.69a1.711,1.711,0,0,1,2.42-2.42l4.559,4.559a1,1,0,0,0,.709.294A7.226,7.226,0,0,1,21.5,42.79a10.748,10.748,0,0,1,3.169,7.65,1,1,0,1,0,2.006,0,10.748,10.748,0,0,1,3.169-7.65,7.226,7.226,0,0,1,5.143-2.13,1,1,0,0,0,.709-.294l4.559-4.559a1.711,1.711,0,0,1,2.42,2.42l-5.69,5.69A1,1,0,1,0,38.4,45.334l.4-.4,5.439-5.439a7.612,7.612,0,0,0,2.244-5.418V27.707a1.423,1.423,0,0,1,2.846,0v5.7a14.653,14.653,0,0,1-1.755,6.942,1,1,0,1,0,1.765.953,16.666,16.666,0,0,0,2-7.9v-5.7a3.421,3.421,0,0,0-1.222-2.624Zm-6.5-13.633a1,1,0,0,0,.727-.4,2.769,2.769,0,1,1,3.875,3.875,1,1,0,0,0-.4.727,3.91,3.91,0,1,1-4.2-4.2ZM17.637,9.665a4.014,4.014,0,0,1,3.04-3.9,1,1,0,0,0,.7-.629,4.573,4.573,0,0,1,8.59,0,1,1,0,0,0,.7.629,4.021,4.021,0,1,1-3.8,6.768l1.816-1.816A1,1,0,0,0,27.263,9.3l-.59.59V6.516a1,1,0,0,0-2.006,0V10.9l-1.6-1.6a1,1,0,0,0-1.418,1.418l2.268,2.268a4.022,4.022,0,0,1-6.284-3.325ZM3.523,15.652a1,1,0,0,0-.4-.727A2.769,2.769,0,1,1,7,11.05a1,1,0,0,0,.727.4,3.91,3.91,0,1,1-4.2,4.2ZM7.414,34.233A18.547,18.547,0,0,1,10.7,27.158H13.6a2.475,2.475,0,0,1,1.473,4.464A5.937,5.937,0,0,0,12.9,34.78l-.392-.392a3.721,3.721,0,0,0-5.091-.155Zm27.146,4.43a9.212,9.212,0,0,0-6.136,2.708,12.808,12.808,0,0,0-2.753,4.081,12.808,12.808,0,0,0-2.753-4.081,9.212,9.212,0,0,0-6.136-2.708l-2.1-2.1v-.187a3.925,3.925,0,0,1,1.583-3.142A4.48,4.48,0,0,0,13.6,25.152h-1.15A18.631,18.631,0,0,1,35.3,22.339a7.016,7.016,0,0,0-1.784,12.618L35.6,36.3a2.863,2.863,0,0,1,.692.629Zm4.275-4.275-1.119,1.119a4.867,4.867,0,0,0-1.03-.891L34.6,33.272a5.011,5.011,0,0,1,2.715-9.224h.373a18.684,18.684,0,0,1,6.237,10.186A3.721,3.721,0,0,0,38.836,34.388Z" transform="translate(0 -0.127)"/>
        <path id="XMLID_1075_" d="M447.41,432.1a1,1,0,1,0,.709.293A1.01,1.01,0,0,0,447.41,432.1Z" transform="translate(-401.643 -388.781)"/>
      </g>
    </g>
  </g>
</svg>
